<?xml version="1.0" encoding="UTF-8" standalone="no"?>
<svg
   xmlns:svg="http://www.w3.org/2000/svg"
   xmlns="http://www.w3.org/2000/svg"
   width="320.0"
   height="164.90093207262808"

>
    <g transform="scale(3.260800333730458, -3.260800333730458)   translate(49.17420773681764,-9.066731776416278)" stroke-width="0.2"  fill="none">
       <!-- hidden lines -->
       <g  stroke="rgb(160,160,160)" fill="none" stroke-dasharray="0.2,0.2" >

       </g>

       <!-- solid lines -->
       <g  stroke="rgb(0,0,0)" fill="none">
			<path d="M-40.59901610219973,-26.3653093331165 L-40.2671830128315,-26.869380657334226 L-39.929091797683164,-27.369276075734703 L-39.58479500121376,-27.864917897052454 L-39.23434613232304,-28.356229091094967 L-38.87779965603528,-28.84313330071432 L-38.515210985034656,-29.32555485367425 L-38.14663647105328,-29.803418774410755 L-37.77213339611327,-30.2766507956844 L-37.391759963624246,-30.745177370122597 L-37.005575289337706,-31.20892568164995 L-36.61363939215951,-31.66782365680498 L-36.21601318482202,-32.121799975941414 L-35.81275846441737,-32.57078408431234 L-35.403937902793274,-33.01470620303547 L-34.9896150368129,-33.45349733993785 L-34.569854258480206,-33.88708930027821 L-34.14472080493254,-34.31541469734556 L-33.714280748301746,-34.738406962932004 L-33.27860098544562,-35.15600035767849 L-32.83774922755107,-35.56812998129169 L-32.391793989610846,-35.97473178263047 " />
			<path d="M40.45068542407016,-26.268982264435063 L40.066147338765745,-25.763878338890244 L39.67530838812722,-25.263633969292584 L39.278229977768156,-24.768327750194647 L38.87497449359808,-24.278037500304713 L38.46560529202094,-23.792840250260497 L38.050186689980954,-23.31281223052673 L37.62878395485772,-22.838028859418365 L37.2014632942118,-22.36856473125146 L36.76829184538279,-21.90449360462349 L36.329337664941185,-21.445888390824933 L35.88466971799585,-20.992821142384052 L35.43435786735871,-20.545363041746533 L34.97847286256853,-20.103584390091854 L34.517086328775214,-19.66755459628807 L34.05027075548666,-19.237342165986874 L33.57809948517974,-18.813014690860506 L33.10064670177729,-18.39463883798222 L32.61798741899293,-17.98228033935213 L32.13019746854545,-17.57600398156987 L31.63735348824474,-17.175873595655816 L31.13953290995103,-16.78195204702247 L30.636813947409408,-16.39430122559751 L30.12927558396146,-16.012982036100112 L29.616997560136014,-15.638054388472106 L29.100060361120924,-15.269577188465362 L28.578545204117884,-14.907608328386942 L28.052534025582162,-14.552204678003548 L27.5221094683494,-14.20342207560659 L26.98735486865136,-13.861315319239253 L26.448354243022884,-13.5259381580871 L25.905192275101726,-13.197343284033359 L25.35795430232381,-12.875582323380428 L24.806726302515628,-12.560705828738733 L24.251594880386044,-12.25276327108429 L23.69264725391968,-11.951803031986174 L23.12997124067386,-11.657872396005224 L22.56365524398139,-11.37101754326504 L21.99378823906133,-11.091283542196507 L21.420459759039836,-10.818714342457014 L20.843759880883496,-10.553352768025377 L20.26377921124704,-10.295240510473697 L19.680608872237958,-10.044418122417113 L19.094340487100087,-9.800925011142468 L18.505066165818484,-9.56479943241689 L17.912878490647792,-9.336078484477483 L17.317870501566443,-9.114798102202542 L16.720135681658917,-8.900993051465917 L16.11976794242841,-8.69469692367474 L15.516861609042184,-8.495942130491912 L14.911511405511906,-8.304759898743697 L14.303812439811349,-8.121180265513722 L13.693860188933762,-7.945232073423739 L13.081750483891224,-7.776942966102084 L12.46757949465848,-7.616339383840511 L11.85144371506339,-7.463446559440158 L11.233439947626568,-7.3182885142470795 L10.613665288352564,-7.180888054378272 L9.992217111474815,-7.051266767138465 L9.369193054157016,-6.929445017628623 L8.744691001153072,-6.815441945546183 L8.11880906942822,-6.709275462178077 L7.491645592743652,-6.610962247586642 L6.863299106207048,-6.5205177479889045 L6.233868330791523,-6.437956173329873 L5.603452157825306,-6.363290495049924 L4.9721496334547375,-6.296532444046861 L4.340059943082881,-6.237692508832836 L3.707282395786283,-6.18677993388647 L3.0739164087122575,-6.143802718200433 L2.4400614914592893,-6.108767614024714 L1.8058172304427913,-6.081680125805747 L1.1712832732488891,-6.062544509321597 L0.5365593129785573,-6.051363771013321 L-0.09825492741542874,-6.048139667512643 L-0.7330597107961587,-6.052872705365942 L-1.3677553015125454,-6.065562140954654 L-2.002241981068991,-6.086205980612149 L-2.6364200637924533,-6.114800980936927 L-3.2701899124942173,-6.151342649302194 L-3.90345195412419,-6.1958252445617035 L-4.536106695414997,-6.248241777951819 L-5.168054738513646,-6.308584014189478 L-5.799196796598139,-6.37684247276605 L-6.429433709476637,-6.4530064294368685 L-7.058666459166776,-6.537063917906153 L-7.6867961854525895,-6.629001731707028 L-8.31372420141668,-6.728805426276438 L-8.939352008945143,-6.836459321224567 L-9.563581314202839,-6.951946502798428 L-10.18631404307655,-7.075248826539202 L-10.80745235658366,-7.2063469201329795 L-11.426898666243833,-7.345220186454355 L-12.044555649411382,-7.491846806802542 L-12.660326264565875,-7.6462037443292985 L-13.274113766558491,-7.808266747658372 L-13.885821721811947,-7.978010354695606 L-14.495354023471357,-8.155407896629391 L-15.10261490650383,-8.340431502120708 L-15.707508962744287,-8.533052101681974 L-16.309941155885333,-8.733239432244247 L-16.909816836408552,-8.940962041911995 L-17.50704175645518,-9.156187294904456 L-18.10152208463358,-9.37888137668321 L-18.693164420761278,-9.609009299264827 L-19.28187581053934,-9.846534906717935 L-19.86756376015658,-10.0914208808437 L-20.45013625082153,-10.343628747039048 L-21.02950175321968,-10.603118880341484 L-21.60556924189389,-10.869850511654619 L-22.178248209545607,-11.143781734153514 L-22.747448681254653,-11.424869509868806 L-23.313081228615438,-11.713069676448441 L-23.87505698378721,-12.008336954096158 L-24.433287653456325,-12.310624952685487 L-24.98768553270822,-12.619886179048216 L-25.538163518806893,-12.936072044436166 L-26.08463512487986,-13.259132872155043 L-26.627014493506284,-13.58901790536931 L-27.165216410206238,-13.925675315076674 L-27.69915631682895,-14.269052208251075 L-28.22875032483795,-14.61909463615281 L-28.753915228490946,-14.975747602804589 L-29.274568517912513,-15.33895507363205 L-29.790628392057396,-15.708659984267463 L-30.30201377156246,-16.0848042495153 L-30.808644311485264,-16.467328772478083 L-31.31044041392723,-16.856173453841265 L-31.807323240539457,-17.25127720131554 L-32.29921472490921,-17.652577939235236 L-32.7860375848251,-18.06001261831115 L-33.26771533441907,-18.47351722553634 L-33.74417229618329,-18.89302679424341 L-34.21533361285998,-19.31847541431152 L-34.68112525920246,-19.749796242521732 L-35.141474053605386,-20.18692151305885 L-35.596307669602524,-20.629782548158282 L-36.045554647230084,-21.07830976889619 L-36.489144404253985,-21.532432706121185 L-36.92700724725919,-21.99208001152585 L-37.3590743825994,-22.457179468856516 L-37.78527792720539,-22.927658005259268 L-38.20555091925026,-23.40344170276059 L-38.61982732866996,-23.88445580988084 L-39.028042067537456,-24.370624753378593 L-39.43013100028883,-24.8618721501241 L-39.82603095379973,-25.358120819100087 L-40.21567972731072,-25.85929279352779 L-40.59901610219973,-26.365309333116496 " />
			<path d="M-32.39179398961085,-35.97473178263048 L-37.251361444108625,-35.97322159285662 " />
			<path d="M34.69513428591641,-33.504701720333436 L35.12111019648993,-33.057903730459046 L35.5413327689911,-32.60569038511723 L35.95573316497741,-32.14813576329473 L36.36424349976179,-31.685314818955465 L36.766796853533066,-31.217303368761954 L37.16332728231844,-30.74417807965554 L37.55376982878595,-30.266016456297184 L37.938060532885515,-29.78289682837114 L38.316136442326446,-29.294898337753434 L38.68793562288991,-28.802100925547293 L39.053397168574676,-28.304585318987616 L39.41246121157439,-27.802433018216785 L39.76506893208471,-27.29572628293369 L40.11116256793893,-26.784548118918497 L40.45068542407016,-26.26898226443507 " />
			<path d="M-37.251361444108625,-35.973221592856625 L-37.6782306193521,-35.53473545906001 L-38.0995238864888,-35.090889353556946 L-38.51517394876955,-34.64175417565285 L-38.925114410882244,-34.18740166952158 L-39.32927978955764,-33.72790441274508 L-39.72760552402956,-33.26333580472003 L-40.12002798634781,-32.79377005493302 L-40.506484491541926,-32.31928217110658 L-40.8869133076344,-31.839947947217425 L-41.2612536655017,-31.35584395138933 L-41.62944576858136,-30.867047513662207 L-41.991430802423864,-30.373636713639566 L-42.347150944087524,-29.87569036801614 L-42.696549371375056,-29.373288017987857 L-43.039570271910286,-28.86650991654607 L-43.37615885205348,-28.355437015658012 L-43.706261345654056,-27.840150953335705 L-44.02982502263909,-27.32073404059521 L-44.34679819743631,-26.79726924830836 L-44.6571302372303,-26.269840193949157 L-44.96077157005052,-25.73853112823683 L-45.25767369268981,-25.203426921677753 L-45.547789178452284,-24.664613051008345 L-45.83107168472914,-24.12217558554117 L-46.107475960401366,-23.576201173416344 " />
			<path d="M34.60903669706836,-38.437229281946514 L34.6951342859164,-33.504701720333436 " />
			<path d="M-46.107475960401366,-23.576201173416344 L-45.731215158309084,-23.033884158528167 L-45.348548121700695,-22.496068321162156 L-44.959528692067856,-21.962829332343354 L-44.564211604687884,-21.434242219131377 L-44.1626524809225,-20.910381354064015 L-43.75490782039184,-20.391320444692973 L-43.34103499302494,-19.877132523213213 L-42.92109223098774,-19.36788993618722 L-42.49513862048981,-18.863664334365843 L-42.06323409347085,-18.36452666260697 L-41.6254394191682,-17.870547149893532 L-41.1818161955667,-17.38179529945227 L-40.732426840731634,-16.89833987897456 L-40.27733458402662,-16.420248910940764 L-39.81660345721712,-15.94758966304942 L-39.35029828546116,-15.48042863875267 L-38.87848467818835,-15.018831567899113 L-38.40122901986867,-14.562863397485657 L-37.91859846067206,-14.112588282519354 L-37.430660907020375,-13.668069576990824 L-36.93748501203293,-13.229369824960237 L-36.439140165866945,-12.796550751757415 L-35.935696485954296,-12.369673255296938 L-35.427224807135985,-11.948797397509828 L-34.91379667169556,-11.53398239589282 L-34.39548431929316,-11.125286615176357 L-33.87236067680129,-10.722767559112668 L-33.34449934804401,-10.326481862384988 L-32.81197460344076,-9.936485282638962 L-32.27486136955655,-9.552832692637551 L-31.733235218559678,-9.175578072540368 L-31.187172357588707,-8.804774502308696 L-30.6367496180301,-8.440474154237016 L-30.08204444470794,-8.082728285612397 L-29.523134884987414,-7.731587231502566 L-28.960099577793542,-7.387100397673684 L-28.39301774254656,-7.049316253638956 L-27.82196916801577,-6.718282325838963 L-27.247034201093136,-6.394045190954593 L-26.668293735488497,-6.076650469353744 L-26.085829200347725,-5.766142818672485 L-25.499722548795617,-5.462565927531664 L-24.910056246405006,-5.1659625093899635 L-24.31691325959386,-4.876374296534003 L-23.720377043951807,-4.593842034206681 L-23.12053153249787,-4.318405474874176 L-22.517461123871115,-4.0501033726328615 L-21.911250670455622,-3.7889734777565067 L-21.301985466441757,-3.535052531384828 L-20.68975123582519,-3.2883762603539637 L-20.074634120345507,-3.048979372169704 L-19.456720667366,-2.8168955501240873 L-18.836097817696412,-2.5921574485562147 L-18.212852893360242,-2.3747966882576605 L-17.587073585308595,-2.1648438520235302 L-16.958847941081935,-1.9623284803493135 L-16.32826435242174,-1.7672790672746146 L-15.695411542833765,-1.5797230563739717 L-15.060378555104558,-1.3996868368955617 L-14.423254738773126,-1.2271957400481952 L-13.784129737559317,-1.0622740354371771 L-13.143093476750993,-0.9049449276496233 L-12.500236150551396,-0.7552305529895023 L-11.855648209388859,-0.6131519763630777 L-11.209420347190287,-0.47872918831502886 L-10.561643488620502,-0.35198110221579526 L-9.912408776289114,-0.23292555160048067 L-9.261807557926614,-0.12157928765956427 L-8.609931373531827,-0.01795797688212275 L-7.956871942492024,0.07792380114855035 L-7.302721150678062,0.1660525558062389 L-6.647571037515926,0.24641588731999775 L-5.991513783036739,0.31900248851875546 " />
			<path d="M45.89447733208698,-23.851686866687366 L45.59614771105633,-24.41715237048506 L45.29085133408893,-24.978887113028225 L44.978634848225184,-25.536805265380675 L44.659545957847314,-26.09082158175311 L44.33363341739036,-26.640851412528097 L44.00094702389285,-27.186810717193833 L43.661537609388304,-27.728616077184984 L43.31545703313833,-28.2661847086284 L42.962758173709005,-28.79943447499189 L42.60349492089135,-29.328283899634066 L42.237722167467496,-29.852652178253386 L41.86549580082324,-30.372459191234444 L41.48687269440914,-30.887625515889695 L41.101910699050435,-31.398072438594607 L40.710668634108,-31.90372196681455 L40.31320627849115,-32.40449684102148 L39.909584361523855,-32.90032054649865 L39.49986455366572,-33.39111732503143 L39.08410945708921,-33.87681218648266 L38.66238259611457,-34.357330920250604 L38.23474840750366,-34.832600106607714 L37.80127223061454,-35.3025471279187 L37.362020297418155,-35.76710017973592 L36.917059722378454,-36.226188281770604 L36.466458492197916,-36.679741288738086 L36.01028545542961,-37.12768990107554 L35.548610311957646,-37.56996567553036 L35.08150360234761,-38.00650103561789 L34.609036697068376,-38.437229281946514 " />
			<path d="M5.993676966032355,0.2753841441571714 L5.979773604172049,0.492247542245992 L5.958026268156928,0.7084652341166952 L5.9284634850773035,0.9237535959903362 L5.89112403394418,1.1378302231375474 L5.84605689482086,1.3504143003232296 L5.7933211845732835,1.5612269701662265 L5.732986079323421,1.7699916989307787 L5.665130723707435,1.9764346392699355 L5.589844127057606,2.180284989445094 L5.507225046644263,2.3812753485504565 L5.417381858130826,2.5791420672764414 L5.320432413411922,2.7736255937519374 L5.216503886021038,2.9644708140117366 L5.105732604310511,3.151427386642537 L4.988263872622669,3.334250071168552 L4.864251780686716,3.512699049745952 L4.733859001491366,3.6865402417441704 L4.597256577898387,3.855545610801409 L4.454623698276952,4.019493463951568 L4.306147461453108,4.178168742430223 L4.152022631282705,4.331363303778181 L3.9924513811697038,4.478876194872562 L3.827643028865008,4.620513915527266 L3.657813761893688,4.756090672317039 L3.483186353970778,4.885428622292189 L3.3039898727776214,5.008358106264259 L3.1204593794821065,5.124717871356641 L2.932835620396943,5.234355282528201 L2.7413647111804327,5.337126522792449 L2.5462978139940073,5.432896781869626 L2.3478908080400025,5.521540433024217 L2.1464039539118565,5.602941197855957 L1.9421015521970038,5.676992298828138 L1.7352515967803137,5.743596599333154 L1.5261254233028347,5.802666731111545 L1.3149973532369896,5.8541252088574005 L1.1021443340451034,5.897904531859792 L0.8878455758932852,5.933947272546893 L0.6723821853972065,5.962206151816664 L0.4560367968802106,5.982644101055255 L0.23909320162744832,5.995234310761802 L0.02183597562236983,5.999960265715817 L-0.19544989374611418,5.9968157666410455 L-0.4124793815161317,5.985804938337372 L-0.6289677990346351,5.96694222427011 L-0.844631167398034,5.940252367623772 L-1.059186589961813,5.905770378845173 L-1.2723526234304945,5.86354148971844 L-1.4838496470411717,5.813621094032169 L-1.6934002293563286,5.756074674916573 L-1.9007294921848148,5.690977718945915 L-2.1055654711535925,5.618415617118918 L-2.3076394724572835,5.5384835528470315 L-2.506686425317541,5.451286377097499 L-2.7024452296899213,5.356938470854989 L-2.8946590987621255,5.255563595082228 L-3.0830758957943707,5.147294728376425 L-3.267448464860013,5.032273892534462 L-3.447534955052591,4.910651966255655 L-3.6230991377339983,4.782588487226469 L-3.7939107164076398,4.6482514428467905 L-3.959745628810101,4.507817049872288 L-4.12038634082505,4.361469523261896 L-4.275622131833837,4.2094008345336595 L-4.4252493711284835,4.051810459945894 L-4.569071785024468,3.8889051188340047 L-4.706900714322939,3.720898502446178 L-4.838555361784607,3.5480109936336763 L-4.963863029290714,3.370469377763402 L-5.082659344379962,3.188506545231961 L-5.194788475864261,3.0023611859714467 L-5.300103338240449,2.8122774763476763 L-5.398465784629851,2.6185047588615937 L-5.489746787992589,2.421297215073987 L-5.573826610378937,2.220913532182567 L-5.6505949599956935,2.017616563688768 L-5.719951135881556,1.8116729845994008 L-5.781804160001714,1.6033529416154375 L-5.836072896588376,1.3929296987668 L-5.882686158570696,1.1806792789579885 L-5.9215828009544875,0.9668801018947535 L-5.952711801029234,0.7518126188667615 L-5.976032325297178,0.5357589448653287 L-5.991513783036705,0.3190024885187914 " />
			<path d="M5.993676966032387,0.27538414415727175 L6.648212651228304,0.19814531014336723 L7.301787621496851,0.11315967069062793 L7.954310192215145,0.02043914773097555 L8.605688826392731,-0.08000325174086953 L9.255832147512537,-0.18815343749206903 L9.904648952349357,-0.3039962380282262 L10.552048223763956,-0.42751540272168853 L11.19793914347112,-0.5586936040912391 L11.842231104779833,-0.6975124402327779 L12.48483372530371,-0.8439524374007874 L13.125656859639998,-0.9979930527401635 L13.764610612015334,-1.159612677167999 L14.401605348896483,-1.328788638404923 L15.036551711564272,-1.5054972041556098 L15.669360628648988,-1.689713585438021 L16.29994332862548,-1.8814119400607865 L16.92821135226616,-2.080565376248444 L17.554076565050224,-2.287145956413859 L18.177451169527316,-2.501124701077309 L18.798247717633913,-2.722471592931825 L19.416379122960663,-2.951155581054074 L20.031758672969055,-3.187144585260185 L20.64430004115556,-3.430405500606085 L21.253917299161706,-3.680904202031435 L21.860524928828227,-3.938605549146807 L22.464037834191714,-4.20347339116325 L23.06437135342199,-4.475470571963541 L23.66144127069868,-4.75455893531452 L24.255163828025076,-5.040699330219759 L24.845455736977925,-5.3338516164116285 L25.432234190391206,-5.633974669982386 L26.01541687397252,-5.941026389152974 L26.594921977850248,-6.254963700179211 L27.17066820804998,-6.575742563394222 L27.742574797898598,-6.903317979386401 L28.310561519354323,-7.237643995312013 L28.874548694261293,-7.578673711341537 L29.43445720552691,-7.926359287238839 L29.990208508220547,-8.2806519490723 L30.54172464059196,-8.641501996056924 L31.088928235007877,-9.008858807526387 L31.631742528805304,-9.38267085003428 L32.1700913750599,-9.762885684583203 L32.70389925326796,-10.149449973981135 L33.23309127994066,-10.542309490323504 L33.757593219108735,-10.941409122600525 L34.27733149273649,-11.346692884428165 L34.79223319104344,-11.758103921902041 L35.302226082732226,-12.175584521573008 L35.807238625121336,-12.599076118543259 L36.30719997418122,-13.028519304681922 L36.802039994472466,-13.463853836958975 L37.291689268984456,-13.905018645896185 L37.77607910887334,-14.351951844134064 L38.255141563097816,-14.804590735113557 L38.72880942795144,-15.262871821871151 L39.19701625649004,-15.726730815946446 L39.65969636785303,-16.19610264640057 L40.11678485647724,-16.67092146894445 L40.56821760120195,-17.151120675175605 L41.01393127426398,-17.636632901922027 L41.45386335018133,-18.127390040692084 L41.88795211452444,-18.62332324722881 L42.31613667257355,-19.124362951167534 L42.73835695786113,-19.630438865795362 L43.15455374059813,-20.141479997911055 L43.56466863598279,-20.65741465778413 L43.968644112391,-21.1781704692116 L44.36642349944691,-21.70367437967102 L44.75795099597277,-22.233852670568446 L45.14317167781681,-22.76863096757976 L45.52203150555809,-23.307934251084106 L45.894477332087206,-23.851686866687714 " />
			<path d="M1.5000000000000002,-3.6739403974420594e-16 L1.4960898472769248,0.10823663370092376 L1.4843797748334562,0.21590897171117832 L1.4649308335651303,0.3224556603165357 L1.4378444212461623,0.42732121441754956 L1.403261753888402,0.5299589135716533 L1.361363129506436,0.6298336523403966 L1.3123669881272249,0.7264247300814289 L1.2565287729449475,0.819228565640545 L1.1941395985584662,0.9077613227906474 L1.1255247332346041,0.9915614327298 L1.0510419031100144,1.0701920004872394 L0.9710794271727422,1.1432430826914544 L0.8860541927468276,1.210333824825105 L0.7964094820348311,1.2711144468241293 L0.7026126610496861,1.325268066669034 L0.6051527429847138,1.3725123524610179 L0.5045378387252638,1.4126009943697617 L0.4012925077938323,1.4453249887788344 L0.29595502353960124,1.47051372793377 L0.18907456683043533,1.4880358894119066 L0.08120836287812763,1.4978001207766858 L-0.027081223875839243,1.499755515846962 L-0.13522962166809638,1.4938918800982564 L-0.24267299482914556,1.4802397838122894 L-0.34885118336146403,1.458870402697685 L-0.45321062335435747,1.4298951468127845 L-0.5552072330098698,1.393465079725188 L-0.6543092492333494,1.3497701309362606 L-0.7499999999999986,1.2990381056766587 L-0.8417805980435723,1.2415334972353365 L-0.9291725418235834,1.1775561080140091 L-1.0117202102107703,1.1074394864962485 L-1.0889932378846958,1.031549188280135 L-1.1605887590592543,0.9502808702406359 L-1.2261335078383375,0.8640582277578593 L-1.2852857642513837,0.7733307857655323 L-1.3377371358230734,0.6785715551361396 L-1.3832141653888999,0.5802745666212579 L-1.4214797567742037,0.47895229520396876 L-1.4523344109038452,0.37513298829159303 L-1.4756172658980042,0.26935791167830575 L-1.4912069357315396,0.1621785276359106 L-1.4990221430845154,0.05415361984490232 L-1.4990221430845152,-0.05415361984490721 L-1.4912069357315387,-0.16217852763591548 L-1.4756172658980033,-0.2693579116783105 L-1.4523344109038436,-0.37513298829159786 L-1.4214797567742024,-0.4789522952039734 L-1.383214165388898,-0.5802745666212624 L-1.3377371358230714,-0.6785715551361441 L-1.2852857642513813,-0.7733307857655364 L-1.2261335078383349,-0.8640582277578633 L-1.160588759059251,-0.9502808702406395 L-1.0889932378846925,-1.0315491882801389 L-1.0117202102107665,-1.1074394864962518 L-0.9291725418235802,-1.1775561080140118 L-0.8417805980435695,-1.2415334972353385 L-0.7499999999999961,-1.29903810567666 L-0.6543092492333474,-1.3497701309362615 L-0.5552072330098681,-1.3934650797251884 L-0.4532106233543559,-1.4298951468127852 L-0.3488511833614628,-1.4588704026976855 L-0.24267299482914464,-1.4802397838122898 L-0.1352296216680958,-1.4938918800982566 L-0.027081223875839014,-1.499755515846962 L0.08120836287812754,-1.4978001207766858 L0.1890745668304349,-1.4880358894119063 L0.29595502353960057,-1.47051372793377 L0.4012925077938313,-1.4453249887788344 L0.5045378387252625,-1.4126009943697624 L0.605152742984712,-1.3725123524610188 L0.7026126610496842,-1.325268066669035 L0.796409482034829,-1.2711144468241307 L0.8860541927468252,-1.2103338248251068 L0.9710794271727398,-1.1432430826914564 L1.0510419031100118,-1.0701920004872418 L1.1255247332346014,-0.9915614327298028 L1.1941395985584635,-0.9077613227906508 L1.2565287729449452,-0.819228565640549 L1.3123669881272224,-0.7264247300814333 L1.3613631295064337,-0.6298336523404015 L1.4032617538883998,-0.5299589135716586 L1.4378444212461607,-0.4273212144175554 L1.464930833565129,-0.3224556603165421 L1.4843797748334553,-0.2159089717111852 L1.4960898472769244,-0.10823663370093108 L1.5000000000000002,-7.39612622723935e-15 " />

       </g>
    </g>
    
</svg>
