<?xml version="1.0" encoding="UTF-8" standalone="no"?>
<svg
   xmlns:svg="http://www.w3.org/2000/svg"
   xmlns="http://www.w3.org/2000/svg"
   width="320.0"
   height="164.9009320726281"

>
    <g transform="scale(3.2608003337304576, -3.2608003337304576)   translate(49.17420773681764,-9.066731776416278)" stroke-width="0.2"  fill="none">
       <!-- hidden lines -->
       <g  stroke="rgb(160,160,160)" fill="none" stroke-dasharray="0.2,0.2" >

       </g>

       <!-- solid lines -->
       <g  stroke="rgb(0,0,0)" fill="none">
			<path d="M-5.9999953543179485,0.007466469248497243 L-5.995798319556291,0.2245050360369468 L-5.983752892289942,0.4412497297582602 L-5.963874839767238,0.6574168354942611 L-5.936190182002545,0.872723394379091 L-5.900735157716536,1.086887573987291 L-5.857556176900344,1.2996290372473942 L-5.806709760065725,1.510669309398126 L-5.748262464260715,1.7197321425068746 L-5.682290795947651,1.9265438770732817 L-5.608881110857585,2.130833800244621 L-5.52812950095217,2.3323345001740727 L-5.440141668641022,2.530782216058031 L-5.3450327884191475,2.7259171833942717 L-5.2429273561055965,2.917483974009027 L-5.133959025880671,3.105231830407886 L-5.0182704353349985,3.288914994012857 L-4.896013018759482,3.4682930268559438 L-4.767346808920529,3.643131126308132 L-4.632440227580025,3.8132004324318203 L-4.491469865034276,3.97827832755438 L-4.344620248960467,4.138148727670693 L-4.192083602873248,4.292602365293241 L-4.034059594507595,4.441437063379496 L-3.8707550744573256,4.584457999978049 L-3.7023838054113853,4.721477963247036 L-3.529166182342311,4.852317596511099 L-3.35132894401317,4.976805633036057 L-3.169104876180582,5.094779120213978 L-2.9827325068823365,5.206083632865234 L-2.7924557942084713,5.310573475378284 L-2.5985238069645016,5.408111872422626 L-2.401190398644822,5.498571147985244 L-2.2007138751430344,5.581832892496225 L-1.9973566566341598,5.657788117824761 L-1.791384934071339,5.7263373999426594 L-1.5830683207466454,5.787391009068614 L-1.3726794993721179,5.840869027122877 L-1.1604938651429826,5.886701452338595 L-0.9467891652502773,5.924828290892869 L-0.7318451353147593,5.955199635437586 L-0.5159431332179919,5.977775730427249 L-0.2993657708099232,5.992527024158273 L-0.08239654397504056,5.999434207451633 L0.13468053845865985,5.998488238928232 L0.3515813264821366,5.989690356843907 L0.5680219008525702,5.973052077468576 L0.7837189447385625,5.948595180011639 L0.9983901145767892,5.9163516781133945 L1.2117544096546617,5.876363777939749 L1.4235325399352223,5.828683822935107 L1.6334472916427962,5.77337422530574 L1.8412238901308522,5.710507384323327 L2.0465903595570905,5.640165591555608 L2.2492778788949424,5.562440923148192 L2.4490211338154757,5.477435119298539 L2.6455586639790947,5.385259451079864 L2.838633205282436,5.2860345747892925 L3.0279920266124685,5.179890374010938 L3.2133872606669884,5.066965789600613 L3.3945762284084755,4.947408637814744 L3.571321756726601,4.8213754168215415 L3.743392488893576,4.6890311018476964 L3.910563187405962,4.550548929228779 L4.072615028816525,4.406110169645971 L4.229335890170204,4.255903890845996 L4.380520626669254,4.100126710154832 L4.525971340204113,3.938982537109154 L4.665497638398475,3.7726823065424075 L4.798916883829499,3.6014437024748935 L4.926054433096922,3.425490873169285 L5.046743865428136,3.245054137724575 L5.160827200519999,3.0603696845925037 L5.268155105332219,2.8716792624111065 L5.368587089561623,2.6792298635600846 L5.461991689541448,2.4832734008522075 L5.548246640324924,2.284066377783956 L5.627239035727898,2.0818695527770457 L5.698865476121,1.8769475978503263 L5.763032203777911,1.6695687521688567 L5.819655225602538,1.4600044709236444 L5.86866042307448,1.2485290700016676 L5.909983649268835,1.035419366911299 L5.943570812823378,0.8209543184331491 L5.969377948743181,0.605414655470641 L5.98737127595001,0.389082515578292 L5.997527241501145,0.17224107364871297 L5.999832551419759,-0.04482582875824999 " />
			<path d="M5.999832551419886,-0.044825828758174424 L45.89447733208698,-23.85168686668737 " />
			<path d="M-46.107475960401366,-23.576201173416344 L-5.999995354317932,0.007466469248509355 " />
			<path d="M-37.251361444108625,-35.973221592856625 L-37.6782306193521,-35.53473545906001 L-38.0995238864888,-35.090889353556946 L-38.51517394876955,-34.64175417565285 L-38.925114410882244,-34.18740166952158 L-39.32927978955764,-33.72790441274508 L-39.72760552402956,-33.26333580472003 L-40.12002798634781,-32.79377005493302 L-40.506484491541926,-32.31928217110658 L-40.8869133076344,-31.839947947217425 L-41.2612536655017,-31.35584395138933 L-41.62944576858136,-30.867047513662207 L-41.991430802423864,-30.373636713639566 L-42.347150944087524,-29.87569036801614 L-42.696549371375056,-29.373288017987857 L-43.039570271910286,-28.86650991654607 L-43.37615885205348,-28.355437015658012 L-43.706261345654056,-27.840150953335705 L-44.02982502263909,-27.32073404059521 L-44.34679819743631,-26.79726924830836 L-44.6571302372303,-26.269840193949157 L-44.96077157005052,-25.73853112823683 L-45.25767369268981,-25.203426921677753 L-45.547789178452284,-24.664613051008345 L-45.83107168472914,-24.12217558554117 L-46.107475960401366,-23.576201173416344 " />
			<path d="M-32.39179398961085,-35.97473178263048 L-37.251361444108625,-35.97322159285662 " />
			<path d="M-40.59901610219973,-26.3653093331165 L-40.2671830128315,-26.869380657334226 L-39.929091797683164,-27.369276075734703 L-39.58479500121376,-27.864917897052454 L-39.23434613232304,-28.356229091094967 L-38.87779965603528,-28.84313330071432 L-38.515210985034656,-29.32555485367425 L-38.14663647105328,-29.803418774410755 L-37.77213339611327,-30.2766507956844 L-37.391759963624246,-30.745177370122597 L-37.005575289337706,-31.20892568164995 L-36.61363939215951,-31.66782365680498 L-36.21601318482202,-32.121799975941414 L-35.81275846441737,-32.57078408431234 L-35.403937902793274,-33.01470620303547 L-34.9896150368129,-33.45349733993785 L-34.569854258480206,-33.88708930027821 L-34.14472080493254,-34.31541469734556 L-33.714280748301746,-34.738406962932004 L-33.27860098544562,-35.15600035767849 L-32.83774922755107,-35.56812998129169 L-32.391793989610846,-35.97473178263047 " />
			<path d="M-2.97681761005502,-5.209468007049041 L-40.599016102199734,-26.365309333116507 " />
			<path d="M-2.976817610055046,-5.209468007048912 L-2.7884058285190565,-5.312701096003892 L-2.59641899546019,-5.409122701512094 L-2.401103259704017,-5.498609200174053 L-2.202709038105721,-5.581045860181349 L-2.0014906944873827,-5.656326988415752 L-1.7977062135148025,-5.724356065959757 L-1.5916168699319886,-5.785045871844742 L-1.3834868935773992,-5.838318594878114 L-1.1735831306114148,-5.884105933406053 L-0.9621747013893913,-5.922349182883954 L-0.7495326554189401,-5.952999311142294 L-0.535929623843813,-5.9760170212514145 L-0.3216394698999541,-5.991372801904625 L-0.10693693779186886,-5.999046965255039 L0.10790269956050853,-5.9990296721576195 L0.32260399345281965,-5.9913209447840705 L0.5368916725526627,-5.975930666594418 L0.7504909958285624,-5.952878569665288 L0.9631281047990332,-5.922194209391163 L1.1745303746501152,-5.883916926591016 L1.384426763771208,-5.838095797068936 L1.5925481612610572,-5.784789568693404 L1.7986277319583575,-5.724066586075876 L2.0024012585545954,-5.656004702945267 L2.20360748035051,-5.580691182330669 L2.401988428221849,-5.498222584680283 L2.5972897553649505,-5.4087046440600055 L2.7892610633981008,-5.312252132590404 L2.9776562234005683,-5.20898871329588 " />
			<path d="M40.45068542407016,-26.268982264435067 L2.977656223400551,-5.208988713296005 " />
			<path d="M34.69513428591641,-33.504701720333436 L35.12111019648993,-33.057903730459046 L35.5413327689911,-32.60569038511723 L35.95573316497741,-32.14813576329473 L36.36424349976179,-31.685314818955465 L36.766796853533066,-31.217303368761954 L37.16332728231844,-30.74417807965554 L37.55376982878595,-30.266016456297184 L37.938060532885515,-29.78289682837114 L38.316136442326446,-29.294898337753434 L38.68793562288991,-28.802100925547293 L39.053397168574676,-28.304585318987616 L39.41246121157439,-27.802433018216785 L39.76506893208471,-27.29572628293369 L40.11116256793893,-26.784548118918497 L40.45068542407016,-26.26898226443507 " />
			<path d="M34.609036697068376,-38.43722928194653 L34.6951342859164,-33.504701720333436 " />
			<path d="M45.894477332086986,-23.851686866687377 L45.59614771105635,-24.417152370485073 L45.290851334088934,-24.978887113028236 L44.978634848225205,-25.53680526538069 L44.65954595784733,-26.090821581753126 L44.33363341739037,-26.640851412528107 L44.00094702389286,-27.186810717193843 L43.66153760938832,-27.728616077185 L43.315457033138344,-28.266184708628415 L42.96275817370901,-28.799434474991905 L42.60349492089137,-29.32828389963408 L42.237722167467496,-29.852652178253393 L41.86549580082326,-30.372459191234462 L41.48687269440915,-30.88762551588971 L41.10191069905044,-31.398072438594614 L40.710668634108025,-31.903721966814565 L40.313206278491165,-32.4044968410215 L39.90958436152386,-32.90032054649866 L39.49986455366572,-33.391117325031445 L39.08410945708923,-33.876812186482674 L38.66238259611458,-34.35733092025062 L38.234748407503666,-34.83260010660773 L37.80127223061455,-35.302547127918714 L37.362020297418155,-35.767100179735934 L36.917059722378454,-36.22618828177062 L36.466458492197916,-36.679741288738114 L36.0102854554296,-37.127689901075556 L35.548610311957646,-37.56996567553038 L35.081503602347595,-38.0065010356179 L34.60903669706837,-38.43722928194653 " />
			<path d="M1.5,0.0 L1.4960898472769246,-0.10823663370092412 L1.484379774833456,-0.21590897171117868 L1.46493083356513,-0.32245566031653605 L1.437844421246162,-0.4273212144175499 L1.4032617538884016,-0.5299589135716536 L1.3613631295064355,-0.6298336523403969 L1.3123669881272244,-0.7264247300814293 L1.256528772944947,-0.8192285656405454 L1.1941395985584657,-0.9077613227906477 L1.1255247332346037,-0.9915614327298002 L1.051041903110014,-1.0701920004872396 L0.9710794271727416,-1.1432430826914546 L0.8860541927468271,-1.2103338248251052 L0.7964094820348305,-1.2711144468241296 L0.7026126610496856,-1.3252680666690342 L0.6051527429847132,-1.372512352461018 L0.5045378387252633,-1.412600994369762 L0.4012925077938318,-1.4453249887788344 L0.29595502353960074,-1.47051372793377 L0.18907456683043478,-1.4880358894119066 L0.08120836287812708,-1.4978001207766858 L-0.027081223875839805,-1.499755515846962 L-0.13522962166809693,-1.4938918800982564 L-0.24267299482914612,-1.4802397838122894 L-0.3488511833614646,-1.458870402697685 L-0.453210623354358,-1.4298951468127845 L-0.5552072330098704,-1.3934650797251877 L-0.65430924923335,-1.3497701309362604 L-0.7499999999999991,-1.2990381056766584 L-0.8417805980435729,-1.2415334972353362 L-0.929172541823584,-1.177556108014009 L-1.0117202102107707,-1.1074394864962482 L-1.0889932378846963,-1.0315491882801349 L-1.1605887590592547,-0.9502808702406356 L-1.226133507838338,-0.864058227757859 L-1.2852857642513842,-0.7733307857655319 L-1.3377371358230739,-0.6785715551361393 L-1.3832141653889003,-0.5802745666212575 L-1.4214797567742041,-0.4789522952039684 L-1.4523344109038454,-0.3751329882915927 L-1.4756172658980045,-0.26935791167830536 L-1.4912069357315398,-0.16217852763591023 L-1.4990221430845156,-0.054153619844901954 L-1.4990221430845154,0.054153619844907575 L-1.491206935731539,0.16217852763591584 L-1.4756172658980036,0.2693579116783109 L-1.4523344109038439,0.3751329882915982 L-1.4214797567742024,0.47895229520397375 L-1.383214165388898,0.5802745666212628 L-1.3377371358230714,0.6785715551361444 L-1.2852857642513813,0.7733307857655367 L-1.2261335078383349,0.8640582277578637 L-1.160588759059251,0.9502808702406398 L-1.0889932378846925,1.031549188280139 L-1.0117202102107665,1.107439486496252 L-0.9291725418235801,1.177556108014012 L-0.8417805980435694,1.2415334972353387 L-0.749999999999996,1.2990381056766602 L-0.6543092492333473,1.3497701309362617 L-0.555207233009868,1.3934650797251886 L-0.45321062335435575,1.4298951468127852 L-0.3488511833614627,1.4588704026976855 L-0.24267299482914448,1.4802397838122898 L-0.13522962166809563,1.4938918800982566 L-0.02708122387583884,1.499755515846962 L0.0812083628781277,1.4978001207766858 L0.18907456683043505,1.4880358894119063 L0.2959550235396007,1.47051372793377 L0.40129250779383147,1.4453249887788344 L0.5045378387252626,1.4126009943697622 L0.6051527429847121,1.3725123524610185 L0.7026126610496843,1.3252680666690348 L0.7964094820348291,1.2711144468241304 L0.8860541927468253,1.2103338248251065 L0.9710794271727399,1.1432430826914561 L1.0510419031100118,1.0701920004872416 L1.1255247332346014,0.9915614327298026 L1.1941395985584635,0.9077613227906505 L1.2565287729449452,0.8192285656405487 L1.3123669881272224,0.7264247300814329 L1.3613631295064337,0.6298336523404011 L1.4032617538883998,0.5299589135716583 L1.4378444212461605,0.42732121441755505 L1.4649308335651288,0.32245566031654177 L1.484379774833455,0.21590897171118484 L1.4960898472769242,0.10823663370093072 L1.5,7.028732187495145e-15 " />

       </g>
    </g>
    
</svg>
