<?xml version="1.0" encoding="UTF-8" standalone="no"?>
<svg
   xmlns:svg="http://www.w3.org/2000/svg"
   xmlns="http://www.w3.org/2000/svg"
   width="320.0"
   height="164.90093207262814"

>
    <g transform="scale(3.260800333730458, -3.260800333730458)   translate(49.17420773681764,-9.066731776416278)" stroke-width="0.2"  fill="none">
       <!-- hidden lines -->
       <g  stroke="rgb(160,160,160)" fill="none" stroke-dasharray="0.2,0.2" >

       </g>

       <!-- solid lines -->
       <g  stroke="rgb(0,0,0)" fill="none">
			<path d="M-3.6469093934561645,-4.764457143885459 L-3.81777251031715,-4.628672926386859 L-3.9835843367787147,-4.48676451708481 L-4.144125487404756,-4.338919674831776 L-4.299183550384285,-4.185334012967803 L-4.448553368573241,-4.026210740504733 L-4.5920373109376795,-3.861760393260598 L-4.7294455340391615,-3.6922005552999195 L-4.860596233216388,-3.5177555710484865 L-4.985315883130738,-3.338656248463503 L-5.103439467357443,-3.1551395536518467 L-5.214810696718629,-2.9674482973404888 L-5.319282216069346,-2.7758308136138963 L-5.41671579926299,-2.5805406313434984 L-5.506982532038161,-2.3818361387439246 L-5.589962982584967,-2.1799802414998584 L-5.665547359565122,-1.9752400149158282 L-5.73363565737673,-1.7678863505491824 L-5.794137788471592,-1.55819359779378 L-5.846973702549927,-1.3464392008886275 L-5.892073492474833,-1.1329033318317234 L-5.929377486766348,-0.9178685196848138 L-5.958836328552703,-0.7016192767595156 L-5.980411040874352,-0.48444172217940684 L-5.994073078254338,-0.2666232033161433 L-5.999804364466782,-0.04845191560048373 L-5.997597316453514,0.1697834787887518 L-5.987454854357211,0.3877942328532775 L-5.969390397657762,0.6052918968161618 L-5.943427847416962,0.8219886997693941 L-5.909601554655052,1.0375979304232408 L-5.867956274900921,1.2518343164536212 L-5.818547108976118,1.4644144019455911 L-5.761439430091016,1.6750569224335359 L-5.696708797349598,1.8834831770418594 L-5.624440855777289,2.089417397233792 L-5.544731223004125,2.292587111680423 L-5.457685362753175,2.4927235067671982 L-5.363418445301608,2.6895617822609084 L-5.262055195099045,2.882841501666568 L-5.153729725744766,3.0723069368106417 L-5.038585362542172,3.257707406194695 L-4.916774452865243,3.4387976066717982 L-4.788458164587899,3.6153379380068316 L-4.653806272842971,3.7870948198912853 L-4.512996935392924,3.9538410009930933 L-4.366216456909525,4.115355859632607 L-4.213659042474343,4.2714256956868875 L-4.055526540626234,4.421844013336089 L-3.8920281762957756,4.566411794277842 L-3.723380273979995,4.7049377610481375 L-3.5498059715236816,4.837238630100319 L-3.371534924885963,4.963139354307332 L-3.188803004282768,5.0824733545663765 L-3.001851982107216,5.195082740199522 L-2.810929213040848,5.300818517858686 L-2.6162873067789256,5.399540788658557 L-2.4181837938028408,5.49111893327665 L-2.2168807846418317,5.5754317847755805 L-2.0126446230748427,5.6523677889189 L-1.805745533731379,5.721825151768375 L-1.596457264557613,5.783711974367432 L-1.3850567246207903,5.837946374332564 L-1.171823617731164,5.884456594191808 L-0.9570400723662058,5.92318109632698 L-0.740990268386744,5.954068644394029 L-0.5239600610389173,5.977078371113775 L-0.3062366027394289,5.9921798323433695 L-0.08810796314451524,5.999353047356901 L0.1301372519946828,5.998588525281866 L0.3482102826860565,5.989887277656542 L0.5658225967545414,5.973260817091611 L0.7826862715987043,5.948731142037848 L0.9985143751408053,5.916330707679986 L1.2130213454662988,5.876102382995308 L1.4259233686504715,5.828099394033744 L1.6369387542723204,5.772385253494554 L1.8457883081188209,5.7090336766927425 L2.0521957015864705,5.638128484026416 L2.255887837291343,5.559763490074104 L2.4565952104039224,5.4740423794688065 L2.6540522652306318,5.381078569712967 L2.847997746570265,5.280995061115916 L3.0381750453804406,5.173924274052294 L3.2243325382967294,5.060007873756815 L3.4062239205552407,4.939396582887153 L3.5836085318781654,4.812249982102967 L3.756251674891117,4.678736298924922 L3.923924925650952,4.539032185153038 L4.08640643587323,4.393322483138911 L4.2434812264594175,4.241799981221 L4.39494147193549,4.084665158646607 L4.540586775425572,3.922125920318011 L4.680224433796815,3.7543973217137365 L4.813669692624692,3.581701284348893 L4.9407459906413544,3.4042663021510795 L5.061285193343653,3.22232713914033 L5.175127815451698,3.03612451881311 L5.2821232319236495,2.845904805641337 L5.382129877247539,2.6519196791078326 L5.475015432746431,2.4544258007094872 L5.560657001649115,2.253684474368734 L5.638941271694679,2.0499613007026256 L5.7097646650558325,1.8435258256069689 L5.7730334753826105,1.6346511836204602 L5.828663991785137,1.4236137365406916 L5.876582609591404,1.2106927077701755 L5.916725927733531,0.9961698128761851 L5.949040832633647,0.7803288868532118 L5.973484568478393,0.5634555085812111 L5.990024793789104,0.34583662297651696 L5.998639624212774,0.12776016133535434 L5.999317661477216,-0.0904853396277264 L5.99205800847211,-0.30861111954244325 L5.976870270435964,-0.5263285764412952 L5.953774542247432,-0.7433496486084916 L5.922801381837811,-0.9593871957140767 L5.883991769759866,-1.1741553787289671 L5.837397054966519,-1.3873700381182423 L5.783078886871103,-1.5987490698122975 L5.721109133779096,-1.8080127984584093 L5.651569787799246,-2.0148843474588767 L5.5745528563599125,-2.2190900053061244 L5.4901602404741405,-2.4203595877300823 L5.3985035999145445,-2.6184267951786833 L5.2997042054764,-2.813029565158491 L5.193892778524388,-3.0039104189692836 L5.081209318035312,-3.190816802373824 L4.961802915365613,-3.3735014197520803 L4.835831556988765,-3.5517225612977725 L4.703461915463558,-3.725244422824343 L4.564869128909826,-3.8938374177571973 L4.420236569283404,-4.057278480899442 L4.269755599756902,-4.215351363569185 L4.113625321527317,-4.367846919717915 L3.9520523103854677,-4.514563382651405 L3.7852503433958016,-4.655306631986981 L3.61344011604821,-4.7898904504939885 " />
			<path d="M3.6134401160482827,-4.789890450494099 L4.3304270373444265,-4.836430156633426 L5.046856595692228,-4.890880845176639 L5.76264150675623,-4.953235882265446 L6.477694564739922,-5.023487671035738 L7.191928653010178,-5.101627652543257 L7.905256754710974,-5.187646306806158 L8.61759196336475,-5.281533153965 L9.32884749346053,-5.383276755559507 L10.038936691027173,-5.492864715922067 L10.747773044190597,-5.610283683688024 L11.455270193713813,-5.735519353422248 L12.161341943518194,-5.868556467362005 L12.865902271185023,-6.009378817275888 L13.568865338435737,-6.157969246438455 L14.270145501589878,-6.3143096517204995 L14.969657321999223,-6.47838098579458 L15.66731557645702,-6.650163259455624 L16.363035267580877,-6.829635544056259 L17.056731634168266,-7.016775974056586 L17.74832016152314,-7.211561749688116 L18.43771659175256,-7.413969139731506 L19.124836934032068,-7.623973484407848 L19.809597474838476,-7.8415491983829355 L20.49191478814886,-8.066669773884492 L21.171705745604605,-8.29930778393156 L21.84888752663906,-8.53943488567613 L22.52337762856787,-8.78702182385608 L23.195093876640357,-9.042038434359533 L23.863954434051166,-9.304453647899727 L24.529877811910595,-9.574235493800344 L25.19278287917257,-9.851351103890522 L25.85258887251907,-10.135766716509252 L26.509215406199694,-10.427447680618712 L27.162582481825247,-10.726358460025821 L27.812610498114168,-11.032462637711689 L28.459220260590506,-11.345722920268464 L29.10233299123238,-11.666101142442805 L29.74187033806973,-11.993558271785709 L30.37775438473009,-12.328054413407862 L31.009907659931315,-12.669548814840176 L31.638253146920157,-13.017999870998729 L32.26271429285533,-13.37336512925365 L32.883215018134145,-13.735601294601203 L33.499679725661544,-14.104664234938511 L34.11203331006015,-14.480508986440285 L34.72020116682062,-14.863089759036896 L35.32410920139089,-15.252359941993063 L35.92368383820325,-15.648272109586557 L36.518852029638275,-16.050778026886178 L37.10954126492436,-16.459828655628378 L37.695679578971905,-16.87537416019166 L38.27719556114099,-17.297363913668192 L38.85401836394148,-17.725746504031804 L39.42607771166457,-18.16046974040166 L39.993303908944675,-18.601480659400735 L40.555627849250484,-19.048725531608568 L41.1129810233045,-19.502149868107132 L41.66529552742959,-19.961698427119465 L42.212504071821904,-20.427315220739814 L42.754539988748945,-20.898943521754838 L43.29133724067186,-21.376525870554772 L43.82283042829092,-21.860004082133926 L44.34895479851335,-22.349319253179445 L44.86964625234224,-22.844411769247706 L45.38484135268602,-23.345221312027213 L45.89447733208701,-23.851686866687388 " />
			<path d="M-46.107475960401366,-23.576201173416344 L-45.594096248655305,-23.072097662100518 L-45.07517603252049,-22.573699339631432 L-44.550778709998966,-22.081067096791323 L-44.02096834824694,-21.594261119903607 L-43.48580967574745,-21.11334088347973 L-42.94536807440233,-20.638365142952978 L-42.3997095715443,-20.169391927500172 L-41.84890083187018,-19.70647853295209 L-41.293009149296346,-19.249681514793437 L-40.732102438737144,-18.799056681253298 L-40.16624922780762,-18.354659086486905 L-39.59551864845122,-17.916543023849478 L-39.01998042849375,-17.484762019263115 L-38.43970488312461,-17.059368824677264 L-37.85476290630605,-16.640415411623955 L-37.26522596211195,-16.227952964868265 L-36.67116607599679,-15.822031876154881 L-36.07265582599611,-15.422701738051643 L-35.469768333859456,-15.03001133789067 L-34.86257725611682,-14.644008651807837 L-34.25115677507989,-14.264740838881437 L-33.63558158977891,-13.892254235370558 L-33.015926906836505,-13.526594349054108 L-32.39226843127949,-13.167805853670949 L-31.764682357289736,-12.815932583461993 L-31.13324535889531,-12.471017527814872 L-30.49803458060299,-12.133102826011765 L-29.859127627973308,-11.802229762081097 L-29.216602558139215,-11.478438759753814 L-28.57053787026964,-11.16176937752465 L-27.921012495979006,-10.85226030381915 L-27.26810578968395,-10.54994935226702 L-26.611897518908314,-10.254873457082297 L-25.95246785453776,-9.967068668550993 L-25.289897361025012,-9.686570148626764 L-24.6242669865471,-9.413412166634998 L-23.955658053115677,-9.147628095086091 L-23.284152246641654,-8.889250405598226 L-22.60983160695541,-8.638310664930188 L-21.932778517783717,-8.394839531124774 L-21.253075696684746,-8.15886674976322 L-20.57080618494212,-7.930421150331114 L-19.88605333741961,-7.709530642696137 L-19.198900812377396,-7.496222213698346 L-18.50943256125123,-7.290521923853014 L-17.817732818395974,-7.092454904166786 L-17.123886090794315,-6.9020453530673365 L-16.427977147732385,-6.719316533447042 L-15.73009101044318,-6.544290769820712 L-15.03031294171935,-6.376989445598355 L-14.328728435496297,-6.217433000472575 L-13.625423206407229,-6.065640927921393 L-12.920483179311068,-5.9216317728267285 L-12.213994478794815,-5.785423129208695 L-11.506043418651421,-5.657031638076049 L-10.79671649133462,-5.5364729853931465 L-10.086100357391834,-5.4237619001635835 L-9.374281834876653,-5.318912152630631 L-8.661347888742009,-5.221936552594883 L-7.947385620215373,-5.132846947849359 L-7.232482256157395,-5.051654222731855 L-6.5167251384051195,-4.978368296795352 L-5.800201713101169,-4.912998123595969 L-5.082999520010224,-4.855551689599153 L-4.365206181823991,-4.806036013203936 L-3.646909393456122,-4.764457143885451 " />
			<path d="M-37.251361444108625,-35.973221592856625 L-37.6782306193521,-35.53473545906001 L-38.0995238864888,-35.090889353556946 L-38.51517394876955,-34.64175417565285 L-38.925114410882244,-34.18740166952158 L-39.32927978955764,-33.72790441274508 L-39.72760552402956,-33.26333580472003 L-40.12002798634781,-32.79377005493302 L-40.506484491541926,-32.31928217110658 L-40.8869133076344,-31.839947947217425 L-41.2612536655017,-31.35584395138933 L-41.62944576858136,-30.867047513662207 L-41.991430802423864,-30.373636713639566 L-42.347150944087524,-29.87569036801614 L-42.696549371375056,-29.373288017987857 L-43.039570271910286,-28.86650991654607 L-43.37615885205348,-28.355437015658012 L-43.706261345654056,-27.840150953335705 L-44.02982502263909,-27.32073404059521 L-44.34679819743631,-26.79726924830836 L-44.6571302372303,-26.269840193949157 L-44.96077157005052,-25.73853112823683 L-45.25767369268981,-25.203426921677753 L-45.547789178452284,-24.664613051008345 L-45.83107168472914,-24.12217558554117 L-46.107475960401366,-23.576201173416344 " />
			<path d="M-32.39179398961085,-35.97473178263048 L-37.251361444108625,-35.97322159285662 " />
			<path d="M-40.59901610219973,-26.365309333116507 L-40.26718301283151,-26.86938065733423 L-39.92909179768316,-27.369276075734707 L-39.58479500121376,-27.864917897052457 L-39.23434613232304,-28.35622909109497 L-38.87779965603528,-28.843133300714328 L-38.515210985034656,-29.32555485367426 L-38.146636471053284,-29.803418774410762 L-37.77213339611326,-30.276650795684407 L-37.39175996362425,-30.745177370122605 L-37.0055752893377,-31.208925681649955 L-36.6136393921595,-31.667823656804984 L-36.21601318482202,-32.12179997594142 L-35.81275846441736,-32.57078408431234 L-35.403937902793274,-33.01470620303549 L-34.98961503681289,-33.453497339937854 L-34.569854258480206,-33.88708930027821 L-34.14472080493253,-34.31541469734556 L-33.714280748301746,-34.738406962932004 L-33.27860098544562,-35.1560003576785 L-32.83774922755107,-35.568129981291705 L-32.391793989610846,-35.974731782630485 " />
			<path d="M40.45068542407016,-26.26898226443506 L39.93831991280418,-25.80752845976356 L39.420693397078644,-25.351983927145206 L38.89787402635921,-24.902408642480687 L38.36993063379043,-24.458861795773807 L37.83693272713327,-24.021401783338703 L37.29895047961385,-23.590086200111514 L36.75605472068475,-23.16497183206753 L36.208316926699595,-22.746114648744957 L35.65580921150277,-22.333569795876052 L35.09860431693504,-21.927391588126774 L34.536775603256544,-21.52763350194588 L33.97039703948836,-21.13434816852429 L33.39954319367391,-20.747587366865837 L32.824289223061506,-20.36740201697014 L32.24471086420937,-19.993842173128613 L31.66088442301428,-19.62695701733442 L31.072886764665363,-19.26679485280733 L30.48079530352419,-18.913403097634195 L29.88468799293259,-18.566828278525968 L29.2846433149495,-18.227116024692208 L28.680740270018198,-17.894311061833555 L28.07305836656532,-17.568457206253285 L27.461677610532924,-17.249597359088575 L26.84667849484515,-16.937773500662217 L26.228141988810698,-16.63302668495559 L25.606149527462563,-16.335397034203623 L24.980783000836574,-16.044923733612343 L24.35212474318987,-15.761645026199922 L23.72025752216102,-15.485598207761598 L23.085264527873008,-15.216819621959495 L22.447229361980618,-14.955344655537623 L21.806236026663676,-14.701207733663011 L21.162368913567477,-14.454442315393315 L20.515712792692035,-14.215080889271718 L19.866352801231415,-13.983154969049536 L19.2143744323648,-13.758695089537241 L18.559863524000676,-13.541730802584276 L17.9029062474756,-13.332290673188325 L17.243589096209078,-13.130402275734554 L16.5819988743161,-12.936092190365216 L15.918222685178653,-12.74938599948014 L15.252347919977955,-12.570308284368679 L14.584462246188663,-12.398882621973328 L13.914653596036908,-12.235131581785694 L13.243010154923246,-12.079076722875023 L12.56962034981238,-11.930738591049796 L11.89457283759115,-11.790136716152688 L11.217956493396125,-11.657289609489382 L10.53986039891254,-11.532214761391344 L9.860373830645974,-11.41492863891311 L9.179586248168492,-11.3054466836643 L8.49758728234052,-11.203783309776568 L7.814466723510362,-11.109951902005946 L7.130314509692541,-11.023964813970522 L6.445220714726778,-10.945833366524113 L5.759275536419166,-10.87556784626571 L5.072569284666846,-10.813177504185205 L4.385192369568069,-10.758670554445388 L3.6972352895190195,-10.712054173300587 L3.0087886192990165,-10.673334498151718 L2.3199429981456294,-10.642516626738363 L1.6307891178213527,-10.61960461646757 L0.9414177106733685,-10.604601483879648 L0.251919537687888,-10.597509204251068 L-0.43761462345918467,-10.59832871133436 L-1.1270939903538046,-10.607059897235175 L-1.816427787796039,-10.623701612426522 L-2.505525259751275,-10.648251665900084 L-3.194295681298934,-10.680706825454706 L-3.8826483705770993,-10.721062818121908 L-4.5704927007215215,-10.769314330728477 L-5.257738111797265,-10.825455010595974 L-5.944294122721638,-10.88947746637713 L-6.630070343176749,-10.961373269028954 L-7.314976485510035,-11.041132952922496 L-7.998922376621307,-11.128746017089043 L-8.68181796983479,-11.224200926602677 L-9.363573356754385,-11.327485114098934 L-10.044098779100823,-11.438584981429386 L-10.723304640529035,-11.55748590145194 L-11.401101518424158,-11.684172219956608 L-12.077400175674741,-11.818627257726519 L-12.752111572421464,-11.960833312733826 L-13.425146877779893,-12.110771662470398 L-14.096417481535811,-12.268422566412667 L-14.765835005811352,-12.43376526862069 L-15.433311316700655,-12.60677800047084 L-16.098758535873365,-12.787437983521741 L-16.762089052144475,-12.975721432513296 L-17.423215533008985,-13.17160355849812 L-18.082050936139957,-13.375058572105303 L-18.7385085208482,-13.586059686935656 L-19.39250185950244,-13.804579123088416 L-20.04394484890809,-14.030588110818698 L-20.69275172164346,-14.264056894325165 L-21.33883705735164,-14.504954735667667 L-21.98211579398677,-14.753249918814177 L-22.622503239013078,-15.008909753816297 L-23.25991508055533,-15.2719005811133 L-23.89426739849909,-15.542187775963548 L-24.52547667553948,-15.819735753003165 L-25.15345980817684,-16.104507970931124 L-25.77813411765795,-16.396466937320127 L-26.399417360861307,-16.695574213552845 L-27.017227741125062,-17.00179041988261 L-27.631483919016176,-17.315075240618043 L-28.24210502303938,-17.63538742943097 L-28.849010660284485,-17.962684814786783 L-29.452120927010775,-18.29692430549664 L-30.051356419166893,-18.638061896390766 L-30.646638242845036,-18.98605267411206 L-31.237888024667882,-19.340850823029264 L-31.825027922107083,-19.702409631268978 L-32.40798063373182,-20.070681496865582 L-32.9866694093861,-20.44561793402844 L-33.561018060293556,-20.827169579525396 L-34.13095096908816,-21.21528619918186 L-34.69639309976998,-21.60991669449443 L-35.257270007584104,-22.01100910935851 L-35.813507848821935,-22.418510636908664 L-36.365033390543296,-22.83236762647101 L-36.91177402021797,-23.25252559062684 L-37.45365775528588,-23.678929212386194 L-37.99061325263399,-24.11152235247083 L-38.52256981798925,-24.55024805670535 L-39.04945741522598,-24.995048563515702 L-39.571206675586716,-25.44586531153385 L-40.08774890681507,-25.90263894730792 L-40.59901610219968,-26.365309333116443 " />
			<path d="M34.69513428591641,-33.504701720333436 L35.12111019648993,-33.057903730459046 L35.5413327689911,-32.60569038511723 L35.95573316497741,-32.14813576329473 L36.36424349976179,-31.685314818955465 L36.766796853533066,-31.217303368761954 L37.16332728231844,-30.74417807965554 L37.55376982878595,-30.266016456297184 L37.938060532885515,-29.78289682837114 L38.316136442326446,-29.294898337753434 L38.68793562288991,-28.802100925547293 L39.053397168574676,-28.304585318987616 L39.41246121157439,-27.802433018216785 L39.76506893208471,-27.29572628293369 L40.11116256793893,-26.784548118918497 L40.45068542407016,-26.26898226443507 " />
			<path d="M34.60903669706836,-38.43722928194653 L34.6951342859164,-33.504701720333436 " />
			<path d="M45.89447733208698,-23.851686866687363 L45.59614771105635,-24.417152370485056 L45.29085133408893,-24.978887113028225 L44.9786348482252,-25.536805265380675 L44.65954595784733,-26.09082158175312 L44.33363341739036,-26.640851412528097 L44.00094702389287,-27.186810717193833 L43.66153760938831,-27.728616077184988 L43.31545703313834,-28.26618470862841 L42.962758173709005,-28.799434474991894 L42.60349492089137,-29.328283899634073 L42.23772216746749,-29.852652178253386 L41.865495800823254,-30.37245919123445 L41.48687269440915,-30.8876255158897 L41.10191069905045,-31.39807243859461 L40.710668634108025,-31.903721966814558 L40.313206278491165,-32.40449684102149 L39.909584361523855,-32.900320546498655 L39.49986455366572,-33.39111732503143 L39.08410945708922,-33.876812186482674 L38.66238259611458,-34.35733092025061 L38.23474840750366,-34.832600106607714 L37.80127223061455,-35.30254712791871 L37.362020297418155,-35.767100179735934 L36.917059722378454,-36.22618828177062 L36.466458492197916,-36.67974128873811 L36.010285455429596,-37.12768990107555 L35.54861031195764,-37.569965675530376 L35.0815036023476,-38.00650103561791 L34.60903669706836,-38.43722928194653 " />
			<path d="M1.5,0.0 L1.4960898472769246,-0.10823663370092412 L1.484379774833456,-0.21590897171117868 L1.46493083356513,-0.32245566031653605 L1.437844421246162,-0.4273212144175499 L1.4032617538884016,-0.5299589135716536 L1.3613631295064355,-0.6298336523403969 L1.3123669881272244,-0.7264247300814293 L1.256528772944947,-0.8192285656405454 L1.1941395985584657,-0.9077613227906477 L1.1255247332346037,-0.9915614327298002 L1.051041903110014,-1.0701920004872396 L0.9710794271727416,-1.1432430826914546 L0.8860541927468271,-1.2103338248251052 L0.7964094820348305,-1.2711144468241296 L0.7026126610496856,-1.3252680666690342 L0.6051527429847132,-1.372512352461018 L0.5045378387252633,-1.412600994369762 L0.4012925077938318,-1.4453249887788344 L0.29595502353960074,-1.47051372793377 L0.18907456683043478,-1.4880358894119066 L0.08120836287812708,-1.4978001207766858 L-0.027081223875839805,-1.499755515846962 L-0.13522962166809693,-1.4938918800982564 L-0.24267299482914612,-1.4802397838122894 L-0.3488511833614646,-1.458870402697685 L-0.453210623354358,-1.4298951468127845 L-0.5552072330098704,-1.3934650797251877 L-0.65430924923335,-1.3497701309362604 L-0.7499999999999991,-1.2990381056766584 L-0.8417805980435729,-1.2415334972353362 L-0.929172541823584,-1.177556108014009 L-1.0117202102107707,-1.1074394864962482 L-1.0889932378846963,-1.0315491882801349 L-1.1605887590592547,-0.9502808702406356 L-1.226133507838338,-0.864058227757859 L-1.2852857642513842,-0.7733307857655319 L-1.3377371358230739,-0.6785715551361393 L-1.3832141653889003,-0.5802745666212575 L-1.4214797567742041,-0.4789522952039684 L-1.4523344109038454,-0.3751329882915927 L-1.4756172658980045,-0.26935791167830536 L-1.4912069357315398,-0.16217852763591023 L-1.4990221430845156,-0.054153619844901954 L-1.4990221430845154,0.054153619844907575 L-1.491206935731539,0.16217852763591584 L-1.4756172658980036,0.2693579116783109 L-1.4523344109038439,0.3751329882915982 L-1.4214797567742024,0.47895229520397375 L-1.383214165388898,0.5802745666212628 L-1.3377371358230714,0.6785715551361444 L-1.2852857642513813,0.7733307857655367 L-1.2261335078383349,0.8640582277578637 L-1.160588759059251,0.9502808702406398 L-1.0889932378846925,1.031549188280139 L-1.0117202102107665,1.107439486496252 L-0.9291725418235801,1.177556108014012 L-0.8417805980435694,1.2415334972353387 L-0.749999999999996,1.2990381056766602 L-0.6543092492333473,1.3497701309362617 L-0.555207233009868,1.3934650797251886 L-0.45321062335435575,1.4298951468127852 L-0.3488511833614627,1.4588704026976855 L-0.24267299482914448,1.4802397838122898 L-0.13522962166809563,1.4938918800982566 L-0.02708122387583884,1.499755515846962 L0.0812083628781277,1.4978001207766858 L0.18907456683043505,1.4880358894119063 L0.2959550235396007,1.47051372793377 L0.40129250779383147,1.4453249887788344 L0.5045378387252626,1.4126009943697622 L0.6051527429847121,1.3725123524610185 L0.7026126610496843,1.3252680666690348 L0.7964094820348291,1.2711144468241304 L0.8860541927468253,1.2103338248251065 L0.9710794271727399,1.1432430826914561 L1.0510419031100118,1.0701920004872416 L1.1255247332346014,0.9915614327298026 L1.1941395985584635,0.9077613227906505 L1.2565287729449452,0.8192285656405487 L1.3123669881272224,0.7264247300814329 L1.3613631295064337,0.6298336523404011 L1.4032617538883998,0.5299589135716583 L1.4378444212461605,0.42732121441755505 L1.4649308335651288,0.32245566031654177 L1.484379774833455,0.21590897171118484 L1.4960898472769242,0.10823663370093072 L1.5,7.028732187495145e-15 " />

       </g>
    </g>
    
</svg>
