<?xml version="1.0" encoding="UTF-8" standalone="no"?>
<svg
   xmlns:svg="http://www.w3.org/2000/svg"
   xmlns="http://www.w3.org/2000/svg"
   width="620.0"
   height="535.8804036766028"

>
    <g transform="scale(3.2416765343509035, -3.2416765343509035)   translate(82.9521478328098,-153.5848235146331)" stroke-width="0.5"  fill="none">
       <!-- hidden lines -->
       <g  stroke="rgb(160,160,160)" fill="none" stroke-dasharray="0.5,0.5" >

       </g>

       <!-- solid lines -->
       <g  stroke="rgb(0,0,0)" fill="none">
			<path d="M103.99734168841769,60.04289321881346 L103.81432898652547,59.35988051692125 " />
			<path d="M103.99734168841769,60.04289321881346 L103.31432898652548,60.225905920705685 " />
			<path d="M88.08459118601274,51.433012701892224 L103.31432898652548,60.22590592070567 " />
			<path d="M87.46497594374208,51.30621778264912 L87.54513673474702,51.29981673567134 L87.62555266687055,51.29987737932383 L87.70570371232832,51.30639932144071 L87.7850715562854,51.3193403864105 L87.86314294865626,51.33861688791429 L87.93941302315227,51.364104170102124 L88.01338856211365,51.39563741370828 L88.08459118601273,51.43301270189224 " />
			<path d="M87.46497594374208,51.30621778264912 L80.3497636287113,52.16346035225554 " />
			<path d="M80.34976362871132,52.16346035225554 L13.195069867253565,13.391679831731025 " />
			<path d="M5.8061385933604335,6.247233558484471 L13.195069867253565,13.391679831731027 " />
			<path d="M5.8061385933604335,6.247233558484466 L5.740579921962669,6.18917754497676 L5.670193548892097,6.137079573943164 L5.595519227834456,6.091339155553875 L5.517129594347771,6.052307047467452 L5.435625774640884,6.020282565066726 L5.351632775873127,5.995511286176717 L5.265794693324358,5.978183167865788 L5.178769771188884,5.968431089771251 L5.091225354869299,5.966329835119822 L5.003832773478224,5.971895517256931 L4.917262191791227,5.985085456082492 L4.832177471128385,6.005798505340705 L4.749231078573512,6.033875828254045 L4.6690590835694135,6.069102115553587 L4.592276280257465,6.111207236565236 L4.519471472965561,6.159868310690617 " />
			<path d="M7.594338177507591,0.8340429519219477 L7.617298156647255,0.5885310465373097 L7.632323242754537,0.3424060719509061 L7.639397784288873,0.09592441504766391 L7.638514411743495,-0.1506571657336977 L7.629674045322195,-0.3970818078643621 L7.612885893980758,-0.6430928122975508 L7.5881674458340465,-0.8884339108703481 L7.555544449938738,-1.1328495332566932 L7.515050889470693,-1.3760850731934169 L7.466728946324881,-1.6178871537020467 L7.410628957174767,-1.8580038910300507 L7.346809361036897,-2.0961851570366123 L7.275336638395336,-2.3321828397495827 L7.196285241949354,-2.565751101822213 L7.109737519056498,-2.796646636620422 L7.015783625951859,-3.0246289216738242 L6.9145214338328636,-3.24946046922653 L6.8060564269074515,-3.4709070736266847 L6.690501592511815,-3.6887380552970765 L6.567977303412183,-3.9027265010326326 L6.438611192413244,-4.112649500374532 L6.30253801940383,-4.318288377814667 L6.159899530978364,-4.519428920588588 L6.010844312780295,-4.715861601819626 L5.8555276347213425,-4.907381798781777 L5.6941112892377745,-5.093790006053931 L5.526763422752214,-5.274892043343467 L5.353658360516537,-5.450499257762667 L5.174976425018315,-5.620428720347288 L4.990903748139988,-5.784503416612545 L4.801632077266414,-5.942552430948018 L4.607358575542787,-6.0944111246594055 L4.408285616490992,-6.239921307471644 L4.204620573198337,-6.378931402314753 L3.996575602298284,-6.51129660322075 L3.7843674229681663,-6.636879026167138 L3.568217091174148,-6.755547852709853 L3.3483497693985713,-6.867179466256035 L3.1249944920895754,-6.97165758083469 L2.8983839270773037,-7.0688733622310655 L2.6687541332052462,-7.158725541358594 L2.436344314429183,-7.24112051975028 L2.2013965706398815,-7.315972467059657 L1.9641556454691154,-7.383203410469726 L1.7248686713417183,-7.442743315916775 L1.4837849120392446,-7.494530161044431 L1.2411555030434052,-7.53850999981197 L0.9972331899297702,-7.5746370186895735 L0.7522720650842443,-7.602873584382017 L0.5065273030165773,-7.623190283031032 L0.2602548945466352,-7.6355659508555425 L0.013711380140319918,-7.639987696197857 L-0.23284641732706257,-7.636450912952819 L-0.47916166010162975,-7.624959285365964 L-0.7249777630972445,-7.605524784195664 L-0.970038661178632,-7.578167654243257 L-1.214089075902872,-7.542916393264166 L-1.4568747814413903,-7.4998077222819575 L-1.6981428694054657,-7.4488865473362775 L-1.93764201229934,-7.3902059127045 L-2.175122725326553,-7.323826945645832 L-2.4103376262767227,-7.249818792725421 L-2.643041693222088,-7.16825854778479 L-2.872992519755361,-7.079231171633664 L-3.0999505675029932,-6.982829403546807 L-3.323679415650852,-6.879153664658088 L-3.543946007222325,-6.768311953352395 L-3.7605208918523676,-6.650419732764382 L-3.9731784648045325,-6.525599810501213 L-4.181697201982064,-6.393982210714647 L-4.385859890688184,-6.255704038655651 L-4.585453855895241,-6.110909337852711 L-4.78027118178699,-5.959748940062559 L-4.970108928343228,-5.802380308149657 L-5.154769342741176,-5.6389673720580875 L-5.334060065353384,-5.469680358046732 L-5.507794330127593,-5.294695611365617 L-5.67579115913978,-5.1141954125581375 L-5.837875551117763,-4.928367787580536 L-5.993878663738961,-4.737406311936398 L-6.143637989512412,-4.541509909030243 L-6.2869975250618255,-4.340882642950217 L-6.4238079336333636,-4.135733505895786 L-6.5539267006588116,-3.926276200471826 L-6.677218282212149,-3.7127289170759323 L-6.793554246204814,-3.4953141066108078 L-6.902813406172647,-3.2742582487585157 L-7.0048819475150665,-3.0497916160579743 L-7.09965354605507,-2.8221480340314624 L-7.187029478796466,-2.5915646376099866 L-7.266918726763012,-2.3582816241112994 L-7.339238069812343,-2.122542003027778 L-7.403912173325876,-1.884591342884945 L-7.4608736666844235,-1.6446775154342266 L-7.51006321344776,-1.403050437446459 L-7.551429573165022,-1.159961810375115 L-7.584929654751587,-0.9156648581604334 L-7.610528561376778,-0.670414063447585 L-7.62819962681569,-0.424464902493654 L-7.637924443227232,-0.178073579039578 L-7.6396928803294575,0.06850324257572415 L-7.633503095952221,0.3150087047810315 L-7.619361537956162,0.561186024339785 L-7.597282937515993,0.8067787598396219 L-7.567290293775136,1.0515310788258225 L-7.5294148498876545,1.2951880243004288 L-7.483696060472447,1.537495780309388 L-7.430181550513609,1.7782019363410821 L-7.368927065749784,2.0170557502608255 L-7.2999964146041645,2.2538084095074105 L-7.223461401715644,2.488213290279641 L-7.139401753140369,2.7200262144428327 L-7.047905033301584,2.9490057038877 L-6.949066553774312,3.1749132320766162 L-6.842989273999869,3.3975134725152643 L-6.729783694033637,3.6165745438908017 L-6.609567739437834,3.8318682516212146 L-6.482466638439174,4.0431703255642235 L-6.348612791479383,4.25026065363812 L-6.208145633294476,4.452923511111179 L-6.061211487666434,4.6509477853208 L-5.9079634149986155,4.844127195588271 L-5.74856105287367,5.032260508100107 L-5.583170449760037,5.215151745532078 L-5.411963892040275,5.392610391197594 L-5.235119724541382,5.5644515875077705 L-5.052822164754082,5.730496328536461 L-4.8652611109345845,5.89057164648963 L-4.67263194428873,6.044510791884858 L-4.475135325444582,6.192153407253247 L-4.272976985425472,6.333345694182833 L-4.066367511341245,6.467940573529444 L-3.8555221270209605,6.5957978386281475 L-3.640660468815531,6.716784301345687 L-3.422006356803883,6.830773930821734 L-3.1997875616409415,6.93764798475448 L-2.97423556729033,7.037295133093763 L-2.7455853298889377,7.129611574012896 L-2.514075032994542,7.214501142038406 L-2.279945839471453,7.291875408225019 L-2.0434416402726243,7.3616537722715485 L-1.8048088003799385,7.423763546481739 L-1.5642959021673057,7.4781400314825985 L-1.3221534864539217,7.524726583621343 L-1.0786337915174258,7.5634746739707355 L-0.8339904903388216,7.594343938881384 L-0.5884784263528835,7.617302222028295 L-0.34235334797930506,7.632325607907943 L-0.09587164221112676,7.639398446750878 L0.15070993246202846,7.6385133708240165 L0.39713451351770734,7.629671302105553 L0.643145401972752,7.612881451324544 L0.8884863297850636,7.588161308366148 L1.1329017268064567,7.555536624052519 L1.3761369870085272,7.515041383318329 L1.6179387337041993,7.466717769808875 L1.8580550834886722,7.410616121937628 L2.0962359086248297,7.346794880449012 L2.3322330975997763,7.275320527541046 L2.565800813581088,7.196267517611239 L2.7966957505035404,7.109718199697891 L3.024677386519554,7.0157627316976185 L3.2495082345493382,6.914498986448406 L3.4709540896697266,6.80603244977608 L3.688784273084024,6.690476110610361 L3.9027718724187004,6.5679503432849895 L4.112693978096624,6.438582782144511 L4.318331915540613,6.3025081885883605 L4.5194714729654,6.159868310690736 " />
			<path d="M7.5943381775075895,0.8340429519219437 L7.588598854785524,0.9214243016170531 L7.590526152015992,1.0089727203648093 L7.6001052898356285,1.0960168483602086 L7.617262811199853,1.1818891929216748 L7.641867144683824,1.265931247118705 L7.673729613430023,1.3474985394928212 L7.712605882005436,1.4259655761483456 L7.758197830073186,1.5007306373148732 L7.810155838510481,1.5712203915992866 L7.868081470441912,1.6368942925432033 L7.931530526628768,1.6972487237711111 L8.000016451784287,1.7518208609423789 L8.073014065693732,1.8001922208919878 L8.149963590527406,1.8419918707436165 L8.230274943463412,1.876899272386183 L8.31333226170242,1.9046467405011498 " />
			<path d="M8.313332261702424,1.9046467405011507 L18.195069867253565,4.73142579388664 " />
			<path d="M85.34976362871132,43.50320631441116 L18.195069867253565,4.731425793886638 " />
			<path d="M88.16497594374208,50.093782217350906 L85.3497636287113,43.50320631441115 " />
			<path d="M88.58459118601273,50.5669872981078 L88.51662192502211,50.52401166108705 L88.45232556551478,50.47571358689094 L88.39211789441869,50.42240540592278 L88.33638825823489,50.36443184757269 L88.28549704524048,50.30216781094715 L88.23977335495637,50.23601594049927 L88.19951286995096,50.16640402223753 L88.16497594374206,50.09378221735091 " />
			<path d="M103.81432898652548,59.359880516921244 L88.58459118601274,50.56698729810779 " />
			<path d="M0.9516660498395417,3.5516660498395396 L-3.551666049839543,0.9516660498395382 " />
			<path d="M3.5516660498395414,-0.9516660498395397 L0.9516660498395404,3.5516660498395414 " />
			<path d="M-3.5516660498395414,0.9516660498395397 L-0.9516660498395404,-3.5516660498395414 " />
			<path d="M-0.9516660498395417,-3.5516660498395414 L3.551666049839536,-0.9516660498395417 " />
			<path d="M5.111025330683566,6.966133796383106 L12.588457268119894,14.196152422706634 " />
			<path d="M8.588361499170889,0.9432108775661816 L8.612997153661412,0.6825540498893727 L8.629723704054701,0.42127044956463955 L8.638525790769657,0.15960000691553855 L8.639395331065877,-0.10221699250655192 L8.63233152646583,-0.3639401285707642 L8.61734086348807,-0.6253290673386496 L8.594437107690851,-0.8861437817569429 L8.56364129103152,-1.1461447720685154 L8.524981692553409,-1.4050932857391394 L8.478493812417874,-1.6627515366980767 L8.424220339305371,-1.9188829236911982 L8.362211111215485,-2.1732522475461207 L8.292523069701916,-2.4256259271498335 L8.21522020758445,-2.6757722139405073 L8.130373510185919,-2.9234614047165204 L8.038060890148117,-3.168466052567272 L7.9383671158865425,-3.4105611757321053 L7.831383733749625,-3.6495244641955424 L7.717208983953971,-3.8851364838291214 L7.595947710372775,-4.11718087789237 L7.467711264260264,-4.345444565707904 L7.332617402000572,-4.56971793832818 L7.190790176974938,-4.789795051014262 L7.042359825646527,-5.005473812349814 L6.887462647967482,-5.216556169816705 L6.726240882218017,-5.42284829166177 L6.558842574392494,-5.624160744887757 L6.385421442252417,-5.820308669205014 L6.206136734171178,-6.011111946784146 L6.021153082900184,-6.19639536765381 L5.830640354390633,-6.375988790591735 L5.634773491809783,-6.549727299361232 L5.433732354894925,-6.717451354149729 L5.227701554792599,-6.879006938070278 L5.016870284534705,-7.034245698591474 L4.801432145307181,-7.183025083765951 L4.581584968670779,-7.325208473132349 L4.357530634897195,-7.460665303170519 L4.129474887587365,-7.589271187194808 L3.897627144742164,-7.710908029575313 L3.662200306458985,-7.825464134182183 L3.4234105594308057,-7.932834306953451 L3.1814771784272438,-8.032919952492158 L2.936622324939918,-8.125629164604083 L2.689070843176993,-8.210876810692959 L2.439050053594258,-8.288584609935633 L2.1867895441523277,-8.358681205165444 L1.932520959491645,-8.421102228397745 L1.6764777882188904,-8.475790359937454 L1.4188951485001136,-8.52269538101432 L1.1600095721574961,-8.56177421989759 L0.9000587874679686,-8.59299099144772 L0.6392815008631714,-8.616317030068828 L0.3779171777311858,-8.631730916031598 L0.11620582252134337,-8.639218495142492 L-0.14561224164597553,-8.638772891741212 L-0.4072965936621755,-8.63039451501443 L-0.6686069352032455,-8.614091058620062 L-0.9293033113898277,-8.589877493622355 L-1.1891463311318917,-8.557776054744338 L-1.4478973869557086,-8.517816219950205 L-1.7053188741112386,-8.470034683376447 L-1.9611744087587502,-8.414475321636504 L-2.215229045034304,-8.351189153529956 L-2.467249490794776,-8.280234293193212 L-2.7170043218443167,-8.20167589673472 L-2.9642641944455113,-8.115586102403713 L-3.2088020559201116,-8.022043964347418 L-3.4503933531459476,-7.92113538001758 L-3.6888162387585455,-7.812953011292929 L-3.923851774868128,-7.697596199390055 L-4.155284134104912,-7.575170873640802 L-4.382900797808085,-7.445789454219964 L-4.606492751176482,-7.309570748912587 L-4.825854675201756,-7.166639844015697 L-5.040785135207786,-7.017127989474626 L-5.251086765823199,-6.861172478359396 L-5.456566452217157,-6.698916520791871 L-5.657035507431963,-6.530509112439395 L-5.852309845649675,-6.356104897695747 L-6.042210151233595,-6.175864027674968 L-6.226562043389425,-5.989952013148526 L-6.405196236294867,-5.7985395725608395 L-6.5779486945506545,-5.601802475262701 L-6.744660783810223,-5.399921380106608 L-6.905179416449753,-5.193081669552157 L-7.05935719214478,-4.981473279433882 L-7.207052533224288,-4.765290524547831 L-7.348129814678026,-4.544731920217062 L-7.482459488697621,-4.319999999999876 L-7.6099182036371555,-4.091301129708228 L-7.730388917283966,-3.858845317907055 L-7.843761004335628,-3.6228460230685657 L-7.949930357984461,-3.383519957558552 L-8.04879948551626,-3.1410868886347547 L-8.140277597835468,-2.8957694366399394 L-8.224280692834565,-2.6477928705751466 L-8.300731632531154,-2.3973849012406574 L-8.36956021390187,-2.1447754721347567 L-8.430703233348105,-1.8901965483022618 L-8.484104544734317,-1.633881903326703 L-8.529715110945649,-1.3760669046617768 L-8.56749304891751,-1.1169882974991858 L-8.597403668095769,-0.8568839873713308 L-8.619419502292239,-0.5959928216884975 L-8.633520334906194,-0.33455437041113223 L-8.639693217488805,-0.07280870605862555 L-8.637932481633346,0.1890038167434005 L-8.628239744180384,0.45064278197484686 L-8.610623905733053,0.7118679329892772 L-8.58510114248387,0.9724393931357018 L-8.551694891360508,1.232117886031431 L-8.510435828504262,1.4906649552837008 L-8.461361841100885,1.7478431834583419 L-8.404517992589732,2.003416410094378 L-8.339956481283085,2.2571499485643947 L-8.267736592433742,2.5088108015815127 L-8.187924643794819,2.758167875155077 L-8.100593924721776,3.0049921907986112 L-8.005824628872606,3.2490570957951435 L-7.903703780567965,3.4901384713268397 L-7.794325154878866,3.7280149382778136 L-7.677789191515338,3.9624680605211493 L-7.554202902595099,4.193282545503434 L-7.423679774376954,4.420246441942634 L-7.286339663049144,4.643151334457758 L-7.14230868466835,4.861792534951593 L-6.991719099350409,5.075969270570764 L-6.834709189819089,5.285484868070522 L-6.671423134424463,5.490146934414964 L-6.502010874747459,5.689767533446842 L-6.326627977912182,5.884163358464718 L-6.145435493732443,6.073155900549026 L-5.958599806823661,6.256571612482431 L-5.766292483815951,6.43424206811398 L-5.5686901158086926,6.60600411702071 L-5.365974156211255,6.771700034324681 L-5.1583307541187855,6.931177665527866 L-4.945950583376049,7.084290566231888 L-4.729028667486317,7.2308981366143295 L-4.507764200526071,7.370865750538095 L-4.2823603642299615,7.504064879175299 L-4.053024141414001,7.630373209032131 L-3.819966125908321,7.749674754266334 L-3.5834003291740273,7.8618599631941715 L-3.343543983781713,7.966825818889044 L-3.1006173439321234,8.064475933779411 L-2.854843483202119,8.154720638159127 L-2.606448089701681,8.237477062528942 L-2.355659258830057,8.312669213693528 L-2.1027072838213448,8.380228044544172 L-1.847824444271863,8.44009151746303 L-1.591244792843491,8.492204661290756 L-1.3332039403388558,8.536519621805184 L-1.0739388393457028,8.572995705664665 L-0.8136875666491439,8.601599417775777 L-0.5526891046115869,8.622304492051045 L-0.2911831217210925,8.635091915528447 L-0.029409752509673925,8.639949945830548 L0.2323906229563537,8.63687412194724 L0.49397759981149125,8.625867268332179 L0.7551109691489559,8.606939492309152 L1.015550938598619,8.580108174790773 L1.2750583525224757,8.545397954318023 L1.5333949116253853,8.502840704435275 L1.790323391779486,8.4524755044216 L2.0456078618612885,8.394348603405225 L2.299013900401441,8.328513377894097 L2.5503088108482164,8.255030282761533 L2.799261835247051,8.173966795732003 L3.0456443661399213,8.085397355417985 L3.2892301564899564,7.989403292964816 L3.529795527438553,7.886072757366291 L3.767119573704184,7.775500634519606 L4.000984366434302,7.657788460093965 L4.231175153324062,7.533044326292862 L4.457480555818094,7.401382782595667 L4.679692763214252,7.262924730569644 L4.897607723491082,7.117797312849002 L5.111025330683793,6.96613379638294 " />
			<path d="M12.588457268119893,14.196152422706634 L80.13843876330611,53.19615242270664 " />
			<path d="M8.588361499170889,0.9432108775661776 L18.588457268119896,3.8038475772933706 " />
			<path d="M80.13843876330611,53.196152422706646 L87.58459118601274,52.29903810567667 " />
			<path d="M18.588457268119896,3.8038475772933698 L86.13843876330611,42.803847577293375 " />
			<path d="M87.58459118601273,52.29903810567667 L103.17304845413263,61.29903810567667 " />
			<path d="M86.13843876330611,42.80384757729338 L89.08459118601274,49.700961894323356 " />
			<path d="M103.17304845413263,61.29903810567667 L105.22208655980928,60.750000000000014 " />
			<path d="M89.08459118601273,49.700961894323356 L104.67304845413263,58.700961894323356 " />
			<path d="M104.67304845413263,58.700961894323356 L105.22208655980928,60.750000000000014 " />
			<path d="M13.195069867253565,13.391679831731025 L80.34976362871132,52.16346035225554 " />
			<path d="M87.46497594374208,51.30621778264912 L80.3497636287113,52.16346035225554 " />
			<path d="M87.46497594374208,51.30621778264912 L87.54513673474702,51.29981673567134 L87.62555266687055,51.29987737932383 L87.70570371232832,51.30639932144071 L87.7850715562854,51.3193403864105 L87.86314294865626,51.33861688791429 L87.93941302315227,51.364104170102124 L88.01338856211365,51.39563741370828 L88.08459118601273,51.43301270189224 " />
			<path d="M88.08459118601274,51.433012701892224 L103.31432898652548,60.22590592070567 " />
			<path d="M103.31432898652548,60.225905920705685 L103.99734168841769,60.04289321881346 " />
			<path d="M103.81432898652547,59.35988051692125 L103.99734168841769,60.04289321881346 " />
			<path d="M88.58459118601274,50.56698729810779 L103.81432898652548,59.35988051692124 " />
			<path d="M88.58459118601273,50.5669872981078 L88.51662192502211,50.52401166108705 L88.45232556551478,50.47571358689094 L88.39211789441869,50.42240540592278 L88.33638825823489,50.36443184757269 L88.28549704524048,50.30216781094715 L88.23977335495637,50.23601594049927 L88.19951286995096,50.16640402223753 L88.16497594374206,50.09378221735091 " />
			<path d="M88.16497594374208,50.093782217350906 L85.3497636287113,43.50320631441115 " />
			<path d="M85.34976362871132,43.50320631441116 L18.195069867253565,4.731425793886638 " />
			<path d="M8.313332261702424,1.9046467405011507 L18.195069867253565,4.73142579388664 " />
			<path d="M7.5943381775075895,0.8340429519219437 L7.588598854785524,0.9214243016170531 L7.590526152015992,1.0089727203648093 L7.6001052898356285,1.0960168483602086 L7.617262811199853,1.1818891929216748 L7.641867144683824,1.265931247118705 L7.673729613430023,1.3474985394928212 L7.712605882005436,1.4259655761483456 L7.758197830073186,1.5007306373148732 L7.810155838510481,1.5712203915992866 L7.868081470441912,1.6368942925432033 L7.931530526628768,1.6972487237711111 L8.000016451784287,1.7518208609423789 L8.073014065693732,1.8001922208919878 L8.149963590527406,1.8419918707436165 L8.230274943463412,1.876899272386183 L8.31333226170242,1.9046467405011498 " />
			<path d="M7.594338177507591,0.8340429519219477 L7.617298156647255,0.5885310465373097 L7.632323242754537,0.3424060719509061 L7.639397784288873,0.09592441504766391 L7.638514411743495,-0.1506571657336977 L7.629674045322195,-0.3970818078643621 L7.612885893980758,-0.6430928122975508 L7.5881674458340465,-0.8884339108703481 L7.555544449938738,-1.1328495332566932 L7.515050889470693,-1.3760850731934169 L7.466728946324881,-1.6178871537020467 L7.410628957174767,-1.8580038910300507 L7.346809361036897,-2.0961851570366123 L7.275336638395336,-2.3321828397495827 L7.196285241949354,-2.565751101822213 L7.109737519056498,-2.796646636620422 L7.015783625951859,-3.0246289216738242 L6.9145214338328636,-3.24946046922653 L6.8060564269074515,-3.4709070736266847 L6.690501592511815,-3.6887380552970765 L6.567977303412183,-3.9027265010326326 L6.438611192413244,-4.112649500374532 L6.30253801940383,-4.318288377814667 L6.159899530978364,-4.519428920588588 L6.010844312780295,-4.715861601819626 L5.8555276347213425,-4.907381798781777 L5.6941112892377745,-5.093790006053931 L5.526763422752214,-5.274892043343467 L5.353658360516537,-5.450499257762667 L5.174976425018315,-5.620428720347288 L4.990903748139988,-5.784503416612545 L4.801632077266414,-5.942552430948018 L4.607358575542787,-6.0944111246594055 L4.408285616490992,-6.239921307471644 L4.204620573198337,-6.378931402314753 L3.996575602298284,-6.51129660322075 L3.7843674229681663,-6.636879026167138 L3.568217091174148,-6.755547852709853 L3.3483497693985713,-6.867179466256035 L3.1249944920895754,-6.97165758083469 L2.8983839270773037,-7.0688733622310655 L2.6687541332052462,-7.158725541358594 L2.436344314429183,-7.24112051975028 L2.2013965706398815,-7.315972467059657 L1.9641556454691154,-7.383203410469726 L1.7248686713417183,-7.442743315916775 L1.4837849120392446,-7.494530161044431 L1.2411555030434052,-7.53850999981197 L0.9972331899297702,-7.5746370186895735 L0.7522720650842443,-7.602873584382017 L0.5065273030165773,-7.623190283031032 L0.2602548945466352,-7.6355659508555425 L0.013711380140319918,-7.639987696197857 L-0.23284641732706257,-7.636450912952819 L-0.47916166010162975,-7.624959285365964 L-0.7249777630972445,-7.605524784195664 L-0.970038661178632,-7.578167654243257 L-1.214089075902872,-7.542916393264166 L-1.4568747814413903,-7.4998077222819575 L-1.6981428694054657,-7.4488865473362775 L-1.93764201229934,-7.3902059127045 L-2.175122725326553,-7.323826945645832 L-2.4103376262767227,-7.249818792725421 L-2.643041693222088,-7.16825854778479 L-2.872992519755361,-7.079231171633664 L-3.0999505675029932,-6.982829403546807 L-3.323679415650852,-6.879153664658088 L-3.543946007222325,-6.768311953352395 L-3.7605208918523676,-6.650419732764382 L-3.9731784648045325,-6.525599810501213 L-4.181697201982064,-6.393982210714647 L-4.385859890688184,-6.255704038655651 L-4.585453855895241,-6.110909337852711 L-4.78027118178699,-5.959748940062559 L-4.970108928343228,-5.802380308149657 L-5.154769342741176,-5.6389673720580875 L-5.334060065353384,-5.469680358046732 L-5.507794330127593,-5.294695611365617 L-5.67579115913978,-5.1141954125581375 L-5.837875551117763,-4.928367787580536 L-5.993878663738961,-4.737406311936398 L-6.143637989512412,-4.541509909030243 L-6.2869975250618255,-4.340882642950217 L-6.4238079336333636,-4.135733505895786 L-6.5539267006588116,-3.926276200471826 L-6.677218282212149,-3.7127289170759323 L-6.793554246204814,-3.4953141066108078 L-6.902813406172647,-3.2742582487585157 L-7.0048819475150665,-3.0497916160579743 L-7.09965354605507,-2.8221480340314624 L-7.187029478796466,-2.5915646376099866 L-7.266918726763012,-2.3582816241112994 L-7.339238069812343,-2.122542003027778 L-7.403912173325876,-1.884591342884945 L-7.4608736666844235,-1.6446775154342266 L-7.51006321344776,-1.403050437446459 L-7.551429573165022,-1.159961810375115 L-7.584929654751587,-0.9156648581604334 L-7.610528561376778,-0.670414063447585 L-7.62819962681569,-0.424464902493654 L-7.637924443227232,-0.178073579039578 L-7.6396928803294575,0.06850324257572415 L-7.633503095952221,0.3150087047810315 L-7.619361537956162,0.561186024339785 L-7.597282937515993,0.8067787598396219 L-7.567290293775136,1.0515310788258225 L-7.5294148498876545,1.2951880243004288 L-7.483696060472447,1.537495780309388 L-7.430181550513609,1.7782019363410821 L-7.368927065749784,2.0170557502608255 L-7.2999964146041645,2.2538084095074105 L-7.223461401715644,2.488213290279641 L-7.139401753140369,2.7200262144428327 L-7.047905033301584,2.9490057038877 L-6.949066553774312,3.1749132320766162 L-6.842989273999869,3.3975134725152643 L-6.729783694033637,3.6165745438908017 L-6.609567739437834,3.8318682516212146 L-6.482466638439174,4.0431703255642235 L-6.348612791479383,4.25026065363812 L-6.208145633294476,4.452923511111179 L-6.061211487666434,4.6509477853208 L-5.9079634149986155,4.844127195588271 L-5.74856105287367,5.032260508100107 L-5.583170449760037,5.215151745532078 L-5.411963892040275,5.392610391197594 L-5.235119724541382,5.5644515875077705 L-5.052822164754082,5.730496328536461 L-4.8652611109345845,5.89057164648963 L-4.67263194428873,6.044510791884858 L-4.475135325444582,6.192153407253247 L-4.272976985425472,6.333345694182833 L-4.066367511341245,6.467940573529444 L-3.8555221270209605,6.5957978386281475 L-3.640660468815531,6.716784301345687 L-3.422006356803883,6.830773930821734 L-3.1997875616409415,6.93764798475448 L-2.97423556729033,7.037295133093763 L-2.7455853298889377,7.129611574012896 L-2.514075032994542,7.214501142038406 L-2.279945839471453,7.291875408225019 L-2.0434416402726243,7.3616537722715485 L-1.8048088003799385,7.423763546481739 L-1.5642959021673057,7.4781400314825985 L-1.3221534864539217,7.524726583621343 L-1.0786337915174258,7.5634746739707355 L-0.8339904903388216,7.594343938881384 L-0.5884784263528835,7.617302222028295 L-0.34235334797930506,7.632325607907943 L-0.09587164221112676,7.639398446750878 L0.15070993246202846,7.6385133708240165 L0.39713451351770734,7.629671302105553 L0.643145401972752,7.612881451324544 L0.8884863297850636,7.588161308366148 L1.1329017268064567,7.555536624052519 L1.3761369870085272,7.515041383318329 L1.6179387337041993,7.466717769808875 L1.8580550834886722,7.410616121937628 L2.0962359086248297,7.346794880449012 L2.3322330975997763,7.275320527541046 L2.565800813581088,7.196267517611239 L2.7966957505035404,7.109718199697891 L3.024677386519554,7.0157627316976185 L3.2495082345493382,6.914498986448406 L3.4709540896697266,6.80603244977608 L3.688784273084024,6.690476110610361 L3.9027718724187004,6.5679503432849895 L4.112693978096624,6.438582782144511 L4.318331915540613,6.3025081885883605 L4.5194714729654,6.159868310690736 " />
			<path d="M5.8061385933604335,6.247233558484466 L5.740579921962669,6.18917754497676 L5.670193548892097,6.137079573943164 L5.595519227834455,6.091339155553875 L5.51712959434777,6.052307047467451 L5.435625774640884,6.020282565066726 L5.351632775873127,5.995511286176717 L5.265794693324357,5.978183167865788 L5.178769771188884,5.968431089771251 L5.091225354869299,5.966329835119822 L5.003832773478224,5.971895517256931 L4.917262191791227,5.985085456082492 L4.832177471128385,6.005798505340705 L4.749231078573512,6.033875828254045 L4.6690590835694135,6.069102115553587 L4.592276280257465,6.111207236565236 L4.519471472965561,6.159868310690617 " />
			<path d="M13.195069867253565,13.391679831731027 L5.8061385933604335,6.247233558484471 " />
			<path d="M3.5516660498395414,-0.9516660498395395 L-0.95166604983954,-3.5516660498395405 " />
			<path d="M0.9516660498395395,3.5516660498395414 L3.5516660498395405,-0.95166604983954 " />
			<path d="M-3.5516660498395414,0.9516660498395395 L0.95166604983954,3.5516660498395405 " />
			<path d="M-0.9516660498395395,-3.5516660498395414 L-3.5516660498395405,0.95166604983954 " />
			<path d="M-78.01250414717754,55.23533077285067 L-78.70886838749755,55.112542968881705 " />
			<path d="M-78.70886838749756,55.112542968881705 L-78.58608058352858,54.41617872856169 " />
			<path d="M-67.12959503215725,46.394261184100856 L-78.58608058352858,54.41617872856169 " />
			<path d="M-66.7381294849207,45.83720448489328 L-66.76449853071418,45.91991795039097 L-66.79794220796055,46.000032645690496 L-66.83820845688327,46.07694475883524 L-66.88499379704773,46.1500746152305 L-66.93794561464594,46.218871046560494 L-66.99666482009174,46.28281554485792 L-67.06070885589679,46.341426170417606 L-67.12959503215724,46.394261184100856 " />
			<path d="M-63.76247596165069,34.88076961317158 L-66.73812948492072,45.83720448489328 " />
			<path d="M-63.76247596165069,34.88076961317158 L-16.56686399340884,1.834046342588234 " />
			<path d="M-8.628239237172968,0.4506524892961452 L-16.566863993408845,1.8340463425882376 " />
			<path d="M-2.137455973685863,7.334908449364219 L-1.9045943123775793,7.398791827403915 L-1.6698301437883716,7.455284521122968 L-1.4333979748350871,7.504330099731666 L-1.1955339786071626,7.545879571394956 L-0.9564757584523313,7.579891432170584 L-0.7164621106336364,7.606331707467563 L-0.4757327857948388,7.625173985983526 L-0.2345282494724894,7.6363994460871 L0.006910558106107523,7.639996874618906 L0.2483424626991062,7.635962678092431 L0.48952629696007754,7.624300886283578 L0.7302211413410937,7.605023148205303 L0.9701865647482801,7.578148720471374 L1.2091828647094434,7.543704448060851 L1.446971306813881,7.501724737502525 L1.6833143631851946,7.452251522506096 L1.9179759497488789,7.395334222074408 L2.1507216620577045,7.3310296911386015 L2.381319009439304,7.259402163765485 L2.6095376472320844,7.180523188993851 L2.8351496068774824,7.0944715593638445 L3.0579295236387134,7.001333232210756 L3.277654861718558,6.901201243801885 L3.494106136551312,6.794175616402218 L3.707067134046834,6.680363258361764 L3.9163251265677186,6.559877857324352 L4.121671085423827,6.432839766664575 L4.322899889671928,6.299375885266287 L4.519810531011865,6.159619530762776 " />
			<path d="M-3.3745064392764466,7.953760512567737 L-7.389641011792106,14.940479051212108 " />
			<path d="M-7.389641011792108,14.940479051212106 L-54.58525298003396,47.98720232179545 " />
			<path d="M-54.58525298003396,47.98720232179544 L-65.89866742362858,47.03608055446326 " />
			<path d="M-66.55601859580621,47.213413228389854 L-66.48280946345118,47.1667520358363 L-66.4058291408079,47.12661634253928 L-66.3256578165554,47.093308644956025 L-66.24289972945391,47.067079978005566 L-66.15817861429156,47.04812802305776 L-66.07213300089266,47.03659561803959 L-65.98541140161804,47.03256968088807 L-65.89866742362858,47.03608055446326 " />
			<path d="M-78.01250414717752,55.23533077285068 L-66.5560185958062,47.213413228389854 " />
			<path d="M-8.621467361129426,-0.5655975079344815 L-16.9579773649209,0.8871322848541401 " />
			<path d="M-2.417227697990296,8.294975000328122 L-2.1709591034764157,8.362806740026512 L-1.922792927406221,8.423328757582517 L-1.6729460856846958,8.47648815220031 L-1.42163696324502,8.522238458570346 L-1.1690852231637172,8.560539687483509 L-0.9155116146586013,8.591358360784701 L-0.6611377801373486,8.614667540635278 L-0.4061860614653714,8.630446853058725 L-0.15087930562229523,8.638682505749065 L0.10455933008305873,8.639367300126358 L0.3599065730689506,8.632500637628807 L0.6149392306377539,8.61808852023595 L0.8694343850631574,8.596143545222466 L1.1231695884370265,8.566684894147222 L1.3759230571056125,8.529738316087142 L1.6274738655251468,8.485336105130582 L1.877602139367378,8.433517072149854 L2.126089247706282,8.374326510877621 L2.3727179941179295,8.307816158316756 L2.6172728065265085,8.23404414951832 L2.859539925630522,8.15307496676714 L3.099307591744502,8.064979383219457 L3.3363662298929055,7.969834401041855 L3.5705086329944042,7.86772318410558 L3.8015301429764583,7.758734985295051 L4.029228829661871,7.642965068494139 L4.2534056672709495,7.520514625318361 L4.473864708385008,7.391490686665792 L4.690413255219148,7.2560060291640145 L4.902862028054623,7.11417907659486 L5.111025330683545,6.966133796383123 " />
			<path d="M8.588361499170889,0.9432108775661758 L8.613020069317637,0.6822648206756856 L8.629751977544345,0.4206908675850336 L8.63854182528249,0.1587297478265537 L8.639381523133597,-0.10337745275346988 L8.632270298314033,-0.36538951386887497 L8.617214695366194,-0.6270653027914546 L8.594228570135481,-0.8881639962681849 L8.563333077018621,-1.1484453021536507 L8.524556649495027,-1.407669680553688 L8.477934973959128,-1.6655985642767073 L8.42351095687778,-1.921994578389849 L8.361334685302943,-2.1766217586778724 L8.291463380775982,-2.429245768803749 L8.213961346666041,-2.679634115971102 L8.128899908990881,-2.927556364890018 L8.036357350774749,-3.1727843498493016 L7.936418840003588,-3.415092384700027 L7.829176351243958,-3.6542574705570936 L7.7147285809977895,-3.8900595010276944 L7.5931808568708385,-4.122281464777758 L7.464645040638478,-4.350709645249999 L7.329239425298022,-4.575133817349731 L7.187088626202299,-4.79534744091745 L7.038323466374714,-5.011147850810135 L6.883080856111298,-5.222336443416313 L6.72150366698059,-5.428718859433272 L6.553740600337272,-5.630105162738157 L6.379946050470601,-5.826310015188394 L6.200279962513557,-6.017152847190512 L6.014907685243486,-6.202458023880441 L5.823999818909713,-6.382055006762292 L5.62773205822816,-6.555778510656918 L5.426285030687467,-6.72346865581577 L5.219844130315426,-6.884971115060075 L5.008599347058718,-7.040137255809931 L4.792745091932963,-7.188824276872575 L4.57248001810402,-7.330895339863982 L4.348006838065185,-7.46621969514281 L4.119532137078533,-7.594672802140799 L3.8872661830521156,-7.716136443978907 L3.651422733027981,-7.830498836263656 L3.4122188364590897,-7.937654729963617 L3.1698746354562024,-8.037505508271295 L2.9246131621885407,-8.12995927736133 L2.67666013362471,-8.214930950961435 L2.426243743802772,-8.292342328658284 L2.1735944538206167,-8.362122167866257 L1.9189447797399635,-8.424206249392803 L1.662529078599139,-8.478537436540119 L1.4045833327315838,-8.52506572768871 L1.1453449325885847,-8.563748302314451 L0.8850524582660997,-8.594549560396818 L0.6239454599367398,-8.617441155181991 L0.36226423738896685,-8.632402019270707 L0.10024961887643613,-8.639418384006827 L-0.1618572605190436,-8.638483792148786 L-0.42381518080690306,-8.629599103812275 L-0.685383059085364,-8.612772495678659 L-0.9463201714128133,-8.588019453469888 L-1.2063863743488388,-8.555362757696804 L-1.4653423259610032,-8.514832462693978 L-1.7229497060939951,-8.466465868960354 L-1.978971435698425,-8.410307488831172 L-2.23317189501741,-8.346409005512749 L-2.4853171404301615,-8.27482922551783 L-2.7351751197530048,-8.195634024545273 L-2.9825158857996783,-8.108896286853874 L-3.227111808004401,-8.01469583818616 L-3.4687377819129006,-7.913119372303819 L-3.7071714363486485,-7.804260371202431 L-3.9421933380636256,-7.688219019078916 L-4.173587193685273,-7.565102110130853 L-4.4011400487737875,-7.435022950272546 L-4.624642483806549,-7.29810125285828 L-4.843888806909331,-7.154463028508743 L-5.058677243156911,-7.00424046914199 L-5.268810120268857,-6.847571826315695 L-5.474094050529627,-6.684601283992647 L-5.674340108765508,-6.515478825846574 L-5.869364006214637,-6.340360097230446 L-6.0589862601300855,-6.15940626193425 L-6.243032358959898,-5.972783853864093 L-6.421332922952098,-5.780664623779126 L-6.593723860036826,-5.5832253812273285 L-6.760046516842169,-5.380647831825649 L-6.920147824704692,-5.173118410034215 L-7.073880440540302,-4.960828107578547 L-7.221102882445784,-4.743972297677673 L-7.361679659906243,-4.522750555239886 L-7.495481398488577,-4.2973664731916585 L-7.6223849589062755,-4.068027475108714 L-7.742273550345919,-3.8349446243217113 L-7.855036837951121,-3.59833242967223 L-7.960571044364967,-3.3584086480977944 L-8.058779045237518,-3.1153940842276544 L-8.149570458610473,-2.869512387173729 L-8.23286172809673,-2.620989844703743 L-8.308576199778283,-2.370055174985985 L-8.376644192751737,-2.116939316097325 L-8.437003063256414,-1.8618752134882426 L-8.489597262326157,-1.6050976056004238 L-8.534378386911673,-1.346842807834276 L-8.57130522442642,-1.0873484950651195 L-8.600343790675026,-0.8268534829082625 L-8.621467361129344,-0.5655975079342177 " />
			<path d="M-16.9579773649209,0.8871322848541396 L-64.63262634254022,34.26928088048502 " />
			<path d="M-2.41722769799013,8.29497500032827 L-6.633601510602074,15.631869082055992 " />
			<path d="M-64.6326263425402,34.26928088048501 L-67.70317146850829,45.575109139811865 " />
			<path d="M-6.633601510602072,15.631869082055992 L-54.30825048822139,49.01401767768687 " />
			<path d="M-67.70317146850829,45.575109139811865 L-79.49896090626977,53.83460982326693 " />
			<path d="M-54.30825048822138,49.014017677686866 L-65.98244215945516,48.032565272678845 " />
			<path d="M-79.49896090626977,53.83460982326693 L-79.86732431817668,55.923702544226984 " />
			<path d="M-65.98244215945516,48.032565272678845 L-77.77823159721665,56.29206595613391 " />
			<path d="M-77.77823159721665,56.29206595613391 L-79.8673243181767,55.92370254422699 " />
			<path d="M-66.55601859580621,47.213413228389854 L-66.48280946345118,47.1667520358363 L-66.4058291408079,47.12661634253928 L-66.3256578165554,47.093308644956025 L-66.24289972945391,47.067079978005566 L-66.15817861429156,47.04812802305776 L-66.07213300089266,47.03659561803959 L-65.98541140161804,47.03256968088807 L-65.89866742362858,47.03608055446326 " />
			<path d="M-65.89866742362858,47.03608055446326 L-54.58525298003396,47.98720232179544 " />
			<path d="M-7.389641011792108,14.940479051212106 L-54.58525298003396,47.98720232179545 " />
			<path d="M-3.3745064392764466,7.953760512567737 L-7.389641011792106,14.940479051212108 " />
			<path d="M-2.1374559736856744,7.334908449364274 L-1.9045943123773954,7.398791827403962 L-1.669830143788193,7.455284521123006 L-1.433397974834914,7.5043300997317 L-1.1955339786069947,7.545879571394982 L-0.9564757584521697,7.579891432170605 L-0.7164621106334805,7.606331707467577 L-0.4757327857946896,7.625173985983534 L-0.2345282494723464,7.636399446087104 L0.006910558106244302,7.639996874618905 L0.24834246269923455,7.635962678092427 L0.4895262969601988,7.624300886283569 L0.7302211413412083,7.605023148205293 L0.9701865647483885,7.5781487204713605 L1.2091828647095442,7.543704448060835 L1.4469713068139747,7.501724737502507 L1.6833143631852803,7.452251522506076 L1.9179759497489575,7.395334222074387 L2.1507216620577756,7.331029691138582 L2.3813190094393684,7.259402163765465 L2.6095376472321417,7.180523188993831 L2.8351496068775326,7.094471559363825 L3.0579295236387565,7.001333232210737 L3.277654861718595,6.901201243801868 L3.4941061365513413,6.794175616402203 L3.7070671340468566,6.68036325836175 L3.916325126567736,6.559877857324342 L4.12167108542384,6.432839766664569 L4.322899889671933,6.299375885266284 L4.519810531011865,6.159619530762776 " />
			<path d="M-8.628239237172968,0.4506524892961452 L-16.566863993408845,1.8340463425882376 " />
			<path d="M-16.566863993408845,1.8340463425882358 L-63.76247596165069,34.88076961317158 " />
			<path d="M-63.76247596165069,34.88076961317158 L-66.73812948492072,45.83720448489328 " />
			<path d="M-66.7381294849207,45.83720448489328 L-66.76449853071418,45.91991795039097 L-66.79794220796055,46.000032645690496 L-66.83820845688327,46.07694475883524 L-66.88499379704773,46.1500746152305 L-66.93794561464594,46.218871046560494 L-66.99666482009174,46.28281554485792 L-67.06070885589679,46.341426170417606 L-67.12959503215724,46.394261184100856 " />
			<path d="M-67.12959503215725,46.394261184100856 L-78.58608058352858,54.41617872856169 " />
			<path d="M-78.70886838749756,55.112542968881705 L-78.58608058352858,54.41617872856169 " />
			<path d="M-78.01250414717754,55.23533077285067 L-78.70886838749755,55.112542968881705 " />
			<path d="M-66.5560185958062,47.213413228389854 L-78.01250414717754,55.23533077285069 " />
			<path d="M0.0,144.592280347734 L-2.5999999999999996,142.07615131547595 " />
			<path d="M-2.5999999999999996,142.07615131547595 L-2.5999999999999996,120.0 " />
			<path d="M2.5999999999999996,120.0 L2.5960519427266218,119.85677182307475 L2.5842197610266684,119.7139786254154 L2.5645393888470776,119.5720540652701 L2.537070594831332,119.43142916286342 L2.5018968008040505,119.29253099140213 L2.4591248284216496,119.15578138006782 L2.408884574758484,119.02159563293563 L2.351328617813701,118.89038126770934 L2.286631753136871,118.76253677810361 L2.21499046297965,118.63845042363151 L2.136622319585637,118.51849905047331 L2.051765324430623,118.40304694700686 L1.9606771854199296,118.29244473747589 L1.8636345342379725,118.18702831715561 L1.760932086226926,118.08711783224986 L1.6528817453459161,117.99301670761757 L1.5398116569289473,117.90501072528146 L1.422065211118309,117.82336715651742 L1.2999999999999992,117.74833395016046 L1.1739867316083112,117.68013897959217 L1.0444081040977196,117.61898935069685 L0.9116576435011603,117.56507077288765 L0.7761385086044048,117.51854699511328 L0.6382622665660768,117.47955930855774 L0.49844764300171884,117.44822611754371 L0.35711925032786024,117.42464257994249 L0.21470629822806303,117.40888031818265 L0.07164129015722019,117.40098720173512 L-0.07164129015722218,117.40098720173512 L-0.21470629822806503,117.40888031818265 L-0.35711925032786224,117.42464257994249 L-0.4984476430017209,117.44822611754371 L-0.6382622665660788,117.47955930855774 L-0.7761385086044068,117.51854699511328 L-0.9116576435011622,117.56507077288765 L-1.0444081040977216,117.61898935069685 L-1.1739867316083126,117.68013897959217 L-1.3000000000000005,117.74833395016046 L-1.42206521111831,117.82336715651742 L-1.5398116569289484,117.90501072528146 L-1.6528817453459173,117.99301670761757 L-1.7609320862269269,118.08711783224986 L-1.8636345342379734,118.18702831715561 L-1.9606771854199305,118.29244473747589 L-2.0517653244306238,118.40304694700687 L-2.1366223195856375,118.51849905047331 L-2.2149904629796504,118.63845042363153 L-2.2866317531368714,118.76253677810361 L-2.3513286178137016,118.89038126770936 L-2.4088845747584844,119.02159563293563 L-2.45912482842165,119.15578138006782 L-2.501896800804051,119.29253099140213 L-2.5370705948313326,119.43142916286342 L-2.564539388847078,119.5720540652701 L-2.5842197610266684,119.7139786254154 L-2.596051942726622,119.85677182307475 L-2.5999999999999996,120.0 " />
			<path d="M2.5999999999999996,142.07615131547595 L2.5999999999999996,120.0 " />
			<path d="M0.0,144.592280347734 L2.5999999999999996,142.07615131547595 " />
			<path d="M-3.5999999999999996,120.0 L-3.596043209348561,119.83125985510821 L-3.584181535278833,119.66289063767634 L-3.564441052324743,119.49526245978521 L-3.5368651543520735,119.32874380454994 L-3.501514459169326,119.16370071611406 L-3.458466675276624,119.000495995005 L-3.407816431045562,118.83948840061984 L-3.3496750667055104,118.68103186259431 L-3.2841703895936267,118.52547470278857 L-3.2114463932065895,118.37315886960023 L-3.1316629406716423,118.22441918628753 L-3.0449954133327477,118.07958261495514 L-2.951634325224325,117.93896753782053 L-2.851784904280062,117.80288305734075 L-2.7456666411973707,117.67162831673808 L-2.633512806949203,117.54549184241841 L-2.5155699400038247,117.42475090972754 L-2.392097304379752,117.30967093343972 L-2.2633663197271803,117.20050488431849 L-2.1296599646886762,117.09749273303197 L-1.9912721548507142,117.00086092264527 L-1.8485070966534283,116.91082187084947 L-1.701678618678833,116.8275735030215 L-1.5511094817874924,116.75129881714108 L-1.3971306696200991,116.68216548152158 L-1.2400806610236,116.62032546623861 L-1.080304686001229,116.5659147090668 L-0.9181539668220388,116.5190528166591 L-0.7539849459581247,116.4798428016254 L-0.5881585025467148,116.44837085608843 L-0.4210391590995041,116.4247061622148 L-0.2529942802030632,116.40890074013757 L-0.08439326497174726,116.40098933360466 L0.08439326497172675,116.40098933360466 L0.2529942802030427,116.40890074013757 L0.4210391590994837,116.4247061622148 L0.5881585025466946,116.44837085608843 L0.7539849459581047,116.4798428016254 L0.918153966822019,116.5190528166591 L1.0803046860012095,116.56591470906679 L1.2400806610235804,116.6203254662386 L1.3971306696200805,116.68216548152158 L1.551109481787474,116.75129881714108 L1.7016786186788149,116.82757350302148 L1.8485070966534107,116.91082187084947 L1.9912721548506973,117.00086092264526 L2.1296599646886594,117.09749273303196 L2.2633663197271643,117.20050488431848 L2.3920973043797367,117.3096709334397 L2.5155699400038087,117.42475090972752 L2.633512806949187,117.5454918424184 L2.7456666411973543,117.67162831673807 L2.8517849042800454,117.80288305734072 L2.951634325224309,117.93896753782052 L3.0449954133327313,118.07958261495511 L3.1316629406716268,118.2244191862875 L3.2114463932065744,118.3731588696002 L3.2841703895936125,118.52547470278854 L3.349675066705497,118.68103186259428 L3.4078164310455494,118.83948840061981 L3.458466675276613,119.00049599500495 L3.5015144591693166,119.16370071611402 L3.5368651543520655,119.3287438045499 L3.5644410523247365,119.49526245978517 L3.5841815352788284,119.66289063767628 L3.596043209348559,119.83125985510817 L3.5999999999999996,119.99999999999996 " />
			<path d="M-3.5999999999999996,142.5 L-3.5999999999999996,120.0 " />
			<path d="M3.5999999999999996,120.0 L3.5999999999999996,142.5 " />
			<path d="M-3.5999999999999996,142.5 L-0.5,145.5 " />
			<path d="M3.5999999999999996,142.5 L0.5,145.5 " />
			<path d="M-0.5,145.5 L-0.5,150.0 " />
			<path d="M0.5,145.5 L0.5,150.0 " />
			<path d="M-0.5,150.0 L1.1102230246251565e-16,150.5 " />
			<path d="M0.5,150.0 L-1.1102230246251565e-16,150.5 " />
			<path d="M2.5999999999999996,142.07615131547595 L2.5999999999999996,120.0 " />
			<path d="M2.5999999999999996,120.0 L2.5960519427266218,119.85677182307475 L2.5842197610266684,119.7139786254154 L2.5645393888470776,119.5720540652701 L2.537070594831332,119.43142916286342 L2.5018968008040505,119.29253099140213 L2.4591248284216496,119.15578138006782 L2.408884574758484,119.02159563293563 L2.351328617813701,118.89038126770934 L2.286631753136871,118.76253677810361 L2.21499046297965,118.63845042363151 L2.136622319585637,118.51849905047331 L2.051765324430623,118.40304694700686 L1.9606771854199296,118.29244473747589 L1.8636345342379725,118.18702831715561 L1.760932086226926,118.08711783224986 L1.6528817453459161,117.99301670761757 L1.5398116569289473,117.90501072528146 L1.422065211118309,117.82336715651742 L1.2999999999999992,117.74833395016046 L1.1739867316083112,117.68013897959217 L1.0444081040977196,117.61898935069685 L0.9116576435011603,117.56507077288765 L0.7761385086044048,117.51854699511328 L0.6382622665660768,117.47955930855774 L0.49844764300171884,117.44822611754371 L0.35711925032786024,117.42464257994249 L0.21470629822806303,117.40888031818265 L0.07164129015722019,117.40098720173512 L-0.07164129015722218,117.40098720173512 L-0.21470629822806503,117.40888031818265 L-0.35711925032786224,117.42464257994249 L-0.4984476430017209,117.44822611754371 L-0.6382622665660788,117.47955930855774 L-0.7761385086044068,117.51854699511328 L-0.9116576435011622,117.56507077288765 L-1.0444081040977216,117.61898935069685 L-1.1739867316083126,117.68013897959217 L-1.3000000000000005,117.74833395016046 L-1.42206521111831,117.82336715651742 L-1.5398116569289484,117.90501072528146 L-1.6528817453459173,117.99301670761757 L-1.7609320862269269,118.08711783224986 L-1.8636345342379734,118.18702831715561 L-1.9606771854199305,118.29244473747589 L-2.0517653244306238,118.40304694700687 L-2.1366223195856375,118.51849905047331 L-2.2149904629796504,118.63845042363153 L-2.2866317531368714,118.76253677810361 L-2.3513286178137016,118.89038126770936 L-2.4088845747584844,119.02159563293563 L-2.45912482842165,119.15578138006782 L-2.501896800804051,119.29253099140213 L-2.5370705948313326,119.43142916286342 L-2.564539388847078,119.5720540652701 L-2.5842197610266684,119.7139786254154 L-2.596051942726622,119.85677182307475 L-2.5999999999999996,120.0 " />
			<path d="M-2.5999999999999996,142.07615131547595 L-2.5999999999999996,120.0 " />
			<path d="M-2.5999999999999996,142.07615131547595 L0.0,144.592280347734 " />
			<path d="M2.5999999999999996,142.07615131547595 L0.0,144.592280347734 " />

       </g>
    </g>
    
</svg>
