<?xml version="1.0" encoding="UTF-8" standalone="no"?>
<svg
   xmlns:svg="http://www.w3.org/2000/svg"
   xmlns="http://www.w3.org/2000/svg"
   width="620.0"
   height="536.2374123216213"

>
    <g transform="scale(3.0838555096871043, -3.0838555096871043)   translate(87.88129033017448,-156.24269407843127)" stroke-width="0.5"  fill="none">
       <!-- hidden lines -->
       <g  stroke="rgb(160,160,160)" fill="none" stroke-dasharray="0.5,0.5" >

       </g>

       <!-- solid lines -->
       <g  stroke="rgb(0,0,0)" fill="none">
			<path d="M14.336666176614724,1.3490748460746262 L14.364386672591541,1.0121242612814179 L14.384189013602535,0.6746157580105079 L14.396062283901118,0.3367353828152293 L14.399999938523251,-0.0013306127622056962 L14.395999806895269,-0.33939587485910394 L14.384064094030359,-0.6772740500170924 L14.364199379313098,-1.0147788879066955 L14.336416612872654,-1.3517243439950688 L14.300731109546694,-1.687924682100281 L14.257162540439303,-2.02319457677563 L14.205734922077578,-2.357349215467549 L14.146476603172893,-2.690204400390777 L14.079420248994062,-3.0215766500646586 L14.004602823361118,-3.3512833004545817 L13.922065568269547,-3.67914260566283 L13.831853981156254,-4.00497383811329 L13.734017789819763,-4.328597388174864 L13.628610925008529,-4.649834863168599 L13.51569149069239,-4.968509185704021 L13.39532173203364,-5.284444691290398 L13.267568001075277,-5.597467225169196 L13.132500720165451,-5.907404238314307 L12.990194343138182,-6.2140848825471275 L12.840727314271778,-6.517340104714091 L12.684182025047603,-6.817002739874709 L12.520644768732993,-7.112907603448755 L12.350205692813372,-7.404891582271827 L12.172958749299788,-7.692793724509043 L11.989001642939263,-7.976455328377362 L11.798435777356499,-8.255720029627586 L11.601366199156637,-8.530433887737829 L11.397901540019868,-8.800445470770937 L11.18815395681985,-9.065605938849114 L10.972239069798874,-9.325769126199678 L10.750275898833936,-9.580791621726787 L10.522386797828785,-9.830532848064669 L10.28869738726816,-10.074855139068813 L10.04933648497136,-10.313623815702385 L9.804436035083324,-10.54670726027605 L9.554131035342396,-10.773976989000264 L9.298559462664803,-10.995307722810074 L9.03786219708695,-11.210577456423314 L8.772182944107376,-11.419667525594237 L8.501668155471238,-11.622462672525398 L8.226466948440956,-11.818851109401814 L7.94673102359754,-12.008724580012332 L7.662614581217886,-12.191978419424265 L7.374274236274176,-12.36851161167838 L7.081868932102188,-12.53822684547244 L6.785559852786147,-12.701030567802631 L6.485510334308387,-12.856833035533247 L6.181885774512818,-13.005548364866282 L5.874853541931817,-13.147094578683578 L5.5645828835268105,-13.281393651735517 L5.251244831393396,-13.408371553651254 L4.935012108482439,-13.527958289746891 L4.6160590333891145,-13.640087939608994 L4.294561424262359,-13.74469869343223 L3.970696501887733,-13.841732886091124 L3.644642791997091,-13.931137028927095 L3.31658002685892,-14.012861839233286 L2.9866890462035958,-14.086862267420925 L2.655151697538164,-14.153097521852246 L2.322150735905603,-14.211531091326263 L1.9878697231438132,-14.26213076520504 L1.652492926699889,-14.304868651169322 L1.3162052180554111,-14.339721190593757 L0.9791919708187926,-14.366669171533253 L0.6416389585408284,-14.385697739313258 L0.3037322523097812,-14.396796404718195 L-0.03434188181754294,-14.399959049773482 L-0.37239708549219497,-14.395183931117964 L-0.7102470108003622,-14.382473680964939 L-1.047705422984877,-14.361835305651155 L-1.3845863031043741,-14.333280181774711 L-1.7207039505734665,-14.296824049923845 L-2.055873085527443,-14.252487006000175 L-2.3899089509550313,-14.200293490141146 L-2.722627414542975,-14.140272273247747 L-3.0538450701762203,-14.072456441124995 L-3.383379339037834,-13.996883376243865 L-3.711048570252852,-13.913594737134765 L-4.03667214102063,-13.822636435423885 L-4.3600705561804896,-13.724058610525091 L-4.681065547155754,-13.617915602001332 L-4.999480170221663,-13.504265919610749 L-5.315138904042963,-13.383172211054035 L-5.627867746427452,-13.254701227440833 L-5.937494310242094,-13.118923786494175 L-6.2438479184388775,-12.97591473351326 L-6.546759698137988,-12.825752900116084 L-6.84606267371651,-12.668521060784702 L-7.141591858851219,-12.504305887237003 L-7.4331843474648736,-12.333197900650227 L-7.720679403525768,-12.155291421762499 L-8.003918549651068,-11.970684518879924 L-8.28274565446514,-11.779478953817899 L-8.557007018664635,-11.581780125806404 L-8.82655145974295,-11.377697013390254 L-9.091230395327369,-11.167342114356298 L-9.35089792508284,-10.950831383720661 L-9.605410911137419,-10.728284169810294 L-9.85462905698487,-10.499823148473954 L-10.098414984821035,-10.265574255458969 L-10.336634311271316,-10.025666616991037 L-10.569155721467515,-9.780232478595304 L-10.795851041433204,-9.529407132197974 L-11.016595308737719,-9.273328841548652 L-11.231266841379862,-9.012138766004503 L-11.43974730486329,-8.745980882718246 L-11.641921777426647,-8.47500190727289 L-11.83767881339248,-8.199351212806947 L-12.026910504600023,-7.919180747674701 L-12.209512539887951,-7.634644951686935 L-12.385384262594389,-7.345900670978285 L-12.55442872604237,-7.053107071548124 L-12.716552746980275,-6.756425551522673 L-12.871666956947703,-6.456019652186681 L-13.019685851538524,-6.152054967833719 L-13.160527837533902,-5.8446990544847734 L-13.294115277879344,-5.534121337525494 L-13.420374534480986,-5.220493018312949 L-13.539236008797483,-4.903986979803435 L-13.650634180205191,-4.584777691253279 L-13.754507642115426,-4.263041112045288 L-13.850799135823937,-3.9389545946937323 L-13.939455582073915,-3.612696787081405 L-14.020428110315153,-3.284447533982638 L-14.0936720856432,-2.9543877779265237 L-14.1591471334037,-2.6226994594550446 L-14.216817161448313,-2.289565416831043 L-14.266650380029985,-1.9551692852513431 L-14.308619319326567,-1.6196953956205746 L-14.342700844583149,-1.283328672941498 L-14.368876168864752,-0.9462545343778448 L-14.387130863412338,-0.6086587870458438 L-14.397454865596469,-0.2707275255908268 L-14.39984248446416,0.06735297039469845 L-14.394292403875951,0.40539633905490646 L-14.380807683231387,0.7432162389998558 L-14.359395755782597,1.0806264520234174 L-14.330068424536805,1.4174409857532968 L-14.292841855750096,1.7534741761765735 L-14.247736570016027,2.088540789984224 L-14.194777430953927,2.42245612667824 L-14.133993631503225,2.7550361203850375 L-14.065418677831246,3.0860974413190334 L-13.989090370863458,3.4154575968404766 L-13.90505078544625,3.7429350320517916 L-13.813346247153833,4.068349229877041 L-13.714027306751907,4.391520810569273 L-13.607148712332341,4.712271630590945 L-13.492769379134085,5.030424880812908 L-13.370952357067011,5.345805183977813 L-13.241764795956604,5.658238691374223 L-13.105277908528603,5.967553178668129 L-12.961566931154046,6.273578140839072 L-12.810711082376342,6.576144886168487 L-12.652793519243218,6.875086629228524 L-12.487901291467633,7.17023858282003 L-12.316125293442923,7.461438048809052 L-12.137560214138604,7.7485245078117675 L-11.952304484904488,8.03133970767842 L-11.760460225211862,8.309727750727443 L-11.562133186361647,8.583535179681775 L-11.35743269319056,8.852611062259891 L-11.146471583807426,9.116807074374973 L-10.92936614739283,9.375977581896384 L-10.706236060096455,9.6299797209283 L-10.47720431906736,9.878673476561325 L-10.24239717465364,10.121921760053628 L-10.001944060808786,10.359590484399071 L-9.755977523743152,10.591548638240699 L-9.504633148859805,10.817668358088786 L-9.248049486015102,11.037824998803694 L-8.98636797314513,11.251897202304662 L-8.71973285830014,11.459766964466635 L-8.448291120129955,11.661319700168303 L-8.172192386864168,11.856444306455424 L-7.891588853831807,12.045033223784714 L-7.606635199565905,12.226982495314406 L-7.317488500539272,12.402191824208957 L-7.024308144578406,12.570564628926158 L-6.727255743003327,12.732008096456298 L-6.426495041541733,12.886433233483944 L-6.122191830066601,13.033754915444195 L-5.8145138512069705,13.173891933446328 L-5.503630707882322,13.306767039038998 L-5.189713769811474,13.432306986792295 L-4.8729360790475775,13.550442574673212 L-4.553472254591242,13.661108682192221 L-4.231498396134415,13.764244306299995 L-3.907191986988031,13.859792595014419 L-3.580731796246973,13.947700878759406 L-3.2522977802462663,14.027920699398225 L-2.922070983362813,14.10040783694532 L-2.590233438217372,14.165122333941932 L-2.256968065331775,14.222028517482045 L-1.922458572296704,14.271095018876544 L-1.5868893525056071,14.312294790944753 L-1.250445383510585,14.345605122923782 L-0.9133121250562484,14.371007652987497 L-0.5756754168477931,14.388488378368212 L-0.23772137610962396,14.398037663075497 L0.10036370500901004,14.399650243207883 L0.4383934621247958,14.393325229854504 L0.7761815613509526,14.3790661095851 L1.1135418020110253,14.356880742528094 L1.4502882192792477,14.326781358037813 L1.7862351866908828,14.288784547953245 L2.121197518466066,14.242911257452018 L2.4549905715907094,14.189186773504698 L2.7874303475982334,14.127640710935722 L3.1183335939959793,14.058306996098644 L3.447517905280436,13.981223848174764 L3.7748018234855625,13.896433758105353 L4.100004938208787,13.803983465169157 L4.4229479860595955,13.703923931218071 L4.743452949475775,13.596310312585157 L5.0613431548529855,13.481201929680559 L5.376443369933442,13.358662234291977 L5.68857990040011,13.228758774607837 L5.997580685623105,13.091563157982344 L6.303275393505575,12.947151011462989 L6.605495514376734,12.795601940102262 L6.90407445388032,12.636999483076554 L7.198847624807255,12.47143106763642 L7.48965253782191,12.298987960913607 L7.776328891031932,12.119765219611395 L8.058718658352293,11.933861637606018 L8.336666176614811,11.741379691487989 " />
			<path d="M14.336666176614603,1.3490748460747364 L106.92304845413263,54.80384757729338 " />
			<path d="M100.92304845413263,65.19615242270665 L8.33666617661477,11.741379691488099 " />
			<path d="M106.92304845413263,54.80384757729338 L107.10868638227194,54.9155422127035 L107.29017084630692,55.03386601105867 L107.46726522511993,55.15866470069959 L107.63973862142697,55.289775567943984 L107.8073661628236,55.42702766923419 L107.96992929497571,55.570242054015026 L108.12721606657269,55.71923199805106 L108.27902140567141,55.873803246879476 L108.42514738707104,56.033754269080816 L108.56540349036965,56.19887651903747 L108.69960684836649,56.36895470883742 L108.82758248548598,56.54376708896858 L108.94916354591241,56.723085737437835 L109.06419151113816,56.906676856937885 L109.17251640664152,57.094301079674295 L109.27399699742492,57.28571377945545 L109.36850097215837,57.48066539063843 L109.45590511568822,57.67890173351498 L109.53609546968623,57.880164345713396 L109.60896748122944,58.08419081918413 L109.67442613911727,58.290715142329816 L109.732386097748,58.499468046833634 L109.78277178839315,58.71017735873387 L109.82551751772465,58.922568353286785 L109.86056755346645,59.136364113155295 L109.88787619705879,59.35128588945636 L109.90740784324032,59.56705346519632 L109.9191370264707,59.78338552062039 L109.92304845413263,60.000000000000014 L109.9191370264707,60.21661447937963 L109.90740784324032,60.43294653480371 L109.88787619705879,60.648714110543665 L109.86056755346645,60.863635886844726 L109.82551751772465,61.077431646713244 L109.78277178839315,61.28982264126616 L109.732386097748,61.500531953166394 L109.67442613911727,61.70928485767022 L109.60896748122944,61.9158091808159 L109.53609546968623,62.11983565428663 L109.45590511568822,62.32109826648505 L109.36850097215837,62.51933460936161 L109.27399699742492,62.71428622054458 L109.17251640664152,62.90569892032573 L109.06419151113816,63.09332314306215 L108.94916354591241,63.2769142625622 L108.82758248548598,63.45623291103146 L108.69960684836649,63.631045291162614 L108.56540349036963,63.801123480962566 L108.42514738707104,63.966245730919226 L108.2790214056714,64.12619675312057 L108.12721606657267,64.28076800194899 L107.9699292949757,64.42975794598502 L107.80736616282358,64.57297233076584 L107.63973862142696,64.71022443205605 L107.46726522511992,64.84133529930044 L107.2901708463069,64.96613398894137 L107.10868638227194,65.08445778729654 L106.92304845413261,65.19615242270665 L106.73349909833136,65.30107226667616 L106.54028545106603,65.39908052374506 L106.34365942607147,65.49004940984409 L106.14387738617211,65.57386031890077 L105.94119980903368,65.65040397747907 L105.73589094755006,65.71958058725116 L105.52821848530795,65.78129995511536 L105.31845318757848,65.83548161079075 L105.10686854829102,65.8820549117351 L104.89374043344921,65.92095913524918 L104.67934672145437,65.95214355764764 L104.46396694080502,65.97556752039304 L104.24788190564513,65.99120048310675 L104.03137334963598,65.99902206338786 L103.81472355862927,65.99902206338786 L103.59821500262012,65.99120048310675 L103.38212996746024,65.97556752039304 L103.1667501868109,65.95214355764764 L102.95235647481604,65.92095913524918 L102.73922835997423,65.8820549117351 L102.52764372068677,65.83548161079075 L102.3178784229573,65.78129995511536 L102.1102059607152,65.71958058725116 L101.90489709923159,65.65040397747907 L101.70221952209315,65.57386031890077 L101.50243748219378,65.49004940984409 L101.30581145719923,65.39908052374506 L101.1125978099339,65.30107226667616 L100.92304845413264,65.19615242270666 " />
			<path d="M3.5516660498395396,-0.9516660498395417 L-0.9516660498395417,-3.5516660498395414 " />
			<path d="M0.9516660498395404,3.5516660498395414 L3.5516660498395414,-0.9516660498395397 " />
			<path d="M-3.551666049839543,0.9516660498395382 L0.9516660498395417,3.5516660498395396 " />
			<path d="M-0.9516660498395404,-3.5516660498395414 L-3.5516660498395414,0.9516660498395397 " />
			<path d="M-7.2816139770103465,12.423288529604566 L-75.19713763363694,59.97825015543439 " />
			<path d="M-75.19713763363693,59.978250155434374 L-75.37682132998272,60.0992910626136 L-75.56075775854717,60.21376604761125 L-75.74870710131871,60.32152585688634 L-75.94042430821122,60.42242999220592 L-76.1356594165626,60.516346893827965 L-76.33415787703838,60.60315411203016 L-76.53566088551551,60.682738466761 L-76.73990572051355,60.75499619520497 L-76.94662608573336,60.81983308706944 L-77.15555245725668,60.87716460741699 L-77.36641243495386,60.926916006882735 L-77.57893109764173,60.96902241913332 L-77.79283136152831,61.003428945440206 L-78.00783434147726,61.03009072625714 L-78.22365971462085,61.048972999708454 L-78.4400260858475,61.06005114691192 L-78.65665135468741,61.06331072407706 L-78.87325308311763,61.05874748133712 L-79.08954886380741,61.04636736829005 L-79.3052566883235,61.026186526241396 L-79.52009531481534,60.998231267159106 L-79.73378463470075,60.962538039367736 L-79.94604603787411,60.919153380026785 L-80.15660277596079,60.86813385445515 L-80.3651803231442,60.809545982380705 L-80.5715067340951,60.743466151211265 L-80.7753129985364,60.66998051644002 L-80.97633339198136,60.589184889315156 L-81.1743058221874,60.50118461192032 L-81.36897217087463,60.4060944198286 L-81.56007863026267,60.30403829250922 L-81.74737603398762,60.19514929168202 L-81.93062018196754,60.079569387830304 L-82.10957215879264,59.957449275098426 L-82.2839986452255,59.828948174815395 L-82.45367222240476,59.69423362790063 L-82.618371668356,59.553481276422545 L-82.77788224642298,59.406874634594836 L-82.93199598524319,59.254604849508915 L-83.08051194990294,59.096870451914604 L-83.22323650391812,58.9338770973739 L-83.35998356169914,58.76583729812537 L-83.49057483117122,58.59297014600869 L-83.61484004623306,58.415501026810745 L-83.73261718875145,58.23366132640553 L-83.84375269980201,58.047688129071105 L-83.9481016798807,57.85782390837696 L-84.0455280778251,57.664316211044685 L-84.13590486819925,57.46741733419435 L-84.21911421691053,57.267383996397115 L-84.29504763484285,57.06447700296324 L-84.36360611930573,56.8589609059017 L-84.424700283115,56.65110365899483 L-84.47825047113656,56.44117626843772 L-84.52418686414148,56.22945243949786 L-84.56244956983701,56.01620821965565 L-84.59298870095466,55.80172163869116 L-84.61576444029369,55.58627234618636 L-84.63074709263512,55.3701412469154 L-84.63791712345869,55.15361013459838 L-84.63726518441212,54.936961324496096 L-84.62879212549953,54.72047728532479 L-84.61250899397325,54.504440270970875 L-84.58843701993032,54.28913195248565 L-84.55660758863246,54.07483305084005 L-84.51706219958567,53.861822970918006 L-84.46985241243283,53.650379437225816 L-84.41503977972972,53.44077813179235 L-84.35269576669229,53.23329233473229 L-84.2829016580196,53.028192567941005 L-84.20574845191403,52.825746242385584 L-84.12133674143716,52.626217309451974 L-84.02977658335541,52.42986591680272 L-83.93118735464715,52.236948069194035 L-83.82569759685781,52.04771529469447 L-83.71344484850627,51.86241431674027 L-83.5945754657609,51.68128673245507 L-83.46924443161896,51.50456869765338 L-83.3376151538384,51.332490618938444 L-83.1998592518853,51.165276853295936 L-83.05615633317483,51.00314541557535 L-82.90669375889742,50.84630769424011 L-82.75166639973557,50.69496817575746 L-82.5912763817896,50.54932417798704 L-82.42573282304382,50.409565592916074 L-82.25525156071653,50.27587463907644 L-82.0800548698495,50.148425623966475 " />
			<path d="M-82.08005486984949,50.14842562396647 L-14.164531213223057,2.5934639981367624 " />
			<path d="M3.0000000000000147,125.19615242270662 L3.186912835565581,125.08365877872495 L3.369612640700969,124.96444464684906 L3.547857890181505,124.83866762560488 L3.7214129476095694,124.70649398951744 L3.8900483769208654,124.56809846929939 L4.053541245693969,124.42366402086074 L4.211675419862215,124.27338158344519 L4.364241849438297,124.1174498272124 L4.511038844873868,123.9560748906004 L4.651872343688798,123.78947010781498 L4.78655616701761,123.61785572680637 L4.914912265733952,123.44145861810628 L5.036770955827719,123.26051197490982 L5.151971142723679,123.07525500479919 L5.260360534245046,122.88593261351633 L5.361795841940473,122.69279508120277 L5.45614297050831,122.49609773153472 L5.543277195067719,122.29610059419055 L5.623083326042292,122.09306806109718 L5.695455861438202,121.88726853690969 L5.76029912631557,121.67897408418595 L5.817527399268694,121.46846006372596 L5.867065025747902,121.25600477055056 L5.908846518073247,121.04188906600159 L5.942816642007813,120.82639600644907 L5.968930489776197,120.60981046909683 L5.98715353943162,120.39241877538088 L5.9974617004932025,120.17450831245868 L5.999841345793065,119.95636715328949 L5.9942893294911475,119.738283675808 L5.980812991233947,119.520546181695 L5.95943014645166,119.30344251524863 L5.930169062806567,119.08725968286052 L5.893068422823789,118.87228347359935 L5.848177272753814,118.65879808140394 L5.795554957734415,118.4470857293849 L5.735271043337645,118.23742629673175 L5.667405223605638,118.03009694871866 L5.592047215696802,117.82537177029782 L5.509296641281655,117.62352140376508 L5.419262894845119,117.42481269097665 L5.322064999069345,117.22950832058983 L5.217831447488289,117.03786648079425 L5.1067000346220155,116.85014051799267 L4.988817673815291,116.66657860188242 L4.864340203021294,116.48742339738038 L4.73343217878719,116.31291174382523 L4.596266658713892,116.1432743418808 L4.453024972677637,115.97873544855486 L4.303896483115765,115.8195125807361 L4.149078334693646,115.6658162276415 L3.9887751936836593,115.51784957255406 L3.823198977400764,115.37580822421887 L3.65256857405236,115.23987995825262 L3.4771095533727667,115.11024446890809 L3.297053868424876,114.98707313152241 L3.1126395489631697,114.87052877596234 L2.9241103867634974,114.76076547136685 L2.731715613335568,114.6579283224709 L2.535709570444244,114.56215327778013 L2.3363513738751793,114.47356694984988 L2.13390457088931,114.39228644790609 L1.9286367918190221,114.31841922302938 L1.7208193962665959,114.25206292610709 L1.5107271143726273,114.19330527874081 L1.2986376836286748,114.14222395728041 L1.0848314817142508,114.0988864901375 L0.869591155843541,114.06335016851435 L0.6532012491118495,114.03566197066608 L0.435947824335727,114.01585849979656 L0.2181180858840625,114.00396593566963 L6.578581641713004e-14,114.0 L-0.21811808588393103,114.00396593566961 L-0.43594782433559576,114.01585849979656 L-0.6532012491117186,114.03566197066607 L-0.8695911558434107,114.06335016851432 L-1.0848314817141214,114.09888649013747 L-1.2986376836285463,114.14222395728038 L-1.5107271143725,114.19330527874078 L-1.7208193962664695,114.25206292610704 L-1.9286367918188976,114.31841922302934 L-2.133904570889187,114.39228644790605 L-2.336351373875058,114.47356694984983 L-2.5357095704441246,114.56215327778007 L-2.7317156133354508,114.65792832247084 L-2.924110386763383,114.76076547136678 L-3.112639548963058,114.87052877596227 L-3.297053868424766,114.98707313152234 L-3.4771095533726597,115.11024446890802 L-3.652568574052255,115.23987995825253 L-3.8231989774006627,115.3758082242188 L-3.9887751936835607,115.51784957255397 L-4.149078334693551,115.6658162276414 L-4.303896483115674,115.819512580736 L-4.453024972677549,115.97873544855476 L-4.596266658713808,116.1432743418807 L-4.733432178787109,116.31291174382513 L-4.864340203021218,116.48742339738028 L-4.988817673815218,116.6665786018823 L-5.106700034621947,116.85014051799256 L-5.217831447488225,117.03786648079414 L-5.322064999069283,117.2295083205897 L-5.419262894845062,117.42481269097654 L-5.509296641281603,117.62352140376497 L-5.592047215696754,117.82537177029769 L-5.667405223605594,118.03009694871854 L-5.735271043337606,118.23742629673163 L-5.795554957734382,118.44708572938477 L-5.8481772727537855,118.65879808140382 L-5.893068422823764,118.87228347359923 L-5.930169062806547,119.08725968286039 L-5.959430146451645,119.3034425152485 L-5.980812991233936,119.52054618169487 L-5.994289329491141,119.73828367580786 L-5.9998413457930635,119.95636715328935 L-5.997461700493207,120.17450831245856 L-5.987153539431629,120.39241877538075 L-5.968930489776211,120.60981046909669 L-5.9428166420078306,120.82639600644895 L-5.908846518073269,121.04188906600146 L-5.867065025747929,121.25600477055043 L-5.817527399268726,121.46846006372583 L-5.760299126315607,121.67897408418584 L-5.6954558614382425,121.88726853690956 L-5.623083326042338,122.09306806109707 L-5.543277195067769,122.29610059419042 L-5.456142970508364,122.4960977315346 L-5.361795841940531,122.69279508120266 L-5.260360534245109,122.88593261351622 L-5.151971142723746,123.07525500479908 L-5.036770955827791,123.2605119749097 L-4.914912265734028,123.44145861810617 L-4.7865561670176895,123.61785572680627 L-4.651872343688881,123.78947010781488 L-4.511038844873956,123.9560748906003 L-4.364241849438388,124.1174498272123 L-4.211675419862308,124.27338158344509 L-4.053541245694065,124.42366402086066 L-3.8900483769209657,124.5680984692993 L-3.721412947609673,124.70649398951737 L-3.5478578901816107,124.83866762560481 L-3.369612640701078,124.96444464684899 L-3.186912835565693,125.0836587787249 L-3.000000000000129,125.19615242270656 " />
			<path d="M3.0,125.19615242270662 L3.0,150.0 " />
			<path d="M3.0,150.0 L2.9960222696544916,150.15443626431104 L2.984099626843767,150.30846299141209 L2.9642636882732316,150.4616717301122 L2.9365670552860736,150.6136561983786 L2.9010831743739613,150.76401336072368 L2.857906142410148,150.91234449698254 L2.807150457121481,151.0582562596473 L2.7489507134610145,151.2013617169538 L2.683461246686387,151.34128137895533 L2.610855723090466,151.4776442038616 L2.531326679469557,151.6100885819748 L2.4450850125504346,151.7382632946137 L2.352359419730132,151.86182844548227 L2.25339579261156,151.98045636201368 L2.148456564943181,152.09383246429903 L2.03782001669188,152.2016560992966 L1.9217795360945267,152.3036413381098 L1.8006428416451057,152.39951773421916 L1.6747311660805957,152.48903104065786 L1.5443784045294933,152.571943884229 L1.409930229081961,152.64803639497663 L1.2717431721295829,152.71710678924143 L1.1301836809055559,152.77897190475448 L0.9856271457325045,152.83346768635099 L0.8384569045548285,152.8804496210148 L0.6890632263953865,152.91979312110115 L0.5378422764322066,152.95139385472055 L0.3851950654396523,152.9751680224083 L0.23152638637993825,152.9910525793456 L0.07724374096496464,152.99900540254293 L-0.07724374096496694,152.99900540254293 L-0.23152638637994055,152.9910525793456 L-0.38519506543965454,152.9751680224083 L-0.5378422764322088,152.95139385472055 L-0.6890632263953889,152.91979312110115 L-0.8384569045548308,152.8804496210148 L-0.9856271457325068,152.83346768635099 L-1.1301836809055579,152.77897190475448 L-1.2717431721295842,152.71710678924143 L-1.4099302290819624,152.64803639497663 L-1.5443784045294946,152.571943884229 L-1.674731166080597,152.48903104065786 L-1.8006428416451072,152.39951773421916 L-1.9217795360945282,152.3036413381098 L-2.037820016691882,152.2016560992966 L-2.148456564943183,152.09383246429903 L-2.2533957926115624,151.98045636201368 L-2.352359419730134,151.86182844548227 L-2.445085012550437,151.7382632946137 L-2.5313266794695597,151.6100885819748 L-2.6108557230904683,151.4776442038616 L-2.683461246686389,151.34128137895533 L-2.7489507134610167,151.20136171695378 L-2.807150457121483,151.05825625964727 L-2.8579061424101493,150.91234449698254 L-2.9010831743739627,150.76401336072368 L-2.9365670552860745,150.6136561983786 L-2.9642636882732325,150.4616717301122 L-2.9840996268437676,150.30846299141209 L-2.996022269654492,150.15443626431104 L-3.0,150.0 " />
			<path d="M-3.0,150.0 L-3.0,125.19615242270656 " />

       </g>
    </g>
    
</svg>
