<?xml version="1.0" encoding="UTF-8" standalone="no"?>
<svg
   xmlns:svg="http://www.w3.org/2000/svg"
   xmlns="http://www.w3.org/2000/svg"
   width="620.0"
   height="439.4391615922301"

>
    <g transform="scale(3.2326279977661234, -3.2326279977661234)   translate(83.26213408200647,-123.84521506619072)" stroke-width="0.5"  fill="none">
       <!-- hidden lines -->
       <g  stroke="rgb(160,160,160)" fill="none" stroke-dasharray="0.5,0.5" >

       </g>

       <!-- solid lines -->
       <g  stroke="rgb(0,0,0)" fill="none">
			<path d="M40.39921832831732,26.788601192042 L40.321537696022325,27.082687271286414 L40.251335828036765,27.378647742245693 L40.188657829500876,27.67629244846208 L40.133543971421595,27.97543015134608 L40.08602966479822,28.275868653048512 L40.046145437870585,28.577414919948776 L40.0139169165045,28.879875206680204 L39.98936480772696,29.183055180612648 L39.97250488642176,29.486760046712423 L39.96334798519402,29.790794672699345 L39.96189998741017,30.094963714420423 L39.96816182341787,30.399071741359723 L39.982129469948234,30.702923362203688 L40.00379395270081,31.00632335038128 L40.03314135210964,31.30907676949829 L40.07015281228662,31.61098909858518 L40.11480455313661,31.91186635707802 L40.167067885636214,32.21151522945223 L40.22690923026669,32.50974318942902 L40.29429013858902,32.806358623674704 L40.369167317947245,33.10117095491351 L40.45149265928425,33.39399076437463 L40.5412132680522,33.68462991349499 L40.63827149819757,33.972901664799465 L40.74260498919908,34.258620801880866 L40.854146706134784,34.54160374840263 L40.97282498275236,34.82166868604778 L41.09856356751516,35.09863567133835 L41.23128167259432,35.37232675125017 L41.3708940257754,35.642566077548814 L41.517310925246335,35.909180019773174 L41.67043829723144,36.171997276794166 L41.83017775643435,36.43084898687672 L41.99642666925125,36.68556883617454 L42.169078219713526,36.935993165587774 L42.34802147811778,37.181961075915055 L42.533141472298816,37.42331453123218 L42.72431926149998,37.65989846043122 L42.92143201279334,37.89156085685469 L43.124353080000624,38.11815287596074 L43.33295208506418,38.33952893095675 L43.54709500181568,38.555546786339725 L43.7666442420888,38.766067649283514 L43.99145874412046,38.970956258814056 L44.22139406318389,39.17008097271542 L44.45630246439527,39.36331385211075 L44.69603301763436,39.550530743663785 L44.94043169451799,39.731611359348165 L45.18934146736428,39.90643935373324 L45.44260241008394,40.07490239873674 L45.70005180093374,40.23689225579626 L45.96152422706629,40.39230484541326 " />
			<path d="M40.399218328317176,26.78860119204215 L5.848469228349323,6.840716898472483 " />
			<path d="M45.96152422706632,40.392304845413264 L46.4216100950023,40.6534544659759 L46.88547766367412,40.907826258690626 L47.353027091482545,41.155365473261654 L47.8241577443549,41.396018830018804 L48.29876821740537,41.62973453138528 L48.77675635676103,41.856462273026494 L49.258019281549245,42.07615325467732 L49.74245340604142,42.28876019064583 L50.2299544619485,42.494237319990916 L50.72041752086346,42.692540416371685 L51.21373701684573,42.88362679756672 L51.70980676914297,43.067455334660835 L52.208520005045145,43.243986460897545 L52.70976938286594,43.41318218019528 L53.21344701504674,43.57500607532566 L53.719444491378006,43.72942331575172 L54.227652902333276,43.876400665124805 L54.73796286251046,44.015906488438304 L55.25026453417573,44.14791075883659 L55.764447650904664,44.27238506407798 L56.280401541315705,44.38930261265014 L56.79801515289077,44.49863823953653 L57.317177075877865,44.6003684116329 L57.837775567270654,44.69447123281253 L58.35969857485971,44.78092644863902 L58.882833761350334,44.85971545072586 L59.4070685285417,44.9308212807416 L59.932290041562226,44.994228634059965 " />
			<path d="M8.848469228349535,1.6445644757659803 L8.893458934008173,1.3807201704582304 L8.930583100873625,1.1156547308152498 L8.959808895649322,0.8496025855912195 L8.981110470504374,0.5827990362008966 L8.99446898593386,0.3154800486147158 L8.999872627420823,0.04788204466614321 L8.997316615885266,-0.2197583070441511 L8.986803211910841,-0.4872043004623561 L8.968341713745552,-0.7542194014287116 L8.941948449078224,-1.0205674568726746 L8.907646760597974,-1.2860129036710402 L8.865466985349528,-1.5503209769843065 L8.815446427902563,-1.8132579178870158 L8.757629327358872,-2.0745911801084573 L8.692066818226479,-2.334089635700866 L8.618816885195347,-2.591523779453233 L8.537944311854643,-2.8466659318699437 L8.449520623396937,-3.099290440534711 L8.353624023360021,-3.3491738796817265 L8.250339324462244,-3.59609524779752 L8.139757873592586,-3.839836163078771 L8.021977471021799,-4.080181056573189 L7.897102283906031,-4.316917362832669 L7.765242754159486,-4.549835707910079 L7.6265155007775585,-4.778730094533445 L7.48104321669685,-5.003398084293717 L7.328954560283276,-5.223640976685036 L7.170384041544233,-5.439263984839106 L7.005471903165483,-5.650076407798306 L6.834363996477931,-5.855891799175103 L6.657211652464028,-6.056528132048687 L6.474171547917866,-6.251807959952929 L6.285405566877329,-6.441558573813289 L6.0910806574508785,-6.625612154693917 L5.891368684165571,-6.8038059222198015 L5.686446275966903,-6.975982278542725 L5.476494670004923,-7.141988947723712 L5.261699551344763,-7.301679110408668 L5.042250888743341,-7.454911533678117 L4.8183427666375005,-7.601550695956193 L4.590173213492164,-7.741466906868428 L4.357944026660306,-7.874536421942295 L4.121860593909667,-8.000641552049101 L3.8821317117740257,-8.11967076749042 L3.638969400889704,-8.231518796637012 L3.392588718480612,-8.336086719032984 L3.1432075681576785,-8.43328205288287 L2.8910465072008913,-8.523018836844228 L2.6363285514943744,-8.605217706053438 L2.3792789782870343,-8.679805962317442 L2.1201251269532206,-8.746717638409372 L1.8590961979295884,-8.805893556411169 L1.5964230500060212,-8.85728138005164 L1.3323379961498656,-8.9008356609936 L1.0670745980440621,-8.936517879029232 L0.8008674595209002,-8.96429647614806 L0.5339520190740665,-8.984146884447446 L0.2665643416325034,-8.996051547860874 L-0.0010590902197495922,-8.999999937684883 L-0.2686815853931175,-8.995988561890831 L-0.5360664536264368,-8.984020968213308 L-0.8029772148201886,-8.964107741012466 L-1.0691778081838428,-8.936266491913006 L-1.3344328010123752,-8.90052184422814 L-1.5985075969072793,-8.856905411182266 L-1.8611686432579404,-8.805455767951674 L-2.122183637799871,-8.746218417547924 L-2.3813217340670962,-8.679245750574164 L-2.6383537455570307,-8.604596998889907 L-2.8930523484272346,-8.522338183225287 L-3.1451922825448047,-8.432542054791107 L-3.3945505507105818,-8.335288030936333 L-3.6409066158819803,-8.23066212490993 L-3.884042596220007,-8.118756869789152 L-4.123743457787975,-7.999671236641596 L-4.359797204731466,-7.87351054699336 L-4.591995066771377,-7.740386379680755 L-4.820131683844188,-7.6004164721679155 L-5.044005287726197,-7.453724616417632 L-5.263417880481032,-7.300440549407453 L-5.4781754095726845,-7.1406998383879134 L-5.688087939489142,-6.9746437609843674 L-5.892969819724851,-6.802419180248455 L-6.092639848973437,-6.624178414769711 L-6.286921435385479,-6.440079103962201 L-6.4756427527495966,-6.250284068645331 L-6.658636892458705,-6.054961167042104 L-6.835742011127065,-5.8542831463222305 L-7.0068014737275535,-5.648427489821341 L-7.171663992122558,-5.437576260071461 L-7.330183758866003,-5.22191593778156 L-7.482220576158128,-5.001637256910575 L-7.627639979839003,-4.776935035978786 L-7.766313358311117,-4.548008005766733 L-7.8981180662858295,-4.315058633554056 L-8.02293753325313,-4.0782929440536995 L-8.140661366578739,-3.837920337199873 L-8.251185449137388,-3.594153402950888 L-8.35441203139592,-3.3472077332706878 L-8.450249817864778,-3.0973017314553455 L-8.538614047841417,-2.844656418973163 L-8.619426570374221,-2.5894952399892324 L-8.692615913380656,-2.332043863747289 L-8.758117346858489,-2.0725299849836794 L-8.815872940134188,-1.8111831225499468 L-8.865831613097896,-1.5482344164221362 L-8.907949181379589,-1.2839164232763403 L-8.942188395426578,-1.0184629108112961 L-8.968518973447683,-0.7521086509999342 L-8.986917628194998,-0.48508921245271264 L-8.997368087559586,-0.21764075207641254 L-8.999861108962806,0.05000019378738463 L-8.994394487530641,0.31759691855938454 L-8.980973058043716,0.5849127547702446 L-8.95960869066133,0.8517112833736364 L-8.930320280423276,1.1177565428396 L-8.893133730538715,1.382813237843267 L-8.848081929476894,1.6466469473643799 L-8.795204721879998,1.90902433201355 L-8.734548873323792,2.1697133404019198 L-8.666168028957305,2.4284834143716707 L-8.59012266605805,2.685105692905911 L-8.506480040544835,2.9393532145375687 L-8.415314127495368,3.191001118078292 L-8.316705555721338,3.43982684148982 L-8.210741536458828,3.6856103187219538 L-8.09751578623707,3.9281341743430134 L-7.977128443993834,4.167183915790677 L-7.849685982510708,4.4025481230731485 L-7.715301114246605,4.634018635752893 L-7.57409269165279,4.861390737047556 L-7.426185602057592,5.08446333488526 L-7.271710657213736,5.3030391397541266 L-7.110804477606042,5.516924839188755 L-6.943609371621735,5.725931268739334 L-6.770273209690297,5.929873579272147 L-6.590949293504133,6.1285714004535645 L-6.405796220435741,6.321849000272877 L-6.214977743271261,6.509535440462928 L-6.018662625384509,6.691464727681053 L-5.817024491479539,6.86747596031666 L-5.610241674033757,7.037413470795567 L-5.398497055577399,7.201126963255277 L-5.181977906948848,7.358471646469398 L-4.960875721668866,7.509308361903674 L-4.73538604658019,7.65350370679035 L-4.505708308902314,7.790930152112047 L-4.272045639854378,7.921466155390756 L-4.03460469500218,8.044996268182253 L-3.793595471488192,8.161411238180825 L-3.549231122306219,8.270608105844028 L-3.3017277677849677,8.372490295451987 L-3.0513043044472505,8.466967700520753 L-2.798182211413873,8.553956763494131 L-2.5425853545234167,8.633380549643519 L-2.284739788341176,8.705168815110406 L-2.0248735562323374,8.769258069031324 L-1.7632164886762314,8.825591629690344 L-1.50000000000002,8.874119674649421 " />
			<path d="M1.5000000000000053,8.874119674649425 L1.7515314672111084,8.827918073893148 L2.0016486772724313,8.77458845603448 L2.2501496754607913,8.714173881557775 L2.4968338120476514,8.646723131627125 L2.741501904311815,8.57229066869846 L2.983956397367579,8.490936592544376 L3.224001523678519,8.402726591727152 L3.4614434611281033,8.30773189055915 L3.696090489519474,8.20602919159344 L3.927753145378072,8.097700613691066 L4.156244374932088,7.982833625714957 L4.381379685147223,7.861520975904042 L4.6029772926938,7.7338606169845905 L4.820858270725964,7.599955627079218 L5.034846693354428,7.459914126477462 L5.244769777696134,7.31384919033509 L5.450458023386119,7.161878757372668 L5.6517453494389525,7.004125534647075 L5.848469228349213,6.840716898472877 " />
			<path d="M59.932290041562254,44.994228634059965 L60.771281432725125,45.09324151852641 L61.6093129911181,45.200074158076404 L62.4463118349206,45.31471726170268 L63.28220517212501,45.43716085913859 L64.1169203068673,45.567394301725116 L64.95038464574918,45.70540626333704 L65.78252570415142,45.85118474136783 L66.61327111253769,46.00471705777362 L67.44254862274833,46.16598986017567 L68.2702861142837,46.334989123021685 L69.09641160057632,46.51170014880559 L69.92085323525129,46.6961075693456 L70.74353931837479,46.88819534712097 L71.56439830268955,47.0879467766666 L72.38335879983718,47.2953444860259 L73.20034958656672,47.510370438261575 L74.01529961092865,47.733005933024344 L74.82813799845428,47.963231608179186 L75.63879405831946,48.20102744148922 L76.44719728949246,48.44637275235709 L77.2532773868652,48.6992462036234 L78.05696424736765,48.95962580342244 L78.85818797606447,49.227488907094695 L79.65687889223368,49.50281221915631 L80.45296753542658,49.78557179532493 L81.24638467150865,50.07574304460219 L82.0370612986806,50.37330073141226 L82.82492865347942,50.678218977796575 L83.60991821675852,50.99047126566438 L84.39196171964669,51.310030439098924 L85.17099114948536,51.63686870671917 L85.94693875574343,51.970957644096856 L86.71973705590949,52.312268196228246 L87.48931884136053,52.66077068006123 L88.255617183207,53.01643478707675 L89.01856543811344,53.37922958592452 L89.77809725409435,53.749123525113205 L90.53414657628457,54.12608443575445 L91.28664765268414,54.51007953436027 L92.03553503987632,54.90107542569446 L92.7807436087194,55.29903810567667 " />
			<path d="M8.848469228349538,1.6445644757659723 L43.39921832831718,21.59244876933552 " />
			<path d="M92.78074360871935,55.29903810567663 L93.83512898726651,55.872323222047555 L94.88623677413793,56.451595844846906 L95.93403296861885,57.03683723605036 L96.97848367711642,57.62802846455892 L98.01955511425571,58.22515040681125 L99.05721360397298,58.82818374740211 L100.09142558060472,59.43710897970735 L101.12215758997354,60.0519064065148 L102.14937629047029,60.67255614066141 L103.17304845413263,61.29903810567663 " />
			<path d="M43.39921832831712,21.59244876933571 L43.61506402769464,21.378132328764 L43.83627238006861,21.169355492215743 L44.06270125768601,20.966252400117106 L44.294205178573634,20.76895354747788 L44.530635400011185,20.57758570004762 L44.77184001409936,20.39227181286785 L45.017664045361656,20.213130951272696 L45.26794955031709,20.04027821438865 L45.522535718959844,19.87382466118265 L45.78125897808075,19.71387723910602 L46.04395309636405,19.560538715380044 L46.3104492911921,19.413907610967396 L46.58057633708923,19.27407813727179 L46.854160675735216,19.141140135606577 L47.13102652747755,19.01517901947112 L47.41099600427101,18.896275719672104 L47.69388922397183,18.784506632324977 L47.979524425913056,18.679943569768955 L48.267718087687,18.582653714427178 L48.55828504305949,18.49269957564154 L48.85103860094031,18.41013894951008 L49.14579066533347,18.335024881752595 L49.44235185618997,18.267405633628467 L49.74053163108576,18.20732465092847 L50.04013840764638,18.154820536060598 L50.34097968663985,18.109927023247767 L50.642862175658635,18.072672956853364 L50.94559191331127,18.043082272848572 L51.24897439384368,18.021173983433343 L51.55281469211043,18.006962164820962 L51.85691758881532,18.000455948193967 L52.16108769594099,18.00165951383732 L52.465129582286984,18.010572088452562 L52.768847899035485,18.027187945654624 L53.07204750526417,18.051496409651108 L53.374533593325495,18.083481862101515 L53.6761118140118,18.12312375215216 L53.976588401425886,18.17039660964019 L54.27577029747687,18.22527006145835 L54.573465275921166,18.28770885106988 L54.869482065869065,18.357672861161074 L55.163630474677504,18.435117139416885 L55.455721510150006,18.519991927403087 L55.745567501965354,18.612242692536377 L56.03298222225696,18.711810163121903 L56.317781005265424,18.81863036643569 L56.599780865987455,18.93263466982752 L56.878800617744865,19.05374982481786 L57.154660988598174,19.181898014160424 L57.42718473652991,19.31699690184029 L57.696196763323776,19.458959685975287 L57.96152422706629,19.607695154586732 " />
			<path d="M103.17304845413263,61.29903810567668 L103.26697434527594,61.3522000957328 L103.36457289405615,61.398273878839746 L103.46531011027864,61.43700737185984 L103.5686348311815,61.46818865252849 L103.67398173700828,61.491647118942886 L103.78077444403758,61.50725442297487 L103.8884286581469,61.514925172501066 L103.99635537165668,61.514617398608166 L104.10396408596344,61.50633278521712 L104.2106660423303,61.49011665986992 L104.31587744315819,61.46605774572934 L104.41902264611318,61.4342876761486 L104.51953731363399,61.3949802744668 L104.61687150058773,61.3483506029706 L104.71049266318062,61.29465378622558 L104.79988857266065,61.234183615215166 L104.88457011787095,61.16727093992424 L104.96407398131983,61.09428185916215 L105.03796517412631,61.01561571752914 L105.10583941597146,60.931702920485186 L105.16732534703415,60.84300257947601 L105.22208655980928,60.750000000000014 " />
			<path d="M57.96152422706631,19.60769515458675 L58.41772936663021,19.875566393860204 L58.86995558546327,20.150101595964372 L59.31810554761883,20.431241670685825 L59.76208279451269,20.718926106196257 L60.201791765684604,21.013092982076866 L60.6371378193664,21.31367898264592 L61.06802725285247,21.620619410586706 L61.494367322668054,21.933848200872742 L61.91606626453113,22.253297934987483 L62.33303331310348,22.578899855435267 L62.745178721526756,22.910583880540525 L63.15241378073941,23.248278619531938 L63.554650838570154,23.591911387908414 L63.95180331860398,23.941408223083496 L64.34378573881662,24.296693900304874 L64.73051372997352,24.657691948845535 L65.11190405378915,25.024324668463173 L65.48787462084309,25.3965131461241 L65.85834450824868,25.774177272988307 L66.2232339770706,26.157235761651933 L66.58246448948782,26.545606163643225 L66.93595872569766,26.93920488716865 L67.28364060055802,27.33794721510487 L67.62543527996377,27.741747323233064 L67.96126919695371,28.150518298711525 L68.29107006754504,28.564172158782487 L68.61476690629152,28.98261986970936 L68.93229004156223,29.40577136594006 " />
			<path d="M104.67304845413264,58.70096189432335 L104.76605103360863,58.75572310709849 L104.8547513746178,58.81720903816118 L104.93866417166176,58.88508328000633 L105.01733031329478,58.95897447281281 L105.09031939405685,59.03847833626169 L105.15723206934778,59.123159881471985 L105.21770224035821,59.21255579095202 L105.27139905710322,59.3061769535449 L105.31802872859943,59.40351114049865 L105.35733613028123,59.504025808019456 L105.38910619986196,59.60717101097445 L105.41316511400254,59.71238241180234 L105.42938123934974,59.8190843681692 L105.43766585274078,59.92669308247596 L105.43797362663368,60.03461979598573 L105.4303028771075,60.14227401009507 L105.4146955730755,60.249066717124364 L105.39123710666111,60.35441362295114 L105.36005582599246,60.457738343854004 L105.32132233297236,60.55847556007648 L105.27524854986541,60.65607410885671 L105.2220865598093,60.750000000000014 " />
			<path d="M68.93229004156223,29.40577136594007 L69.43753341039358,30.082852782010335 L69.9490689693937,30.755193080976724 L70.46685223140399,31.422733790834748 L70.99083816591646,32.08541685698996 L71.52098120298984,32.743184647306876 L72.05723523721282,33.39597995712103 L72.59955363171365,34.043746014214044 L73.14788922221605,34.686426483750935 L73.70219432114106,35.32396547317943 L74.26242072175425,35.95630753709086 L74.82851970235821,36.58339768204209 L75.40044203052972,37.20518137133818 L75.97813796740144,37.821604529775364 L76.5615572719876,38.43261354834382 L77.15064920555326,39.03815528888996 L77.74536253602706,39.63817708873773 L78.34564554245671,40.23262676526851 L78.95144601950703,40.82145262045949 L79.56271128200021,41.404603445379514 L80.17938816949768,41.98202852464281 L80.80142305092332,42.55367764081948 L81.42876182922772,43.11950107880285 L82.06134994609286,43.67944963013306 L82.6991323866769,44.23347459727665 L83.34205368439868,44.78152779786168 L83.9900579257617,45.32356156886801 L84.64308875521652,45.85952877077249 L85.30108938006215,46.389382791648565 L85.96400257538502,46.913077551220006 L86.63177068903579,47.430567504868456 L87.30433564664317,47.941807647594324 L87.98163895666463,48.44675351793071 L88.66362171547313,48.94536120181025 L89.35022461247999,49.43758733638415 L90.04138793529296,49.92338911379331 L90.73705157490922,50.40272428489141 L91.43715503094298,50.87555116291906 L92.14163741688711,51.341828627129196 L92.85043746540825,51.80151612636342 L93.56349353367509,52.25457368257853 L94.28074360871936,52.70096189432338 " />
			<path d="M94.28074360871935,52.70096189432341 L95.30441577238169,53.32744385933863 L96.33163447287845,53.94809359348524 L97.36236648224727,54.56289102029267 L98.39657845887899,55.17181625259791 L99.43423694859626,55.77484959318876 L100.47530838573557,56.37197153544109 L101.51975909423312,56.963162763949654 L102.56755528871406,57.54840415515311 L103.61866307558547,58.1276767779524 L104.67304845413264,58.700961894323385 " />
			<path d="M3.5516660498395396,-0.9516660498395408 L2.5961481396815707,-1.5033345724847544 " />
			<path d="M0.0038518603184307665,-2.9999975271943287 L-0.95166604983954,-3.5516660498395414 " />
			<path d="M1.5,2.601923788646685 L1.503334572484753,2.5961481396815715 " />
			<path d="M2.999997527194329,0.0038518603184292954 L3.5516660498395414,-0.9516660498395397 " />
			<path d="M-3.5516660498395414,0.95166604983954 L-2.596148139681574,1.5033345724847518 " />
			<path d="M-0.9516660498395404,-3.5516660498395414 L-1.5033345724847536,-2.5961481396815707 " />
			<path d="M-2.9999975271943287,-0.0038518603184295452 L-3.5516660498395414,0.9516660498395397 " />
			<path d="M-30.308397817958316,17.559844856908825 L-30.550600216689062,17.346211813356426 L-30.797865818807942,17.13846003536843 L-31.050051848723026,16.93670948254625 L-31.30701268969916,16.741076649276312 L-31.568599967939676,16.551674497464074 L-31.83466263826007,16.368612391307813 L-32.10504707130423,16.191996034149774 L-32.37959714225274,16.02192740744116 L-32.658154320972194,15.858504711856227 L-32.940557763553294,15.701822310589431 L-33.22664440518504,15.551970674868448 L-33.51624905431127,15.409036331714459 L-33.80920448801519,15.273101813979892 L-34.10534154857696,15.144245612692478 L-34.40448924114831,15.022542131733125 L-34.706474832488084,14.908061644873777 L-35.011123950701496,14.800870255200088 L-35.31826068592559,14.70102985694231 L-35.62770769190274,14.608598099736444 L-35.93928628838357,14.52362835533633 L-36.25281656430013,14.446169686795816 L-36.568117481649786,14.376266820138891 L-36.885006980029765,14.313960118534059 L-37.20330208176214,14.259285558987933 L-37.52281899754841,14.21227471157147 L-37.84337323259273,14.172954721190823 L-38.16477969313253,14.141348291913417 L-38.48685279331493,14.117473673858196 L-38.809406562357395,14.101344652657675 L-39.13225475193056,14.092970541497872 L-39.45521094370137,14.092356175740717 L-39.77808865697436,14.099501910132009 L-40.10070145636896,14.114403618596594 L-40.42286305947063,14.13705269662083 L-40.744387444393645,14.167436066220988 L-41.0650889571935,14.205536183494711 L-41.38478241906679,14.251331048751183 L-41.70328323327679,14.304794219214141 L-42.02040749174293,14.365894824290411 L-42.3359720812326,14.434597583395137 L-42.64979478909402,14.510862826323432 L-42.96169440846909,14.59464651615666 L-43.27149084292549,14.685900274690134 L-43.579005210447576,14.784571410367576 L-43.88405994672607,14.890602948706157 L-44.18647890768686,15.003933665194584 L-44.48608747119978,15.124498120645232 L-44.78271263790852,15.252226698979904 L-45.07618313112359,15.387045647427401 L-45.36632949572053,15.528877119109703 L-45.65298419598633,15.677639217992143 L-45.93598171235759,15.833246046171643 L-46.21515863699444,15.995607753475715 L-46.4903537681352,16.164630589343552 L-46.761408203177126,16.34021695695929 L-47.028165430429645,16.522265469606143 " />
			<path d="M-30.308397817958333,17.55984485690877 L-8.67146489312777,2.409501319204548 " />
			<path d="M-5.230006275021701,7.324413584938636 L-5.0207306943413075,7.469421884918473 L-4.807437061581059,7.608452464130723 L-4.590296073991394,7.74139405747435 L-4.369481507831173,7.868140272816786 L-4.145170079295874,7.988589676138725 L-3.917541303092984,8.102645872710994 L-3.6867773487777593,8.21021758423851 L-3.45306289496434,8.31121872190959 L-3.216584981528871,8.405568455292176 L-2.97753285992294,8.493191277021793 L-2.73609784171709,8.574017063229526 L-2.492473145495647,8.647981129661595 L-2.24685374222538,8.715024283445674 L-1.9994361992217353,8.775092870462496 L-1.7504185228375286,8.828138818284819 L-1.4999999999999907,8.874119674649425 " />
			<path d="M1.5,8.874119674649423 L1.751531467211123,8.827918073893144 L2.0016486772724664,8.77458845603447 L2.2501496754608445,8.71417388155776 L2.4968338120477243,8.646723131627104 L2.7415019043119067,8.57229066869843 L2.9839563973676877,8.490936592544337 L3.2240015236786492,8.402726591727102 L3.461443461128254,8.307731890559086 L3.6960904895196443,8.206029191593364 L3.9277531453782615,8.097700613690973 L4.156244374932296,7.9828336257148464 L4.381379685147448,7.8615209759039155 L4.6029772926940415,7.733860616984444 L4.820858270726223,7.599955627079053 L5.034846693354702,7.459914126477274 L5.244769777696422,7.313849190334882 L5.450458023386421,7.161878757372438 L5.651745349439267,7.004125534646821 L5.848469228349536,6.840716898472599 " />
			<path d="M-5.230006275021697,7.324413584938645 L-26.866939199852062,22.474757122642732 " />
			<path d="M-26.86693919985209,22.474757122642693 L-26.749027904397582,22.775419733641506 L-26.638374908343316,23.07882868821042 L-26.535044104713123,23.384808792579193 L-26.439095158565664,23.693183368349597 L-26.350583472542723,24.003774354512693 L-26.26956015487875,24.316402410264427 L-26.196071989890047,24.63088701856025 L-26.130161410960653,24.947046590348897 L-26.07186647604057,25.264698569425132 L-26.021220845670396,25.583659537841008 L-25.97825376354514,25.90374532181466 L-25.942990039628384,26.224771098075554 L-25.915450035826574,26.546551500584755 L-25.895649654231665,26.868900727568597 L-25.883600327939,27.191632648803978 L-25.879309014445607,27.51456091309326 L-25.882778191632845,27.837499055866807 L-25.894005856335603,28.160260606850983 L-25.912985525498986,28.482659197739398 L-25.939706239921716,28.804508669805337 L-25.974152570584216,29.125623181393145 L-26.016304627557563,29.445817315226517 L-26.06613807148831,29.764906185471762 L-26.123624127652462,30.082705544494207 L-26.188729602570515,30.399031889246082 L-26.26141690317396,30.713702567224455 L-26.341644058512205,31.02653588193809 L-26.42936474398736,31.337351197822226 L-26.52452830810287,31.64596904454082 L-26.627079801710607,31.952211220615908 L-26.73696000973951,32.25590089632438 L-26.854105485387393,32.55686271580255 L-26.978448586756308,32.85492289829989 L-27.109917515910144,33.149909338523045 L-27.248436360332093,33.44165170601257 L-27.39392513675785,33.72998154349479 L-27.546299837359424,34.01473236415202 L-27.70547247825273,34.29573974775508 L-27.871351150301095,34.57284143560244 L-28.043840072185198,34.84587742421135 L-28.222839645708977,35.11469005770667 L-28.408246513309358,35.37912411885425 L-28.5999536177368,35.639026918686085 L-28.797850263872064,35.89424838466574 L-29.00182218264355,36.14464114734282 L-29.211751597008316,36.39006062544684 L-29.427517289958647,36.63036510937099 L-29.648994674514938,36.86541584299778 L-29.87605586566444,37.09507710381935 L-30.10856975420437,37.31921628130607 L-30.34640208244671,37.53770395347824 L-30.589415521740992,37.75041396163665 L-30.837469751770346,37.95722348320887 L-31.090421541574948,38.15801310266922 L-31.348124832256154,38.35266688049144 L-31.61043082131352,38.541072420094245 " />
			<path d="M-31.61043082131355,38.54107242009426 L-31.944711470501417,38.770456481508035 L-32.28327189079066,38.993475408654845 L-32.62599089757248,39.21004937394759 L-32.97274581771006,39.42010085671437 L-33.32341253344826,39.623554670946305 L-33.67786552684047,39.82033799220969 L-34.03597792467656,40.01038038371281 L-34.397621543896044,40.19361382151818 L-34.76266693747,40.369972718891056 L-35.13098344073546,40.53939394977564 L-35.502439218165634,40.70181687139044 L-35.87690131055922,40.85718334593484 L-36.254235682631965,41.005437761398966 L-36.63430727099334,41.14652705146949 L-37.016980032491254,41.28040071452426 L-37.402116992907466,41.40701083170889 L-37.78958029598624,41.526312084088836 L-38.17923125277876,41.638261768870954 L-38.570930391285536,41.742819814688545 L-38.96453750637915,41.8399487959445 L-39.35991170998942,41.92961394620753 L-39.75691148153294,42.01178317065643 L-40.15539471856915,42.08642705756813 L-40.55521878766455,42.15351888884538 L-40.956240575447076,42.21303464958025 L-41.35831653983218,42.26495303665001 L-41.76130276140246,42.309255466342435 L-42.16505499492225,42.34592608100762 L-42.569428720968915,42.37495175473414 L-42.97427919766225,42.39632209804731 " />
			<path d="M-42.97427919766224,42.39632209804731 L-43.63703061862398,42.42901646487677 L-44.29934083735363,42.46968022977211 L-44.961114027574254,42.518307509301266 L-45.62225444070881,42.57489126783194 L-46.28266641973354,42.639423318549596 L-46.942254413018084,42.711894324642 L-47.60092298815038,42.792293800650086 L-48.258576845744265,42.88061011398498 L-48.91512083322786,42.97683048661119 L-49.57045995861071,43.08094099689529 L-50.22449940422772,43.19292658162021 L-50.87714454045778,43.31277103816466 L-51.52830093941528,43.440457026847376 L-52.177874388612395,43.57596607343595 L-52.82577090459021,43.71927857181973 L-53.47189674651666,43.87037378684657 L-54.116158429749504,44.02922985732285 L-54.758462739362045,44.19582379917652 L-55.398716743629976,44.370131508782464 L-56.03682780747717,44.55212776645 L-56.67270360587859,44.74178624007177 L-57.30625213721833,44.93907948893356 L-57.93738173660084,45.143978967684625 L-58.566001089113456,45.356455030467735 L-59.19201924303829,45.57647693520844 L-59.81534562301157,45.80401284806307 L-60.43589004312853,46.039029848024526 L-61.053562719991945,46.28149393168552 L-61.668274285702424,46.53137001815833 L-62.27993580078858,46.78862195415043 L-62.888458767075285,47.0532125191954 L-63.49375514048795,47.32510343103813 L-64.0957373437912,47.604255351173656 L-64.69431827925999,47.890627890538894 L-65.2894113412813,48.1841796153563 L-65.88093042888471,48.48486805312873 L-66.46878995819982,48.79264969878454 L-67.05290487483904,49.10748002097214 L-67.6331906662036,49.42931346850298 L-68.20956337371129,49.75810347694215 L-68.78193960494399,50.09380247534555 L-69.35023654571326,50.436361893142625 L-69.91437197204235,50.78573216716387 " />
			<path d="M-69.91437197204235,50.78573216716387 L-70.65173732634616,51.253261949976945 L-71.384791003472,51.72752355499797 L-72.11347154665285,52.20847722172121 L-72.83771786575058,52.696082628600806 L-73.55746924237764,53.19029889643127 L-74.27266533498735,53.691084591774725 L-74.98324618393285,54.19839773043441 L-75.6891522164938,54.71219578097458 L-76.39032425187088,55.232435668286215 L-77.0867035061472,55.75907377719818 L-77.77823159721666,56.292065956133925 " />
			<path d="M-77.77823159721665,56.292065956133904 L-77.86248936076069,56.35284219958434 L-77.9509377153439,56.407340007401814 L-78.0431097182254,56.455271670946935 L-78.13851876851969,56.49638414602847 L-78.23666117609416,56.53046038879195 L-78.33701882068522,56.55732050155279 L-78.43906188719504,56.57682268252471 L-78.5422516627285,56.58886397442964 L-78.64604338060403,56.59338080803703 L-78.74988909632387,56.590349337762916 L-78.85324058032111,56.57978556755724 L-78.95555221221149,56.561745266414654 L-79.05628386127077,56.53632367395495 L-79.15490373793058,56.50365499762741 L-79.25089120123913,56.46391170419343 L-79.34373950746533,56.41730360922792 L-79.4329584853358,56.36407676944631 L-79.51807712378125,56.30451218370461 L-79.59864605853119,56.23892430953071 L-79.67423994442908,56.16765940301813 L-79.74445970094432,56.09109369084664 L-79.80893461902616,56.00963138408008 L-79.8673243181767,55.92370254422699 " />
			<path d="M-79.49896090626977,53.83460982326694 L-79.58488974612287,53.89299952241748 L-79.66635205288942,53.95747444049932 L-79.74291776506092,54.027694197014576 L-79.8141826715735,54.10328808291246 L-79.87977054574739,54.18385701766238 L-79.93933513148909,54.26897565610784 L-79.99256197127072,54.35819463397831 L-80.03917006623621,54.451042940204516 L-80.0789133596702,54.54703040351306 L-80.11158203599774,54.645650280172866 L-80.13700362845744,54.74638192923215 L-80.15504392960003,54.84869356112253 L-80.1656076998057,54.95204504511977 L-80.16863917007981,55.05589076083961 L-80.16412233647243,55.15968247871513 L-80.1520810445675,55.262872254248606 L-80.13257886359558,55.36491532075843 L-80.10571875083474,55.465272965349484 L-80.07164250807126,55.563415372923956 L-80.03053003298973,55.65882442321825 L-79.9825983694446,55.75099642609974 L-79.92810056162712,55.83944478068295 L-79.8673243181767,55.923702544227 " />
			<path d="M-71.63510128109544,48.328276034296906 L-72.3266293721649,48.86126821323265 L-73.02300862644123,49.387906322144616 L-73.72418066181831,49.908146209456234 L-74.43008669437927,50.42194425999641 L-75.14066754332475,50.929257398656105 L-75.85586363593447,51.43004309399956 L-76.57561501256153,51.92425936183004 L-77.29986133165927,52.411864768709606 L-78.0285418748401,52.89281843543283 L-78.76159555196595,53.36708004045387 L-79.49896090626979,53.83460982326693 " />
			<path d="M-54.53758015449933,25.88221688518122 L-54.79497714573687,26.493817372845392 L-55.059712021478376,27.102277571359075 L-55.331746478589146,27.707509445729247 L-55.61104115779543,28.309425428052567 L-55.89755564937902,28.90793843018517 L-56.191248499024056,29.50296185634296 L-56.49207721381477,30.09440961563076 L-56.79999826838352,30.682196134498323 L-57.11496711120839,31.266236369121547 L-57.436938171058976,31.846445817707032 L-57.765864863589954,32.42274053271821 L-58.10169959808106,32.99503713302129 L-58.44439378432284,33.56325281594924 L-58.79389783964681,34.12730536928207 L-59.15016119609936,34.68711318314173 L-59.513132307758255,35.242595261799806 L-59.8827586581904,35.79367123539637 L-60.258986768050306,36.340261371568275 L-60.64176220281765,36.88228658698529 L-61.0310295806732,37.41966845879215 L-61.42673258051167,37.952329235955276 L-61.82881395009055,38.48019185051208 L-62.23721551431369,39.00317992872159 L-62.651878183648265,39.52121780211456 L-63.072741962674215,40.03423051844154 L-63.49974595876462,40.54214385251735 L-63.932828390896,41.04488431696035 L-64.37192659858704,41.542379172824916 L-64.81697705096462,42.03455644012571 L-65.26791535595586,42.52134490825208 L-65.72467626960453,43.00267414627115 L-66.187193705511,43.4784745131181 L-66.65540074439386,43.948677167672216 L-67.12922964377213,44.41321407871713 L-67.60861184776667,44.872018034783906 L-68.09347799701905,45.32502265387554 L-68.58375793872688,45.77216239307142 L-69.07938073679382,46.2133725580104 L-69.580274682093,46.6485893122511 L-70.0863673028422,47.07774968650806 L-70.59758537508951,47.500791587762464 L-71.11385493330759,47.91765380824603 L-71.63510128109547,48.32827603429691 " />
			<path d="M-47.02816543042967,16.52226546960616 L-47.35804665581233,16.757932559358157 L-47.6834103794195,16.99979832256704 L-48.00414014027938,17.24777618559297 L-48.3201211361048,17.501777387025797 L-48.63124026438562,17.76171100945646 L-48.93738616287278,18.027484012019983 L-49.23844924943937,18.299001263698656 L-49.53432176130457,18.576165577373267 L-49.82489779360634,18.85887774461037 L-50.11007333730911,19.147036571173036 L-50.38974631643285,19.440538913242392 L-50.663816624590226,19.73927971433702 L-50.93218616081881,20.043152042916958 L-51.19475886469537,20.35204713065888 L-51.45144075071987,20.665854411388715 L-51.70213994195666,20.98446156065777 L-51.94676670292106,21.307754535948312 L-52.18523347169929,21.63561761749397 L-52.41745489129049,21.967933449700602 L-52.64334784015949,22.304583083152664 L-52.86283146198938,22.645446017190057 L-53.07582719462328,22.990400243040227 L-53.282258798184984,23.339322287490106 L-53.482052382368295,23.69208725708222 L-53.67513643288541,24.048568882819158 L-53.861441837064774,24.40863956536038 L-54.04090190858936,24.77217042069529 L-54.21345241136642,25.139031326276037 L-54.379031582520184,25.509090967593725 L-54.537580154499345,25.88221688518122 " />
			<path d="M-1.5000000000003457,48.09411910020939 L-1.806780064577532,48.13679866991016 L-2.112356417724895,48.18738173119539 L-2.4165254786324737,48.24583458466233 L-2.7190846040553094,48.31211828790224 L-3.019832223318249,48.386188681444466 L-3.318567972606186,48.4679964181764 L-3.6150928284502624,48.55748699621943 L-3.909209240321112,48.654600795239155 L-4.200721262240798,48.75927311616557 L-4.489434683325776,48.87143422429685 L-4.775157157173892,48.9910093957579 L-5.057698330009236,49.117918967282876 L-5.336869967499473,49.25207838928837 L-5.612486080161144,49.393398282201915 L-5.884363047269424,49.54178449600841 L-6.152319739189766,49.69713817297466 L-6.416177638049911,49.859355813510255 L-6.675760956671921,50.02832934512101 L-6.9308967556849534,50.20394619440891 L-7.181415058740782,50.386089362070656 L-7.427148965755283,50.57463750084486 L-7.667934764100469,50.76946499635588 L-7.903612037672968,50.97044205080056 L-8.134023773766303,51.177434769421964 L-8.35901646767576,51.39030524971266 L-8.578440224966151,51.608911673287984 L-8.792148861334356,51.833108400368175 L-9.000000000000112,52.062746066806355 L-9.201855166560128,52.297671683597834 L-9.397579881242391,52.53772873880424 L-9.587043748499172,52.78275730182482 L-9.770120543879004,53.03259412994525 L-9.94668829811986,53.28707277709304 L-10.116629378407382,53.54602370472709 L-10.27983056674412,53.809274394787536 L-10.436183135377537,54.07664946463056 L-10.585582919236497,54.347970783871645 L-10.72793038532804,54.62305759305948 L-10.86313069904817,54.901726624101336 L-10.991093787362466,55.18379222235978 L-11.111734398814475,55.46906647033936 L-11.224972160321855,55.757359312880794 L-11.330731630722454,56.04847868377942 L-11.428942351034676,56.342230633743306 L-11.519538891398573,56.638419459606 L-11.602460894666494,56.93684783470773 L-11.677653116614154,57.23731694035821 L-11.7450654627454,57.53962659829343 L-11.804653021666123,57.84357540403824 L-11.856376095005087,58.14896086108589 L-11.90020022386174,58.45557951580504 L-11.936096211763392,58.7632270929845 L-11.964040144116472,59.071698631925244 L-11.98401340413888,59.38078862298918 L-11.996002685262841,59.69029114451357 L-12.0,60.000000000000014 " />
			<path d="M-1.5,48.09411910020943 L-1.5,1.873499399519595 " />
			<path d="M-11.999999999999993,60.0 L-11.996119271627911,60.529020859836095 L-11.984477921789136,61.05792785465498 L-11.965078456136283,61.586607143947454 L-11.937925050157794,62.11494493621504 L-11.903023548279236,62.64282751346213 L-11.860381462605368,63.170141255672405 L-11.810007971303214,63.696772665264014 L-11.751913916626634,64.22260839151856 L-11.68611180258263,64.74753525497837 L-11.612615792240021,65.27144027180694 L-11.53144170468103,65.79421067810723 L-11.442607011596436,66.31573395419277 L-11.34613083352501,66.83589784880594 L-11.242033935738036,67.35459040327876 L-11.130338723769889,67.8716999756305 L-11.01106923859551,68.38711526459723 L-10.884251151455878,68.90072533358796 L-10.74991175833263,69.41241963456238 L-10.608079974072943,69.92208803182487 L-10.458786326165942,70.4296208257299 L-10.302062948172114,70.93490877629336 L-10.137943572806883,71.43784312670516 L-9.966463524680158,71.93831562673775 L-9.787659712693106,72.43621855604557 L-9.60157062209398,72.93144474735053 L-9.408236306194702,73.42388760950833 L-9.207698377749828,73.91344115045094 L-9.000000000000007,74.4 " />
			<path d="M1.5000000000000266,1.8734993995194982 L1.604937272001393,1.7844260570112527 L1.7045955566311897,1.689483349522334 L1.7986470561398027,1.5889835642446466 L1.8867824147119963,1.483257266806257 L1.9687117360053972,1.372652213969225 L2.0441655366825477,1.2575322097820605 L2.1128956328001496,1.1382759089491687 L2.1746759561399727,1.0152755713532629 L2.229303297796342,0.8889357718273878 L2.276597976574373,0.759672069420398 L2.316404430000462,0.6279096405329623 L2.348591726001058,0.49408188042000967 L2.373053993566696,0.3586289776595776 L2.3897107709847543,0.22199646627694503 L2.398507270495501,0.0846337602864274 L2.3994145585009443,-0.053007324528954444 L2.3924296507337193,-0.19047405673774492 L2.3775755220729926,-0.32731427839209093 L2.3549010309750944,-0.46307789227346674 L2.3244807587674385,-0.5973183423602124 L2.286414764334335,-0.7295940826473071 L2.240828255001581,-0.8594700294871074 L2.1878711747023623,-0.9865189926739908 L2.127717710779083,-1.110323080565751 L2.0605657210433512,-1.2304750746199995 L1.9866360829786527,-1.3465797688244228 L1.9061719672263173,-1.4582552696152173 L1.8194380377444528,-1.5651342520079914 L1.7267195812706833,-1.666865167809441 L1.6283215689520902,-1.7631134019357355 L1.5245676532288532,-1.853562373034225 L1.4157991032710562,-1.9379145747882882 L1.302373682470247,-2.0158925544802453 L1.1846644716779124,-2.0872398255936218 L1.0630586420615058,-2.151721711453028 L0.937956181614361,-2.2091261171267265 L0.809768579508282,-2.2592642270529444 L0.6789174726162573,-2.301971126095276 L0.5458332586571821,-2.3371063419843954 L0.4109536805242529,-2.3645543073618693 L0.27472238645349006,-2.3842247399063075 L0.137587470768303,-2.39605293929153 L-9.079199807060949e-14,-2.4 L-0.13758747076848427,-2.3960529392915197 L-0.2747223864536705,-2.3842247399062866 L-0.4109536805244319,-2.3645543073618382 L-0.5458332586573569,-2.3371063419843545 L-0.6789174726164275,-2.301971126095226 L-0.8097685795084469,-2.2592642270528853 L-0.9379561816145204,-2.2091261171266585 L-1.0630586420616588,-2.151721711452952 L-1.1846644716780588,-2.0872398255935383 L-1.3023736824703867,-2.0158925544801547 L-1.4157991032711894,-1.937914574788191 L-1.5245676532289787,-1.8535623730341215 L-1.6283215689522084,-1.7631134019356267 L-1.7267195812707932,-1.666865167809327 L-1.8194380377445545,-1.565134252007873 L-1.906171967226411,-1.458255269615095 L-1.986636082978738,-1.3465797688242969 L-2.060565721043428,-1.2304750746198712 L-2.1277177107791507,-1.1103230805656203 L-2.187871174702422,-0.9865189926738583 L-2.2408282550016323,-0.8594700294869737 L-2.286414764334378,-0.7295940826471726 L-2.324480758767473,-0.5973183423600779 L-2.354901030975121,-0.46307789227333246 L-2.3775755220730113,-0.3273142783919575 L-2.39242965073373,-0.1904740567376128 L-2.399414558500947,-0.05300732452882405 L-2.3985072704954966,0.0846337602865556 L-2.3897107709847427,0.22199646627707062 L-2.3730539935666775,0.35862897765970025 L-2.3485917260010325,0.49408188042012896 L-2.3164044300004307,0.627909640533078 L-2.276597976574336,0.7596720694205097 L-2.229303297796299,0.8889357718274951 L-2.1746759561399247,1.0152755713533654 L-2.1128956328000963,1.1382759089492664 L-2.0441655366824905,1.257532209782153 L-1.9687117360053359,1.372652213969313 L-1.8867824147119312,1.4832572668063395 L-1.7986470561397345,1.5889835642447239 L-1.7045955566311184,1.6894833495224058 L-1.6049372720013195,1.7844260570113188 L-1.4999999999999512,1.8734993995195586 " />
			<path d="M-9.000000000000014,74.4 L-8.647593790206074,75.21879725169251 L-8.30233988085493,76.04063593060597 L-7.9642645176008955,76.86545356186828 L-7.633393400396585,77.69318744415199 L-7.309751681539254,78.52377465444094 L-6.993363963758782,79.35715205281348 L-6.684254298347398,80.19325628724226 L-6.382446183331325,81.03202379841025 L-6.087962561684506,81.8733908245423 L-5.80082581958456,82.71729340625227 L-5.521057784710948,83.56366739140509 L-5.248679724585713,84.41244843999353 L-4.983712344956743,85.26357202902926 L-4.726175788223756,86.1169734574477 L-4.476089631907087,86.97258785102652 L-4.2334728871595075,87.83035016731733 L-3.9983439973209016,88.69019520059005 L-3.770720836516361,89.55205758678977 L-3.550620708297359,90.41587180850557 L-3.3380603443263652,91.28157219995114 L-3.1330559031048892,92.14909295195652 L-2.935622968745278,93.01836811697083 L-2.7457765497858446,93.88933161407549 L-2.5635310780501186,94.76191723400761 L-2.3889004075496416,95.63605864419308 L-2.221897813430857,96.51168939378911 L-2.0625359909659693,97.38874291873566 L-1.9108270545878128,98.2671525468156 L-1.7667825369689751,99.14685150272292 L-1.630413388145115,100.02777291313906 L-1.5017299746824904,100.90984981181633 L-1.3807420788899947,101.79301514466869 L-1.2674588980754606,102.67720177486903 L-1.161889043846557,103.56234248795289 L-1.0640405414560519,104.44836999692788 L-0.9739208291917834,105.33521694738884 L-0.8915367578113234,106.22281592263796 L-0.8168945900210218,107.11109944880968 L-0.7499999999999858,107.99999999999997 " />
			<path d="M1.5,1.8734993995194875 L1.5,48.09411910020943 " />
			<path d="M-0.75,108.0 L-0.6971645606550112,108.7989197194585 L-0.6518683053409688,109.59830232562712 L-0.6141152653424626,110.39807667490402 L-0.5839088006115674,111.19817158882292 L-0.5612515994687897,111.99851586038784 L-0.5461456783640415,112.79903826041047 L-0.5385923816967875,113.59966754384936 L-0.5385923816967875,114.40033245615064 L-0.5461456783640273,115.20096173958953 L-0.5612515994688181,116.00148413961216 L-0.5839088006115531,116.8018284111771 L-0.6141152653424768,117.60192332509598 L-0.6518683053409688,118.40169767437288 L-0.6971645606550112,119.20108028054152 L-0.75,120.0 " />
			<path d="M1.5000000000003457,48.09411910020939 L1.806780064577532,48.13679866991016 L2.112356417724895,48.18738173119539 L2.4165254786324737,48.24583458466233 L2.7190846040553094,48.31211828790224 L3.019832223318249,48.386188681444466 L3.318567972606186,48.4679964181764 L3.6150928284502624,48.55748699621943 L3.909209240321112,48.654600795239155 L4.200721262240798,48.75927311616557 L4.489434683325776,48.87143422429685 L4.775157157173892,48.9910093957579 L5.057698330009236,49.117918967282876 L5.336869967499473,49.25207838928837 L5.612486080161144,49.393398282201915 L5.884363047269424,49.54178449600841 L6.152319739189766,49.69713817297466 L6.416177638049911,49.859355813510255 L6.675760956671921,50.02832934512101 L6.9308967556849534,50.20394619440891 L7.181415058740782,50.386089362070656 L7.427148965755283,50.57463750084486 L7.667934764100469,50.76946499635588 L7.903612037672968,50.97044205080056 L8.134023773766303,51.177434769421964 L8.35901646767576,51.39030524971266 L8.578440224966151,51.608911673287984 L8.792148861334356,51.833108400368175 L9.000000000000112,52.062746066806355 L9.201855166560128,52.297671683597834 L9.397579881242391,52.53772873880424 L9.587043748499172,52.78275730182482 L9.770120543879004,53.03259412994525 L9.94668829811986,53.28707277709304 L10.116629378407382,53.54602370472709 L10.27983056674412,53.809274394787536 L10.436183135377537,54.07664946463056 L10.585582919236497,54.347970783871645 L10.72793038532804,54.62305759305948 L10.86313069904817,54.901726624101336 L10.991093787362466,55.18379222235978 L11.111734398814475,55.46906647033936 L11.224972160321855,55.757359312880794 L11.330731630722454,56.04847868377942 L11.428942351034676,56.342230633743306 L11.519538891398573,56.638419459606 L11.602460894666494,56.93684783470773 L11.677653116614154,57.23731694035821 L11.7450654627454,57.53962659829343 L11.804653021666123,57.84357540403824 L11.856376095005087,58.14896086108589 L11.90020022386174,58.45557951580504 L11.936096211763392,58.7632270929845 L11.964040144116472,59.071698631925244 L11.98401340413888,59.38078862298918 L11.996002685262841,59.69029114451357 L12.0,60.000000000000014 " />
			<path d="M-0.7499999999999986,120.0 L-0.7514414516245225,120.07067563647607 L-0.7457689074049766,120.14113800668997 L-0.733039868309872,120.21067285362156 L-0.7133833649906872,120.27857532229058 L-0.6869986498348261,120.34415710467127 L-0.6541531772007989,120.40675341687519 L-0.6151798923094046,120.46572973787657 L-0.5704738562726575,120.52048824147158 L-0.5204882414715782,120.57047385627266 L-0.46572973787656746,120.6151798923094 L-0.4067534168751864,120.6541531772008 L-0.3441571046712626,120.68699864983483 L-0.2785753222905754,120.71338336499069 L-0.21067285362156002,120.73303986830987 L-0.14113800668997437,120.74576890740498 L-0.07067563647607196,120.75144145162453 L2.42861286636753e-16,120.75 " />
			<path d="M11.999999999999993,60.0 L11.996119271627911,60.529020859836095 L11.984477921789136,61.05792785465498 L11.965078456136283,61.586607143947454 L11.937925050157794,62.11494493621504 L11.903023548279236,62.64282751346213 L11.860381462605368,63.170141255672405 L11.810007971303214,63.696772665264014 L11.751913916626634,64.22260839151856 L11.68611180258263,64.74753525497837 L11.612615792240021,65.27144027180694 L11.53144170468103,65.79421067810723 L11.442607011596436,66.31573395419277 L11.34613083352501,66.83589784880594 L11.242033935738036,67.35459040327876 L11.130338723769889,67.8716999756305 L11.01106923859551,68.38711526459723 L10.884251151455878,68.90072533358796 L10.74991175833263,69.41241963456238 L10.608079974072943,69.92208803182487 L10.458786326165942,70.4296208257299 L10.302062948172114,70.93490877629336 L10.137943572806883,71.43784312670516 L9.966463524680158,71.93831562673775 L9.787659712693106,72.43621855604557 L9.60157062209398,72.93144474735053 L9.408236306194702,73.42388760950833 L9.207698377749828,73.91344115045094 L9.000000000000007,74.4 " />
			<path d="M0.7499999999999986,120.0 L0.7514414516245225,120.07067563647607 L0.7457689074049766,120.14113800668997 L0.733039868309872,120.21067285362156 L0.7133833649906872,120.27857532229058 L0.6869986498348261,120.34415710467127 L0.6541531772007989,120.40675341687519 L0.6151798923094046,120.46572973787657 L0.5704738562726575,120.52048824147158 L0.5204882414715782,120.57047385627266 L0.46572973787656746,120.6151798923094 L0.4067534168751864,120.6541531772008 L0.3441571046712626,120.68699864983483 L0.2785753222905754,120.71338336499069 L0.21067285362156002,120.73303986830987 L0.14113800668997437,120.74576890740498 L0.07067563647607196,120.75144145162453 L-2.42861286636753e-16,120.75 " />
			<path d="M9.000000000000014,74.4 L8.647593790206074,75.21879725169251 L8.30233988085493,76.04063593060597 L7.9642645176008955,76.86545356186828 L7.633393400396585,77.69318744415199 L7.309751681539254,78.52377465444094 L6.993363963758782,79.35715205281348 L6.684254298347398,80.19325628724226 L6.382446183331325,81.03202379841025 L6.087962561684506,81.8733908245423 L5.80082581958456,82.71729340625227 L5.521057784710948,83.56366739140509 L5.248679724585713,84.41244843999353 L4.983712344956743,85.26357202902926 L4.726175788223756,86.1169734574477 L4.476089631907087,86.97258785102652 L4.2334728871595075,87.83035016731733 L3.9983439973209016,88.69019520059005 L3.770720836516361,89.55205758678977 L3.550620708297359,90.41587180850557 L3.3380603443263652,91.28157219995114 L3.1330559031048892,92.14909295195652 L2.935622968745278,93.01836811697083 L2.7457765497858446,93.88933161407549 L2.5635310780501186,94.76191723400761 L2.3889004075496416,95.63605864419308 L2.221897813430857,96.51168939378911 L2.0625359909659693,97.38874291873566 L1.9108270545878128,98.2671525468156 L1.7667825369689751,99.14685150272292 L1.630413388145115,100.02777291313906 L1.5017299746824904,100.90984981181633 L1.3807420788899947,101.79301514466869 L1.2674588980754606,102.67720177486903 L1.161889043846557,103.56234248795289 L1.0640405414560519,104.44836999692788 L0.9739208291917834,105.33521694738884 L0.8915367578113234,106.22281592263796 L0.8168945900210218,107.11109944880968 L0.7499999999999858,107.99999999999997 " />
			<path d="M0.75,108.0 L0.6971645606550112,108.7989197194585 L0.6518683053409688,109.59830232562712 L0.6141152653424626,110.39807667490402 L0.5839088006115674,111.19817158882292 L0.5612515994687897,111.99851586038784 L0.5461456783640415,112.79903826041047 L0.5385923816967875,113.59966754384936 L0.5385923816967875,114.40033245615064 L0.5461456783640273,115.20096173958953 L0.5612515994688181,116.00148413961216 L0.5839088006115531,116.8018284111771 L0.6141152653424768,117.60192332509598 L0.6518683053409688,118.40169767437288 L0.6971645606550112,119.20108028054152 L0.75,120.0 " />
			<path d="M1.5,0.0 L1.4960898472769246,0.10823663370092412 L1.484379774833456,0.21590897171117868 L1.46493083356513,0.32245566031653605 L1.437844421246162,0.4273212144175499 L1.4032617538884016,0.5299589135716536 L1.3613631295064355,0.6298336523403969 L1.3123669881272244,0.7264247300814293 L1.256528772944947,0.8192285656405454 L1.1941395985584657,0.9077613227906477 L1.1255247332346037,0.9915614327298002 L1.051041903110014,1.0701920004872396 L0.9710794271727416,1.1432430826914546 L0.8860541927468271,1.2103338248251052 L0.7964094820348305,1.2711144468241296 L0.7026126610496856,1.3252680666690342 L0.6051527429847132,1.372512352461018 L0.5045378387252633,1.412600994369762 L0.4012925077938318,1.4453249887788344 L0.29595502353960074,1.47051372793377 L0.18907456683043478,1.4880358894119066 L0.08120836287812708,1.4978001207766858 L-0.027081223875839805,1.499755515846962 L-0.13522962166809693,1.4938918800982564 L-0.24267299482914612,1.4802397838122894 L-0.3488511833614646,1.458870402697685 L-0.453210623354358,1.4298951468127845 L-0.5552072330098704,1.3934650797251877 L-0.65430924923335,1.3497701309362604 L-0.7499999999999991,1.2990381056766584 L-0.8417805980435729,1.2415334972353362 L-0.929172541823584,1.177556108014009 L-1.0117202102107707,1.1074394864962482 L-1.0889932378846963,1.0315491882801349 L-1.1605887590592547,0.9502808702406356 L-1.226133507838338,0.864058227757859 L-1.2852857642513842,0.7733307857655319 L-1.3377371358230739,0.6785715551361393 L-1.3832141653889003,0.5802745666212575 L-1.4214797567742041,0.4789522952039684 L-1.4523344109038454,0.3751329882915927 L-1.4756172658980045,0.26935791167830536 L-1.4912069357315398,0.16217852763591023 L-1.4990221430845156,0.054153619844901954 L-1.4990221430845154,-0.054153619844907575 L-1.491206935731539,-0.16217852763591584 L-1.4756172658980036,-0.2693579116783109 L-1.4523344109038439,-0.3751329882915982 L-1.4214797567742024,-0.47895229520397375 L-1.383214165388898,-0.5802745666212628 L-1.3377371358230714,-0.6785715551361444 L-1.2852857642513813,-0.7733307857655367 L-1.2261335078383349,-0.8640582277578637 L-1.160588759059251,-0.9502808702406398 L-1.0889932378846925,-1.031549188280139 L-1.0117202102107665,-1.107439486496252 L-0.9291725418235801,-1.177556108014012 L-0.8417805980435694,-1.2415334972353387 L-0.749999999999996,-1.2990381056766602 L-0.6543092492333473,-1.3497701309362617 L-0.555207233009868,-1.3934650797251886 L-0.45321062335435575,-1.4298951468127852 L-0.3488511833614627,-1.4588704026976855 L-0.24267299482914448,-1.4802397838122898 L-0.13522962166809563,-1.4938918800982566 L-0.02708122387583884,-1.499755515846962 L0.0812083628781277,-1.4978001207766858 L0.18907456683043505,-1.4880358894119063 L0.2959550235396007,-1.47051372793377 L0.40129250779383147,-1.4453249887788344 L0.5045378387252626,-1.4126009943697622 L0.6051527429847121,-1.3725123524610185 L0.7026126610496843,-1.3252680666690348 L0.7964094820348291,-1.2711144468241304 L0.8860541927468253,-1.2103338248251065 L0.9710794271727399,-1.1432430826914561 L1.0510419031100118,-1.0701920004872416 L1.1255247332346014,-0.9915614327298026 L1.1941395985584635,-0.9077613227906505 L1.2565287729449452,-0.8192285656405487 L1.3123669881272224,-0.7264247300814329 L1.3613631295064337,-0.6298336523404011 L1.4032617538883998,-0.5299589135716583 L1.4378444212461605,-0.42732121441755505 L1.4649308335651288,-0.32245566031654177 L1.484379774833455,-0.21590897171118484 L1.4960898472769242,-0.10823663370093072 L1.5,-7.028732187495145e-15 " />
			<path d="M3.0,0.0 L2.996270763656767,0.1495376569820915 L2.985092326096204,0.29870353978745 L2.9664924786753857,0.44712679852852344 L2.9405174635456315,0.5944384295981928 L2.9072318586872337,0.740272193070881 L2.866718417358422,0.8842655232327128 L2.819077862357725,1.0260604299770064 L2.764428635611223,1.1653043888240846 L2.702906603707257,1.3016512173526746 L2.634664720110685,1.4347619358639552 L2.559872644896467,1.5643056101384947 L2.4787163229479843,1.6899601741908665 L2.3913975216687673,1.8114132309764326 L2.298133329356934,1.9283628290596182 L2.199155615489479,2.040518213312758 L2.0947104542582182,2.147600547779155 L1.9850575127905783,2.2493436089032026 L1.8704694055762008,2.3454944474040893 L1.7512310167043699,2.4358140171475693 L1.6276387915972783,2.520077769452314 L1.5000000000000004,2.598076211353316 " />
			<path d="M-1.4999999999999993,2.598076211353316 L-1.6307026500036632,2.5180962783958503 L-1.7571509829845844,2.431546919760404 L-1.8790151096796919,2.3386539328415856 L-1.9959771004966964,2.2396596648358873 L-2.1077318149560966,2.1348223804855238 L-2.2139876977678488,2.0244155882952053 L-2.31446753946583,1.908727326979678 L-2.4089091996156835,1.788059414003608 L-2.497066290709283,1.6627266581742721 L-2.578708820961605,1.5330560383413285 L-2.65362379433304,1.3993858503463303 L-2.7216157662117375,1.2620648244474995 L-2.7825073533062854,1.1214512155223029 L-2.8361396964184613,0.9779118684213814 L-2.8823728748887447,0.8318212609122194 L-2.9210862716333383,0.683560526709408 L-2.9521788878203723,0.5335164611403 L-2.9755696063643216,0.3820805120401648 L-2.991197403551222,0.22964775850948116 L-2.9990215082425693,0.07661588019767371 L-2.999021508242569,-0.07661588019768628 L-2.991197403551221,-0.22964775850949373 L-2.9755696063643207,-0.38208051204017723 L-2.95217888782037,-0.5335164611403125 L-2.9210862716333352,-0.6835605267094204 L-2.8823728748887407,-0.8318212609122315 L-2.8361396964184573,-0.9779118684213932 L-2.7825073533062805,-1.1214512155223146 L-2.721615766211732,-1.2620648244475108 L-2.6536237943330336,-1.3993858503463414 L-2.578708820961598,-1.5330560383413396 L-2.497066290709276,-1.6627266581742823 L-2.4089091996156764,-1.788059414003618 L-2.314467539465822,-1.908727326979688 L-2.21398769776784,-2.0244155882952146 L-2.1077318149560877,-2.1348223804855326 L-1.995977100496687,-2.239659664835896 L-1.8790151096796834,-2.3386539328415927 L-1.7571509829845753,-2.4315469197604105 L-1.6307026500036539,-2.5180962783958565 L-1.4999999999999898,-2.598076211353322 L-1.3653840212640156,-2.6712780601197075 L-1.2272059115140082,-2.7375108494296554 L-1.0858261616613418,-2.796601785498214 L-0.9416136153308596,-2.8483967068200924 L-0.7949445065899718,-2.8927604863594265 L-0.6462014783969303,-2.929577384080786 L-0.4957725843290407,-2.9587513489017123 L-0.3440502761951867,-2.9802062692790265 L-0.1914303801738702,-2.993886171775154 L-0.03831106414790603,-2.999755367086432 L0.11490820107012173,-2.997798543152429 L0.26782768391159895,-2.9880208051033628 L0.42004843490590327,-2.970447661941395 L0.5711733274940215,-2.9451249599905616 L0.7208080940863987,-2.912118763288945 L0.8685623546620624,-2.8715151812351425 L1.014050635225525,-2.8234201439386784 L1.156893373464424,-2.7679591258604423 L1.2967179089842578,-2.7052768184641467 L1.4331594555368052,-2.6355367527328184 L1.5658620527057967,-2.558920872535137 L1.6944794945669963,-2.4756290599546564 L1.81867623289993,-2.3858786138202674 L1.9381282525948786,-2.2899036827983665 L2.0525239169713063,-2.1879546545257207 L2.1615647808023755,-2.0802975023767103 L2.264966368924469,-1.9672130915691635 L2.36245891840041,-1.848996446419074 L2.4537880823001657,-1.725955980655844 L2.538715593262944,-1.5984126928060785 L2.617019885109536,-1.4666993287450811 L2.6884966708831772,-1.3311595136008585 L2.752959475810893,-1.1921468552753947 L2.810240123794892,-1.0500240219220087 L2.860189176164799,-0.9051617957855542 L2.902676321546087,-0.757938105873875 L2.9375907158275734,-0.6087370419841763 L2.964841271341049,-0.45794785265659893 L2.9843568944986067,-0.3059639296692209 L2.9960866712676912,-0.1531817817238263 L3.0,2.5910564511515346e-14 " />

       </g>
    </g>
    
</svg>
