<?xml version="1.0" encoding="UTF-8" standalone="no"?>
<svg
   xmlns:svg="http://www.w3.org/2000/svg"
   xmlns="http://www.w3.org/2000/svg"
   width="606.2777529108956"
   height="620.0"

>
    <g transform="scale(3.013326464202067, -3.013326464202067)   translate(87.95718788753133,-126.31859163578812)" stroke-width="0.5"  fill="none">
       <!-- hidden lines -->
       <g  stroke="rgb(160,160,160)" fill="none" stroke-dasharray="0.5,0.5" >

       </g>

       <!-- solid lines -->
       <g  stroke="rgb(0,0,0)" fill="none">
			<path d="M14.336666176614724,1.3490748460746262 L14.364371243953192,1.0123432055832895 L14.384168441703215,0.6750542501971646 L14.396046871117104,0.33739366413643523 L14.39999999288526,-0.00045266378870678636 L14.396025630736206,-0.33829874251350756 L14.384125972634667,-0.6759585811104047 L14.36430756957705,-1.0132462911806996 L14.336581331984993,-1.3499761891897792 L14.300962523698963,-1.6859628986895743 L14.257470753575205,-2.021021452371939 L14.206129964690694,-2.3549673938968088 L14.14696842116198,-2.68761687943905 L14.080018692585247,-3.0187867788980993 L14.005317636106112,-3.34829477671472 L13.922906376129024,-3.675959472239284 L13.832830281677484,-4.001600479596426 L13.7351389414175,-4.325038526991014 L13.629886136358028,-4.6460955554008105 L13.517129810243507,-4.96459481660148 L13.396932037654647,-5.2803609704699594 L13.269358989835169,-5.593220181512667 L13.134480898263217,-5.903000214565354 L12.992372015987566,-6.209530529611977 L12.843110576749826,-6.512642375670318 L12.686778751915252,-6.812168883692744 L12.52346260523577,-7.107945158430902 L12.353252045470187,-7.399808369213801 L12.176240776887656,-7.687597839589314 L11.992526247681612,-7.97115513577973 L11.80220959632264,-8.250324153902666 L11.605395595879738,-8.52495120590934 L11.40219259634068,-8.794885104192876 L11.192712464963215,-9.059977244820047 L10.977070524689928,-9.320081689340684 L10.755385490660704,-9.575055245129668 L10.527779404857679,-9.824757544217286 L10.294377568918739,-10.069051120564573 L10.055308475156492,-10.30780148574108 L9.81070373582072,-10.54087720296339 L9.560698010643236,-10.768149959453686 L9.30542893270505,-10.989494637078435 L9.045037032666642,-11.204789381228412 L8.779665661403063,-11.41391566790205 L8.509460911086453,-11.616758368955242 L8.234571534759421,-11.813205815481666 L7.955148864443558,-12.003149859288701 L7.671346727828178,-12.186485932435152 L7.383321363585142,-12.363113104797966 L7.091231335356389,-12.532934139636243 L6.795237444461524,-12.695855547121981 L6.495502641373518,-12.851787635808085 L6.19219193601127,-13.000644562005261 L5.885472306898378,-13.14234437704066 L5.5755126092381815,-13.276809072372247 L5.262483481955641,-13.403964622534037 L4.9465572537572395,-13.523741025888569 L4.627907848260637,-13.6360723431642 L4.306710688246289,-13.740896733755958 L3.9831425990837457,-13.838156489770029 L3.6573817113858,-13.92779806779308 L3.329607362944074,-14.009772118368968 L3.0000000000000298,-14.084033513166595 " />
			<path d="M-3.0000000000000036,-14.084033513166599 L-3.329614955994959,-14.009770313777976 L-3.6573968086294206,-13.927794103311095 L-3.983165099194646,-13.838150013370923 L-4.306740477538719,-13.740887397076273 L-4.627944800806907,-13.636059801888678 L-4.946601231517351,-13.523724940132102 L-5.262534334918078,-13.403944657219693 L-5.575570175571747,-13.276784897605097 L-5.885536413114972,-13.142315668477064 L-6.192262397139462,-13.000611001217312 L-6.495579261142792,-12.851748910642925 L-6.795320015497011,-12.695811352055673 L-7.091319639383997,-12.532884176121904 L-7.383415171646851,-12.363057081607895 L-7.671445800507378,-12.186423565996616 L-7.955252952100232,-12.00308087401316 L-8.234680377774986,-11.813129944087112 L-8.509574240118068,-11.616675352781403 L-8.779783197647205,-11.413825257218186 L-9.04515848813174,-11.204691335533447 L-9.305554010492958,-10.989388725393162 L-9.560826405239325,-10.768035960604815 L-9.810835133392356,-10.54075490585917 L-10.055442553859683,-10.307670689638268 L-10.294513999212667,-10.068911635326552 L-10.527917849826919,-9.824609190563038 L-10.755525606344838,-9.574897854873466 L-10.977211960420302,-9.319915105622233 L-11.192854863706582,-9.059801322324894 L-11.402335595049458,-8.794699709362913 L-11.605538825848578,-8.524756217143173 L-11.802352683551062,-8.25011946174569 L-11.992668813242389,-7.970940643103758 L-12.176382437300669,-7.6873734617615535 L-12.353392413081455,-7.399574034255043 L-12.523601288601348,-7.107700807162794 L-12.686915356189688,-6.811914469873963 L-12.843244704078876,-6.512377866121548 L-12.992503265904864,-6.209255904329552 L-13.13460886809056,-5.902715466823453 L-13.269483275086099,-5.592925317953945 L-13.397052232441055,-5.280056011184554 L-13.517245507684848,-4.964279795194242 L-13.629996928992906,-4.645770519046745 L-13.735244421617246,-4.324703536478808 L-13.8329300420614,-4.001255609360035 L-13.923000009980957,-3.675604810377506 L-14.005404737792047,-3.347930424998712 L-14.08009885797156,-3.0184128527668217 L-14.147041248034006,-2.687233507982584 L-14.206195053171307,-2.3545747198275606 L-14.257527706543026,-2.0206196319836875 L-14.30101094720589,-1.6855521018044035 L-14.33662083567271,-1.3495565990928782 L-14.364337767092145,-1.0128181045430589 L-14.384146482042079,-0.675522007899442 L-14.396036074930588,-0.3378540058916517 L-14.399999999999999,-5.329070518200751e-15 L-14.396036074930588,0.33785400589164016 L-14.384146482042079,0.6755220078994313 L-14.364337767092145,1.012818104543049 L-14.336620835672708,1.3495565990928675 L-14.301010947205892,1.6855521018043893 L-14.25752770654303,2.0206196319836716 L-14.20619505317131,2.354574719827541 L-14.14704124803401,2.6872335079825627 L-14.080098857971565,3.0184128527667964 L-14.005404737792054,3.347930424998683 L-13.923000009980965,3.6756048103774743 L-13.83293004206141,4.001255609360001 L-13.735244421617256,4.324703536478769 L-13.62999692899292,4.645770519046704 L-13.517245507684862,4.964279795194199 L-13.397052232441071,5.280056011184509 L-13.26948327508612,5.592925317953898 L-13.13460886809058,5.902715466823403 L-12.992503265904888,6.209255904329502 L-12.843244704078906,6.512377866121492 L-12.686915356189719,6.811914469873905 L-12.523601288601382,7.107700807162734 L-12.353392413081494,7.399574034254983 L-12.176382437300708,7.68737346176149 L-11.992668813242432,7.970940643103694 L-11.80235268355111,8.250119461745625 L-11.605538825848628,8.524756217143103 L-11.40233559504951,8.794699709362844 L-11.19285486370664,9.059801322324825 L-10.977211960420362,9.31991510562216 L-10.755525606344902,9.574897854873395 L-10.527917849826988,9.824609190562967 L-10.294513999212738,10.06891163532648 L-10.055442553859756,10.307670689638194 L-9.810835133392438,10.540754905859094 L-9.560826405239409,10.76803596060474 L-9.305554010493047,10.98938872539309 L-9.045158488131833,11.20469133553337 L-8.779783197647303,11.413825257218111 L-8.50957424011817,11.616675352781332 L-8.234680377775092,11.81312994408704 L-7.9552529521003414,12.003080874013087 L-7.671445800507492,12.186423565996543 L-7.383415171646969,12.363057081607822 L-7.09131963938412,12.532884176121835 L-6.795320015497139,12.695811352055603 L-6.495579261142923,12.85174891064286 L-6.192262397139599,13.000611001217248 L-5.885536413115112,13.142315668477002 L-5.575570175571891,13.276784897605037 L-5.262534334918228,13.403944657219633 L-4.946601231517507,13.523724940132045 L-4.627944800807066,13.636059801888624 L-4.30674047753888,13.740887397076223 L-3.983165099194812,13.838150013370877 L-3.657396808629591,13.927794103311049 L-3.329614955995135,14.009770313777937 L-3.000000000000184,14.084033513166561 " />
			<path d="M3.000000000000001,14.0840335131666 L3.3180910014003135,14.012504134037792 L3.634481059724358,13.93379156678127 L3.9490079848818516,13.84793616158521 L4.2615105418748875,13.75498193024946 L4.571828533451368,13.654976523623901 L4.879802882226445,13.547971207181334 L5.185275712229864,13.434020834737417 L5.488090429837474,13.313183820331119 L5.788091804045339,13.185522108280093 L6.085126046045337,13.051101141426367 L6.379040888061476,12.90998982758855 L6.669685661406445,12.762260504237847 L6.956911373718475,12.6079889014159 L7.240570785338833,12.447254102913533 L7.520518484790861,12.280138505730257 L7.796610963321814,12.10672777783535 L8.068706688469328,11.927110814252137 L8.336666176614791,11.741379691488 " />
			<path d="M14.336666176614603,1.3490748460747364 L106.92304845413263,54.80384757729338 " />
			<path d="M100.92304845413263,65.19615242270665 L8.33666617661477,11.741379691488099 " />
			<path d="M106.92304845413263,54.80384757729338 L107.10868638227194,54.9155422127035 L107.29017084630692,55.03386601105867 L107.46726522511993,55.15866470069959 L107.63973862142697,55.289775567943984 L107.8073661628236,55.42702766923419 L107.96992929497571,55.570242054015026 L108.12721606657269,55.71923199805106 L108.27902140567141,55.873803246879476 L108.42514738707104,56.033754269080816 L108.56540349036965,56.19887651903747 L108.69960684836649,56.36895470883742 L108.82758248548598,56.54376708896858 L108.94916354591241,56.723085737437835 L109.06419151113816,56.906676856937885 L109.17251640664152,57.094301079674295 L109.27399699742492,57.28571377945545 L109.36850097215837,57.48066539063843 L109.45590511568822,57.67890173351498 L109.53609546968623,57.880164345713396 L109.60896748122944,58.08419081918413 L109.67442613911727,58.290715142329816 L109.732386097748,58.499468046833634 L109.78277178839315,58.71017735873387 L109.82551751772465,58.922568353286785 L109.86056755346645,59.136364113155295 L109.88787619705879,59.35128588945636 L109.90740784324032,59.56705346519632 L109.9191370264707,59.78338552062039 L109.92304845413263,60.000000000000014 L109.9191370264707,60.21661447937963 L109.90740784324032,60.43294653480371 L109.88787619705879,60.648714110543665 L109.86056755346645,60.863635886844726 L109.82551751772465,61.077431646713244 L109.78277178839315,61.28982264126616 L109.732386097748,61.500531953166394 L109.67442613911727,61.70928485767022 L109.60896748122944,61.9158091808159 L109.53609546968623,62.11983565428663 L109.45590511568822,62.32109826648505 L109.36850097215837,62.51933460936161 L109.27399699742492,62.71428622054458 L109.17251640664152,62.90569892032573 L109.06419151113816,63.09332314306215 L108.94916354591241,63.2769142625622 L108.82758248548598,63.45623291103146 L108.69960684836649,63.631045291162614 L108.56540349036963,63.801123480962566 L108.42514738707104,63.966245730919226 L108.2790214056714,64.12619675312057 L108.12721606657267,64.28076800194899 L107.9699292949757,64.42975794598502 L107.80736616282358,64.57297233076584 L107.63973862142696,64.71022443205605 L107.46726522511992,64.84133529930044 L107.2901708463069,64.96613398894137 L107.10868638227194,65.08445778729654 L106.92304845413261,65.19615242270665 L106.73349909833136,65.30107226667616 L106.54028545106603,65.39908052374506 L106.34365942607147,65.49004940984409 L106.14387738617211,65.57386031890077 L105.94119980903368,65.65040397747907 L105.73589094755006,65.71958058725116 L105.52821848530795,65.78129995511536 L105.31845318757848,65.83548161079075 L105.10686854829102,65.8820549117351 L104.89374043344921,65.92095913524918 L104.67934672145437,65.95214355764764 L104.46396694080502,65.97556752039304 L104.24788190564513,65.99120048310675 L104.03137334963598,65.99902206338786 L103.81472355862927,65.99902206338786 L103.59821500262012,65.99120048310675 L103.38212996746024,65.97556752039304 L103.1667501868109,65.95214355764764 L102.95235647481604,65.92095913524918 L102.73922835997423,65.8820549117351 L102.52764372068677,65.83548161079075 L102.3178784229573,65.78129995511536 L102.1102059607152,65.71958058725116 L101.90489709923159,65.65040397747907 L101.70221952209315,65.57386031890077 L101.50243748219378,65.49004940984409 L101.30581145719923,65.39908052374506 L101.1125978099339,65.30107226667616 L100.92304845413264,65.19615242270666 " />
			<path d="M-7.2816139770103465,12.423288529604566 L-75.19713763363694,59.97825015543439 " />
			<path d="M-75.19713763363693,59.978250155434374 L-75.37682132998272,60.0992910626136 L-75.56075775854717,60.21376604761125 L-75.74870710131871,60.32152585688634 L-75.94042430821122,60.42242999220592 L-76.1356594165626,60.516346893827965 L-76.33415787703838,60.60315411203016 L-76.53566088551551,60.682738466761 L-76.73990572051355,60.75499619520497 L-76.94662608573336,60.81983308706944 L-77.15555245725668,60.87716460741699 L-77.36641243495386,60.926916006882735 L-77.57893109764173,60.96902241913332 L-77.79283136152831,61.003428945440206 L-78.00783434147726,61.03009072625714 L-78.22365971462085,61.048972999708454 L-78.4400260858475,61.06005114691192 L-78.65665135468741,61.06331072407706 L-78.87325308311763,61.05874748133712 L-79.08954886380741,61.04636736829005 L-79.3052566883235,61.026186526241396 L-79.52009531481534,60.998231267159106 L-79.73378463470075,60.962538039367736 L-79.94604603787411,60.919153380026785 L-80.15660277596079,60.86813385445515 L-80.3651803231442,60.809545982380705 L-80.5715067340951,60.743466151211265 L-80.7753129985364,60.66998051644002 L-80.97633339198136,60.589184889315156 L-81.1743058221874,60.50118461192032 L-81.36897217087463,60.4060944198286 L-81.56007863026267,60.30403829250922 L-81.74737603398762,60.19514929168202 L-81.93062018196754,60.079569387830304 L-82.10957215879264,59.957449275098426 L-82.2839986452255,59.828948174815395 L-82.45367222240476,59.69423362790063 L-82.618371668356,59.553481276422545 L-82.77788224642298,59.406874634594836 L-82.93199598524319,59.254604849508915 L-83.08051194990294,59.096870451914604 L-83.22323650391812,58.9338770973739 L-83.35998356169914,58.76583729812537 L-83.49057483117122,58.59297014600869 L-83.61484004623306,58.415501026810745 L-83.73261718875145,58.23366132640553 L-83.84375269980201,58.047688129071105 L-83.9481016798807,57.85782390837696 L-84.0455280778251,57.664316211044685 L-84.13590486819925,57.46741733419435 L-84.21911421691053,57.267383996397115 L-84.29504763484285,57.06447700296324 L-84.36360611930573,56.8589609059017 L-84.424700283115,56.65110365899483 L-84.47825047113656,56.44117626843772 L-84.52418686414148,56.22945243949786 L-84.56244956983701,56.01620821965565 L-84.59298870095466,55.80172163869116 L-84.61576444029369,55.58627234618636 L-84.63074709263512,55.3701412469154 L-84.63791712345869,55.15361013459838 L-84.63726518441212,54.936961324496096 L-84.62879212549953,54.72047728532479 L-84.61250899397325,54.504440270970875 L-84.58843701993032,54.28913195248565 L-84.55660758863246,54.07483305084005 L-84.51706219958567,53.861822970918006 L-84.46985241243283,53.650379437225816 L-84.41503977972972,53.44077813179235 L-84.35269576669229,53.23329233473229 L-84.2829016580196,53.028192567941005 L-84.20574845191403,52.825746242385584 L-84.12133674143716,52.626217309451974 L-84.02977658335541,52.42986591680272 L-83.93118735464715,52.236948069194035 L-83.82569759685781,52.04771529469447 L-83.71344484850627,51.86241431674027 L-83.5945754657609,51.68128673245507 L-83.46924443161896,51.50456869765338 L-83.3376151538384,51.332490618938444 L-83.1998592518853,51.165276853295936 L-83.05615633317483,51.00314541557535 L-82.90669375889742,50.84630769424011 L-82.75166639973557,50.69496817575746 L-82.5912763817896,50.54932417798704 L-82.42573282304382,50.409565592916074 L-82.25525156071653,50.27587463907644 L-82.0800548698495,50.148425623966475 " />
			<path d="M-82.08005486984949,50.14842562396647 L-14.164531213223057,2.5934639981367624 " />
			<path d="M3.0,5.196152422706575 L3.0,119.99999999999997 " />
			<path d="M3.0,120.0 L2.9960222696544916,120.15443626431104 L2.984099626843767,120.30846299141209 L2.9642636882732316,120.46167173011219 L2.9365670552860736,120.6136561983786 L2.9010831743739613,120.76401336072368 L2.857906142410148,120.91234449698256 L2.807150457121481,121.05825625964728 L2.7489507134610145,121.2013617169538 L2.683461246686387,121.34128137895534 L2.610855723090466,121.47764420386159 L2.531326679469557,121.61008858197481 L2.4450850125504346,121.73826329461369 L2.352359419730132,121.86182844548227 L2.25339579261156,121.9804563620137 L2.148456564943181,122.09383246429903 L2.03782001669188,122.2016560992966 L1.9217795360945267,122.3036413381098 L1.8006428416451057,122.39951773421916 L1.6747311660805957,122.48903104065785 L1.5443784045294933,122.571943884229 L1.409930229081961,122.64803639497664 L1.2717431721295829,122.71710678924141 L1.1301836809055559,122.77897190475448 L0.9856271457325045,122.83346768635099 L0.8384569045548285,122.8804496210148 L0.6890632263953865,122.91979312110115 L0.5378422764322066,122.95139385472055 L0.3851950654396523,122.9751680224083 L0.23152638637993825,122.99105257934558 L0.07724374096496464,122.99900540254293 L-0.07724374096496694,122.99900540254293 L-0.23152638637994055,122.99105257934558 L-0.38519506543965454,122.9751680224083 L-0.5378422764322088,122.95139385472055 L-0.6890632263953889,122.91979312110115 L-0.8384569045548308,122.8804496210148 L-0.9856271457325068,122.83346768635099 L-1.1301836809055579,122.77897190475448 L-1.2717431721295842,122.71710678924141 L-1.4099302290819624,122.64803639497664 L-1.5443784045294946,122.571943884229 L-1.674731166080597,122.48903104065785 L-1.8006428416451072,122.39951773421916 L-1.9217795360945282,122.3036413381098 L-2.037820016691882,122.2016560992966 L-2.148456564943183,122.09383246429903 L-2.2533957926115624,121.9804563620137 L-2.352359419730134,121.86182844548226 L-2.445085012550437,121.73826329461369 L-2.5313266794695597,121.6100885819748 L-2.6108557230904683,121.47764420386159 L-2.683461246686389,121.34128137895533 L-2.7489507134610167,121.2013617169538 L-2.807150457121483,121.05825625964728 L-2.8579061424101493,120.91234449698254 L-2.9010831743739627,120.76401336072368 L-2.9365670552860745,120.61365619837859 L-2.9642636882732325,120.46167173011217 L-2.9840996268437676,120.30846299141207 L-2.996022269654492,120.15443626431103 L-3.0,119.99999999999999 " />
			<path d="M3.000000000000055,-5.1961524227066 L3.185637928139374,-5.084457787296485 L3.367122392174345,-4.966133988941308 L3.5442167709873558,-4.841335299300385 L3.7166901672943853,-4.7102244320559965 L3.8843177086910115,-4.57297233076578 L4.046880840843128,-4.429757945984953 L4.204167612440096,-4.280768001948919 L4.355972951538824,-4.126196753120498 L4.502098932938451,-3.966245730919159 L4.642355036237053,-3.8011234809624996 L4.776558394233896,-3.6310452911625473 L4.904534031353382,-3.4562329110313934 L5.026115091779817,-3.276914262562137 L5.141143057005563,-3.0933231430620856 L5.2494679525089225,-2.905698920325672 L5.350948543292317,-2.714286220544516 L5.445452518025763,-2.5193346093615423 L5.532856661555618,-2.32109826648499 L5.613047015553623,-2.1198356542865686 L5.685919027096831,-1.915809180815835 L5.751377684984661,-1.7092848576701547 L5.809337643615391,-1.500531953166334 L5.859723334260529,-1.2898226412661005 L5.902469063592025,-1.0774316467131864 L5.93751909933383,-0.8636358868446717 L5.964827742926162,-0.6487141105436082 L5.984359389107701,-0.43294653480365475 L5.9960885723380635,-0.21661447937957756 L6.0,4.016378726446655e-14 L5.99608857233806,0.21661447937965783 L5.984359389107697,0.4329465348037349 L5.964827742926153,0.6487141105436881 L5.9375190993338185,0.8636358868447513 L5.90246906359201,1.0774316467132654 L5.859723334260512,1.289822641266179 L5.809337643615372,1.5005319531664116 L5.7513776849846385,1.7092848576702322 L5.685919027096803,1.915809180815911 L5.613047015553595,2.119835654286644 L5.532856661555586,2.321098266485064 L5.445452518025729,2.519334609361615 L5.35094854329228,2.714286220544588 L5.249467952508884,2.9056989203257424 L5.141143057005521,3.093323143062155 L5.026115091779773,3.2769142625622045 L4.904534031353335,3.456232911031459 L4.776558394233847,3.6310452911626117 L4.642355036237002,3.8011234809625623 L4.502098932938399,3.9662457309192196 L4.355972951538769,4.126196753120556 L4.204167612440039,4.280768001948975 L4.046880840843068,4.429757945985006 L3.88431770869095,4.572972330765832 L3.716690167294322,4.710224432056046 L3.5442167709872914,4.841335299300433 L3.367122392174279,4.966133988941354 L3.1856379281393057,5.084457787296529 L2.9999999999999853,5.19615242270664 " />
			<path d="M-3.0,5.196152422706561 L-3.0,119.99999999999997 " />
			<path d="M-3.000000000000079,5.196152422706586 L-3.1856379281393963,5.084457787296472 L-3.3671223921743643,4.966133988941295 L-3.544216770987372,4.841335299300375 L-3.7166901672943995,4.710224432055986 L-3.8843177086910226,4.57297233076577 L-4.046880840843136,4.429757945984944 L-4.204167612440103,4.280768001948912 L-4.3559729515388295,4.126196753120493 L-4.502098932938455,3.9662457309191557 L-4.6423550362370545,3.8011234809624987 L-4.776558394233895,3.631045291162548 L-4.90453403135338,3.4562329110313965 L-5.026115091779814,3.276914262562143 L-5.141143057005557,3.093323143062093 L-5.249467952508917,2.905698920325682 L-5.35094854329231,2.714286220544529 L-5.445452518025756,2.5193346093615574 L-5.53285666155561,2.321098266485008 L-5.613047015553615,2.11983565428659 L-5.685919027096822,1.9158091808158584 L-5.751377684984654,1.7092848576701813 L-5.809337643615384,1.5005319531663632 L-5.859723334260522,1.2898226412661327 L-5.902469063592018,1.0774316467132214 L-5.937519099333825,0.8636358868447096 L-5.964827742926158,0.6487141105436489 L-5.9843593891076985,0.4329465348036982 L-5.996088572338062,0.2166144793796238 L-6.0,8.72839385678954e-15 L-5.996088572338063,-0.21661447937960635 L-5.9843593891077,-0.43294653480368084 L-5.964827742926159,-0.6487141105436316 L-5.937519099333827,-0.8636358868446924 L-5.902469063592021,-1.0774316467132041 L-5.859723334260527,-1.2898226412661156 L-5.809337643615388,-1.5005319531663461 L-5.751377684984658,-1.7092848576701645 L-5.685919027096827,-1.9158091808158422 L-5.613047015553621,-2.1198356542865735 L-5.532856661555617,-2.321098266484992 L-5.445452518025763,-2.5193346093615414 L-5.3509485432923185,-2.7142862205445137 L-5.249467952508926,-2.905698920325667 L-5.141143057005567,-3.0933231430620785 L-5.026115091779824,-3.276914262562128 L-4.90453403135339,-3.4562329110313827 L-4.776558394233906,-3.6310452911625344 L-4.642355036237065,-3.8011234809624854 L-4.502098932938466,-3.966245730919143 L-4.355972951538841,-4.126196753120481 L-4.204167612440116,-4.2807680019489 L-4.04688084084315,-4.429757945984932 L-3.884317708691034,-4.572972330765761 L-3.7166901672944084,-4.710224432055978 L-3.54421677098738,-4.841335299300368 L-3.3671223921743705,-4.9661339889412925 L-3.1856379281393994,-5.08445778729647 L-3.000000000000081,-5.196152422706585 " />
			<path d="M-3.0,-46.41855969058868 L-3.0,-5.196152422706561 " />
			<path d="M-2.999999999999853,-46.418559690588715 L-3.338093473355049,-46.491643253206554 L-3.6744118464614015,-46.5725033531409 L-4.0087762750676745,-46.661096991361134 L-4.341008953973037,-46.75737705636767 L-4.670933211578655,-46.86129234924451 L-4.998373603836465,-46.9727876108853 L-5.32315600754518,-47.09180355137852 L-5.645107712943899,-47.21827688153611 L-5.964057515554099,-47.35214034654883 L-6.279835807221156,-47.49332276175034 L-6.592274666306985,-47.641749050471184 L-6.9012079469858545,-47.7973402839623 L-7.206471367595852,-47.96001372336708 L-7.507902597999069,-48.12968286371941 L-7.805341345904002,-48.30625747994451 L-8.098629442104293,-48.48964367483798 L-8.387610924588481,-48.67974392899756 L-8.67213212147603,-48.876457152681105 L-8.952041732735522,-49.07967873956316 L-9.227190910641573,-49.289300622361495 L-9.497433338927715,-49.505211330304164 L-9.762625310593068,-49.72729604840638 L-10.022625804321526,-49.95543667852573 L-10.277296559472761,-50.18951190216333 L-10.526502149605165,-50.42939724497747 L-10.770110054491669,-50.67496514297537 L-11.007990730590121,-50.92608501034799 L-11.24001767993073,-51.182623308911744 L-11.466067517383998,-51.444443619120186 L-11.686020036273286,-51.711406712607946 L-11.89975827229723,-51.98337062622824 L-12.10716856572791,-52.260190737544775 L-12.308140621851761,-52.54171984173766 L-12.502567569621084,-52.827808229882656 L-12.690346018484913,-53.11830376856198 L-12.871376113369099,-53.41305198076439 L-13.045561587776303,-53.71189612803155 L-13.212809814977689,-54.01467729380691 L-13.373031857269124,-54.32123446794293 L-13.52614251326562,-54.631404632321484 L-13.67206036320894,-54.94502284754218 L-13.810707812264251,-55.26192234063226 L-13.94201113178276,-55.5819345937316 L-14.065900498508464,-55.904889433705556 L-14.182310031708107,-56.230615122638035 L-14.29117782820462,-56.55893844915671 L-14.392445995295423,-56.889684820541746 L-14.486060681538055,-57.22267835556906 L-14.571972105386797,-57.557741978038855 L-14.65013458166505,-57.89469751093949 L-14.720506545859354,-58.23336577119682 L-14.783050576222191,-58.573566664958534 L-14.83773341367177,-58.91511928336273 L-14.88452597947823,-59.25784199873996 L-14.923403390726854,-59.601552561197536 L-14.954344973550079,-59.94606819553463 L-14.977334274121253,-60.2912056984368 L-14.992359067404287,-60.63678153589812 L-14.999411363654588,-60.98261194081923 L-14.998487412667753,-61.32851301072921 L-14.989587705773832,-61.674300805579605 L-14.972716975576045,-62.019791445558305 L-14.947884193434126,-62.36480120887144 L-14.915102564693612,-62.70914662944128 L-14.874389521663636,-63.052644594468056 L-14.82576671434693,-63.39511244180403 L-14.769259998926985,-63.73636805708786 L-14.7048994240185,-64.07622997058766 L-14.6327192146884,-64.4145174537013 L-14.55275775425596,-64.75105061506257 L-14.465057563881665,-65.08565049620212 L-14.369665279955722,-65.4181391667124 L-14.26663162929818,-65.74833981886572 L-14.156011402183903,-66.0760768616355 L-14.037863423206701,-66.40117601407042 L-13.912250519998143,-66.72346439797187 L-13.77923948981766,-67.0427706298256 L-13.638901064031721,-67.35892491193833 L-13.491309870500965,-67.6717591227313 L-13.336544393895297,-67.98110690614234 L-13.174686933958037,-68.28680376008911 L-13.005823561741332,-68.58868712394657 L-12.83004407383609,-68.88659646499191 L-12.647441944620788,-69.18037336377112 L-12.458114276554536,-69.46986159834188 L-12.262161748540844,-69.75490722734773 L-12.059688562389521,-70.03535867187964 L-11.850802387405214,-70.31106679608115 L-11.635614303132023,-70.58188498645457 L-11.414238740284668,-70.8476692298256 L-11.186793419897574,-71.10827818992541 L-10.953399290724283,-71.36357328254911 L-10.714180464920462,-71.6134187492507 L-10.469264152044675,-71.85768172953553 L-10.218780591412091,-72.09623233151154 L-9.962862982837025,-72.32894370096201 L-9.70164741580117,-72.5556920888029 L-9.43527279708524,-72.77635691688893 L-9.163880776902358,-72.9908208421336 L-8.887615673572675,-73.19896981890874 L-8.606624396779091,-73.40069315969063 L-8.321056369445,-73.59588359392042 L-8.031063448275566,-73.78443732504742 L-7.736799843004767,-73.96625408572511 L-7.438422034391192,-74.14123719113034 L-7.136088691006153,-74.30929359037751 L-6.829960584858388,-74.47033391600024 L-6.52020050590023,-74.6242725314745 L-6.206973175460671,-74.77102757675746 L-5.8904451586514,-74.91052101181836 L-5.570784775792349,-75.04267865813782 L-5.248162012903889,-75.16743023815391 L-4.922748431313244,-75.28470941263365 L-4.594717076423207,-75.39445381595019 L-4.264242385691668,-75.49660508924714 L-3.931500095870891,-75.59110891147208 L-3.596667149555855,-75.67791502826282 L-3.2599216010913734,-75.75697727867129 L-2.921442521888013,-75.82825361971054 L-2.5814099051971677,-75.89170614871193 L-2.2400045703959215,-75.94730112348074 L-1.8974080668326068,-75.99500898023923 L-1.553802577284185,-76.03480434934778 L-1.209370821076783,-76.06666606879575 L-0.8642959569209145,-76.09057719545481 L-0.5187614855130467,-76.10652501408877 L-0.17295115195530944,-76.11450104411523 L0.17295115195476354,-76.11450104411524 L0.5187614855125011,-76.1065250140888 L0.8642959569203694,-76.09057719545484 L1.2093708210762388,-76.0666660687958 L1.553802577283642,-76.03480434934784 L1.897408066832065,-75.9950089802393 L2.240004570395381,-75.94730112348083 L2.5814099051966295,-75.89170614871202 L2.9214425218874776,-75.82825361971064 L3.25992160109084,-75.75697727867141 L3.596667149555324,-75.67791502826296 L3.9315000958703634,-75.59110891147222 L4.264242385691145,-75.4966050892473 L4.594717076422687,-75.39445381595034 L4.922748431312728,-75.28470941263382 L5.248162012903378,-75.16743023815411 L5.570784775791842,-75.04267865813802 L5.890445158650898,-74.91052101181856 L6.206973175460174,-74.77102757675769 L6.520200505899738,-74.62427253147474 L6.829960584857902,-74.4703339160005 L7.136088691005672,-74.30929359037776 L7.438422034390719,-74.14123719113061 L7.736799843004299,-73.9662540857254 L8.031063448275102,-73.78443732504772 L8.321056369444543,-73.59588359392072 L8.60662439677864,-73.40069315969095 L8.887615673572235,-73.19896981890906 L9.163880776901927,-72.99082084213394 L9.435272797084815,-72.77635691688928 L9.701647415800753,-72.55569208880326 L9.96286298283661,-72.32894370096238 L10.218780591411686,-72.09623233151193 L10.469264152044278,-71.85768172953591 L10.714180464920073,-71.6134187492511 L10.953399290723906,-71.36357328254951 L11.186793419897205,-71.10827818992583 L11.41423874028431,-70.84766922982602 L11.635614303131677,-70.581884986455 L11.850802387404874,-70.31106679608159 L12.059688562389193,-70.03535867188008 L12.262161748540526,-69.75490722734818 L12.458114276554229,-69.46986159834235 L12.647441944620489,-69.1803733637716 L12.830044073835804,-68.88659646499238 L13.005823561741057,-68.58868712394705 L13.174686933957775,-68.2868037600896 L13.336544393895045,-67.98110690614283 L13.491309870500723,-67.6717591227318 L13.63890106403149,-67.35892491193883 L13.779239489817442,-67.04277062982611 L13.912250519997938,-66.72346439797238 L14.037863423206508,-66.40117601407093 L14.156011402183722,-66.07607686163603 L14.266631629298011,-65.74833981886624 L14.369665279955562,-65.41813916671293 L14.465057563881519,-65.08565049620266 L14.552757754255824,-64.75105061506311 L14.632719214688278,-64.41451745370183 L14.70489942401839,-64.0762299705882 L14.769259998926888,-63.736368057088406 L14.825766714346845,-63.39511244180458 L14.874389521663565,-63.0526445944686 L14.915102564693553,-62.709146629441825 L14.94788419343408,-62.364801208871995 L14.972716975576013,-62.01979144555886 L14.989587705773811,-61.67430080558016 L14.998487412667746,-61.328513010729765 L14.999411363654593,-60.98261194081978 L14.992359067404305,-60.63678153589868 L14.977334274121285,-60.29120569843735 L14.954344973550123,-59.94606819553518 L14.92340339072691,-59.60155256119808 L14.884525979478298,-59.25784199874051 L14.837733413671852,-58.915119283363275 L14.783050576222285,-58.57356666495908 L14.720506545859461,-58.23336577119736 L14.650134581665169,-57.89469751094003 L14.57197210538693,-57.55774197803939 L14.486060681538198,-57.2226783555696 L14.39244599529558,-56.88968482054227 L14.291177828204791,-56.55893844915724 L14.182310031708287,-56.230615122638554 L14.065900498508654,-55.904889433706074 L13.942011131782962,-55.58193459373212 L13.810707812264466,-55.26192234063277 L13.672060363209168,-54.94502284754268 L13.526142513265857,-54.63140463232198 L13.373031857269373,-54.32123446794342 L13.21280981497795,-54.0146772938074 L13.045561587776573,-53.71189612803203 L12.871376113369381,-53.41305198076487 L12.690346018485208,-53.11830376856245 L12.50256756962139,-52.82780822988312 L12.308140621852077,-52.541719841738114 L12.107168565728236,-52.26019073754522 L11.899758272297566,-51.983370626228684 L11.686020036273634,-51.71140671260838 L11.466067517384355,-51.44444361912061 L11.240017679931098,-51.182623308912156 L11.007990730590494,-50.926085010348395 L10.770110054492054,-50.674965142975765 L10.526502149605559,-50.429397244977864 L10.277296559473164,-50.189511902163716 L10.022625804321939,-49.9554366785261 L9.762625310593487,-49.727296048406735 L9.497433338928142,-49.50521133030452 L9.22719091064201,-49.289300622361836 L8.952041732735966,-49.079678739563484 L8.672132121476483,-48.876457152681425 L8.387610924588941,-48.679743928997866 L8.098629442104759,-48.48964367483828 L7.8053413459044725,-48.306257479944804 L7.507902597999548,-48.12968286371969 L7.206471367596337,-47.96001372336734 L6.901207946986345,-47.797340283962555 L6.592274666307483,-47.641749050471425 L6.279835807221658,-47.493322761750576 L5.9640575155546065,-47.35214034654905 L5.6451077129444105,-47.218276881536326 L5.323156007545696,-47.09180355137872 L4.998373603836987,-46.972787610885476 L4.670933211579181,-46.86129234924468 L4.341008953973566,-46.75737705636783 L4.008776275068207,-46.66109699136128 L3.674411846461937,-46.572503353141045 L3.3380934733555883,-46.49164325320668 L3.000000000000395,-46.41855969058883 " />
			<path d="M3.0,-46.41855969058885 L3.0,-5.196152422706582 " />
			<path d="M1.5,0.0 L1.4960898472769246,0.10823663370092412 L1.484379774833456,0.21590897171117868 L1.46493083356513,0.32245566031653605 L1.437844421246162,0.4273212144175499 L1.4032617538884016,0.5299589135716536 L1.3613631295064355,0.6298336523403969 L1.3123669881272244,0.7264247300814293 L1.256528772944947,0.8192285656405454 L1.1941395985584657,0.9077613227906477 L1.1255247332346037,0.9915614327298002 L1.051041903110014,1.0701920004872396 L0.9710794271727416,1.1432430826914546 L0.8860541927468271,1.2103338248251052 L0.7964094820348305,1.2711144468241296 L0.7026126610496856,1.3252680666690342 L0.6051527429847132,1.372512352461018 L0.5045378387252633,1.412600994369762 L0.4012925077938318,1.4453249887788344 L0.29595502353960074,1.47051372793377 L0.18907456683043478,1.4880358894119066 L0.08120836287812708,1.4978001207766858 L-0.027081223875839805,1.499755515846962 L-0.13522962166809693,1.4938918800982564 L-0.24267299482914612,1.4802397838122894 L-0.3488511833614646,1.458870402697685 L-0.453210623354358,1.4298951468127845 L-0.5552072330098704,1.3934650797251877 L-0.65430924923335,1.3497701309362604 L-0.7499999999999991,1.2990381056766584 L-0.8417805980435729,1.2415334972353362 L-0.929172541823584,1.177556108014009 L-1.0117202102107707,1.1074394864962482 L-1.0889932378846963,1.0315491882801349 L-1.1605887590592547,0.9502808702406356 L-1.226133507838338,0.864058227757859 L-1.2852857642513842,0.7733307857655319 L-1.3377371358230739,0.6785715551361393 L-1.3832141653889003,0.5802745666212575 L-1.4214797567742041,0.4789522952039684 L-1.4523344109038454,0.3751329882915927 L-1.4756172658980045,0.26935791167830536 L-1.4912069357315398,0.16217852763591023 L-1.4990221430845156,0.054153619844901954 L-1.4990221430845154,-0.054153619844907575 L-1.491206935731539,-0.16217852763591584 L-1.4756172658980036,-0.2693579116783109 L-1.4523344109038439,-0.3751329882915982 L-1.4214797567742024,-0.47895229520397375 L-1.383214165388898,-0.5802745666212628 L-1.3377371358230714,-0.6785715551361444 L-1.2852857642513813,-0.7733307857655367 L-1.2261335078383349,-0.8640582277578637 L-1.160588759059251,-0.9502808702406398 L-1.0889932378846925,-1.031549188280139 L-1.0117202102107665,-1.107439486496252 L-0.9291725418235801,-1.177556108014012 L-0.8417805980435694,-1.2415334972353387 L-0.749999999999996,-1.2990381056766602 L-0.6543092492333473,-1.3497701309362617 L-0.555207233009868,-1.3934650797251886 L-0.45321062335435575,-1.4298951468127852 L-0.3488511833614627,-1.4588704026976855 L-0.24267299482914448,-1.4802397838122898 L-0.13522962166809563,-1.4938918800982566 L-0.02708122387583884,-1.499755515846962 L0.0812083628781277,-1.4978001207766858 L0.18907456683043505,-1.4880358894119063 L0.2959550235396007,-1.47051372793377 L0.40129250779383147,-1.4453249887788344 L0.5045378387252626,-1.4126009943697622 L0.6051527429847121,-1.3725123524610185 L0.7026126610496843,-1.3252680666690348 L0.7964094820348291,-1.2711144468241304 L0.8860541927468253,-1.2103338248251065 L0.9710794271727399,-1.1432430826914561 L1.0510419031100118,-1.0701920004872416 L1.1255247332346014,-0.9915614327298026 L1.1941395985584635,-0.9077613227906505 L1.2565287729449452,-0.8192285656405487 L1.3123669881272224,-0.7264247300814329 L1.3613631295064337,-0.6298336523404011 L1.4032617538883998,-0.5299589135716583 L1.4378444212461605,-0.42732121441755505 L1.4649308335651288,-0.32245566031654177 L1.484379774833455,-0.21590897171118484 L1.4960898472769242,-0.10823663370093072 L1.5,-7.028732187495145e-15 " />

       </g>
    </g>
    
</svg>
