<?xml version="1.0" encoding="UTF-8" standalone="no"?>
<svg
   xmlns:svg="http://www.w3.org/2000/svg"
   xmlns="http://www.w3.org/2000/svg"
   width="579.2704937027531"
   height="620.0"

>
    <g transform="scale(3.0461973868171888, -3.0461973868171888)   translate(82.441270886765,-123.78278135989358)" stroke-width="0.5"  fill="none">
       <!-- hidden lines -->
       <g  stroke="rgb(160,160,160)" fill="none" stroke-dasharray="0.5,0.5" >

       </g>

       <!-- solid lines -->
       <g  stroke="rgb(0,0,0)" fill="none">
			<path d="M85.18559339430082,51.300357364927834 L85.00189644943698,51.50552881103445 L84.8123900421921,51.70534675683244 L84.61723012032064,51.89964676904273 L84.41657728394172,52.08826895517916 L84.21059665337879,52.2710580951265 L83.99945773327956,52.447863768873475 L83.783334273128,52.618540480295714 L83.56240412426322,52.782947776886765 L83.33684909352284,52.94095036533865 L83.10685479363131,53.0924182228768 L82.87261049045637,53.237226704257814 L82.6343089472592,53.37525664434197 L82.39214626606656,53.506394456156045 L82.14632172629543,53.6305322243658 L81.89703762076283,53.74756779408119 L81.64449908921601,53.857404854921185 L81.38891394951972,53.95995302026907 L81.13049252663969,54.05512790165302 L80.86944747956295,54.142851178190654 L80.6059936262975,54.22305066104049 L80.34034776709522,54.29566035280729 L80.07272850604356,54.360620501852324 L79.8033560711729,54.41787765146392 L79.5324521332275,54.4673846838478 L79.26023962324913,54.50910085890107 L78.98694254912382,54.54299184773788 L78.71278581124217,54.569029760939166 L78.43799501742537,54.58719317150331 L78.16279629726907,54.59746713247874 L77.8874161160578,54.59984318926402 L77.61208108840326,54.59431938656527 L77.3370177917595,54.58090027000517 L77.06245257996895,54.55959688238238 L76.78861139699235,54.53042675458414 L76.51571959097588,54.49341389115994 L76.24400172880874,54.44858875056772 L75.97368141132358,54.395988220109196 L75.70498108929193,54.335655585574685 L75.43812188036596,54.26764049562257 L75.17332338711739,54.191998920922686 L74.91080351632314,54.108793108097125 L74.65077829964646,54.018091528496576 L74.39346171586111,53.919968821854184 L74.13906551476497,53.814505734863346 L73.88779904292777,53.70178905473 L73.63986907141667,53.581911537754145 L73.39547962564107,53.45497183299916 L73.15483181745694,53.32107440111204 L72.91812367966882,53.18032942836108 L72.68555000306552,53.03285273596187 L72.45730217612375,52.87876568476627 L72.23356802751165,52.71819507539267 L72.0145316715216,52.55127304387978 L71.80037335655975,52.378136952949866 L71.59126931681683,52.19892927897081 L71.3873916272423,52.01379749471013 L71.18890806194118,51.82289394797738 L70.99598195611019,51.626375736254694 L70.80877207162668,51.42440457741894 L70.62743246640098,51.21714667666151 L70.45211236759982,51.00477258971551 L70.282956048845,50.787457082502826 L70.12010271148826,50.56537898731655 L69.96368637006054,50.33872105565706 L69.81383574198917,50.10766980784307 L69.67067414167438,49.87241537952109 L69.53431937901202,49.633151365199915 L69.40488366244588,49.3900746589387 L69.28247350662967,49.143385292319785 L69.1671896447745,48.89328626983959 L69.05912694575387,48.63998340185313 L68.95837433603472,48.38368513520942 L68.86501472649836,48.124602381717395 L68.77912494421189,47.86294834458329 L68.700775669206,47.59893834296244 L68.63003137631125,47.332789634769796 L68.56695028210082,47.064721237895036 L68.51158429698306,46.79495374996936 L68.46397898248372,46.523709166832276 L68.42417351375263,46.251210699847796 L68.39220064732586,45.97768259222036 L68.36808669416988,45.703349934461606 L68.35185149802977,45.42843847915994 L68.34350841909965,45.153174455205196 L68.34306432302824,44.87778438162143 L68.35051957526909,44.60249488116089 L68.36586804077976,44.32753249381262 L68.38909708907052,44.05312349037925 L68.42018760459817,43.77949368627521 L68.45911400249643,43.50686825569974 L68.50584424963026,43.2354715463376 L68.56033989095627,42.965526894739796 L68.62255608116811,42.69725644253659 L68.69244162160028,42.43088095363362 " />
			<path d="M85.18559339430082,51.30035736492781 L103.62304845413263,60.519615242270675 " />
			<path d="M68.69244162160014,42.430880953633704 L6.311990415329234,6.415510657522873 " />
			<path d="M103.62304845413263,60.519615242270675 L103.68805372809175,60.53878025167942 L103.75478377071086,60.55061598740592 L103.82241490564878,60.55497635609978 L103.89011233401146,60.551807535938146 L103.95704043861788,60.54114864097063 L104.02237309836634,60.52313123831847 L104.0853038853867,60.49797772418752 L104.14505601911104,60.465998578740454 L104.20089195439549,60.42758853371253 L104.25212248534301,60.38322170007554 L104.29811525245505,60.33344571589124 L104.3383025481047,60.278874986589685 L104.37218832398537,60.22018310111049 L104.39935431403872,60.15809451751771 L104.41946519728468,60.0933756207162 L104.43227273682604,60.02682526264779 L104.4376188439385,59.95926490173343 L104.4354375294248,59.89152846327428 L104.42575571814648,59.82445204596903 L104.40869291667923,59.758863601603984 L104.38445973819417,59.695572715303925 L104.35335530277283,59.635360612490146 L104.31576354524512,59.57897051589406 L104.27214847612393,59.52709847165354 L104.22304845413262,59.480384757729354 " />
			<path d="M8.711990415329389,2.258588719357483 L8.774963049139826,2.0000058715490545 L8.83026239573481,1.739674113870687 L8.877840098469772,1.4778210940442893 L8.917654552909902,1.2146757900630565 L8.949670943211245,0.9504683099611251 L8.973861272565493,0.6854296905950532 L8.990204387681866,0.4197916956130978 L8.998685997284653,0.153786612788942 L8.999298684610256,-0.11235294910290028 L8.992041913892791,-0.37839426369237295 L8.976922030832592,-0.6441046905220067 L8.953952257047206,-0.9092518784799188 L8.923152678509702,-1.1736039689797906 L8.884550227984462,-1.436929798710159 L8.838178661475752,-1.6989991017757196 L8.784078528709696,-1.9595827110538862 L8.722297137675493,-2.2184527585905194 L8.65288851325682,-2.4753828748596076 L8.575913349989635,-2.7301483867126266 L8.491438958987725,-2.9825265138445114 L8.399539209082313,-3.232296563604411 L8.300294462227303,-3.4792401239809183 L8.193791503226574,-3.7231412545929556 L8.080123463844798,-3.9637866755193527 L7.95938974136815,-4.2009659538019894 L7.831695911686124,-4.434471687459382 L7.69715363697043,-4.664099686849848 L7.5558805680317676,-4.889649153225612 L7.4080002414397645,-5.110922854321751 L7.253641971496162,-5.327727296826414 L7.092940737155592,-5.53987289558151 L6.9260370639929345,-5.747174139365895 L6.753076901320373,-5.949449753116099 L6.574211494561689,-6.146522856442735 L6.389597252995335,-6.338221118303974 L6.199395612981972,-6.524376907700832 L6.003772896796066,-6.704827440262498 L5.802900167184976,-6.879414920593508 L5.596953077782732,-7.047986680258299 L5.386111719509297,-7.210395311282495 L5.17056046308964,-7.366498795054151 L4.950487797830311,-7.516160626512263 L4.7260861667945315,-7.659249933513946 L4.497551798519892,-7.795641591275891 L4.265084535425847,-7.925216331790023 L4.02888765906104,-8.047860848117695 L3.7891677123432688,-8.16346789347121 L3.546134318947545,-8.271936374996027 L3.3000000000001712,-8.37317144217165 " />
			<path d="M-3.3000000000000003,-8.373171442171717 L-3.5456641151363235,-8.272137933003448 L-3.7882396229475925,-8.163898612741946 L-4.027515217324154,-8.048547768027618 L-4.263282466691701,-7.92618588030833 L-4.495335995574788,-7.796919538310604 L-4.723473663498222,-7.660861345190806 L-4.947496741070443,-7.518129820447193 L-5.167210083095547,-7.3688492966782615 L-5.3824222985631165,-7.213149811277355 L-5.59294591736782,-7.051166993157844 L-5.798597553613526,-6.883041944607575 L-5.999198065359688,-6.708921118375487 L-6.194572710670837,-6.528956190097477 L-6.384551299833275,-6.343303926172642 L-6.568968343606327,-6.152126047204979 L-6.747663197379067,-5.955589087129511 L-6.920480201106889,-5.753864248145551 L-7.087268814906071,-5.547127251583461 L-7.247883750188192,-5.33555818483483 L-7.402185096220165,-5.119341344479393 L-7.5500384419996625,-4.898665075745361 L-7.691314993339766,-4.673721608442988 L-7.825891685060819,-4.444706889514306 L-7.953651288191793,-4.211820412344886 L-8.074482512087757,-3.9752650429863143 L-8.188280101374515,-3.7352468434407613 L-8.294944927635939,-3.4919748921615668 L-8.394384075764167,-3.2456611019262267 L-8.486510924897395,-2.9965200352404033 L-8.57124522387482,-2.7447687174337805 L-8.648513161142947,-2.4906264476105653 L-8.718247429052408,-2.23431460761932 L-8.780387282489261,-1.9760564692085176 L-8.834878591789709,-1.7160769995358343 L-8.88167388989212,-1.454602665200563 L-8.920732413685329,-1.1918612349698856 L-8.952020139517126,-0.9280815813708236 L-8.975509812832078,-0.663493481320721 L-8.991180971912797,-0.3983274159699022 L-8.999019965704035,-0.1328143699309008 L-8.999019965704035,0.132814369930899 L-8.991180971912796,0.39832741596989996 L-8.975509812832078,0.6634934813207174 L-8.952020139517126,0.9280815813708236 L-8.920732413685327,1.191861234969887 L-8.88167388989212,1.4546026652005666 L-8.834878591789707,1.71607699953584 L-8.78038728248926,1.9760564692085247 L-8.718247429052406,2.23431460761933 L-8.648513161142944,2.4906264476105773 L-8.571245223874817,2.744768717433793 L-8.486510924897392,2.9965200352404175 L-8.39438407576416,3.2456611019262427 L-8.294944927635932,3.491974892161584 L-8.188280101374506,3.7352468434407817 L-8.074482512087746,3.975265042986336 L-7.9536512881917805,4.211820412344909 L-7.825891685060807,4.444706889514331 L-7.691314993339751,4.673721608443014 L-7.550038441999646,4.898665075745388 L-7.402185096220146,5.119341344479421 L-7.247883750188171,5.335558184834857 L-7.087268814906048,5.5471272515834915 L-6.920480201106862,5.7538642481455815 L-6.747663197379038,5.955589087129541 L-6.568968343606297,6.15212604720501 L-6.384551299833241,6.343303926172673 L-6.194572710670802,6.52895619009751 L-5.99919806535965,6.708921118375519 L-5.798597553613487,6.8830419446076085 L-5.5929459173677785,7.051166993157879 L-5.382422298563071,7.213149811277387 L-5.167210083095499,7.368849296678294 L-4.947496741070394,7.518129820447226 L-4.723473663498169,7.660861345190838 L-4.495335995574733,7.796919538310636 L-4.263282466691643,7.926185880308361 L-4.027515217324094,8.04854776802765 L-3.788239622947528,8.163898612741976 L-3.5456641151362565,8.272137933003476 L-3.2999999999999323,8.373171442171744 " />
			<path d="M3.300000000000008,8.373171442171714 L3.5389423574790286,8.275015830222971 L3.7749693266262905,8.170043242421098 L4.007886467916556,8.058340155409882 L4.237501903707469,7.939998590432847 L4.463626476308771,7.815116037525952 L4.686073903810813,7.683795375205099 L4.904660933543999,7.546144785714577 L5.119207493042718,7.402277665906306 L5.329536838389437,7.252312533823259 L5.535475699816718,7.096372931064051 L5.736854424447234,6.9345873210091025 L5.933507116054155,6.767088982992221 L6.125271771726841,6.594015902504812 L6.311990415329164,6.4155106575231216 " />
			<path d="M104.22304845413262,59.480384757729354 L87.02020939839801,48.122709233452504 " />
			<path d="M8.711990415329279,2.2585887193575958 L71.09244162160017,38.273959015468414 " />
			<path d="M87.02020939839804,48.12270923345248 L87.10604461042564,47.8610372895495 L87.18433882399628,47.59701095379652 L87.25502760959029,47.33084749755011 L87.31805279631233,47.062765950836344 L87.37336251976117,46.79298692210764 L87.42091126470964,46.52173241670061 L87.46065990255991,46.249225654144446 L87.4925757235429,45.97569088447015 L87.51663246363574,45.70135320367165 L87.53281032617483,45.4264383684709 L87.54109599814676,45.151172610539106 L87.54148266114389,44.87578245032724 L87.53396999697526,44.60049451065883 L87.51856418792845,44.32553533023852 L87.49527791168207,44.05113117722993 L87.4641303308731,43.777507863055966 L87.42514707732772,43.50489055657524 L87.37836023096838,43.23350359878703 L87.3238082934148,42.96357031821766 L87.26153615630042,42.695312847139974 L87.19159506433029,42.42895193877725 L87.11404257311108,42.164706785641975 L87.02894250178767,41.90279483915892 L86.93636488052539,41.64343163072101 L86.83638589288107,41.38683059432519 L86.72908781311047,41.133202890934314 L86.61455893846349,40.88275723470948 L86.492893516523,40.63569972125597 L86.36419166764706,40.392233658023926 L86.22855930257832,40.15255939700358 L86.08610803528843,39.91687416985242 L85.93695509112916,39.68537192559027 L85.78122321036588,39.4582431709956 L85.61904054717267,39.2356748138346 L85.45054056417227,39.01785000905182 L85.27586192260763,38.80494800804919 L85.09514836823544,38.597144011177235 L84.90854861303548,38.39460902356002 L84.71621621283329,38.19750971437236 L84.51830944093665,38.006008279685204 L84.31499115789005,37.82026230899196 L84.10642867745426,37.64042465552567 L83.89279362892118,37.46664331047373 L83.67426181587751,37.29906128119363 L83.4510130715332,37.13781647353 L83.22323111073396,36.98304157832977 L82.99110337877944,36.83486396224879 L82.75482089717164,36.693405562939844 L82.51457810642029,36.55878278870831 L82.27057270603481,36.4311064227179 L82.02300549183433,36.31048153182553 L81.77208019070959,36.19700738012017 L81.51800329297309,36.09077734723686 L81.26098388243493,35.99187885151319 L81.00123346434448,35.9003932780514 L80.73896579133954,35.81639591174532 L80.47439668754585,35.73995587532721 L80.20774387097222,35.67113607248571 L79.93922677434692,35.60999313610131 L79.6690663645431,35.556577381642335 L79.39748496074176,35.51093276575954 L79.12470605148187,35.473096850113535 L78.85095411074813,35.44310077046467 L78.57645441324792,35.42096921105098 L78.30143284902921,35.40672038427512 L78.0261157375922,35.40036601571707 L77.75072964164744,35.40191133448505 L77.47550118067392,35.411355068912336 L77.20065684443034,35.42868944760375 L76.92642280657324,35.453900205830884 L76.6530247385352,35.486966597270744 L76.38068762381626,35.527861411078234 L76.10963557284155,35.57655099427836 L75.84009163853743,35.63299527945981 L75.57227763277766,35.69714781774704 L75.30641394385106,35.76895581702375 L75.04271935510052,35.84836018537638 L74.78141086488289,35.93529557972168 L74.52270350799759,36.029690459578646 L74.26681017873118,36.13146714594022 L74.01394145566334,36.24054188519655 L73.76430542837856,36.356824918057164 L73.51810752622592,36.48022055341525 L73.27555034926812,36.61062724709336 L73.03683350155882,36.74793768540568 L72.80215342688527,36.89203887346814 L72.57170324711178,37.04281222818362 L72.3456726032567,37.200133675825846 L72.12424749943386,37.36387375414156 L71.90761014978698,37.53389771888701 L71.69593882854277,37.710065654711094 L71.48940772330634,37.89223259029385 L71.28818679171954,38.080248617645594 L71.09244162160016,38.27395901546854 " />
			<path d="M80.34228634059949,40.843078061834696 L80.50984402725263,40.94443006154396 L80.67312826752647,41.05253215717497 L80.83186729091744,41.16720442345806 L80.98579689198696,41.2882559997229 L81.13466087010521,41.41548540756728 L81.27821145587187,41.548680886198014 L81.41620972350381,41.68762074488587 L81.54842598850352,41.83207373194791 L81.67464018994622,41.981799419643124 L81.79464225674955,42.136548604340646 L81.90823245731626,42.296063721294615 L82.0152217319676,42.460079273335275 L82.1154320076146,42.62832227276281 L82.20869649414311,42.800512695708434 L82.29485996201952,42.97636394820648 L82.37377900065493,43.15558334320179 L82.44532225709798,43.3378725876984 L82.5093706546589,43.52292827923881 L82.5658175911008,43.71044241088746 L82.61456911606868,43.90010288387782 L82.65554408746047,44.09159402707004 L82.6886743064801,44.28459712235437 L82.71390463114759,44.47879093512603 L82.73119306807749,44.673852248948485 L82.7405108423727,44.869456403515315 L82.74184244551749,45.06527783501526 L82.73518566118983,45.26099061800103 L82.72055156895028,45.45626900786009 L82.69796452580117,45.65078798298437 L82.66746212564668,45.844223785736695 L82.62909513672165,46.036254461313405 L82.58292741709272,46.22656039360635 L82.52903580837295,46.41482483717235 L82.46751000782658,46.600734444424766 L82.39845241907663,46.783979787169585 L82.32197798166438,46.964255871618136 L82.23821397974369,47.14126264601915 L82.14729983022916,47.31470550006529 L82.04938685075041,47.484295755242925 L81.94463800779884,47.64975114530904 L81.83322764548596,47.81079628609551 L81.71534119536486,47.96716313385892 L81.59117486779763,48.118591431412874 L81.46093532538265,48.264829141300424 L81.32483933898502,48.40563286528555 L81.18311342694292,48.54076824946547 L81.03599347805012,48.67001037432962 L80.8837243589424,48.793144129115966 L80.72655950654124,48.90996456984163 L80.56476050623294,49.02027726041192 L80.39859665648574,49.123898596240075 L80.22834452062895,49.2206561098389 L80.0542874665407,49.31038875787592 L79.87671519500994,49.392947189214134 L79.69592325755818,49.46819399349219 L79.5122125645231,49.53600392983042 L79.32588888422302,49.59626413528189 L79.13726233403565,49.648874312681656 L78.9466468642384,49.69374689758149 L78.75435973546905,49.73080720399226 L78.56072099067678,49.75999354869141 L78.36605292244226,49.781257353888556 L78.17067953655344,49.794563228078445 L77.97492601272988,49.79988902494665 L77.77911816339325,49.797225880229874 L77.58358189138464,49.78657822646967 L77.3886426475315,49.767963785634926 L77.19462488896684,49.74141353962536 L77.00185153910235,49.70697167870523 L76.81064345015422,49.66469552795301 L76.62131886911634,49.614655451849416 L76.43419290806958,49.55693473716272 L76.24957701970877,49.4916294543261 L76.0677784789605,49.41884829753792 L75.88909987155434,49.33871240385094 L75.71383859039862,49.25135515155166 L75.54228634059947,49.15692193816531 L75.37472865394632,49.055569938456046 L75.21144441367248,48.947467842825034 L75.0527053902815,48.83279557654195 L74.898775789212,48.71174400027711 L74.74991181109375,48.584514592432726 L74.60636122532709,48.45131911380199 L74.46836295769513,48.31237925511414 L74.33614669269542,48.16792626805209 L74.20993249125273,48.018200580356876 L74.08993042444939,47.863451395659354 L73.9763402238827,47.703936278705385 L73.86935094923136,47.539920726664725 L73.76914067358436,47.37167772723719 L73.67587618705583,47.199487304291566 L73.58971271917943,47.02363605179352 L73.51079368054403,46.84441665679821 L73.43925042410096,46.6621274123016 L73.37520202654005,46.47707172076119 L73.31875509009816,46.28955758911254 L73.27000356513028,46.09989711612218 L73.22902859373848,45.90840597292996 L73.19589837471887,45.71540287764564 L73.17066805005138,45.52120906487398 L73.15337961312147,45.32614775105152 L73.14406183882626,45.13054359648469 L73.14273023568147,44.934722164984755 L73.14938702000913,44.73900938199898 L73.16402111224868,44.54373099213993 L73.18660815539779,44.34921201701565 L73.21711055555228,44.15577621426333 L73.25547754447732,43.96374553868662 L73.30164526410624,43.77343960639368 L73.355536872826,43.585175162827674 L73.41706267337239,43.39926555557526 L73.48612026212233,43.21602021283044 L73.56259469953457,43.0357441283819 L73.64635870145526,42.858737353980885 L73.73727285096979,42.68529449993475 L73.83518583044854,42.51570424475711 L73.9399346734001,42.350248854691 L74.05134503571297,42.189203713904526 L74.16923148583408,42.032836866141125 L74.29339781340131,41.88140856858717 L74.4236373558163,41.73517085869962 L74.55973334221392,41.59436713471449 L74.70145925425601,41.45923175053457 L74.84857920314882,41.32998962567042 L75.00084832225652,41.20685587088408 L75.1580131746577,41.090035430158416 L75.31981217496599,40.97972273958812 L75.48597602471318,40.87610140375997 L75.65622816056995,40.779343890161144 L75.83028521465822,40.689611242124116 L76.00785748618898,40.6070528107859 L76.18864942364074,40.53180600650784 L76.37236011667581,40.463996070169614 L76.55868379697588,40.40373586471814 L76.74731034716325,40.35112568731837 L76.9379258169605,40.30625310241854 L77.13021294572985,40.26919279600776 L77.3238516905221,40.24000645130861 L77.51851975875663,40.218742646111465 L77.71389314464545,40.20543677192157 L77.90964666846901,40.20011097505336 L78.10545451780564,40.20277411977014 L78.30099078981425,40.213421773530335 L78.49593003366738,40.232036214365074 L78.68994779223203,40.258586460374644 L78.88272114209653,40.29302832129476 L79.07392923104466,40.335304472046985 L79.26325381208252,40.38534454815057 L79.4503797731293,40.443065262837266 L79.63499566149011,40.50837054567388 L79.81679420223837,40.58115170246206 L79.99547280964454,40.66128759614903 L80.17073409080025,40.74864484844831 L80.3422863405994,40.84307806183465 " />
			<path d="M-64.35368444381596,42.843796985823346 L-64.51262780041347,42.53697688940092 L-64.66446143597287,42.22657697108912 L-64.8091047763907,41.91276195193305 L-64.94648106326338,41.59569836528169 L-65.07651739462088,41.27555446841306 L-65.19914476361387,40.95250015324453 L-65.31429809513378,40.62670685617564 L-65.4219162803465,40.29834746711135 L-65.52194220912124,39.967596237713934 L-65.6143228003373,39.63462868893219 L-65.69900903005288,39.29962151785713 L-65.77595595752078,38.96275250395351 L-65.84512274903723,38.6242004147169 L-65.90647269961131,38.284144910806575 L-65.95997325244332,37.94276645070426 L-66.00559601620174,37.60024619494966 L-66.04331678008984,37.256765910003274 L-66.07311552669373,36.91250787178777 L-66.09497644260493,36.567654768958924 L-66.10888792681232,36.222389605957645 L-66.11484259685835,35.87689560589426 L-66.11283729275678,35.53135611331691 L-66.10287307866955,35.1859544969154 L-66.08495524234215,34.840874052212286 L-66.05909329229745,34.49629790429279 L-66.02530095278982,34.15240891062513 L-65.98359615652205,33.80938956402291 L-65.93400103512893,33.46742189580095 L-65.87654190743255,33.126687379176175 L-65.8112492654756,32.78736683296443 L-65.73815775834008,32.44964032562482 L-65.6573061737599,32.113687079702075 L-65.56873741753733,31.77968537671788 L-65.47249849077393,31.447812462561604 L-65.36864046492833,31.118244453430545 L-65.25721845471402,30.79115624236974 L-65.13829158885136,30.46672140646084 L-65.01192297868951,30.145112114709313 L-64.87817968471502,29.82649903667891 L-64.73713268096445,29.511051251921845 L-64.58885681736041,29.198936160252714 L-64.43343077999067,28.890319392913845 L-64.27093704935152,28.585364724679163 L-64.10146185657754,28.28423398694325 L-63.92509513768103,27.987086981841674 L-63.74193048582534,27.694081397448244 L-63.552065101657426,27.405372724094075 L-63.35559974172605,27.121114171853 L-63.15263866501296,26.84145658923702 L-62.94328957760534,26.56654838314497 L-62.72766357553909,26.2965354401069 L-62.50587508584306,26.031561048865953 L-62.278041805815676,25.7717658243388 L-62.04428464056603,25.51728763299501 L-61.80472763885281,25.268261519694967 L-61.559497927254824,25.02481963602512 L-61.30872564270833,24.787091170168623 L-61.05254386344677,24.55520227834856 L-60.79108853837968,24.329276017880204 L-60.52449841494817,24.10943228186772 L-60.25291496549536,23.89578773558005 L-59.976482312190676,23.68845575453977 L-59.69534715054809,23.487546364357648 L-59.40965867157863,23.293166182344997 L-59.11956848261868,23.105418360934642 L-58.82523052687594,22.92440253294069 L-58.52680100173584,22.75021475868598 L-58.22443827587173,22.582947475025446 L-57.91830280520275,22.422689446292278 L-57.60855704774419,22.269525717193062 L-57.295365377395235,22.1235375676768 L-56.9788939967101,21.98480246980175 L-56.65931084869874,21.8533940466231 L-56.33678552770388,21.729382033123116 L-56.01148918940184,21.612832239204636 L-55.68359445997468,21.50380651476752 L-55.35327534450204,21.402362716886486 L-55.02070713462128,21.308554679107942 L-54.686066315504796,21.22243218288191 L-54.34953047220401,21.144040931144342 L-54.01127819540967,21.07342252406376 L-53.67148898667848,21.01061443696515 L-53.330343163176366,20.95565000044282 L-52.988021761988904,20.908558382672695 L-52.64470644404973,20.86936457393357 L-52.30057939773788,20.838089373345397 L-51.95582324219518,20.814749377831774 L-51.61062093041517,20.799356973312364 L-51.2651556521547,20.791920328130033 L-50.919610736719996,20.792443388716126 L-50.57416955567864,20.800925877496198 L-50.229015425549086,20.817363293037303 L-49.88433151051949,20.841746912436804 L-49.54030072524721,20.87406379595138 L-49.19710563779091,20.914296793863798 L-48.854928372726484,20.962424555583834 L-48.51395051449832,21.018421540978444 L-48.17435301105725,21.082258033925267 L-47.83631607783627,21.153900158082152 L-47.50001910211494,21.233309894864483 L-47.16564054782327,21.320445103620585 L-46.83335786083568,21.4152595439947 L-46.50334737480509,21.517702900465515 L-46.17578421758735,21.627720809047254 L-45.850842218305495,21.745254886139254 L-45.528693815103225,21.870242759508553 L-45.209509963636506,22.002618101389235 L-44.893460046351954,22.14231066368079 L-44.580711782600005,22.28924631522694 L-44.27143113963069,22.443347081155096 L-43.96578224451923,22.604531184255546 L-43.66392729706808,22.772713088378477 L-43.366026483731794,22.94780354382575 L-43.0722378926103,23.12970963471335 L-42.78271742955576,23.31833482827941 L-42.49761873543735,23.51357902611159 L-42.21709310460819,23.715338617266646 L-41.9412894046174,23.923506533254066 L-41.670353997210015,24.137972304854454 L-41.40443066065668,24.358622120742645 L-41.14366051345428,24.58533888788436 L-40.888181939438134,24.818002293674425 L-40.638130514345306,25.056488869783436 " />
			<path d="M-40.638130514345626,25.056488869782946 L-8.6076176088606,2.628482280638938 " />
			<path d="M-5.4139440112576835,7.189520863240269 L-5.217865845561672,7.333067299413051 L-5.017983647825659,7.4712676374330425 L-4.814443140133522,7.604021123749018 L-4.607392711622818,7.731230975781604 L-4.396983310303183,7.852804452481628 L-4.18336833300923,7.968652921942052 L-3.9667035135681403,8.078691926014148 L-3.747146809263504,8.182841241880865 L-3.524858285678163,8.281024940542446 L-3.3000000000000327,8.373171442171707 " />
			<path d="M3.2999999999999963,8.37317144217172 L3.538942357479032,8.275015830222971 L3.77496932662631,8.170043242421091 L4.007886467916588,8.058340155409866 L4.237501903707514,7.939998590432823 L4.463626476308831,7.815116037525921 L4.686073903810886,7.683795375205056 L4.9046609335440845,7.546144785714523 L5.119207493042815,7.402277665906241 L5.329536838389544,7.252312533823182 L5.535475699816836,7.096372931063962 L5.73685442444736,6.9345873210089986 L5.933507116054292,6.767088982992105 L6.125271771726983,6.594015902504679 L6.311990415329316,6.415510657522975 " />
			<path d="M8.711990415329348,2.2585887193576393 L8.774963049139792,2.0000058715492055 L8.830262395734781,1.7396741138708331 L8.877840098469749,1.4778210940444283 L8.917654552909884,1.2146757900631893 L8.949670943211231,0.9504683099612516 L8.973861272565486,0.6854296905951722 L8.990204387681862,0.4197916956132115 L8.998685997284653,0.15378661278904726 L8.999298684610258,-0.11235294910280125 L8.992041913892795,-0.37839426369228013 L8.9769220308326,-0.6441046905219228 L8.953952257047215,-0.9092518784798433 L8.923152678509712,-1.173603968979724 L8.884550227984475,-1.4369297987101013 L8.838178661475762,-1.698999101775669 L8.784078528709708,-1.9595827110538435 L8.722297137675504,-2.2184527585904856 L8.652888513256826,-2.4753828748595827 L8.57591334998964,-2.730148386712609 L8.491438958987729,-2.982526513844499 L8.399539209082315,-3.2322965636044074 L8.300294462227303,-3.4792401239809227 L8.193791503226569,-3.723141254592966 L8.08012346384479,-3.963786675519371 L7.959389741368138,-4.200965953802013 L7.831695911686106,-4.434471687459415 L7.697153636970409,-4.6640996868498865 L7.555880568031739,-4.8896491532256565 L7.408000241439732,-5.110922854321801 L7.253641971496122,-5.3277272968264695 L7.092940737155547,-5.5398728955815715 L6.926037063992883,-5.747174139365962 L6.753076901320314,-5.949449753116169 L6.574211494561622,-6.146522856442809 L6.38959725299526,-6.338221118304052 L6.199395612981888,-6.524376907700914 L6.003772896795975,-6.704827440262582 L5.802900167184877,-6.879414920593593 L5.596953077782623,-7.047986680258386 L5.386111719509179,-7.210395311282585 L5.1705604630895134,-7.366498795054243 L4.950487797830174,-7.516160626512353 L4.726086166794386,-7.659249933514037 L4.497551798519738,-7.795641591275981 L4.265084535425683,-7.925216331790111 L4.028887659060867,-8.047860848117782 L3.7891677123430867,-8.163467893471296 L3.5461343189473538,-8.271936374996113 L3.2999999999999696,-8.373171442171731 " />
			<path d="M-3.3000000000000056,-8.373171442171717 L-3.5434681253982876,-8.273078849152013 L-3.783904824521711,-8.16590866217357 L-4.021104404500645,-8.051752565007542 L-4.254863941811104,-7.930708217850137 L-4.484983455875212,-7.802879173774618 L-4.711266080143982,-7.6683747901419625 L-4.9335182305160545,-7.527310135045967 L-5.151549770948312,-7.379805888872851 L-5.3651741761166845,-7.225988241059536 L-5.574208690988006,-7.065988782138973 L-5.7784744871663944,-6.899944391164838 L-5.977796815880397,-6.727997118611913 L-6.172005157480041,-6.55029406485234 L-6.360933367315881,-6.366987254311686 L-6.544419817875239,-6.178233505412518 L-6.722307537054058,-5.984194296416708 L-6.894444342446058,-5.785035627281269 L-7.0606829715343284,-5.5809278776459 L-7.220881207673971,-5.372045661073714 L-7.374902001757995,-5.158567675669859 L-7.522613589462431,-4.940676551205835 L-7.663889603970301,-4.718558692880272 L-7.798609184078048,-4.49240412184985 L-7.926657077591945,-4.262406312666771 L-8.047923739925977,-4.0287620277618625 L-8.162305427816921,-3.7916711491149178 L-8.269704288076385,-3.551336507256257 L-8.370028441303916,-3.307963707745834 L-8.463192060489554,-3.0617609552782867 L-8.549115444438574,-2.8129388755644653 L-8.627725085955621,-2.56171033514176 L-8.698953734729892,-2.3082902592674244 L-8.762740454867577,-2.0528954480506756 L-8.819030677022326,-1.7957443909808455 L-8.867776245079162,-1.5370570800102863 L-8.908935457351895,-1.2770548213519226 L-8.942473102258788,-1.015960046152454 L-8.968360488445956,-0.7539961202031762 L-8.986575469332731,-0.49138715285122814 L-8.997102462058,-0.22835780527471883 L-8.999932460811296,0.03486690171423046 L-8.995063044537234,0.29806178017411256 L-8.982498379006726,0.561001667681635 L-8.962249213253166,0.8234616199574964 L-8.934332870376679,1.0852171033055327 L-8.898773232724242,1.3460441867006239 L-8.855600721458432,1.6057197333610005 L-8.804852270532187,1.8640215916410932 L-8.746571295091945,2.1207287850815875 L-8.6808076543361,2.3756217014541288 L-8.607617608860616,2.628482280638901 " />
			<path d="M-5.413944011257808,7.189520863239924 L-37.44445691674325,29.61752745238422 " />
			<path d="M-62.27025625103654,45.8192408065316 L-62.03630150012371,46.07353735920282 L-61.79655114918926,46.32237733067434 L-61.55113242741733,46.5656286681403 L-61.30017557204689,46.803162284535375 L-61.043813759258235,47.03485212703794 L-60.782183033499955,47.26057524396294 L-60.515422235293684,47.48021185000915 L-60.243672927555124,47.69364538982601 L-59.967079320470326,47.900762599866525 L-59.68578819496719,48.10145356849323 L-59.399948824822644,48.29561179430535 L-59.109712897447025,48.48313424265638 L-58.81523443338758,48.66392140033173 L-58.516669704593795,48.83787732835787 L-58.21417715148801,49.004909712914554 L-57.90791729888529,49.164929914323324 L-57.59805267080711,49.317853014086296 L-57.28474770423416,49.4635978599501 L-56.96816866184397,49.602087108971304 L-56.64848354377972,49.733247268560234 L-56.32586199849697,49.857008735481536 L-56.0004752327357,49.97330583279084 L-55.672495920665455,50.08207684468771 L-55.34209811225165,50.18326404926665 L-55.00945714089191,50.276813749148545 L-54.67474953037122,50.36267629997647 L-54.33815290118545,50.44080613676065 L-53.99984587628281,50.51116179805857 L-53.660007986273385,50.5737059479775 L-53.31881957415695,50.62840539598763 L-52.976461699619755,50.675231114535435 L-52.633116042950874,50.71415825444784 L-52.288964808629295,50.74516615811898 L-51.94419062863281,50.76823837047269 L-51.59897646552003,50.78336264769476 L-51.25350551533702,50.790530963730404 L-50.907961110399924,50.78973951454347 L-50.56252662200542,50.780988720135156 L-50.21738536312038,50.764283224321126 L-49.87272049110249,50.73963189226714 L-49.52871491050351,50.707047805784555 L-49.18555117600665,50.66654825638818 L-48.84341139554959,50.61815473612006 L-48.50247713368464,50.56189292614431 L-48.16292931522721,50.49779268311868 L-47.82494812924377,50.425888023350545 L-47.488712933430286,50.34621710474525 L-47.154402158931816,50.258822206556744 L-46.82219321565382,50.16374970695113 L-46.49226239811538,50.06105005839495 L-46.16478479189439,49.95077776088141 L-45.83993418071422,49.832991333008685 L-45.51788295422132,49.707753280925616 L-45.19880201650254,49.575130065161375 L-44.882860695390875,49.4351920653566 L-44.57022665260765,49.28801354291477 L-44.26106579478885,49.13367260159366 L-43.95554218544286,48.972251146057715 L-43.65381795788629,48.80383483841342 L-43.3560532292041,48.6285130527507 L-43.06240601527969,48.44637882771438 L-42.773032146940054,48.25752881713112 L-42.48808518726044,48.06206323871771 L-42.2077163500725,47.86008582089822 L-41.93207441971911,47.65170374775804 L-41.66130567209842,47.43702760216411 L-41.39555379703912,47.21617130708151 L-41.134959822048025,46.98925206511758 L-40.879662037470496,46.75639029632556 L-40.629795923103416,46.51770957430084 L-40.38549407629962,46.27333656060374 L-40.146886141602025,46.02340093754354 L-39.91409874194461,45.768035339359514 L-39.687255411457045,45.50737528183544 L-39.46647652990835,45.24155909038494 L-39.25187925882453,44.97072782664583 L-39.04357747931405,44.69502521362246 L-38.84168173163417,44.41459755941567 L-38.64629915653005,44.12959367958097 L-38.457533438378114,43.84016481815605 L-38.275484750163386,43.54646456739953 L-38.100249700320376,43.24864878628365 L-37.93192128146552,42.94687551778399 L-37.77058882104848,42.64130490501024 L-37.61633793394835,42.332099106222486 L-37.46925047704021,42.01942220877811 L-37.32940450575575,41.70344014205493 L-37.19687423266133,41.3843205893969 L-37.07172998807539,41.06223289912893 L-36.954038182745904,40.73734799468824 L-36.843861272608066,40.40983828391981 L-36.74125772564046,40.07987756758405 L-36.64628199083772,39.74764094712533 L-36.558984469315874,39.41330473175032 L-36.47941148756578,39.07704634486526 L-36.40760527286889,38.7390442299221 L-36.343603930888364,38.399477755723254 L-36.28744142544736,38.05852712123531 L-36.23914756050539,37.716373259962175 L-36.19874796434206,37.37319774392849 L-36.16626407595692,37.0291826873241 L-36.14171313369225,36.68451064986086 L-36.12510816608523,36.33936453989304 L-36.11645798495394,35.993927517352695 L-36.115767180721235,35.64838289655148 L-36.12303611997868,35.30291404890062 L-36.138260945292046,34.957704305600515 L-36.16143357724833,34.612936860351745 L-36.19254171874329,34.268794672138974 L-36.231568861507185,33.92546036813946 L-36.27849429486528,33.583116146807626 L-36.333293116728484,33.24194368118716 L-36.39593624680818,32.9021240225019 L-36.46639044204842,32.56383750407677 L-36.5446183142671,32.22726364563961 L-36.63057834999688,31.892581058054773 L-36.72422493251532,31.559967348539125 L-36.825508366052446,31.22959902641051 L-36.93437490216297,30.901651409418953 L-37.05076676824922,30.57629853071015 L-37.174622198219474,30.253713046470658 L-37.305875465265636,29.93406614430382 L-37.444456916742695,29.617527452385037 " />
			<path d="M-78.29445038993258,55.554829116273815 L-62.270256251036585,45.81924080653145 " />
			<path d="M-78.98274211355384,54.571846663127026 L-79.0275839267042,54.62266196615206 L-79.06651208077601,54.6781379253479 L-79.09904606956461,54.73758977815031 L-79.12478431267536,54.80028368590624 L-79.14340911239546,54.865445791945895 L-79.15469057516742,54.93227177361367 L-79.15848944925972,54.99993677035326 L-79.15475884360815,55.06760556530048 L-79.14354480661149,55.134442894708336 L-79.12498575773722,55.1996237579507 L-79.09931077895311,55.2623436008441 L-79.06683678707437,55.321828246590684 L-79.02796462192913,55.3773434517606 L-78.98317409862773,55.42820396936044 L-78.93301808500757,55.473782007118466 L-78.87811567735824,55.51351497658267 L-78.81914455866149,55.54691243738123 L-78.75683263367175,55.5735621509296 L-78.69194904408853,55.593135168860776 L-78.62529467472436,55.60538989337018 L-78.55769226785435,55.61017505935667 L-78.48997626777017,55.60743160154984 L-78.42298252089127,55.597193383576915 L-78.35753795856887,55.57958677997011 L-78.29445038993258,55.554829116273815 " />
			<path d="M-64.35368444381585,42.84379698582347 L-78.98274211355384,54.57184666312703 " />
			<path d="M-45.705114615970025,43.51741171003904 L-45.932118882469254,43.671490665552085 L-46.16350845791752,43.81890208273105 L-46.39908756363309,43.95952123680009 L-46.63865687617335,44.09322914991608 L-46.88201369598233,44.219912691835695 L-47.128952118894816,44.33946467563495 L-47.379263210351766,44.45178394840001 L-47.63273518217985,44.55677547681266 L-47.889153571785386,44.65435042755796 L-48.148301423611066,44.74442624248613 L-48.409959472702084,44.82692670846497 L-48.67390633022611,44.90178202186377 L-48.93991867079039,44.96892884761417 L-49.207771421397304,45.028310372797954 L-49.4772379518786,45.07987635471642 L-49.74809026664714,45.123583163400745 L-50.02009919760392,45.15939381852728 L-50.293034598037174,45.187278020706614 L-50.56666553734948,45.20721217711988 L-50.84076049644806,45.21917942148059 L-51.11508756363309,45.22316962830528 L-51.389414630818116,45.21917942148059 L-51.66350958991669,45.20721217711988 L-51.937140529229,45.18727802070662 L-52.21007592966226,45.159393818527285 L-52.48208486061904,45.12358316340075 L-52.75293717538757,45.079876354716426 L-53.02240370586887,45.02831037279796 L-53.29025645647578,44.96892884761418 L-53.55626879704006,44.901782021863774 L-53.82021565456409,44.82692670846497 L-54.081873703655106,44.74442624248614 L-54.34102155548079,44.65435042755797 L-54.59743994508632,44.556775476812675 L-54.85091191691441,44.45178394840003 L-55.10122300837136,44.339464675634964 L-55.34816143128384,44.21991269183571 L-55.59151825109283,44.0932291499161 L-55.83108756363308,43.959521236800114 L-56.06666666934865,43.81890208273107 L-56.298056244796925,43.671490665552106 L-56.52506051129615,43.51741171003906 L-56.74748740057376,43.356795582370864 L-56.965148717275305,43.18977817982673 L-57.17786029819652,43.0165008158035 L-57.38544216810374,42.83711010025037 L-57.587718692010974,42.65175781562229 L-57.78451872378459,42.460600788456816 L-57.975675750950074,42.263800756683196 L-58.161028035578155,42.061524232775966 L-58.34041875113128,41.85394236286874 L-58.51369611515452,41.641230781947534 L-58.68071351769865,41.42356946524598 L-58.84132964536685,41.201142575968376 L-58.9954086008799,40.974138309469154 L-59.142820018058856,40.742748734020886 L-59.283439172127906,40.50716962830531 L-59.41714708524388,40.26760031576506 L-59.5438306271635,40.02424349595608 L-59.66338261096276,39.77730507304359 L-59.77570188372783,39.52699398158665 L-59.880693412140474,39.27352200975856 L-59.97826836288577,39.01710362015303 L-60.06834417781394,38.75795576832734 L-60.15084464379277,38.49629771923633 L-60.22569995719158,38.232350861712305 L-60.292846782941986,37.966338521148025 L-60.35222830812577,37.69848577054111 L-60.40379429004423,37.429019240059816 L-60.44750109872856,37.15816692529128 L-60.4833117538551,36.8861579943345 L-60.51119595603444,36.61322259390124 L-60.5311301124477,36.339591654588936 L-60.54309735680841,36.06549669549035 L-60.5470875636331,35.791169628305326 L-60.54309735680842,35.5168425611203 L-60.5311301124477,35.242747602021716 L-60.51119595603444,34.96911666270941 L-60.483311753855105,34.696181262276156 L-60.44750109872857,34.42417233131937 L-60.403794290044246,34.153320016550836 L-60.35222830812579,33.88385348606954 L-60.29284678294201,33.61600073546262 L-60.225699957191594,33.34998839489834 L-60.150844643792794,33.086041537374314 L-60.06834417781396,32.824383488283296 L-59.9782683628858,32.56523563645761 L-59.8806934121405,32.30881724685207 L-59.775701883727855,32.05534527502399 L-59.66338261096279,31.805034183567034 L-59.54383062716353,31.558095760654552 L-59.41714708524392,31.314738940845565 L-59.283439172127935,31.07516962830531 L-59.14282001805889,30.839590522589738 L-58.99540860087993,30.608200947141462 L-58.84132964536688,30.38119668064224 L-58.680713517698685,30.158769791364627 L-58.513696115154545,29.941108474663075 L-58.34041875113131,29.728396893741863 L-58.161028035578184,29.52081502383464 L-57.9756757509501,29.318538499927406 L-57.78451872378463,29.121738468153783 L-57.587718692011,28.930581440988302 L-57.38544216810377,28.745229156360224 L-57.17786029819655,28.565838440807095 L-56.96514871727534,28.392561076783856 L-56.74748740057379,28.22554367423972 L-56.525060511296175,28.064927546571525 L-56.29805624479695,27.910848591058475 L-56.06666666934868,27.76343717387951 L-55.831087563633105,27.622818019810467 L-55.59151825109285,27.489110106694483 L-55.34816143128386,27.362426564774864 L-55.10122300837138,27.24287458097561 L-54.85091191691443,27.130555308210546 L-54.59743994508634,27.0255637797979 L-54.34102155548081,26.9279888290526 L-54.08187370365512,26.83791301412443 L-53.8202156545641,26.7554125481456 L-53.556268797040076,26.680557234746797 L-53.290256456475795,26.61341040899639 L-53.022403705868875,26.554028883812606 L-52.752937175387586,26.50246290189414 L-52.48208486061905,26.45875609320982 L-52.21007592966227,26.422945438083282 L-51.937140529229005,26.395061235903945 L-51.6635095899167,26.37512707949069 L-51.389414630818116,26.363159835129974 L-51.11508756363309,26.359169628305292 L-50.84076049644806,26.363159835129977 L-50.56666553734948,26.37512707949069 L-50.293034598037174,26.39506123590395 L-50.02009919760391,26.422945438083286 L-49.74809026664713,26.458756093209825 L-49.4772379518786,26.502462901894148 L-49.207771421397304,26.554028883812613 L-48.93991867079039,26.613410408996398 L-48.67390633022611,26.680557234746804 L-48.409959472702084,26.755412548145607 L-48.14830142361107,26.83791301412444 L-47.889153571785386,26.927988829052605 L-47.63273518217986,27.025563779797903 L-47.37926321035177,27.13055530821055 L-47.12895211889482,27.24287458097561 L-46.882013695982344,27.362426564774864 L-46.638656876173364,27.489110106694483 L-46.39908756363311,27.62281801981046 L-46.163508457917544,27.763437173879502 L-45.932118882469275,27.910848591058468 L-45.705114615970054,28.06492754657151 L-45.48268772669244,28.225543674239706 L-45.265026409990895,28.39256107678384 L-45.05231482906969,28.565838440807074 L-44.84473295916247,28.745229156360196 L-44.642456435255234,28.930581440988274 L-44.445656403481614,29.12173846815375 L-44.25449937631613,29.318538499927367 L-44.06914709168806,29.520815023834597 L-43.88975637613493,29.728396893741817 L-43.7164790121117,29.941108474663025 L-43.549461609567565,30.15876979136457 L-43.38884548189937,30.381196680642176 L-43.23476652638632,30.6082009471414 L-43.08735510920736,30.839590522589667 L-42.946735955138315,31.075169628305233 L-42.81302804202233,31.314738940845487 L-42.68634450010271,31.558095760654467 L-42.56679251630346,31.805034183566946 L-42.454473243538395,32.055345275023896 L-42.34948171512575,32.30881724685197 L-42.25190676438045,32.5652356364575 L-42.16183094945228,32.82438348828319 L-42.07933048347344,33.0860415373742 L-42.00447517007464,33.349988394898226 L-41.937328344324236,33.6160007354625 L-41.87794681914045,33.88385348606941 L-41.82638083722198,34.1533200165507 L-41.782674028537656,34.424172331319234 L-41.74686337341112,34.69618126227601 L-41.71897917123178,34.96911666270927 L-41.699045014818516,35.242747602021566 L-41.6870777704578,35.51684256112014 L-41.68308756363311,35.79116962830517 L-41.68707777045779,36.06549669549019 L-41.6990450148185,36.339591654588766 L-41.71897917123175,36.61322259390107 L-41.74686337341109,36.886157994334326 L-41.78267402853762,37.158166925291106 L-41.82638083722194,37.42901924005964 L-41.8779468191404,37.69848577054093 L-41.93732834432418,37.96633852114784 L-42.004475170074585,38.23235086171212 L-42.07933048347338,38.49629771923614 L-42.16183094945221,38.75795576832716 L-42.251906764380365,39.017103620152845 L-42.34948171512566,39.27352200975837 L-42.4544732435383,39.52699398158646 L-42.56679251630336,39.77730507304341 L-42.68634450010261,40.02424349595589 L-42.813028042022225,40.267600315764874 L-42.946735955138195,40.50716962830513 L-43.08735510920724,40.7427487340207 L-43.234766526386196,40.97413830946897 L-43.38884548189923,41.2011425759682 L-43.54946160956742,41.42356946524581 L-43.716479012111556,41.64123078194736 L-43.889756376134784,41.85394236286857 L-44.06914709168791,42.061524232775795 L-44.25449937631598,42.26380075668303 L-44.44565640348145,42.46060078845665 L-44.64245643525506,42.65175781562213 L-44.84473295916229,42.837110100250214 L-45.05231482906951,43.01650081580334 L-45.26502640999071,43.18977817982658 L-45.482687726692255,43.35679558237072 L-45.70511461596986,43.51741171003892 " />
			<path d="M-3.3,90.0 L-3.3,3.4856850115867672 " />
			<path d="M3.3,90.0 L3.3,3.4856850115868525 " />
			<path d="M0.5999999999999999,120.0 L3.3000000000000007,90.0 " />
			<path d="M3.2999999999998613,3.485685011586806 L3.4388870266252716,3.34873946703956 L3.5720957569718497,3.206264478021691 L3.699406236550838,3.0584952994844974 L3.8206082500754732,2.9056759281542788 L3.9355016685688344,2.7480586996445173 L4.043896779817163,2.585903871798869 L4.145614601622995,2.4194791949529577 L4.240487177340889,2.2490594698245516 L4.328357853207726,2.0749260937621368 L4.409081537009679,1.8973665961011232 L4.482524937658731,1.716674163394903 L4.548566785283152,1.5331471553046987 L4.607098031468526,1.347088611947571 L4.65802202931868,1.1588057535160434 L4.701254693039211,0.968609472995586 L4.736724636780098,0.776813822817571 L4.764373292508137,0.5837354962953497 L4.784155006714585,0.38969330469969826 L4.796037115798313,0.19500765083708957 L4.8,1.8228686585423862e-14 L4.796037115798314,-0.19500765083705313 L4.784155006714587,-0.38969330469966196 L4.764373292508141,-0.5837354962953136 L4.736724636780104,-0.7768138228175351 L4.7012546930392185,-0.9686094729955502 L4.658022029318689,-1.158805753516008 L4.607098031468536,-1.3470886119475358 L4.548566785283163,-1.5331471553046645 L4.482524937658743,-1.7166741633948688 L4.409081537009693,-1.89736659610109 L4.328357853207742,-2.074926093762104 L4.240487177340907,-2.2490594698245197 L4.145614601623014,-2.419479194952926 L4.043896779817182,-2.5859038717988385 L3.9355016685688557,-2.7480586996444876 L3.820608250075495,-2.90567592815425 L3.6994062365508613,-3.058495299484469 L3.5720957569718736,-3.206264478021664 L3.4388870266252973,-3.348739467039534 L3.299999999999888,-3.485685011586781 " />
			<path d="M-0.5999999999999999,120.0 L-0.5840947480321812,120.06587872333293 L-0.5609797745342504,120.12958650329996 L-0.5309403971240381,120.1903369685899 L-0.49434740418270207,120.24738025124203 L-0.4516524780613491,120.30001224257458 L-0.4033826197801407,120.34758328428747 L-0.35013364403810937,120.38950618746178 L-0.29256282482745793,120.42526348047384 L-0.23138078243054233,120.45441379636029 L-0.16734271194167094,120.47659732079171 L-0.10123906158368094,120.49154023340891 L-0.03388577588065954,120.49905808770015 L0.0338857758806588,120.49905808770015 L0.10123906158368019,120.49154023340891 L0.16734271194167025,120.47659732079171 L0.2313807824305416,120.45441379636029 L0.29256282482745727,120.42526348047384 L0.35013364403810887,120.38950618746178 L0.40338261978014034,120.34758328428747 L0.451652478061349,120.30001224257458 L0.49434740418270184,120.24738025124203 L0.5309403971240381,120.1903369685899 L0.5609797745342504,120.12958650329996 L0.5840947480321812,120.06587872333293 L0.5999999999999999,120.0 " />
			<path d="M3.3,-3.4856850115868383 L3.3,-43.86717044600891 " />
			<path d="M-3.3,90.0 L-0.5999999999999996,120.0 " />
			<path d="M3.3000000000001384,-43.86717044600887 L3.6544347218793343,-43.943745882627134 L4.00709736572674,-44.02810718419022 L4.357816921311952,-44.120213442918775 L4.706423320630727,-44.22001999541338 L5.052747520372957,-44.327478444312305 L5.396621583893729,-44.44253668176002 L5.73787876264777,-44.565138914674804 L6.076353577047762,-44.69522569180358 L6.411881896707321,-44.832733932550425 L6.744301020029741,-44.97759695756514 L7.073449753103892,-45.129744521076816 L7.399168487869032,-45.28910284495686 L7.721299279510613,-45.45559465449483 L8.03968592304957,-45.629139215869884 L8.35417402908793,-45.8096523752995 L8.664611098674047,-45.9970465998467 L8.970846597251102,-46.19123101986572 L9.272732027653078,-46.39211147306581 L9.570121002112774,-46.5995905501716 L9.86286931324693,-46.813567642158006 L10.150835003984072,-47.03393898903673 L10.433878436401159,-47.260597730170645 L10.711862359435628,-47.49343395609184 L10.98465197544005,-47.73233476179793 L11.252115005547074,-47.977184301501055 L11.514121753812992,-48.22786384480281 L11.77054517010882,-48.484251834268065 L12.021260911728385,-48.74622394436953 L12.266147403683549,-49.01365314177467 L12.505085897657352,-49.28640974694563 L12.737960529586445,-49.56436149702242 L12.96465837584493,-49.84737360995864 L13.185069508002343,-50.13530884987892 L13.399087046129234,-50.42802759362616 L13.606607210624487,-50.72538789846647 L13.807529372539264,-51.02724557091882 L14.001756102373163,-51.33345423667616 L14.189193217318898,-51.64386541158403 L14.369749826932665,-51.95832857364223 L14.543338377207961,-52.27669123599474 L14.709874693031562,-52.598799020872356 L14.869278019000989,-52.92449573445225 L15.021471058583774,-53.25362344259821 L15.166380011599436,-53.58602254744473 L15.30393461000605,-53.92153186478786 L15.434068151974039,-54.259988702245344 L15.55671753423068,-54.60122893814804 L15.671823282659597,-54.9450871011244 L15.779329581140482,-55.29139645033952 L15.879184298614957,-55.63998905634968 L15.971339014365544,-55.990695882533295 L16.055749041495435,-56.34334686705878 L16.132373448597686,-56.69777100534945 L16.201175079603345,-57.053796433005715 L16.262120571798853,-57.41125050914405 L16.315180372004004,-57.769959900112624 L16.36032875090265,-58.12975066354282 L16.397543815519132,-58.490448332695884 L16.42680751983444,-58.85187800106389 L16.448105673536944,-59.213864407183955 L16.461427948903427,-59.576232019624584 L16.466767885807148,-59.93880512210286 L16.46412289485039,-60.30140789869137 L16.453494258620136,-60.66386451907338 L16.434887131066095,-61.02599922380499 L16.408310535001497,-61.38763640954296 L16.373777357727835,-61.74860071419682 L16.33130434478566,-62.10871710196399 L16.280912091834466,-62.46781094820667 L16.222625034665615,-62.825708124129385 L16.156471437353154,-63.18223508121606 L16.082483378548204,-63.537218935385695 L16.000696735923682,-63.890487550825945 L15.91115116877677,-64.24186962346369 L15.813890098797684,-64.59119476403245 L15.708960689013967,-64.9382935806961 L15.596413820920603,-65.28299776118892 L15.47630406980698,-65.62514015443227 L15.348689678292695,-65.96455485158798 L15.213632528085034,-66.30107726650954 L15.071198109971798,-66.63454421555188 L14.921455492064071,-66.96479399670093 L14.764477286304272,-67.29166646798491 L14.600339613255796,-67.61500312512896 L14.429122065191246,-67.93464717841579 L14.250907667497216,-68.25044362871472 L14.065782838414325,-68.56223934264275 L13.873837347131985,-68.86988312682057 L13.675164270258287,-69.17322580118801 L13.469859946686066,-69.4721202713433 L13.258023930877044,-69.76642159987075 L13.03975894458671,-70.05598707662263 L12.815170827053343,-70.34067628792099 L12.584368483675343,-70.62035118464588 L12.347463833201703,-70.89487614917702 L12.104571753461336,-71.1641180611563 L11.855810025657453,-71.42794636203945 L11.60129927725409,-71.68623311840535 L11.34116292348245,-71.93885308399251 L11.075527107495402,-72.18568376043235 L10.80452063919921,-72.42660545665021 L10.528274932792097,-72.6615013469048 L10.246923943039976,-72.89025752743848 L9.960604100320207,-73.1127630717105 L9.669454244464935,-73.32891008418653 L9.373615557436013,-73.5385937526585 L9.073231494864242,-73.74171239906926 L8.768447716486051,-73.93816752881744 L8.459412015511392,-74.12786387851864 L8.14627424695709,-74.31070946219977 L7.829186254980397,-74.4866156159041 L7.508301799247992,-74.65549704068545 L7.183776480376116,-74.81727184397064 L6.855767664478026,-74.97186157927023 L6.5244344068553275,-75.11919128421798 L6.189937374870206,-75.25918951692111 L5.852438770035939,-75.3917883906033 L5.512102249363505,-75.51692360652369 L5.1690928460023775,-75.63453448515617 L4.82357688921403,-75.74456399561356 L4.475721923716935,-75.84695878330255 L4.125696628442178,-75.94166919579601 L3.773670734739074,-76.02864930690993 L3.4198149440704566,-76.1078569389737 L3.064300845237544,-76.1792536832824 L2.707300831174535,-76.24280491872176 L2.3489880153532545,-76.29847982855631 L1.9895361478384188,-76.34625141537272 L1.6291195310341988,-76.38609651417119 L1.267912935162951,-76.41799580359847 L0.9060915135170979,-76.44193381531694 L0.5438307175252534,-76.45789894150545 L0.18130621167377745,-76.46588344048806 L-0.1813062116749821,-76.46588344048804 L-0.5438307175264574,-76.45789894150542 L-0.9060915135183009,-76.44193381531687 L-1.267912935164152,-76.41799580359837 L-1.6291195310353979,-76.38609651417107 L-1.989536147839615,-76.34625141537258 L-2.348988015354447,-76.29847982855614 L-2.7073008311757234,-76.24280491872157 L-3.064300845238714,-76.17925368328217 L-3.419814944071606,-76.10785693897344 L-3.773670734740204,-76.02864930690967 L-4.125696628443287,-75.94166919579573 L-4.475721923718023,-75.84695878330224 L-4.823576889215097,-75.74456399561323 L-5.169092846003423,-75.63453448515583 L-5.5121022493645295,-75.51692360652333 L-5.852438770036941,-75.39178839060293 L-6.189937374871185,-75.25918951692071 L-6.524434406856285,-75.11919128421756 L-6.855767664478961,-74.9718615792698 L-7.183776480377028,-74.8172718439702 L-7.508301799248881,-74.65549704068499 L-7.829186254981264,-74.48661561590363 L-8.146274246957931,-74.3107094621993 L-8.45941201551221,-74.12786387851816 L-8.768447716486849,-73.93816752881695 L-9.073231494865016,-73.74171239906876 L-9.373615557436763,-73.53859375265799 L-9.66945424446566,-73.328910084186 L-9.96060410032091,-73.11276307170996 L-10.246923943040654,-72.89025752743794 L-10.528274932792753,-72.66150134690425 L-10.804520639199842,-72.42660545664965 L-11.075527107496011,-72.1856837604318 L-11.341162923483036,-71.93885308399194 L-11.601299277254656,-71.6862331184048 L-11.855810025657995,-71.42794636203888 L-12.104571753461855,-71.16411806115573 L-12.3474638332022,-70.89487614917645 L-12.584368483675815,-70.62035118464532 L-12.815170827053798,-70.34067628792042 L-13.039758944587142,-70.05598707662207 L-13.258023930877455,-69.7664215998702 L-13.469859946686455,-69.47212027134276 L-13.675164270258657,-69.17322580118747 L-13.873837347132334,-68.86988312682001 L-14.065782838414654,-68.56223934264221 L-14.250907667497527,-68.2504436287142 L-14.429122065191537,-67.93464717841525 L-14.60033961325607,-67.61500312512844 L-14.764477286304528,-67.2916664679844 L-14.921455492064306,-66.96479399670042 L-15.071198109972018,-66.63454421555139 L-15.213632528085236,-66.30107726650905 L-15.348689678292883,-65.9645548515875 L-15.476304069807151,-65.62514015443179 L-15.59641382092076,-65.28299776118847 L-15.70896068901411,-64.93829358069564 L-15.813890098797811,-64.59119476403201 L-15.911151168776884,-64.24186962346326 L-16.000696735923782,-63.890487550825526 L-16.082483378548293,-63.53721893538529 L-16.15647143735323,-63.18223508121566 L-16.222625034665683,-62.825708124129 L-16.28091209183452,-62.4678109482063 L-16.331304344785707,-62.108717101963634 L-16.373777357727874,-61.74860071419648 L-16.408310535001526,-61.38763640954263 L-16.434887131066116,-61.025999223804675 L-16.45349425862015,-60.66386451907308 L-16.464122894850398,-60.30140789869109 L-16.466767885807144,-59.93880512210259 L-16.46142794890342,-59.57623201962433 L-16.44810567353693,-59.21386440718372 L-16.426807519834426,-58.85187800106366 L-16.397543815519114,-58.49044833269567 L-16.360328750902628,-58.12975066354262 L-16.31518037200398,-57.76995990011245 L-16.262120571798825,-57.411250509143876 L-16.20117507960332,-57.053796433005566 L-16.13237344859766,-56.697771005349324 L-16.055749041495407,-56.343346867058656 L-15.971339014365519,-55.990695882533196 L-15.879184298614934,-55.63998905634959 L-15.77932958114046,-55.29139645033945 L-15.67182328265958,-54.945087101124344 L-15.556717534230662,-54.60122893814799 L-15.434068151974026,-54.259988702245316 L-15.303934610006042,-53.92153186478784 L-15.166380011599434,-53.58602254744472 L-15.02147105858378,-53.25362344259822 L-14.869278019000998,-52.92449573445227 L-14.709874693031578,-52.59879902087239 L-14.543338377207988,-52.27669123599479 L-14.369749826932697,-51.95832857364229 L-14.189193217318941,-51.6438654115841 L-14.001756102373212,-51.333454236676246 L-13.807529372539326,-51.02724557091892 L-13.606607210624558,-50.72538789846658 L-13.399087046129315,-50.428027593626275 L-13.185069508002437,-50.13530884987904 L-12.964658375845037,-49.84737360995877 L-12.737960529586564,-49.56436149702256 L-12.505085897657482,-49.28640974694578 L-12.266147403683691,-49.013653141774824 L-12.02126091172854,-48.7462239443697 L-11.77054517010899,-48.48425183426824 L-11.514121753813177,-48.227863844803 L-11.252115005547273,-47.97718430150124 L-10.984651975440265,-47.73233476179813 L-10.711862359435857,-47.49343395609204 L-10.433878436401404,-47.26059773017084 L-10.150835003984335,-47.033938989036926 L-9.862869313247208,-46.81356764215821 L-9.570121002113067,-46.59959055017181 L-9.272732027653388,-46.392111473066024 L-8.970846597251429,-46.19123101986593 L-8.664611098674392,-45.99704659984691 L-8.354174029088293,-45.80965237529971 L-8.039685923049948,-45.62913921587009 L-7.721299279511009,-45.455594654495044 L-7.399168487869446,-45.28910284495707 L-7.073449753104324,-45.12974452107702 L-6.74430102003019,-44.97759695756534 L-6.411881896707788,-44.832733932550624 L-6.076353577048246,-44.69522569180377 L-5.737878762648273,-44.56513891467499 L-5.39662158389425,-44.442536681760195 L-5.0527475203734955,-44.32747844431248 L-4.706423320631283,-44.220019995413544 L-4.3578169213125255,-44.12021344291893 L-4.007097365727332,-44.02810718419036 L-3.6544347218799422,-43.94374588262727 L-3.3000000000007637,-43.867170446009 " />
			<path d="M-3.3,-3.4856850115867672 L-3.3,-43.867170446008885 " />
			<path d="M-3.29999999999993,3.485685011586741 L-3.4388870266253346,3.3487394670394957 L-3.572095756971907,3.206264478021627 L-3.6994062365508897,3.0584952994844343 L-3.8206082500755203,2.905675928154217 L-3.9355016685688766,2.748058699644457 L-4.043896779817199,2.5859038717988114 L-4.145614601623027,2.419479194952902 L-4.240487177340918,2.2490594698244983 L-4.328357853207751,2.0749260937620866 L-4.409081537009699,1.897366596101076 L-4.482524937658748,1.7166741633948588 L-4.548566785283166,1.533147155304658 L-4.607098031468537,1.3470886119475336 L-4.658022029318688,1.1588057535160097 L-4.701254693039218,0.9686094729955561 L-4.736724636780102,0.7768138228175452 L-4.7643732925081395,0.5837354962953281 L-4.784155006714586,0.38969330469968066 L-4.796037115798313,0.1950076508370762 L-4.8,9.114343292711931e-15 L-4.796037115798314,-0.19500765083705798 L-4.784155006714587,-0.38969330469966257 L-4.764373292508141,-0.58373549629531 L-4.736724636780105,-0.7768138228175272 L-4.701254693039221,-0.9686094729955382 L-4.658022029318693,-1.158805753515992 L-4.607098031468542,-1.3470886119475158 L-4.548566785283171,-1.5331471553046407 L-4.482524937658754,-1.7166741633948417 L-4.4090815370097065,-1.897366596101059 L-4.328357853207759,-2.0749260937620697 L-4.240487177340926,-2.2490594698244823 L-4.145614601623037,-2.419479194952886 L-4.043896779817209,-2.585903871798796 L-3.935501668568887,-2.7480586996444423 L-3.820608250075531,-2.9056759281542024 L-3.6994062365509017,-3.0584952994844206 L-3.572095756971919,-3.2062644780216134 L-3.438887026625347,-3.3487394670394823 L-3.2999999999999434,-3.4856850115867286 " />
			<path d="M9.866881593614815,-60.0 L9.862894138049418,-59.71951541210745 L9.850934994215839,-59.43925752599912 L9.831013828097028,-59.15945286022743 L9.803146740983745,-58.88032756702926 L9.76735625646068,-58.60210724953835 L9.723671302201758,-58.32501677944142 L9.672127186589336,-58.049280115225585 L9.612765570176183,-57.7751201211638 L9.545634432013332,-57.5027583871847 L9.470788030870978,-57.23241504977248 L9.388286861383813,-56.96430861404146 L9.298197605156217,-56.69865577712926 L9.20059307686681,-56.43567125305124 L9.095552165415974,-56.175567599157795 L8.983159770163846,-55.91855504433482 L8.863506732310398,-55.66484131908611 L8.736689761472986,-55.41463148763505 L8.602811357520766,-55.16812778218147 L8.461979727729124,-54.92552943944729 L8.314308699321117,-54.687032539643404 L8.15991762746656,-54.45282984798777 L7.998931298813161,-54.22311065890283 L7.831479830627669,-53.99806064301822 L7.657698565628533,-53.777861697102395 L7.477727962595099,-53.5626917970445 L7.291713482841735,-53.3527248540053 L7.099805472648672,-53.14813057385338 L6.902159041744558,-52.94907432000034 L6.6989339379389525,-52.75571697974571 L6.4902944180060995,-52.56821483423978 L6.276409114924315,-52.386719432169215 L6.057450901578316,-52.21137746726786 L5.833596751034643,-52.042330659751386 L5.605027593503099,-51.87971564177192 L5.371928170099837,-51.72366384698503 L5.134486883530276,-51.57430140431843 L4.892895645812536,-51.43174903602821 L4.647349723164467,-51.29612196012502 L4.398047578179654,-51.16752979724908 L4.1451907094199365,-51.046076482069246 L3.8889834885541186,-50.93186017927777 L3.629632995174479,-50.824973204248636 L3.367348849424606,-50.72550194842364 L3.102343042573832,-50.633526809486476 L2.834829765675199,-50.549122126381235 L2.565025236445453,-50.47235611922797 L2.293147524506984,-50.403290834183714 L2.0194163751329652,-50.341982093293694 L1.7440530316381437,-50.2884794493731 L1.4672800565588402,-50.242826145956016 L1.1893211517666864,-50.20505908234382 L0.9104009776614956,-50.175208783781315 L0.6307449715894008,-50.15329937678465 L0.3505791656330268,-50.13934856964111 L0.07013000392096606,-50.13336763809633 L-0.21037584039578244,-50.135361416240706 L-0.49071164835248093,-50.14532829260224 L-0.7706508384163501,-50.16326021144897 L-1.0499671496211866,-50.18914267930008 L-1.3284348244428823,-50.22295477664022 L-1.6058287912680378,-50.26466917482773 L-1.8819248463081848,-50.314252158182995 L-2.1564998348125934,-50.37166365123922 L-2.429331831433191,-50.436857251133375 L-2.7002003195958144,-50.50978026511138 L-2.968886369732825,-50.590373753117 L-3.2351728162330238,-50.678572575430216 L-3.49884443296584,-50.774305445316394 L-3.759688107237946,-50.87749498664384 L-4.017493012041681,-50.988057796423064 L-4.272050776456062,-51.105904512217336 L-4.523155654062667,-51.23093988436983 L-4.770604689240268,-51.36306285298929 L-5.014197881203792,-51.50216662963163 L-5.25373834565504,-51.64813878361184 L-5.4890324739145,-51.80086133287607 L-5.7198900894056495,-51.960210839360656 L-5.946124601365238,-52.126058508761076 L-6.167553155655363,-52.29827029462989 L-6.383996782555398,-52.47670700671992 L-6.595280541414338,-52.66122442348479 L-6.80123366204666,-52.851673408646036 L-7.001689682757395,-53.04790003173261 L-7.196486584884855,-53.2497456924952 L-7.385466923752294,-53.45704724909498 L-7.568477955922623,-53.66963714996304 L-7.745371762653368,-53.88734356922404 L-7.916005369452037,-54.10999054557454 L-8.080240861635334,-54.33739812450377 L-8.237945495798742,-54.569382503741956 L-8.388991807106445,-54.805756181818595 L-8.533257712314823,-55.04632810961058 L-8.670626608446302,-55.29090384475771 L-8.80098746703374,-55.53928570882086 L-8.924234923859244,-55.79127294705564 L-9.040269364114836,-56.04666189067245 L-9.148997002916165,-56.305246121451965 L-9.250329961104185,-56.56681663858264 L-9.344186336273504,-56.83116202758577 L-9.430490268970058,-57.09806863119132 L-9.509172004004535,-57.367320722026484 L-9.580167946832034,-57.63870067697743 L-9.64342071495239,-57.91198915308327 L-9.698879184289595,-58.186965264820124 L-9.746498530512861,-58.463406762631884 L-9.786240265265898,-58.74109021256357 L-9.818072267275145,-59.01979117685186 L-9.841968808311812,-59.299284395327064 L-9.857910573986713,-59.57934396747968 L-9.865884679361146,-59.85974353504464 L-9.865884679361146,-60.14025646495545 L-9.85791057398671,-60.42065603252041 L-9.841968808311805,-60.700715604673036 L-9.818072267275134,-60.98020882314823 L-9.786240265265883,-61.25890978743652 L-9.746498530512845,-61.53659323736821 L-9.698879184289577,-61.81303473517997 L-9.643420714952368,-62.08801084691682 L-9.580167946832011,-62.36129932302266 L-9.509172004004508,-62.63267927797361 L-9.43049026897003,-62.90193136880877 L-9.344186336273472,-63.16883797241432 L-9.25032996110415,-63.433183361417456 L-9.148997002916133,-63.69475387854813 L-9.0402693641148,-63.95333810932763 L-8.924234923859206,-64.20872705294445 L-8.8009874670337,-64.46071429117922 L-8.670626608446259,-64.70909615524238 L-8.533257712314779,-64.9536718903895 L-8.388991807106395,-65.19424381818148 L-8.23794549579869,-65.43061749625812 L-8.08024086163528,-65.6626018754963 L-7.916005369451983,-65.89000945442554 L-7.74537176265331,-66.11265643077603 L-7.568477955922565,-66.33036285003703 L-7.385466923752232,-66.54295275090509 L-7.196486584884792,-66.75025430750486 L-7.001689682757329,-66.95209996826746 L-6.8012336620465925,-67.14832659135402 L-6.595280541414268,-67.33877557651527 L-6.383996782555329,-67.52329299328014 L-6.1675531556552965,-67.70172970537017 L-5.946124601365173,-67.87394149123898 L-5.719890089405587,-68.03978916063939 L-5.489032473914441,-68.19913866712398 L-5.253738345654982,-68.35186121638819 L-5.014197881203737,-68.4978333703684 L-4.7706046892402165,-68.63693714701074 L-4.523155654062618,-68.7690601156302 L-4.272050776456016,-68.89409548778269 L-4.017493012041639,-69.01194220357695 L-3.7596881072379063,-69.12250501335618 L-3.498844432965802,-69.22569455468363 L-3.2351728162329865,-69.3214274245698 L-2.9688863697327905,-69.40962624688301 L-2.7002003195957807,-69.49021973488863 L-2.429331831433159,-69.56314274886662 L-2.156499834812564,-69.62833634876078 L-1.8819248463081577,-69.685747841817 L-1.6058287912680125,-69.73533082517227 L-1.3284348244428592,-69.77704522335978 L-1.0499671496211653,-69.81085732069992 L-0.7706508384163312,-69.83673978855103 L-0.4907116483524641,-69.85467170739777 L-0.21037584039576776,-69.8646385837593 L0.07013000392097854,-69.86663236190367 L0.3505791656330371,-69.86065143035889 L0.6307449715894088,-69.84670062321534 L0.9104009776615014,-69.82479121621869 L1.18932115176669,-69.79494091765618 L1.4672800565588417,-69.75717385404398 L1.7440530316381428,-69.7115205506269 L2.0194163751329626,-69.6580179067063 L2.2931475245069786,-69.59670916581629 L2.5650252364454458,-69.52764388077203 L2.834829765675191,-69.45087787361877 L3.102343042573821,-69.36647319051352 L3.3673488494245936,-69.27449805157636 L3.6296329951744637,-69.17502679575136 L3.8889834885541017,-69.06813982072224 L4.145190709419919,-68.95392351793076 L4.398047578179635,-68.83247020275093 L4.647349723164447,-68.703878039875 L4.892895645812514,-68.5682509639718 L5.134486883530252,-68.42569859568158 L5.371928170099811,-68.276336153015 L5.60502759350307,-68.1202843582281 L5.833596751034612,-67.95766934024864 L6.057450901578283,-67.78862253273216 L6.276409114924279,-67.61328056783081 L6.490294418006063,-67.43178516576026 L6.698933937938914,-67.24428302025431 L6.902159041744518,-67.0509256799997 L7.099805472648631,-66.85186942614666 L7.291713482841693,-66.64727514599474 L7.477727962595056,-66.43730820295555 L7.657698565628491,-66.22213830289766 L7.831479830627624,-66.00193935698184 L7.998931298813115,-65.77688934109723 L8.159917627466514,-65.54717015201228 L8.314308699321073,-65.31296746035666 L8.46197972772908,-65.07447056055278 L8.60281135752072,-64.83187221781861 L8.736689761472942,-64.58536851236502 L8.863506732310356,-64.33515868091398 L8.983159770163804,-64.08144495566526 L9.095552165415933,-63.8244324008423 L9.200593076866776,-63.56432874694886 L9.298197605156183,-63.30134422287084 L9.388286861383781,-63.03569138595864 L9.470788030870946,-62.76758495022763 L9.545634432013303,-62.49724161281541 L9.612765570176158,-62.22487987883631 L9.672127186589313,-61.95071988477453 L9.723671302201739,-61.6749832205587 L9.767356256460664,-61.39789275046178 L9.803146740983731,-61.119672432970866 L9.831013828097017,-60.8405471397727 L9.850934994215832,-60.56074247400101 L9.862894138049414,-60.28048458789269 L9.866881593614815,-60.000000000000135 " />
			<path d="M1.5,0.0 L1.4960898472769246,0.10823663370092412 L1.484379774833456,0.21590897171117868 L1.46493083356513,0.32245566031653605 L1.437844421246162,0.4273212144175499 L1.4032617538884016,0.5299589135716536 L1.3613631295064355,0.6298336523403969 L1.3123669881272244,0.7264247300814293 L1.256528772944947,0.8192285656405454 L1.1941395985584657,0.9077613227906477 L1.1255247332346037,0.9915614327298002 L1.051041903110014,1.0701920004872396 L0.9710794271727416,1.1432430826914546 L0.8860541927468271,1.2103338248251052 L0.7964094820348305,1.2711144468241296 L0.7026126610496856,1.3252680666690342 L0.6051527429847132,1.372512352461018 L0.5045378387252633,1.412600994369762 L0.4012925077938318,1.4453249887788344 L0.29595502353960074,1.47051372793377 L0.18907456683043478,1.4880358894119066 L0.08120836287812708,1.4978001207766858 L-0.027081223875839805,1.499755515846962 L-0.13522962166809693,1.4938918800982564 L-0.24267299482914612,1.4802397838122894 L-0.3488511833614646,1.458870402697685 L-0.453210623354358,1.4298951468127845 L-0.5552072330098704,1.3934650797251877 L-0.65430924923335,1.3497701309362604 L-0.7499999999999991,1.2990381056766584 L-0.8417805980435729,1.2415334972353362 L-0.929172541823584,1.177556108014009 L-1.0117202102107707,1.1074394864962482 L-1.0889932378846963,1.0315491882801349 L-1.1605887590592547,0.9502808702406356 L-1.226133507838338,0.864058227757859 L-1.2852857642513842,0.7733307857655319 L-1.3377371358230739,0.6785715551361393 L-1.3832141653889003,0.5802745666212575 L-1.4214797567742041,0.4789522952039684 L-1.4523344109038454,0.3751329882915927 L-1.4756172658980045,0.26935791167830536 L-1.4912069357315398,0.16217852763591023 L-1.4990221430845156,0.054153619844901954 L-1.4990221430845154,-0.054153619844907575 L-1.491206935731539,-0.16217852763591584 L-1.4756172658980036,-0.2693579116783109 L-1.4523344109038439,-0.3751329882915982 L-1.4214797567742024,-0.47895229520397375 L-1.383214165388898,-0.5802745666212628 L-1.3377371358230714,-0.6785715551361444 L-1.2852857642513813,-0.7733307857655367 L-1.2261335078383349,-0.8640582277578637 L-1.160588759059251,-0.9502808702406398 L-1.0889932378846925,-1.031549188280139 L-1.0117202102107665,-1.107439486496252 L-0.9291725418235801,-1.177556108014012 L-0.8417805980435694,-1.2415334972353387 L-0.749999999999996,-1.2990381056766602 L-0.6543092492333473,-1.3497701309362617 L-0.555207233009868,-1.3934650797251886 L-0.45321062335435575,-1.4298951468127852 L-0.3488511833614627,-1.4588704026976855 L-0.24267299482914448,-1.4802397838122898 L-0.13522962166809563,-1.4938918800982566 L-0.02708122387583884,-1.499755515846962 L0.0812083628781277,-1.4978001207766858 L0.18907456683043505,-1.4880358894119063 L0.2959550235396007,-1.47051372793377 L0.40129250779383147,-1.4453249887788344 L0.5045378387252626,-1.4126009943697622 L0.6051527429847121,-1.3725123524610185 L0.7026126610496843,-1.3252680666690348 L0.7964094820348291,-1.2711144468241304 L0.8860541927468253,-1.2103338248251065 L0.9710794271727399,-1.1432430826914561 L1.0510419031100118,-1.0701920004872416 L1.1255247332346014,-0.9915614327298026 L1.1941395985584635,-0.9077613227906505 L1.2565287729449452,-0.8192285656405487 L1.3123669881272224,-0.7264247300814329 L1.3613631295064337,-0.6298336523404011 L1.4032617538883998,-0.5299589135716583 L1.4378444212461605,-0.42732121441755505 L1.4649308335651288,-0.32245566031654177 L1.484379774833455,-0.21590897171118484 L1.4960898472769242,-0.10823663370093072 L1.5,-7.028732187495145e-15 " />

       </g>
    </g>
    
</svg>
