<?xml version="1.0" encoding="UTF-8" standalone="no"?>
<svg
   xmlns:svg="http://www.w3.org/2000/svg"
   xmlns="http://www.w3.org/2000/svg"
   width="620.0"
   height="536.4123226431382"

>
    <g transform="scale(3.2326279977661234, -3.2326279977661234)   translate(83.26213408200647,-153.84345832768582)" stroke-width="0.5"  fill="none">
       <!-- hidden lines -->
       <g  stroke="rgb(160,160,160)" fill="none" stroke-dasharray="0.5,0.5" >

       </g>

       <!-- solid lines -->
       <g  stroke="rgb(0,0,0)" fill="none">
			<path d="M40.39921832831732,26.788601192042 L40.321537696022325,27.082687271286414 L40.251335828036765,27.378647742245693 L40.188657829500876,27.67629244846208 L40.133543971421595,27.97543015134608 L40.08602966479822,28.275868653048512 L40.046145437870585,28.577414919948776 L40.0139169165045,28.879875206680204 L39.98936480772696,29.183055180612648 L39.97250488642176,29.486760046712423 L39.96334798519402,29.790794672699345 L39.96189998741017,30.094963714420423 L39.96816182341787,30.399071741359723 L39.982129469948234,30.702923362203688 L40.00379395270081,31.00632335038128 L40.03314135210964,31.30907676949829 L40.07015281228662,31.61098909858518 L40.11480455313661,31.91186635707802 L40.167067885636214,32.21151522945223 L40.22690923026669,32.50974318942902 L40.29429013858902,32.806358623674704 L40.369167317947245,33.10117095491351 L40.45149265928425,33.39399076437463 L40.5412132680522,33.68462991349499 L40.63827149819757,33.972901664799465 L40.74260498919908,34.258620801880866 L40.854146706134784,34.54160374840263 L40.97282498275236,34.82166868604778 L41.09856356751516,35.09863567133835 L41.23128167259432,35.37232675125017 L41.3708940257754,35.642566077548814 L41.517310925246335,35.909180019773174 L41.67043829723144,36.171997276794166 L41.83017775643435,36.43084898687672 L41.99642666925125,36.68556883617454 L42.169078219713526,36.935993165587774 L42.34802147811778,37.181961075915055 L42.533141472298816,37.42331453123218 L42.72431926149998,37.65989846043122 L42.92143201279334,37.89156085685469 L43.124353080000624,38.11815287596074 L43.33295208506418,38.33952893095675 L43.54709500181568,38.555546786339725 L43.7666442420888,38.766067649283514 L43.99145874412046,38.970956258814056 L44.22139406318389,39.17008097271542 L44.45630246439527,39.36331385211075 L44.69603301763436,39.550530743663785 L44.94043169451799,39.731611359348165 L45.18934146736428,39.90643935373324 L45.44260241008394,40.07490239873674 L45.70005180093374,40.23689225579626 L45.96152422706629,40.39230484541326 " />
			<path d="M40.399218328317176,26.78860119204215 L5.848469228349323,6.840716898472483 " />
			<path d="M45.96152422706632,40.392304845413264 L46.4216100950023,40.6534544659759 L46.88547766367412,40.907826258690626 L47.353027091482545,41.155365473261654 L47.8241577443549,41.396018830018804 L48.29876821740537,41.62973453138528 L48.77675635676103,41.856462273026494 L49.258019281549245,42.07615325467732 L49.74245340604142,42.28876019064583 L50.2299544619485,42.494237319990916 L50.72041752086346,42.692540416371685 L51.21373701684573,42.88362679756672 L51.70980676914297,43.067455334660835 L52.208520005045145,43.243986460897545 L52.70976938286594,43.41318218019528 L53.21344701504674,43.57500607532566 L53.719444491378006,43.72942331575172 L54.227652902333276,43.876400665124805 L54.73796286251046,44.015906488438304 L55.25026453417573,44.14791075883659 L55.764447650904664,44.27238506407798 L56.280401541315705,44.38930261265014 L56.79801515289077,44.49863823953653 L57.317177075877865,44.6003684116329 L57.837775567270654,44.69447123281253 L58.35969857485971,44.78092644863902 L58.882833761350334,44.85971545072586 L59.4070685285417,44.9308212807416 L59.932290041562226,44.994228634059965 " />
			<path d="M8.848469228349535,1.6445644757659803 L8.893549549730231,1.3801363724260027 L8.930729494190723,1.1144822571902702 L8.959976033796156,0.8478381176843119 L8.981263188066503,0.5804408209985845 L8.994572047055696,0.3125279032731214 L8.999890788149854,0.044337358687861705 L8.99721468656961,-0.22389257195392442 L8.986546119567267,-0.49192361286128117 L8.967894564315024,-0.759517664922305 L8.941276589486145,-1.0264370172139166 L8.906715840536567,-1.2924445581668174 L8.864243018700007,-1.5573039861979998 L8.813895853715255,-1.8207800196237423 L8.755719070309823,-2.082638605666595 L8.689764348469787,-2.342647128370695 L8.61609027753108,-2.6005746152407134 L8.534762304133025,-2.8561919424208755 L8.445852674080337,-3.109272038231784 L8.349440368165254,-3.3595900848842404 L8.245611032006794,-3.606923718190871 L8.134456899969479,-3.8510532250981604 L8.01607671322908,-4.091761738863405 L7.890575632058209,-4.3288354317032205 L7.758065142409644,-4.562063704742453 L7.618662956880394,-4.791239375094769 L7.472492910144456,-5.016158859908732 L7.319684848947181,-5.23662235721587 L7.160374516758953,-5.452434023420089 L6.994703433190649,-5.6634021472707525 L6.82281876827799,-5.869339320164887 L6.644873211746498,-6.070062602627241 L6.461024837373126,-6.265393686820293 L6.271436962565125,-6.45515905493985 L6.076278003280838,-6.639190133355531 L5.875721324421318,-6.817323442359222 L5.669945085825671,-6.989400741388445 L5.4591320840069235,-7.155269169595663 L5.243469589769016,-7.314781381638658 L5.0231491818491545,-7.4677956785713 L4.798366576733321,-7.6141761337185105 L4.569321454796106,-7.753792713423541 L4.336217282919312,-7.88652139256034 L4.0992611337469045,-8.012244264708363 L3.858663501736866,-8.130849646892 L3.614638116173367,-8.242232178791536 L3.367401751305347,-8.34629291633751 L3.117174033780177,-8.442939419605393 L2.864177247543461,-8.532085834932417 L2.608636136378285,-8.613652971183678 L2.3507777042593285,-8.687568370099727 L2.0908310136991948,-8.753766370663179 L1.8290269822660692,-8.812188167427127 L1.5655981774535048,-8.862781862753605 L1.3007786100845151,-8.90550251291563 L1.0348035264335338,-8.940312168021915 L0.7679091992508829,-8.967179905728774 L0.5003327178753909,-8.986081858709246 L0.23231177762162725,-8.997001235855105 L-0.035915531371181864,-8.99992833719282 L-0.30411093564096126,-8.994860562500321 L-0.5720361900674553,-8.98180241361683 L-0.839453289511706,-8.96076549044377 L-1.1061246802423566,-8.931768480640256 L-1.371813470960967,-8.894837143022352 L-1.63628364323885,-8.850004284680827 L-1.8993002611785408,-8.797309731837746 L-2.1606296801135976,-8.736800294467777 L-2.4200397541613925,-8.668529724715633 L-2.6773000424444766,-8.592558669146625 L-2.93218201379735,-8.508954614872696 L-3.184459249776779,-8.41779182960182 L-3.433907645795337,-8.319151295664021 L-3.680305610199468,-8.213120638072617 L-3.923434261115261,-8.099794046684579 L-4.163077620887048,-7.979272192529181 L-4.399022807936101,-7.851662138379236 L-4.631060225869016,-7.717077243644385 L-4.858983749667766,-7.575637063670923 L-5.082590908796044,-7.427467243537585 L-5.301683067059238,-7.272699406441694 L-5.516065599058246,-7.111471036774754 L-5.725548063080406,-6.943925357991416 L-5.9299443702739385,-6.77021120538026 L-6.1290729499556305,-6.5904828938494475 L-6.3227569109049115,-6.40490008084468 L-6.51082419850103,-6.213627624521236 L-6.693107747563761,-6.016835437296083 L-6.869445630761854,-5.814698334910152 L-7.0396812024573885,-5.607395881134853 L-7.2036632378582715,-5.395112228260808 L-7.361246067355249,-5.178035953510453 L-7.512289705924091,-4.9563598915198765 L-7.656659977478031,-4.7302809630386795 L-7.794228634059938,-4.500000000000016 L-7.9248734697684124,-4.265721567116255 L-8.048478429316528,-4.027653780158688 L-8.164933711126839,-3.7860081210827468 L-8.274135864871049,-3.540999250162956 L-8.375987883367685,-3.2928448153044965 L-8.470399288756177,-3.0417652587007566 L-8.557286212870723,-2.787983621008678 L-8.636571471742641,-2.5317253432157965 L-8.708184634164933,-2.27321806637501 L-8.7720620842582,-2.0126914293849647 L-8.828147077982322,-1.7503768649957077 L-8.876389793543705,-1.4865073942208107 L-8.916747375653305,-1.2213174193385998 L-8.949183973596122,-0.9550425156663676 L-8.973670773078341,-0.6879192222925434 L-8.990186021823847,-0.4201848319527244 L-8.998715048897338,-0.15207718023621597 L-8.99925027773692,0.11616556568965164 L-8.991791232884559,0.3843051186497686 L-8.976344540408448,0.65210328313808 L-8.952923922016895,0.919322166913008 L-8.92155018286896,1.1857243923234533 L-8.882251193092683,1.4510733071776967 L-8.835061863027299,1.715133194967836 L-8.780024112211468,1.9776694842630391 L-8.717186832145012,2.2384489570855965 L-8.64660584285732,2.4972399560846554 L-8.568343843320896,2.7538125903236206 L-8.48247035575423,3.0079389394983926 L-8.389061663863327,3.259393256405044 L-8.288200745076876,3.5079521674770757 L-8.17997719683519,3.7533948712140988 L-8.064487156998409,3.995503334325695 L-7.941833218444675,4.234062485416189 L-7.812124337934156,4.468860406038303 L-7.67547573931985,4.699688518945953 L-7.532008811191163,4.926341773378972 L-7.3818509990412,5.148618827215164 L-7.225135692053532,5.366322225827867 L-7.062002104609035,5.5792585774901635 L-6.892595152618052,5.7872387251699005 L-6.717065324787722,5.9900779145629155 L-6.535568548938862,6.1875959582152085 L-6.348266053491123,6.379617395588254 L-6.1553242242394965,6.56597164892527 L-5.9569144565493835,6.746493174779989 L-5.753213003101517,6.9210216110732965 L-5.544400817322025,7.089401919547154 L-5.330663392636669,7.251484523489196 L-5.1121905976921065,7.407125440605717 L-4.889176507690507,7.556186410924976 L-4.661819231987384,7.698535019617211 L-4.43032073810578,7.834044814622255 L-4.194886672323134,7.96259541898028 L-3.9557261769902183,8.084072637765841 L-3.7130517047444176,8.198368559530278 L-3.467078829782394,8.305381652162335 L-3.2180260563597844,8.405016853081825 L-2.966114624688055,8.497185653686262 L-2.711568314400928,8.58180617797541 L-2.4546132457649703,8.658803255283907 L-2.1954776788109394,8.728108487057373 L-1.9343918105643243,8.789660307612671 L-1.6715875705551904,8.843404038828341 L-1.4072984147890049,8.889291938716624 L-1.1417591183614464,8.927283243833955 L-0.8752055669014402,8.957344205492202 L-0.6078745470276683,8.979448119738535 L-0.3400035360047071,8.99357535107725 L-0.07183049078565729,8.999713349912513 L0.19640636337136508,8.997856663696485 L0.46446874452506304,8.988006941772982 L0.7321185257231546,8.970172933912309 L0.9991179465368871,8.944370482538607 L1.265229824269957,8.91062250865661 L1.5302177646542194,8.8689589914903 L1.7938463718450062,8.81941694185157 L2.0558814575295283,8.762040369262532 L2.316090248962592,8.69688024286068 L2.574241595744821,8.623994446121657 L2.830106175159719,8.54344772543982 L3.0834566958871448,8.455311632612291 L3.334068099912243,8.359664461277593 L3.5817177624504755,8.256591177365316 L3.8261856897111404,8.146183343618636 L4.067254714323724,8.028539038256676 L4.304710688253456,7.903762767849024 L4.538342673034706,7.771965374479754 L4.7679431271532495,7.633263937283454 L4.993308090410919,7.487781668440718 L5.214237365108877,7.335647803725479 L5.430534693888566,7.176997487701428 L5.642007934072351,7.011971653669504 L5.848469228348967,6.840716898473086 " />
			<path d="M59.932290041562254,44.994228634059965 L60.771281432725125,45.09324151852641 L61.6093129911181,45.200074158076404 L62.4463118349206,45.31471726170268 L63.28220517212501,45.43716085913859 L64.1169203068673,45.567394301725116 L64.95038464574918,45.70540626333704 L65.78252570415142,45.85118474136783 L66.61327111253769,46.00471705777362 L67.44254862274833,46.16598986017567 L68.2702861142837,46.334989123021685 L69.09641160057632,46.51170014880559 L69.92085323525129,46.6961075693456 L70.74353931837479,46.88819534712097 L71.56439830268955,47.0879467766666 L72.38335879983718,47.2953444860259 L73.20034958656672,47.510370438261575 L74.01529961092865,47.733005933024344 L74.82813799845428,47.963231608179186 L75.63879405831946,48.20102744148922 L76.44719728949246,48.44637275235709 L77.2532773868652,48.6992462036234 L78.05696424736765,48.95962580342244 L78.85818797606447,49.227488907094695 L79.65687889223368,49.50281221915631 L80.45296753542658,49.78557179532493 L81.24638467150865,50.07574304460219 L82.0370612986806,50.37330073141226 L82.82492865347942,50.678218977796575 L83.60991821675852,50.99047126566438 L84.39196171964669,51.310030439098924 L85.17099114948536,51.63686870671917 L85.94693875574343,51.970957644096856 L86.71973705590949,52.312268196228246 L87.48931884136053,52.66077068006123 L88.255617183207,53.01643478707675 L89.01856543811344,53.37922958592452 L89.77809725409435,53.749123525113205 L90.53414657628457,54.12608443575445 L91.28664765268414,54.51007953436027 L92.03553503987632,54.90107542569446 L92.7807436087194,55.29903810567667 " />
			<path d="M8.848469228349538,1.6445644757659723 L43.39921832831718,21.59244876933552 " />
			<path d="M92.78074360871935,55.29903810567663 L93.83512898726651,55.872323222047555 L94.88623677413793,56.451595844846906 L95.93403296861885,57.03683723605036 L96.97848367711642,57.62802846455892 L98.01955511425571,58.22515040681125 L99.05721360397298,58.82818374740211 L100.09142558060472,59.43710897970735 L101.12215758997354,60.0519064065148 L102.14937629047029,60.67255614066141 L103.17304845413263,61.29903810567663 " />
			<path d="M43.39921832831712,21.59244876933571 L43.61506402769464,21.378132328764 L43.83627238006861,21.169355492215743 L44.06270125768601,20.966252400117106 L44.294205178573634,20.76895354747788 L44.530635400011185,20.57758570004762 L44.77184001409936,20.39227181286785 L45.017664045361656,20.213130951272696 L45.26794955031709,20.04027821438865 L45.522535718959844,19.87382466118265 L45.78125897808075,19.71387723910602 L46.04395309636405,19.560538715380044 L46.3104492911921,19.413907610967396 L46.58057633708923,19.27407813727179 L46.854160675735216,19.141140135606577 L47.13102652747755,19.01517901947112 L47.41099600427101,18.896275719672104 L47.69388922397183,18.784506632324977 L47.979524425913056,18.679943569768955 L48.267718087687,18.582653714427178 L48.55828504305949,18.49269957564154 L48.85103860094031,18.41013894951008 L49.14579066533347,18.335024881752595 L49.44235185618997,18.267405633628467 L49.74053163108576,18.20732465092847 L50.04013840764638,18.154820536060598 L50.34097968663985,18.109927023247767 L50.642862175658635,18.072672956853364 L50.94559191331127,18.043082272848572 L51.24897439384368,18.021173983433343 L51.55281469211043,18.006962164820962 L51.85691758881532,18.000455948193967 L52.16108769594099,18.00165951383732 L52.465129582286984,18.010572088452562 L52.768847899035485,18.027187945654624 L53.07204750526417,18.051496409651108 L53.374533593325495,18.083481862101515 L53.6761118140118,18.12312375215216 L53.976588401425886,18.17039660964019 L54.27577029747687,18.22527006145835 L54.573465275921166,18.28770885106988 L54.869482065869065,18.357672861161074 L55.163630474677504,18.435117139416885 L55.455721510150006,18.519991927403087 L55.745567501965354,18.612242692536377 L56.03298222225696,18.711810163121903 L56.317781005265424,18.81863036643569 L56.599780865987455,18.93263466982752 L56.878800617744865,19.05374982481786 L57.154660988598174,19.181898014160424 L57.42718473652991,19.31699690184029 L57.696196763323776,19.458959685975287 L57.96152422706629,19.607695154586732 " />
			<path d="M103.17304845413263,61.29903810567668 L103.26697434527594,61.3522000957328 L103.36457289405615,61.398273878839746 L103.46531011027864,61.43700737185984 L103.5686348311815,61.46818865252849 L103.67398173700828,61.491647118942886 L103.78077444403758,61.50725442297487 L103.8884286581469,61.514925172501066 L103.99635537165668,61.514617398608166 L104.10396408596344,61.50633278521712 L104.2106660423303,61.49011665986992 L104.31587744315819,61.46605774572934 L104.41902264611318,61.4342876761486 L104.51953731363399,61.3949802744668 L104.61687150058773,61.3483506029706 L104.71049266318062,61.29465378622558 L104.79988857266065,61.234183615215166 L104.88457011787095,61.16727093992424 L104.96407398131983,61.09428185916215 L105.03796517412631,61.01561571752914 L105.10583941597146,60.931702920485186 L105.16732534703415,60.84300257947601 L105.22208655980928,60.750000000000014 " />
			<path d="M57.96152422706631,19.60769515458675 L58.41772936663021,19.875566393860204 L58.86995558546327,20.150101595964372 L59.31810554761883,20.431241670685825 L59.76208279451269,20.718926106196257 L60.201791765684604,21.013092982076866 L60.6371378193664,21.31367898264592 L61.06802725285247,21.620619410586706 L61.494367322668054,21.933848200872742 L61.91606626453113,22.253297934987483 L62.33303331310348,22.578899855435267 L62.745178721526756,22.910583880540525 L63.15241378073941,23.248278619531938 L63.554650838570154,23.591911387908414 L63.95180331860398,23.941408223083496 L64.34378573881662,24.296693900304874 L64.73051372997352,24.657691948845535 L65.11190405378915,25.024324668463173 L65.48787462084309,25.3965131461241 L65.85834450824868,25.774177272988307 L66.2232339770706,26.157235761651933 L66.58246448948782,26.545606163643225 L66.93595872569766,26.93920488716865 L67.28364060055802,27.33794721510487 L67.62543527996377,27.741747323233064 L67.96126919695371,28.150518298711525 L68.29107006754504,28.564172158782487 L68.61476690629152,28.98261986970936 L68.93229004156223,29.40577136594006 " />
			<path d="M104.67304845413264,58.70096189432335 L104.76605103360863,58.75572310709849 L104.8547513746178,58.81720903816118 L104.93866417166176,58.88508328000633 L105.01733031329478,58.95897447281281 L105.09031939405685,59.03847833626169 L105.15723206934778,59.123159881471985 L105.21770224035821,59.21255579095202 L105.27139905710322,59.3061769535449 L105.31802872859943,59.40351114049865 L105.35733613028123,59.504025808019456 L105.38910619986196,59.60717101097445 L105.41316511400254,59.71238241180234 L105.42938123934974,59.8190843681692 L105.43766585274078,59.92669308247596 L105.43797362663368,60.03461979598573 L105.4303028771075,60.14227401009507 L105.4146955730755,60.249066717124364 L105.39123710666111,60.35441362295114 L105.36005582599246,60.457738343854004 L105.32132233297236,60.55847556007648 L105.27524854986541,60.65607410885671 L105.2220865598093,60.750000000000014 " />
			<path d="M68.93229004156223,29.40577136594007 L69.43753341039358,30.082852782010335 L69.9490689693937,30.755193080976724 L70.46685223140399,31.422733790834748 L70.99083816591646,32.08541685698996 L71.52098120298984,32.743184647306876 L72.05723523721282,33.39597995712103 L72.59955363171365,34.043746014214044 L73.14788922221605,34.686426483750935 L73.70219432114106,35.32396547317943 L74.26242072175425,35.95630753709086 L74.82851970235821,36.58339768204209 L75.40044203052972,37.20518137133818 L75.97813796740144,37.821604529775364 L76.5615572719876,38.43261354834382 L77.15064920555326,39.03815528888996 L77.74536253602706,39.63817708873773 L78.34564554245671,40.23262676526851 L78.95144601950703,40.82145262045949 L79.56271128200021,41.404603445379514 L80.17938816949768,41.98202852464281 L80.80142305092332,42.55367764081948 L81.42876182922772,43.11950107880285 L82.06134994609286,43.67944963013306 L82.6991323866769,44.23347459727665 L83.34205368439868,44.78152779786168 L83.9900579257617,45.32356156886801 L84.64308875521652,45.85952877077249 L85.30108938006215,46.389382791648565 L85.96400257538502,46.913077551220006 L86.63177068903579,47.430567504868456 L87.30433564664317,47.941807647594324 L87.98163895666463,48.44675351793071 L88.66362171547313,48.94536120181025 L89.35022461247999,49.43758733638415 L90.04138793529296,49.92338911379331 L90.73705157490922,50.40272428489141 L91.43715503094298,50.87555116291906 L92.14163741688711,51.341828627129196 L92.85043746540825,51.80151612636342 L93.56349353367509,52.25457368257853 L94.28074360871936,52.70096189432338 " />
			<path d="M94.28074360871935,52.70096189432341 L95.30441577238169,53.32744385933863 L96.33163447287845,53.94809359348524 L97.36236648224727,54.56289102029267 L98.39657845887899,55.17181625259791 L99.43423694859626,55.77484959318876 L100.47530838573557,56.37197153544109 L101.51975909423312,56.963162763949654 L102.56755528871406,57.54840415515311 L103.61866307558547,58.1276767779524 L104.67304845413264,58.700961894323385 " />
			<path d="M3.5516660498395396,-0.9516660498395408 L-0.95166604983954,-3.5516660498395414 " />
			<path d="M0.9516660498395404,3.5516660498395414 L3.5516660498395414,-0.9516660498395397 " />
			<path d="M-3.5516660498395414,0.95166604983954 L0.95166604983954,3.5516660498395405 " />
			<path d="M-0.9516660498395404,-3.5516660498395414 L-3.5516660498395414,0.9516660498395397 " />
			<path d="M-30.308397817958316,17.559844856908825 L-30.550600216689062,17.346211813356426 L-30.797865818807942,17.13846003536843 L-31.050051848723026,16.93670948254625 L-31.30701268969916,16.741076649276312 L-31.568599967939676,16.551674497464074 L-31.83466263826007,16.368612391307813 L-32.10504707130423,16.191996034149774 L-32.37959714225274,16.02192740744116 L-32.658154320972194,15.858504711856227 L-32.940557763553294,15.701822310589431 L-33.22664440518504,15.551970674868448 L-33.51624905431127,15.409036331714459 L-33.80920448801519,15.273101813979892 L-34.10534154857696,15.144245612692478 L-34.40448924114831,15.022542131733125 L-34.706474832488084,14.908061644873777 L-35.011123950701496,14.800870255200088 L-35.31826068592559,14.70102985694231 L-35.62770769190274,14.608598099736444 L-35.93928628838357,14.52362835533633 L-36.25281656430013,14.446169686795816 L-36.568117481649786,14.376266820138891 L-36.885006980029765,14.313960118534059 L-37.20330208176214,14.259285558987933 L-37.52281899754841,14.21227471157147 L-37.84337323259273,14.172954721190823 L-38.16477969313253,14.141348291913417 L-38.48685279331493,14.117473673858196 L-38.809406562357395,14.101344652657675 L-39.13225475193056,14.092970541497872 L-39.45521094370137,14.092356175740717 L-39.77808865697436,14.099501910132009 L-40.10070145636896,14.114403618596594 L-40.42286305947063,14.13705269662083 L-40.744387444393645,14.167436066220988 L-41.0650889571935,14.205536183494711 L-41.38478241906679,14.251331048751183 L-41.70328323327679,14.304794219214141 L-42.02040749174293,14.365894824290411 L-42.3359720812326,14.434597583395137 L-42.64979478909402,14.510862826323432 L-42.96169440846909,14.59464651615666 L-43.27149084292549,14.685900274690134 L-43.579005210447576,14.784571410367576 L-43.88405994672607,14.890602948706157 L-44.18647890768686,15.003933665194584 L-44.48608747119978,15.124498120645232 L-44.78271263790852,15.252226698979904 L-45.07618313112359,15.387045647427401 L-45.36632949572053,15.528877119109703 L-45.65298419598633,15.677639217992143 L-45.93598171235759,15.833246046171643 L-46.21515863699444,15.995607753475715 L-46.4903537681352,16.164630589343552 L-46.761408203177126,16.34021695695929 L-47.028165430429645,16.522265469606143 " />
			<path d="M-30.308397817958333,17.55984485690877 L-8.67146489312777,2.409501319204548 " />
			<path d="M-5.230006275021701,7.324413584938636 L-5.0116993758773125,7.475484557259881 L-4.789031658455632,7.62005090365607 L-4.562196872097765,7.757986832949728 L-4.331392392026782,7.889172323272733 L-4.096819047606076,8.013493226500666 L-3.858680947592177,8.130841367576245 L-3.617185302534076,8.241114638635446 L-3.372542244473599,8.344217087854377 L-3.1249646441036942,8.440059002939604 L-2.8746679255437617,8.528556989189315 L-2.621869878893163,8.609634042057348 L-2.366790470726031,8.683219614156977 L-2.1096516526922695,8.749249676646151 L-1.850677168391281,8.807666774940753 L-1.5900923586864697,8.858420078707427 L-1.3281239656299295,8.901465426092459 L-1.0649999351679011,8.936765362148229 L-0.8009492187987024,8.964289171423786 L-0.5362015743556992,8.984012904691225 L-0.2709873660886526,8.995919399784569 L-0.005537364217415686,8.999998296533034 L0.25991745586761983,8.99624604577572 L0.5251461145836016,8.98466591244982 L0.7899178291369395,8.965267972749704 L1.0540022143338055,8.938069105359357 L1.3171694830446548,8.903092976765763 L1.5791906461483727,8.860370020666037 L1.8398377117820393,8.809937411486226 L2.0988838837229564,8.751839032034813 L2.356103758730323,8.686125435319067 L2.6112735226748165,8.612853800557481 L2.8641711452854746,8.532087883426545 L3.114576573344367,8.443897960585174 L3.3622719221609882,8.348360768525032 L3.607041665159759,8.245559436799999 L3.848672821415658,8.135583415692844 L4.086955140974821,8.018528398382054 L4.321681287798839,7.89449623767656 L4.552647020173583,7.763594857390782 L4.77965136842557,7.625938158437135 L5.002496809791235,7.4816459197177005 L5.2209894402869494,7.330843693901278 L5.434939143430252,7.17366269817655 L5.6441597556654415,7.0102397000763546 L5.848469228349659,6.840716898472496 " />
			<path d="M-5.230006275021697,7.324413584938645 L-26.866939199852062,22.474757122642732 " />
			<path d="M-26.86693919985209,22.474757122642693 L-26.749027904397582,22.775419733641506 L-26.638374908343316,23.07882868821042 L-26.535044104713123,23.384808792579193 L-26.439095158565664,23.693183368349597 L-26.350583472542723,24.003774354512693 L-26.26956015487875,24.316402410264427 L-26.196071989890047,24.63088701856025 L-26.130161410960653,24.947046590348897 L-26.07186647604057,25.264698569425132 L-26.021220845670396,25.583659537841008 L-25.97825376354514,25.90374532181466 L-25.942990039628384,26.224771098075554 L-25.915450035826574,26.546551500584755 L-25.895649654231665,26.868900727568597 L-25.883600327939,27.191632648803978 L-25.879309014445607,27.51456091309326 L-25.882778191632845,27.837499055866807 L-25.894005856335603,28.160260606850983 L-25.912985525498986,28.482659197739398 L-25.939706239921716,28.804508669805337 L-25.974152570584216,29.125623181393145 L-26.016304627557563,29.445817315226517 L-26.06613807148831,29.764906185471762 L-26.123624127652462,30.082705544494207 L-26.188729602570515,30.399031889246082 L-26.26141690317396,30.713702567224455 L-26.341644058512205,31.02653588193809 L-26.42936474398736,31.337351197822226 L-26.52452830810287,31.64596904454082 L-26.627079801710607,31.952211220615908 L-26.73696000973951,32.25590089632438 L-26.854105485387393,32.55686271580255 L-26.978448586756308,32.85492289829989 L-27.109917515910144,33.149909338523045 L-27.248436360332093,33.44165170601257 L-27.39392513675785,33.72998154349479 L-27.546299837359424,34.01473236415202 L-27.70547247825273,34.29573974775508 L-27.871351150301095,34.57284143560244 L-28.043840072185198,34.84587742421135 L-28.222839645708977,35.11469005770667 L-28.408246513309358,35.37912411885425 L-28.5999536177368,35.639026918686085 L-28.797850263872064,35.89424838466574 L-29.00182218264355,36.14464114734282 L-29.211751597008316,36.39006062544684 L-29.427517289958647,36.63036510937099 L-29.648994674514938,36.86541584299778 L-29.87605586566444,37.09507710381935 L-30.10856975420437,37.31921628130607 L-30.34640208244671,37.53770395347824 L-30.589415521740992,37.75041396163665 L-30.837469751770346,37.95722348320887 L-31.090421541574948,38.15801310266922 L-31.348124832256154,38.35266688049144 L-31.61043082131352,38.541072420094245 " />
			<path d="M-31.61043082131355,38.54107242009426 L-31.944711470501417,38.770456481508035 L-32.28327189079066,38.993475408654845 L-32.62599089757248,39.21004937394759 L-32.97274581771006,39.42010085671437 L-33.32341253344826,39.623554670946305 L-33.67786552684047,39.82033799220969 L-34.03597792467656,40.01038038371281 L-34.397621543896044,40.19361382151818 L-34.76266693747,40.369972718891056 L-35.13098344073546,40.53939394977564 L-35.502439218165634,40.70181687139044 L-35.87690131055922,40.85718334593484 L-36.254235682631965,41.005437761398966 L-36.63430727099334,41.14652705146949 L-37.016980032491254,41.28040071452426 L-37.402116992907466,41.40701083170889 L-37.78958029598624,41.526312084088836 L-38.17923125277876,41.638261768870954 L-38.570930391285536,41.742819814688545 L-38.96453750637915,41.8399487959445 L-39.35991170998942,41.92961394620753 L-39.75691148153294,42.01178317065643 L-40.15539471856915,42.08642705756813 L-40.55521878766455,42.15351888884538 L-40.956240575447076,42.21303464958025 L-41.35831653983218,42.26495303665001 L-41.76130276140246,42.309255466342435 L-42.16505499492225,42.34592608100762 L-42.569428720968915,42.37495175473414 L-42.97427919766225,42.39632209804731 " />
			<path d="M-42.97427919766224,42.39632209804731 L-43.63703061862398,42.42901646487677 L-44.29934083735363,42.46968022977211 L-44.961114027574254,42.518307509301266 L-45.62225444070881,42.57489126783194 L-46.28266641973354,42.639423318549596 L-46.942254413018084,42.711894324642 L-47.60092298815038,42.792293800650086 L-48.258576845744265,42.88061011398498 L-48.91512083322786,42.97683048661119 L-49.57045995861071,43.08094099689529 L-50.22449940422772,43.19292658162021 L-50.87714454045778,43.31277103816466 L-51.52830093941528,43.440457026847376 L-52.177874388612395,43.57596607343595 L-52.82577090459021,43.71927857181973 L-53.47189674651666,43.87037378684657 L-54.116158429749504,44.02922985732285 L-54.758462739362045,44.19582379917652 L-55.398716743629976,44.370131508782464 L-56.03682780747717,44.55212776645 L-56.67270360587859,44.74178624007177 L-57.30625213721833,44.93907948893356 L-57.93738173660084,45.143978967684625 L-58.566001089113456,45.356455030467735 L-59.19201924303829,45.57647693520844 L-59.81534562301157,45.80401284806307 L-60.43589004312853,46.039029848024526 L-61.053562719991945,46.28149393168552 L-61.668274285702424,46.53137001815833 L-62.27993580078858,46.78862195415043 L-62.888458767075285,47.0532125191954 L-63.49375514048795,47.32510343103813 L-64.0957373437912,47.604255351173656 L-64.69431827925999,47.890627890538894 L-65.2894113412813,48.1841796153563 L-65.88093042888471,48.48486805312873 L-66.46878995819982,48.79264969878454 L-67.05290487483904,49.10748002097214 L-67.6331906662036,49.42931346850298 L-68.20956337371129,49.75810347694215 L-68.78193960494399,50.09380247534555 L-69.35023654571326,50.436361893142625 L-69.91437197204235,50.78573216716387 " />
			<path d="M-69.91437197204235,50.78573216716387 L-70.65173732634616,51.253261949976945 L-71.384791003472,51.72752355499797 L-72.11347154665285,52.20847722172121 L-72.83771786575058,52.696082628600806 L-73.55746924237764,53.19029889643127 L-74.27266533498735,53.691084591774725 L-74.98324618393285,54.19839773043441 L-75.6891522164938,54.71219578097458 L-76.39032425187088,55.232435668286215 L-77.0867035061472,55.75907377719818 L-77.77823159721666,56.292065956133925 " />
			<path d="M-77.77823159721665,56.292065956133904 L-77.86248936076069,56.35284219958434 L-77.9509377153439,56.407340007401814 L-78.0431097182254,56.455271670946935 L-78.13851876851969,56.49638414602847 L-78.23666117609416,56.53046038879195 L-78.33701882068522,56.55732050155279 L-78.43906188719504,56.57682268252471 L-78.5422516627285,56.58886397442964 L-78.64604338060403,56.59338080803703 L-78.74988909632387,56.590349337762916 L-78.85324058032111,56.57978556755724 L-78.95555221221149,56.561745266414654 L-79.05628386127077,56.53632367395495 L-79.15490373793058,56.50365499762741 L-79.25089120123913,56.46391170419343 L-79.34373950746533,56.41730360922792 L-79.4329584853358,56.36407676944631 L-79.51807712378125,56.30451218370461 L-79.59864605853119,56.23892430953071 L-79.67423994442908,56.16765940301813 L-79.74445970094432,56.09109369084664 L-79.80893461902616,56.00963138408008 L-79.8673243181767,55.92370254422699 " />
			<path d="M-79.49896090626977,53.83460982326694 L-79.58488974612287,53.89299952241748 L-79.66635205288942,53.95747444049932 L-79.74291776506092,54.027694197014576 L-79.8141826715735,54.10328808291246 L-79.87977054574739,54.18385701766238 L-79.93933513148909,54.26897565610784 L-79.99256197127072,54.35819463397831 L-80.03917006623621,54.451042940204516 L-80.0789133596702,54.54703040351306 L-80.11158203599774,54.645650280172866 L-80.13700362845744,54.74638192923215 L-80.15504392960003,54.84869356112253 L-80.1656076998057,54.95204504511977 L-80.16863917007981,55.05589076083961 L-80.16412233647243,55.15968247871513 L-80.1520810445675,55.262872254248606 L-80.13257886359558,55.36491532075843 L-80.10571875083474,55.465272965349484 L-80.07164250807126,55.563415372923956 L-80.03053003298973,55.65882442321825 L-79.9825983694446,55.75099642609974 L-79.92810056162712,55.83944478068295 L-79.8673243181767,55.923702544227 " />
			<path d="M-71.63510128109544,48.328276034296906 L-72.3266293721649,48.86126821323265 L-73.02300862644123,49.387906322144616 L-73.72418066181831,49.908146209456234 L-74.43008669437927,50.42194425999641 L-75.14066754332475,50.929257398656105 L-75.85586363593447,51.43004309399956 L-76.57561501256153,51.92425936183004 L-77.29986133165927,52.411864768709606 L-78.0285418748401,52.89281843543283 L-78.76159555196595,53.36708004045387 L-79.49896090626979,53.83460982326693 " />
			<path d="M-54.53758015449933,25.88221688518122 L-54.79497714573687,26.493817372845392 L-55.059712021478376,27.102277571359075 L-55.331746478589146,27.707509445729247 L-55.61104115779543,28.309425428052567 L-55.89755564937902,28.90793843018517 L-56.191248499024056,29.50296185634296 L-56.49207721381477,30.09440961563076 L-56.79999826838352,30.682196134498323 L-57.11496711120839,31.266236369121547 L-57.436938171058976,31.846445817707032 L-57.765864863589954,32.42274053271821 L-58.10169959808106,32.99503713302129 L-58.44439378432284,33.56325281594924 L-58.79389783964681,34.12730536928207 L-59.15016119609936,34.68711318314173 L-59.513132307758255,35.242595261799806 L-59.8827586581904,35.79367123539637 L-60.258986768050306,36.340261371568275 L-60.64176220281765,36.88228658698529 L-61.0310295806732,37.41966845879215 L-61.42673258051167,37.952329235955276 L-61.82881395009055,38.48019185051208 L-62.23721551431369,39.00317992872159 L-62.651878183648265,39.52121780211456 L-63.072741962674215,40.03423051844154 L-63.49974595876462,40.54214385251735 L-63.932828390896,41.04488431696035 L-64.37192659858704,41.542379172824916 L-64.81697705096462,42.03455644012571 L-65.26791535595586,42.52134490825208 L-65.72467626960453,43.00267414627115 L-66.187193705511,43.4784745131181 L-66.65540074439386,43.948677167672216 L-67.12922964377213,44.41321407871713 L-67.60861184776667,44.872018034783906 L-68.09347799701905,45.32502265387554 L-68.58375793872688,45.77216239307142 L-69.07938073679382,46.2133725580104 L-69.580274682093,46.6485893122511 L-70.0863673028422,47.07774968650806 L-70.59758537508951,47.500791587762464 L-71.11385493330759,47.91765380824603 L-71.63510128109547,48.32827603429691 " />
			<path d="M-47.02816543042967,16.52226546960616 L-47.35804665581233,16.757932559358157 L-47.6834103794195,16.99979832256704 L-48.00414014027938,17.24777618559297 L-48.3201211361048,17.501777387025797 L-48.63124026438562,17.76171100945646 L-48.93738616287278,18.027484012019983 L-49.23844924943937,18.299001263698656 L-49.53432176130457,18.576165577373267 L-49.82489779360634,18.85887774461037 L-50.11007333730911,19.147036571173036 L-50.38974631643285,19.440538913242392 L-50.663816624590226,19.73927971433702 L-50.93218616081881,20.043152042916958 L-51.19475886469537,20.35204713065888 L-51.45144075071987,20.665854411388715 L-51.70213994195666,20.98446156065777 L-51.94676670292106,21.307754535948312 L-52.18523347169929,21.63561761749397 L-52.41745489129049,21.967933449700602 L-52.64334784015949,22.304583083152664 L-52.86283146198938,22.645446017190057 L-53.07582719462328,22.990400243040227 L-53.282258798184984,23.339322287490106 L-53.482052382368295,23.69208725708222 L-53.67513643288541,24.048568882819158 L-53.861441837064774,24.40863956536038 L-54.04090190858936,24.77217042069529 L-54.21345241136642,25.139031326276037 L-54.379031582520184,25.509090967593725 L-54.537580154499345,25.88221688518122 " />
			<path d="M-1.5000000000000329,132.4019237886467 L-1.6276387915973087,132.47992223054771 L-1.7512310167043972,132.56418598285245 L-1.8704694055762259,132.65450555259594 L-1.985057512790601,132.7506563910968 L-2.0947104542582387,132.85239945222085 L-2.199155615489497,132.95948178668726 L-2.2981333293569497,133.0716371709404 L-2.391397521668781,133.18858676902357 L-2.478716322947996,133.31003982580916 L-2.5598726448964766,133.4356943898615 L-2.634664720110693,133.56523806413605 L-2.7029066037072633,133.69834878264734 L-2.7644286356112278,133.83469561117593 L-2.8190778623577284,133.973939570023 L-2.8667184173584244,134.1157344767673 L-2.9072318586872354,134.25972780692913 L-2.9405174635456324,134.4055615704018 L-2.966492478675386,134.55287320147147 L-2.9850923260962037,134.70129646021255 L-2.996270763656767,134.8504623430179 L-3.0,135.0 " />
			<path d="M-1.5,132.4019237886467 L-1.5,121.8734993995196 " />
			<path d="M1.5000000000000266,121.8734993995195 L1.604937272001393,121.78442605701126 L1.7045955566311897,121.68948334952233 L1.7986470561398027,121.58898356424464 L1.8867824147119963,121.48325726680626 L1.9687117360053972,121.37265221396922 L2.0441655366825477,121.25753220978206 L2.1128956328001496,121.13827590894917 L2.1746759561399727,121.01527557135326 L2.229303297796342,120.88893577182739 L2.276597976574373,120.7596720694204 L2.316404430000462,120.62790964053296 L2.348591726001058,120.49408188042001 L2.373053993566696,120.35862897765958 L2.3897107709847543,120.22199646627695 L2.398507270495501,120.08463376028642 L2.3994145585009443,119.94699267547105 L2.3924296507337193,119.80952594326226 L2.3775755220729926,119.6726857216079 L2.3549010309750944,119.53692210772654 L2.3244807587674385,119.40268165763979 L2.286414764334335,119.27040591735269 L2.240828255001581,119.14052997051289 L2.1878711747023623,119.013481007326 L2.127717710779083,118.88967691943425 L2.0605657210433512,118.76952492538 L1.9866360829786527,118.65342023117557 L1.9061719672263173,118.54174473038478 L1.8194380377444528,118.434865747992 L1.7267195812706833,118.33313483219055 L1.6283215689520902,118.23688659806426 L1.5245676532288532,118.14643762696578 L1.4157991032710562,118.0620854252117 L1.302373682470247,117.98410744551975 L1.1846644716779124,117.91276017440637 L1.0630586420615058,117.84827828854698 L0.937956181614361,117.79087388287327 L0.809768579508282,117.74073577294706 L0.6789174726162573,117.69802887390472 L0.5458332586571821,117.6628936580156 L0.4109536805242529,117.63544569263813 L0.27472238645349006,117.6157752600937 L0.137587470768303,117.60394706070846 L-9.079199807060949e-14,117.6 L-0.13758747076848427,117.60394706070848 L-0.2747223864536705,117.61577526009371 L-0.4109536805244319,117.63544569263816 L-0.5458332586573569,117.66289365801565 L-0.6789174726164275,117.69802887390478 L-0.8097685795084469,117.74073577294712 L-0.9379561816145204,117.79087388287334 L-1.0630586420616588,117.84827828854705 L-1.1846644716780588,117.91276017440646 L-1.3023736824703867,117.98410744551984 L-1.4157991032711894,118.0620854252118 L-1.5245676532289787,118.14643762696588 L-1.6283215689522084,118.23688659806437 L-1.7267195812707932,118.33313483219067 L-1.8194380377445545,118.43486574799212 L-1.906171967226411,118.5417447303849 L-1.986636082978738,118.6534202311757 L-2.060565721043428,118.76952492538013 L-2.1277177107791507,118.88967691943438 L-2.187871174702422,119.01348100732613 L-2.2408282550016323,119.14052997051303 L-2.286414764334378,119.27040591735283 L-2.324480758767473,119.40268165763992 L-2.354901030975121,119.53692210772667 L-2.3775755220730113,119.67268572160805 L-2.39242965073373,119.80952594326239 L-2.399414558500947,119.94699267547118 L-2.3985072704954966,120.08463376028655 L-2.3897107709847427,120.22199646627708 L-2.3730539935666775,120.3586289776597 L-2.3485917260010325,120.49408188042013 L-2.3164044300004307,120.62790964053308 L-2.276597976574336,120.7596720694205 L-2.229303297796299,120.88893577182749 L-2.1746759561399247,121.01527557135337 L-2.1128956328000963,121.13827590894927 L-2.0441655366824905,121.25753220978216 L-1.9687117360053359,121.37265221396932 L-1.8867824147119312,121.48325726680633 L-1.7986470561397345,121.58898356424473 L-1.7045955566311184,121.6894833495224 L-1.6049372720013195,121.78442605701132 L-1.4999999999999512,121.87349939951956 " />
			<path d="M1.5,121.87349939951949 L1.5,132.4019237886467 " />
			<path d="M1.5000000000000329,132.4019237886467 L1.6276387915973087,132.47992223054771 L1.7512310167043972,132.56418598285245 L1.8704694055762259,132.65450555259594 L1.985057512790601,132.7506563910968 L2.0947104542582387,132.85239945222085 L2.199155615489497,132.95948178668726 L2.2981333293569497,133.0716371709404 L2.391397521668781,133.18858676902357 L2.478716322947996,133.31003982580916 L2.5598726448964766,133.4356943898615 L2.634664720110693,133.56523806413605 L2.7029066037072633,133.69834878264734 L2.7644286356112278,133.83469561117593 L2.8190778623577284,133.973939570023 L2.8667184173584244,134.1157344767673 L2.9072318586872354,134.25972780692913 L2.9405174635456324,134.4055615704018 L2.966492478675386,134.55287320147147 L2.9850923260962037,134.70129646021255 L2.996270763656767,134.8504623430179 L3.0,135.0 " />
			<path d="M2.9999999999999982,135.0 L2.996119480447284,135.26448196366374 L2.9844812625394486,135.52873623405375 L2.965095365651342,135.7925353139181 L2.9379784791566586,136.05565209787963 L2.9031539480600053,136.31786006795173 L2.860651752899109,136.5789334885482 L2.810508483934509,136.83864760081968 L2.7527673096488776,137.0967788161493 L2.687477939583159,137.3531049086406 L2.6146965815414855,137.60740520643247 L2.5344858932017207,137.8594607816763 L2.4469149281732765,138.1090546390114 L2.3520590765486737,138.3559719023771 L2.2500000000000018,138.6 " />
			<path d="M2.2500000000000036,138.6 L2.103991058906036,138.94475397330254 L1.9650293295058248,139.2924083285886 L1.833172384988277,139.6428190292953 L1.7084748549612137,139.9958408968792 L1.5909884028177324,140.35132767096513 L1.4807617043316306,140.70913206994328 L1.3778404274905043,141.0691058519895 L1.2822672135750999,141.43109987648322 L1.1940816594925963,141.79496416579784 L1.1133203013712176,142.16054796743796 L1.040016599422998,142.52769981649766 L0.9742009240808471,142.89626759841374 L0.915900543415809,143.2660986119883 L0.8651396118396413,143.63703963265436 L0.8219391600974042,144.0089369759583 L0.786317086554206,144.38163656123277 L0.7582881497797551,144.75498397543376 L0.7378639624337318,145.1288245371155 L0.7250529864545499,145.50300336051646 L0.7198605295535074,145.87736541973 L0.7222887430157243,146.2517556129331 L0.7323366208088871,146.62601882664654 L0.7499999999999964,147.0 " />
			<path d="M0.7499999999999929,147.0 L0.7710786526421103,147.42828344110168 L0.7851342351197559,147.85685485419444 L0.7921629706749407,148.28559908143907 L0.7921629706749442,148.71440091856095 L0.7851342351197559,149.1431451458056 L0.7710786526421138,149.57171655889834 L0.7499999999999929,150.00000000000003 " />
			<path d="M0.7499999999999923,150.0 L0.7418248245941251,150.07690241776686 L0.7262349335378595,150.15265049132762 L0.7033771086327787,150.2265310381036 L0.6734665606656521,150.29784845863753 L0.6367849031577755,150.36593128579523 L0.5936775009198881,150.4301385067568 L0.5445502183765228,150.48986559827492 L0.48986559827493914,150.54455021837651 L0.43013850675682286,150.59367750091988 L0.3659312857952357,150.63678490315777 L0.2978484586375454,150.67346656066564 L0.22653103810360206,150.70337710863276 L0.15265049132762185,150.72623493353785 L0.07690241776688436,150.74182482459412 L-2.220446049250313e-16,150.75 " />
			<path d="M-0.7499999999999923,150.0 L-0.7418248245941251,150.07690241776686 L-0.7262349335378595,150.15265049132762 L-0.7033771086327787,150.2265310381036 L-0.6734665606656521,150.29784845863753 L-0.6367849031577755,150.36593128579523 L-0.5936775009198881,150.4301385067568 L-0.5445502183765228,150.48986559827492 L-0.48986559827493914,150.54455021837651 L-0.43013850675682286,150.59367750091988 L-0.3659312857952357,150.63678490315777 L-0.2978484586375454,150.67346656066564 L-0.22653103810360206,150.70337710863276 L-0.15265049132762185,150.72623493353785 L-0.07690241776688436,150.74182482459412 L2.220446049250313e-16,150.75 " />
			<path d="M-0.7499999999999929,147.0 L-0.7710786526421103,147.42828344110168 L-0.7851342351197559,147.85685485419444 L-0.7921629706749407,148.28559908143907 L-0.7921629706749442,148.71440091856095 L-0.7851342351197559,149.1431451458056 L-0.7710786526421138,149.57171655889834 L-0.7499999999999929,150.00000000000003 " />
			<path d="M-2.2500000000000036,138.6 L-2.103991058906036,138.94475397330254 L-1.9650293295058248,139.2924083285886 L-1.833172384988277,139.6428190292953 L-1.7084748549612137,139.9958408968792 L-1.5909884028177324,140.35132767096513 L-1.4807617043316306,140.70913206994328 L-1.3778404274905043,141.0691058519895 L-1.2822672135750999,141.43109987648322 L-1.1940816594925963,141.79496416579784 L-1.1133203013712176,142.16054796743796 L-1.040016599422998,142.52769981649766 L-0.9742009240808471,142.89626759841374 L-0.915900543415809,143.2660986119883 L-0.8651396118396413,143.63703963265436 L-0.8219391600974042,144.0089369759583 L-0.786317086554206,144.38163656123277 L-0.7582881497797551,144.75498397543376 L-0.7378639624337318,145.1288245371155 L-0.7250529864545499,145.50300336051646 L-0.7198605295535074,145.87736541973 L-0.7222887430157243,146.2517556129331 L-0.7323366208088871,146.62601882664654 L-0.7499999999999964,147.0 " />
			<path d="M-2.9999999999999982,135.0 L-2.996119480447284,135.26448196366374 L-2.9844812625394486,135.52873623405375 L-2.965095365651342,135.7925353139181 L-2.9379784791566586,136.05565209787963 L-2.9031539480600053,136.31786006795173 L-2.860651752899109,136.5789334885482 L-2.810508483934509,136.83864760081968 L-2.7527673096488776,137.0967788161493 L-2.687477939583159,137.3531049086406 L-2.6146965815414855,137.60740520643247 L-2.5344858932017207,137.8594607816763 L-2.4469149281732765,138.1090546390114 L-2.3520590765486737,138.3559719023771 L-2.2500000000000018,138.6 " />
			<path d="M3.0,120.0 L2.996270763656767,120.14953765698209 L2.985092326096204,120.29870353978745 L2.9664924786753857,120.44712679852853 L2.9405174635456315,120.5944384295982 L2.9072318586872337,120.74027219307088 L2.866718417358422,120.88426552323271 L2.819077862357725,121.02606042997701 L2.764428635611223,121.16530438882408 L2.702906603707257,121.30165121735267 L2.634664720110685,121.43476193586396 L2.559872644896467,121.56430561013849 L2.4787163229479843,121.68996017419087 L2.3913975216687673,121.81141323097643 L2.298133329356934,121.92836282905962 L2.199155615489479,122.04051821331277 L2.0947104542582182,122.14760054777915 L1.9850575127905783,122.2493436089032 L1.8704694055762008,122.34549444740409 L1.7512310167043699,122.43581401714756 L1.6276387915972783,122.52007776945231 L1.5000000000000004,122.59807621135332 " />
			<path d="M-1.4999999999999993,122.59807621135332 L-1.6307026500036632,122.51809627839584 L-1.7571509829845844,122.43154691976041 L-1.8790151096796919,122.33865393284158 L-1.9959771004966964,122.23965966483588 L-2.1077318149560966,122.13482238048553 L-2.2139876977678488,122.0244155882952 L-2.31446753946583,121.90872732697967 L-2.4089091996156835,121.78805941400361 L-2.497066290709283,121.66272665817428 L-2.578708820961605,121.53305603834133 L-2.65362379433304,121.39938585034633 L-2.7216157662117375,121.2620648244475 L-2.7825073533062854,121.1214512155223 L-2.8361396964184613,120.97791186842139 L-2.8823728748887447,120.83182126091222 L-2.9210862716333383,120.68356052670941 L-2.9521788878203723,120.5335164611403 L-2.9755696063643216,120.38208051204016 L-2.991197403551222,120.22964775850949 L-2.9990215082425693,120.07661588019768 L-2.999021508242569,119.92338411980231 L-2.991197403551221,119.7703522414905 L-2.9755696063643207,119.61791948795982 L-2.95217888782037,119.46648353885969 L-2.9210862716333352,119.31643947329059 L-2.8823728748887407,119.16817873908776 L-2.8361396964184573,119.02208813157861 L-2.7825073533062805,118.87854878447769 L-2.721615766211732,118.7379351755525 L-2.6536237943330336,118.60061414965367 L-2.578708820961598,118.46694396165866 L-2.497066290709276,118.33727334182572 L-2.4089091996156764,118.21194058599639 L-2.314467539465822,118.09127267302031 L-2.21398769776784,117.97558441170479 L-2.1077318149560877,117.86517761951447 L-1.995977100496687,117.7603403351641 L-1.8790151096796834,117.6613460671584 L-1.7571509829845753,117.56845308023959 L-1.6307026500036539,117.48190372160414 L-1.4999999999999898,117.40192378864668 L-1.3653840212640156,117.3287219398803 L-1.2272059115140082,117.26248915057035 L-1.0858261616613418,117.20339821450179 L-0.9416136153308596,117.1516032931799 L-0.7949445065899718,117.10723951364058 L-0.6462014783969303,117.07042261591921 L-0.4957725843290407,117.04124865109829 L-0.3440502761951867,117.01979373072098 L-0.1914303801738702,117.00611382822484 L-0.03831106414790603,117.00024463291356 L0.11490820107012173,117.00220145684757 L0.26782768391159895,117.01197919489664 L0.42004843490590327,117.02955233805861 L0.5711733274940215,117.05487504000943 L0.7208080940863987,117.08788123671106 L0.8685623546620624,117.12848481876486 L1.014050635225525,117.17657985606132 L1.156893373464424,117.23204087413956 L1.2967179089842578,117.29472318153586 L1.4331594555368052,117.36446324726718 L1.5658620527057967,117.44107912746486 L1.6944794945669963,117.52437094004534 L1.81867623289993,117.61412138617973 L1.9381282525948786,117.71009631720163 L2.0525239169713063,117.81204534547427 L2.1615647808023755,117.91970249762329 L2.264966368924469,118.03278690843084 L2.36245891840041,118.15100355358092 L2.4537880823001657,118.27404401934416 L2.538715593262944,118.40158730719392 L2.617019885109536,118.53330067125492 L2.6884966708831772,118.66884048639915 L2.752959475810893,118.8078531447246 L2.810240123794892,118.94997597807799 L2.860189176164799,119.09483820421444 L2.902676321546087,119.24206189412612 L2.9375907158275734,119.39126295801583 L2.964841271341049,119.5420521473434 L2.9843568944986067,119.69403607033078 L2.9960866712676912,119.84681821827617 L3.0,120.00000000000003 " />

       </g>
    </g>
    
</svg>
