<?xml version="1.0" encoding="UTF-8" standalone="no"?>
<svg
   xmlns:svg="http://www.w3.org/2000/svg"
   xmlns="http://www.w3.org/2000/svg"
   width="620.0"
   height="438.63010764607566"

>
    <g transform="scale(3.2416765343509035, -3.2416765343509035)   translate(82.9521478328098,-123.5848235146331)" stroke-width="0.5"  fill="none">
       <!-- hidden lines -->
       <g  stroke="rgb(160,160,160)" fill="none" stroke-dasharray="0.5,0.5" >

       </g>

       <!-- solid lines -->
       <g  stroke="rgb(0,0,0)" fill="none">
			<path d="M7.5943381775075895,0.8340429519219437 L7.588598854785524,0.9214243016170531 L7.590526152015992,1.0089727203648093 L7.6001052898356285,1.0960168483602086 L7.617262811199853,1.1818891929216748 L7.641867144683824,1.265931247118705 L7.673729613430023,1.3474985394928212 L7.712605882005436,1.4259655761483456 L7.758197830073186,1.5007306373148732 L7.810155838510481,1.5712203915992866 L7.868081470441912,1.6368942925432033 L7.931530526628768,1.6972487237711111 L8.000016451784287,1.7518208609423789 L8.073014065693732,1.8001922208919878 L8.149963590527406,1.8419918707436165 L8.230274943463412,1.876899272386183 L8.31333226170242,1.9046467405011498 " />
			<path d="M8.313332261702424,1.9046467405011507 L18.195069867253565,4.73142579388664 " />
			<path d="M18.19506986725357,4.73142579388664 L85.34976362871132,43.50320631441116 " />
			<path d="M85.3497636287113,43.50320631441116 L88.16497594374208,50.093782217350906 " />
			<path d="M88.58459118601273,50.5669872981078 L88.51662192502211,50.52401166108705 L88.45232556551478,50.47571358689094 L88.39211789441869,50.42240540592278 L88.33638825823489,50.36443184757269 L88.28549704524048,50.30216781094715 L88.23977335495637,50.23601594049927 L88.19951286995096,50.16640402223753 L88.16497594374206,50.09378221735091 " />
			<path d="M88.58459118601274,50.56698729810779 L103.81432898652548,59.35988051692124 " />
			<path d="M103.81432898652547,59.35988051692125 L103.99734168841769,60.04289321881346 " />
			<path d="M103.31432898652548,60.225905920705685 L103.99734168841769,60.04289321881346 " />
			<path d="M88.08459118601274,51.433012701892224 L103.31432898652548,60.22590592070567 " />
			<path d="M87.46497594374208,51.30621778264912 L87.54513673474702,51.29981673567134 L87.62555266687055,51.29987737932383 L87.70570371232832,51.30639932144071 L87.7850715562854,51.3193403864105 L87.86314294865626,51.33861688791429 L87.93941302315227,51.364104170102124 L88.01338856211365,51.39563741370828 L88.08459118601273,51.43301270189224 " />
			<path d="M80.34976362871132,52.16346035225554 L87.46497594374208,51.30621778264912 " />
			<path d="M13.195069867253569,13.391679831731027 L80.34976362871132,52.16346035225555 " />
			<path d="M5.8061385933604335,6.247233558484471 L13.195069867253565,13.391679831731027 " />
			<path d="M5.8061385933604335,6.247233558484466 L5.740579921962669,6.18917754497676 L5.670193548892097,6.137079573943164 L5.595519227834455,6.091339155553875 L5.51712959434777,6.052307047467451 L5.435625774640884,6.020282565066726 L5.351632775873127,5.995511286176717 L5.265794693324357,5.978183167865788 L5.178769771188884,5.968431089771251 L5.091225354869299,5.966329835119822 L5.003832773478224,5.971895517256931 L4.917262191791227,5.985085456082492 L4.832177471128385,6.005798505340705 L4.749231078573512,6.033875828254045 L4.6690590835694135,6.069102115553587 L4.592276280257465,6.111207236565236 L4.519471472965561,6.159868310690617 " />
			<path d="M7.594338177507591,0.8340429519219477 L7.617324692965443,0.5881874887643312 L7.632354098261486,0.3417176008798526 L7.639410693574791,0.09489075242141531 L7.638487107536995,-0.15203521957458754 L7.629584304932471,-0.39880237452662914 L7.6127115856905165,-0.6451529377545677 L7.587886575170579,-0.8908295697528614 L7.555135205750684,-1.135575635009204 L7.514491689738289,-1.3791354700877538 L7.46599848363188,-1.621254650696935 L7.409706243770611,-1.8616802574628148 L7.345673773418339,-2.1001611401304316 L7.273967961337338,-2.3364481799170944 L7.194663711915823,-2.570294549743591 L7.107843866922313,-2.8014559720714587 L7.0135991189685445,-3.029690974077002 L6.912027916771336,-3.2547611398954737 L6.803236362312389,-3.476431359671938 L6.687338100003407,-3.6944700751586574 L6.564454197972365,-3.9086495216024404 L6.434713021594901,-4.118745965669283 L6.298250099402958,-4.32453993915776 L6.155207981510737,-4.525816468257027 L6.005736090705858,-4.722365298109953 L5.849990566361287,-4.913981112446804 L5.688134101331061,-5.10046374806004 L5.520335772000203,-5.2816184038961875 L5.3467708616663625,-5.457255844546371 L5.16762067743767,-5.62719259792293 L4.983072360838069,-5.79125114691564 L4.793318692317984,-5.949260114827305 L4.598557889874532,-6.101054444395056 L4.398993401991626,-6.246475570210302 L4.194833695116276,-6.385371584357258 L3.986292035893096,-6.517597395097004 L3.7735862683844914,-6.6430148784313285 L3.5569385865092364,-6.761493022388003 L3.3365753019371733,-6.872908063876808 L3.112726607682467,-6.977143617973301 L2.8856263376423934,-7.074090799495334 L2.6555117223328253,-7.163648336745246 L2.4226231410755936,-7.2457226772990015 L2.187203870896581,-7.320228085731686 L1.9494998323968562,-7.387086733177337 L1.7097593328623097,-7.446228778629503 L1.46823280688014,-7.497592441897655 L1.2251725547331498,-7.5411240681431995 L0.9808324788451226,-7.576778183927685 L0.7354678185525927,-7.604517544714686 L0.4893348834800606,-7.62431317377569 L0.24269078579718828,-7.636144392459399 L-0.004206828362357751,-7.639998841792786 L-0.2511000480398442,-7.635872495391366 L-0.4977309668670422,-7.623769663665186 L-0.7438419524770103,-7.603702989316137 L-0.9891759156286457,-7.575693434131307 L-1.2334765787638942,-7.539770257086147 L-1.476488743717057,-7.4959709837803405 L-1.717958558296568,-7.44434136723831 L-1.9576337814607463,-7.384935340115286 L-2.1952640468105424,-7.3178149583588805 L-2.4306011241240104,-7.243050336385015 L-2.663399178659318,-7.160719573835919 L-2.8934150279554247,-7.070908673996695 L-3.12040839586216,-6.9737114539557 L-3.3441421635343604,-6.869229446602559 L-3.564382617127857,-6.757571794566207 L-3.780899691938574,-6.638855136203741 L-3.9934672127297155,-6.513203483759183 L-4.201863129995983,-6.3807480938194345 L-4.405869751918034,-6.241627330202734 L-4.605273971764853,-6.095986519422853 L-4.799867490506534,-5.943977798880013 L-4.989447034404877,-5.785759957937103 L-5.173814567354556,-5.621498272047211 L-5.352777497752993,-5.451364330105739 L-5.526148879682896,-5.2755358552074565 L-5.693747608197247,-5.094196518995721 L-5.855398608502792,-4.907535749797808 L-6.010933018844385,-4.715748534746769 L-6.160188366899138,-4.519035216096519 L-6.303008739496144,-4.317601281942929 L-6.43924494548445,-4.11165715156954 L-6.5687546715791765,-3.9014179556421174 L-6.69140263102295,-3.687103311481672 L-6.8070607049073955,-3.4689370936506787 L-6.915608076007028,-3.2471472000921606 L-7.016931354985772,-3.021965314065918 L-7.110924698844246,-2.7936266621305825 L-7.197489921484081,-2.56236976842435 L-7.2765365962738215,-2.3284362055009735 L-7.347982150509193,-2.0920703419814273 L-7.411751951669126,-1.853519087284743 L-7.467779385377414,-1.6130316337047197 L-7.516005924988534,-1.37085919610193 L-7.556381192725004,-1.1272547494829315 L-7.5888630123023475,-0.8824727647408248 L-7.613417452986738,-0.6367689428331937 L-7.630018865039276,-0.3903999476751143 L-7.638649906509886,-0.1436231380262485 L-7.639301561352831,0.10330370134789968 L-7.63197314884495,0.35012262895973034 L-7.616672324296734,0.5965758160470238 L-7.593415071055537,0.8424058159026462 L-7.562225683809269,1.087355832805161 L-7.523136743207987,1.331169990269427 L-7.476189081829926,1.573593598336939 L-7.421431741527504,1.8143734196267336 L-7.358921922197869,2.0532579338689017 L-7.288724922031482,2.2899976006444125 L-7.210914069301173,2.5243451200567635 L-7.125570645762929,2.7560556910631644 L-7.032783801748405,2.9848872671954023 L-6.932650463037863,3.2106008094032643 L-6.8252752296108365,3.432960535756379 L-6.710770266380269,3.651734167743659 L-6.5892551860242605,3.866693172913047 L-6.460856924037843,4.077613003598091 L-6.325709606135279,4.284273331481996 L-6.18395440814141,4.486458277754114 L-6.035739408518415,4.68395663861844 L-5.88121943368202,4.876562105918566 L-5.720555896268752,5.064073482648608 L-5.55391662652318,5.2462948931249915 L-5.381475696981279,5.423035987599551 L-5.203413240633052,5.594112141100196 L-5.019915262754362,5.759344646291432 L-4.83117344660453,5.918560900153288 L-4.637384953192671,6.07159458428362 L-4.438752215321948,6.218285838635475 L-4.235482726126849,6.358481428507994 L-4.027788822324432,6.492034904616453 L-3.8158874624059136,6.61880675607419 L-3.600000000000327,6.738664556126654 " />
			<path d="M3.6000000000000023,6.738664556126828 L3.7903373580035886,6.6334713923045125 L3.977603598853424,6.522903464745456 L4.161646990260199,6.407050361005304 L4.342318411245227,6.286005950948561 L4.5194714729655665,6.159868310690614 " />
			<path d="M3.5516660498395414,-0.9516660498395397 L3.4966560096384134,-0.8563858652847804 " />
			<path d="M-1.0066760900406684,-3.456385865284781 L-0.9516660498395404,-3.5516660498395414 " />
			<path d="M-0.9516660498395417,-3.5516660498395414 L-0.8563858652847856,-3.4966560096384143 " />
			<path d="M3.4563858652847834,-1.0066760900406653 L3.551666049839536,-0.9516660498395417 " />
			<path d="M5.111025330683566,6.966133796383106 L12.588457268119894,14.196152422706634 " />
			<path d="M8.588361499170889,0.9432108775661816 L8.612987208940792,0.682679528492161 L8.629711425812307,0.42152189409861096 L8.638518807108424,0.15997755853252427 L8.639401273000496,-0.10171353930221239 L8.632358013920623,-0.3633113258630596 L8.617395491304338,-0.6245758132105714 L8.594527431662934,-0.8852673191716156 L8.563774813990863,-1.1451466872220948 L8.525165850519752,-1.403975505887419 L8.478735960836703,-1.6615163274594957 L8.424527739390626,-1.9175328858295622 L8.362590916416384,-2.1717903132370195 L8.292982312312642,-2.4240553557354385 L8.215765785515226,-2.6740965871780644 L8.131012173913867,-2.921684621526509 L8.038799229866012,-3.1665923232878614 L7.939211548867377,-3.408595015887169 L7.832340491944643,-3.6474706877841174 L7.718284101841496,-3.8830001961448306 L7.597147013074924,-4.114967467881945 L7.469040355944252,-4.34315969787851 L7.334081654581003,-4.567367544213882 L7.192394719133102,-4.787385320212511 L7.044109532182325,-5.003011183139418 L6.889362129499213,-5.214047319369288 L6.7282944752448275,-5.420300125859262 L6.561054331733842,-5.621580387758995 L6.387795123878453,-5.81770345199501 L6.20867579843746,-6.008489396670094 L6.023860678199648,-6.193763196122376 L5.833519311235234,-6.373354881492602 L5.637826315353678,-6.547099696652369 L5.436961217910554,-6.714838249350207 L5.2311082911104405,-6.876416657436893 L5.020456382956912,-7.031686690035841 L4.805198744004731,-7.180505903529035 L4.585532850073176,-7.322737772233808 L4.36166022108313,-7.458251813650504 L4.13378623618415,-7.586923708166205 L3.902119945341099,-7.708635413104653 L3.6668738775532077,-7.823275271017752 L3.4282638458814856,-7.930738112119318 L3.186508749463362,-8.030925350767083 L2.9418303726961863,-8.123745075904473 L2.6944531817738016,-8.209112135379137 L2.4446041187628658,-8.286948214060928 L2.1925123934078217,-8.357181905687652 L1.9384092728555147,-8.41974877837265 L1.6825278694923695,-8.474591433714162 L1.425102927088746,-8.5216595594522 L1.166370605446689,-8.560909975624664 L0.9065682637486101,-8.592306674180328 L0.6459342428056716,-8.615820852012362 L0.3847076464056305,-8.631430937382111 L0.12312812196073208,-8.639122609708835 L-0.13856435934311184,-8.638888812707327 L-0.40012972269417535,-8.630729760861284 L-0.6613280098978347,-8.614652939226545 L-0.9219195995125,-8.590673096564359 L-1.181665426676609,-8.558812231810975 L-1.440327202425029,-8.519099573895968 L-1.6976676322936481,-8.471571554927836 L-1.9534506340116171,-8.416271776771447 L-2.207441554081541,-8.353250971047983 L-2.4594073830489167,-8.282566952594133 L-2.709116969263344,-8.204284566423167 L-2.9563412309353962,-8.118475628236581 L-3.200853366294616,-8.025218858540894 L-3.4424290616558406,-7.9245998104300055 L-3.680846697202969,-7.8167107910994105 L-3.9158875503014,-7.701650777164236 L-4.147335996152613,-7.579525323858797 L-4.374979705606815,-7.450446468200981 L-4.598609839952192,-7.314532626210294 L-4.818021242502039,-7.171908484273841 L-5.033012626804046,-7.022704884759931 L-5.243386761299053,-6.86705870598423 L-5.448950650259862,-6.705112736638558 L-5.6495157108441445,-6.537015544797577 L-5.844897946098996,-6.362921341623495 L-6.034918113758417,-6.182989839893847 L-6.219401890678893,-5.99738610748214 L-6.398180032762202,-5.806280415925763 L-6.571088530218728,-5.609848084220092 L-6.73796875802889,-5.4082693179821035 L-6.898667621464577,-5.201729044131024 L-7.053037696537179,-4.9904167412377 L-7.200937365243287,-4.77452626569831 L-7.342230945484042,-4.554255673891891 L-7.476788815538923,-4.3298070404848366 L-7.604487532979782,-4.101386273049036 L-7.72520994791605,-3.869202923163743 L-7.838845310467214,-3.63346999417446 L-7.945289372363949,-3.39440374578518 L-8.044444482584753,-3.1522234956632915 L-8.136219676940284,-2.9071514182391156 L-8.220530761523271,-2.6594123408846597 L-8.297300389947383,-2.4092335376586065 L-8.366458134304269,-2.156844520806715 L-8.427940549773602,-1.9024768302089248 L-8.481691232826925,-1.6463638209663292 L-8.52766087297182,-1.3887404493228668 L-8.565807297989016,-1.1298430571181481 L-8.596095512620883,-0.8699091549691391 L-8.618497730675816,-0.6091772043796189 L-8.632993400519114,-0.34788639897730356 L-8.639569223926877,-0.0862764450793172 L-8.638219168285715,0.17541265821266627 L-8.628944472127024,0.4369408391858838 L-8.61175364399076,0.6980681737565617 L-8.586662454619779,0.9585551055745447 L-8.553693922491846,1.2181626657905866 L-8.512878292702675,1.4766526922846657 L-8.464253009219277,1.7337880481542074 L-8.407862680529139,1.9893328392617828 L-8.34375903871671,2.24305263064271 L-8.272000892004767,2.4947146615740046 L-8.192654070804167,2.7440880591074164 L-8.10579136732149,2.9909440498706084 L-8.011492468780004,3.2350561699422244 L-7.909843884315167,3.4762004726082654 L-7.800938865611766,3.7141557338092066 L-7.684877321355485,3.9487036550893673 L-7.5617657255774,4.179629063862352 L-7.431717019975455,4.406720110808847 L-7.294850510302557,4.629768464225668 L-7.151291756916336,4.84856950114778 L-7.001172459590968,5.062922495067935 L-6.84463033669674,5.272630800081744 L-6.681808998858204,5.477502031289218 L-6.51285781720682,5.677348241287301 L-6.337931786348943,5.871986092591474 L-6.15719138217488,6.061237025828256 L-5.970802414639458,6.244927423544294 L-5.778935875649156,6.422888769481774 L-5.581767782195346,6.59495780317403 L-5.379479014877574,6.76097666971953 L-5.172255151964981,6.920793064596837 L-4.960286299148132,7.074260373387687 L-4.743766915137414,7.221237806280004 L-4.522895633267998,7.361590527227472 L-4.297875079275047,7.495189777647159 L-4.068911685406311,7.621912994541723 L-3.8362155010426524,7.741643922937818 L-3.6000000000002577,7.854272722537596 " />
			<path d="M3.5999999999999908,7.854272722537718 L3.8264598873558096,7.74647046921738 L4.04969530982105,7.632140453215818 L4.269518152322444,7.511379017663076 L4.485743175485045,7.38428792529038 L4.698188171728955,7.250974272677164 L4.906674118811229,7.111550400003366 L5.111025330683578,6.966133796383099 " />
			<path d="M12.588457268119893,14.196152422706634 L80.13843876330611,53.19615242270664 " />
			<path d="M8.588361499170889,0.9432108775661776 L18.588457268119896,3.8038475772933706 " />
			<path d="M80.13843876330611,53.196152422706646 L87.58459118601274,52.29903810567667 " />
			<path d="M18.588457268119896,3.8038475772933698 L86.13843876330611,42.803847577293375 " />
			<path d="M87.58459118601273,52.29903810567667 L103.17304845413263,61.29903810567667 " />
			<path d="M86.13843876330611,42.80384757729338 L89.08459118601274,49.700961894323356 " />
			<path d="M103.17304845413263,61.29903810567667 L105.22208655980928,60.750000000000014 " />
			<path d="M89.08459118601273,49.700961894323356 L104.67304845413263,58.700961894323356 " />
			<path d="M104.67304845413263,58.700961894323356 L105.22208655980928,60.750000000000014 " />
			<path d="M7.594338177507591,0.8340429519219477 L7.617324692965443,0.5881874887643312 L7.632354098261486,0.3417176008798526 L7.639410693574791,0.09489075242141531 L7.638487107536995,-0.15203521957458754 L7.629584304932471,-0.39880237452662914 L7.6127115856905165,-0.6451529377545677 L7.587886575170579,-0.8908295697528614 L7.555135205750684,-1.135575635009204 L7.514491689738289,-1.3791354700877538 L7.46599848363188,-1.621254650696935 L7.409706243770611,-1.8616802574628148 L7.345673773418339,-2.1001611401304316 L7.273967961337338,-2.3364481799170944 L7.194663711915823,-2.570294549743591 L7.107843866922313,-2.8014559720714587 L7.0135991189685445,-3.029690974077002 L6.912027916771336,-3.2547611398954737 L6.803236362312389,-3.476431359671938 L6.687338100003407,-3.6944700751586574 L6.564454197972365,-3.9086495216024404 L6.434713021594901,-4.118745965669283 L6.298250099402958,-4.32453993915776 L6.155207981510737,-4.525816468257027 L6.005736090705858,-4.722365298109953 L5.849990566361287,-4.913981112446804 L5.688134101331061,-5.10046374806004 L5.520335772000203,-5.2816184038961875 L5.3467708616663625,-5.457255844546371 L5.16762067743767,-5.62719259792293 L4.983072360838069,-5.79125114691564 L4.793318692317984,-5.949260114827305 L4.598557889874532,-6.101054444395056 L4.398993401991626,-6.246475570210302 L4.194833695116276,-6.385371584357258 L3.986292035893096,-6.517597395097004 L3.7735862683844914,-6.6430148784313285 L3.5569385865092364,-6.761493022388003 L3.3365753019371733,-6.872908063876808 L3.112726607682467,-6.977143617973301 L2.8856263376423934,-7.074090799495334 L2.6555117223328253,-7.163648336745246 L2.4226231410755936,-7.2457226772990015 L2.187203870896581,-7.320228085731686 L1.9494998323968562,-7.387086733177337 L1.7097593328623097,-7.446228778629503 L1.46823280688014,-7.497592441897655 L1.2251725547331498,-7.5411240681431995 L0.9808324788451226,-7.576778183927685 L0.7354678185525927,-7.604517544714686 L0.4893348834800606,-7.62431317377569 L0.24269078579718828,-7.636144392459399 L-0.004206828362357751,-7.639998841792786 L-0.2511000480398442,-7.635872495391366 L-0.4977309668670422,-7.623769663665186 L-0.7438419524770103,-7.603702989316137 L-0.9891759156286457,-7.575693434131307 L-1.2334765787638942,-7.539770257086147 L-1.476488743717057,-7.4959709837803405 L-1.717958558296568,-7.44434136723831 L-1.9576337814607463,-7.384935340115286 L-2.1952640468105424,-7.3178149583588805 L-2.4306011241240104,-7.243050336385015 L-2.663399178659318,-7.160719573835919 L-2.8934150279554247,-7.070908673996695 L-3.12040839586216,-6.9737114539557 L-3.3441421635343604,-6.869229446602559 L-3.564382617127857,-6.757571794566207 L-3.780899691938574,-6.638855136203741 L-3.9934672127297155,-6.513203483759183 L-4.201863129995983,-6.3807480938194345 L-4.405869751918034,-6.241627330202734 L-4.605273971764853,-6.095986519422853 L-4.799867490506534,-5.943977798880013 L-4.989447034404877,-5.785759957937103 L-5.173814567354556,-5.621498272047211 L-5.352777497752993,-5.451364330105739 L-5.526148879682896,-5.2755358552074565 L-5.693747608197247,-5.094196518995721 L-5.855398608502792,-4.907535749797808 L-6.010933018844385,-4.715748534746769 L-6.160188366899138,-4.519035216096519 L-6.303008739496144,-4.317601281942929 L-6.43924494548445,-4.11165715156954 L-6.5687546715791765,-3.9014179556421174 L-6.69140263102295,-3.687103311481672 L-6.8070607049073955,-3.4689370936506787 L-6.915608076007028,-3.2471472000921606 L-7.016931354985772,-3.021965314065918 L-7.110924698844246,-2.7936266621305825 L-7.197489921484081,-2.56236976842435 L-7.2765365962738215,-2.3284362055009735 L-7.347982150509193,-2.0920703419814273 L-7.411751951669126,-1.853519087284743 L-7.467779385377414,-1.6130316337047197 L-7.516005924988534,-1.37085919610193 L-7.556381192725004,-1.1272547494829315 L-7.5888630123023475,-0.8824727647408248 L-7.613417452986738,-0.6367689428331937 L-7.630018865039276,-0.3903999476751143 L-7.638649906509886,-0.1436231380262485 L-7.639301561352831,0.10330370134789968 L-7.63197314884495,0.35012262895973034 L-7.616672324296734,0.5965758160470238 L-7.593415071055537,0.8424058159026462 L-7.562225683809269,1.087355832805161 L-7.523136743207987,1.331169990269427 L-7.476189081829926,1.573593598336939 L-7.421431741527504,1.8143734196267336 L-7.358921922197869,2.0532579338689017 L-7.288724922031482,2.2899976006444125 L-7.210914069301173,2.5243451200567635 L-7.125570645762929,2.7560556910631644 L-7.032783801748405,2.9848872671954023 L-6.932650463037863,3.2106008094032643 L-6.8252752296108365,3.432960535756379 L-6.710770266380269,3.651734167743659 L-6.5892551860242605,3.866693172913047 L-6.460856924037843,4.077613003598091 L-6.325709606135279,4.284273331481996 L-6.18395440814141,4.486458277754114 L-6.035739408518415,4.68395663861844 L-5.88121943368202,4.876562105918566 L-5.720555896268752,5.064073482648608 L-5.55391662652318,5.2462948931249915 L-5.381475696981279,5.423035987599551 L-5.203413240633052,5.594112141100196 L-5.019915262754362,5.759344646291432 L-4.83117344660453,5.918560900153288 L-4.637384953192671,6.07159458428362 L-4.438752215321948,6.218285838635475 L-4.235482726126849,6.358481428507994 L-4.027788822324432,6.492034904616453 L-3.8158874624059136,6.61880675607419 L-3.600000000000327,6.738664556126654 " />
			<path d="M3.6000000000000023,6.738664556126828 L3.7903373580035886,6.6334713923045125 L3.977603598853424,6.522903464745456 L4.161646990260199,6.407050361005304 L4.342318411245227,6.286005950948561 L4.5194714729655665,6.159868310690614 " />
			<path d="M5.8061385933604335,6.247233558484466 L5.740579921962669,6.18917754497676 L5.670193548892097,6.137079573943164 L5.595519227834455,6.091339155553875 L5.51712959434777,6.052307047467451 L5.435625774640884,6.020282565066726 L5.351632775873127,5.995511286176717 L5.265794693324357,5.978183167865788 L5.178769771188884,5.968431089771251 L5.091225354869299,5.966329835119822 L5.003832773478224,5.971895517256931 L4.917262191791227,5.985085456082492 L4.832177471128385,6.005798505340705 L4.749231078573512,6.033875828254045 L4.6690590835694135,6.069102115553587 L4.592276280257465,6.111207236565236 L4.519471472965561,6.159868310690617 " />
			<path d="M5.8061385933604335,6.247233558484471 L13.195069867253565,13.391679831731027 " />
			<path d="M13.195069867253569,13.391679831731027 L80.34976362871132,52.16346035225555 " />
			<path d="M87.46497594374208,51.30621778264912 L80.3497636287113,52.16346035225554 " />
			<path d="M87.46497594374208,51.30621778264912 L87.54513673474702,51.29981673567134 L87.62555266687055,51.29987737932383 L87.70570371232832,51.30639932144071 L87.7850715562854,51.3193403864105 L87.86314294865626,51.33861688791429 L87.93941302315227,51.364104170102124 L88.01338856211365,51.39563741370828 L88.08459118601273,51.43301270189224 " />
			<path d="M88.08459118601274,51.433012701892224 L103.31432898652548,60.22590592070567 " />
			<path d="M103.99734168841769,60.04289321881346 L103.31432898652548,60.225905920705685 " />
			<path d="M103.99734168841769,60.04289321881346 L103.81432898652547,59.35988051692125 " />
			<path d="M88.58459118601274,50.56698729810779 L103.81432898652548,59.35988051692124 " />
			<path d="M88.58459118601273,50.5669872981078 L88.51662192502211,50.52401166108705 L88.45232556551478,50.47571358689094 L88.39211789441869,50.42240540592278 L88.33638825823489,50.36443184757269 L88.28549704524048,50.30216781094715 L88.23977335495637,50.23601594049927 L88.19951286995096,50.16640402223753 L88.16497594374206,50.09378221735091 " />
			<path d="M88.16497594374208,50.093782217350906 L85.3497636287113,43.50320631441115 " />
			<path d="M85.34976362871132,43.50320631441116 L18.195069867253565,4.731425793886638 " />
			<path d="M8.313332261702424,1.9046467405011507 L18.195069867253565,4.73142579388664 " />
			<path d="M7.5943381775075895,0.8340429519219437 L7.588598854785524,0.9214243016170531 L7.590526152015992,1.0089727203648093 L7.6001052898356285,1.0960168483602086 L7.617262811199853,1.1818891929216748 L7.641867144683824,1.265931247118705 L7.673729613430023,1.3474985394928212 L7.712605882005436,1.4259655761483456 L7.758197830073186,1.5007306373148732 L7.810155838510481,1.5712203915992866 L7.868081470441912,1.6368942925432033 L7.931530526628768,1.6972487237711111 L8.000016451784287,1.7518208609423789 L8.073014065693732,1.8001922208919878 L8.149963590527406,1.8419918707436165 L8.230274943463412,1.876899272386183 L8.31333226170242,1.9046467405011498 " />
			<path d="M3.5516660498395414,-0.9516660498395395 L3.4563858652847825,-1.0066760900406664 " />
			<path d="M-0.8563858652847827,-3.496656009638414 L-0.95166604983954,-3.5516660498395405 " />
			<path d="M3.496656009638414,-0.8563858652847829 L3.5516660498395405,-0.95166604983954 " />
			<path d="M-0.9516660498395395,-3.5516660498395414 L-1.0066760900406664,-3.4563858652847825 " />
			<path d="M-66.5560185958062,47.213413228389854 L-78.01250414717754,55.23533077285069 " />
			<path d="M-78.01250414717754,55.23533077285067 L-78.70886838749756,55.112542968881705 " />
			<path d="M-78.58608058352858,54.4161787285617 L-78.70886838749756,55.11254296888171 " />
			<path d="M-67.12959503215725,46.394261184100856 L-78.58608058352858,54.41617872856169 " />
			<path d="M-66.7381294849207,45.83720448489328 L-66.76449853071418,45.91991795039097 L-66.79794220796055,46.000032645690496 L-66.83820845688327,46.07694475883524 L-66.88499379704773,46.1500746152305 L-66.93794561464594,46.218871046560494 L-66.99666482009174,46.28281554485792 L-67.06070885589679,46.341426170417606 L-67.12959503215724,46.394261184100856 " />
			<path d="M-66.73812948492072,45.83720448489328 L-63.76247596165069,34.88076961317158 " />
			<path d="M-63.76247596165069,34.88076961317158 L-16.56686399340884,1.834046342588234 " />
			<path d="M-16.566863993408845,1.8340463425882372 L-8.628239237172968,0.4506524892961452 " />
			<path d="M3.5999999999999996,6.738664556126829 L3.7904103845710972,6.633429664701027 L3.977747217035363,6.522815885594766 L4.161858590486239,6.40691291284624 L4.342595213463872,6.2858147293728495 L4.519810531011942,6.15961953076272 " />
			<path d="M-7.389641011792105,14.940479051212105 L-3.5999999999999996,8.346140895491011 " />
			<path d="M-7.389641011792104,14.940479051212105 L-54.58525298003396,47.98720232179545 " />
			<path d="M-65.89866742362858,47.03608055446326 L-54.58525298003396,47.98720232179544 " />
			<path d="M-66.55601859580621,47.213413228389854 L-66.48280946345118,47.1667520358363 L-66.4058291408079,47.12661634253928 L-66.3256578165554,47.093308644956025 L-66.24289972945391,47.067079978005566 L-66.15817861429156,47.04812802305776 L-66.07213300089266,47.03659561803959 L-65.98541140161804,47.03256968088807 L-65.89866742362858,47.03608055446326 " />
			<path d="M-8.621467361129426,-0.5655975079344815 L-16.9579773649209,0.8871322848541401 " />
			<path d="M3.599999999999994,7.854272722537717 L3.8264598873558135,7.74647046921738 L4.049695309821054,7.632140453215817 L4.2695181523224495,7.511379017663075 L4.485743175485049,7.384287925290381 L4.698188171728958,7.250974272677162 L4.906674118811233,7.111550400003365 L5.111025330683583,6.9661337963830965 " />
			<path d="M8.588361499170889,0.9432108775661758 L8.613020069317637,0.6822648206756856 L8.629751977544345,0.4206908675850336 L8.63854182528249,0.1587297478265537 L8.639381523133597,-0.10337745275346988 L8.632270298314033,-0.36538951386887497 L8.617214695366194,-0.6270653027914546 L8.594228570135481,-0.8881639962681849 L8.563333077018621,-1.1484453021536507 L8.524556649495027,-1.407669680553688 L8.477934973959128,-1.6655985642767073 L8.42351095687778,-1.921994578389849 L8.361334685302943,-2.1766217586778724 L8.291463380775982,-2.429245768803749 L8.213961346666041,-2.679634115971102 L8.128899908990881,-2.927556364890018 L8.036357350774749,-3.1727843498493016 L7.936418840003588,-3.415092384700027 L7.829176351243958,-3.6542574705570936 L7.7147285809977895,-3.8900595010276944 L7.5931808568708385,-4.122281464777758 L7.464645040638478,-4.350709645249999 L7.329239425298022,-4.575133817349731 L7.187088626202299,-4.79534744091745 L7.038323466374714,-5.011147850810135 L6.883080856111298,-5.222336443416313 L6.72150366698059,-5.428718859433272 L6.553740600337272,-5.630105162738157 L6.379946050470601,-5.826310015188394 L6.200279962513557,-6.017152847190512 L6.014907685243486,-6.202458023880441 L5.823999818909713,-6.382055006762292 L5.62773205822816,-6.555778510656918 L5.426285030687467,-6.72346865581577 L5.219844130315426,-6.884971115060075 L5.008599347058718,-7.040137255809931 L4.792745091932963,-7.188824276872575 L4.57248001810402,-7.330895339863982 L4.348006838065185,-7.46621969514281 L4.119532137078533,-7.594672802140799 L3.8872661830521156,-7.716136443978907 L3.651422733027981,-7.830498836263656 L3.4122188364590897,-7.937654729963617 L3.1698746354562024,-8.037505508271295 L2.9246131621885407,-8.12995927736133 L2.67666013362471,-8.214930950961435 L2.426243743802772,-8.292342328658284 L2.1735944538206167,-8.362122167866257 L1.9189447797399635,-8.424206249392803 L1.662529078599139,-8.478537436540119 L1.4045833327315838,-8.52506572768871 L1.1453449325885847,-8.563748302314451 L0.8850524582660997,-8.594549560396818 L0.6239454599367398,-8.617441155181991 L0.36226423738896685,-8.632402019270707 L0.10024961887643613,-8.639418384006827 L-0.1618572605190436,-8.638483792148786 L-0.42381518080690306,-8.629599103812275 L-0.685383059085364,-8.612772495678659 L-0.9463201714128133,-8.588019453469888 L-1.2063863743488388,-8.555362757696804 L-1.4653423259610032,-8.514832462693978 L-1.7229497060939951,-8.466465868960354 L-1.978971435698425,-8.410307488831172 L-2.23317189501741,-8.346409005512749 L-2.4853171404301615,-8.27482922551783 L-2.7351751197530048,-8.195634024545273 L-2.9825158857996783,-8.108896286853874 L-3.227111808004401,-8.01469583818616 L-3.4687377819129006,-7.913119372303819 L-3.7071714363486485,-7.804260371202431 L-3.9421933380636256,-7.688219019078916 L-4.173587193685273,-7.565102110130853 L-4.4011400487737875,-7.435022950272546 L-4.624642483806549,-7.29810125285828 L-4.843888806909331,-7.154463028508743 L-5.058677243156911,-7.00424046914199 L-5.268810120268857,-6.847571826315695 L-5.474094050529627,-6.684601283992647 L-5.674340108765508,-6.515478825846574 L-5.869364006214637,-6.340360097230446 L-6.0589862601300855,-6.15940626193425 L-6.243032358959898,-5.972783853864093 L-6.421332922952098,-5.780664623779126 L-6.593723860036826,-5.5832253812273285 L-6.760046516842169,-5.380647831825649 L-6.920147824704692,-5.173118410034215 L-7.073880440540302,-4.960828107578547 L-7.221102882445784,-4.743972297677673 L-7.361679659906243,-4.522750555239886 L-7.495481398488577,-4.2973664731916585 L-7.6223849589062755,-4.068027475108714 L-7.742273550345919,-3.8349446243217113 L-7.855036837951121,-3.59833242967223 L-7.960571044364967,-3.3584086480977944 L-8.058779045237518,-3.1153940842276544 L-8.149570458610473,-2.869512387173729 L-8.23286172809673,-2.620989844703743 L-8.308576199778283,-2.370055174985985 L-8.376644192751737,-2.116939316097325 L-8.437003063256414,-1.8618752134882426 L-8.489597262326157,-1.6050976056004238 L-8.534378386911673,-1.346842807834276 L-8.57130522442642,-1.0873484950651195 L-8.600343790675026,-0.8268534829082625 L-8.621467361129344,-0.5655975079342177 " />
			<path d="M-16.9579773649209,0.8871322848541396 L-64.63262634254022,34.26928088048502 " />
			<path d="M-3.5999999999999996,10.353112036634345 L-6.633601510602074,15.631869082055992 " />
			<path d="M-64.6326263425402,34.26928088048501 L-67.70317146850829,45.575109139811865 " />
			<path d="M-6.633601510602072,15.631869082055992 L-54.30825048822139,49.01401767768687 " />
			<path d="M-67.70317146850829,45.575109139811865 L-79.49896090626977,53.83460982326693 " />
			<path d="M-54.30825048822138,49.014017677686866 L-65.98244215945516,48.032565272678845 " />
			<path d="M-79.49896090626977,53.83460982326693 L-79.86732431817668,55.923702544226984 " />
			<path d="M-65.98244215945516,48.032565272678845 L-77.77823159721665,56.29206595613391 " />
			<path d="M-77.77823159721665,56.29206595613391 L-79.8673243181767,55.92370254422699 " />
			<path d="M-78.58608058352858,54.41617872856169 L-78.70886838749756,55.112542968881705 " />
			<path d="M-78.01250414717754,55.23533077285067 L-78.70886838749755,55.112542968881705 " />
			<path d="M-78.01250414717752,55.23533077285068 L-66.5560185958062,47.213413228389854 " />
			<path d="M-66.55601859580621,47.213413228389854 L-66.48280946345118,47.1667520358363 L-66.4058291408079,47.12661634253928 L-66.3256578165554,47.093308644956025 L-66.24289972945391,47.067079978005566 L-66.15817861429156,47.04812802305776 L-66.07213300089266,47.03659561803959 L-65.98541140161804,47.03256968088807 L-65.89866742362858,47.03608055446326 " />
			<path d="M-54.58525298003396,47.98720232179544 L-65.89866742362858,47.03608055446326 " />
			<path d="M-7.389641011792108,14.940479051212106 L-54.58525298003396,47.98720232179545 " />
			<path d="M-3.5999999999999996,8.346140895491011 L-7.389641011792106,14.940479051212108 " />
			<path d="M3.5999999999999996,6.738664556126829 L3.7904103845710972,6.633429664701027 L3.977747217035363,6.522815885594766 L4.161858590486239,6.40691291284624 L4.342595213463872,6.2858147293728495 L4.519810531011942,6.15961953076272 " />
			<path d="M-8.628239237172968,0.4506524892961452 L-16.566863993408845,1.8340463425882376 " />
			<path d="M-63.76247596165069,34.88076961317158 L-16.56686399340884,1.834046342588234 " />
			<path d="M-66.73812948492072,45.83720448489328 L-63.76247596165069,34.88076961317158 " />
			<path d="M-66.7381294849207,45.83720448489328 L-66.76449853071418,45.91991795039097 L-66.79794220796055,46.000032645690496 L-66.83820845688327,46.07694475883524 L-66.88499379704773,46.1500746152305 L-66.93794561464594,46.218871046560494 L-66.99666482009174,46.28281554485792 L-67.06070885589679,46.341426170417606 L-67.12959503215724,46.394261184100856 " />
			<path d="M-78.58608058352857,54.41617872856168 L-67.12959503215725,46.394261184100856 " />
			<path d="M-8.881784197001252e-16,99.93743543965715 L-2.5999999999999996,89.8729193106249 " />
			<path d="M-2.5999999999999996,89.8729193106249 L-2.5999999999999996,0.0 " />
			<path d="M2.5999999999999996,-6.368163355566235e-16 L2.5960519427266218,-0.14322817692525075 L2.5842197610266684,-0.28602137458460675 L2.5645393888470776,-0.4279459347299087 L2.537070594831332,-0.5685708371365776 L2.5018968008040505,-0.7074690085978715 L2.4591248284216496,-0.8442186199321776 L2.408884574758484,-0.9784043670643727 L2.351328617813701,-1.1096187322906501 L2.286631753136871,-1.2374632218963917 L2.21499046297965,-1.3615495763684828 L2.136622319585637,-1.4815009495266924 L2.051765324430623,-1.5969530529931366 L1.9606771854199296,-1.7075552625241097 L1.8636345342379725,-1.8129716828443883 L1.760932086226926,-1.9128821677501424 L1.6528817453459161,-2.0069832923824347 L1.5398116569289473,-2.0949892747185435 L1.422065211118309,-2.1766328434825746 L1.2999999999999992,-2.2516660498395407 L1.1739867316083112,-2.3198610204078243 L1.0444081040977196,-2.3810106493031493 L0.9116576435011603,-2.434929227112342 L0.7761385086044048,-2.481453004886719 L0.6382622665660768,-2.520440691442259 L0.49844764300171884,-2.5517738824562866 L0.35711925032786024,-2.5753574200575082 L0.21470629822806303,-2.591119681817341 L0.07164129015722019,-2.5990127982648734 L-0.07164129015722218,-2.5990127982648734 L-0.21470629822806503,-2.591119681817341 L-0.35711925032786224,-2.5753574200575082 L-0.4984476430017209,-2.5517738824562857 L-0.6382622665660788,-2.5204406914422584 L-0.7761385086044068,-2.4814530048867187 L-0.9116576435011622,-2.4349292271123417 L-1.0444081040977216,-2.3810106493031484 L-1.1739867316083126,-2.319861020407824 L-1.3000000000000005,-2.25166604983954 L-1.42206521111831,-2.1766328434825737 L-1.5398116569289484,-2.0949892747185426 L-1.6528817453459173,-2.006983292382434 L-1.7609320862269269,-1.9128821677501415 L-1.8636345342379734,-1.8129716828443874 L-1.9606771854199305,-1.7075552625241088 L-2.0517653244306238,-1.5969530529931355 L-2.1366223195856375,-1.4815009495266913 L-2.2149904629796504,-1.3615495763684817 L-2.2866317531368714,-1.2374632218963904 L-2.3513286178137016,-1.1096187322906488 L-2.4088845747584844,-0.9784043670643714 L-2.45912482842165,-0.8442186199321763 L-2.501896800804051,-0.7074690085978701 L-2.5370705948313326,-0.5685708371365763 L-2.564539388847078,-0.4279459347299073 L-2.5842197610266684,-0.28602137458460536 L-2.596051942726622,-0.1432281769252493 L-2.5999999999999996,8.362237778318509e-16 " />
			<path d="M2.5999999999999996,0.0 L2.5999999999999996,89.87291931062501 " />
			<path d="M2.5999999999999996,89.8729193106249 L8.881784197001252e-16,99.93743543965715 " />
			<path d="M1.5,0.0 L1.4960898472769246,0.10823663370092412 L1.484379774833456,0.21590897171117868 L1.46493083356513,0.32245566031653605 L1.437844421246162,0.4273212144175499 L1.4032617538884016,0.5299589135716536 L1.3613631295064355,0.6298336523403969 L1.3123669881272244,0.7264247300814293 L1.256528772944947,0.8192285656405454 L1.1941395985584657,0.9077613227906477 L1.1255247332346037,0.9915614327298002 L1.051041903110014,1.0701920004872396 L0.9710794271727416,1.1432430826914546 L0.8860541927468271,1.2103338248251052 L0.7964094820348305,1.2711144468241296 L0.7026126610496856,1.3252680666690342 L0.6051527429847132,1.372512352461018 L0.5045378387252633,1.412600994369762 L0.4012925077938318,1.4453249887788344 L0.29595502353960074,1.47051372793377 L0.18907456683043478,1.4880358894119066 L0.08120836287812708,1.4978001207766858 L-0.027081223875839805,1.499755515846962 L-0.13522962166809693,1.4938918800982564 L-0.24267299482914612,1.4802397838122894 L-0.3488511833614646,1.458870402697685 L-0.453210623354358,1.4298951468127845 L-0.5552072330098704,1.3934650797251877 L-0.65430924923335,1.3497701309362604 L-0.7499999999999991,1.2990381056766584 L-0.8417805980435729,1.2415334972353362 L-0.929172541823584,1.177556108014009 L-1.0117202102107707,1.1074394864962482 L-1.0889932378846963,1.0315491882801349 L-1.1605887590592547,0.9502808702406356 L-1.226133507838338,0.864058227757859 L-1.2852857642513842,0.7733307857655319 L-1.3377371358230739,0.6785715551361393 L-1.3832141653889003,0.5802745666212575 L-1.4214797567742041,0.4789522952039684 L-1.4523344109038454,0.3751329882915927 L-1.4756172658980045,0.26935791167830536 L-1.4912069357315398,0.16217852763591023 L-1.4990221430845156,0.054153619844901954 L-1.4990221430845154,-0.054153619844907575 L-1.491206935731539,-0.16217852763591584 L-1.4756172658980036,-0.2693579116783109 L-1.4523344109038439,-0.3751329882915982 L-1.4214797567742024,-0.47895229520397375 L-1.383214165388898,-0.5802745666212628 L-1.3377371358230714,-0.6785715551361444 L-1.2852857642513813,-0.7733307857655367 L-1.2261335078383349,-0.8640582277578637 L-1.160588759059251,-0.9502808702406398 L-1.0889932378846925,-1.031549188280139 L-1.0117202102107665,-1.107439486496252 L-0.9291725418235801,-1.177556108014012 L-0.8417805980435694,-1.2415334972353387 L-0.749999999999996,-1.2990381056766602 L-0.6543092492333473,-1.3497701309362617 L-0.555207233009868,-1.3934650797251886 L-0.45321062335435575,-1.4298951468127852 L-0.3488511833614627,-1.4588704026976855 L-0.24267299482914448,-1.4802397838122898 L-0.13522962166809563,-1.4938918800982566 L-0.02708122387583884,-1.499755515846962 L0.0812083628781277,-1.4978001207766858 L0.18907456683043505,-1.4880358894119063 L0.2959550235396007,-1.47051372793377 L0.40129250779383147,-1.4453249887788344 L0.5045378387252626,-1.4126009943697622 L0.6051527429847121,-1.3725123524610185 L0.7026126610496843,-1.3252680666690348 L0.7964094820348291,-1.2711144468241304 L0.8860541927468253,-1.2103338248251065 L0.9710794271727399,-1.1432430826914561 L1.0510419031100118,-1.0701920004872416 L1.1255247332346014,-0.9915614327298026 L1.1941395985584635,-0.9077613227906505 L1.2565287729449452,-0.8192285656405487 L1.3123669881272224,-0.7264247300814329 L1.3613631295064337,-0.6298336523404011 L1.4032617538883998,-0.5299589135716583 L1.4378444212461605,-0.42732121441755505 L1.4649308335651288,-0.32245566031654177 L1.484379774833455,-0.21590897171118484 L1.4960898472769242,-0.10823663370093072 L1.5,-7.028732187495145e-15 " />
			<path d="M-3.5999999999999996,4.408728476930471e-16 L-3.596043209348561,-0.1687401448917842 L-3.584181535278833,-0.3371093623236632 L-3.564441052324743,-0.5047375402147894 L-3.5368651543520735,-0.6712561954500535 L-3.501514459169326,-0.8362992838859413 L-3.458466675276624,-0.9995040049950041 L-3.407816431045562,-1.1605115993801558 L-3.3496750667055104,-1.3189681374056887 L-3.2841703895936267,-1.4745252972114262 L-3.2114463932065895,-1.6268411303997654 L-3.1316629406716423,-1.77558081371247 L-3.0449954133327477,-1.9204173850448574 L-2.951634325224325,-2.061032462179463 L-2.851784904280062,-2.1971169426592563 L-2.7456666411973707,-2.3283716832619197 L-2.633512806949203,-2.4545081575815804 L-2.5155699400038247,-2.5752490902724636 L-2.392097304379752,-2.6903290665602824 L-2.2633663197271803,-2.7994951156815113 L-2.1296599646886762,-2.9025072669680303 L-1.9912721548507142,-2.9991390773547315 L-1.8485070966534283,-3.0891781291505205 L-1.701678618678833,-3.172426496978503 L-1.5511094817874924,-3.248701182858918 L-1.3971306696200991,-3.3178345184784144 L-1.2400806610236,-3.3796745337613903 L-1.080304686001229,-3.4340852909332034 L-0.9181539668220388,-3.480947183340901 L-0.7539849459581247,-3.5201571983746014 L-0.5881585025467148,-3.551629143911566 L-0.4210391590995041,-3.5752938377851935 L-0.2529942802030632,-3.5910992598624354 L-0.08439326497174726,-3.599010666395337 L0.08439326497172675,-3.5990106663953374 L0.2529942802030427,-3.5910992598624367 L0.4210391590994837,-3.575293837785196 L0.5881585025466946,-3.5516291439115695 L0.7539849459581047,-3.5201571983746054 L0.918153966822019,-3.4809471833409065 L1.0803046860012095,-3.4340852909332096 L1.2400806610235804,-3.379674533761397 L1.3971306696200805,-3.3178345184784224 L1.551109481787474,-3.2487011828589267 L1.7016786186788149,-3.1724264969785128 L1.8485070966534107,-3.089178129150531 L1.9912721548506973,-2.9991390773547426 L2.1296599646886594,-2.9025072669680423 L2.2633663197271643,-2.799495115681524 L2.3920973043797367,-2.690329066560296 L2.5155699400038087,-2.575249090272479 L2.633512806949187,-2.4545081575815977 L2.7456666411973543,-2.328371683261939 L2.8517849042800454,-2.197116942659277 L2.951634325224309,-2.061032462179486 L3.0449954133327313,-1.9204173850448825 L3.1316629406716268,-1.7755808137124975 L3.2114463932065744,-1.626841130399795 L3.2841703895936125,-1.474525297211458 L3.349675066705497,-1.3189681374057227 L3.4078164310455494,-1.160511599380192 L3.458466675276613,-0.9995040049950423 L3.5015144591693166,-0.8362992838859815 L3.5368651543520655,-0.6712561954500956 L3.5644410523247365,-0.5047375402148335 L3.5841815352788284,-0.337109362323709 L3.596043209348559,-0.16874014489183184 L3.5999999999999996,-4.884338035919285e-14 " />
			<path d="M-3.5999999999999996,90.0 L-3.5999999999999996,0.0 " />
			<path d="M3.5999999999999996,0.0 L3.5999999999999996,90.0 " />
			<path d="M-3.5999999999999996,90.0 L-0.49999999999999956,102.0 " />
			<path d="M3.5999999999999996,90.0 L0.49999999999999956,102.0 " />
			<path d="M-0.49999999999999956,102.0 L-0.5,120.0 " />
			<path d="M0.49999999999999956,102.0 L0.5,120.0 " />
			<path d="M-0.5,120.0 L1.1102230246251565e-16,120.5 " />
			<path d="M0.5,120.0 L-1.1102230246251565e-16,120.5 " />
			<path d="M-2.5999999999999996,0.0 L-2.5999999999999996,89.87291931062504 " />
			<path d="M-2.5999999999999654,89.87291931062504 L3.552713678800501e-15,99.93743543965716 " />
			<path d="M8.881784197001252e-16,99.93743543965715 L2.5999999999999996,89.8729193106249 " />
			<path d="M2.5999999999999996,89.8729193106249 L2.5999999999999996,0.0 " />
			<path d="M2.5999999999999996,-6.368163355566235e-16 L2.5960519427266218,-0.14322817692525075 L2.5842197610266684,-0.28602137458460675 L2.5645393888470776,-0.4279459347299087 L2.537070594831332,-0.5685708371365776 L2.5018968008040505,-0.7074690085978715 L2.4591248284216496,-0.8442186199321776 L2.408884574758484,-0.9784043670643727 L2.351328617813701,-1.1096187322906501 L2.286631753136871,-1.2374632218963917 L2.21499046297965,-1.3615495763684828 L2.136622319585637,-1.4815009495266924 L2.051765324430623,-1.5969530529931366 L1.9606771854199296,-1.7075552625241097 L1.8636345342379725,-1.8129716828443883 L1.760932086226926,-1.9128821677501424 L1.6528817453459161,-2.0069832923824347 L1.5398116569289473,-2.0949892747185435 L1.422065211118309,-2.1766328434825746 L1.2999999999999992,-2.2516660498395407 L1.1739867316083112,-2.3198610204078243 L1.0444081040977196,-2.3810106493031493 L0.9116576435011603,-2.434929227112342 L0.7761385086044048,-2.481453004886719 L0.6382622665660768,-2.520440691442259 L0.49844764300171884,-2.5517738824562866 L0.35711925032786024,-2.5753574200575082 L0.21470629822806303,-2.591119681817341 L0.07164129015722019,-2.5990127982648734 L-0.07164129015722218,-2.5990127982648734 L-0.21470629822806503,-2.591119681817341 L-0.35711925032786224,-2.5753574200575082 L-0.4984476430017209,-2.5517738824562857 L-0.6382622665660788,-2.5204406914422584 L-0.7761385086044068,-2.4814530048867187 L-0.9116576435011622,-2.4349292271123417 L-1.0444081040977216,-2.3810106493031484 L-1.1739867316083126,-2.319861020407824 L-1.3000000000000005,-2.25166604983954 L-1.42206521111831,-2.1766328434825737 L-1.5398116569289484,-2.0949892747185426 L-1.6528817453459173,-2.006983292382434 L-1.7609320862269269,-1.9128821677501415 L-1.8636345342379734,-1.8129716828443874 L-1.9606771854199305,-1.7075552625241088 L-2.0517653244306238,-1.5969530529931355 L-2.1366223195856375,-1.4815009495266913 L-2.2149904629796504,-1.3615495763684817 L-2.2866317531368714,-1.2374632218963904 L-2.3513286178137016,-1.1096187322906488 L-2.4088845747584844,-0.9784043670643714 L-2.45912482842165,-0.8442186199321763 L-2.501896800804051,-0.7074690085978701 L-2.5370705948313326,-0.5685708371365763 L-2.564539388847078,-0.4279459347299073 L-2.5842197610266684,-0.28602137458460536 L-2.596051942726622,-0.1432281769252493 L-2.5999999999999996,8.362237778318509e-16 " />

       </g>
    </g>
    
</svg>
