<?xml version="1.0" encoding="UTF-8" standalone="no"?>
<svg
   xmlns:svg="http://www.w3.org/2000/svg"
   xmlns="http://www.w3.org/2000/svg"
   width="620.0"
   height="446.6596610414904"

>
    <g transform="scale(3.174551049415851, -3.174551049415851)   translate(85.23010659191586,-123.15005172206637)" stroke-width="0.5"  fill="none">
       <!-- hidden lines -->
       <g  stroke="rgb(160,160,160)" fill="none" stroke-dasharray="0.5,0.5" >

       </g>

       <!-- solid lines -->
       <g  stroke="rgb(0,0,0)" fill="none">
			<path d="M13.341064358794243,1.2553890928751588 L13.33668449297432,1.3430223768490084 L13.340003261825492,1.4307022574257655 L13.350995114890829,1.5177537068728137 L13.36957542835922,1.603506535607837 L13.395601156565123,1.6873005518380808 L13.42887193326505,1.7684906442288735 L13.469131614212337,1.846451748471083 L13.516070249154232,1.9205836595110213 L13.569326468069377,1.9903156523945185 L13.628490263274532,2.055110876150321 L13.693106145981758,2.1144704868852973 L13.76267665300443,2.1679374882716704 L13.83666617661471,2.2151002498592365 " />
			<path d="M13.341064358794242,1.2553890928751654 L13.367688101423907,0.9300079693473782 L13.386377165325069,0.6040748195906902 L13.397120457201964,0.27778310823494134 L13.39991160014267,-0.04867348725809162 L13.394748937404284,-0.37510119155609534 L13.381635533396285,-0.701306246475756 L13.360579171861612,-1.0270950259920832 L13.331592351256445,-1.3522741511692988 L13.294692277331478,-1.6766506049450758 L13.249900852919087,-2.000031846699951 L13.197244664932413,-2.322225926543961 L13.136754968584142,-2.643041599252622 L13.068467668834298,-2.9622884377846432 L12.992423299078089,-3.2797769463140023 L12.908666997086419,-3.595318672709256 L12.817248478213418,-3.9087263203933587 L12.718222005886801,-4.219813859517576 L12.61164635939867,-4.528396637383507 L12.497584799015769,-4.8342914880476435 L12.376105028430027,-5.137316841043479 L12.247279154571546,-5.4372928291565525 L12.111183644807998,-5.734041395188498 L11.96789928155577,-6.027386397646728 L11.817511114329832,-6.317153715297013 L11.660108409260754,-6.603171350516857 L11.495784596108882,-6.88526953138842 L11.324637212807097,-7.163280812470264 L11.146767847565076,-7.43704017418821 L10.962282078569423,-7.706385120786245 L10.771289411315465,-7.97115577677938 L10.57390321360792,-8.231194981851182 L10.370240648268986,-8.48634838413965 L10.160422603593835,-8.73646453185609 L9.944573621594769,-8.981394963182584 L9.722821824076622,-9.220994294394686 L9.495298836587313,-9.455120306157063 L9.262139710288674,-9.683634027940835 L9.023482841793921,-9.90639982051253 L8.77946989101938,-10.123285456445656 L8.530245697099181,-10.334162198607144 L8.27595819241289,-10.53890487657204 L8.01675831477706,-10.737391960921089 L7.752799917852839,-10.929505635377152 L7.484239679822825,-11.115131866737594 L7.211237010391365,-11.29416047256111 L6.933953956163488,-11.466485186568928 L6.652555104458668,-11.632003721721416 L6.3672074856164755,-11.790617830932757 L6.078080473852129,-11.942233365387624 L5.785345686720785,-12.086760330425236 L5.489176883250252,-12.224112938957617 L5.189749860802581,-12.35420966239037 L4.88724235072576,-12.476973279015729 L4.581833912857453,-12.592330919849166 L4.273705828943394,-12.700214111882337 L3.9630409950337064,-12.80055881872671 L3.6500238129210345,-12.893305478623757 L3.3348400806848706,-12.978399039799081 L3.017676882407129,-13.055788993139615 L2.698722477124357,-13.125429402174383 L2.3781661870825377,-13.187278930341062 L2.0561982853607983,-13.241300865522211 L1.7330098829307348,-13.287463141836533 L1.4087928152183844,-13.32573835867225 L1.0837395282361824,-13.356103796951354 L0.7580429643524909,-13.37854143261498 L0.4318964477665155,-13.393037947321982 L0.1054935697565611,-13.399584736354333 L-0.22097192623023698,-13.398177913724615 L-0.5473062595784848,-13.388818314482656 L-0.8733157275272054,-13.37151149421985 L-1.198806820146256,-13.346267725771531 L-1.523586335198324,-13.313101993119295 L-1.84746149281826,-13.272033982496943 L-2.170240049941719,-13.223088070705304 L-2.491730414415155,-13.166293310642843 L-2.811741758719479,-13.101683414060693 L-3.13008413323982,-13.029296731552332 L-3.446568579014219,-12.94917622978975 L-3.761007239894271,-12.861369466019658 L-4.0732134740511885,-12.76592855983488 L-4.383001964761071,-12.66291016223761 L-4.690188830403633,-12.552375422013036 L-4.994591733609093,-12.434389949433132 L-5.296029989488439,-12.309023777312278 L-5.594324672882826,-12.176351319437789 L-5.889298724568466,-12.036451326399996 L-6.180777056353914,-11.889406838848142 L-6.468586655007458,-11.73530513819983 L-6.75255668495282,-11.57423769483325 L-7.032518589672296,-11.406300113792971 L-7.308306191757094,-11.231592078041514 L-7.579755791545524,-11.050217289290384 L-7.846706264290432,-10.862283406445684 L-8.108999155798283,-10.667901981704873 L-8.366478776483024,-10.467188394342537 L-8.618992293779014,-10.26026178222456 L-8.866389822858068,-10.04724497109127 L-9.108524515596812,-9.828264401651586 L-9.345252647741564,-9.603450054531404 L-9.576433704218935,-9.372935373120821 L-9.801930462541588,-9.136857184365926 L-10.021609074259581,-8.895355617552227 L-10.235339144409014,-8.648574021127908 L-10.442993808910737,-8.396658877616263 L-10.644449809873276,-8.139759716667854 L-10.839587568755197,-7.878029026303965 L-11.02829125734351,-7.611622162404062 L-11.21044886650601,-7.340697256490969 L-11.385952272676704,-7.065415121868505 L-11.554697302034869,-6.785939158167281 L-11.716583792339673,-6.502435254355342 L-11.871515652383623,-6.2150716902712055 L-12.01940091902957,-5.924019036737736 L-12.1601518117974,-5.629450054316173 L-12.293684784968034,-5.331539590760382 L-12.419920577173787,-5.030464477232209 L-12.538784258445643,-4.726403423339543 L-12.650205274689563,-4.419536911059385 L-12.754117489565385,-4.110047087608892 L-12.850459223743462,-3.7981176573279756 L-12.939173291515761,-3.483933772637643 L-13.020207034739666,-3.1676819241387952 L-13.093512354094358,-2.8495498299167212 L-13.159045737631187,-2.5297263241169894 L-13.216768286601141,-2.2084012448588846 L-13.266645738544028,-1.8857653215529062 L-13.308648487625689,-1.562010061689226 L-13.342751602211193,-1.2373276371642996 L-13.368934839663527,-0.9119107702131064 L-13.387182658359068,-0.5859526190147184 L-13.397484226912626,-0.2596466630391143 L-13.399833430606666,0.06681341179672273 L-13.39422887502082,0.3932338280952452 L-13.380673886859572,0.7194208319990869 L-13.359176511977635,1.0451808081978227 L-13.329749510604136,1.3703203948525111 L-13.292410349768538,1.6946465983697552 L-13.24718119293269,2.01796690795722 L-13.194088886835223,2.3400894098925393 L-13.133164945556114,2.660822901437835 L-13.064445531810799,2.9799770043322127 L-12.98797143548504,3.2973622777948854 L-12.903788049423186,3.612790330971797 L-12.811945342484304,3.9260739347590903 L-12.712497829882054,4.237027132936956 L-12.60550454082605,4.545465352547939 L-12.491028983483766,4.851205513454206 L-12.369139107283917,5.154066137008676 L-12.239907262583625,5.45386745377559 L-12.103410157723275,5.750431510236515 L-11.959728813494667,6.043582274418492 L-11.808948515049362,6.333145740381587 L-11.651158761275845,6.618950031503868 L-11.48645321167555,6.900825502502465 L-11.314929630769232,7.178604840130175 L-11.136689830066747,7.452123162487847 L-10.95183960763463,7.72121811689356 L-10.760488685297386,7.985729976250568 L-10.562750643509737,8.245501733856745 L-10.358742853938505,8.500379196599287 L-10.148586409794127,8.750211076479353 L-9.932406053953185,8.994849080412306 L-9.710330104914584,9.23414799825027 L-9.482490380633353,9.467965788974732 L-9.24902212027725,9.696163665008037 L-9.010063903952664,9.918606174593748 L-8.765757570447404,10.135161282196947 L-8.516248133039227,10.345700446876753 L-8.261683693420109,10.55009869858459 L-8.002215353787282,10.748234712342818 L-7.737997127153287,10.939990880259792 L-7.469185845928237,11.125253381338569 L-7.195941068828563,11.303912249037783 L-6.918424986167508,11.475861436544669 L-6.6368023235835825,11.640998879721428 L-6.351240244264118,11.799226557687577 L-6.061908249721958,11.950450551002369 L-5.768978079184199,12.094581097412682 L-5.47262360765267,12.231532645133342 L-5.173020742696692,12.361223903628222 L-4.870347320039354,12.48357789186199 L-4.564782997999301,12.598521983993855 L-4.256509150850668,12.7059879524862 L-3.9457087611644863,12.805912008602501 L-3.6325663111954385,12.898234840270508 L-3.3172676733784523,12.982901647288186 L-3.0000000000001172,13.059862173851577 " />
			<path d="M2.999999999999999,13.059862173851606 L3.300036492281036,12.987292217764772 L3.5983217323258554,12.907830209243977 L3.8946974271292447,12.821518316919912 L4.189006297037028,12.728402344496503 L4.481092159210691,12.62853170644396 L4.770800010509964,12.521959401775671 L5.057976109749377,12.408741985922848 L5.342468059285087,12.288939540721916 L5.624124885888788,12.16261564253045 L5.902797120865627,12.029837328488712 L6.178336879373783,11.890675060944595 L6.450597938903481,11.745202690060914 L6.719435816873862,11.593497414624832 L6.984707847306508,11.43563974108029 L7.246273256534948,11.271713440805101 L7.503993237909956,11.101805505655449 L7.757731025460988,10.926006101801335 " />
			<path d="M8.836666176614711,10.875354287703626 L8.758827265162111,10.834858861436997 L8.677738230185998,10.801342535694387 L8.59402335797714,10.77506334514946 L8.50832715055814,10.756223607395398 L8.421309363806943,10.744968365347125 L8.33363992814432,10.741384270588448 L8.245993790889836,10.745498916260946 L8.15904571999384,10.757280624630566 L8.073465109150371,10.776638690967387 L7.989910824285268,10.803424081860992 L7.909026131095199,10.83743058259527 L7.831433742689354,10.878396384749244 L7.757731025460907,10.926006101801391 " />
			<path d="M100.55702305034819,63.8301270189222 L8.836666176614727,10.875354287703622 " />
			<path d="M105.55702305034819,55.16987298107782 L100.55702305034819,63.830127018922205 " />
			<path d="M13.836666176614603,2.2151002498591765 L105.55702305034819,55.169872981077816 " />
			<path d="M14.336666176614724,1.3490748460746262 L14.364358110937177,1.0125295357436768 L14.384150923666557,0.6754274240675047 L14.396033730513214,0.3379538872772567 L14.399999996988413,0.00029450585490931047 L14.39604754199775,-0.3373650375195094 L14.38417853904054,-0.6748390600769154 L14.3643995150146,-1.0119419810681993 L14.336721346627026,-1.3484884238171668 L14.301159254412966,-1.684293317661246 L14.257732794365689,-2.019171999723926 L14.206465847182514,-2.3529403164629343 L14.147386605132562,-2.685414724938348 L14.080527556553486,-3.016412393744905 L14.005925467985794,-3.345751303553044 L13.923621363954503,-3.673250347203375 L13.833660504409298,-3.998729429299541 L13.736092359835576,-4.3220095652446915 L13.630970584050077,-4.642912979667126 L13.51835298469603,-4.9612632041809555 L13.39830149145411,-5.2768851744280525 L13.270882121986585,-5.589605326347901 L13.136164945633483,-5.899251691622423 L12.99422404488067,-6.205653992243281 L12.845137474621056,-6.508643734149668 L12.688987219231336,-6.808054299885081 L12.525859147487868,-7.103721040222123 L12.355842965346458,-7.395481364704965 L12.179032166612064,-7.683174831059659 L11.99552398152549,-7.966643233423144 L11.805419323295403,-8.245730689342423 L11.608822732605006,-8.520283725496073 L11.405842320123963,-8.79015136209094 L11.196589707057118,-9.055185195887633 L10.981179963762758,-9.315239481809115 L10.759731546474109,-9.570171213087562 L10.532366232158944,-9.81984019990539 L10.299209051553062,-10.064109146487207 L10.06038822040447,-10.30284372660029 L9.816035068966121,-10.5359126574221 L9.566283969775931,-10.763187771734174 L9.311272263763804,-10.984544088402707 L9.051140184726332,-11.199859881107091 L8.786030782210647,-11.409016745278576 L8.516089842849862,-11.611899663212276 L8.241465810193391,-11.808397067316687 L7.962309703076158,-11.998400901465962 L7.678775032571647,-12.181806680421188 L7.391017717574449,-12.35851354728798 L7.099195999058713,-12.528424328978833 L6.803470353059652,-12.691445589649682 L6.50400340242598,-12.847487682081319 L6.200959827391779,-12.996464796977419 L5.894506275016997,-13.138295010152012 L5.5848112675463515,-13.272900327580528 L5.272045109737071,-13.400206728289584 L4.956379795206386,-13.520144205061936 L4.637988911850323,-13.63264680293425 L4.317047546385759,-13.737652655466459 L3.9937321880682886,-13.835104018762822 L3.668220631638792,-13.924947303225943 L3.3406918795521174,-14.007133103026273 L3.0113260435416254,-14.08161622327096 L2.6803042455737245,-14.148355704856993 L2.3478085182468718,-14.207314846995098 L2.0140217046898066,-14.258461227391905 L1.6791273580140622,-14.301766720079332 L1.3433096403760532,-14.337207510881354 L1.0067532217042388,-14.36476411050972 L0.6696431781470658,-14.384421365281298 L0.33216489029750473,-14.396168465451272 L-0.005496058749802302,-14.399998951157539 L-0.3431539854527754,-14.395910715973056 L-0.6806232079313554,-14.383906008064193 L-1.0177181480760522,-14.363991428954439 L-1.3542534335994247,-14.336177929894152 L-1.690043999974387,-14.300480805838333 L-2.0249051922032617,-14.256919687035772 L-2.3586528663616386,-14.205518528234158 L-2.6911034908611757,-14.146305595507073 L-3.0220742473756843,-14.079313450710181 L-3.351383131374977,-14.00457893357509 L-3.6788490522111914,-13.922143141450775 L-4.00429193270258,-13.832051406703668 L-4.327532808159962,-13.734353271788923 L-4.6483939248014154,-13.629102462006413 L-4.9666988375010765,-13.516356855956616 L-5.2822725068182885,-13.396178453712519 L-5.594941395253765,-13.268633342725082 L-5.90453356267979,-13.133791661480998 L-6.210878760892032,-12.991727560932771 L-6.513808527230937,-12.84251916372226 L-6.813156277221242,-12.686248521220165 L-7.108757396178625,-12.523001568405062 L-7.400449329733199,-12.352868076606802 L-7.68807167321995,-12.175941604140231 L-7.971466259887077,-11.992319444856442 L-8.250477247873667,-11.802102574639779 L-8.524951205908868,-11.605395595880086 L-8.794737197685471,-11.402306679950662 L-9.059686864861483,-11.192947507723616 L-9.319654508644037,-10.9774332081553 L-9.5744971699108,-10.755882294975622 L-9.824074707824774,-10.52841660151599 L-10.068249876899353,-10.295161213711816 L-10.306888402471113,-10.056244401316349 L-10.539859054538988,-9.811797547363708 L-10.767033719929099,-9.561955075919867 L-10.98828747274563,-9.306854378161367 L-11.203498643068993,-9.04663573682235 L-11.41254888386345,-8.781442249051526 L-11.615323236057508,-8.511419747721442 L-11.811710191761179,-8.23671672123335 L-12.001601755585433,-7.957484231861762 L-12.184893504030068,-7.673875832683628 L-12.361484642907353,-7.386047483137761 L-12.531278062769902,-7.094157463261002 L-12.694180392312237,-6.798366286648252 L-12.850102049716712,-6.498836612184242 L-12.998957291915568,-6.195733154595593 L-13.140664261742003,-5.889222593872338 L-13.27514503294435,-5.57947348360873 L-13.402325653038583,-5.266656158313726 L-13.52213618397564,-4.95094263974212 L-13.634510740601115,-4.632506542297891 L-13.739387526886265,-4.311522977561654 L-13.836708869910321,-3.988168457994852 L-13.926421251575489,-3.662620799873578 L-14.008475338037144,-3.335059025505404 L-14.08282600683307,-3.005663264783015 L-14.149432371696797,-2.6746146561287514 L-14.208257805041429,-2.34209524688457 L-14.259269958101559,-2.0082878932021613 L-14.302440778722215,-1.6733761594883036 L-14.337746526785068,-1.3375442174607395 L-14.365167787263372,-1.0009767448700808 L-14.384689480898516,-0.6638588239434435 L-14.396300872492269,-0.32637583960565486 L-14.399995576810198,0.011286622465992657 L-14.39577156209297,0.34894287789738687 L-14.38363115117364,0.6864072457275219 L-14.363581020200304,1.023494150516532 L-14.33563219496481,1.360018224395711 L-14.299800044839538,1.6957944090033799 L-14.256104274325637,2.030638057250556 L-14.204568912217265,2.364365034860464 L-14.145222298387925,2.6967918216260207 L-14.078097068206006,3.027735612329682 L-14.003230134588268,3.3570144172700527 L-13.920662667700988,3.684447162340094 L-13.830440072320041,4.009853788601773 L-13.732611962862293,4.333055351302521 L-13.627232136102082,4.653874118278942 L-13.514358541587775,4.972133667693728 L-13.394053249774647,5.287658985052003 L-13.266382417891649,5.6002765594437625 L-13.131416253560815,5.909814478959457 L-12.989228976189281,6.216102525226292 L-12.83989877615523,6.518972267013208 L-12.683507771810106,6.818257152853114 L-12.520141964320803,7.113792602631396 L-12.349891190376695,7.405416098090377 L-12.17284907278739,7.692967272199924 L-11.989112968998537,7.976287997345075 L-11.798783917553838,8.25522247228219 L-11.60196658253285,8.529617307815805 L-11.398769195995023,8.799321611149066 L-11.189303498461662,9.064187068861367 L-10.97368467746859,9.324068028467567 L-10.752031304223207,9.578821578513933 L-10.524465268400867,9.828307627166737 L-10.29111171111637,10.072388979250329 L-10.052098956107468,10.310931411692307 L-9.807558439168192,10.543803747334298 L-9.557624635870846,10.770877927067719 L-9.30243498761638,10.992029080254957 L-9.042129826053811,11.207135593397094 L-8.776852295910295,11.416079177010563 L-8.506748276274218,11.618744930675842 L-8.231966300374658,11.8150214062225 L-7.952657473901303,12.00480066901578 L-7.668975391909726,12.187978357311069 L-7.381076054357744,12.364453739643603 L-7.089117780319303,12.534129770221812 L-6.793261120923029,12.6969131422939 L-6.493668771063371,12.852714339458272 L-6.190505479932854,13.001447684889605 L-5.883937960424646,13.143031388453496 L-5.574134797455274,13.277387591683771 L-5.2612663552578836,13.404442410597742 L-4.945504683697041,13.524125976325811 L-4.6270234236565795,13.636372473533177 L-4.305997711552532,13.741120176612396 L-3.982604083023655,13.838311483627015 L-3.6570203758524946,13.927892947987491 L-3.3294256321704023,14.009815307842095 L-3.000000000000257,14.084033513166549 " />
			<path d="M3.000000000000001,14.0840335131666 L3.3180910014003135,14.012504134037792 L3.634481059724358,13.93379156678127 L3.9490079848818516,13.84793616158521 L4.2615105418748875,13.75498193024946 L4.571828533451368,13.654976523623901 L4.879802882226445,13.547971207181334 L5.185275712229864,13.434020834737417 L5.488090429837474,13.313183820331119 L5.788091804045339,13.185522108280093 L6.085126046045337,13.051101141426367 L6.379040888061476,12.90998982758855 L6.669685661406445,12.762260504237847 L6.956911373718475,12.6079889014159 L7.240570785338833,12.447254102913533 L7.520518484790861,12.280138505730257 L7.796610963321814,12.10672777783535 L8.068706688469328,11.927110814252137 L8.336666176614791,11.741379691488 " />
			<path d="M14.336666176614603,1.3490748460747364 L106.92304845413263,54.80384757729338 " />
			<path d="M100.92304845413263,65.19615242270665 L8.33666617661477,11.741379691488099 " />
			<path d="M106.92304845413263,54.80384757729338 L100.92304845413263,65.19615242270665 " />
			<path d="M8.836666176614711,10.875354287703626 L8.758827265162111,10.834858861436997 L8.677738230185998,10.801342535694387 L8.59402335797714,10.77506334514946 L8.50832715055814,10.756223607395398 L8.421309363806943,10.744968365347125 L8.33363992814432,10.741384270588448 L8.245993790889836,10.745498916260946 L8.15904571999384,10.757280624630566 L8.073465109150371,10.776638690967387 L7.989910824285268,10.803424081860992 L7.909026131095199,10.83743058259527 L7.831433742689354,10.878396384749244 L7.757731025460907,10.926006101801391 " />
			<path d="M13.341064358794242,1.2553890928751654 L13.367688101423907,0.9300079693473782 L13.386377165325069,0.6040748195906902 L13.397120457201964,0.27778310823494134 L13.39991160014267,-0.04867348725809162 L13.394748937404284,-0.37510119155609534 L13.381635533396285,-0.701306246475756 L13.360579171861612,-1.0270950259920832 L13.331592351256445,-1.3522741511692988 L13.294692277331478,-1.6766506049450758 L13.249900852919087,-2.000031846699951 L13.197244664932413,-2.322225926543961 L13.136754968584142,-2.643041599252622 L13.068467668834298,-2.9622884377846432 L12.992423299078089,-3.2797769463140023 L12.908666997086419,-3.595318672709256 L12.817248478213418,-3.9087263203933587 L12.718222005886801,-4.219813859517576 L12.61164635939867,-4.528396637383507 L12.497584799015769,-4.8342914880476435 L12.376105028430027,-5.137316841043479 L12.247279154571546,-5.4372928291565525 L12.111183644807998,-5.734041395188498 L11.96789928155577,-6.027386397646728 L11.817511114329832,-6.317153715297013 L11.660108409260754,-6.603171350516857 L11.495784596108882,-6.88526953138842 L11.324637212807097,-7.163280812470264 L11.146767847565076,-7.43704017418821 L10.962282078569423,-7.706385120786245 L10.771289411315465,-7.97115577677938 L10.57390321360792,-8.231194981851182 L10.370240648268986,-8.48634838413965 L10.160422603593835,-8.73646453185609 L9.944573621594769,-8.981394963182584 L9.722821824076622,-9.220994294394686 L9.495298836587313,-9.455120306157063 L9.262139710288674,-9.683634027940835 L9.023482841793921,-9.90639982051253 L8.77946989101938,-10.123285456445656 L8.530245697099181,-10.334162198607144 L8.27595819241289,-10.53890487657204 L8.01675831477706,-10.737391960921089 L7.752799917852839,-10.929505635377152 L7.484239679822825,-11.115131866737594 L7.211237010391365,-11.29416047256111 L6.933953956163488,-11.466485186568928 L6.652555104458668,-11.632003721721416 L6.3672074856164755,-11.790617830932757 L6.078080473852129,-11.942233365387624 L5.785345686720785,-12.086760330425236 L5.489176883250252,-12.224112938957617 L5.189749860802581,-12.35420966239037 L4.88724235072576,-12.476973279015729 L4.581833912857453,-12.592330919849166 L4.273705828943394,-12.700214111882337 L3.9630409950337064,-12.80055881872671 L3.6500238129210345,-12.893305478623757 L3.3348400806848706,-12.978399039799081 L3.017676882407129,-13.055788993139615 L2.698722477124357,-13.125429402174383 L2.3781661870825377,-13.187278930341062 L2.0561982853607983,-13.241300865522211 L1.7330098829307348,-13.287463141836533 L1.4087928152183844,-13.32573835867225 L1.0837395282361824,-13.356103796951354 L0.7580429643524909,-13.37854143261498 L0.4318964477665155,-13.393037947321982 L0.1054935697565611,-13.399584736354333 L-0.22097192623023698,-13.398177913724615 L-0.5473062595784848,-13.388818314482656 L-0.8733157275272054,-13.37151149421985 L-1.198806820146256,-13.346267725771531 L-1.523586335198324,-13.313101993119295 L-1.84746149281826,-13.272033982496943 L-2.170240049941719,-13.223088070705304 L-2.491730414415155,-13.166293310642843 L-2.811741758719479,-13.101683414060693 L-3.13008413323982,-13.029296731552332 L-3.446568579014219,-12.94917622978975 L-3.761007239894271,-12.861369466019658 L-4.0732134740511885,-12.76592855983488 L-4.383001964761071,-12.66291016223761 L-4.690188830403633,-12.552375422013036 L-4.994591733609093,-12.434389949433132 L-5.296029989488439,-12.309023777312278 L-5.594324672882826,-12.176351319437789 L-5.889298724568466,-12.036451326399996 L-6.180777056353914,-11.889406838848142 L-6.468586655007458,-11.73530513819983 L-6.75255668495282,-11.57423769483325 L-7.032518589672296,-11.406300113792971 L-7.308306191757094,-11.231592078041514 L-7.579755791545524,-11.050217289290384 L-7.846706264290432,-10.862283406445684 L-8.108999155798283,-10.667901981704873 L-8.366478776483024,-10.467188394342537 L-8.618992293779014,-10.26026178222456 L-8.866389822858068,-10.04724497109127 L-9.108524515596812,-9.828264401651586 L-9.345252647741564,-9.603450054531404 L-9.576433704218935,-9.372935373120821 L-9.801930462541588,-9.136857184365926 L-10.021609074259581,-8.895355617552227 L-10.235339144409014,-8.648574021127908 L-10.442993808910737,-8.396658877616263 L-10.644449809873276,-8.139759716667854 L-10.839587568755197,-7.878029026303965 L-11.02829125734351,-7.611622162404062 L-11.21044886650601,-7.340697256490969 L-11.385952272676704,-7.065415121868505 L-11.554697302034869,-6.785939158167281 L-11.716583792339673,-6.502435254355342 L-11.871515652383623,-6.2150716902712055 L-12.01940091902957,-5.924019036737736 L-12.1601518117974,-5.629450054316173 L-12.293684784968034,-5.331539590760382 L-12.419920577173787,-5.030464477232209 L-12.538784258445643,-4.726403423339543 L-12.650205274689563,-4.419536911059385 L-12.754117489565385,-4.110047087608892 L-12.850459223743462,-3.7981176573279756 L-12.939173291515761,-3.483933772637643 L-13.020207034739666,-3.1676819241387952 L-13.093512354094358,-2.8495498299167212 L-13.159045737631187,-2.5297263241169894 L-13.216768286601141,-2.2084012448588846 L-13.266645738544028,-1.8857653215529062 L-13.308648487625689,-1.562010061689226 L-13.342751602211193,-1.2373276371642996 L-13.368934839663527,-0.9119107702131064 L-13.387182658359068,-0.5859526190147184 L-13.397484226912626,-0.2596466630391143 L-13.399833430606666,0.06681341179672273 L-13.39422887502082,0.3932338280952452 L-13.380673886859572,0.7194208319990869 L-13.359176511977635,1.0451808081978227 L-13.329749510604136,1.3703203948525111 L-13.292410349768538,1.6946465983697552 L-13.24718119293269,2.01796690795722 L-13.194088886835223,2.3400894098925393 L-13.133164945556114,2.660822901437835 L-13.064445531810799,2.9799770043322127 L-12.98797143548504,3.2973622777948854 L-12.903788049423186,3.612790330971797 L-12.811945342484304,3.9260739347590903 L-12.712497829882054,4.237027132936956 L-12.60550454082605,4.545465352547939 L-12.491028983483766,4.851205513454206 L-12.369139107283917,5.154066137008676 L-12.239907262583625,5.45386745377559 L-12.103410157723275,5.750431510236515 L-11.959728813494667,6.043582274418492 L-11.808948515049362,6.333145740381587 L-11.651158761275845,6.618950031503868 L-11.48645321167555,6.900825502502465 L-11.314929630769232,7.178604840130175 L-11.136689830066747,7.452123162487847 L-10.95183960763463,7.72121811689356 L-10.760488685297386,7.985729976250568 L-10.562750643509737,8.245501733856745 L-10.358742853938505,8.500379196599287 L-10.148586409794127,8.750211076479353 L-9.932406053953185,8.994849080412306 L-9.710330104914584,9.23414799825027 L-9.482490380633353,9.467965788974732 L-9.24902212027725,9.696163665008037 L-9.010063903952664,9.918606174593748 L-8.765757570447404,10.135161282196947 L-8.516248133039227,10.345700446876753 L-8.261683693420109,10.55009869858459 L-8.002215353787282,10.748234712342818 L-7.737997127153287,10.939990880259792 L-7.469185845928237,11.125253381338569 L-7.195941068828563,11.303912249037783 L-6.918424986167508,11.475861436544669 L-6.6368023235835825,11.640998879721428 L-6.351240244264118,11.799226557687577 L-6.061908249721958,11.950450551002369 L-5.768978079184199,12.094581097412682 L-5.47262360765267,12.231532645133342 L-5.173020742696692,12.361223903628222 L-4.870347320039354,12.48357789186199 L-4.564782997999301,12.598521983993855 L-4.256509150850668,12.7059879524862 L-3.9457087611644863,12.805912008602501 L-3.6325663111954385,12.898234840270508 L-3.3172676733784523,12.982901647288186 L-3.0000000000001172,13.059862173851577 " />
			<path d="M2.999999999999999,13.059862173851606 L3.3000364922810306,12.987292217764775 L3.598321732325841,12.907830209243983 L3.894697427129228,12.821518316919917 L4.1890062970370066,12.72840234449651 L4.48109215921067,12.628531706443969 L4.770800010509943,12.521959401775678 L5.057976109749353,12.408741985922857 L5.342468059285066,12.288939540721927 L5.624124885888767,12.162615642530461 L5.902797120865605,12.029837328488721 L6.178336879373763,11.890675060944606 L6.450597938903464,11.745202690060925 L6.71943581687384,11.593497414624844 L6.984707847306485,11.435639741080301 L7.246273256534929,11.271713440805113 L7.503993237909938,11.101805505655463 L7.757731025460966,10.926006101801347 " />
			<path d="M13.341064358794243,1.2553890928751588 L13.33668449297432,1.3430223768490084 L13.340003261825492,1.4307022574257655 L13.350995114890829,1.5177537068728137 L13.36957542835922,1.603506535607837 L13.395601156565123,1.6873005518380808 L13.42887193326505,1.7684906442288735 L13.469131614212337,1.846451748471083 L13.516070249154232,1.9205836595110213 L13.569326468069377,1.9903156523945185 L13.628490263274532,2.055110876150321 L13.693106145981758,2.1144704868852973 L13.76267665300443,2.1679374882716704 L13.83666617661471,2.2151002498592365 " />
			<path d="M105.55702305034819,55.169872981077816 L13.836666176614708,2.215100249859237 " />
			<path d="M100.55702305034819,63.830127018922205 L105.55702305034819,55.16987298107782 " />
			<path d="M8.836666176614727,10.875354287703622 L100.55702305034819,63.8301270189222 " />
			<path d="M-13.929771562346325,3.6498581096868676 L-80.68732638920946,50.394001231904426 " />
			<path d="M-80.68732638920946,50.39400123190441 L-74.95156202569899,58.58552167479433 " />
			<path d="M-74.95156202569899,58.585521674794336 L-8.194007198835882,11.841378552576792 " />
			<path d="M13.341023935293537,1.2558186007242158 L13.36769528334878,0.92990473250478 L13.386405928376428,0.603437089288045 L13.397144727850762,0.2766100884287397 L13.399905286623502,-0.050381638714473986 L13.394685960732236,-0.377343362685461 L13.381489858379428,-0.70408037189552 L13.36032483808143,-1.0303980885776287 L13.33120350398859,-1.356102184661009 L13.294143198379254,-1.6809986974969933 L13.249165991332138,-2.0048941453672597 L13.196298667583177,-2.327595642705684 L13.135572710574754,-2.648911014965168 L13.067024283706736,-2.9686489130610294 L12.99069420880052,-3.2866189273228312 L12.906627941788892,-3.6026317008867634 L12.814875545646224,-3.9164990424610635 L12.715491660575054,-4.228034038397315 L12.608535471466869,-4.5370511640008875 L12.494070672656434,-4.843366394014228 L12.372165429990684,-5.146797312207223 L12.242892340234706,-5.447163220009328 L12.106328387839094,-5.74428524411883 L11.962554899094297,-6.037986443025115 L11.811657493699364,-6.328091912380516 L11.65372603377387,-6.614428889158998 L11.488854570343406,-6.89682685453966 L11.317141287330504,-7.1751176354537405 L11.138688443084336,-7.449135504734728 L10.953602309484035,-7.718717279811849 L10.761993108651886,-7.98370241988824 L10.563974947314053,-8.243933121545872 L10.35966574884798,-8.499254412720328 L10.149187183056906,-8.749514244989454 L9.93266459371329,-8.994563584120934 L9.71022692391435,-9.234256498824847 L9.482006639294129,-9.468450247658382 L9.24813964913783,-9.69700536403094 L9.008765225445385,-9.919785739258987 L8.764025919992475,-10.13665870362123 L8.514067479438387,-10.347495105365823 L8.25903875853125,-10.552169387622556 L7.99909163146236,-10.750559663174231 L7.734380901422366,-10.942547787042695 L7.465064208413182,-11.128019426846294 L7.191301935370529,-11.306864130886868 L6.913257112653028,-11.47897539392573 L6.631095320954658,-11.644250720609431 L6.3449845926984985,-11.802591686507617 L6.055095311970392,-11.953903996726517 L5.761600113052154,-12.098097542063275 L5.4646737776147525,-12.235086452667579 L5.164493130632677,-12.364789149178723 L4.861236935081489,-12.487128391307568 L4.555085785481257,-12.602031323834527 L4.246222000349258,-12.709429519996165 L3.934829513626034,-12.809259022234563 L3.6210937651394133,-12.90146038028519 L3.305201590171765,-12.98597868658062 L2.9873411081962153,-13.06276360894895 L2.6677016108481277,-13.131769420587553 L2.346473449198527,-13.192955027294165 L2.0238479203966007,-13.246283991939261 L1.700017153748827,-13.291724556165004 L1.3751739963024932,-13.32924965929791 L1.049511898001822,-13.358836954463985 L0.7232247964850549,-13.380468821896681 L0.3965070015910843,-13.39413237942978 L0.06955307964445989,-13.399819490168962 L-0.25744226241236134,-13.397526767337471 L-0.5842842929705014,-13.387255576292997 L-0.910778371720836,-13.36901203371459 L-1.2367300655658022,-13.34280700396006 L-1.561945264407811,-13.30865609259605 L-1.8862302967452917,-13.266579637104666 L-2.2093920450075633,-13.216602694772106 L-2.5312380605598177,-13.158755027766624 L-2.8515766783097476,-13.093071085414604 L-3.170217130847555,-13.019589983685382 L-3.4869696620513766,-12.938355481896966 L-3.8016456400904652,-12.849415956656596 L-4.114057669758842,-12.752824373051581 L-4.424019704072511,-12.648638253107652 L-4.731347155063787,-12.536919641533553 L-5.03585700370675,-12.417735068772311 L-5.337367908908363,-12.291155511381147 L-5.635700315500367,-12.15725634976367 L-5.930676561167598,-12.016117323279481 L-6.222120982249109,-11.867822482757964 L-6.509860018349025,-11.712460140444486 L-6.793722315694891,-11.550122817408882 L-7.073538829181924,-11.380907188447484 L-7.349142923042411,-11.204914024511552 L-7.620370470080307,-11.022248132696344 L-7.887059949411937,-10.833018293826617 L-8.149052542654587,-10.637337197675684 L-8.406192228505704,-10.43532137585663 L-8.658325875656391,-10.227091132425633 L-8.905303333983857,-10.012770472238742 L-9.146977523968513,-9.792487027104752 L-9.38320452428248,-9.566371979778166 L-9.61384365749732,-9.334559985837501 L-9.838757573859978,-9.097189093495471 L-10.057812333087032,-8.854400661388798 L-10.270877484128546,-8.606339274396595 L-10.477826142854004,-8.353152657537462 L-10.67853506761411,-8.0949915879966 L-10.87288473263339,-7.832009805335266 L-11.060759399189953,-7.564363919936107 L-11.242047184539977,-7.292213319738857 L-11.416640128545898,-7.015720075321956 L-11.584434257968615,-6.735048843386596 L-11.745329648385422,-6.450366768700707 L-11.899230483696797,-6.161843384561223 L-12.04604511318662,-5.86965051183397 L-12.185686106101818,-5.573962156631236 L-12.318070303718951,-5.274954406688016 L-12.443118868866733,-4.972805326498584 L-12.560757332874982,-4.667694851275887 L-12.670915639922047,-4.359804679796893 L-12.773528188754323,-4.049318166197699 L-12.868533871752971,-3.736420210782838 L-12.955876111324601,-3.4212971499138325 L-13.035502893594252,-3.104136645042529 L-13.107366799380586,-2.7851275709553285 L-13.171425032434868,-2.4644599032948626 L-13.2276394449269,-2.1423246054260714 L-13.27597656016274,-1.818913514714084 L-13.31640759252067,-1.4944192282816235 L-13.348908464593569,-1.1690349883139515 L-13.373459821527419,-0.842954566979663 L-13.390047042547481,-0.5163721510358918 L-13.398660249665241,-0.18948222618658406 L-13.3992943135609,0.13752053873722403 L-13.391948856638002,0.4644414077062047 L-13.376628253248292,0.791085693461544 L-13.35334162708671,1.117258873454702 L-13.322102845758062,1.4427667056891051 L-13.282930512518616,1.7674153443947338 L-13.235847955197533,2.09101145546677 L-13.180883212304721,2.4133623315995436 " />
			<path d="M-7.2816139770103465,12.423288529604566 L-75.19713763363694,59.97825015543439 " />
			<path d="M-82.08005486984949,50.14842562396647 L-14.164531213223057,2.5934639981367624 " />
			<path d="M-75.19713763363693,59.978250155434374 L-82.08005486984948,50.148425623966475 " />
			<path d="M13.341023935293537,1.2558186007242158 L13.36769528334878,0.92990473250478 L13.386405928376428,0.603437089288045 L13.397144727850762,0.2766100884287397 L13.399905286623502,-0.050381638714473986 L13.394685960732236,-0.377343362685461 L13.381489858379428,-0.70408037189552 L13.36032483808143,-1.0303980885776287 L13.33120350398859,-1.356102184661009 L13.294143198379254,-1.6809986974969933 L13.249165991332138,-2.0048941453672597 L13.196298667583177,-2.327595642705684 L13.135572710574754,-2.648911014965168 L13.067024283706736,-2.9686489130610294 L12.99069420880052,-3.2866189273228312 L12.906627941788892,-3.6026317008867634 L12.814875545646224,-3.9164990424610635 L12.715491660575054,-4.228034038397315 L12.608535471466869,-4.5370511640008875 L12.494070672656434,-4.843366394014228 L12.372165429990684,-5.146797312207223 L12.242892340234706,-5.447163220009328 L12.106328387839094,-5.74428524411883 L11.962554899094297,-6.037986443025115 L11.811657493699364,-6.328091912380516 L11.65372603377387,-6.614428889158998 L11.488854570343406,-6.89682685453966 L11.317141287330504,-7.1751176354537405 L11.138688443084336,-7.449135504734728 L10.953602309484035,-7.718717279811849 L10.761993108651886,-7.98370241988824 L10.563974947314053,-8.243933121545872 L10.35966574884798,-8.499254412720328 L10.149187183056906,-8.749514244989454 L9.93266459371329,-8.994563584120934 L9.71022692391435,-9.234256498824847 L9.482006639294129,-9.468450247658382 L9.24813964913783,-9.69700536403094 L9.008765225445385,-9.919785739258987 L8.764025919992475,-10.13665870362123 L8.514067479438387,-10.347495105365823 L8.25903875853125,-10.552169387622556 L7.99909163146236,-10.750559663174231 L7.734380901422366,-10.942547787042695 L7.465064208413182,-11.128019426846294 L7.191301935370529,-11.306864130886868 L6.913257112653028,-11.47897539392573 L6.631095320954658,-11.644250720609431 L6.3449845926984985,-11.802591686507617 L6.055095311970392,-11.953903996726517 L5.761600113052154,-12.098097542063275 L5.4646737776147525,-12.235086452667579 L5.164493130632677,-12.364789149178723 L4.861236935081489,-12.487128391307568 L4.555085785481257,-12.602031323834527 L4.246222000349258,-12.709429519996165 L3.934829513626034,-12.809259022234563 L3.6210937651394133,-12.90146038028519 L3.305201590171765,-12.98597868658062 L2.9873411081962153,-13.06276360894895 L2.6677016108481277,-13.131769420587553 L2.346473449198527,-13.192955027294165 L2.0238479203966007,-13.246283991939261 L1.700017153748827,-13.291724556165004 L1.3751739963024932,-13.32924965929791 L1.049511898001822,-13.358836954463985 L0.7232247964850549,-13.380468821896681 L0.3965070015910843,-13.39413237942978 L0.06955307964445989,-13.399819490168962 L-0.25744226241236134,-13.397526767337471 L-0.5842842929705014,-13.387255576292997 L-0.910778371720836,-13.36901203371459 L-1.2367300655658022,-13.34280700396006 L-1.561945264407811,-13.30865609259605 L-1.8862302967452917,-13.266579637104666 L-2.2093920450075633,-13.216602694772106 L-2.5312380605598177,-13.158755027766624 L-2.8515766783097476,-13.093071085414604 L-3.170217130847555,-13.019589983685382 L-3.4869696620513766,-12.938355481896966 L-3.8016456400904652,-12.849415956656596 L-4.114057669758842,-12.752824373051581 L-4.424019704072511,-12.648638253107652 L-4.731347155063787,-12.536919641533553 L-5.03585700370675,-12.417735068772311 L-5.337367908908363,-12.291155511381147 L-5.635700315500367,-12.15725634976367 L-5.930676561167598,-12.016117323279481 L-6.222120982249109,-11.867822482757964 L-6.509860018349025,-11.712460140444486 L-6.793722315694891,-11.550122817408882 L-7.073538829181924,-11.380907188447484 L-7.349142923042411,-11.204914024511552 L-7.620370470080307,-11.022248132696344 L-7.887059949411937,-10.833018293826617 L-8.149052542654587,-10.637337197675684 L-8.406192228505704,-10.43532137585663 L-8.658325875656391,-10.227091132425633 L-8.905303333983857,-10.012770472238742 L-9.146977523968513,-9.792487027104752 L-9.38320452428248,-9.566371979778166 L-9.61384365749732,-9.334559985837501 L-9.838757573859978,-9.097189093495471 L-10.057812333087032,-8.854400661388798 L-10.270877484128546,-8.606339274396595 L-10.477826142854004,-8.353152657537462 L-10.67853506761411,-8.0949915879966 L-10.87288473263339,-7.832009805335266 L-11.060759399189953,-7.564363919936107 L-11.242047184539977,-7.292213319738857 L-11.416640128545898,-7.015720075321956 L-11.584434257968615,-6.735048843386596 L-11.745329648385422,-6.450366768700707 L-11.899230483696797,-6.161843384561223 L-12.04604511318662,-5.86965051183397 L-12.185686106101818,-5.573962156631236 L-12.318070303718951,-5.274954406688016 L-12.443118868866733,-4.972805326498584 L-12.560757332874982,-4.667694851275887 L-12.670915639922047,-4.359804679796893 L-12.773528188754323,-4.049318166197699 L-12.868533871752971,-3.736420210782838 L-12.955876111324601,-3.4212971499138325 L-13.035502893594252,-3.104136645042529 L-13.107366799380586,-2.7851275709553285 L-13.171425032434868,-2.4644599032948626 L-13.2276394449269,-2.1423246054260714 L-13.27597656016274,-1.818913514714084 L-13.31640759252067,-1.4944192282816235 L-13.348908464593569,-1.1690349883139515 L-13.373459821527419,-0.842954566979663 L-13.390047042547481,-0.5163721510358918 L-13.398660249665241,-0.18948222618658406 L-13.3992943135609,0.13752053873722403 L-13.391948856638002,0.4644414077062047 L-13.376628253248292,0.791085693461544 L-13.35334162708671,1.117258873454702 L-13.322102845758062,1.4427667056891051 L-13.282930512518616,1.7674153443947338 L-13.235847955197533,2.09101145546677 L-13.180883212304721,2.4133623315995436 " />
			<path d="M-8.194007198835882,11.841378552576792 L-74.95156202569899,58.585521674794336 " />
			<path d="M-80.68732638920946,50.39400123190441 L-74.95156202569899,58.58552167479433 " />
			<path d="M-13.929771562346325,3.6498581096868676 L-80.68732638920946,50.394001231904426 " />
			<path d="M2.4999999999999964,4.330127018922195 L2.6710297075410065,4.226771853487411 L2.8377928777152577,4.116665104570513 L3.000023133366802,3.9999826498703763 L3.157461337936505,3.8769108707108826 L3.309856009390733,3.747646354326946 L3.4569637219231684,3.6123955798482417 L3.598549494788114,3.4713745884822353 L3.7343871676441753,3.324808638423347 L3.864259761808781,3.1729318450394643 L3.9879598268464838,3.0159868069105613 L4.105289771937435,2.8542242183167534 L4.216062181496717,2.6879024687947934 L4.320100114540388,2.5172872304026273 L4.417237387320046,2.3426510333513133 L4.507318838774453,2.1642728306821466 L4.590200578374203,1.982437552684355 L4.6657502159635325,1.797435651765105 L4.733847073232161,1.609562638498827 L4.79438237647934,1.4191186095969286 L4.847259430362227,1.2264077685519028 L4.892393772351037,1.0317379397215156 L4.9297133076442465,0.8354200766292494 L4.959158424328375,0.6377677652664094 L4.980682088598351,0.4390967231892905 L4.994249919886403,0.23972429521151334 L4.999840245779451,0.03996894649708086 L4.997444136637268,-0.1598502461361438 L4.987065419856147,-0.35941410388997724 L4.96872067375524,-0.5584038558223525 L4.942439201095392,-0.7565016480322726 L4.908262982272716,-0.9533910513799376 L4.866246608261716,-1.1487575669310492 L4.816457193415043,-1.342289128317922 L4.758974268259188,-1.5336766002149647 L4.693889652457343,-1.7226142721322966 L4.6213073081423675,-1.9088003467387433 L4.541343173854109,-2.091937421934195 L4.454124979346371,-2.271732965901294 L4.359792041559311,-2.4478997843776398 L4.258495042083197,-2.6201564794021035 L4.15039578646897,-2.7882278988025027 L4.035666945770078,-2.9518455757066304 L3.91449178072844,-3.1107481573746028 L3.7870638490450843,-3.2646818226675367 L3.6535866962030736,-3.413400687485708 L3.5142735303365606,-3.5566671975285806 L3.3693468816653214,-3.6942525077493245 L3.2190382470387746,-3.825936847897719 L3.063587720157251,-3.9515098735675327 L2.9032436080611967,-4.070771002187644 L2.7382620345008895,-4.183529733420219 L2.5689065308202275,-4.289605953454138 L2.39544761500809,-4.3888302227076466 L2.218162359589661,-4.481044046480644 L2.037333949047945,-4.566100128124296 L1.8532512274824167,-4.643862604323573 L1.6662082372273557,-4.714207262116899 L1.4765037491668374,-4.777021737306234 L1.284440785496634,-4.832205693940686 L1.0903261356953333,-4.879670984586941 L0.8944698664778334,-4.91934179113051 L0.6971848265139834,-4.95115474588289 L0.4987861467034998,-4.9750590328011866 L0.29959073680539344,-4.991016468658504 L0.09991677922595424,-4.999001564035473 L-0.09991677922611103,-4.999001564035471 L-0.29959073680555,-4.991016468658494 L-0.4987861467036558,-4.975059032801171 L-0.6971848265141385,-4.951154745882868 L-0.8944698664779878,-4.919341791130481 L-1.090326135695486,-4.879670984586906 L-1.2844407854967854,-4.832205693940646 L-1.4765037491669872,-4.777021737306188 L-1.6662082372275036,-4.7142072621168465 L-1.8532512274825623,-4.643862604323515 L-2.0373339490480884,-4.566100128124232 L-2.218162359589802,-4.481044046480575 L-2.395447615008228,-4.388830222707572 L-2.5689065308203625,-4.289605953454057 L-2.7382620345010205,-4.183529733420134 L-2.9032436080613246,-4.070771002187554 L-3.0635877201573747,-3.9515098735674363 L-3.2190382470388945,-3.825936847897618 L-3.3693468816654377,-3.6942525077492183 L-3.5142735303366726,-3.55666719752847 L-3.653586696203181,-3.413400687485594 L-3.787063849045187,-3.264681822667418 L-3.9144917807285373,-3.1107481573744797 L-4.035666945770171,-2.951845575706504 L-4.1503957864690575,-2.788227898802373 L-4.25849504208328,-2.62015647940197 L-4.359792041559388,-2.447899784377503 L-4.454124979346442,-2.2717329659011547 L-4.541343173854175,-2.091937421934052 L-4.621307308142427,-1.908800346738598 L-4.693889652457397,-1.7226142721321493 L-4.7589742682592355,-1.5336766002148152 L-4.8164571934150855,-1.342289128317771 L-4.866246608261752,-1.1487575669308967 L-4.9082629822727455,-0.9533910513797837 L-4.942439201095415,-0.7565016480321175 L-4.968720673755258,-0.5584038558221966 L-4.987065419856158,-0.3594141038898208 L-4.997444136637274,-0.15985024613598708 L-4.999840245779449,0.03996894649723766 L-4.994249919886395,0.23972429521166994 L-4.9806820885983365,0.43909672318944665 L-4.959158424328355,0.6377677652665649 L-4.929713307644221,0.835420076629404 L-4.892393772351004,1.031737939721669 L-4.847259430362189,1.226407768552055 L-4.794382376479295,1.419118609597079 L-4.73384707323211,1.6095626384989756 L-4.6657502159634765,1.7974356517652512 L-4.590200578374141,1.9824375526844986 L-4.507318838774386,2.1642728306822883 L-4.417237387319972,2.3426510333514514 L-4.320100114540309,2.5172872304027627 L-4.216062181496633,2.6879024687949253 L-4.105289771937345,2.8542242183168822 L-3.9879598268463896,3.015986806910686 L-3.8642597618086816,3.172931845039586 L-3.734387167644071,3.3248086384234643 L-3.5985494947880046,3.471374588482349 L-3.4569637219230556,3.6123955798483505 L-3.3098560093906153,3.74764635432705 L-3.1574613379363834,3.8769108707109816 L-3.0000231333666765,3.9999826498704705 L-2.8377928777151284,4.116665104570602 L-2.6710297075408738,4.226771853487495 L-2.4999999999998606,4.330127018922274 " />
			<path d="M-2.0,5.196152422706632 L-2.0038053019082547,5.108996679958974 L-2.015192246987792,5.022504245039702 L-2.0340741737109314,4.937333377604111 L-2.060307379214091,4.854132279380964 L-2.09369221296335,4.773534160965933 L-2.1339745962155607,4.696152422706633 L-2.1808479557110076,4.622575986355587 L-2.233955556881021,4.553364813020093 L-2.2928932188134517,4.489045641520085 L-2.35721239031346,4.430107979587655 L-2.426423563648953,4.377000378417641 L-2.499999999999999,4.330127018922194 " />
			<path d="M-2.0,5.196152422706632 L-2.0,119.0 " />
			<path d="M2.0,119.0 L-2.0,119.0 " />
			<path d="M2.0,5.196152422706618 L2.0,119.0 " />
			<path d="M2.4999999999999982,4.3301270189221945 L2.426423563648952,4.377000378417641 L2.3572123903134594,4.430107979587655 L2.292893218813451,4.489045641520086 L2.233955556881021,4.553364813020094 L2.180847955711007,4.622575986355587 L2.1339745962155607,4.696152422706633 L2.0936922129633495,4.773534160965934 L2.060307379214091,4.8541322793809645 L2.0340741737109314,4.937333377604112 L2.015192246987792,5.022504245039703 L2.0038053019082542,5.108996679958975 L2.0,5.196152422706633 " />
			<path d="M1.5,0.0 L1.4960898472769246,0.10823663370092412 L1.484379774833456,0.21590897171117868 L1.46493083356513,0.32245566031653605 L1.437844421246162,0.4273212144175499 L1.4032617538884016,0.5299589135716536 L1.3613631295064355,0.6298336523403969 L1.3123669881272244,0.7264247300814293 L1.256528772944947,0.8192285656405454 L1.1941395985584657,0.9077613227906477 L1.1255247332346037,0.9915614327298002 L1.051041903110014,1.0701920004872396 L0.9710794271727416,1.1432430826914546 L0.8860541927468271,1.2103338248251052 L0.7964094820348305,1.2711144468241296 L0.7026126610496856,1.3252680666690342 L0.6051527429847132,1.372512352461018 L0.5045378387252633,1.412600994369762 L0.4012925077938318,1.4453249887788344 L0.29595502353960074,1.47051372793377 L0.18907456683043478,1.4880358894119066 L0.08120836287812708,1.4978001207766858 L-0.027081223875839805,1.499755515846962 L-0.13522962166809693,1.4938918800982564 L-0.24267299482914612,1.4802397838122894 L-0.3488511833614646,1.458870402697685 L-0.453210623354358,1.4298951468127845 L-0.5552072330098704,1.3934650797251877 L-0.65430924923335,1.3497701309362604 L-0.7499999999999991,1.2990381056766584 L-0.8417805980435729,1.2415334972353362 L-0.929172541823584,1.177556108014009 L-1.0117202102107707,1.1074394864962482 L-1.0889932378846963,1.0315491882801349 L-1.1605887590592547,0.9502808702406356 L-1.226133507838338,0.864058227757859 L-1.2852857642513842,0.7733307857655319 L-1.3377371358230739,0.6785715551361393 L-1.3832141653889003,0.5802745666212575 L-1.4214797567742041,0.4789522952039684 L-1.4523344109038454,0.3751329882915927 L-1.4756172658980045,0.26935791167830536 L-1.4912069357315398,0.16217852763591023 L-1.4990221430845156,0.054153619844901954 L-1.4990221430845154,-0.054153619844907575 L-1.491206935731539,-0.16217852763591584 L-1.4756172658980036,-0.2693579116783109 L-1.4523344109038439,-0.3751329882915982 L-1.4214797567742024,-0.47895229520397375 L-1.383214165388898,-0.5802745666212628 L-1.3377371358230714,-0.6785715551361444 L-1.2852857642513813,-0.7733307857655367 L-1.2261335078383349,-0.8640582277578637 L-1.160588759059251,-0.9502808702406398 L-1.0889932378846925,-1.031549188280139 L-1.0117202102107665,-1.107439486496252 L-0.9291725418235801,-1.177556108014012 L-0.8417805980435694,-1.2415334972353387 L-0.749999999999996,-1.2990381056766602 L-0.6543092492333473,-1.3497701309362617 L-0.555207233009868,-1.3934650797251886 L-0.45321062335435575,-1.4298951468127852 L-0.3488511833614627,-1.4588704026976855 L-0.24267299482914448,-1.4802397838122898 L-0.13522962166809563,-1.4938918800982566 L-0.02708122387583884,-1.499755515846962 L0.0812083628781277,-1.4978001207766858 L0.18907456683043505,-1.4880358894119063 L0.2959550235396007,-1.47051372793377 L0.40129250779383147,-1.4453249887788344 L0.5045378387252626,-1.4126009943697622 L0.6051527429847121,-1.3725123524610185 L0.7026126610496843,-1.3252680666690348 L0.7964094820348291,-1.2711144468241304 L0.8860541927468253,-1.2103338248251065 L0.9710794271727399,-1.1432430826914561 L1.0510419031100118,-1.0701920004872416 L1.1255247332346014,-0.9915614327298026 L1.1941395985584635,-0.9077613227906505 L1.2565287729449452,-0.8192285656405487 L1.3123669881272224,-0.7264247300814329 L1.3613631295064337,-0.6298336523404011 L1.4032617538883998,-0.5299589135716583 L1.4378444212461605,-0.42732121441755505 L1.4649308335651288,-0.32245566031654177 L1.484379774833455,-0.21590897171118484 L1.4960898472769242,-0.10823663370093072 L1.5,-7.028732187495145e-15 " />
			<path d="M3.0000000000000147,5.196152422706623 L3.186912835565581,5.08365877872496 L3.369612640700969,4.9644446468490555 L3.547857890181505,4.838667625604888 L3.7214129476095694,4.706493989517447 L3.8900483769208654,4.568098469299381 L4.053541245693969,4.423664020860738 L4.211675419862215,4.27338158344518 L4.364241849438297,4.117449827212396 L4.511038844873868,3.9560748906004086 L4.651872343688798,3.7894701078149815 L4.78655616701761,3.617855726806374 L4.914912265733952,3.4414586181062745 L5.036770955827719,3.2605119749098184 L5.151971142723679,3.0752550047991907 L5.260360534245046,2.8859326135163266 L5.361795841940473,2.6927950812027746 L5.45614297050831,2.496097731534717 L5.543277195067719,2.296100594190542 L5.623083326042292,2.0930680610971897 L5.695455861438202,1.887268536909688 L5.76029912631557,1.6789740841859595 L5.817527399268694,1.468460063725951 L5.867065025747902,1.2560047705505617 L5.908846518073247,1.041889066001593 L5.942816642007813,0.8263960064490765 L5.968930489776197,0.6098104690968243 L5.98715353943162,0.39241877538087266 L5.9974617004932025,0.17450831245868392 L5.999841345793065,-0.04363284671051322 L5.9942893294911475,-0.26171632419199825 L5.980812991233947,-0.4794538183050051 L5.95943014645166,-0.6965574847513614 L5.930169062806567,-0.9127403171394793 L5.893068422823789,-1.1277165264006492 L5.848177272753814,-1.341201918596062 L5.795554957734415,-1.552914270615101 L5.735271043337645,-1.7625737032682416 L5.667405223605638,-1.969903051281341 L5.592047215696802,-2.1746282297021837 L5.509296641281655,-2.376478596234914 L5.419262894845119,-2.575187309023346 L5.322064999069345,-2.7704916794101755 L5.217831447488289,-2.9621335192057527 L5.1067000346220155,-3.1498594820073325 L4.988817673815291,-3.3334213981175846 L4.864340203021294,-3.512576602619614 L4.73343217878719,-3.6870882561747766 L4.596266658713892,-3.856725658119207 L4.453024972677637,-4.021264551445146 L4.303896483115765,-4.180487419263901 L4.149078334693646,-4.334183772358505 L3.9887751936836593,-4.482150427445947 L3.823198977400764,-4.624191775781121 L3.65256857405236,-4.760120041747384 L3.4771095533727667,-4.8897555310919 L3.297053868424876,-5.012926868477592 L3.1126395489631697,-5.129471224037655 L2.9241103867634974,-5.23923452863315 L2.731715613335568,-5.34207167752911 L2.535709570444244,-5.437846722219877 L2.3363513738751793,-5.52643305015012 L2.13390457088931,-5.6077135520939105 L1.9286367918190221,-5.681580776970616 L1.7208193962665959,-5.747937073892917 L1.5107271143726273,-5.806694721259191 L1.2986376836286748,-5.857776042719587 L1.0848314817142508,-5.901113509862496 L0.869591155843541,-5.936649831485658 L0.6532012491118495,-5.964338029333911 L0.435947824335727,-5.984141500203429 L0.2181180858840625,-5.996034064330378 L6.578581641713004e-14,-6.0 L-0.21811808588393103,-5.996034064330383 L-0.43594782433559576,-5.984141500203439 L-0.6532012491117186,-5.964338029333925 L-0.8695911558434107,-5.936649831485678 L-1.0848314817141214,-5.90111350986252 L-1.2986376836285463,-5.857776042719616 L-1.5107271143725,-5.806694721259224 L-1.7208193962664695,-5.747937073892954 L-1.9286367918188976,-5.681580776970658 L-2.133904570889187,-5.6077135520939585 L-2.336351373875058,-5.526433050150171 L-2.5357095704441246,-5.437846722219934 L-2.7317156133354508,-5.3420716775291694 L-2.924110386763383,-5.239234528633214 L-3.112639548963058,-5.129471224037723 L-3.297053868424766,-5.012926868477665 L-3.4771095533726597,-4.889755531091977 L-3.652568574052255,-4.760120041747464 L-3.8231989774006627,-4.624191775781204 L-3.9887751936835607,-4.482150427446035 L-4.149078334693551,-4.334183772358596 L-4.303896483115674,-4.180487419263995 L-4.453024972677549,-4.021264551445244 L-4.596266658713808,-3.8567256581193075 L-4.733432178787109,-3.6870882561748806 L-4.864340203021218,-3.5125766026197205 L-4.988817673815218,-3.333421398117694 L-5.106700034621947,-3.1498594820074444 L-5.217831447488225,-2.9621335192058673 L-5.322064999069283,-2.7704916794102923 L-5.419262894845062,-2.5751873090234647 L-5.509296641281603,-2.376478596235035 L-5.592047215696754,-2.1746282297023063 L-5.667405223605594,-1.969903051281465 L-5.735271043337606,-1.7625737032683675 L-5.795554957734382,-1.552914270615228 L-5.8481772727537855,-1.3412019185961903 L-5.893068422823764,-1.1277165264007785 L-5.930169062806547,-0.9127403171396092 L-5.959430146451645,-0.6965574847514922 L-5.980812991233936,-0.4794538183051362 L-5.994289329491141,-0.2617163241921297 L-5.9998413457930635,-0.04363284671064478 L-5.997461700493207,0.1745083124585524 L-5.987153539431629,0.3924187753807414 L-5.968930489776211,0.6098104690966935 L-5.9428166420078306,0.8263960064489462 L-5.908846518073269,1.0418890660014632 L-5.867065025747929,1.2560047705504331 L-5.817527399268726,1.4684600637258236 L-5.760299126315607,1.6789740841858332 L-5.6954558614382425,1.8872685369095632 L-5.623083326042338,2.0930680610970662 L-5.543277195067769,2.296100594190421 L-5.456142970508364,2.496097731534597 L-5.361795841940531,2.6927950812026573 L-5.260360534245109,2.8859326135162107 L-5.151971142723746,3.075255004799078 L-5.036770955827791,3.260511974909708 L-4.914912265734028,3.441458618106166 L-4.7865561670176895,3.6178557268062694 L-4.651872343688881,3.78947010781488 L-4.511038844873956,3.95607489060031 L-4.364241849438388,4.1174498272123 L-4.211675419862308,4.273381583445088 L-4.053541245694065,4.423664020860649 L-3.8900483769209657,4.568098469299295 L-3.721412947609673,4.706493989517365 L-3.5478578901816107,4.83866762560481 L-3.369612640701078,4.964444646848982 L-3.186912835565693,5.08365877872489 L-3.000000000000129,5.196152422706557 " />
			<path d="M3.0,5.19615242270662 L3.0,120.0 " />
			<path d="M-3.0,120.0 L-3.0,5.196152422706561 " />
			<path d="M3.0,120.0 L-3.0,120.0 " />
			<path d="M-2.0,119.0 L-2.0,5.196152422706561 " />
			<path d="M-2.0,5.196152422706632 L-2.0038053019082547,5.108996679958974 L-2.015192246987792,5.022504245039702 L-2.0340741737109314,4.937333377604111 L-2.060307379214091,4.854132279380964 L-2.09369221296335,4.773534160965933 L-2.1339745962155607,4.696152422706633 L-2.1808479557110076,4.622575986355587 L-2.233955556881021,4.553364813020093 L-2.2928932188134517,4.489045641520085 L-2.35721239031346,4.430107979587655 L-2.426423563648953,4.377000378417641 L-2.499999999999999,4.330127018922194 " />
			<path d="M2.4999999999999964,4.330127018922195 L2.6710297075410065,4.226771853487411 L2.8377928777152577,4.116665104570513 L3.000023133366802,3.9999826498703763 L3.157461337936505,3.8769108707108826 L3.309856009390733,3.747646354326946 L3.4569637219231684,3.6123955798482417 L3.598549494788114,3.4713745884822353 L3.7343871676441753,3.324808638423347 L3.864259761808781,3.1729318450394643 L3.9879598268464838,3.0159868069105613 L4.105289771937435,2.8542242183167534 L4.216062181496717,2.6879024687947934 L4.320100114540388,2.5172872304026273 L4.417237387320046,2.3426510333513133 L4.507318838774453,2.1642728306821466 L4.590200578374203,1.982437552684355 L4.6657502159635325,1.797435651765105 L4.733847073232161,1.609562638498827 L4.79438237647934,1.4191186095969286 L4.847259430362227,1.2264077685519028 L4.892393772351037,1.0317379397215156 L4.9297133076442465,0.8354200766292494 L4.959158424328375,0.6377677652664094 L4.980682088598351,0.4390967231892905 L4.994249919886403,0.23972429521151334 L4.999840245779451,0.03996894649708086 L4.997444136637268,-0.1598502461361438 L4.987065419856147,-0.35941410388997724 L4.96872067375524,-0.5584038558223525 L4.942439201095392,-0.7565016480322726 L4.908262982272716,-0.9533910513799376 L4.866246608261716,-1.1487575669310492 L4.816457193415043,-1.342289128317922 L4.758974268259188,-1.5336766002149647 L4.693889652457343,-1.7226142721322966 L4.6213073081423675,-1.9088003467387433 L4.541343173854109,-2.091937421934195 L4.454124979346371,-2.271732965901294 L4.359792041559311,-2.4478997843776398 L4.258495042083197,-2.6201564794021035 L4.15039578646897,-2.7882278988025027 L4.035666945770078,-2.9518455757066304 L3.91449178072844,-3.1107481573746028 L3.7870638490450843,-3.2646818226675367 L3.6535866962030736,-3.413400687485708 L3.5142735303365606,-3.5566671975285806 L3.3693468816653214,-3.6942525077493245 L3.2190382470387746,-3.825936847897719 L3.063587720157251,-3.9515098735675327 L2.9032436080611967,-4.070771002187644 L2.7382620345008895,-4.183529733420219 L2.5689065308202275,-4.289605953454138 L2.39544761500809,-4.3888302227076466 L2.218162359589661,-4.481044046480644 L2.037333949047945,-4.566100128124296 L1.8532512274824167,-4.643862604323573 L1.6662082372273557,-4.714207262116899 L1.4765037491668374,-4.777021737306234 L1.284440785496634,-4.832205693940686 L1.0903261356953333,-4.879670984586941 L0.8944698664778334,-4.91934179113051 L0.6971848265139834,-4.95115474588289 L0.4987861467034998,-4.9750590328011866 L0.29959073680539344,-4.991016468658504 L0.09991677922595424,-4.999001564035473 L-0.09991677922611103,-4.999001564035471 L-0.29959073680555,-4.991016468658494 L-0.4987861467036558,-4.975059032801171 L-0.6971848265141385,-4.951154745882868 L-0.8944698664779878,-4.919341791130481 L-1.090326135695486,-4.879670984586906 L-1.2844407854967854,-4.832205693940646 L-1.4765037491669872,-4.777021737306188 L-1.6662082372275036,-4.7142072621168465 L-1.8532512274825623,-4.643862604323515 L-2.0373339490480884,-4.566100128124232 L-2.218162359589802,-4.481044046480575 L-2.395447615008228,-4.388830222707572 L-2.5689065308203625,-4.289605953454057 L-2.7382620345010205,-4.183529733420134 L-2.9032436080613246,-4.070771002187554 L-3.0635877201573747,-3.9515098735674363 L-3.2190382470388945,-3.825936847897618 L-3.3693468816654377,-3.6942525077492183 L-3.5142735303366726,-3.55666719752847 L-3.653586696203181,-3.413400687485594 L-3.787063849045187,-3.264681822667418 L-3.9144917807285373,-3.1107481573744797 L-4.035666945770171,-2.951845575706504 L-4.1503957864690575,-2.788227898802373 L-4.25849504208328,-2.62015647940197 L-4.359792041559388,-2.447899784377503 L-4.454124979346442,-2.2717329659011547 L-4.541343173854175,-2.091937421934052 L-4.621307308142427,-1.908800346738598 L-4.693889652457397,-1.7226142721321493 L-4.7589742682592355,-1.5336766002148152 L-4.8164571934150855,-1.342289128317771 L-4.866246608261752,-1.1487575669308967 L-4.9082629822727455,-0.9533910513797837 L-4.942439201095415,-0.7565016480321175 L-4.968720673755258,-0.5584038558221966 L-4.987065419856158,-0.3594141038898208 L-4.997444136637274,-0.15985024613598708 L-4.999840245779449,0.03996894649723766 L-4.994249919886395,0.23972429521166994 L-4.9806820885983365,0.43909672318944665 L-4.959158424328355,0.6377677652665649 L-4.929713307644221,0.835420076629404 L-4.892393772351004,1.031737939721669 L-4.847259430362189,1.226407768552055 L-4.794382376479295,1.419118609597079 L-4.73384707323211,1.6095626384989756 L-4.6657502159634765,1.7974356517652512 L-4.590200578374141,1.9824375526844986 L-4.507318838774386,2.1642728306822883 L-4.417237387319972,2.3426510333514514 L-4.320100114540309,2.5172872304027627 L-4.216062181496633,2.6879024687949253 L-4.105289771937345,2.8542242183168822 L-3.9879598268463896,3.015986806910686 L-3.8642597618086816,3.172931845039586 L-3.734387167644071,3.3248086384234643 L-3.5985494947880046,3.471374588482349 L-3.4569637219230556,3.6123955798483505 L-3.3098560093906153,3.74764635432705 L-3.1574613379363834,3.8769108707109816 L-3.0000231333666765,3.9999826498704705 L-2.8377928777151284,4.116665104570602 L-2.6710297075408738,4.226771853487495 L-2.4999999999998606,4.330127018922274 " />
			<path d="M2.4999999999999982,4.3301270189221945 L2.426423563648952,4.377000378417641 L2.3572123903134594,4.430107979587655 L2.292893218813451,4.489045641520086 L2.233955556881021,4.553364813020094 L2.180847955711007,4.622575986355587 L2.1339745962155607,4.696152422706633 L2.0936922129633495,4.773534160965934 L2.060307379214091,4.8541322793809645 L2.0340741737109314,4.937333377604112 L2.015192246987792,5.022504245039703 L2.0038053019082542,5.108996679958975 L2.0,5.196152422706633 " />
			<path d="M2.0,5.196152422706618 L2.0,119.0 " />
			<path d="M-2.0,119.0 L2.0,119.0 " />

       </g>
    </g>
    
</svg>
