<?xml version="1.0" encoding="UTF-8" standalone="no"?>
<svg
   xmlns:svg="http://www.w3.org/2000/svg"
   xmlns="http://www.w3.org/2000/svg"
   width="620.0"
   height="572.1422649450731"

>
    <g transform="scale(3.2865611008635303, -3.2865611008635303)   translate(81.68129033017449,-153.04269407843125)" stroke-width="0.5"  fill="none">
       <!-- hidden lines -->
       <g  stroke="rgb(160,160,160)" fill="none" stroke-dasharray="0.5,0.5" >

       </g>

       <!-- solid lines -->
       <g  stroke="rgb(0,0,0)" fill="none">
			<path d="M-5.4,9.353074360871936 L103.92304845413263,60.000000000000014 " />
			<path d="M-31.17691453623979,-18.000000000000004 L-5.399999999999999,9.353074360871936 " />
			<path d="M103.92304845413263,60.000000000000014 L5.400000000000006,-9.353074360871943 " />
			<path d="M5.4,-9.353074360871936 L-31.176914536239792,-18.000000000000007 " />
			<path d="M0.9516660498395417,3.5516660498395414 L-3.5516660498395396,0.95166604983954 " />
			<path d="M3.5516660498395414,-0.9516660498395397 L0.9516660498395404,3.5516660498395414 " />
			<path d="M-0.9516660498395417,-3.5516660498395414 L3.551666049839538,-0.9516660498395417 " />
			<path d="M-3.5516660498395414,0.9516660498395397 L-0.9516660498395404,-3.5516660498395414 " />
			<path d="M-15.125967425060782,-0.9675988071709956 L-78.63859625174322,55.063337889700435 " />
			<path d="M23.591578875522963,-16.519001366910125 L0.37903977889809326,-10.540048992804667 " />
			<path d="M-78.63859625174321,55.06333788970042 L0.3639165392484074,12.023368104793043 " />
			<path d="M14.354033912742544,-3.050084456237551 L23.591578875522963,-16.51900136691013 " />
			<path d="M-4.5,120.0 L0.0,150.0 " />
			<path d="M0.0,111.0 L-4.500000000000001,120.0 " />
			<path d="M0.0,150.0 L4.5,120.0 " />
			<path d="M4.5,120.0 L-8.881784197001252e-16,111.0 " />

       </g>
    </g>
    
</svg>
