<?xml version="1.0" encoding="UTF-8" standalone="no"?>
<svg
   xmlns:svg="http://www.w3.org/2000/svg"
   xmlns="http://www.w3.org/2000/svg"
   width="620.0"
   height="536.2374123216213"

>
    <g transform="scale(3.0838555096871043, -3.0838555096871043)   translate(87.88129033017448,-156.24269407843127)" stroke-width="0.5"  fill="none">
       <!-- hidden lines -->
       <g  stroke="rgb(160,160,160)" fill="none" stroke-dasharray="0.5,0.5" >

       </g>

       <!-- solid lines -->
       <g  stroke="rgb(0,0,0)" fill="none">
			<path d="M13.341064358794242,1.2553890928751654 L13.36775025212641,0.9291142000713624 L13.386457822850373,0.6022847806876763 L13.397175905659207,0.275095897505544 L13.399898103640883,-0.052257172153527875 L13.394622792096154,-0.37957905297602235 L13.38135311950825,-0.7066743882629662 L13.360097005663723,-1.033347956525379 L13.33086713692569,-1.3594047879990132 L13.293680958662154,-1.6846502810088646 L13.248560664834041,-2.008890318113991 L13.195533184749095,-2.331931381963326 L13.134630166989552,-2.6535806707933327 L13.065887960523213,-2.9736462134985846 L12.989347593009164,-3.29193698420657 L12.905054746311066,-3.608263016288343 L12.813059729232707,-3.9224355157370088 L12.713417447492013,-4.234266973846316 L12.60618737095146,-4.543571279122169 L12.491433498124476,-4.850163828360201 L12.369224317978958,-5.153861636823201 L12.239632769060776,-5.45448344745253 L12.10273619596158,-5.751849839048427 L11.958616303156957,-6.045783333354628 L11.807359106242458,-6.336108500983335 L11.649054880596585,-6.62265206611738 L11.483798107501432,-6.9052430099270605 L11.311687417753053,-7.183712672639906 L11.132825532795323,-7.457894854202525 L10.947319203412295,-7.7276259134743555 L10.755279146015763,-7.9927448658942195 L10.556819976565986,-8.253093479561304 L10.352060142165021,-8.508516369673286 L10.141121850363522,-8.758861091265205 L9.924130996223163,-9.003978230193729 L9.70121708717823,-9.243721492312556 L9.47251316574124,-9.47794779078566 L9.238155730098693,-9.706517331486337 L8.998284652644365,-9.929293696431024 L8.753043096498766,-10.146143925198148 L8.50257743006458,-10.356938594283369 L8.24703713966908,-10.561551894343879 L7.986574740345667,-10.759861705285646 L7.721345684807764,-10.951749669148782 L7.451508270669426,-11.13710126074757 L7.1772235459679905,-11.31580585602292 L6.898655213045208,-11.487756798066545 L6.615969530844173,-11.65285146077738 L6.329335215680404,-11.810991310112284 L6.038923340546277,-11.962081962894477 L5.744907233008913,-12.106033243144585 L5.447462371762459,-12.242759235900706 L5.14676628189651,-12.372178338495331 L4.842998428943166,-12.49421330925857 L4.536340111765972,-12.60879131361857 L4.226974354354661,-12.715843967571637 L3.915085796590294,-12.815307378496113 L3.6008605840459627,-12.907122183285637 L3.2844862568888615,-12.991233583779033 L2.9661516379500137,-13.067591379465705 L2.6460467200284605,-13.13614999744699 L2.324362552497167,-13.19686851963559 L2.0012911272783427,-13.249710707176854 L1.6770252642562058,-13.294645022077361 L1.3517584961956013,-13.331644646027847 L1.0256849532351344,-13.36068749640927 L0.6989992470237887,-13.38175623947246 L0.37189635457014525,-13.394838300683492 L0.044571501873558184,-13.399925872228573 L-0.2827799525932875,-13.397015917674029 L-0.6099626344808762,-13.386110173778532 L-0.9367812701688374,-13.367215149456554 L-1.263040803311812,-13.340342121893627 L-1.5885465112556236,-13.30550712981574 L-1.913104121254313,-13.262730963916885 L-2.23651992641864,-13.212039154450473 L-2.558600901326858,-13.153461955992018 L-2.8791548172287786,-13.087034329382202 L-3.1979903567743504,-13.012795920861059 L-3.514917228198283,-12.930791038405765 L-3.829746278892566,-12.841068625286155 L-4.142289608299101,-12.743682230853734 L-4.452360680055074,-12.63868997858162 L-4.759774433324122,-12.526154531374502 L-5.06434739324686,-12.406143054169322 L-5.365897780444849,-12.278727173848964 L-5.6642456195126325,-12.14398293649295 L-5.9592128464331005,-12.001990761990555 L-6.250623414852093,-11.852835396043544 L-6.538303401148777,-11.69660585958706 L-6.822081108239101,-11.533395395658953 L-7.101787168050391,-11.363301413749209 L-7.377254642605907,-11.186425431662679 L-7.648319123659039,-11.002873014929845 L-7.914818830817677,-10.812753713801765 L-8.176594708100176,-10.616180997866802 L-8.43349051886532,-10.413272188328161 L-8.685352939059594,-10.204148387982647 L-8.932031648726145,-9.98893440894245 L-9.173379421720767,-9.767758698143085 L-9.409252213581427,-9.540753260681935 L-9.63950924749882,-9.308053581033183 L-9.86401309833673,-9.069798542186115 L-10.082629774651943,-8.82613034275509 L-10.295228798664859,-8.577194412110625 L-10.501683284133001,-8.323139323582264 L-10.701870012081015,-8.064116705785022 L-10.895669504341864,-7.8002811521223165 L-11.082966094865439,-7.531790128519455 L-11.263647998751928,-7.258803879442651 L-11.437607378968808,-6.981485332259764 L-11.604740410711615,-6.699999999999757 L-11.764947343370071,-6.414515882568964 L-11.918132560062592,-6.125203366483099 L-12.064204634703671,-5.832235123174854 L-12.20307638657004,-5.53578600593779 L-12.334664932333038,-5.236032945568011 L-12.458891735526178,-4.9331548447659195 L-12.575682653418356,-4.627332471361077 L-12.684967981264714,-4.31874835042388 L-12.786682493908774,-4.007586655328469 L-12.880765484711016,-3.694033097831868 L-12.967160801780627,-3.378274817234968 L-13.04581688148884,-3.0605002686915017 L-13.116686779243846,-2.7408991107316725 L-13.179728197508899,-2.419662092067573 L-13.234903511046907,-2.096980937747939 L-13.282179789376444,-1.7730482347302026 L-13.321528816425761,-1.4480573169381188 L-13.352927107373091,-1.1222021498735844 L-13.376355922663173,-0.7956772148515059 L-13.391801279191656,-0.46867739292681865 L-13.399253958650686,-0.14139784858292082 L-13.398709513030694,0.18596608674905113 L-13.390168267275122,0.5132190312705802 L-13.373635319086489,0.8401656694262005 L-13.349120535883907,1.1666108684743675 L-13.316638548913872,1.492359794949265 L-13.276208744517849,1.817218030943934 L-13.227855252561852,2.1409916901454347 L-13.17160693203492,2.4634875335527076 L-13.107497353825115,2.784513084808104 L-13.035564780683282,3.1038767450737375 L-12.95585214438655,3.4213879073841245 L-12.868407020115214,3.7368570704068187 L-12.773281598058253,4.050095951543172 L-12.670532652264484,4.360917599301718 L-12.560221506757909,4.669136504877115 L-12.442413998937447,4.974568712868023 L-12.317180440282996,5.2770319310678735 L-12.184595574391157,5.576345639262993 L-12.04473853236575,5.872331196973114 L-11.897692785589715,6.164811950070043 L-11.743546095906577,6.4536133362107595 L-11.582390463241236,6.738562989022096 L-11.41432207069132,7.019490840974794 L-11.23944122712187,7.296229224885495 L-11.057852307297656,7.568612973986177 L-10.86966368958879,7.836479520501218 L-10.674987691286884,8.099668992673312 L-10.473940501570315,8.358024310180303 L-10.266642112158616,8.61139127788601 L-10.053216245697385,8.859618677869053 L-9.83379028191645,9.102558359674797 L-9.608495181605376,9.340065328736532 L-9.377465408451647,9.571997832913084 L-9.140838848788237,9.798217447091268 L-8.898756729298395,10.018589155802651 L-8.65136353272683,10.232981433805318 L-8.398806911647542,10.441266324582543 L-8.141237600339807,10.643319516711566 L-7.8788093248248945,10.839020418056803 L-7.611678711117212,11.028252227743298 L-7.340005191744633,11.210902005867405 L-7.063950910593809,11.386860740903126 L-6.783680626137247,11.55602341476384 L-6.499361613099918,11.718289065480644 L-6.211163562624074,11.87356084745983 L-5.91925848099188,12.021746089283607 L-5.623820586966278,12.162756349019503 L-5.325026207811373,12.296507467005501 L-5.023053674054402,12.422919616079328 L-4.718083213052077,12.541917349222016 L-4.410296841424843,12.653429644587195 L-4.099878256423244,12.757389947889337 L-3.7870127262912234,12.853736212125574 L-3.4718869796918206,12.942410934607446 L-3.154689094261217,13.023361191280435 L-2.835608384357692,13.096538668310812 L-2.5148352880724474,13.161899690920972 L-2.1925612535697523,13.21940524945599 L-1.8689786248242486,13.269021022665918 L-1.544280526823603,13.310717398189828 L-1.2186607503050162,13.3444694902295 L-0.8923136360944088,13.370257154402077 L-0.5654339591172786,13.388064999762921 L-0.23821681215047885,13.39788239799144 L0.08914251061570155,13.399703489734431 L0.41644863013568223,13.393527188103143 L0.743506199117367,13.379357179321959 L1.0701200186119761,13.357201920528336 L1.396095154515331,13.327074634725312 L1.7212370539110946,13.288993302889553 L2.0453516611864693,13.242980653239727 L2.3682455338511303,13.189064147671512 L2.689725957990186,13.127275965367444 L3.009601063282334,13.057652983591264 L3.327679937514504,12.980236755678359 L3.6437727405246996,12.895073486235319 L3.9576908175049628,12.802214003563478 L4.269246811596929,12.701713729322883 L4.578254775712681,12.593632645454765 L4.8845302835142235,12.478035258382324 L5.187890539485324,12.354990560511109 L5.488154488030013,12.22457198905205 L5.785142921532651,12.086857382191644 L6.078678587315066,11.941928932635516 L6.368586293426896,11.789873138553062 L6.6546930132060345,11.630780751952415 L6.936827988546764,11.464746724516605 L7.214822831813927,11.291870150933212 L7.488511626342326,11.112254209751313 L7.757731025461373,10.926006101801061 " />
			<path d="M8.836666176614711,10.875354287703626 L8.758827265162111,10.834858861436997 L8.677738230185998,10.801342535694387 L8.59402335797714,10.77506334514946 L8.50832715055814,10.756223607395398 L8.421309363806943,10.744968365347125 L8.33363992814432,10.741384270588448 L8.245993790889836,10.745498916260946 L8.15904571999384,10.757280624630566 L8.073465109150371,10.776638690967387 L7.989910824285268,10.803424081860992 L7.909026131095199,10.83743058259527 L7.831433742689354,10.878396384749244 L7.757731025460907,10.926006101801391 " />
			<path d="M8.836666176614713,10.875354287703622 L101.42304845413263,64.3301270189222 " />
			<path d="M101.42304845413263,64.33012701892221 L101.59717572126375,64.42609489623723 L101.77498067125799,64.51506420775786 L101.95618215794238,64.59689427471538 L102.14049366452137,64.6714557069541 L102.32762375661866,64.73863060752393 L102.51727654309494,64.79831275909956 L102.70915214391249,64.85040779193194 L102.9029471643073,64.89483333306629 L103.09835517451846,64.93151913659061 L103.29506719431659,64.96040719470892 L103.49277218156514,64.98145182946354 L103.69115752404194,64.99461976496127 L103.88990953374332,64.9998901799895 L104.08871394288938,64.99725474093879 L104.28725640084595,64.98671761497992 L104.48522297117749,64.96829546347493 L104.68230062804521,64.94201741563191 L104.87817775116518,64.90792502244587 L105.0725446185441,64.86607219099794 L105.26509389621346,64.8165250992173 L105.45552112418761,64.75936209124023 L105.64352519787771,64.69467355353197 L105.82880884419987,64.62256177196701 L106.01107909162506,64.5431407700943 L106.1900477334273,64.4565361288424 L106.3654317833977,64.3628847879503 L106.53695392330388,64.26233482943758 L106.70434294138708,64.15504524345621 L106.86733416120364,64.04118567689453 L107.02566986013295,63.920936165130556 L107.17909967688982,63.79448684735913 L107.3273810073972,63.662037665942734 L107.47027938839295,63.5237980502615 L107.60756886816466,63.37998658556233 L107.73903236382559,63.2308306673307 L107.86446200456736,63.07656614173166 L107.98365946034647,62.91743693268853 L108.09643625548487,62.75369465618909 L108.20261406668868,62.585598222428956 L108.30202500501403,62.41341342642136 L108.39451188133397,62.23741252772056 L108.47992845488677,62.05787381992359 L108.55813966451268,61.87508119063084 L108.62902184221333,61.689323672561386 L108.69246290869624,61.50089498653291 L108.74836255059532,61.310093077028675 L108.79663237908679,61.11721964108606 L108.83719606965016,60.922579651251525 L108.86998948275298,60.726480873356365 L108.89496076526859,60.529233379875635 L108.91207043246662,60.331149059639834 L108.9212914304464,60.132541124674574 L108.9226091789148,59.933723614947986 L108.91602159424062,59.73501090180898 L108.90153909274929,59.53671719090149 L108.87918457425248,59.33915602534084 L108.8489933858388,59.14263978993756 L108.81101326598278,58.94747921725284 L108.76530426906056,58.753982896266436 L108.71193867039155,58.56245678443412 L108.6510008519563,58.373203723906 L108.58258716897124,58.18652296267087 L108.5068057975313,58.00270968138362 L108.4237765635612,57.82205452662393 L108.33363075334618,57.64484315132431 L108.2365109059412,57.471355763094095 L108.13257058778757,57.301866681153605 L108.02197414989273,57.1366439025791 L107.9048964679576,56.97594867854428 L107.78152266586207,56.820035101228505 L107.65204782294619,56.66914970204484 L107.51667666554955,56.523531061823185 L107.37562324329694,56.38340943356497 L107.22911059064181,56.24900637836583 L107.077370374203,56.12053441508196 L106.92064252645221,55.99819668429414 L106.75917486633142,55.88218662710071 L106.59322270740023,55.772687679247404 L106.42304845413258,55.669872981077795 " />
			<path d="M13.836666176614601,2.2151002498591748 L106.42304845413264,55.669872981077816 " />
			<path d="M13.341064358794243,1.2553890928751588 L13.33668449297432,1.3430223768490084 L13.340003261825492,1.4307022574257655 L13.350995114890829,1.5177537068728137 L13.36957542835922,1.603506535607837 L13.395601156565123,1.6873005518380808 L13.42887193326505,1.7684906442288735 L13.469131614212337,1.846451748471083 L13.516070249154232,1.9205836595110213 L13.569326468069377,1.9903156523945185 L13.628490263274532,2.055110876150321 L13.693106145981758,2.1144704868852973 L13.76267665300443,2.1679374882716704 L13.83666617661471,2.2151002498592365 " />
			<path d="M3.5516660498395396,-0.9516660498395417 L-0.9516660498395417,-3.5516660498395414 " />
			<path d="M0.9516660498395404,3.5516660498395414 L3.5516660498395414,-0.9516660498395397 " />
			<path d="M-0.9516660498395404,-3.5516660498395414 L-3.5516660498395414,0.9516660498395397 " />
			<path d="M-3.551666049839543,0.9516660498395382 L0.9516660498395417,3.5516660498395396 " />
			<path d="M14.336666176614724,1.3490748460746262 L14.364386672591541,1.0121242612814179 L14.384189013602535,0.6746157580105079 L14.396062283901118,0.3367353828152293 L14.399999938523251,-0.0013306127622056962 L14.395999806895269,-0.33939587485910394 L14.384064094030359,-0.6772740500170924 L14.364199379313098,-1.0147788879066955 L14.336416612872654,-1.3517243439950688 L14.300731109546694,-1.687924682100281 L14.257162540439303,-2.02319457677563 L14.205734922077578,-2.357349215467549 L14.146476603172893,-2.690204400390777 L14.079420248994062,-3.0215766500646586 L14.004602823361118,-3.3512833004545817 L13.922065568269547,-3.67914260566283 L13.831853981156254,-4.00497383811329 L13.734017789819763,-4.328597388174864 L13.628610925008529,-4.649834863168599 L13.51569149069239,-4.968509185704021 L13.39532173203364,-5.284444691290398 L13.267568001075277,-5.597467225169196 L13.132500720165451,-5.907404238314307 L12.990194343138182,-6.2140848825471275 L12.840727314271778,-6.517340104714091 L12.684182025047603,-6.817002739874709 L12.520644768732993,-7.112907603448755 L12.350205692813372,-7.404891582271827 L12.172958749299788,-7.692793724509043 L11.989001642939263,-7.976455328377362 L11.798435777356499,-8.255720029627586 L11.601366199156637,-8.530433887737829 L11.397901540019868,-8.800445470770937 L11.18815395681985,-9.065605938849114 L10.972239069798874,-9.325769126199678 L10.750275898833936,-9.580791621726787 L10.522386797828785,-9.830532848064669 L10.28869738726816,-10.074855139068813 L10.04933648497136,-10.313623815702385 L9.804436035083324,-10.54670726027605 L9.554131035342396,-10.773976989000264 L9.298559462664803,-10.995307722810074 L9.03786219708695,-11.210577456423314 L8.772182944107376,-11.419667525594237 L8.501668155471238,-11.622462672525398 L8.226466948440956,-11.818851109401814 L7.94673102359754,-12.008724580012332 L7.662614581217886,-12.191978419424265 L7.374274236274176,-12.36851161167838 L7.081868932102188,-12.53822684547244 L6.785559852786147,-12.701030567802631 L6.485510334308387,-12.856833035533247 L6.181885774512818,-13.005548364866282 L5.874853541931817,-13.147094578683578 L5.5645828835268105,-13.281393651735517 L5.251244831393396,-13.408371553651254 L4.935012108482439,-13.527958289746891 L4.6160590333891145,-13.640087939608994 L4.294561424262359,-13.74469869343223 L3.970696501887733,-13.841732886091124 L3.644642791997091,-13.931137028927095 L3.31658002685892,-14.012861839233286 L2.9866890462035958,-14.086862267420925 L2.655151697538164,-14.153097521852246 L2.322150735905603,-14.211531091326263 L1.9878697231438132,-14.26213076520504 L1.652492926699889,-14.304868651169322 L1.3162052180554111,-14.339721190593757 L0.9791919708187926,-14.366669171533253 L0.6416389585408284,-14.385697739313258 L0.3037322523097812,-14.396796404718195 L-0.03434188181754294,-14.399959049773482 L-0.37239708549219497,-14.395183931117964 L-0.7102470108003622,-14.382473680964939 L-1.047705422984877,-14.361835305651155 L-1.3845863031043741,-14.333280181774711 L-1.7207039505734665,-14.296824049923845 L-2.055873085527443,-14.252487006000175 L-2.3899089509550313,-14.200293490141146 L-2.722627414542975,-14.140272273247747 L-3.0538450701762203,-14.072456441124995 L-3.383379339037834,-13.996883376243865 L-3.711048570252852,-13.913594737134765 L-4.03667214102063,-13.822636435423885 L-4.3600705561804896,-13.724058610525091 L-4.681065547155754,-13.617915602001332 L-4.999480170221663,-13.504265919610749 L-5.315138904042963,-13.383172211054035 L-5.627867746427452,-13.254701227440833 L-5.937494310242094,-13.118923786494175 L-6.2438479184388775,-12.97591473351326 L-6.546759698137988,-12.825752900116084 L-6.84606267371651,-12.668521060784702 L-7.141591858851219,-12.504305887237003 L-7.4331843474648736,-12.333197900650227 L-7.720679403525768,-12.155291421762499 L-8.003918549651068,-11.970684518879924 L-8.28274565446514,-11.779478953817899 L-8.557007018664635,-11.581780125806404 L-8.82655145974295,-11.377697013390254 L-9.091230395327369,-11.167342114356298 L-9.35089792508284,-10.950831383720661 L-9.605410911137419,-10.728284169810294 L-9.85462905698487,-10.499823148473954 L-10.098414984821035,-10.265574255458969 L-10.336634311271316,-10.025666616991037 L-10.569155721467515,-9.780232478595304 L-10.795851041433204,-9.529407132197974 L-11.016595308737719,-9.273328841548652 L-11.231266841379862,-9.012138766004503 L-11.43974730486329,-8.745980882718246 L-11.641921777426647,-8.47500190727289 L-11.83767881339248,-8.199351212806947 L-12.026910504600023,-7.919180747674701 L-12.209512539887951,-7.634644951686935 L-12.385384262594389,-7.345900670978285 L-12.55442872604237,-7.053107071548124 L-12.716552746980275,-6.756425551522673 L-12.871666956947703,-6.456019652186681 L-13.019685851538524,-6.152054967833719 L-13.160527837533902,-5.8446990544847734 L-13.294115277879344,-5.534121337525494 L-13.420374534480986,-5.220493018312949 L-13.539236008797483,-4.903986979803435 L-13.650634180205191,-4.584777691253279 L-13.754507642115426,-4.263041112045288 L-13.850799135823937,-3.9389545946937323 L-13.939455582073915,-3.612696787081405 L-14.020428110315153,-3.284447533982638 L-14.0936720856432,-2.9543877779265237 L-14.1591471334037,-2.6226994594550446 L-14.216817161448313,-2.289565416831043 L-14.266650380029985,-1.9551692852513431 L-14.308619319326567,-1.6196953956205746 L-14.342700844583149,-1.283328672941498 L-14.368876168864752,-0.9462545343778448 L-14.387130863412338,-0.6086587870458438 L-14.397454865596469,-0.2707275255908268 L-14.39984248446416,0.06735297039469845 L-14.394292403875951,0.40539633905490646 L-14.380807683231387,0.7432162389998558 L-14.359395755782597,1.0806264520234174 L-14.330068424536805,1.4174409857532968 L-14.292841855750096,1.7534741761765735 L-14.247736570016027,2.088540789984224 L-14.194777430953927,2.42245612667824 L-14.133993631503225,2.7550361203850375 L-14.065418677831246,3.0860974413190334 L-13.989090370863458,3.4154575968404766 L-13.90505078544625,3.7429350320517916 L-13.813346247153833,4.068349229877041 L-13.714027306751907,4.391520810569273 L-13.607148712332341,4.712271630590945 L-13.492769379134085,5.030424880812908 L-13.370952357067011,5.345805183977813 L-13.241764795956604,5.658238691374223 L-13.105277908528603,5.967553178668129 L-12.961566931154046,6.273578140839072 L-12.810711082376342,6.576144886168487 L-12.652793519243218,6.875086629228524 L-12.487901291467633,7.17023858282003 L-12.316125293442923,7.461438048809052 L-12.137560214138604,7.7485245078117675 L-11.952304484904488,8.03133970767842 L-11.760460225211862,8.309727750727443 L-11.562133186361647,8.583535179681775 L-11.35743269319056,8.852611062259891 L-11.146471583807426,9.116807074374973 L-10.92936614739283,9.375977581896384 L-10.706236060096455,9.6299797209283 L-10.47720431906736,9.878673476561325 L-10.24239717465364,10.121921760053628 L-10.001944060808786,10.359590484399071 L-9.755977523743152,10.591548638240699 L-9.504633148859805,10.817668358088786 L-9.248049486015102,11.037824998803694 L-8.98636797314513,11.251897202304662 L-8.71973285830014,11.459766964466635 L-8.448291120129955,11.661319700168303 L-8.172192386864168,11.856444306455424 L-7.891588853831807,12.045033223784714 L-7.606635199565905,12.226982495314406 L-7.317488500539272,12.402191824208957 L-7.024308144578406,12.570564628926158 L-6.727255743003327,12.732008096456298 L-6.426495041541733,12.886433233483944 L-6.122191830066601,13.033754915444195 L-5.8145138512069705,13.173891933446328 L-5.503630707882322,13.306767039038998 L-5.189713769811474,13.432306986792295 L-4.8729360790475775,13.550442574673212 L-4.553472254591242,13.661108682192221 L-4.231498396134415,13.764244306299995 L-3.907191986988031,13.859792595014419 L-3.580731796246973,13.947700878759406 L-3.2522977802462663,14.027920699398225 L-2.922070983362813,14.10040783694532 L-2.590233438217372,14.165122333941932 L-2.256968065331775,14.222028517482045 L-1.922458572296704,14.271095018876544 L-1.5868893525056071,14.312294790944753 L-1.250445383510585,14.345605122923782 L-0.9133121250562484,14.371007652987497 L-0.5756754168477931,14.388488378368212 L-0.23772137610962396,14.398037663075497 L0.10036370500901004,14.399650243207883 L0.4383934621247958,14.393325229854504 L0.7761815613509526,14.3790661095851 L1.1135418020110253,14.356880742528094 L1.4502882192792477,14.326781358037813 L1.7862351866908828,14.288784547953245 L2.121197518466066,14.242911257452018 L2.4549905715907094,14.189186773504698 L2.7874303475982334,14.127640710935722 L3.1183335939959793,14.058306996098644 L3.447517905280436,13.981223848174764 L3.7748018234855625,13.896433758105353 L4.100004938208787,13.803983465169157 L4.4229479860595955,13.703923931218071 L4.743452949475775,13.596310312585157 L5.0613431548529855,13.481201929680559 L5.376443369933442,13.358662234291977 L5.68857990040011,13.228758774607837 L5.997580685623105,13.091563157982344 L6.303275393505575,12.947151011462989 L6.605495514376734,12.795601940102262 L6.90407445388032,12.636999483076554 L7.198847624807255,12.47143106763642 L7.48965253782191,12.298987960913607 L7.776328891031932,12.119765219611395 L8.058718658352293,11.933861637606018 L8.336666176614811,11.741379691487989 " />
			<path d="M14.336666176614603,1.3490748460747364 L106.92304845413263,54.80384757729338 " />
			<path d="M100.92304845413263,65.19615242270665 L8.33666617661477,11.741379691488099 " />
			<path d="M106.92304845413263,54.80384757729338 L107.10868638227194,54.9155422127035 L107.29017084630692,55.03386601105867 L107.46726522511993,55.15866470069959 L107.63973862142697,55.289775567943984 L107.8073661628236,55.42702766923419 L107.96992929497571,55.570242054015026 L108.12721606657269,55.71923199805106 L108.27902140567141,55.873803246879476 L108.42514738707104,56.033754269080816 L108.56540349036965,56.19887651903747 L108.69960684836649,56.36895470883742 L108.82758248548598,56.54376708896858 L108.94916354591241,56.723085737437835 L109.06419151113816,56.906676856937885 L109.17251640664152,57.094301079674295 L109.27399699742492,57.28571377945545 L109.36850097215837,57.48066539063843 L109.45590511568822,57.67890173351498 L109.53609546968623,57.880164345713396 L109.60896748122944,58.08419081918413 L109.67442613911727,58.290715142329816 L109.732386097748,58.499468046833634 L109.78277178839315,58.71017735873387 L109.82551751772465,58.922568353286785 L109.86056755346645,59.136364113155295 L109.88787619705879,59.35128588945636 L109.90740784324032,59.56705346519632 L109.9191370264707,59.78338552062039 L109.92304845413263,60.000000000000014 L109.9191370264707,60.21661447937963 L109.90740784324032,60.43294653480371 L109.88787619705879,60.648714110543665 L109.86056755346645,60.863635886844726 L109.82551751772465,61.077431646713244 L109.78277178839315,61.28982264126616 L109.732386097748,61.500531953166394 L109.67442613911727,61.70928485767022 L109.60896748122944,61.9158091808159 L109.53609546968623,62.11983565428663 L109.45590511568822,62.32109826648505 L109.36850097215837,62.51933460936161 L109.27399699742492,62.71428622054458 L109.17251640664152,62.90569892032573 L109.06419151113816,63.09332314306215 L108.94916354591241,63.2769142625622 L108.82758248548598,63.45623291103146 L108.69960684836649,63.631045291162614 L108.56540349036963,63.801123480962566 L108.42514738707104,63.966245730919226 L108.2790214056714,64.12619675312057 L108.12721606657267,64.28076800194899 L107.9699292949757,64.42975794598502 L107.80736616282358,64.57297233076584 L107.63973862142696,64.71022443205605 L107.46726522511992,64.84133529930044 L107.2901708463069,64.96613398894137 L107.10868638227194,65.08445778729654 L106.92304845413261,65.19615242270665 L106.73349909833136,65.30107226667616 L106.54028545106603,65.39908052374506 L106.34365942607147,65.49004940984409 L106.14387738617211,65.57386031890077 L105.94119980903368,65.65040397747907 L105.73589094755006,65.71958058725116 L105.52821848530795,65.78129995511536 L105.31845318757848,65.83548161079075 L105.10686854829102,65.8820549117351 L104.89374043344921,65.92095913524918 L104.67934672145437,65.95214355764764 L104.46396694080502,65.97556752039304 L104.24788190564513,65.99120048310675 L104.03137334963598,65.99902206338786 L103.81472355862927,65.99902206338786 L103.59821500262012,65.99120048310675 L103.38212996746024,65.97556752039304 L103.1667501868109,65.95214355764764 L102.95235647481604,65.92095913524918 L102.73922835997423,65.8820549117351 L102.52764372068677,65.83548161079075 L102.3178784229573,65.78129995511536 L102.1102059607152,65.71958058725116 L101.90489709923159,65.65040397747907 L101.70221952209315,65.57386031890077 L101.50243748219378,65.49004940984409 L101.30581145719923,65.39908052374506 L101.1125978099339,65.30107226667616 L100.92304845413264,65.19615242270666 " />
			<path d="M101.42304845413263,64.3301270189222 L8.836666176614713,10.875354287703622 " />
			<path d="M8.836666176614711,10.875354287703626 L8.758827265162111,10.834858861436997 L8.677738230185998,10.801342535694387 L8.59402335797714,10.77506334514946 L8.50832715055814,10.756223607395398 L8.421309363806943,10.744968365347125 L8.33363992814432,10.741384270588448 L8.245993790889836,10.745498916260946 L8.15904571999384,10.757280624630566 L8.073465109150371,10.776638690967387 L7.989910824285268,10.803424081860992 L7.909026131095199,10.83743058259527 L7.831433742689354,10.878396384749244 L7.757731025460907,10.926006101801391 " />
			<path d="M13.341064358794242,1.2553890928751654 L13.36775025212641,0.9291142000713624 L13.386457822850373,0.6022847806876763 L13.397175905659207,0.275095897505544 L13.399898103640883,-0.052257172153527875 L13.394622792096154,-0.37957905297602235 L13.38135311950825,-0.7066743882629662 L13.360097005663723,-1.033347956525379 L13.33086713692569,-1.3594047879990132 L13.293680958662154,-1.6846502810088646 L13.248560664834041,-2.008890318113991 L13.195533184749095,-2.331931381963326 L13.134630166989552,-2.6535806707933327 L13.065887960523213,-2.9736462134985846 L12.989347593009164,-3.29193698420657 L12.905054746311066,-3.608263016288343 L12.813059729232707,-3.9224355157370088 L12.713417447492013,-4.234266973846316 L12.60618737095146,-4.543571279122169 L12.491433498124476,-4.850163828360201 L12.369224317978958,-5.153861636823201 L12.239632769060776,-5.45448344745253 L12.10273619596158,-5.751849839048427 L11.958616303156957,-6.045783333354628 L11.807359106242458,-6.336108500983335 L11.649054880596585,-6.62265206611738 L11.483798107501432,-6.9052430099270605 L11.311687417753053,-7.183712672639906 L11.132825532795323,-7.457894854202525 L10.947319203412295,-7.7276259134743555 L10.755279146015763,-7.9927448658942195 L10.556819976565986,-8.253093479561304 L10.352060142165021,-8.508516369673286 L10.141121850363522,-8.758861091265205 L9.924130996223163,-9.003978230193729 L9.70121708717823,-9.243721492312556 L9.47251316574124,-9.47794779078566 L9.238155730098693,-9.706517331486337 L8.998284652644365,-9.929293696431024 L8.753043096498766,-10.146143925198148 L8.50257743006458,-10.356938594283369 L8.24703713966908,-10.561551894343879 L7.986574740345667,-10.759861705285646 L7.721345684807764,-10.951749669148782 L7.451508270669426,-11.13710126074757 L7.1772235459679905,-11.31580585602292 L6.898655213045208,-11.487756798066545 L6.615969530844173,-11.65285146077738 L6.329335215680404,-11.810991310112284 L6.038923340546277,-11.962081962894477 L5.744907233008913,-12.106033243144585 L5.447462371762459,-12.242759235900706 L5.14676628189651,-12.372178338495331 L4.842998428943166,-12.49421330925857 L4.536340111765972,-12.60879131361857 L4.226974354354661,-12.715843967571637 L3.915085796590294,-12.815307378496113 L3.6008605840459627,-12.907122183285637 L3.2844862568888615,-12.991233583779033 L2.9661516379500137,-13.067591379465705 L2.6460467200284605,-13.13614999744699 L2.324362552497167,-13.19686851963559 L2.0012911272783427,-13.249710707176854 L1.6770252642562058,-13.294645022077361 L1.3517584961956013,-13.331644646027847 L1.0256849532351344,-13.36068749640927 L0.6989992470237887,-13.38175623947246 L0.37189635457014525,-13.394838300683492 L0.044571501873558184,-13.399925872228573 L-0.2827799525932875,-13.397015917674029 L-0.6099626344808762,-13.386110173778532 L-0.9367812701688374,-13.367215149456554 L-1.263040803311812,-13.340342121893627 L-1.5885465112556236,-13.30550712981574 L-1.913104121254313,-13.262730963916885 L-2.23651992641864,-13.212039154450473 L-2.558600901326858,-13.153461955992018 L-2.8791548172287786,-13.087034329382202 L-3.1979903567743504,-13.012795920861059 L-3.514917228198283,-12.930791038405765 L-3.829746278892566,-12.841068625286155 L-4.142289608299101,-12.743682230853734 L-4.452360680055074,-12.63868997858162 L-4.759774433324122,-12.526154531374502 L-5.06434739324686,-12.406143054169322 L-5.365897780444849,-12.278727173848964 L-5.6642456195126325,-12.14398293649295 L-5.9592128464331005,-12.001990761990555 L-6.250623414852093,-11.852835396043544 L-6.538303401148777,-11.69660585958706 L-6.822081108239101,-11.533395395658953 L-7.101787168050391,-11.363301413749209 L-7.377254642605907,-11.186425431662679 L-7.648319123659039,-11.002873014929845 L-7.914818830817677,-10.812753713801765 L-8.176594708100176,-10.616180997866802 L-8.43349051886532,-10.413272188328161 L-8.685352939059594,-10.204148387982647 L-8.932031648726145,-9.98893440894245 L-9.173379421720767,-9.767758698143085 L-9.409252213581427,-9.540753260681935 L-9.63950924749882,-9.308053581033183 L-9.86401309833673,-9.069798542186115 L-10.082629774651943,-8.82613034275509 L-10.295228798664859,-8.577194412110625 L-10.501683284133001,-8.323139323582264 L-10.701870012081015,-8.064116705785022 L-10.895669504341864,-7.8002811521223165 L-11.082966094865439,-7.531790128519455 L-11.263647998751928,-7.258803879442651 L-11.437607378968808,-6.981485332259764 L-11.604740410711615,-6.699999999999757 L-11.764947343370071,-6.414515882568964 L-11.918132560062592,-6.125203366483099 L-12.064204634703671,-5.832235123174854 L-12.20307638657004,-5.53578600593779 L-12.334664932333038,-5.236032945568011 L-12.458891735526178,-4.9331548447659195 L-12.575682653418356,-4.627332471361077 L-12.684967981264714,-4.31874835042388 L-12.786682493908774,-4.007586655328469 L-12.880765484711016,-3.694033097831868 L-12.967160801780627,-3.378274817234968 L-13.04581688148884,-3.0605002686915017 L-13.116686779243846,-2.7408991107316725 L-13.179728197508899,-2.419662092067573 L-13.234903511046907,-2.096980937747939 L-13.282179789376444,-1.7730482347302026 L-13.321528816425761,-1.4480573169381188 L-13.352927107373091,-1.1222021498735844 L-13.376355922663173,-0.7956772148515059 L-13.391801279191656,-0.46867739292681865 L-13.399253958650686,-0.14139784858292082 L-13.398709513030694,0.18596608674905113 L-13.390168267275122,0.5132190312705802 L-13.373635319086489,0.8401656694262005 L-13.349120535883907,1.1666108684743675 L-13.316638548913872,1.492359794949265 L-13.276208744517849,1.817218030943934 L-13.227855252561852,2.1409916901454347 L-13.17160693203492,2.4634875335527076 L-13.107497353825115,2.784513084808104 L-13.035564780683282,3.1038767450737375 L-12.95585214438655,3.4213879073841245 L-12.868407020115214,3.7368570704068187 L-12.773281598058253,4.050095951543172 L-12.670532652264484,4.360917599301718 L-12.560221506757909,4.669136504877115 L-12.442413998937447,4.974568712868023 L-12.317180440282996,5.2770319310678735 L-12.184595574391157,5.576345639262993 L-12.04473853236575,5.872331196973114 L-11.897692785589715,6.164811950070043 L-11.743546095906577,6.4536133362107595 L-11.582390463241236,6.738562989022096 L-11.41432207069132,7.019490840974794 L-11.23944122712187,7.296229224885495 L-11.057852307297656,7.568612973986177 L-10.86966368958879,7.836479520501218 L-10.674987691286884,8.099668992673312 L-10.473940501570315,8.358024310180303 L-10.266642112158616,8.61139127788601 L-10.053216245697385,8.859618677869053 L-9.83379028191645,9.102558359674797 L-9.608495181605376,9.340065328736532 L-9.377465408451647,9.571997832913084 L-9.140838848788237,9.798217447091268 L-8.898756729298395,10.018589155802651 L-8.65136353272683,10.232981433805318 L-8.398806911647542,10.441266324582543 L-8.141237600339807,10.643319516711566 L-7.8788093248248945,10.839020418056803 L-7.611678711117212,11.028252227743298 L-7.340005191744633,11.210902005867405 L-7.063950910593809,11.386860740903126 L-6.783680626137247,11.55602341476384 L-6.499361613099918,11.718289065480644 L-6.211163562624074,11.87356084745983 L-5.91925848099188,12.021746089283607 L-5.623820586966278,12.162756349019503 L-5.325026207811373,12.296507467005501 L-5.023053674054402,12.422919616079328 L-4.718083213052077,12.541917349222016 L-4.410296841424843,12.653429644587195 L-4.099878256423244,12.757389947889337 L-3.7870127262912234,12.853736212125574 L-3.4718869796918206,12.942410934607446 L-3.154689094261217,13.023361191280435 L-2.835608384357692,13.096538668310812 L-2.5148352880724474,13.161899690920972 L-2.1925612535697523,13.21940524945599 L-1.8689786248242486,13.269021022665918 L-1.544280526823603,13.310717398189828 L-1.2186607503050162,13.3444694902295 L-0.8923136360944088,13.370257154402077 L-0.5654339591172786,13.388064999762921 L-0.23821681215047885,13.39788239799144 L0.08914251061570155,13.399703489734431 L0.41644863013568223,13.393527188103143 L0.743506199117367,13.379357179321959 L1.0701200186119761,13.357201920528336 L1.396095154515331,13.327074634725312 L1.7212370539110946,13.288993302889553 L2.0453516611864693,13.242980653239727 L2.3682455338511303,13.189064147671512 L2.689725957990186,13.127275965367444 L3.009601063282334,13.057652983591264 L3.327679937514504,12.980236755678359 L3.6437727405246996,12.895073486235319 L3.9576908175049628,12.802214003563478 L4.269246811596929,12.701713729322883 L4.578254775712681,12.593632645454765 L4.8845302835142235,12.478035258382324 L5.187890539485324,12.354990560511109 L5.488154488030013,12.22457198905205 L5.785142921532651,12.086857382191644 L6.078678587315066,11.941928932635516 L6.368586293426896,11.789873138553062 L6.6546930132060345,11.630780751952415 L6.936827988546764,11.464746724516605 L7.214822831813927,11.291870150933212 L7.488511626342326,11.112254209751313 L7.757731025461373,10.926006101801061 " />
			<path d="M13.341064358794243,1.2553890928751588 L13.33668449297432,1.3430223768490084 L13.340003261825492,1.4307022574257655 L13.350995114890829,1.5177537068728137 L13.36957542835922,1.603506535607837 L13.395601156565123,1.6873005518380808 L13.42887193326505,1.7684906442288735 L13.469131614212337,1.846451748471083 L13.516070249154232,1.9205836595110213 L13.569326468069377,1.9903156523945185 L13.628490263274532,2.055110876150321 L13.693106145981758,2.1144704868852973 L13.76267665300443,2.1679374882716704 L13.83666617661471,2.2151002498592365 " />
			<path d="M13.836666176614601,2.2151002498591748 L106.42304845413264,55.669872981077816 " />
			<path d="M101.42304845413263,64.33012701892221 L101.59717572126375,64.42609489623723 L101.77498067125799,64.51506420775786 L101.95618215794238,64.59689427471538 L102.14049366452137,64.6714557069541 L102.32762375661866,64.73863060752393 L102.51727654309494,64.79831275909956 L102.70915214391249,64.85040779193194 L102.9029471643073,64.89483333306629 L103.09835517451846,64.93151913659061 L103.29506719431659,64.96040719470892 L103.49277218156514,64.98145182946354 L103.69115752404194,64.99461976496127 L103.88990953374332,64.9998901799895 L104.08871394288938,64.99725474093879 L104.28725640084595,64.98671761497992 L104.48522297117749,64.96829546347493 L104.68230062804521,64.94201741563191 L104.87817775116518,64.90792502244587 L105.0725446185441,64.86607219099794 L105.26509389621346,64.8165250992173 L105.45552112418761,64.75936209124023 L105.64352519787771,64.69467355353197 L105.82880884419987,64.62256177196701 L106.01107909162506,64.5431407700943 L106.1900477334273,64.4565361288424 L106.3654317833977,64.3628847879503 L106.53695392330388,64.26233482943758 L106.70434294138708,64.15504524345621 L106.86733416120364,64.04118567689453 L107.02566986013295,63.920936165130556 L107.17909967688982,63.79448684735913 L107.3273810073972,63.662037665942734 L107.47027938839295,63.5237980502615 L107.60756886816466,63.37998658556233 L107.73903236382559,63.2308306673307 L107.86446200456736,63.07656614173166 L107.98365946034647,62.91743693268853 L108.09643625548487,62.75369465618909 L108.20261406668868,62.585598222428956 L108.30202500501403,62.41341342642136 L108.39451188133397,62.23741252772056 L108.47992845488677,62.05787381992359 L108.55813966451268,61.87508119063084 L108.62902184221333,61.689323672561386 L108.69246290869624,61.50089498653291 L108.74836255059532,61.310093077028675 L108.79663237908679,61.11721964108606 L108.83719606965016,60.922579651251525 L108.86998948275298,60.726480873356365 L108.89496076526859,60.529233379875635 L108.91207043246662,60.331149059639834 L108.9212914304464,60.132541124674574 L108.9226091789148,59.933723614947986 L108.91602159424062,59.73501090180898 L108.90153909274929,59.53671719090149 L108.87918457425248,59.33915602534084 L108.8489933858388,59.14263978993756 L108.81101326598278,58.94747921725284 L108.76530426906056,58.753982896266436 L108.71193867039155,58.56245678443412 L108.6510008519563,58.373203723906 L108.58258716897124,58.18652296267087 L108.5068057975313,58.00270968138362 L108.4237765635612,57.82205452662393 L108.33363075334618,57.64484315132431 L108.2365109059412,57.471355763094095 L108.13257058778757,57.301866681153605 L108.02197414989273,57.1366439025791 L107.9048964679576,56.97594867854428 L107.78152266586207,56.820035101228505 L107.65204782294619,56.66914970204484 L107.51667666554955,56.523531061823185 L107.37562324329694,56.38340943356497 L107.22911059064181,56.24900637836583 L107.077370374203,56.12053441508196 L106.92064252645221,55.99819668429414 L106.75917486633142,55.88218662710071 L106.59322270740023,55.772687679247404 L106.42304845413258,55.669872981077795 " />
			<path d="M3.5516660498395414,-0.9516660498395395 L-0.95166604983954,-3.5516660498395405 " />
			<path d="M0.9516660498395395,3.5516660498395414 L3.5516660498395405,-0.95166604983954 " />
			<path d="M-3.5516660498395414,0.9516660498395395 L0.95166604983954,3.5516660498395405 " />
			<path d="M-0.9516660498395395,-3.5516660498395414 L-3.5516660498395405,0.95166604983954 " />
			<path d="M-6.77594633971806,11.5605601594932 L-6.491677678135394,11.722547544079259 L-6.203538862242622,11.877546277941649 L-5.911701672238257,12.02546395522665 L-5.616340093186679,12.166212391605855 L-5.317630211293161,12.299707676849165 L-5.015750108926265,12.425870224849692 L-4.710879758450188,12.544624821070748 L-4.403200914930322,12.655900667386607 L-4.092897007776048,12.759631424290355 L-3.78015303138531,12.855755250443611 L-3.4651554348561975,12.944214839544596 L-3.14809201083128,13.02495745449252 L-2.82915178354095,13.09793495882794 L-2.5085248961125357,13.163103845430363 L-2.1864024972123506,13.220425262455954 L-1.8629766270882744,13.269865036499912 L-1.5384401030808075,13.31139369296967 L-1.212986404670823,13.34498647365683 L-0.8868095581325894,13.370623351497294 L-0.5601040208608019,13.388289042510829 L-0.23306456544059362,13.397973014912964 L0.09411383647036953,13.399669495393717 L0.42123613037845153,13.393377472559482 L0.7481072952400245,13.379100697536014 L1.0745324597274815,13.356847681732095 L1.4003170184060005,13.326631691765272 L1.725266747751796,13.288470741552693 L2.0491879219426776,13.242387581571696 L2.3718874283518936,13.18840968529664 L2.693172882676417,13.126569232819993 L3.0128527436310097,13.056903091667454 L3.330736427139708,12.97945279481861 L3.6466344199566576,12.894264515946126 L3.960358392648529,12.80138904188832 L4.271721311871204,12.700881742371488 L4.580537551873746,12.592802537000033 L4.886623005163219,12.477215859534112 L5.189795192264356,12.354190619476041 L5.48987337050865,12.223800160988397 L5.786678641788023,12.086122219168326 L6.080034059208794,11.941238873704062 L6.369764732582416,11.789236499941346 L6.655697932690046,11.630205717388902 L6.9376631942588105,11.46424133569364 L7.215492417588376,11.291442298117838 L7.489019968767227,11.111911622551979 L7.758082778418904,10.925756340098385 " />
			<path d="M-13.929771562346339,3.6498581096868605 L-81.50647843349844,50.96757766825546 " />
			<path d="M-81.50647843349844,50.96757766825546 L-81.66704423097104,51.084832788898 L-81.82282142970493,51.20837874386831 L-81.97356371392965,51.33802018161729 L-82.11903272910943,51.47355211238465 L-82.25899845883082,51.61476023232989 L-82.39323958850578,51.7614212623907 L-82.52154385531567,51.91330330133304 L-82.64370838384231,52.0701661924347 L-82.75954000685574,52.2317619032224 L-82.86885557075132,52.397834917662124 L-82.97148222515322,52.56812264018251 L-83.0672576962264,52.74235581089239 L-83.15603054326488,52.92025893133605 L-83.23766039815064,53.101550700112895 L-83.31201818730446,53.285944457672805 L-83.3789863357778,53.47314863958378 L-83.43845895316292,53.66286723755528 L-83.49034200102741,53.854800267488116 L-83.5345534416083,54.048644243811005 L-83.57102336753053,54.24409265935366 L-83.59969411234503,54.44083646999758 L-83.62052034171109,54.63856458333834 L-83.63346912507934,54.83696435058667 L-83.63851998776173,55.03572206093037 L-83.63566494330615,55.23452343757567 L-83.62490850612477,55.43305413468337 L-83.60626768435567,55.63100023441428 L-83.57977195296962,55.82804874329781 L-83.54546320716402,56.02388808713902 L-83.50339569611798,56.218208603681404 L-83.45363593721325,56.41070303224662 L-83.39626261085655,56.60106699957677 L-83.33136643606969,56.78899950111107 L-83.2590500270441,56.97420337693593 L-83.17942773088674,57.15638578165587 L-83.09262544681387,57.33525864744227 L-82.99878042707837,57.510539139527815 L-82.89804105994591,57.681950103426445 L-82.79056663506239,57.84922050317148 L-82.67652709158446,58.01208584987928 L-82.55610274947064,58.170288619960466 L-82.42948402435849,58.323578662317686 L-82.2968711264783,58.47171359388592 L-82.15847374407959,58.61445918288991 L-82.01451071187088,58.751589719212724 L-81.86520966499705,58.8828883712899 L-81.71080667910132,59.00814752896466 L-81.55154589704124,59.127169131762294 L-81.38767914284854,59.239764982064415 L-81.21946552354368,59.34575704268815 L-81.0471710194343,59.44497771839947 L-80.87106806354575,59.53727012091572 L-80.69143511084843,59.62248831697825 L-80.50855619796329,59.700497559102864 L-80.32272049404152,59.77117449864333 L-80.13422184352869,59.834407380830925 L-79.94335830153629,59.89009622148167 L-79.75043166255534,59.938152965091916 L-79.55574698325725,59.97850162407217 L-79.35961210013652,60.01107839889911 L-79.16233714275799,60.035831778995714 L-78.96423404337824,60.05272262418012 L-78.76561604371656,60.06172422655425 L-78.56679719965545,60.062822352734514 L-78.36809188465365,60.056015266357704 L-78.16981429265714,60.04131373082655 L-77.97227794129392,60.01874099229056 L-77.77579517613819,59.988332742889085 L-77.58067667682776,59.950137064314696 L-77.38723096581579,59.904214351786166 L-77.19576392053324,59.850637218551206 L-77.00657828973387,59.78949038107 L-76.81997321478622,59.72087052506105 L-76.6362437566696,59.64488615262121 L-76.45568042942202,59.56165741066153 L-76.27856874077783,59.47131590093035 L-76.10518874072126,59.37400447192382 L-75.93581457866986,59.26987699301313 L-75.77071406998793,59.15909811114535 " />
			<path d="M-8.194007198835882,11.841378552576794 L-75.77071406998797,59.15909811114538 " />
			<path d="M-7.2816139770103465,12.423288529604566 L-75.19713763363694,59.97825015543439 " />
			<path d="M-82.08005486984949,50.14842562396647 L-14.164531213223057,2.5934639981367624 " />
			<path d="M-75.19713763363693,59.978250155434374 L-75.37682132998272,60.0992910626136 L-75.56075775854717,60.21376604761125 L-75.74870710131871,60.32152585688634 L-75.94042430821122,60.42242999220592 L-76.1356594165626,60.516346893827965 L-76.33415787703838,60.60315411203016 L-76.53566088551551,60.682738466761 L-76.73990572051355,60.75499619520497 L-76.94662608573336,60.81983308706944 L-77.15555245725668,60.87716460741699 L-77.36641243495386,60.926916006882735 L-77.57893109764173,60.96902241913332 L-77.79283136152831,61.003428945440206 L-78.00783434147726,61.03009072625714 L-78.22365971462085,61.048972999708454 L-78.4400260858475,61.06005114691192 L-78.65665135468741,61.06331072407706 L-78.87325308311763,61.05874748133712 L-79.08954886380741,61.04636736829005 L-79.3052566883235,61.026186526241396 L-79.52009531481534,60.998231267159106 L-79.73378463470075,60.962538039367736 L-79.94604603787411,60.919153380026785 L-80.15660277596079,60.86813385445515 L-80.3651803231442,60.809545982380705 L-80.5715067340951,60.743466151211265 L-80.7753129985364,60.66998051644002 L-80.97633339198136,60.589184889315156 L-81.1743058221874,60.50118461192032 L-81.36897217087463,60.4060944198286 L-81.56007863026267,60.30403829250922 L-81.74737603398762,60.19514929168202 L-81.93062018196754,60.079569387830304 L-82.10957215879264,59.957449275098426 L-82.2839986452255,59.828948174815395 L-82.45367222240476,59.69423362790063 L-82.618371668356,59.553481276422545 L-82.77788224642298,59.406874634594836 L-82.93199598524319,59.254604849508915 L-83.08051194990294,59.096870451914604 L-83.22323650391812,58.9338770973739 L-83.35998356169914,58.76583729812537 L-83.49057483117122,58.59297014600869 L-83.61484004623306,58.415501026810745 L-83.73261718875145,58.23366132640553 L-83.84375269980201,58.047688129071105 L-83.9481016798807,57.85782390837696 L-84.0455280778251,57.664316211044685 L-84.13590486819925,57.46741733419435 L-84.21911421691053,57.267383996397115 L-84.29504763484285,57.06447700296324 L-84.36360611930573,56.8589609059017 L-84.424700283115,56.65110365899483 L-84.47825047113656,56.44117626843772 L-84.52418686414148,56.22945243949786 L-84.56244956983701,56.01620821965565 L-84.59298870095466,55.80172163869116 L-84.61576444029369,55.58627234618636 L-84.63074709263512,55.3701412469154 L-84.63791712345869,55.15361013459838 L-84.63726518441212,54.936961324496096 L-84.62879212549953,54.72047728532479 L-84.61250899397325,54.504440270970875 L-84.58843701993032,54.28913195248565 L-84.55660758863246,54.07483305084005 L-84.51706219958567,53.861822970918006 L-84.46985241243283,53.650379437225816 L-84.41503977972972,53.44077813179235 L-84.35269576669229,53.23329233473229 L-84.2829016580196,53.028192567941005 L-84.20574845191403,52.825746242385584 L-84.12133674143716,52.626217309451974 L-84.02977658335541,52.42986591680272 L-83.93118735464715,52.236948069194035 L-83.82569759685781,52.04771529469447 L-83.71344484850627,51.86241431674027 L-83.5945754657609,51.68128673245507 L-83.46924443161896,51.50456869765338 L-83.3376151538384,51.332490618938444 L-83.1998592518853,51.165276853295936 L-83.05615633317483,51.00314541557535 L-82.90669375889742,50.84630769424011 L-82.75166639973557,50.69496817575746 L-82.5912763817896,50.54932417798704 L-82.42573282304382,50.409565592916074 L-82.25525156071653,50.27587463907644 L-82.0800548698495,50.148425623966475 " />
			<path d="M-75.77071406998797,59.15909811114538 L-8.194007198835882,11.841378552576794 " />
			<path d="M-81.50647843349844,50.96757766825546 L-81.66704423097104,51.084832788898 L-81.82282142970493,51.20837874386831 L-81.97356371392965,51.33802018161729 L-82.11903272910943,51.47355211238465 L-82.25899845883082,51.61476023232989 L-82.39323958850578,51.7614212623907 L-82.52154385531567,51.91330330133304 L-82.64370838384231,52.0701661924347 L-82.75954000685574,52.2317619032224 L-82.86885557075132,52.397834917662124 L-82.97148222515322,52.56812264018251 L-83.0672576962264,52.74235581089239 L-83.15603054326488,52.92025893133605 L-83.23766039815064,53.101550700112895 L-83.31201818730446,53.285944457672805 L-83.3789863357778,53.47314863958378 L-83.43845895316292,53.66286723755528 L-83.49034200102741,53.854800267488116 L-83.5345534416083,54.048644243811005 L-83.57102336753053,54.24409265935366 L-83.59969411234503,54.44083646999758 L-83.62052034171109,54.63856458333834 L-83.63346912507934,54.83696435058667 L-83.63851998776173,55.03572206093037 L-83.63566494330615,55.23452343757567 L-83.62490850612477,55.43305413468337 L-83.60626768435567,55.63100023441428 L-83.57977195296962,55.82804874329781 L-83.54546320716402,56.02388808713902 L-83.50339569611798,56.218208603681404 L-83.45363593721325,56.41070303224662 L-83.39626261085655,56.60106699957677 L-83.33136643606969,56.78899950111107 L-83.2590500270441,56.97420337693593 L-83.17942773088674,57.15638578165587 L-83.09262544681387,57.33525864744227 L-82.99878042707837,57.510539139527815 L-82.89804105994591,57.681950103426445 L-82.79056663506239,57.84922050317148 L-82.67652709158446,58.01208584987928 L-82.55610274947064,58.170288619960466 L-82.42948402435849,58.323578662317686 L-82.2968711264783,58.47171359388592 L-82.15847374407959,58.61445918288991 L-82.01451071187088,58.751589719212724 L-81.86520966499705,58.8828883712899 L-81.71080667910132,59.00814752896466 L-81.55154589704124,59.127169131762294 L-81.38767914284854,59.239764982064415 L-81.21946552354368,59.34575704268815 L-81.0471710194343,59.44497771839947 L-80.87106806354575,59.53727012091572 L-80.69143511084843,59.62248831697825 L-80.50855619796329,59.700497559102864 L-80.32272049404152,59.77117449864333 L-80.13422184352869,59.834407380830925 L-79.94335830153629,59.89009622148167 L-79.75043166255534,59.938152965091916 L-79.55574698325725,59.97850162407217 L-79.35961210013652,60.01107839889911 L-79.16233714275799,60.035831778995714 L-78.96423404337824,60.05272262418012 L-78.76561604371656,60.06172422655425 L-78.56679719965545,60.062822352734514 L-78.36809188465365,60.056015266357704 L-78.16981429265714,60.04131373082655 L-77.97227794129392,60.01874099229056 L-77.77579517613819,59.988332742889085 L-77.58067667682776,59.950137064314696 L-77.38723096581579,59.904214351786166 L-77.19576392053324,59.850637218551206 L-77.00657828973387,59.78949038107 L-76.81997321478622,59.72087052506105 L-76.6362437566696,59.64488615262121 L-76.45568042942202,59.56165741066153 L-76.27856874077783,59.47131590093035 L-76.10518874072126,59.37400447192382 L-75.93581457866986,59.26987699301313 L-75.77071406998793,59.15909811114535 " />
			<path d="M-13.929771562346339,3.6498581096868605 L-81.50647843349844,50.96757766825546 " />
			<path d="M-6.77594633971806,11.5605601594932 L-6.491677678135394,11.722547544079259 L-6.203538862242622,11.877546277941649 L-5.911701672238257,12.02546395522665 L-5.616340093186679,12.166212391605855 L-5.317630211293161,12.299707676849165 L-5.015750108926265,12.425870224849692 L-4.710879758450188,12.544624821070748 L-4.403200914930322,12.655900667386607 L-4.092897007776048,12.759631424290355 L-3.78015303138531,12.855755250443611 L-3.4651554348561975,12.944214839544596 L-3.14809201083128,13.02495745449252 L-2.82915178354095,13.09793495882794 L-2.5085248961125357,13.163103845430363 L-2.1864024972123506,13.220425262455954 L-1.8629766270882744,13.269865036499912 L-1.5384401030808075,13.31139369296967 L-1.212986404670823,13.34498647365683 L-0.8868095581325894,13.370623351497294 L-0.5601040208608019,13.388289042510829 L-0.23306456544059362,13.397973014912964 L0.09411383647036953,13.399669495393717 L0.42123613037845153,13.393377472559482 L0.7481072952400245,13.379100697536014 L1.0745324597274815,13.356847681732095 L1.4003170184060005,13.326631691765272 L1.725266747751796,13.288470741552693 L2.0491879219426776,13.242387581571696 L2.3718874283518936,13.18840968529664 L2.693172882676417,13.126569232819993 L3.0128527436310097,13.056903091667454 L3.330736427139708,12.97945279481861 L3.6466344199566576,12.894264515946126 L3.960358392648529,12.80138904188832 L4.271721311871204,12.700881742371488 L4.580537551873746,12.592802537000033 L4.886623005163219,12.477215859534112 L5.189795192264356,12.354190619476041 L5.48987337050865,12.223800160988397 L5.786678641788023,12.086122219168326 L6.080034059208794,11.941238873704062 L6.369764732582416,11.789236499941346 L6.655697932690046,11.630205717388902 L6.9376631942588105,11.46424133569364 L7.215492417588376,11.291442298117838 L7.489019968767227,11.111911622551979 L7.758082778418904,10.925756340098385 " />
			<path d="M13.341023935293537,1.2558186007242158 L13.36769528334878,0.92990473250478 L13.386405928376428,0.603437089288045 L13.397144727850762,0.2766100884287397 L13.399905286623502,-0.050381638714473986 L13.394685960732236,-0.377343362685461 L13.381489858379428,-0.70408037189552 L13.36032483808143,-1.0303980885776287 L13.33120350398859,-1.356102184661009 L13.294143198379254,-1.6809986974969933 L13.249165991332138,-2.0048941453672597 L13.196298667583177,-2.327595642705684 L13.135572710574754,-2.648911014965168 L13.067024283706736,-2.9686489130610294 L12.99069420880052,-3.2866189273228312 L12.906627941788892,-3.6026317008867634 L12.814875545646224,-3.9164990424610635 L12.715491660575054,-4.228034038397315 L12.608535471466869,-4.5370511640008875 L12.494070672656434,-4.843366394014228 L12.372165429990684,-5.146797312207223 L12.242892340234706,-5.447163220009328 L12.106328387839094,-5.74428524411883 L11.962554899094297,-6.037986443025115 L11.811657493699364,-6.328091912380516 L11.65372603377387,-6.614428889158998 L11.488854570343406,-6.89682685453966 L11.317141287330504,-7.1751176354537405 L11.138688443084336,-7.449135504734728 L10.953602309484035,-7.718717279811849 L10.761993108651886,-7.98370241988824 L10.563974947314053,-8.243933121545872 L10.35966574884798,-8.499254412720328 L10.149187183056906,-8.749514244989454 L9.93266459371329,-8.994563584120934 L9.71022692391435,-9.234256498824847 L9.482006639294129,-9.468450247658382 L9.24813964913783,-9.69700536403094 L9.008765225445385,-9.919785739258987 L8.764025919992475,-10.13665870362123 L8.514067479438387,-10.347495105365823 L8.25903875853125,-10.552169387622556 L7.99909163146236,-10.750559663174231 L7.734380901422366,-10.942547787042695 L7.465064208413182,-11.128019426846294 L7.191301935370529,-11.306864130886868 L6.913257112653028,-11.47897539392573 L6.631095320954658,-11.644250720609431 L6.3449845926984985,-11.802591686507617 L6.055095311970392,-11.953903996726517 L5.761600113052154,-12.098097542063275 L5.4646737776147525,-12.235086452667579 L5.164493130632677,-12.364789149178723 L4.861236935081489,-12.487128391307568 L4.555085785481257,-12.602031323834527 L4.246222000349258,-12.709429519996165 L3.934829513626034,-12.809259022234563 L3.6210937651394133,-12.90146038028519 L3.305201590171765,-12.98597868658062 L2.9873411081962153,-13.06276360894895 L2.6677016108481277,-13.131769420587553 L2.346473449198527,-13.192955027294165 L2.0238479203966007,-13.246283991939261 L1.700017153748827,-13.291724556165004 L1.3751739963024932,-13.32924965929791 L1.049511898001822,-13.358836954463985 L0.7232247964850549,-13.380468821896681 L0.3965070015910843,-13.39413237942978 L0.06955307964445989,-13.399819490168962 L-0.25744226241236134,-13.397526767337471 L-0.5842842929705014,-13.387255576292997 L-0.910778371720836,-13.36901203371459 L-1.2367300655658022,-13.34280700396006 L-1.561945264407811,-13.30865609259605 L-1.8862302967452917,-13.266579637104666 L-2.2093920450075633,-13.216602694772106 L-2.5312380605598177,-13.158755027766624 L-2.8515766783097476,-13.093071085414604 L-3.170217130847555,-13.019589983685382 L-3.4869696620513766,-12.938355481896966 L-3.8016456400904652,-12.849415956656596 L-4.114057669758842,-12.752824373051581 L-4.424019704072511,-12.648638253107652 L-4.731347155063787,-12.536919641533553 L-5.03585700370675,-12.417735068772311 L-5.337367908908363,-12.291155511381147 L-5.635700315500367,-12.15725634976367 L-5.930676561167598,-12.016117323279481 L-6.222120982249109,-11.867822482757964 L-6.509860018349025,-11.712460140444486 L-6.793722315694891,-11.550122817408882 L-7.073538829181924,-11.380907188447484 L-7.349142923042411,-11.204914024511552 L-7.620370470080307,-11.022248132696344 L-7.887059949411937,-10.833018293826617 L-8.149052542654587,-10.637337197675684 L-8.406192228505704,-10.43532137585663 L-8.658325875656391,-10.227091132425633 L-8.905303333983857,-10.012770472238742 L-9.146977523968513,-9.792487027104752 L-9.38320452428248,-9.566371979778166 L-9.61384365749732,-9.334559985837501 L-9.838757573859978,-9.097189093495471 L-10.057812333087032,-8.854400661388798 L-10.270877484128546,-8.606339274396595 L-10.477826142854004,-8.353152657537462 L-10.67853506761411,-8.0949915879966 L-10.87288473263339,-7.832009805335266 L-11.060759399189953,-7.564363919936107 L-11.242047184539977,-7.292213319738857 L-11.416640128545898,-7.015720075321956 L-11.584434257968615,-6.735048843386596 L-11.745329648385422,-6.450366768700707 L-11.899230483696797,-6.161843384561223 L-12.04604511318662,-5.86965051183397 L-12.185686106101818,-5.573962156631236 L-12.318070303718951,-5.274954406688016 L-12.443118868866733,-4.972805326498584 L-12.560757332874982,-4.667694851275887 L-12.670915639922047,-4.359804679796893 L-12.773528188754323,-4.049318166197699 L-12.868533871752971,-3.736420210782838 L-12.955876111324601,-3.4212971499138325 L-13.035502893594252,-3.104136645042529 L-13.107366799380586,-2.7851275709553285 L-13.171425032434868,-2.4644599032948626 L-13.2276394449269,-2.1423246054260714 L-13.27597656016274,-1.818913514714084 L-13.31640759252067,-1.4944192282816235 L-13.348908464593569,-1.1690349883139515 L-13.373459821527419,-0.842954566979663 L-13.390047042547481,-0.5163721510358918 L-13.398660249665241,-0.18948222618658406 L-13.3992943135609,0.13752053873722403 L-13.391948856638002,0.4644414077062047 L-13.376628253248292,0.791085693461544 L-13.35334162708671,1.117258873454702 L-13.322102845758062,1.4427667056891051 L-13.282930512518616,1.7674153443947338 L-13.235847955197533,2.09101145546677 L-13.180883212304721,2.4133623315995436 " />
			<path d="M2.4999999999999964,124.3301270189222 L2.6710297075410065,124.2267718534874 L2.8377928777152577,124.11666510457052 L3.000023133366802,123.99998264987038 L3.157461337936505,123.87691087071089 L3.309856009390733,123.74764635432695 L3.4569637219231684,123.61239557984824 L3.598549494788114,123.47137458848223 L3.7343871676441753,123.32480863842335 L3.864259761808781,123.17293184503947 L3.9879598268464838,123.01598680691056 L4.105289771937435,122.85422421831676 L4.216062181496717,122.68790246879479 L4.320100114540388,122.51728723040263 L4.417237387320046,122.34265103335132 L4.507318838774453,122.16427283068215 L4.590200578374203,121.98243755268436 L4.6657502159635325,121.7974356517651 L4.733847073232161,121.60956263849883 L4.79438237647934,121.41911860959692 L4.847259430362227,121.22640776855191 L4.892393772351037,121.03173793972151 L4.9297133076442465,120.83542007662925 L4.959158424328375,120.6377677652664 L4.980682088598351,120.4390967231893 L4.994249919886403,120.23972429521152 L4.999840245779451,120.03996894649708 L4.997444136637268,119.84014975386386 L4.987065419856147,119.64058589611003 L4.96872067375524,119.44159614417765 L4.942439201095392,119.24349835196773 L4.908262982272716,119.04660894862006 L4.866246608261716,118.85124243306895 L4.816457193415043,118.65771087168208 L4.758974268259188,118.46632339978504 L4.693889652457343,118.27738572786771 L4.6213073081423675,118.09119965326126 L4.541343173854109,117.90806257806581 L4.454124979346371,117.7282670340987 L4.359792041559311,117.55210021562236 L4.258495042083197,117.3798435205979 L4.15039578646897,117.2117721011975 L4.035666945770078,117.04815442429337 L3.91449178072844,116.8892518426254 L3.7870638490450843,116.73531817733246 L3.6535866962030736,116.5865993125143 L3.5142735303365606,116.44333280247142 L3.3693468816653214,116.30574749225067 L3.2190382470387746,116.17406315210228 L3.063587720157251,116.04849012643247 L2.9032436080611967,115.92922899781236 L2.7382620345008895,115.81647026657978 L2.5689065308202275,115.71039404654586 L2.39544761500809,115.61116977729236 L2.218162359589661,115.51895595351935 L2.037333949047945,115.43389987187571 L1.8532512274824167,115.35613739567643 L1.6662082372273557,115.2857927378831 L1.4765037491668374,115.22297826269377 L1.284440785496634,115.1677943060593 L1.0903261356953333,115.12032901541306 L0.8944698664778334,115.0806582088695 L0.6971848265139834,115.04884525411711 L0.4987861467034998,115.02494096719882 L0.29959073680539344,115.0089835313415 L0.09991677922595424,115.00099843596453 L-0.09991677922611103,115.00099843596453 L-0.29959073680555,115.0089835313415 L-0.4987861467036558,115.02494096719883 L-0.6971848265141385,115.04884525411713 L-0.8944698664779878,115.08065820886952 L-1.090326135695486,115.12032901541309 L-1.2844407854967854,115.16779430605935 L-1.4765037491669872,115.22297826269381 L-1.6662082372275036,115.28579273788316 L-1.8532512274825623,115.35613739567648 L-2.0373339490480884,115.43389987187577 L-2.218162359589802,115.51895595351942 L-2.395447615008228,115.61116977729243 L-2.5689065308203625,115.71039404654594 L-2.7382620345010205,115.81647026657987 L-2.9032436080613246,115.92922899781244 L-3.0635877201573747,116.04849012643257 L-3.2190382470388945,116.17406315210238 L-3.3693468816654377,116.30574749225079 L-3.5142735303366726,116.44333280247153 L-3.653586696203181,116.58659931251441 L-3.787063849045187,116.73531817733259 L-3.9144917807285373,116.88925184262553 L-4.035666945770171,117.0481544242935 L-4.1503957864690575,117.21177210119762 L-4.25849504208328,117.37984352059803 L-4.359792041559388,117.5521002156225 L-4.454124979346442,117.72826703409885 L-4.541343173854175,117.90806257806595 L-4.621307308142427,118.0911996532614 L-4.693889652457397,118.27738572786785 L-4.7589742682592355,118.46632339978518 L-4.8164571934150855,118.65771087168223 L-4.866246608261752,118.8512424330691 L-4.9082629822727455,119.04660894862022 L-4.942439201095415,119.24349835196789 L-4.968720673755258,119.44159614417781 L-4.987065419856158,119.64058589611018 L-4.997444136637274,119.84014975386401 L-4.999840245779449,120.03996894649724 L-4.994249919886395,120.23972429521167 L-4.9806820885983365,120.43909672318945 L-4.959158424328355,120.63776776526656 L-4.929713307644221,120.8354200766294 L-4.892393772351004,121.03173793972167 L-4.847259430362189,121.22640776855205 L-4.794382376479295,121.41911860959708 L-4.73384707323211,121.60956263849897 L-4.6657502159634765,121.79743565176526 L-4.590200578374141,121.9824375526845 L-4.507318838774386,122.1642728306823 L-4.417237387319972,122.34265103335144 L-4.320100114540309,122.51728723040276 L-4.216062181496633,122.68790246879493 L-4.105289771937345,122.85422421831689 L-3.9879598268463896,123.01598680691069 L-3.8642597618086816,123.17293184503959 L-3.734387167644071,123.32480863842346 L-3.5985494947880046,123.47137458848235 L-3.4569637219230556,123.61239557984835 L-3.3098560093906153,123.74764635432705 L-3.1574613379363834,123.87691087071099 L-3.0000231333666765,123.99998264987047 L-2.8377928777151284,124.1166651045706 L-2.6710297075408738,124.22677185348749 L-2.4999999999998606,124.33012701892227 " />
			<path d="M-2.0,125.19615242270663 L-2.0038053019082547,125.10899667995898 L-2.015192246987792,125.0225042450397 L-2.0340741737109314,124.9373333776041 L-2.060307379214091,124.85413227938096 L-2.09369221296335,124.77353416096594 L-2.1339745962155607,124.69615242270663 L-2.1808479557110076,124.62257598635559 L-2.233955556881021,124.5533648130201 L-2.2928932188134517,124.48904564152008 L-2.35721239031346,124.43010797958766 L-2.426423563648953,124.37700037841763 L-2.499999999999999,124.3301270189222 " />
			<path d="M-2.0,125.19615242270665 L-2.0,150.0 " />
			<path d="M-2.0,150.0 L-1.9960534568565431,150.12558103905863 L-1.9842294026289558,150.2506664671286 L-1.9645745014573772,150.37476262917144 L-1.9371663222572622,150.49737977432972 L-1.902113032590307,150.6180339887499 L-1.8595529717765025,150.73624910536935 L-1.8096541049320387,150.85155858313016 L-1.7526133600877267,150.96350734820342 L-1.6886558510040295,151.071653589958 L-1.618033988749894,151.17557050458495 L-1.5410264855515774,151.2748479794974 L-1.4579372548428218,151.36909421185737 L-1.369094211857376,151.45793725484282 L-1.2748479794973777,151.54102648555158 L-1.1755705045849452,151.6180339887499 L-1.0716535899579926,151.68865585100403 L-0.9635073482034305,151.75261336008774 L-0.8515585831301459,151.80965410493204 L-0.7362491053693572,151.8595529717765 L-0.6180339887498969,151.9021130325903 L-0.4973797743297123,151.93716632225727 L-0.37476262917145275,151.96457450145738 L-0.25066646712861274,151.98422940262896 L-0.12558103905863172,151.99605345685654 L-5.696464557944958e-15,152.0 L0.12558103905862036,151.99605345685654 L0.2506664671286014,151.98422940262896 L0.37476262917144154,151.96457450145738 L0.49737977432970126,151.93716632225727 L0.618033988749886,151.9021130325903 L0.7362491053693466,151.8595529717765 L0.8515585831301357,151.80965410493204 L0.9635073482034205,151.75261336008774 L1.0716535899579829,151.68865585100403 L1.1755705045849358,151.61803398874991 L1.274847979497369,151.54102648555158 L1.369094211857367,151.45793725484285 L1.4579372548428127,151.3690942118574 L1.5410264855515685,151.2748479794974 L1.6180339887498851,151.17557050458495 L1.688655851004021,151.071653589958 L1.7526133600877185,150.96350734820345 L1.8096541049320312,150.85155858313016 L1.8595529717764958,150.73624910536938 L1.902113032590301,150.61803398874991 L1.937166322257257,150.49737977432972 L1.9645745014573734,150.37476262917147 L1.9842294026289529,150.25066646712864 L1.9960534568565418,150.12558103905866 L2.0,150.00000000000003 " />
			<path d="M2.0,125.19615242270662 L2.0,150.0 " />
			<path d="M2.4999999999999982,124.3301270189222 L2.426423563648952,124.37700037841765 L2.3572123903134594,124.43010797958766 L2.292893218813451,124.48904564152008 L2.233955556881021,124.5533648130201 L2.180847955711007,124.62257598635559 L2.1339745962155607,124.69615242270663 L2.0936922129633495,124.77353416096594 L2.060307379214091,124.85413227938096 L2.0340741737109314,124.9373333776041 L2.015192246987792,125.0225042450397 L2.0038053019082542,125.10899667995898 L2.0,125.19615242270663 " />
			<path d="M3.0000000000000147,125.19615242270662 L3.186912835565581,125.08365877872495 L3.369612640700969,124.96444464684906 L3.547857890181505,124.83866762560488 L3.7214129476095694,124.70649398951744 L3.8900483769208654,124.56809846929939 L4.053541245693969,124.42366402086074 L4.211675419862215,124.27338158344519 L4.364241849438297,124.1174498272124 L4.511038844873868,123.9560748906004 L4.651872343688798,123.78947010781498 L4.78655616701761,123.61785572680637 L4.914912265733952,123.44145861810628 L5.036770955827719,123.26051197490982 L5.151971142723679,123.07525500479919 L5.260360534245046,122.88593261351633 L5.361795841940473,122.69279508120277 L5.45614297050831,122.49609773153472 L5.543277195067719,122.29610059419055 L5.623083326042292,122.09306806109718 L5.695455861438202,121.88726853690969 L5.76029912631557,121.67897408418595 L5.817527399268694,121.46846006372596 L5.867065025747902,121.25600477055056 L5.908846518073247,121.04188906600159 L5.942816642007813,120.82639600644907 L5.968930489776197,120.60981046909683 L5.98715353943162,120.39241877538088 L5.9974617004932025,120.17450831245868 L5.999841345793065,119.95636715328949 L5.9942893294911475,119.738283675808 L5.980812991233947,119.520546181695 L5.95943014645166,119.30344251524863 L5.930169062806567,119.08725968286052 L5.893068422823789,118.87228347359935 L5.848177272753814,118.65879808140394 L5.795554957734415,118.4470857293849 L5.735271043337645,118.23742629673175 L5.667405223605638,118.03009694871866 L5.592047215696802,117.82537177029782 L5.509296641281655,117.62352140376508 L5.419262894845119,117.42481269097665 L5.322064999069345,117.22950832058983 L5.217831447488289,117.03786648079425 L5.1067000346220155,116.85014051799267 L4.988817673815291,116.66657860188242 L4.864340203021294,116.48742339738038 L4.73343217878719,116.31291174382523 L4.596266658713892,116.1432743418808 L4.453024972677637,115.97873544855486 L4.303896483115765,115.8195125807361 L4.149078334693646,115.6658162276415 L3.9887751936836593,115.51784957255406 L3.823198977400764,115.37580822421887 L3.65256857405236,115.23987995825262 L3.4771095533727667,115.11024446890809 L3.297053868424876,114.98707313152241 L3.1126395489631697,114.87052877596234 L2.9241103867634974,114.76076547136685 L2.731715613335568,114.6579283224709 L2.535709570444244,114.56215327778013 L2.3363513738751793,114.47356694984988 L2.13390457088931,114.39228644790609 L1.9286367918190221,114.31841922302938 L1.7208193962665959,114.25206292610709 L1.5107271143726273,114.19330527874081 L1.2986376836286748,114.14222395728041 L1.0848314817142508,114.0988864901375 L0.869591155843541,114.06335016851435 L0.6532012491118495,114.03566197066608 L0.435947824335727,114.01585849979656 L0.2181180858840625,114.00396593566963 L6.578581641713004e-14,114.0 L-0.21811808588393103,114.00396593566961 L-0.43594782433559576,114.01585849979656 L-0.6532012491117186,114.03566197066607 L-0.8695911558434107,114.06335016851432 L-1.0848314817141214,114.09888649013747 L-1.2986376836285463,114.14222395728038 L-1.5107271143725,114.19330527874078 L-1.7208193962664695,114.25206292610704 L-1.9286367918188976,114.31841922302934 L-2.133904570889187,114.39228644790605 L-2.336351373875058,114.47356694984983 L-2.5357095704441246,114.56215327778007 L-2.7317156133354508,114.65792832247084 L-2.924110386763383,114.76076547136678 L-3.112639548963058,114.87052877596227 L-3.297053868424766,114.98707313152234 L-3.4771095533726597,115.11024446890802 L-3.652568574052255,115.23987995825253 L-3.8231989774006627,115.3758082242188 L-3.9887751936835607,115.51784957255397 L-4.149078334693551,115.6658162276414 L-4.303896483115674,115.819512580736 L-4.453024972677549,115.97873544855476 L-4.596266658713808,116.1432743418807 L-4.733432178787109,116.31291174382513 L-4.864340203021218,116.48742339738028 L-4.988817673815218,116.6665786018823 L-5.106700034621947,116.85014051799256 L-5.217831447488225,117.03786648079414 L-5.322064999069283,117.2295083205897 L-5.419262894845062,117.42481269097654 L-5.509296641281603,117.62352140376497 L-5.592047215696754,117.82537177029769 L-5.667405223605594,118.03009694871854 L-5.735271043337606,118.23742629673163 L-5.795554957734382,118.44708572938477 L-5.8481772727537855,118.65879808140382 L-5.893068422823764,118.87228347359923 L-5.930169062806547,119.08725968286039 L-5.959430146451645,119.3034425152485 L-5.980812991233936,119.52054618169487 L-5.994289329491141,119.73828367580786 L-5.9998413457930635,119.95636715328935 L-5.997461700493207,120.17450831245856 L-5.987153539431629,120.39241877538075 L-5.968930489776211,120.60981046909669 L-5.9428166420078306,120.82639600644895 L-5.908846518073269,121.04188906600146 L-5.867065025747929,121.25600477055043 L-5.817527399268726,121.46846006372583 L-5.760299126315607,121.67897408418584 L-5.6954558614382425,121.88726853690956 L-5.623083326042338,122.09306806109707 L-5.543277195067769,122.29610059419042 L-5.456142970508364,122.4960977315346 L-5.361795841940531,122.69279508120266 L-5.260360534245109,122.88593261351622 L-5.151971142723746,123.07525500479908 L-5.036770955827791,123.2605119749097 L-4.914912265734028,123.44145861810617 L-4.7865561670176895,123.61785572680627 L-4.651872343688881,123.78947010781488 L-4.511038844873956,123.9560748906003 L-4.364241849438388,124.1174498272123 L-4.211675419862308,124.27338158344509 L-4.053541245694065,124.42366402086066 L-3.8900483769209657,124.5680984692993 L-3.721412947609673,124.70649398951737 L-3.5478578901816107,124.83866762560481 L-3.369612640701078,124.96444464684899 L-3.186912835565693,125.0836587787249 L-3.000000000000129,125.19615242270656 " />
			<path d="M3.0,125.19615242270662 L3.0,150.0 " />
			<path d="M-3.0,150.0 L-3.0,125.19615242270656 " />
			<path d="M3.0,150.0 L2.9960222696544916,150.15443626431104 L2.984099626843767,150.30846299141209 L2.9642636882732316,150.4616717301122 L2.9365670552860736,150.6136561983786 L2.9010831743739613,150.76401336072368 L2.857906142410148,150.91234449698254 L2.807150457121481,151.0582562596473 L2.7489507134610145,151.2013617169538 L2.683461246686387,151.34128137895533 L2.610855723090466,151.4776442038616 L2.531326679469557,151.6100885819748 L2.4450850125504346,151.7382632946137 L2.352359419730132,151.86182844548227 L2.25339579261156,151.98045636201368 L2.148456564943181,152.09383246429903 L2.03782001669188,152.2016560992966 L1.9217795360945267,152.3036413381098 L1.8006428416451057,152.39951773421916 L1.6747311660805957,152.48903104065786 L1.5443784045294933,152.571943884229 L1.409930229081961,152.64803639497663 L1.2717431721295829,152.71710678924143 L1.1301836809055559,152.77897190475448 L0.9856271457325045,152.83346768635099 L0.8384569045548285,152.8804496210148 L0.6890632263953865,152.91979312110115 L0.5378422764322066,152.95139385472055 L0.3851950654396523,152.9751680224083 L0.23152638637993825,152.9910525793456 L0.07724374096496464,152.99900540254293 L-0.07724374096496694,152.99900540254293 L-0.23152638637994055,152.9910525793456 L-0.38519506543965454,152.9751680224083 L-0.5378422764322088,152.95139385472055 L-0.6890632263953889,152.91979312110115 L-0.8384569045548308,152.8804496210148 L-0.9856271457325068,152.83346768635099 L-1.1301836809055579,152.77897190475448 L-1.2717431721295842,152.71710678924143 L-1.4099302290819624,152.64803639497663 L-1.5443784045294946,152.571943884229 L-1.674731166080597,152.48903104065786 L-1.8006428416451072,152.39951773421916 L-1.9217795360945282,152.3036413381098 L-2.037820016691882,152.2016560992966 L-2.148456564943183,152.09383246429903 L-2.2533957926115624,151.98045636201368 L-2.352359419730134,151.86182844548227 L-2.445085012550437,151.7382632946137 L-2.5313266794695597,151.6100885819748 L-2.6108557230904683,151.4776442038616 L-2.683461246686389,151.34128137895533 L-2.7489507134610167,151.20136171695378 L-2.807150457121483,151.05825625964727 L-2.8579061424101493,150.91234449698254 L-2.9010831743739627,150.76401336072368 L-2.9365670552860745,150.6136561983786 L-2.9642636882732325,150.4616717301122 L-2.9840996268437676,150.30846299141209 L-2.996022269654492,150.15443626431104 L-3.0,150.0 " />
			<path d="M-2.0,150.0 L-2.0,125.19615242270658 " />
			<path d="M-2.0,125.19615242270663 L-2.0038053019082547,125.10899667995898 L-2.015192246987792,125.0225042450397 L-2.0340741737109314,124.9373333776041 L-2.060307379214091,124.85413227938096 L-2.09369221296335,124.77353416096594 L-2.1339745962155607,124.69615242270663 L-2.1808479557110076,124.62257598635559 L-2.233955556881021,124.5533648130201 L-2.2928932188134517,124.48904564152008 L-2.35721239031346,124.43010797958766 L-2.426423563648953,124.37700037841763 L-2.499999999999999,124.3301270189222 " />
			<path d="M2.4999999999999964,124.3301270189222 L2.6710297075410065,124.2267718534874 L2.8377928777152577,124.11666510457052 L3.000023133366802,123.99998264987038 L3.157461337936505,123.87691087071089 L3.309856009390733,123.74764635432695 L3.4569637219231684,123.61239557984824 L3.598549494788114,123.47137458848223 L3.7343871676441753,123.32480863842335 L3.864259761808781,123.17293184503947 L3.9879598268464838,123.01598680691056 L4.105289771937435,122.85422421831676 L4.216062181496717,122.68790246879479 L4.320100114540388,122.51728723040263 L4.417237387320046,122.34265103335132 L4.507318838774453,122.16427283068215 L4.590200578374203,121.98243755268436 L4.6657502159635325,121.7974356517651 L4.733847073232161,121.60956263849883 L4.79438237647934,121.41911860959692 L4.847259430362227,121.22640776855191 L4.892393772351037,121.03173793972151 L4.9297133076442465,120.83542007662925 L4.959158424328375,120.6377677652664 L4.980682088598351,120.4390967231893 L4.994249919886403,120.23972429521152 L4.999840245779451,120.03996894649708 L4.997444136637268,119.84014975386386 L4.987065419856147,119.64058589611003 L4.96872067375524,119.44159614417765 L4.942439201095392,119.24349835196773 L4.908262982272716,119.04660894862006 L4.866246608261716,118.85124243306895 L4.816457193415043,118.65771087168208 L4.758974268259188,118.46632339978504 L4.693889652457343,118.27738572786771 L4.6213073081423675,118.09119965326126 L4.541343173854109,117.90806257806581 L4.454124979346371,117.7282670340987 L4.359792041559311,117.55210021562236 L4.258495042083197,117.3798435205979 L4.15039578646897,117.2117721011975 L4.035666945770078,117.04815442429337 L3.91449178072844,116.8892518426254 L3.7870638490450843,116.73531817733246 L3.6535866962030736,116.5865993125143 L3.5142735303365606,116.44333280247142 L3.3693468816653214,116.30574749225067 L3.2190382470387746,116.17406315210228 L3.063587720157251,116.04849012643247 L2.9032436080611967,115.92922899781236 L2.7382620345008895,115.81647026657978 L2.5689065308202275,115.71039404654586 L2.39544761500809,115.61116977729236 L2.218162359589661,115.51895595351935 L2.037333949047945,115.43389987187571 L1.8532512274824167,115.35613739567643 L1.6662082372273557,115.2857927378831 L1.4765037491668374,115.22297826269377 L1.284440785496634,115.1677943060593 L1.0903261356953333,115.12032901541306 L0.8944698664778334,115.0806582088695 L0.6971848265139834,115.04884525411711 L0.4987861467034998,115.02494096719882 L0.29959073680539344,115.0089835313415 L0.09991677922595424,115.00099843596453 L-0.09991677922611103,115.00099843596453 L-0.29959073680555,115.0089835313415 L-0.4987861467036558,115.02494096719883 L-0.6971848265141385,115.04884525411713 L-0.8944698664779878,115.08065820886952 L-1.090326135695486,115.12032901541309 L-1.2844407854967854,115.16779430605935 L-1.4765037491669872,115.22297826269381 L-1.6662082372275036,115.28579273788316 L-1.8532512274825623,115.35613739567648 L-2.0373339490480884,115.43389987187577 L-2.218162359589802,115.51895595351942 L-2.395447615008228,115.61116977729243 L-2.5689065308203625,115.71039404654594 L-2.7382620345010205,115.81647026657987 L-2.9032436080613246,115.92922899781244 L-3.0635877201573747,116.04849012643257 L-3.2190382470388945,116.17406315210238 L-3.3693468816654377,116.30574749225079 L-3.5142735303366726,116.44333280247153 L-3.653586696203181,116.58659931251441 L-3.787063849045187,116.73531817733259 L-3.9144917807285373,116.88925184262553 L-4.035666945770171,117.0481544242935 L-4.1503957864690575,117.21177210119762 L-4.25849504208328,117.37984352059803 L-4.359792041559388,117.5521002156225 L-4.454124979346442,117.72826703409885 L-4.541343173854175,117.90806257806595 L-4.621307308142427,118.0911996532614 L-4.693889652457397,118.27738572786785 L-4.7589742682592355,118.46632339978518 L-4.8164571934150855,118.65771087168223 L-4.866246608261752,118.8512424330691 L-4.9082629822727455,119.04660894862022 L-4.942439201095415,119.24349835196789 L-4.968720673755258,119.44159614417781 L-4.987065419856158,119.64058589611018 L-4.997444136637274,119.84014975386401 L-4.999840245779449,120.03996894649724 L-4.994249919886395,120.23972429521167 L-4.9806820885983365,120.43909672318945 L-4.959158424328355,120.63776776526656 L-4.929713307644221,120.8354200766294 L-4.892393772351004,121.03173793972167 L-4.847259430362189,121.22640776855205 L-4.794382376479295,121.41911860959708 L-4.73384707323211,121.60956263849897 L-4.6657502159634765,121.79743565176526 L-4.590200578374141,121.9824375526845 L-4.507318838774386,122.1642728306823 L-4.417237387319972,122.34265103335144 L-4.320100114540309,122.51728723040276 L-4.216062181496633,122.68790246879493 L-4.105289771937345,122.85422421831689 L-3.9879598268463896,123.01598680691069 L-3.8642597618086816,123.17293184503959 L-3.734387167644071,123.32480863842346 L-3.5985494947880046,123.47137458848235 L-3.4569637219230556,123.61239557984835 L-3.3098560093906153,123.74764635432705 L-3.1574613379363834,123.87691087071099 L-3.0000231333666765,123.99998264987047 L-2.8377928777151284,124.1166651045706 L-2.6710297075408738,124.22677185348749 L-2.4999999999998606,124.33012701892227 " />
			<path d="M2.4999999999999982,124.3301270189222 L2.426423563648952,124.37700037841765 L2.3572123903134594,124.43010797958766 L2.292893218813451,124.48904564152008 L2.233955556881021,124.5533648130201 L2.180847955711007,124.62257598635559 L2.1339745962155607,124.69615242270663 L2.0936922129633495,124.77353416096594 L2.060307379214091,124.85413227938096 L2.0340741737109314,124.9373333776041 L2.015192246987792,125.0225042450397 L2.0038053019082542,125.10899667995898 L2.0,125.19615242270663 " />
			<path d="M2.0,125.19615242270662 L2.0,150.0 " />
			<path d="M-2.0,150.0 L-1.9960534568565431,150.12558103905863 L-1.9842294026289558,150.2506664671286 L-1.9645745014573772,150.37476262917144 L-1.9371663222572622,150.49737977432972 L-1.902113032590307,150.6180339887499 L-1.8595529717765025,150.73624910536935 L-1.8096541049320387,150.85155858313016 L-1.7526133600877267,150.96350734820342 L-1.6886558510040295,151.071653589958 L-1.618033988749894,151.17557050458495 L-1.5410264855515774,151.2748479794974 L-1.4579372548428218,151.36909421185737 L-1.369094211857376,151.45793725484282 L-1.2748479794973777,151.54102648555158 L-1.1755705045849452,151.6180339887499 L-1.0716535899579926,151.68865585100403 L-0.9635073482034305,151.75261336008774 L-0.8515585831301459,151.80965410493204 L-0.7362491053693572,151.8595529717765 L-0.6180339887498969,151.9021130325903 L-0.4973797743297123,151.93716632225727 L-0.37476262917145275,151.96457450145738 L-0.25066646712861274,151.98422940262896 L-0.12558103905863172,151.99605345685654 L-5.696464557944958e-15,152.0 L0.12558103905862036,151.99605345685654 L0.2506664671286014,151.98422940262896 L0.37476262917144154,151.96457450145738 L0.49737977432970126,151.93716632225727 L0.618033988749886,151.9021130325903 L0.7362491053693466,151.8595529717765 L0.8515585831301357,151.80965410493204 L0.9635073482034205,151.75261336008774 L1.0716535899579829,151.68865585100403 L1.1755705045849358,151.61803398874991 L1.274847979497369,151.54102648555158 L1.369094211857367,151.45793725484285 L1.4579372548428127,151.3690942118574 L1.5410264855515685,151.2748479794974 L1.6180339887498851,151.17557050458495 L1.688655851004021,151.071653589958 L1.7526133600877185,150.96350734820345 L1.8096541049320312,150.85155858313016 L1.8595529717764958,150.73624910536938 L1.902113032590301,150.61803398874991 L1.937166322257257,150.49737977432972 L1.9645745014573734,150.37476262917147 L1.9842294026289529,150.25066646712864 L1.9960534568565418,150.12558103905866 L2.0,150.00000000000003 " />

       </g>
    </g>
    
</svg>
