<?xml version="1.0" encoding="UTF-8" standalone="no"?>
<svg
   xmlns:svg="http://www.w3.org/2000/svg"
   xmlns="http://www.w3.org/2000/svg"
   width="620.0"
   height="452.52021681083914"

>
    <g transform="scale(3.395772631077814, -3.395772631077814)   translate(79.22590833209463,-116.94483791655568)" stroke-width="0.5"  fill="none">
       <!-- hidden lines -->
       <g  stroke="rgb(160,160,160)" fill="none" stroke-dasharray="0.5,0.5" >

       </g>

       <!-- solid lines -->
       <g  stroke="rgb(0,0,0)" fill="none">
			<path d="M90.44317917401759,62.14781847254619 L99.0431791740176,47.25218152745384 " />
			<path d="M99.04317917401758,47.252181527453835 L-3.1478184725461738,-11.747818472546175 " />
			<path d="M-3.147818472546172,-11.747818472546172 L-11.747818472546173,3.14781847254617 " />
			<path d="M-11.747818472546157,3.1478184725461773 L-6.0,6.466323014923809 " />
			<path d="M6.0,13.394526245199316 L90.44317917401759,62.14781847254619 " />
			<path d="M-13.113843876330613,3.5138438763306086 L-3.5138438763306112,-13.113843876330613 " />
			<path d="M-13.113843876330613,3.5138438763306086 L-6.000000000000001,7.6210235533030595 " />
			<path d="M6.0,14.549226783578572 L90.809204577802,63.513843876330625 " />
			<path d="M100.40920457780203,46.88615612366941 L90.80920457780203,63.513843876330625 " />
			<path d="M100.40920457780203,46.88615612366941 L-3.513843876330597,-13.113843876330606 " />
			<path d="M99.0431791740176,47.25218152745384 L90.44317917401759,62.14781847254619 " />
			<path d="M-11.747818472546157,3.1478184725461773 L-6.0,6.466323014923809 " />
			<path d="M6.0,13.394526245199316 L90.44317917401759,62.14781847254619 " />
			<path d="M-11.747818472546173,3.14781847254617 L-3.147818472546172,-11.747818472546172 " />
			<path d="M99.04317917401758,47.252181527453835 L-3.1478184725461738,-11.747818472546175 " />
			<path d="M-65.02282722966092,56.02813524526467 L-6.0,14.69990669260678 " />
			<path d="M2.111950228266335,-11.977464933504326 L4.5939441319441645,-8.432810287220754 " />
			<path d="M-74.8883419348989,41.938720083494005 L-8.432810287220747,-4.59394413194417 " />
			<path d="M0.45905062118959705,-10.820092168725331 L2.1119502282663376,-11.97746493350433 " />
			<path d="M-65.0228272296609,56.02813524526466 L-74.88834193489889,41.938720083494005 " />
			<path d="M2.357525836204281,-13.370193414144364 L6.643134813429189,-7.249709495644499 " />
			<path d="M2.357525836204281,-13.370193414144364 L-0.4965026866067195,-11.371781128206578 " />
			<path d="M-7.249709495644505,-6.643134813429182 L-76.28107041553895,41.69314447555607 " />
			<path d="M-65.26840283759886,57.4208637259047 L-76.28107041553895,41.69314447555606 " />
			<path d="M-65.26840283759886,57.4208637259047 L-6.0,15.920681281368232 " />
			<path d="M-65.0228272296609,56.02813524526466 L-74.88834193489889,41.938720083494005 " />
			<path d="M2.1119502282663376,-11.97746493350433 L0.45905062118959705,-10.820092168725331 " />
			<path d="M-8.432810287220747,-4.59394413194417 L-74.8883419348989,41.938720083494005 " />
			<path d="M4.5939441319441645,-8.432810287220754 L2.111950228266335,-11.977464933504326 " />
			<path d="M-65.02282722966092,56.02813524526467 L-6.0,14.69990669260678 " />
			<path d="M-5.0,-5.0 L-5.0,113.0 " />
			<path d="M-5.0,113.0 L5.0,113.0 " />
			<path d="M5.0,113.0 L5.0,-5.0 " />
			<path d="M5.0,-5.0 L-5.0,-5.0 " />
			<path d="M1.5,0.0 L1.4960898472769246,0.10823663370092412 L1.484379774833456,0.21590897171117868 L1.46493083356513,0.32245566031653605 L1.437844421246162,0.4273212144175499 L1.4032617538884016,0.5299589135716536 L1.3613631295064355,0.6298336523403969 L1.3123669881272244,0.7264247300814293 L1.256528772944947,0.8192285656405454 L1.1941395985584657,0.9077613227906477 L1.1255247332346037,0.9915614327298002 L1.051041903110014,1.0701920004872396 L0.9710794271727416,1.1432430826914546 L0.8860541927468271,1.2103338248251052 L0.7964094820348305,1.2711144468241296 L0.7026126610496856,1.3252680666690342 L0.6051527429847132,1.372512352461018 L0.5045378387252633,1.412600994369762 L0.4012925077938318,1.4453249887788344 L0.29595502353960074,1.47051372793377 L0.18907456683043478,1.4880358894119066 L0.08120836287812708,1.4978001207766858 L-0.027081223875839805,1.499755515846962 L-0.13522962166809693,1.4938918800982564 L-0.24267299482914612,1.4802397838122894 L-0.3488511833614646,1.458870402697685 L-0.453210623354358,1.4298951468127845 L-0.5552072330098704,1.3934650797251877 L-0.65430924923335,1.3497701309362604 L-0.7499999999999991,1.2990381056766584 L-0.8417805980435729,1.2415334972353362 L-0.929172541823584,1.177556108014009 L-1.0117202102107707,1.1074394864962482 L-1.0889932378846963,1.0315491882801349 L-1.1605887590592547,0.9502808702406356 L-1.226133507838338,0.864058227757859 L-1.2852857642513842,0.7733307857655319 L-1.3377371358230739,0.6785715551361393 L-1.3832141653889003,0.5802745666212575 L-1.4214797567742041,0.4789522952039684 L-1.4523344109038454,0.3751329882915927 L-1.4756172658980045,0.26935791167830536 L-1.4912069357315398,0.16217852763591023 L-1.4990221430845156,0.054153619844901954 L-1.4990221430845154,-0.054153619844907575 L-1.491206935731539,-0.16217852763591584 L-1.4756172658980036,-0.2693579116783109 L-1.4523344109038439,-0.3751329882915982 L-1.4214797567742024,-0.47895229520397375 L-1.383214165388898,-0.5802745666212628 L-1.3377371358230714,-0.6785715551361444 L-1.2852857642513813,-0.7733307857655367 L-1.2261335078383349,-0.8640582277578637 L-1.160588759059251,-0.9502808702406398 L-1.0889932378846925,-1.031549188280139 L-1.0117202102107665,-1.107439486496252 L-0.9291725418235801,-1.177556108014012 L-0.8417805980435694,-1.2415334972353387 L-0.749999999999996,-1.2990381056766602 L-0.6543092492333473,-1.3497701309362617 L-0.555207233009868,-1.3934650797251886 L-0.45321062335435575,-1.4298951468127852 L-0.3488511833614627,-1.4588704026976855 L-0.24267299482914448,-1.4802397838122898 L-0.13522962166809563,-1.4938918800982566 L-0.02708122387583884,-1.499755515846962 L0.0812083628781277,-1.4978001207766858 L0.18907456683043505,-1.4880358894119063 L0.2959550235396007,-1.47051372793377 L0.40129250779383147,-1.4453249887788344 L0.5045378387252626,-1.4126009943697622 L0.6051527429847121,-1.3725123524610185 L0.7026126610496843,-1.3252680666690348 L0.7964094820348291,-1.2711144468241304 L0.8860541927468253,-1.2103338248251065 L0.9710794271727399,-1.1432430826914561 L1.0510419031100118,-1.0701920004872416 L1.1255247332346014,-0.9915614327298026 L1.1941395985584635,-0.9077613227906505 L1.2565287729449452,-0.8192285656405487 L1.3123669881272224,-0.7264247300814329 L1.3613631295064337,-0.6298336523404011 L1.4032617538883998,-0.5299589135716583 L1.4378444212461605,-0.42732121441755505 L1.4649308335651288,-0.32245566031654177 L1.484379774833455,-0.21590897171118484 L1.4960898472769242,-0.10823663370093072 L1.5,-7.028732187495145e-15 " />
			<path d="M-6.0,-6.0 L6.0,-6.0 " />
			<path d="M-6.0,-6.0 L-6.0,114.0 " />
			<path d="M6.0,114.0 L-6.0,114.0 " />
			<path d="M6.0,114.0 L6.0,-6.0 " />
			<path d="M-5.0,113.0 L-5.0,-5.0 " />
			<path d="M-5.0,-5.0 L5.0,-5.0 " />
			<path d="M5.0,-5.0 L5.0,113.0 " />
			<path d="M5.0,113.0 L-5.0,113.0 " />

       </g>
    </g>
    
</svg>
