<?xml version="1.0" encoding="UTF-8" standalone="no"?>
<svg
   xmlns:svg="http://www.w3.org/2000/svg"
   xmlns="http://www.w3.org/2000/svg"
   width="620.0"
   height="541.2524050541912"

>
    <g transform="scale(3.2680401570795685, -3.2680401570795685)   translate(82.21842744664788,-153.55993791977647)" stroke-width="0.5"  fill="none">
       <!-- hidden lines -->
       <g  stroke="rgb(160,160,160)" fill="none" stroke-dasharray="0.5,0.5" >

       </g>

       <!-- solid lines -->
       <g  stroke="rgb(0,0,0)" fill="none">
			<path d="M85.18559339430082,51.300357364927834 L85.00189644943698,51.50552881103445 L84.8123900421921,51.70534675683244 L84.61723012032064,51.89964676904273 L84.41657728394172,52.08826895517916 L84.21059665337879,52.2710580951265 L83.99945773327956,52.447863768873475 L83.783334273128,52.618540480295714 L83.56240412426322,52.782947776886765 L83.33684909352284,52.94095036533865 L83.10685479363131,53.0924182228768 L82.87261049045637,53.237226704257814 L82.6343089472592,53.37525664434197 L82.39214626606656,53.506394456156045 L82.14632172629543,53.6305322243658 L81.89703762076283,53.74756779408119 L81.64449908921601,53.857404854921185 L81.38891394951972,53.95995302026907 L81.13049252663969,54.05512790165302 L80.86944747956295,54.142851178190654 L80.6059936262975,54.22305066104049 L80.34034776709522,54.29566035280729 L80.07272850604356,54.360620501852324 L79.8033560711729,54.41787765146392 L79.5324521332275,54.4673846838478 L79.26023962324913,54.50910085890107 L78.98694254912382,54.54299184773788 L78.71278581124217,54.569029760939166 L78.43799501742537,54.58719317150331 L78.16279629726907,54.59746713247874 L77.8874161160578,54.59984318926402 L77.61208108840326,54.59431938656527 L77.3370177917595,54.58090027000517 L77.06245257996895,54.55959688238238 L76.78861139699235,54.53042675458414 L76.51571959097588,54.49341389115994 L76.24400172880874,54.44858875056772 L75.97368141132358,54.395988220109196 L75.70498108929193,54.335655585574685 L75.43812188036596,54.26764049562257 L75.17332338711739,54.191998920922686 L74.91080351632314,54.108793108097125 L74.65077829964646,54.018091528496576 L74.39346171586111,53.919968821854184 L74.13906551476497,53.814505734863346 L73.88779904292777,53.70178905473 L73.63986907141667,53.581911537754145 L73.39547962564107,53.45497183299916 L73.15483181745694,53.32107440111204 L72.91812367966882,53.18032942836108 L72.68555000306552,53.03285273596187 L72.45730217612375,52.87876568476627 L72.23356802751165,52.71819507539267 L72.0145316715216,52.55127304387978 L71.80037335655975,52.378136952949866 L71.59126931681683,52.19892927897081 L71.3873916272423,52.01379749471013 L71.18890806194118,51.82289394797738 L70.99598195611019,51.626375736254694 L70.80877207162668,51.42440457741894 L70.62743246640098,51.21714667666151 L70.45211236759982,51.00477258971551 L70.282956048845,50.787457082502826 L70.12010271148826,50.56537898731655 L69.96368637006054,50.33872105565706 L69.81383574198917,50.10766980784307 L69.67067414167438,49.87241537952109 L69.53431937901202,49.633151365199915 L69.40488366244588,49.3900746589387 L69.28247350662967,49.143385292319785 L69.1671896447745,48.89328626983959 L69.05912694575387,48.63998340185313 L68.95837433603472,48.38368513520942 L68.86501472649836,48.124602381717395 L68.77912494421189,47.86294834458329 L68.700775669206,47.59893834296244 L68.63003137631125,47.332789634769796 L68.56695028210082,47.064721237895036 L68.51158429698306,46.79495374996936 L68.46397898248372,46.523709166832276 L68.42417351375263,46.251210699847796 L68.39220064732586,45.97768259222036 L68.36808669416988,45.703349934461606 L68.35185149802977,45.42843847915994 L68.34350841909965,45.153174455205196 L68.34306432302824,44.87778438162143 L68.35051957526909,44.60249488116089 L68.36586804077976,44.32753249381262 L68.38909708907052,44.05312349037925 L68.42018760459817,43.77949368627521 L68.45911400249643,43.50686825569974 L68.50584424963026,43.2354715463376 L68.56033989095627,42.965526894739796 L68.62255608116811,42.69725644253659 L68.69244162160028,42.43088095363362 " />
			<path d="M85.18559339430082,51.30035736492781 L103.62304845413263,60.519615242270675 " />
			<path d="M68.69244162160014,42.430880953633704 L6.311990415329234,6.415510657522873 " />
			<path d="M103.62304845413263,60.519615242270675 L103.68805372809175,60.53878025167942 L103.75478377071086,60.55061598740592 L103.82241490564878,60.55497635609978 L103.89011233401146,60.551807535938146 L103.95704043861788,60.54114864097063 L104.02237309836634,60.52313123831847 L104.0853038853867,60.49797772418752 L104.14505601911104,60.465998578740454 L104.20089195439549,60.42758853371253 L104.25212248534301,60.38322170007554 L104.29811525245505,60.33344571589124 L104.3383025481047,60.278874986589685 L104.37218832398537,60.22018310111049 L104.39935431403872,60.15809451751771 L104.41946519728468,60.0933756207162 L104.43227273682604,60.02682526264779 L104.4376188439385,59.95926490173343 L104.4354375294248,59.89152846327428 L104.42575571814648,59.82445204596903 L104.40869291667923,59.758863601603984 L104.38445973819417,59.695572715303925 L104.35335530277283,59.635360612490146 L104.31576354524512,59.57897051589406 L104.27214847612393,59.52709847165354 L104.22304845413262,59.480384757729354 " />
			<path d="M8.711990415329389,2.258588719357483 L8.775334728384156,1.9983744405928943 L8.830908647982405,1.7363906389374417 L8.87866296446609,1.472869296108191 L8.918555392288297,1.2080437552859253 L8.950550607456305,0.9421485144941637 L8.974620278810301,0.6754190189555822 L8.990743093110098,0.4080914526097028 L8.9989047739076,0.1404025289764772 L8.999098094188344,-0.12741071844908491 L8.991322882770861,-0.3951111460855925 L8.975586024458277,-0.6624617102514558 L8.951901453941925,-0.9292256770625902 L8.92029014346247,-1.195166832055809 L8.880780084239351,-1.4600496893522772 L8.833406261685116,-1.7236397001758195 L8.77821062442647,-1.9857034605414374 L8.71524204715958,-2.2460089179301357 L8.644556287372438,-2.504325576767057 L8.566215935972664,-2.7604247025209645 L8.480290361864439,-3.0140795242443605 L8.386855650523636,-3.2650654353748787 L8.285994536625584,-3.5131601926201697 L8.177796330785053,-3.7581441127501374 L8.06235684047341,-3.9998002671223007 L7.939778285182886,-4.237914673768022 L7.810169205913162,-4.472276486869496 L7.673644369060353,-4.702678183459756 L7.530324664793524,-4.928915747180337 L7.380337000008731,-5.150788848933931 L7.223814185955353,-5.368101024272008 L7.060894820634239,-5.580659847360396 L6.891723166071785,-5.788277101368722 L6.716449020578633,-5.990768945132864 L6.535227586106094,-6.18795607594284 L6.3482193308177415,-6.379663888311982 L6.155589846997878,-6.565722628586792 L5.957509704422695,-6.745967545260607 L5.754154299323945,-6.920239034857957 L5.545703699078887,-7.088382783260419 L5.332342482764026,-7.250249902348883 L5.114259577713808,-7.405697061841146 L4.891648092229037,-7.554586616208198 L4.6647051445831105,-7.696786726556729 L4.4336316884775115,-7.832171477369991 L4.198632335101085,-7.9606209880036145 L3.95991517195069,-8.082021518837642 L3.717691578573657,-8.196265571990851 L3.472176039395162,-8.303251986508064 L3.223585953796332,-8.402886027936294 L2.97214144361118,-8.495079472210302 L2.718065158212873,-8.579750683773348 L2.461582077361916,-8.65682468786394 L2.2029193119908044,-8.726233236904568 L1.9423059031015866,-8.787914870933648 L1.679972618954368,-8.841814972027157 L1.4161517507263706,-8.887885812661784 L1.1510769068224715,-8.926086597976742 L0.8849828060193698,-8.95638350189685 L0.6181050696265298,-8.978749697084888 L0.3506800128479579,-8.9931653786967 L0.08294443552954123,-8.999617781918001 L-0.1848645875227457,-8.998101193267392 L-0.45250991646811967,-8.988616955655527 L-0.7197545564138412,-8.971173467196 L-0.9863618672697241,-8.945786173768976 L-1.252095773288481,-8.912477555344143 L-1.5167209721063317,-8.871277106075135 L-1.7800031430988295,-8.822221308183007 L-2.0417091548673394,-8.76535359965192 L-2.301607271672504,-8.70072433576563 L-2.5594673586318777,-8.628390744518816 L-2.8150610855000067,-8.548416875942792 L-3.068162128850583,-8.460873545390395 L-3.3185463724815465,-8.36583827083034 L-3.5659921058657766,-8.2633952042065 L-3.810280220471568,-8.153635056922964 L-4.051194403779116,-8.036655019520794 L-4.288521330821168,-7.912558675617632 L-4.522050853078264,-7.781455910186355 L-4.751576184561285,-7.643462812254013 L-4.976894084916552,-7.4987015721071755 L-5.197805039391323,-7.347300373094745 L-5.414113435500345,-7.189393278124006 L-5.625627736237028,-7.025120110950462 L-5.832160649675849,-6.854626332366526 L-6.033529294815819,-6.678062911398735 L-6.229555363518159,-6.495586191627524 L-6.420065278394805,-6.307357752747931 L-6.604890346507909,-6.113544267493828 L-6.783866908744246,-5.91431735405235 L-6.956836484732287,-5.709853424099233 L-7.123645913173567,-5.5003335265895945 L-7.284147487464141,-5.285943187442507 L-7.438199086485983,-5.066872245261282 L-7.585664300452564,-4.843314683234976 L-7.72641255169715,-4.615468457369928 L-7.860319210296854,-4.38353532120345 L-7.987265704430094,-4.147720647154875 L-8.10713962536969,-3.90823324467215 L-8.219834827018694,-3.665285175335005 L-8.325251519900737,-3.4190915650784257 L-8.423296359521748,-3.1698704137026925 L-8.513882529024718,-2.9178424018386724 L-8.596929816064423,-2.6632306955392635 L-8.672364683833914,-2.4062607486700798 L-8.740120336179993,-2.1471601032743015 L-8.800136776749937,-1.8861581880884826 L-8.852360862117138,-1.6234861153877267 L-8.896746348838606,-1.3593764763401346 L-8.933253934402675,-1.0940631350516994 L-8.961851292030616,-0.8277810214840566 L-8.982513099301412,-0.5607659234284292 L-8.995221060574272,-0.29325427771998713 L-8.999963923189076,-0.02548296087748403 L-8.996737487430401,0.24231092064643533 L-8.98554461024628,0.5098902404185219 L-8.96639520271843,0.7770180619959155 L-8.939306221286195,1.0434578487288948 L-8.904301652731904,1.308973673209619 L-8.861412492941056,1.5733304261814074 L-8.810676719456037,1.8362940247235406 L-8.752139257847727,2.0976316195272866 L-8.685851941934738,2.357111801079564 L-8.61187346788557,2.6145048045717116 L-8.530269342244244,2.8695827133518845 L-8.441111823925493,3.1221196607409607 L-8.34447986023086,3.3718920300332234 L-8.24045901694235,3.6186786525047396 L-8.129141402555542,3.8622610032540945 L-8.010625586719252,4.102423394702068 L-7.885016512953969,4.338953167578929 L-7.752425405726347,4.571640879230199 L-7.612969671962035,4.800280489074182 L-7.466772797084056,5.024669541047009 L-7.313964235668797,5.2446093428736695 L-7.154679296816418,5.459905142006271 L-6.989059024337205,5.670366298073757 L-6.817250071859919,5.875806451690349 L-6.639404572972786,6.07604368947328 L-6.455680006512065,6.270900705123658 L-6.266239057117513,6.460204956427855 L-6.071249471178202,6.643788818040382 L-5.87088390829625,6.8214897299129715 L-5.665319788400005,6.99315034123844 L-5.45473913464204,7.158618649781857 L-5.23932841222108,7.317748136475656 L-5.019278363270594,7.470397895159514 L-4.7947838379602175,7.616432757350089 L-4.566043621959617,7.7557234119301794 L-4.333260260417513,7.888146519651263 L-4.096639878611781,8.01358482234809 L-3.856391999429392,8.131927246768566 L-3.6127293578378596,8.243069002927031 L-3.3658677125124288,8.346911676893818 L-3.116025654785835,8.44336331793892 L-2.863424415089809,8.532338519952638 L-2.608287667059692,8.613758497071085 L-2.350841329475654,8.687551153439566 L-2.0913133662158696,8.753651147052118 L-1.8299335843988032,8.811999947610607 L-1.5669334308933407,8.86254588835222 L-1.3025457873769457,8.905244211799392 L-1.0370047641233304,8.940057109391724 L-0.7705454927022157,8.966953754964742 L-0.503403917774766,8.985910332045886 L-0.2358165881690364,8.996910054943548 L0.031979552579558757,8.999943183610483 L0.2997473760372711,8.995007032268445 L0.567249778844777,8.98210597178638 L0.8342498926677409,8.961251425810119 L1.100511293939248,8.932461860646939 L1.3657982132084228,8.895762768914011 L1.62987574390983,8.85118664696516 L1.8925100503688097,8.79877296611596 L2.153468574858559,8.738568137692619 L2.4125202435256172,8.670625471935637 L2.6694356710013967,8.59500513079459 L2.923987363518617,8.51177407465585 L3.1759499203527337,8.421006003050435 L3.425100233410041,8.32278128939446 L3.6712176847856663,8.217186909819988 L3.914084342116589,8.104316366159317 L4.15348515155662,7.984269603150853 L4.389208128202531,7.857152919939947 L4.621044543802702,7.723078875952989 L4.848789111582034,7.58216619122817 L5.072240168019539,7.434539641291123 L5.291199851417561,7.280329946668544 L5.505474277104603,7.119673657137634 L5.714873709116535,6.952713030813845 L5.919212728204214,6.7795959081840005 L6.118310396018735,6.600475581196331 L6.3119904153289355,6.415510657523348 " />
			<path d="M104.22304845413262,59.480384757729354 L87.02020939839801,48.122709233452504 " />
			<path d="M8.711990415329279,2.2585887193575958 L71.09244162160017,38.273959015468414 " />
			<path d="M87.02020939839804,48.12270923345248 L87.10604461042564,47.8610372895495 L87.18433882399628,47.59701095379652 L87.25502760959029,47.33084749755011 L87.31805279631233,47.062765950836344 L87.37336251976117,46.79298692210764 L87.42091126470964,46.52173241670061 L87.46065990255991,46.249225654144446 L87.4925757235429,45.97569088447015 L87.51663246363574,45.70135320367165 L87.53281032617483,45.4264383684709 L87.54109599814676,45.151172610539106 L87.54148266114389,44.87578245032724 L87.53396999697526,44.60049451065883 L87.51856418792845,44.32553533023852 L87.49527791168207,44.05113117722993 L87.4641303308731,43.777507863055966 L87.42514707732772,43.50489055657524 L87.37836023096838,43.23350359878703 L87.3238082934148,42.96357031821766 L87.26153615630042,42.695312847139974 L87.19159506433029,42.42895193877725 L87.11404257311108,42.164706785641975 L87.02894250178767,41.90279483915892 L86.93636488052539,41.64343163072101 L86.83638589288107,41.38683059432519 L86.72908781311047,41.133202890934314 L86.61455893846349,40.88275723470948 L86.492893516523,40.63569972125597 L86.36419166764706,40.392233658023926 L86.22855930257832,40.15255939700358 L86.08610803528843,39.91687416985242 L85.93695509112916,39.68537192559027 L85.78122321036588,39.4582431709956 L85.61904054717267,39.2356748138346 L85.45054056417227,39.01785000905182 L85.27586192260763,38.80494800804919 L85.09514836823544,38.597144011177235 L84.90854861303548,38.39460902356002 L84.71621621283329,38.19750971437236 L84.51830944093665,38.006008279685204 L84.31499115789005,37.82026230899196 L84.10642867745426,37.64042465552567 L83.89279362892118,37.46664331047373 L83.67426181587751,37.29906128119363 L83.4510130715332,37.13781647353 L83.22323111073396,36.98304157832977 L82.99110337877944,36.83486396224879 L82.75482089717164,36.693405562939844 L82.51457810642029,36.55878278870831 L82.27057270603481,36.4311064227179 L82.02300549183433,36.31048153182553 L81.77208019070959,36.19700738012017 L81.51800329297309,36.09077734723686 L81.26098388243493,35.99187885151319 L81.00123346434448,35.9003932780514 L80.73896579133954,35.81639591174532 L80.47439668754585,35.73995587532721 L80.20774387097222,35.67113607248571 L79.93922677434692,35.60999313610131 L79.6690663645431,35.556577381642335 L79.39748496074176,35.51093276575954 L79.12470605148187,35.473096850113535 L78.85095411074813,35.44310077046467 L78.57645441324792,35.42096921105098 L78.30143284902921,35.40672038427512 L78.0261157375922,35.40036601571707 L77.75072964164744,35.40191133448505 L77.47550118067392,35.411355068912336 L77.20065684443034,35.42868944760375 L76.92642280657324,35.453900205830884 L76.6530247385352,35.486966597270744 L76.38068762381626,35.527861411078234 L76.10963557284155,35.57655099427836 L75.84009163853743,35.63299527945981 L75.57227763277766,35.69714781774704 L75.30641394385106,35.76895581702375 L75.04271935510052,35.84836018537638 L74.78141086488289,35.93529557972168 L74.52270350799759,36.029690459578646 L74.26681017873118,36.13146714594022 L74.01394145566334,36.24054188519655 L73.76430542837856,36.356824918057164 L73.51810752622592,36.48022055341525 L73.27555034926812,36.61062724709336 L73.03683350155882,36.74793768540568 L72.80215342688527,36.89203887346814 L72.57170324711178,37.04281222818362 L72.3456726032567,37.200133675825846 L72.12424749943386,37.36387375414156 L71.90761014978698,37.53389771888701 L71.69593882854277,37.710065654711094 L71.48940772330634,37.89223259029385 L71.28818679171954,38.080248617645594 L71.09244162160016,38.27395901546854 " />
			<path d="M3.5516660498395396,-0.9516660498395417 L-0.9516660498395417,-3.5516660498395414 " />
			<path d="M0.9516660498395404,3.5516660498395414 L3.5516660498395414,-0.9516660498395397 " />
			<path d="M-3.551666049839536,0.95166604983954 L0.9516660498395417,3.5516660498395414 " />
			<path d="M-0.9516660498395404,-3.5516660498395414 L-3.5516660498395414,0.9516660498395397 " />
			<path d="M80.34228634059949,40.843078061834696 L80.50984402725263,40.94443006154396 L80.67312826752647,41.05253215717497 L80.83186729091744,41.16720442345806 L80.98579689198696,41.2882559997229 L81.13466087010521,41.41548540756728 L81.27821145587187,41.548680886198014 L81.41620972350381,41.68762074488587 L81.54842598850352,41.83207373194791 L81.67464018994622,41.981799419643124 L81.79464225674955,42.136548604340646 L81.90823245731626,42.296063721294615 L82.0152217319676,42.460079273335275 L82.1154320076146,42.62832227276281 L82.20869649414311,42.800512695708434 L82.29485996201952,42.97636394820648 L82.37377900065493,43.15558334320179 L82.44532225709798,43.3378725876984 L82.5093706546589,43.52292827923881 L82.5658175911008,43.71044241088746 L82.61456911606868,43.90010288387782 L82.65554408746047,44.09159402707004 L82.6886743064801,44.28459712235437 L82.71390463114759,44.47879093512603 L82.73119306807749,44.673852248948485 L82.7405108423727,44.869456403515315 L82.74184244551749,45.06527783501526 L82.73518566118983,45.26099061800103 L82.72055156895028,45.45626900786009 L82.69796452580117,45.65078798298437 L82.66746212564668,45.844223785736695 L82.62909513672165,46.036254461313405 L82.58292741709272,46.22656039360635 L82.52903580837295,46.41482483717235 L82.46751000782658,46.600734444424766 L82.39845241907663,46.783979787169585 L82.32197798166438,46.964255871618136 L82.23821397974369,47.14126264601915 L82.14729983022916,47.31470550006529 L82.04938685075041,47.484295755242925 L81.94463800779884,47.64975114530904 L81.83322764548596,47.81079628609551 L81.71534119536486,47.96716313385892 L81.59117486779763,48.118591431412874 L81.46093532538265,48.264829141300424 L81.32483933898502,48.40563286528555 L81.18311342694292,48.54076824946547 L81.03599347805012,48.67001037432962 L80.8837243589424,48.793144129115966 L80.72655950654124,48.90996456984163 L80.56476050623294,49.02027726041192 L80.39859665648574,49.123898596240075 L80.22834452062895,49.2206561098389 L80.0542874665407,49.31038875787592 L79.87671519500994,49.392947189214134 L79.69592325755818,49.46819399349219 L79.5122125645231,49.53600392983042 L79.32588888422302,49.59626413528189 L79.13726233403565,49.648874312681656 L78.9466468642384,49.69374689758149 L78.75435973546905,49.73080720399226 L78.56072099067678,49.75999354869141 L78.36605292244226,49.781257353888556 L78.17067953655344,49.794563228078445 L77.97492601272988,49.79988902494665 L77.77911816339325,49.797225880229874 L77.58358189138464,49.78657822646967 L77.3886426475315,49.767963785634926 L77.19462488896684,49.74141353962536 L77.00185153910235,49.70697167870523 L76.81064345015422,49.66469552795301 L76.62131886911634,49.614655451849416 L76.43419290806958,49.55693473716272 L76.24957701970877,49.4916294543261 L76.0677784789605,49.41884829753792 L75.88909987155434,49.33871240385094 L75.71383859039862,49.25135515155166 L75.54228634059947,49.15692193816531 L75.37472865394632,49.055569938456046 L75.21144441367248,48.947467842825034 L75.0527053902815,48.83279557654195 L74.898775789212,48.71174400027711 L74.74991181109375,48.584514592432726 L74.60636122532709,48.45131911380199 L74.46836295769513,48.31237925511414 L74.33614669269542,48.16792626805209 L74.20993249125273,48.018200580356876 L74.08993042444939,47.863451395659354 L73.9763402238827,47.703936278705385 L73.86935094923136,47.539920726664725 L73.76914067358436,47.37167772723719 L73.67587618705583,47.199487304291566 L73.58971271917943,47.02363605179352 L73.51079368054403,46.84441665679821 L73.43925042410096,46.6621274123016 L73.37520202654005,46.47707172076119 L73.31875509009816,46.28955758911254 L73.27000356513028,46.09989711612218 L73.22902859373848,45.90840597292996 L73.19589837471887,45.71540287764564 L73.17066805005138,45.52120906487398 L73.15337961312147,45.32614775105152 L73.14406183882626,45.13054359648469 L73.14273023568147,44.934722164984755 L73.14938702000913,44.73900938199898 L73.16402111224868,44.54373099213993 L73.18660815539779,44.34921201701565 L73.21711055555228,44.15577621426333 L73.25547754447732,43.96374553868662 L73.30164526410624,43.77343960639368 L73.355536872826,43.585175162827674 L73.41706267337239,43.39926555557526 L73.48612026212233,43.21602021283044 L73.56259469953457,43.0357441283819 L73.64635870145526,42.858737353980885 L73.73727285096979,42.68529449993475 L73.83518583044854,42.51570424475711 L73.9399346734001,42.350248854691 L74.05134503571297,42.189203713904526 L74.16923148583408,42.032836866141125 L74.29339781340131,41.88140856858717 L74.4236373558163,41.73517085869962 L74.55973334221392,41.59436713471449 L74.70145925425601,41.45923175053457 L74.84857920314882,41.32998962567042 L75.00084832225652,41.20685587088408 L75.1580131746577,41.090035430158416 L75.31981217496599,40.97972273958812 L75.48597602471318,40.87610140375997 L75.65622816056995,40.779343890161144 L75.83028521465822,40.689611242124116 L76.00785748618898,40.6070528107859 L76.18864942364074,40.53180600650784 L76.37236011667581,40.463996070169614 L76.55868379697588,40.40373586471814 L76.74731034716325,40.35112568731837 L76.9379258169605,40.30625310241854 L77.13021294572985,40.26919279600776 L77.3238516905221,40.24000645130861 L77.51851975875663,40.218742646111465 L77.71389314464545,40.20543677192157 L77.90964666846901,40.20011097505336 L78.10545451780564,40.20277411977014 L78.30099078981425,40.213421773530335 L78.49593003366738,40.232036214365074 L78.68994779223203,40.258586460374644 L78.88272114209653,40.29302832129476 L79.07392923104466,40.335304472046985 L79.26325381208252,40.38534454815057 L79.4503797731293,40.443065262837266 L79.63499566149011,40.50837054567388 L79.81679420223837,40.58115170246206 L79.99547280964454,40.66128759614903 L80.17073409080025,40.74864484844831 L80.3422863405994,40.84307806183465 " />
			<path d="M-64.35368444381596,42.843796985823346 L-64.51262780041347,42.53697688940092 L-64.66446143597287,42.22657697108912 L-64.8091047763907,41.91276195193305 L-64.94648106326338,41.59569836528169 L-65.07651739462088,41.27555446841306 L-65.19914476361387,40.95250015324453 L-65.31429809513378,40.62670685617564 L-65.4219162803465,40.29834746711135 L-65.52194220912124,39.967596237713934 L-65.6143228003373,39.63462868893219 L-65.69900903005288,39.29962151785713 L-65.77595595752078,38.96275250395351 L-65.84512274903723,38.6242004147169 L-65.90647269961131,38.284144910806575 L-65.95997325244332,37.94276645070426 L-66.00559601620174,37.60024619494966 L-66.04331678008984,37.256765910003274 L-66.07311552669373,36.91250787178777 L-66.09497644260493,36.567654768958924 L-66.10888792681232,36.222389605957645 L-66.11484259685835,35.87689560589426 L-66.11283729275678,35.53135611331691 L-66.10287307866955,35.1859544969154 L-66.08495524234215,34.840874052212286 L-66.05909329229745,34.49629790429279 L-66.02530095278982,34.15240891062513 L-65.98359615652205,33.80938956402291 L-65.93400103512893,33.46742189580095 L-65.87654190743255,33.126687379176175 L-65.8112492654756,32.78736683296443 L-65.73815775834008,32.44964032562482 L-65.6573061737599,32.113687079702075 L-65.56873741753733,31.77968537671788 L-65.47249849077393,31.447812462561604 L-65.36864046492833,31.118244453430545 L-65.25721845471402,30.79115624236974 L-65.13829158885136,30.46672140646084 L-65.01192297868951,30.145112114709313 L-64.87817968471502,29.82649903667891 L-64.73713268096445,29.511051251921845 L-64.58885681736041,29.198936160252714 L-64.43343077999067,28.890319392913845 L-64.27093704935152,28.585364724679163 L-64.10146185657754,28.28423398694325 L-63.92509513768103,27.987086981841674 L-63.74193048582534,27.694081397448244 L-63.552065101657426,27.405372724094075 L-63.35559974172605,27.121114171853 L-63.15263866501296,26.84145658923702 L-62.94328957760534,26.56654838314497 L-62.72766357553909,26.2965354401069 L-62.50587508584306,26.031561048865953 L-62.278041805815676,25.7717658243388 L-62.04428464056603,25.51728763299501 L-61.80472763885281,25.268261519694967 L-61.559497927254824,25.02481963602512 L-61.30872564270833,24.787091170168623 L-61.05254386344677,24.55520227834856 L-60.79108853837968,24.329276017880204 L-60.52449841494817,24.10943228186772 L-60.25291496549536,23.89578773558005 L-59.976482312190676,23.68845575453977 L-59.69534715054809,23.487546364357648 L-59.40965867157863,23.293166182344997 L-59.11956848261868,23.105418360934642 L-58.82523052687594,22.92440253294069 L-58.52680100173584,22.75021475868598 L-58.22443827587173,22.582947475025446 L-57.91830280520275,22.422689446292278 L-57.60855704774419,22.269525717193062 L-57.295365377395235,22.1235375676768 L-56.9788939967101,21.98480246980175 L-56.65931084869874,21.8533940466231 L-56.33678552770388,21.729382033123116 L-56.01148918940184,21.612832239204636 L-55.68359445997468,21.50380651476752 L-55.35327534450204,21.402362716886486 L-55.02070713462128,21.308554679107942 L-54.686066315504796,21.22243218288191 L-54.34953047220401,21.144040931144342 L-54.01127819540967,21.07342252406376 L-53.67148898667848,21.01061443696515 L-53.330343163176366,20.95565000044282 L-52.988021761988904,20.908558382672695 L-52.64470644404973,20.86936457393357 L-52.30057939773788,20.838089373345397 L-51.95582324219518,20.814749377831774 L-51.61062093041517,20.799356973312364 L-51.2651556521547,20.791920328130033 L-50.919610736719996,20.792443388716126 L-50.57416955567864,20.800925877496198 L-50.229015425549086,20.817363293037303 L-49.88433151051949,20.841746912436804 L-49.54030072524721,20.87406379595138 L-49.19710563779091,20.914296793863798 L-48.854928372726484,20.962424555583834 L-48.51395051449832,21.018421540978444 L-48.17435301105725,21.082258033925267 L-47.83631607783627,21.153900158082152 L-47.50001910211494,21.233309894864483 L-47.16564054782327,21.320445103620585 L-46.83335786083568,21.4152595439947 L-46.50334737480509,21.517702900465515 L-46.17578421758735,21.627720809047254 L-45.850842218305495,21.745254886139254 L-45.528693815103225,21.870242759508553 L-45.209509963636506,22.002618101389235 L-44.893460046351954,22.14231066368079 L-44.580711782600005,22.28924631522694 L-44.27143113963069,22.443347081155096 L-43.96578224451923,22.604531184255546 L-43.66392729706808,22.772713088378477 L-43.366026483731794,22.94780354382575 L-43.0722378926103,23.12970963471335 L-42.78271742955576,23.31833482827941 L-42.49761873543735,23.51357902611159 L-42.21709310460819,23.715338617266646 L-41.9412894046174,23.923506533254066 L-41.670353997210015,24.137972304854454 L-41.40443066065668,24.358622120742645 L-41.14366051345428,24.58533888788436 L-40.888181939438134,24.818002293674425 L-40.638130514345306,25.056488869783436 " />
			<path d="M-40.638130514345626,25.056488869782946 L-8.6076176088606,2.628482280638938 " />
			<path d="M-5.4139440112576835,7.189520863240269 L-5.198502290420653,7.346807057252237 L-4.9784939688706515,7.497639481991555 L-4.754112311917938,7.641885639400154 L-4.5255544266093874,7.77941881709657 L-4.293021088580689,7.910118199685862 L-4.056716565685912,8.033868974889343 L-3.8168484385593295,8.150562434400905 L-3.573627418267164,8.260096069381348 L-3.327267161209396,8.362373660506782 L-3.077984081434279,8.457305362492075 L-2.8259971605304046,8.544807783015024 L-2.5715277552633093,8.624804055971966 L-2.314799403125642,8.697223909000458 L-2.0560376259716606,8.76200372520971 L-1.795469731908593,8.81908659906456 L-1.5333246156188536,8.868422386373876 L-1.2698325572885563,8.909967748339499 L-1.0052250203189312,8.943686189627005 L-0.7397344479983459,8.96954809042488 L-0.47359405931356147,8.98753073246389 L-0.20703764407957337,8.997618318973862 L0.0597006424319968,8.999801988560261 L0.3263864851855258,8.994079822988468 L0.5927856152143725,8.980456848868823 L0.8586640154133871,8.958945033241033 L1.12378812611017,8.929563273061781 L1.3879250502345073,8.89233737860477 L1.650842757905747,8.847300050787819 L1.9123102902583873,8.794490852446883 L2.172097962326842,8.733956173582257 L2.4299775648111632,8.665749190607494 L2.6857225645464546,8.589929819636831 L2.9391083034999035,8.506564663852142 L3.1899121961206136,8.415726954995687 L3.437913924868864,8.317496489040005 L3.682895633753051,8.211959556091514 L3.924642119704301,8.099208864589365 L4.162941021620623,7.979343459866122 L4.39758300691455,7.852468637141852 L4.628361955400408,7.718695849028003 L4.85507514035965,7.57814260762238 L5.077523406625224,7.430932381281167 L5.295511345528521,7.277194486158709 L5.508847466555235,7.117063972610334 L5.717344365559332,6.950681506557971 L5.920818889387376,6.778193245922813 L6.11909229676858,6.599750712233566 L6.31199041532926,6.415510657523032 " />
			<path d="M8.711990415329348,2.2585887193576393 L8.775360890992644,1.9982595509184482 L8.830954111723889,1.7361594041524424 L8.878720807452538,1.4725205680428881 L8.918618644447307,1.207576695252492 L8.950612262834856,0.941562595046308 L8.974673307937872,0.6747140251895738 L8.990780455404682,0.407267483004941 L8.998919430108188,0.1394599957742617 L8.999083018797336,-0.12847108932930418 L8.99127107648995,-0.3962883155927024 L8.975490526601211,-0.6637543272114561 L8.951755354807721,-0.9306320796487264 L8.92008659665254,-1.1966850497184907 L8.880512318902218,-1.461677445206691 L8.833067594672343,-1.725374413844531 L8.777794472343613,-1.9875422514487417 L8.714741938296026,-2.247948609044352 L8.643965873494196,-2.50636269878638 L8.565529003962254,-2.762555498497973 L8.479500845192277,-3.016299954643683 L8.385957640535432,-3.2673711835580326 L8.284982293630536,-3.515546670751009 L8.176664294929834,-3.760606468113834 L8.061099642387152,-4.002333388850279 L7.938390756378712,-4.240513199960715 L7.808646388932012,-4.474934812108337 L7.671981527343207,-4.705390466699296 L7.528517292268418,-4.931675920010904 L7.378380830379298,-5.153590624204772 L7.221705201677958,-5.3709379050644 L7.0586292615711645,-5.5835251362997695 L6.8892975378082895,-5.791163910264383 L6.713860102392087,-5.993670204933512 L6.532472438575815,-6.190864546995627 L6.345295303064589,-6.382572170912482 L6.152494583543076,-6.568623173806907 L5.954241151655808,-6.748852666040988 L5.750710711570405,-6.9231009173512295 L5.542083644257936,-7.091213498411164 L5.328544847628398,-7.25304141769595 L5.110283572663021,-7.408441253527663 L4.887493255688615,-7.557275281184238 L4.66037134694262,-7.699411594959466 L4.429119135580761,-7.834724225065766 L4.193941571282456,-7.963093249276243 L3.955047082612018,-8.084404899207003 L3.7126473922966747,-8.198551661145567 L3.4669573295850964,-8.305432371336014 L3.2181946398527437,-8.404952305636428 L2.9665797916227485,-8.497023263469128 L2.71233578117341,-8.581563645989373 L2.4556879349054017,-8.658498528403182 L2.196863709643918,-8.727759726370198 L1.9360924910526878,-8.789285856432786 L1.6736053903385466,-8.843022390417756 L1.4096350394267207,-8.888921703762524 L1.1444153847883634,-8.926943117722871 L0.8781814801030596,-8.957052935424912 L0.611169277940057,-8.979224471729296 L0.34361542064283945,-8.993438076881192 L0.07575703060239736,-8.999681153925083 L-0.19216849989496865,-8.997948169868959 L-0.4599237190590282,-8.988240660587973 L-0.727271326039741,-8.970567229463274 L-0.9939743812376105,-8.944943539757158 L-1.2597965162938674,-8.911392300731343 L-1.5245021435743804,-8.869943247520649 L-1.787856664961665,-8.820633114779923 L-2.0496266797698923,-8.763505604127577 L-2.3095801915986853,-8.698611345414566 L-2.5674868139423386,-8.626007851853155 L-2.823117974372258,-8.545759469045235 L-3.0762471171116585,-8.457937317955379 L-3.3266499038229753,-8.362619231879124 L-3.574104412430052,-8.25988968746242 L-3.8183913337988917,-8.149839729833314 L-4.059294166102656,-8.032566891912259 L-4.296599406698667,-7.908175107972551 L-4.530096741347346,-7.776774621527499 L-4.759579230605395,-7.6384818876259555 L-4.984843493228034,-7.493419469642825 L-5.205689886417745,-7.341715930655995 L-5.421922682759784,-7.183505719505968 L-5.633350243687633,-7.018929051639182 L-5.839785189324676,-6.848131784840605 L-6.04104456455157,-6.671265289965761 L-6.2369500011521195,-6.4884863167867275 L-6.427327875893964,-6.299956855071025 L-6.612009464403976,-6.1058439910164966 L-6.790831090701997,-5.906319759169422 L-6.963634272260371,-5.7015609899571205 L-7.130265860460739,-5.491749152970128 L-7.2905781763235975,-5.2770701961328985 L-7.444429141390328,-5.057714380905518 L-7.5916824036417125,-4.833876113662495 L-7.732207458341324,-4.605753773398099 L-7.865879763696716,-4.373549535910908 L-7.9925808512358785,-4.137469194623398 L-8.11219843080115,-3.8977219781953867 L-8.22462649006755,-3.654520365092956 L-8.329765388497291,-3.4080798952771927 L-8.427521945647253,-3.1586189791796606 L-8.517809523751119,-2.9063587041338823 L-8.600548104502991,-2.6515226384343835 L-8.675664359974459,-2.3943366331969704 L-8.743091717602226,-2.135028622195823 L-8.802770419188747,-1.8738284198548207 L-8.854647573863545,-1.6109675175721105 L-8.898677204958307,-1.3466788785584498 L-8.934820290754168,-1.0811967313711373 L-8.96304479906513,-0.8147563623265035 L-8.983325715626918,-0.5475939069749955 L-8.995645066266121,-0.27994614082354286 L-8.999991932830007,-0.012050269490837984 L-8.996362462862836,0.2558562815186338 L-8.984759873020145,0.5235360772354118 L-8.965194446217955,0.7907518836542717 L-8.937683522519421,1.057266877985335 L-8.902251483767035,1.3228448585407335 L-8.85892973197395,1.5872504540708046 L-8.80775666149363,1.8502493323643248 L-8.748777624992442,2.1116084079278585 L-8.682044893255402,2.371096048560213 L-8.607617608860622,2.628482280638877 " />
			<path d="M-5.413944011257808,7.189520863239924 L-37.44445691674325,29.61752745238422 " />
			<path d="M-62.27025625103654,45.8192408065316 L-62.03630150012371,46.07353735920282 L-61.79655114918926,46.32237733067434 L-61.55113242741733,46.5656286681403 L-61.30017557204689,46.803162284535375 L-61.043813759258235,47.03485212703794 L-60.782183033499955,47.26057524396294 L-60.515422235293684,47.48021185000915 L-60.243672927555124,47.69364538982601 L-59.967079320470326,47.900762599866525 L-59.68578819496719,48.10145356849323 L-59.399948824822644,48.29561179430535 L-59.109712897447025,48.48313424265638 L-58.81523443338758,48.66392140033173 L-58.516669704593795,48.83787732835787 L-58.21417715148801,49.004909712914554 L-57.90791729888529,49.164929914323324 L-57.59805267080711,49.317853014086296 L-57.28474770423416,49.4635978599501 L-56.96816866184397,49.602087108971304 L-56.64848354377972,49.733247268560234 L-56.32586199849697,49.857008735481536 L-56.0004752327357,49.97330583279084 L-55.672495920665455,50.08207684468771 L-55.34209811225165,50.18326404926665 L-55.00945714089191,50.276813749148545 L-54.67474953037122,50.36267629997647 L-54.33815290118545,50.44080613676065 L-53.99984587628281,50.51116179805857 L-53.660007986273385,50.5737059479775 L-53.31881957415695,50.62840539598763 L-52.976461699619755,50.675231114535435 L-52.633116042950874,50.71415825444784 L-52.288964808629295,50.74516615811898 L-51.94419062863281,50.76823837047269 L-51.59897646552003,50.78336264769476 L-51.25350551533702,50.790530963730404 L-50.907961110399924,50.78973951454347 L-50.56252662200542,50.780988720135156 L-50.21738536312038,50.764283224321126 L-49.87272049110249,50.73963189226714 L-49.52871491050351,50.707047805784555 L-49.18555117600665,50.66654825638818 L-48.84341139554959,50.61815473612006 L-48.50247713368464,50.56189292614431 L-48.16292931522721,50.49779268311868 L-47.82494812924377,50.425888023350545 L-47.488712933430286,50.34621710474525 L-47.154402158931816,50.258822206556744 L-46.82219321565382,50.16374970695113 L-46.49226239811538,50.06105005839495 L-46.16478479189439,49.95077776088141 L-45.83993418071422,49.832991333008685 L-45.51788295422132,49.707753280925616 L-45.19880201650254,49.575130065161375 L-44.882860695390875,49.4351920653566 L-44.57022665260765,49.28801354291477 L-44.26106579478885,49.13367260159366 L-43.95554218544286,48.972251146057715 L-43.65381795788629,48.80383483841342 L-43.3560532292041,48.6285130527507 L-43.06240601527969,48.44637882771438 L-42.773032146940054,48.25752881713112 L-42.48808518726044,48.06206323871771 L-42.2077163500725,47.86008582089822 L-41.93207441971911,47.65170374775804 L-41.66130567209842,47.43702760216411 L-41.39555379703912,47.21617130708151 L-41.134959822048025,46.98925206511758 L-40.879662037470496,46.75639029632556 L-40.629795923103416,46.51770957430084 L-40.38549407629962,46.27333656060374 L-40.146886141602025,46.02340093754354 L-39.91409874194461,45.768035339359514 L-39.687255411457045,45.50737528183544 L-39.46647652990835,45.24155909038494 L-39.25187925882453,44.97072782664583 L-39.04357747931405,44.69502521362246 L-38.84168173163417,44.41459755941567 L-38.64629915653005,44.12959367958097 L-38.457533438378114,43.84016481815605 L-38.275484750163386,43.54646456739953 L-38.100249700320376,43.24864878628365 L-37.93192128146552,42.94687551778399 L-37.77058882104848,42.64130490501024 L-37.61633793394835,42.332099106222486 L-37.46925047704021,42.01942220877811 L-37.32940450575575,41.70344014205493 L-37.19687423266133,41.3843205893969 L-37.07172998807539,41.06223289912893 L-36.954038182745904,40.73734799468824 L-36.843861272608066,40.40983828391981 L-36.74125772564046,40.07987756758405 L-36.64628199083772,39.74764094712533 L-36.558984469315874,39.41330473175032 L-36.47941148756578,39.07704634486526 L-36.40760527286889,38.7390442299221 L-36.343603930888364,38.399477755723254 L-36.28744142544736,38.05852712123531 L-36.23914756050539,37.716373259962175 L-36.19874796434206,37.37319774392849 L-36.16626407595692,37.0291826873241 L-36.14171313369225,36.68451064986086 L-36.12510816608523,36.33936453989304 L-36.11645798495394,35.993927517352695 L-36.115767180721235,35.64838289655148 L-36.12303611997868,35.30291404890062 L-36.138260945292046,34.957704305600515 L-36.16143357724833,34.612936860351745 L-36.19254171874329,34.268794672138974 L-36.231568861507185,33.92546036813946 L-36.27849429486528,33.583116146807626 L-36.333293116728484,33.24194368118716 L-36.39593624680818,32.9021240225019 L-36.46639044204842,32.56383750407677 L-36.5446183142671,32.22726364563961 L-36.63057834999688,31.892581058054773 L-36.72422493251532,31.559967348539125 L-36.825508366052446,31.22959902641051 L-36.93437490216297,30.901651409418953 L-37.05076676824922,30.57629853071015 L-37.174622198219474,30.253713046470658 L-37.305875465265636,29.93406614430382 L-37.444456916742695,29.617527452385037 " />
			<path d="M-78.29445038993258,55.554829116273815 L-62.270256251036585,45.81924080653145 " />
			<path d="M-78.98274211355384,54.571846663127026 L-79.0275839267042,54.62266196615206 L-79.06651208077601,54.6781379253479 L-79.09904606956461,54.73758977815031 L-79.12478431267536,54.80028368590624 L-79.14340911239546,54.865445791945895 L-79.15469057516742,54.93227177361367 L-79.15848944925972,54.99993677035326 L-79.15475884360815,55.06760556530048 L-79.14354480661149,55.134442894708336 L-79.12498575773722,55.1996237579507 L-79.09931077895311,55.2623436008441 L-79.06683678707437,55.321828246590684 L-79.02796462192913,55.3773434517606 L-78.98317409862773,55.42820396936044 L-78.93301808500757,55.473782007118466 L-78.87811567735824,55.51351497658267 L-78.81914455866149,55.54691243738123 L-78.75683263367175,55.5735621509296 L-78.69194904408853,55.593135168860776 L-78.62529467472436,55.60538989337018 L-78.55769226785435,55.61017505935667 L-78.48997626777017,55.60743160154984 L-78.42298252089127,55.597193383576915 L-78.35753795856887,55.57958677997011 L-78.29445038993258,55.554829116273815 " />
			<path d="M-64.35368444381585,42.84379698582347 L-78.98274211355384,54.57184666312703 " />
			<path d="M-45.705114615970025,43.51741171003904 L-45.932118882469254,43.671490665552085 L-46.16350845791752,43.81890208273105 L-46.39908756363309,43.95952123680009 L-46.63865687617335,44.09322914991608 L-46.88201369598233,44.219912691835695 L-47.128952118894816,44.33946467563495 L-47.379263210351766,44.45178394840001 L-47.63273518217985,44.55677547681266 L-47.889153571785386,44.65435042755796 L-48.148301423611066,44.74442624248613 L-48.409959472702084,44.82692670846497 L-48.67390633022611,44.90178202186377 L-48.93991867079039,44.96892884761417 L-49.207771421397304,45.028310372797954 L-49.4772379518786,45.07987635471642 L-49.74809026664714,45.123583163400745 L-50.02009919760392,45.15939381852728 L-50.293034598037174,45.187278020706614 L-50.56666553734948,45.20721217711988 L-50.84076049644806,45.21917942148059 L-51.11508756363309,45.22316962830528 L-51.389414630818116,45.21917942148059 L-51.66350958991669,45.20721217711988 L-51.937140529229,45.18727802070662 L-52.21007592966226,45.159393818527285 L-52.48208486061904,45.12358316340075 L-52.75293717538757,45.079876354716426 L-53.02240370586887,45.02831037279796 L-53.29025645647578,44.96892884761418 L-53.55626879704006,44.901782021863774 L-53.82021565456409,44.82692670846497 L-54.081873703655106,44.74442624248614 L-54.34102155548079,44.65435042755797 L-54.59743994508632,44.556775476812675 L-54.85091191691441,44.45178394840003 L-55.10122300837136,44.339464675634964 L-55.34816143128384,44.21991269183571 L-55.59151825109283,44.0932291499161 L-55.83108756363308,43.959521236800114 L-56.06666666934865,43.81890208273107 L-56.298056244796925,43.671490665552106 L-56.52506051129615,43.51741171003906 L-56.74748740057376,43.356795582370864 L-56.965148717275305,43.18977817982673 L-57.17786029819652,43.0165008158035 L-57.38544216810374,42.83711010025037 L-57.587718692010974,42.65175781562229 L-57.78451872378459,42.460600788456816 L-57.975675750950074,42.263800756683196 L-58.161028035578155,42.061524232775966 L-58.34041875113128,41.85394236286874 L-58.51369611515452,41.641230781947534 L-58.68071351769865,41.42356946524598 L-58.84132964536685,41.201142575968376 L-58.9954086008799,40.974138309469154 L-59.142820018058856,40.742748734020886 L-59.283439172127906,40.50716962830531 L-59.41714708524388,40.26760031576506 L-59.5438306271635,40.02424349595608 L-59.66338261096276,39.77730507304359 L-59.77570188372783,39.52699398158665 L-59.880693412140474,39.27352200975856 L-59.97826836288577,39.01710362015303 L-60.06834417781394,38.75795576832734 L-60.15084464379277,38.49629771923633 L-60.22569995719158,38.232350861712305 L-60.292846782941986,37.966338521148025 L-60.35222830812577,37.69848577054111 L-60.40379429004423,37.429019240059816 L-60.44750109872856,37.15816692529128 L-60.4833117538551,36.8861579943345 L-60.51119595603444,36.61322259390124 L-60.5311301124477,36.339591654588936 L-60.54309735680841,36.06549669549035 L-60.5470875636331,35.791169628305326 L-60.54309735680842,35.5168425611203 L-60.5311301124477,35.242747602021716 L-60.51119595603444,34.96911666270941 L-60.483311753855105,34.696181262276156 L-60.44750109872857,34.42417233131937 L-60.403794290044246,34.153320016550836 L-60.35222830812579,33.88385348606954 L-60.29284678294201,33.61600073546262 L-60.225699957191594,33.34998839489834 L-60.150844643792794,33.086041537374314 L-60.06834417781396,32.824383488283296 L-59.9782683628858,32.56523563645761 L-59.8806934121405,32.30881724685207 L-59.775701883727855,32.05534527502399 L-59.66338261096279,31.805034183567034 L-59.54383062716353,31.558095760654552 L-59.41714708524392,31.314738940845565 L-59.283439172127935,31.07516962830531 L-59.14282001805889,30.839590522589738 L-58.99540860087993,30.608200947141462 L-58.84132964536688,30.38119668064224 L-58.680713517698685,30.158769791364627 L-58.513696115154545,29.941108474663075 L-58.34041875113131,29.728396893741863 L-58.161028035578184,29.52081502383464 L-57.9756757509501,29.318538499927406 L-57.78451872378463,29.121738468153783 L-57.587718692011,28.930581440988302 L-57.38544216810377,28.745229156360224 L-57.17786029819655,28.565838440807095 L-56.96514871727534,28.392561076783856 L-56.74748740057379,28.22554367423972 L-56.525060511296175,28.064927546571525 L-56.29805624479695,27.910848591058475 L-56.06666666934868,27.76343717387951 L-55.831087563633105,27.622818019810467 L-55.59151825109285,27.489110106694483 L-55.34816143128386,27.362426564774864 L-55.10122300837138,27.24287458097561 L-54.85091191691443,27.130555308210546 L-54.59743994508634,27.0255637797979 L-54.34102155548081,26.9279888290526 L-54.08187370365512,26.83791301412443 L-53.8202156545641,26.7554125481456 L-53.556268797040076,26.680557234746797 L-53.290256456475795,26.61341040899639 L-53.022403705868875,26.554028883812606 L-52.752937175387586,26.50246290189414 L-52.48208486061905,26.45875609320982 L-52.21007592966227,26.422945438083282 L-51.937140529229005,26.395061235903945 L-51.6635095899167,26.37512707949069 L-51.389414630818116,26.363159835129974 L-51.11508756363309,26.359169628305292 L-50.84076049644806,26.363159835129977 L-50.56666553734948,26.37512707949069 L-50.293034598037174,26.39506123590395 L-50.02009919760391,26.422945438083286 L-49.74809026664713,26.458756093209825 L-49.4772379518786,26.502462901894148 L-49.207771421397304,26.554028883812613 L-48.93991867079039,26.613410408996398 L-48.67390633022611,26.680557234746804 L-48.409959472702084,26.755412548145607 L-48.14830142361107,26.83791301412444 L-47.889153571785386,26.927988829052605 L-47.63273518217986,27.025563779797903 L-47.37926321035177,27.13055530821055 L-47.12895211889482,27.24287458097561 L-46.882013695982344,27.362426564774864 L-46.638656876173364,27.489110106694483 L-46.39908756363311,27.62281801981046 L-46.163508457917544,27.763437173879502 L-45.932118882469275,27.910848591058468 L-45.705114615970054,28.06492754657151 L-45.48268772669244,28.225543674239706 L-45.265026409990895,28.39256107678384 L-45.05231482906969,28.565838440807074 L-44.84473295916247,28.745229156360196 L-44.642456435255234,28.930581440988274 L-44.445656403481614,29.12173846815375 L-44.25449937631613,29.318538499927367 L-44.06914709168806,29.520815023834597 L-43.88975637613493,29.728396893741817 L-43.7164790121117,29.941108474663025 L-43.549461609567565,30.15876979136457 L-43.38884548189937,30.381196680642176 L-43.23476652638632,30.6082009471414 L-43.08735510920736,30.839590522589667 L-42.946735955138315,31.075169628305233 L-42.81302804202233,31.314738940845487 L-42.68634450010271,31.558095760654467 L-42.56679251630346,31.805034183566946 L-42.454473243538395,32.055345275023896 L-42.34948171512575,32.30881724685197 L-42.25190676438045,32.5652356364575 L-42.16183094945228,32.82438348828319 L-42.07933048347344,33.0860415373742 L-42.00447517007464,33.349988394898226 L-41.937328344324236,33.6160007354625 L-41.87794681914045,33.88385348606941 L-41.82638083722198,34.1533200165507 L-41.782674028537656,34.424172331319234 L-41.74686337341112,34.69618126227601 L-41.71897917123178,34.96911666270927 L-41.699045014818516,35.242747602021566 L-41.6870777704578,35.51684256112014 L-41.68308756363311,35.79116962830517 L-41.68707777045779,36.06549669549019 L-41.6990450148185,36.339591654588766 L-41.71897917123175,36.61322259390107 L-41.74686337341109,36.886157994334326 L-41.78267402853762,37.158166925291106 L-41.82638083722194,37.42901924005964 L-41.8779468191404,37.69848577054093 L-41.93732834432418,37.96633852114784 L-42.004475170074585,38.23235086171212 L-42.07933048347338,38.49629771923614 L-42.16183094945221,38.75795576832716 L-42.251906764380365,39.017103620152845 L-42.34948171512566,39.27352200975837 L-42.4544732435383,39.52699398158646 L-42.56679251630336,39.77730507304341 L-42.68634450010261,40.02424349595589 L-42.813028042022225,40.267600315764874 L-42.946735955138195,40.50716962830513 L-43.08735510920724,40.7427487340207 L-43.234766526386196,40.97413830946897 L-43.38884548189923,41.2011425759682 L-43.54946160956742,41.42356946524581 L-43.716479012111556,41.64123078194736 L-43.889756376134784,41.85394236286857 L-44.06914709168791,42.061524232775795 L-44.25449937631598,42.26380075668303 L-44.44565640348145,42.46060078845665 L-44.64245643525506,42.65175781562213 L-44.84473295916229,42.837110100250214 L-45.05231482906951,43.01650081580334 L-45.26502640999071,43.18977817982658 L-45.482687726692255,43.35679558237072 L-45.70511461596986,43.51741171003892 " />
			<path d="M-1.7999999999999998,132.0 L-1.7999999999999998,124.44971909225735 " />
			<path d="M1.7999999999999998,132.0 L1.7999999999999998,124.44971909225728 " />
			<path d="M0.5999999999999999,150.0 L1.7999999999999998,132.0 " />
			<path d="M-0.5999999999999999,149.99999999999997 L-0.5840947480321812,150.06587872333293 L-0.5609797745342504,150.12958650329995 L-0.5309403971240381,150.1903369685899 L-0.49434740418270207,150.24738025124202 L-0.4516524780613491,150.30001224257458 L-0.4033826197801407,150.34758328428745 L-0.35013364403810937,150.38950618746176 L-0.29256282482745793,150.42526348047383 L-0.23138078243054233,150.45441379636029 L-0.16734271194167094,150.47659732079168 L-0.10123906158368094,150.4915402334089 L-0.03388577588065954,150.49905808770015 L0.0338857758806588,150.49905808770015 L0.10123906158368019,150.4915402334089 L0.16734271194167025,150.47659732079168 L0.2313807824305416,150.45441379636029 L0.29256282482745727,150.42526348047383 L0.35013364403810887,150.38950618746176 L0.40338261978014034,150.34758328428745 L0.451652478061349,150.30001224257458 L0.49434740418270184,150.24738025124202 L0.5309403971240381,150.1903369685899 L0.5609797745342504,150.12958650329995 L0.5840947480321812,150.06587872333293 L0.5999999999999999,149.99999999999997 " />
			<path d="M-1.7999999999999998,132.0 L-0.6000000000000001,150.0 " />
			<path d="M-1.800000000000059,124.44971909225737 L-1.9774503573330002,124.37375011680864 L-2.1517028140002403,124.29070798356442 L-2.322475571753287,124.20072698691658 L-2.4894924596563297,124.10395264267441 L-2.652483380705401,124.00054145273882 L-2.8111847486248767,123.89066065201 L-2.96533991413492,123.77448793793785 L-3.1146995800005457,123.65221118315253 L-3.259022204191062,123.52402813163994 L-3.3980743904979316,123.39014607895325 L-3.531631265979333,123.25078153697802 L-3.6594768446210395,123.1061598837926 L-3.781404376625501,122.95651499919035 L-3.8972166827642636,122.80208888645309 L-4.006726473253022,122.64313128098726 L-4.109756650633626,122.47989924645593 L-4.206140596173214,122.31265675905951 L-4.295722439317332,122.14167428063783 L-4.378357309761266,121.96722832128356 L-4.453911571731947,121.78960099217458 L-4.522263040101565,121.60907954934844 L-4.583301177983371,121.42595592915639 L-4.636927275490138,121.2405262761488 L-4.683054609366197,121.05309046415492 L-4.7216085832348735,120.86395161133177 L-4.752526848234541,120.67341558996645 L-4.775759403848193,120.4817905318243 L-4.791268678763463,120.28938632984337 L-4.799029591632347,120.09651413698043 L-4.799029591632345,119.90348586301954 L-4.791268678763461,119.71061367015659 L-4.775759403848189,119.51820946817566 L-4.7525268482345355,119.32658441003352 L-4.721608583234866,119.13604838866819 L-4.683054609366189,118.94690953584505 L-4.6369272754901285,118.75947372385117 L-4.58330117798336,118.57404407084358 L-4.522263040101553,118.39092045065154 L-4.4539115717319335,118.21039900782539 L-4.37835730976125,118.03277167871641 L-4.2957224393173155,117.85832571936214 L-4.206140596173197,117.68734324094046 L-4.1097566506336065,117.52010075354404 L-4.006726473253002,117.3568687190127 L-3.897216682764242,117.19791111354688 L-3.7814043766254786,117.04348500080962 L-3.6594768446210155,116.89384011620737 L-3.531631265979308,116.74921846302195 L-3.3980743904979054,116.60985392104672 L-3.2590222041910346,116.47597186836005 L-3.1146995800005173,116.34778881684744 L-2.9653399141348906,116.22551206206212 L-2.811184748624846,116.10933934798997 L-2.6524833807053705,115.99945854726116 L-2.4894924596562977,115.89604735732557 L-2.3224755717532544,115.79927301308341 L-2.151702814000207,115.70929201643557 L-1.9774503573329663,115.62624988319135 L-1.8000000000000236,115.55028090774262 " />
			<path d="M-1.7999999999999998,115.55028090774265 L-1.7999999999999998,112.44971909225742 " />
			<path d="M1.8000000000001364,112.44971909225734 L1.9788938681260686,112.37309719291638 L2.1545347635597136,112.2892866484548 L2.3266339618547054,112.1984252294812 L2.4949085605262584,112.10066229707017 L2.659081944095847,111.99615855723762 L2.8188842388010857,111.88508579676676 L2.974052756223351,111.76762660081918 L3.124332425103893,111.64397405279517 L3.269476210638597,111.5143314169367 L3.409245520562156,111.37891180419479 L3.5434105973541072,111.23793782191052 L3.6717508959220155,111.09164120788553 L3.7940554461409617,110.94026244944361 L3.9101231996533694,110.78405038810948 L4.019763360359098,110.62326181055467 L4.122795698052527,110.45816102648293 L4.219050844691066,110.28901943414895 L4.308370572808071,110.11611507422481 L4.390608055612514,109.93973217274718 L4.465628108347821,109.76016067389709 L4.533307410513155,109.57769576337978 L4.593534708581824,109.39263738318849 L4.646210998883596,109.20528973854965 L4.691249690350276,109.01596079786006 L4.728576746857038,108.82496178643797 L4.758130808925511,108.63260667492041 L4.779863294588567,108.43921166314766 L4.793738479250996,108.2450946603832 L4.799733554414812,108.05057476272371 L4.7978386651726295,107.85597172855816 L4.788056926407495,107.66160545293812 L4.770404417672536,107.46779544172344 L4.744910156758847,107.2748602863677 L4.7116160519950645,107.08311714020687 L4.670576833357039,106.89288119711183 L4.621859962500846,106.70446517336211 L4.565545521867035,106.5181787935922 L4.501726083038404,106.3343282816558 L4.430506554567702,106.15321585724465 L4.352004009525397,105.97513923908954 L4.266347493051005,105.80039115556029 L4.17367781022432,105.62925886346882 L4.074147294605263,105.46202367586682 L3.967919557822823,105.29896049961368 L3.8551692206247217,105.1403373834755 L3.7360816258299248,104.98641507749723 L3.610852533655844,104.83744660437311 L3.479687799921066,104.6936768435193 L3.3428030376525983,104.55534212853286 L3.2004232626538753,104.42266985869854 L3.052782523616171,104.29587812518221 L2.9001235173814406,104.17517535252514 L2.7426971899890407,104.0607599560288 L2.5807623241621394,103.95282001559293 L2.414585113911921,103.85153296654354 L2.244438726958863,103.75706530795874 L2.0706028556903977,103.6695723289718 L1.8933632573930994,103.58919785350173 L1.7130112845151926,103.51607400383061 L1.5298434057315367,103.45032098341655 L1.34416071859839,103.39204687929912 L1.1562684545990591,103.34134748442223 L0.9664754773940601,103.29830614016652 L0.7750937751005831,103.26299359934987 L0.5824379474358695,103.23546790992161 L0.38882468856755414,103.21577431954131 L0.19457226652107654,103.20394520119913 L-6.647607294808276e-14,103.2 L-0.19457226652120935,103.20394520119913 L-0.3888246885676866,103.21577431954132 L-0.5824379474360016,103.23546790992164 L-0.7750937751007143,103.26299359934988 L-0.9664754773941947,103.29830614016655 L-1.1562684545991966,103.34134748442226 L-1.3441607185985298,103.39204687929916 L-1.5298434057316788,103.4503209834166 L-1.713011284515337,103.51607400383067 L-1.893363257393245,103.58919785350179 L-2.0706028556905443,103.66957232897187 L-2.2444387269590105,103.75706530795881 L-2.414585113912069,103.85153296654363 L-2.5807623241622872,103.95282001559302 L-2.7426971899891885,104.0607599560289 L-2.9001235173815876,104.17517535252526 L-3.0527825236163166,104.29587812518233 L-3.200423262654019,104.42266985869867 L-3.34280303765274,104.555342128533 L-3.4796877999212055,104.69367684351946 L-3.61085253365598,104.83744660437327 L-3.736081625830057,104.9864150774974 L-3.8551692206248496,105.14033738347567 L-3.967919557822946,105.29896049961387 L-4.074147294605381,105.462023675867 L-4.173677810224432,105.62925886346902 L-4.266347493051112,105.80039115556049 L-4.352004009525498,105.97513923908976 L-4.430506554567795,106.15321585724487 L-4.501726083038489,106.33432828165603 L-4.5655455218671115,106.51817879359244 L-4.621859962500914,106.70446517336235 L-4.6705768333570985,106.89288119711208 L-4.711616051995114,107.08311714020712 L-4.744910156758887,107.27486028636795 L-4.770404417672565,107.4677954417237 L-4.7880569264075135,107.66160545293839 L-4.7978386651726375,107.85597172855844 L-4.799733554414808,108.050574762724 L-4.7937384792509805,108.24509466038349 L-4.77986329458854,108.43921166314796 L-4.758130808925473,108.63260667492071 L-4.728576746856986,108.82496178643825 L-4.691249690350212,109.01596079786036 L-4.646210998883519,109.20528973854995 L-4.593534708581734,109.39263738318878 L-4.533307410513051,109.57769576338008 L-4.465628108347704,109.76016067389739 L-4.3906080556123825,109.93973217274748 L-4.3083705728079265,110.1161150742251 L-4.219050844690906,110.28901943414925 L-4.122795698052354,110.45816102648321 L-4.019763360358911,110.62326181055495 L-3.9101231996531687,110.78405038810975 L-3.7940554461407467,110.94026244944388 L-3.6717508959217864,111.0916412078858 L-3.5434105973538648,111.23793782191078 L-3.4092455205619,111.37891180419504 L-3.2694762106383277,111.51433141693694 L-3.12433242510361,111.64397405279541 L-2.974052756223055,111.76762660081941 L-2.818884238800777,111.88508579676699 L-2.6590819440955267,111.99615855723783 L-2.4949085605259267,112.10066229707037 L-2.326633961854362,112.19842522948139 L-2.1545347635593592,112.28928664845499 L-1.9788938681257027,112.37309719291653 L-1.7999999999997605,112.4497190922575 " />
			<path d="M1.7999999999999998,115.55028090774272 L1.7999999999999998,112.4497190922573 " />
			<path d="M1.8000000000001606,124.44971909225734 L1.977450357333097,124.3737501168086 L2.151702814000332,124.29070798356437 L2.3224755717533725,124.20072698691654 L2.489492459656409,124.10395264267436 L2.6524833807054757,124.00054145273877 L2.8111847486249455,123.89066065200996 L2.965339914134983,123.77448793793779 L3.114699580000603,123.65221118315249 L3.259022204191115,123.52402813163988 L3.3980743904979795,123.39014607895321 L3.531631265979376,123.25078153697798 L3.659476844621078,123.10615988379256 L3.781404376625535,122.9565149991903 L3.897216682764293,122.80208888645305 L4.006726473253048,122.64313128098723 L4.109756650633648,122.47989924645589 L4.206140596173232,122.31265675905948 L4.295722439317347,122.1416742806378 L4.378357309761277,121.96722832128353 L4.453911571731957,121.78960099217456 L4.522263040101572,121.60907954934841 L4.583301177983376,121.42595592915637 L4.636927275490142,121.24052627614878 L4.683054609366199,121.0530904641549 L4.7216085832348735,120.86395161133177 L4.752526848234541,120.67341558996645 L4.775759403848192,120.48179053182432 L4.791268678763463,120.28938632984338 L4.799029591632346,120.09651413698043 L4.799029591632346,119.90348586301955 L4.791268678763462,119.71061367015662 L4.775759403848192,119.51820946817568 L4.75252684823454,119.32658441003355 L4.721608583234873,119.13604838866821 L4.683054609366197,118.94690953584508 L4.63692727549014,118.75947372385122 L4.583301177983373,118.57404407084363 L4.52226304010157,118.39092045065158 L4.453911571731954,118.21039900782543 L4.378357309761275,118.03277167871647 L4.295722439317345,117.8583257193622 L4.206140596173229,117.68734324094052 L4.109756650633645,117.5201007535441 L4.006726473253044,117.35686871901277 L3.89721668276429,117.19791111354695 L3.781404376625531,117.0434850008097 L3.6594768446210737,116.89384011620744 L3.531631265979372,116.74921846302202 L3.3980743904979747,116.60985392104679 L3.25902220419111,116.47597186836012 L3.114699580000599,116.34778881684751 L2.965339914134978,116.2255120620622 L2.81118474862494,116.10933934799004 L2.65248338070547,115.99945854726123 L2.489492459656403,115.89604735732563 L2.3224755717533663,115.79927301308346 L2.1517028140003256,115.70929201643563 L1.977450357333091,115.6262498831914 L1.8000000000001546,115.55028090774266 " />
			<path d="M1.1999999999999997,108.0 L1.1960070989930318,108.09781114025647 L1.184054968069547,108.19497136351224 L1.1642231466888777,108.29083408451186 L1.1366436123502925,108.38476135266328 L1.101499902304512,108.47612809749388 L1.0590258921435862,108.56432628839129 L1.0095042393974185,108.64876898094671 L0.9532645024945364,108.7288942229733 L0.8906809476051255,108.80416879420507 L0.822170057961415,108.87409175478992 L0.7481877622304823,108.93819777896164 L0.6692264003841975,108.9960602517061 L0.58581144725794,109.04729410781383 L0.49849801560226625,109.09155839442542 L0.4078671618991426,109.12855854001657 L0.3145220195269252,109.15804831472296 L0.21908378500723666,109.1798314689594 L0.12218758404460511,109.1937630394284 L0.024478244869689077,109.19975031382705 L-0.07339399298620862,109.19775344783204 L-0.17077780592793954,109.18778573025712 L-0.26702512074757473,109.16991349461819 L-0.3614954274446786,109.14425567769472 L-0.4535600417146854,109.11098302802507 L-0.5426062887392205,109.07031696960323 L-0.6280415804359322,109.02252812833855 L-0.7092973590344095,108.96793453108504 L-0.7858328807343399,108.90689948922511 L-0.8571388142662822,108.83982918089228 L-0.9227406304072324,108.76716994792267 L-0.9822017598943102,108.68940532552375 L-1.035126498721175,108.60705282442736 L-1.0811626414829012,108.52066048694107 L-1.1200038252448383,108.43080323981712 L-1.1513915683373952,108.33807906820972 L-1.1751169905089036,108.2431050361825 L-1.1910222029892317,108.14651318024899 L-1.199001359213498,108.04894630327391 L-1.1990013592134978,107.95105369672609 L-1.1910222029892317,107.85348681975101 L-1.1751169905089038,107.7568949638175 L-1.1513915683373952,107.66192093179029 L-1.1200038252448383,107.56919676018288 L-1.0811626414829012,107.47933951305893 L-1.0351264987211752,107.39294717557264 L-0.9822017598943104,107.31059467447625 L-0.9227406304072325,107.23283005207733 L-0.8571388142662824,107.16017081910772 L-0.78583288073434,107.09310051077489 L-0.7092973590344102,107.03206546891496 L-0.6280415804359327,106.97747187166145 L-0.5426062887392211,106.92968303039677 L-0.4535600417146861,106.88901697197493 L-0.36149542744467933,106.85574432230528 L-0.2670251207475754,106.83008650538181 L-0.17077780592794026,106.81221426974288 L-0.07339399298620933,106.80224655216796 L0.024478244869688373,106.80024968617295 L0.12218758404460442,106.8062369605716 L0.219083785007236,106.8201685310406 L0.31452201952692455,106.84195168527704 L0.407867161899142,106.87144145998343 L0.49849801560226564,106.90844160557458 L0.5858114472579394,106.95270589218617 L0.6692264003841972,107.0039397482939 L0.7481877622304819,107.06180222103836 L0.8221700579614146,107.12590824521008 L0.8906809476051255,107.19583120579493 L0.9532645024945365,107.2711057770267 L1.0095042393974185,107.35123101905329 L1.0590258921435867,107.43567371160871 L1.101499902304512,107.52387190250612 L1.1366436123502928,107.61523864733672 L1.1642231466888777,107.70916591548814 L1.1840549680695467,107.80502863648776 L1.1960070989930318,107.90218885974353 L1.1999999999999997,108.0 " />

       </g>
    </g>
    
</svg>
