<?xml version="1.0" encoding="UTF-8" standalone="no"?>
<svg
   xmlns:svg="http://www.w3.org/2000/svg"
   xmlns="http://www.w3.org/2000/svg"
   width="620.0"
   height="446.6596610414904"

>
    <g transform="scale(3.174551049415851, -3.174551049415851)   translate(85.23010659191586,-123.15005172206637)" stroke-width="0.5"  fill="none">
       <!-- hidden lines -->
       <g  stroke="rgb(160,160,160)" fill="none" stroke-dasharray="0.5,0.5" >

       </g>

       <!-- solid lines -->
       <g  stroke="rgb(0,0,0)" fill="none">
			<path d="M14.336666176614724,1.3490748460746262 L14.364358110937177,1.0125295357436768 L14.384150923666557,0.6754274240675047 L14.396033730513214,0.3379538872772567 L14.399999996988413,0.00029450585490931047 L14.39604754199775,-0.3373650375195094 L14.38417853904054,-0.6748390600769154 L14.3643995150146,-1.0119419810681993 L14.336721346627026,-1.3484884238171668 L14.301159254412966,-1.684293317661246 L14.257732794365689,-2.019171999723926 L14.206465847182514,-2.3529403164629343 L14.147386605132562,-2.685414724938348 L14.080527556553486,-3.016412393744905 L14.005925467985794,-3.345751303553044 L13.923621363954503,-3.673250347203375 L13.833660504409298,-3.998729429299541 L13.736092359835576,-4.3220095652446915 L13.630970584050077,-4.642912979667126 L13.51835298469603,-4.9612632041809555 L13.39830149145411,-5.2768851744280525 L13.270882121986585,-5.589605326347901 L13.136164945633483,-5.899251691622423 L12.99422404488067,-6.205653992243281 L12.845137474621056,-6.508643734149668 L12.688987219231336,-6.808054299885081 L12.525859147487868,-7.103721040222123 L12.355842965346458,-7.395481364704965 L12.179032166612064,-7.683174831059659 L11.99552398152549,-7.966643233423144 L11.805419323295403,-8.245730689342423 L11.608822732605006,-8.520283725496073 L11.405842320123963,-8.79015136209094 L11.196589707057118,-9.055185195887633 L10.981179963762758,-9.315239481809115 L10.759731546474109,-9.570171213087562 L10.532366232158944,-9.81984019990539 L10.299209051553062,-10.064109146487207 L10.06038822040447,-10.30284372660029 L9.816035068966121,-10.5359126574221 L9.566283969775931,-10.763187771734174 L9.311272263763804,-10.984544088402707 L9.051140184726332,-11.199859881107091 L8.786030782210647,-11.409016745278576 L8.516089842849862,-11.611899663212276 L8.241465810193391,-11.808397067316687 L7.962309703076158,-11.998400901465962 L7.678775032571647,-12.181806680421188 L7.391017717574449,-12.35851354728798 L7.099195999058713,-12.528424328978833 L6.803470353059652,-12.691445589649682 L6.50400340242598,-12.847487682081319 L6.200959827391779,-12.996464796977419 L5.894506275016997,-13.138295010152012 L5.5848112675463515,-13.272900327580528 L5.272045109737071,-13.400206728289584 L4.956379795206386,-13.520144205061936 L4.637988911850323,-13.63264680293425 L4.317047546385759,-13.737652655466459 L3.9937321880682886,-13.835104018762822 L3.668220631638792,-13.924947303225943 L3.3406918795521174,-14.007133103026273 L3.0113260435416254,-14.08161622327096 L2.6803042455737245,-14.148355704856993 L2.3478085182468718,-14.207314846995098 L2.0140217046898066,-14.258461227391905 L1.6791273580140622,-14.301766720079332 L1.3433096403760532,-14.337207510881354 L1.0067532217042388,-14.36476411050972 L0.6696431781470658,-14.384421365281298 L0.33216489029750473,-14.396168465451272 L-0.005496058749802302,-14.399998951157539 L-0.3431539854527754,-14.395910715973056 L-0.6806232079313554,-14.383906008064193 L-1.0177181480760522,-14.363991428954439 L-1.3542534335994247,-14.336177929894152 L-1.690043999974387,-14.300480805838333 L-2.0249051922032617,-14.256919687035772 L-2.3586528663616386,-14.205518528234158 L-2.6911034908611757,-14.146305595507073 L-3.0220742473756843,-14.079313450710181 L-3.351383131374977,-14.00457893357509 L-3.6788490522111914,-13.922143141450775 L-4.00429193270258,-13.832051406703668 L-4.327532808159962,-13.734353271788923 L-4.6483939248014154,-13.629102462006413 L-4.9666988375010765,-13.516356855956616 L-5.2822725068182885,-13.396178453712519 L-5.594941395253765,-13.268633342725082 L-5.90453356267979,-13.133791661480998 L-6.210878760892032,-12.991727560932771 L-6.513808527230937,-12.84251916372226 L-6.813156277221242,-12.686248521220165 L-7.108757396178625,-12.523001568405062 L-7.400449329733199,-12.352868076606802 L-7.68807167321995,-12.175941604140231 L-7.971466259887077,-11.992319444856442 L-8.250477247873667,-11.802102574639779 L-8.524951205908868,-11.605395595880086 L-8.794737197685471,-11.402306679950662 L-9.059686864861483,-11.192947507723616 L-9.319654508644037,-10.9774332081553 L-9.5744971699108,-10.755882294975622 L-9.824074707824774,-10.52841660151599 L-10.068249876899353,-10.295161213711816 L-10.306888402471113,-10.056244401316349 L-10.539859054538988,-9.811797547363708 L-10.767033719929099,-9.561955075919867 L-10.98828747274563,-9.306854378161367 L-11.203498643068993,-9.04663573682235 L-11.41254888386345,-8.781442249051526 L-11.615323236057508,-8.511419747721442 L-11.811710191761179,-8.23671672123335 L-12.001601755585433,-7.957484231861762 L-12.184893504030068,-7.673875832683628 L-12.361484642907353,-7.386047483137761 L-12.531278062769902,-7.094157463261002 L-12.694180392312237,-6.798366286648252 L-12.850102049716712,-6.498836612184242 L-12.998957291915568,-6.195733154595593 L-13.140664261742003,-5.889222593872338 L-13.27514503294435,-5.57947348360873 L-13.402325653038583,-5.266656158313726 L-13.52213618397564,-4.95094263974212 L-13.634510740601115,-4.632506542297891 L-13.739387526886265,-4.311522977561654 L-13.836708869910321,-3.988168457994852 L-13.926421251575489,-3.662620799873578 L-14.008475338037144,-3.335059025505404 L-14.08282600683307,-3.005663264783015 L-14.149432371696797,-2.6746146561287514 L-14.208257805041429,-2.34209524688457 L-14.259269958101559,-2.0082878932021613 L-14.302440778722215,-1.6733761594883036 L-14.337746526785068,-1.3375442174607395 L-14.365167787263372,-1.0009767448700808 L-14.384689480898516,-0.6638588239434435 L-14.396300872492269,-0.32637583960565486 L-14.399995576810198,0.011286622465992657 L-14.39577156209297,0.34894287789738687 L-14.38363115117364,0.6864072457275219 L-14.363581020200304,1.023494150516532 L-14.33563219496481,1.360018224395711 L-14.299800044839538,1.6957944090033799 L-14.256104274325637,2.030638057250556 L-14.204568912217265,2.364365034860464 L-14.145222298387925,2.6967918216260207 L-14.078097068206006,3.027735612329682 L-14.003230134588268,3.3570144172700527 L-13.920662667700988,3.684447162340094 L-13.830440072320041,4.009853788601773 L-13.732611962862293,4.333055351302521 L-13.627232136102082,4.653874118278942 L-13.514358541587775,4.972133667693728 L-13.394053249774647,5.287658985052003 L-13.266382417891649,5.6002765594437625 L-13.131416253560815,5.909814478959457 L-12.989228976189281,6.216102525226292 L-12.83989877615523,6.518972267013208 L-12.683507771810106,6.818257152853114 L-12.520141964320803,7.113792602631396 L-12.349891190376695,7.405416098090377 L-12.17284907278739,7.692967272199924 L-11.989112968998537,7.976287997345075 L-11.798783917553838,8.25522247228219 L-11.60196658253285,8.529617307815805 L-11.398769195995023,8.799321611149066 L-11.189303498461662,9.064187068861367 L-10.97368467746859,9.324068028467567 L-10.752031304223207,9.578821578513933 L-10.524465268400867,9.828307627166737 L-10.29111171111637,10.072388979250329 L-10.052098956107468,10.310931411692307 L-9.807558439168192,10.543803747334298 L-9.557624635870846,10.770877927067719 L-9.30243498761638,10.992029080254957 L-9.042129826053811,11.207135593397094 L-8.776852295910295,11.416079177010563 L-8.506748276274218,11.618744930675842 L-8.231966300374658,11.8150214062225 L-7.952657473901303,12.00480066901578 L-7.668975391909726,12.187978357311069 L-7.381076054357744,12.364453739643603 L-7.089117780319303,12.534129770221812 L-6.793261120923029,12.6969131422939 L-6.493668771063371,12.852714339458272 L-6.190505479932854,13.001447684889605 L-5.883937960424646,13.143031388453496 L-5.574134797455274,13.277387591683771 L-5.2612663552578836,13.404442410597742 L-4.945504683697041,13.524125976325811 L-4.6270234236565795,13.636372473533177 L-4.305997711552532,13.741120176612396 L-3.982604083023655,13.838311483627015 L-3.6570203758524946,13.927892947987491 L-3.3294256321704023,14.009815307842095 L-3.000000000000257,14.084033513166549 " />
			<path d="M3.000000000000001,14.0840335131666 L3.3180910014003135,14.012504134037792 L3.634481059724358,13.93379156678127 L3.9490079848818516,13.84793616158521 L4.2615105418748875,13.75498193024946 L4.571828533451368,13.654976523623901 L4.879802882226445,13.547971207181334 L5.185275712229864,13.434020834737417 L5.488090429837474,13.313183820331119 L5.788091804045339,13.185522108280093 L6.085126046045337,13.051101141426367 L6.379040888061476,12.90998982758855 L6.669685661406445,12.762260504237847 L6.956911373718475,12.6079889014159 L7.240570785338833,12.447254102913533 L7.520518484790861,12.280138505730257 L7.796610963321814,12.10672777783535 L8.068706688469328,11.927110814252137 L8.336666176614791,11.741379691488 " />
			<path d="M14.336666176614603,1.3490748460747364 L106.92304845413263,54.80384757729338 " />
			<path d="M100.92304845413263,65.19615242270665 L8.33666617661477,11.741379691488099 " />
			<path d="M106.92304845413263,54.80384757729338 L100.92304845413263,65.19615242270665 " />
			<path d="M-7.2816139770103465,12.423288529604566 L-75.19713763363694,59.97825015543439 " />
			<path d="M-75.19713763363693,59.978250155434374 L-82.08005486984948,50.148425623966475 " />
			<path d="M-82.08005486984949,50.14842562396647 L-14.164531213223057,2.5934639981367624 " />
			<path d="M3.0000000000000147,5.196152422706623 L3.186912835565581,5.08365877872496 L3.369612640700969,4.9644446468490555 L3.547857890181505,4.838667625604888 L3.7214129476095694,4.706493989517447 L3.8900483769208654,4.568098469299381 L4.053541245693969,4.423664020860738 L4.211675419862215,4.27338158344518 L4.364241849438297,4.117449827212396 L4.511038844873868,3.9560748906004086 L4.651872343688798,3.7894701078149815 L4.78655616701761,3.617855726806374 L4.914912265733952,3.4414586181062745 L5.036770955827719,3.2605119749098184 L5.151971142723679,3.0752550047991907 L5.260360534245046,2.8859326135163266 L5.361795841940473,2.6927950812027746 L5.45614297050831,2.496097731534717 L5.543277195067719,2.296100594190542 L5.623083326042292,2.0930680610971897 L5.695455861438202,1.887268536909688 L5.76029912631557,1.6789740841859595 L5.817527399268694,1.468460063725951 L5.867065025747902,1.2560047705505617 L5.908846518073247,1.041889066001593 L5.942816642007813,0.8263960064490765 L5.968930489776197,0.6098104690968243 L5.98715353943162,0.39241877538087266 L5.9974617004932025,0.17450831245868392 L5.999841345793065,-0.04363284671051322 L5.9942893294911475,-0.26171632419199825 L5.980812991233947,-0.4794538183050051 L5.95943014645166,-0.6965574847513614 L5.930169062806567,-0.9127403171394793 L5.893068422823789,-1.1277165264006492 L5.848177272753814,-1.341201918596062 L5.795554957734415,-1.552914270615101 L5.735271043337645,-1.7625737032682416 L5.667405223605638,-1.969903051281341 L5.592047215696802,-2.1746282297021837 L5.509296641281655,-2.376478596234914 L5.419262894845119,-2.575187309023346 L5.322064999069345,-2.7704916794101755 L5.217831447488289,-2.9621335192057527 L5.1067000346220155,-3.1498594820073325 L4.988817673815291,-3.3334213981175846 L4.864340203021294,-3.512576602619614 L4.73343217878719,-3.6870882561747766 L4.596266658713892,-3.856725658119207 L4.453024972677637,-4.021264551445146 L4.303896483115765,-4.180487419263901 L4.149078334693646,-4.334183772358505 L3.9887751936836593,-4.482150427445947 L3.823198977400764,-4.624191775781121 L3.65256857405236,-4.760120041747384 L3.4771095533727667,-4.8897555310919 L3.297053868424876,-5.012926868477592 L3.1126395489631697,-5.129471224037655 L2.9241103867634974,-5.23923452863315 L2.731715613335568,-5.34207167752911 L2.535709570444244,-5.437846722219877 L2.3363513738751793,-5.52643305015012 L2.13390457088931,-5.6077135520939105 L1.9286367918190221,-5.681580776970616 L1.7208193962665959,-5.747937073892917 L1.5107271143726273,-5.806694721259191 L1.2986376836286748,-5.857776042719587 L1.0848314817142508,-5.901113509862496 L0.869591155843541,-5.936649831485658 L0.6532012491118495,-5.964338029333911 L0.435947824335727,-5.984141500203429 L0.2181180858840625,-5.996034064330378 L6.578581641713004e-14,-6.0 L-0.21811808588393103,-5.996034064330383 L-0.43594782433559576,-5.984141500203439 L-0.6532012491117186,-5.964338029333925 L-0.8695911558434107,-5.936649831485678 L-1.0848314817141214,-5.90111350986252 L-1.2986376836285463,-5.857776042719616 L-1.5107271143725,-5.806694721259224 L-1.7208193962664695,-5.747937073892954 L-1.9286367918188976,-5.681580776970658 L-2.133904570889187,-5.6077135520939585 L-2.336351373875058,-5.526433050150171 L-2.5357095704441246,-5.437846722219934 L-2.7317156133354508,-5.3420716775291694 L-2.924110386763383,-5.239234528633214 L-3.112639548963058,-5.129471224037723 L-3.297053868424766,-5.012926868477665 L-3.4771095533726597,-4.889755531091977 L-3.652568574052255,-4.760120041747464 L-3.8231989774006627,-4.624191775781204 L-3.9887751936835607,-4.482150427446035 L-4.149078334693551,-4.334183772358596 L-4.303896483115674,-4.180487419263995 L-4.453024972677549,-4.021264551445244 L-4.596266658713808,-3.8567256581193075 L-4.733432178787109,-3.6870882561748806 L-4.864340203021218,-3.5125766026197205 L-4.988817673815218,-3.333421398117694 L-5.106700034621947,-3.1498594820074444 L-5.217831447488225,-2.9621335192058673 L-5.322064999069283,-2.7704916794102923 L-5.419262894845062,-2.5751873090234647 L-5.509296641281603,-2.376478596235035 L-5.592047215696754,-2.1746282297023063 L-5.667405223605594,-1.969903051281465 L-5.735271043337606,-1.7625737032683675 L-5.795554957734382,-1.552914270615228 L-5.8481772727537855,-1.3412019185961903 L-5.893068422823764,-1.1277165264007785 L-5.930169062806547,-0.9127403171396092 L-5.959430146451645,-0.6965574847514922 L-5.980812991233936,-0.4794538183051362 L-5.994289329491141,-0.2617163241921297 L-5.9998413457930635,-0.04363284671064478 L-5.997461700493207,0.1745083124585524 L-5.987153539431629,0.3924187753807414 L-5.968930489776211,0.6098104690966935 L-5.9428166420078306,0.8263960064489462 L-5.908846518073269,1.0418890660014632 L-5.867065025747929,1.2560047705504331 L-5.817527399268726,1.4684600637258236 L-5.760299126315607,1.6789740841858332 L-5.6954558614382425,1.8872685369095632 L-5.623083326042338,2.0930680610970662 L-5.543277195067769,2.296100594190421 L-5.456142970508364,2.496097731534597 L-5.361795841940531,2.6927950812026573 L-5.260360534245109,2.8859326135162107 L-5.151971142723746,3.075255004799078 L-5.036770955827791,3.260511974909708 L-4.914912265734028,3.441458618106166 L-4.7865561670176895,3.6178557268062694 L-4.651872343688881,3.78947010781488 L-4.511038844873956,3.95607489060031 L-4.364241849438388,4.1174498272123 L-4.211675419862308,4.273381583445088 L-4.053541245694065,4.423664020860649 L-3.8900483769209657,4.568098469299295 L-3.721412947609673,4.706493989517365 L-3.5478578901816107,4.83866762560481 L-3.369612640701078,4.964444646848982 L-3.186912835565693,5.08365877872489 L-3.000000000000129,5.196152422706557 " />
			<path d="M3.0,5.19615242270662 L3.0,120.0 " />
			<path d="M-3.0,120.0 L-3.0,5.196152422706561 " />
			<path d="M3.0,120.0 L-3.0,120.0 " />
			<path d="M1.5,0.0 L1.4960898472769246,0.10823663370092412 L1.484379774833456,0.21590897171117868 L1.46493083356513,0.32245566031653605 L1.437844421246162,0.4273212144175499 L1.4032617538884016,0.5299589135716536 L1.3613631295064355,0.6298336523403969 L1.3123669881272244,0.7264247300814293 L1.256528772944947,0.8192285656405454 L1.1941395985584657,0.9077613227906477 L1.1255247332346037,0.9915614327298002 L1.051041903110014,1.0701920004872396 L0.9710794271727416,1.1432430826914546 L0.8860541927468271,1.2103338248251052 L0.7964094820348305,1.2711144468241296 L0.7026126610496856,1.3252680666690342 L0.6051527429847132,1.372512352461018 L0.5045378387252633,1.412600994369762 L0.4012925077938318,1.4453249887788344 L0.29595502353960074,1.47051372793377 L0.18907456683043478,1.4880358894119066 L0.08120836287812708,1.4978001207766858 L-0.027081223875839805,1.499755515846962 L-0.13522962166809693,1.4938918800982564 L-0.24267299482914612,1.4802397838122894 L-0.3488511833614646,1.458870402697685 L-0.453210623354358,1.4298951468127845 L-0.5552072330098704,1.3934650797251877 L-0.65430924923335,1.3497701309362604 L-0.7499999999999991,1.2990381056766584 L-0.8417805980435729,1.2415334972353362 L-0.929172541823584,1.177556108014009 L-1.0117202102107707,1.1074394864962482 L-1.0889932378846963,1.0315491882801349 L-1.1605887590592547,0.9502808702406356 L-1.226133507838338,0.864058227757859 L-1.2852857642513842,0.7733307857655319 L-1.3377371358230739,0.6785715551361393 L-1.3832141653889003,0.5802745666212575 L-1.4214797567742041,0.4789522952039684 L-1.4523344109038454,0.3751329882915927 L-1.4756172658980045,0.26935791167830536 L-1.4912069357315398,0.16217852763591023 L-1.4990221430845156,0.054153619844901954 L-1.4990221430845154,-0.054153619844907575 L-1.491206935731539,-0.16217852763591584 L-1.4756172658980036,-0.2693579116783109 L-1.4523344109038439,-0.3751329882915982 L-1.4214797567742024,-0.47895229520397375 L-1.383214165388898,-0.5802745666212628 L-1.3377371358230714,-0.6785715551361444 L-1.2852857642513813,-0.7733307857655367 L-1.2261335078383349,-0.8640582277578637 L-1.160588759059251,-0.9502808702406398 L-1.0889932378846925,-1.031549188280139 L-1.0117202102107665,-1.107439486496252 L-0.9291725418235801,-1.177556108014012 L-0.8417805980435694,-1.2415334972353387 L-0.749999999999996,-1.2990381056766602 L-0.6543092492333473,-1.3497701309362617 L-0.555207233009868,-1.3934650797251886 L-0.45321062335435575,-1.4298951468127852 L-0.3488511833614627,-1.4588704026976855 L-0.24267299482914448,-1.4802397838122898 L-0.13522962166809563,-1.4938918800982566 L-0.02708122387583884,-1.499755515846962 L0.0812083628781277,-1.4978001207766858 L0.18907456683043505,-1.4880358894119063 L0.2959550235396007,-1.47051372793377 L0.40129250779383147,-1.4453249887788344 L0.5045378387252626,-1.4126009943697622 L0.6051527429847121,-1.3725123524610185 L0.7026126610496843,-1.3252680666690348 L0.7964094820348291,-1.2711144468241304 L0.8860541927468253,-1.2103338248251065 L0.9710794271727399,-1.1432430826914561 L1.0510419031100118,-1.0701920004872416 L1.1255247332346014,-0.9915614327298026 L1.1941395985584635,-0.9077613227906505 L1.2565287729449452,-0.8192285656405487 L1.3123669881272224,-0.7264247300814329 L1.3613631295064337,-0.6298336523404011 L1.4032617538883998,-0.5299589135716583 L1.4378444212461605,-0.42732121441755505 L1.4649308335651288,-0.32245566031654177 L1.484379774833455,-0.21590897171118484 L1.4960898472769242,-0.10823663370093072 L1.5,-7.028732187495145e-15 " />

       </g>
    </g>
    
</svg>
