<?xml version="1.0" encoding="UTF-8" standalone="no"?>
<svg
   xmlns:svg="http://www.w3.org/2000/svg"
   xmlns="http://www.w3.org/2000/svg"
   width="620.0"
   height="533.6495188427516"

>
    <g transform="scale(3.2509463217895673, -3.2509463217895673)   translate(82.71462366350781,-124.0760274117646)" stroke-width="0.5"  fill="none">
       <!-- hidden lines -->
       <g  stroke="rgb(160,160,160)" fill="none" stroke-dasharray="0.5,0.5" >

       </g>

       <!-- solid lines -->
       <g  stroke="rgb(0,0,0)" fill="none">
			<path d="M-5.4,9.353074360871936 L-5.145541911442536,9.470959107699606 " />
			<path d="M4.96980881244016,14.157175081096394 L103.92304845413263,60.000000000000014 " />
			<path d="M-31.17691453623979,-18.000000000000004 L-5.399999999999999,9.353074360871936 " />
			<path d="M103.92304845413263,60.000000000000014 L5.400000000000006,-9.353074360871943 " />
			<path d="M5.4,-9.353074360871936 L4.306329423252948,-9.61162236227496 " />
			<path d="M-4.059126122487315,-11.589248768400028 L-31.176914536239792,-18.000000000000007 " />
			<path d="M-5.820358694521378,10.260432376178068 L-5.103482435641383,10.592545129063701 " />
			<path d="M4.929185772713602,15.240456140471206 L103.50268975961126,60.907358015306144 " />
			<path d="M-5.820358694521378,10.260432376178068 L-5.888250202378064,10.22577805622207 L-5.9533048892936495,10.186053171817175 L-6.015144775909887,10.141488531641828 L-6.073410561432851,10.092343064220518 L-6.127763711234771,10.038902313502764 " />
			<path d="M103.50268975961126,60.90735801530615 L103.5832329603414,60.940492121274524 L103.66635368747305,60.966492522873104 L103.75142146396024,60.98516200507551 L103.83779104423937,60.996358958437334 L103.92480730846594,60.99999845321454 L104.01181023164843,60.996052883562044 L104.09813988998816,60.98455217692618 L104.1831414664516,60.965583567042685 L104.26617021760734,60.93929093226222 L104.34659636405422,60.9058737042221 L104.42380986734602,60.865585355142144 L104.4972250571795,60.81873147521856 L104.56628507374835,60.76566745469908 L104.6304660915671,60.706795788220795 L104.68928129272743,60.642563021857754 L104.74228455944906,60.57345636603491 L104.78907385791706,60.500000000000014 L104.82929428773897,60.422751095884024 L104.86264077389133,60.34229559250811 L104.8888603807369,60.25924375099304 L104.90775423056084,60.17422552588212 L104.91917901207324,60.08788578688799 L104.92304806743618,60.00087942750674 L104.91933204957006,59.91386639760087 L104.90805914475342,59.827506697629325 L104.88931485882786,59.74245537249373 L104.86324136862973,59.65935754297293 L104.83003644356799,59.57884351243274 L104.7899519455282,59.50152398592696 L104.74329191848092,59.427985437952934 L104.69041028228503,59.35878566399792 L104.63170814817865,59.29444954961776 L104.56763077631986,59.23546508914001 L104.49866419845448,59.18227968418978 " />
			<path d="M104.49866419845449,59.18227968418977 L5.975615744321871,-10.170794676682185 " />
			<path d="M5.975615744321855,-10.170794676682174 L5.911658468960743,-10.212263287209298 L5.844728366445908,-10.24873985651099 L5.775214312635425,-10.280012449200129 L5.7035201966062266,-10.305899365923818 L5.630062573986377,-10.326250199069106 " />
			<path d="M5.630062573986376,-10.326250199069104 L4.173972778395605,-10.670475521133707 " />
			<path d="M-3.9343673635024112,-12.587318840279265 L-30.946851962253415,-18.97317583819717 " />
			<path d="M-30.946851962253422,-18.973175838197175 L-31.033499102290254,-18.98966257547968 L-31.121261948343594,-18.998450193780574 L-31.209457745896227,-18.9994703294772 L-31.297400372267695,-18.992715046383736 L-31.384405674332715,-18.978236897491048 L-31.469796790917364,-18.956148516128632 L-31.55290941846723,-18.926621739729203 L-31.633096979023083,-18.88988627301261 L-31.709735650299567,-18.846227900988914 L-31.782229218735246,-18.79598626568266 L-31.85001371775947,-18.739552223874377 L-31.912561815192547,-18.677364806414836 L-31.969386915647167,-18.609907802767278 L-32.02004694601642,-18.537705997348226 L-32.06414779459892,-18.461321086946445 L-32.10134637710629,-18.38134731098065 L-32.13135330570094,-18.298406828590565 L-32.15393514030011,-18.21314487852537 L-32.16891620463221,-18.126224759483446 L-32.17617995291726,-18.038322669954038 L-32.17566987653941,-17.95012244770447 L-32.16738994365793,-17.8623102498373 L-32.151404568336766,-17.77556921480413 L-32.127838109432766,-17.690574147903096 L-32.0968739031411,-17.607986271604506 L-32.05875283672406,-17.528448081544557 L-32.01377147451915,-17.452578348205265 L-31.962279750805152,-17.380967303165093 L-31.904678247474568,-17.314172047369183 " />
			<path d="M-31.904678247474568,-17.31417204736918 L-6.127763711234778,10.03890231350276 " />
			<path d="M-31.17691453623979,-18.000000000000004 L-5.399999999999999,9.353074360871936 " />
			<path d="M5.4,-9.353074360871936 L4.306329423252948,-9.61162236227496 " />
			<path d="M-4.059126122487315,-11.589248768400028 L-31.176914536239792,-18.000000000000007 " />
			<path d="M103.92304845413263,60.000000000000014 L5.400000000000006,-9.353074360871943 " />
			<path d="M-5.4,9.353074360871936 L-5.145541911442536,9.470959107699606 " />
			<path d="M4.96980881244016,14.157175081096394 L103.92304845413263,60.000000000000014 " />
			<path d="M-15.876266327573724,-0.30568398665307583 L-78.63859625174322,55.063337889700435 " />
			<path d="M-78.63859625174321,55.06333788970042 L-4.941439655899899,14.913685922169996 " />
			<path d="M14.91967581094622,-3.8748256357172686 L23.591578875522963,-16.51900136691013 " />
			<path d="M23.591578875522963,-16.519001366910125 L4.071394167382294,-11.491104409240187 " />
			<path d="M24.41625871341944,-15.953401539322599 L24.462074863142018,-16.02682585396873 L24.50137078067926,-16.103936686032466 L24.53385212980226,-16.18415645613813 L24.55927561710014,-16.266884298188252 L24.57745081430845,-16.351500560000595 L24.588241584664353,-16.43737144465763 L24.59156710260497,-16.523853757803625 L24.587402459171027,-16.610299725330883 L24.57577884858116,-16.696061845369456 L24.55678333457943,-16.78049773823775 L24.53055819830617,-16.862974958026637 L24.497299872576725,-16.942875729777164 L24.457257470550644,-17.019601576769148 L24.410730919811954,-17.092577803261175 L24.35806871583669,-17.161257799105115 L24.299665311674836,-17.225127133992544 L24.235958163398525,-17.283707410666146 L24.167424453446884,-17.33655984823453 L24.094577516410496,-17.383288568750633 L24.0179629940272,-17.42354356243633 L23.938154748189316,-17.457023309343008 L23.855750562574844,-17.483477037811245 L23.77136766509855,-17.50270660281311 L23.685638104720848,-17.514567970107873 L23.599204017243345,-17.51897229509441 L23.512712815551453,-17.51588658827945 L23.426812340330294,-17.50533396237709 L23.342146007576318,-17.487393459188823 " />
			<path d="M15.737456950674446,-3.2991670757723455 L24.416258713419438,-15.953401539322599 " />
			<path d="M23.342146007576318,-17.487393459188823 L3.9463405444853414,-12.491533392415814 " />
			<path d="M-16.562464415195464,-1.0338404652190913 L-79.30015403565538,54.3134436981339 " />
			<path d="M-79.30015403565538,54.313443698133895 L-79.36378215282706,54.37478476257863 L-79.42174565185192,54.44150429692068 L-79.47359176456675,54.51308113729791 L-79.51891550732459,54.58895617815092 L-79.5573628444288,54.6685367395439 L-79.58863345359906,54.751201196743764 L-79.61248307186789,54.83630383589471 L-79.62872540358305,54.923179897859335 L-79.63723357561196,55.011150770827335 L-79.63794112838114,55.099529291131226 L-79.63084253500949,55.187625110862754 L-79.61599324448018,55.27475009036234 L-79.59350924851408,55.36022367345923 L-79.56356617552778,55.44337820347512 L-79.52639791875384,55.52356413846632 L-79.48229480923912,55.60015512496707 L-79.43160134799238,55.67255289060145 L-79.37471351499624,55.7401919173466 L-79.31207567610318,55.80254385894293 L-79.24417711197671,55.85912166794602 L-79.1715481961913,55.909483400182516 L-79.09475625234454,55.953235666892496 L-79.0144011225431,55.990036707592765 L-78.93111048187804,56.01959905965799 L-78.84553493548914,56.04169180376705 L-78.7583429365169,56.05614236767467 L-78.67021556463877,56.06283787421869 L-78.5818412059765,56.06172602303335 L-78.49391017593065,56.05281549908123 L-78.40710932694515,56.036175904812666 L-78.32211668332188,56.01193721648273 L-78.23959614499425,55.98028876887243 L-78.16019230162978,55.94147777634483 " />
			<path d="M-78.16019230162978,55.94147777634483 L-4.899590715465166,16.02965766709631 " />
			<path d="M23.591578875522963,-16.519001366910125 L4.071394167382294,-11.491104409240187 " />
			<path d="M14.91967581094622,-3.8748256357172686 L23.591578875522963,-16.51900136691013 " />
			<path d="M-78.63859625174321,55.06333788970042 L-4.941439655899899,14.913685922169996 " />
			<path d="M-15.876266327573724,-0.30568398665307583 L-78.63859625174322,55.063337889700435 " />
			<path d="M-4.5,0.0 L8.881784197001252e-16,120.00000000000001 " />
			<path d="M0.0,-36.0 L-4.5,0.0 " />
			<path d="M0.0,120.0 L4.500000000000001,-1.4210854715202004e-14 " />
			<path d="M4.5,0.0 L0.0,-36.0 " />
			<path d="M1.5,0.0 L1.4960898472769246,0.10823663370092412 L1.484379774833456,0.21590897171117868 L1.46493083356513,0.32245566031653605 L1.437844421246162,0.4273212144175499 L1.4032617538884016,0.5299589135716536 L1.3613631295064355,0.6298336523403969 L1.3123669881272244,0.7264247300814293 L1.256528772944947,0.8192285656405454 L1.1941395985584657,0.9077613227906477 L1.1255247332346037,0.9915614327298002 L1.051041903110014,1.0701920004872396 L0.9710794271727416,1.1432430826914546 L0.8860541927468271,1.2103338248251052 L0.7964094820348305,1.2711144468241296 L0.7026126610496856,1.3252680666690342 L0.6051527429847132,1.372512352461018 L0.5045378387252633,1.412600994369762 L0.4012925077938318,1.4453249887788344 L0.29595502353960074,1.47051372793377 L0.18907456683043478,1.4880358894119066 L0.08120836287812708,1.4978001207766858 L-0.027081223875839805,1.499755515846962 L-0.13522962166809693,1.4938918800982564 L-0.24267299482914612,1.4802397838122894 L-0.3488511833614646,1.458870402697685 L-0.453210623354358,1.4298951468127845 L-0.5552072330098704,1.3934650797251877 L-0.65430924923335,1.3497701309362604 L-0.7499999999999991,1.2990381056766584 L-0.8417805980435729,1.2415334972353362 L-0.929172541823584,1.177556108014009 L-1.0117202102107707,1.1074394864962482 L-1.0889932378846963,1.0315491882801349 L-1.1605887590592547,0.9502808702406356 L-1.226133507838338,0.864058227757859 L-1.2852857642513842,0.7733307857655319 L-1.3377371358230739,0.6785715551361393 L-1.3832141653889003,0.5802745666212575 L-1.4214797567742041,0.4789522952039684 L-1.4523344109038454,0.3751329882915927 L-1.4756172658980045,0.26935791167830536 L-1.4912069357315398,0.16217852763591023 L-1.4990221430845156,0.054153619844901954 L-1.4990221430845154,-0.054153619844907575 L-1.491206935731539,-0.16217852763591584 L-1.4756172658980036,-0.2693579116783109 L-1.4523344109038439,-0.3751329882915982 L-1.4214797567742024,-0.47895229520397375 L-1.383214165388898,-0.5802745666212628 L-1.3377371358230714,-0.6785715551361444 L-1.2852857642513813,-0.7733307857655367 L-1.2261335078383349,-0.8640582277578637 L-1.160588759059251,-0.9502808702406398 L-1.0889932378846925,-1.031549188280139 L-1.0117202102107665,-1.107439486496252 L-0.9291725418235801,-1.177556108014012 L-0.8417805980435694,-1.2415334972353387 L-0.749999999999996,-1.2990381056766602 L-0.6543092492333473,-1.3497701309362617 L-0.555207233009868,-1.3934650797251886 L-0.45321062335435575,-1.4298951468127852 L-0.3488511833614627,-1.4588704026976855 L-0.24267299482914448,-1.4802397838122898 L-0.13522962166809563,-1.4938918800982566 L-0.02708122387583884,-1.499755515846962 L0.0812083628781277,-1.4978001207766858 L0.18907456683043505,-1.4880358894119063 L0.2959550235396007,-1.47051372793377 L0.40129250779383147,-1.4453249887788344 L0.5045378387252626,-1.4126009943697622 L0.6051527429847121,-1.3725123524610185 L0.7026126610496843,-1.3252680666690348 L0.7964094820348291,-1.2711144468241304 L0.8860541927468253,-1.2103338248251065 L0.9710794271727399,-1.1432430826914561 L1.0510419031100118,-1.0701920004872416 L1.1255247332346014,-0.9915614327298026 L1.1941395985584635,-0.9077613227906505 L1.2565287729449452,-0.8192285656405487 L1.3123669881272224,-0.7264247300814329 L1.3613631295064337,-0.6298336523404011 L1.4032617538883998,-0.5299589135716583 L1.4378444212461605,-0.42732121441755505 L1.4649308335651288,-0.32245566031654177 L1.484379774833455,-0.21590897171118484 L1.4960898472769242,-0.10823663370093072 L1.5,-7.028732187495145e-15 " />
			<path d="M5.499297615709182,0.0374736605890717 L5.499056793146964,-0.043422621603325294 L5.4922778767136675,-0.12403473458920847 " />
			<path d="M0.9992976157091807,120.0374736605891 L5.499297615709182,0.037473660589085966 " />
			<path d="M5.4922778767136675,-0.12403473458920847 L0.9922778767136675,-36.12403473458921 " />
			<path d="M0.9922778767136667,-36.124034734589216 L0.9776082292829852,-36.21043324366218 L0.9554306475071914,-36.29521564627233 L0.9259154530170969,-36.37773082196737 L0.8892893195821902,-36.457345062373086 L0.8458335322785454,-36.5334469380109 L0.795881827247306,-36.60545199401562 L0.7398178286341853,-36.67280723869099 L0.6780721023940347,-36.73499539043108 L0.6111188495869683,-36.79153885039175 L0.5394722645612025,-36.84200337040252 L0.4636825859914052,-36.886001387949435 L0.3843318711001883,-36.9231950026168 L0.3020295255163056,-36.9532985711289 L0.21740762309979975,-36.97608090106205 L0.1311160516773801,-36.9913670263795 L0.0438175219682998,-36.99903955115329 L-0.04381752196830983,-36.99903955115329 L-0.13111605167739002,-36.9913670263795 L-0.21740762309980954,-36.97608090106204 L-0.30202952551631507,-36.95329857112889 L-0.3843318711001975,-36.923195002616794 L-0.46368258599141404,-36.88600138794943 L-0.539472264561211,-36.842003370402516 L-0.6111188495869762,-36.791538850391746 L-0.6780721023940421,-36.734995390431074 L-0.7398178286341921,-36.672807238690986 L-0.795881827247312,-36.60545199401561 L-0.8458335322785507,-36.53344693801088 L-0.8892893195821946,-36.45734506237308 L-0.9259154530171004,-36.37773082196736 L-0.9554306475071942,-36.29521564627232 L-0.9776082292829871,-36.21043324366217 L-0.9922778767136679,-36.12403473458921 " />
			<path d="M-0.9922778767136677,-36.12403473458921 L-5.4922778767136675,-0.124034734589209 " />
			<path d="M-5.499297615709181,0.03747366058909423 L-5.4990567931469645,-0.04342262160331077 L-5.492277876713668,-0.12403473458920194 " />
			<path d="M-5.499297615709181,0.03747366058909428 L-0.99929761570918,120.03747366058911 " />
			<path d="M-0.9992976157091795,120.03747366058913 L-0.9921851482207027,120.1247743228804 L-0.9774606433887768,120.21111771746114 L-0.9552370675089018,120.29584141842716 L-0.925684919695891,120.37829542615212 L-0.8890309238158847,120.45784715407991 L-0.8455562890624754,120.53388628192424 L-0.7955945525217895,120.60582943804148 L-0.739529020278355,120.67312467505369 L-0.6777898266935688,120.73525570438501 L-0.6108506344179602,120.79174585722387 L-0.5392250004547313,120.84216174152273 L-0.4634624361541118,120.88611656697869 L-0.38414419136621886,120.923273112486 L-0.30187879509637455,120.95334631329395 L-0.21729738687494052,120.97610544802154 L-0.13104887465936568,120.99137590875031 L-0.04379495641698933,120.99904054061506 L0.04379495641702014,120.99904054061506 L0.13104887465939627,120.99137590875031 L0.21729738687497063,120.97610544802153 L0.3018787950964039,120.95334631329393 L0.3841441913662473,120.92327311248599 L0.4634624361541392,120.88611656697867 L0.5392250004547573,120.84216174152272 L0.6108506344179845,120.79174585722386 L0.6777898266935916,120.735255704385 L0.7395290202783757,120.67312467505367 L0.7955945525218081,120.60582943804145 L0.8455562890624918,120.53388628192423 L0.8890309238158989,120.45784715407989 L0.9256849196959026,120.37829542615209 L0.955237067508911,120.29584141842713 L0.9774606433887834,120.21111771746111 L0.9921851482207065,120.12477432288037 L0.9992976157091807,120.0374736605891 " />
			<path d="M0.0,-36.0 L-4.5,0.0 " />
			<path d="M4.5,0.0 L0.0,-36.0 " />
			<path d="M0.0,120.0 L4.500000000000001,-1.4210854715202004e-14 " />
			<path d="M-4.5,0.0 L8.881784197001252e-16,120.00000000000001 " />

       </g>
    </g>
    
</svg>
