<?xml version="1.0" encoding="UTF-8" standalone="no"?>
<svg
   xmlns:svg="http://www.w3.org/2000/svg"
   xmlns="http://www.w3.org/2000/svg"
   width="620.0"
   height="572.6608747042264"

>
    <g transform="scale(3.2509463217895673, -3.2509463217895673)   translate(82.71462366350781,-154.07602741176458)" stroke-width="0.5"  fill="none">
       <!-- hidden lines -->
       <g  stroke="rgb(160,160,160)" fill="none" stroke-dasharray="0.5,0.5" >

       </g>

       <!-- solid lines -->
       <g  stroke="rgb(0,0,0)" fill="none">
			<path d="M-5.4,9.353074360871936 L103.92304845413263,60.000000000000014 " />
			<path d="M-31.17691453623979,-18.000000000000004 L-5.399999999999999,9.353074360871936 " />
			<path d="M103.92304845413263,60.000000000000014 L5.400000000000006,-9.353074360871943 " />
			<path d="M5.4,-9.353074360871936 L-31.176914536239792,-18.000000000000007 " />
			<path d="M0.9516660498395417,3.5516660498395414 L-3.5516660498395396,0.95166604983954 " />
			<path d="M3.5516660498395414,-0.9516660498395397 L0.9516660498395404,3.5516660498395414 " />
			<path d="M-0.9516660498395417,-3.5516660498395414 L3.551666049839538,-0.9516660498395417 " />
			<path d="M-3.5516660498395414,0.9516660498395397 L-0.9516660498395404,-3.5516660498395414 " />
			<path d="M-5.820358694521378,10.260432376178068 L-5.888250202378064,10.22577805622207 L-5.9533048892936495,10.186053171817175 L-6.015144775909887,10.141488531641828 L-6.073410561432851,10.092343064220518 L-6.127763711234771,10.038902313502764 " />
			<path d="M-5.820358694521378,10.260432376178068 L103.50268975961126,60.907358015306144 " />
			<path d="M5.975615744321855,-10.170794676682174 L5.911658468960743,-10.212263287209298 L5.844728366445908,-10.24873985651099 L5.775214312635425,-10.280012449200129 L5.7035201966062266,-10.305899365923818 L5.630062573986377,-10.326250199069106 " />
			<path d="M5.630062573986376,-10.326250199069104 L-30.946851962253415,-18.97317583819717 " />
			<path d="M-30.946851962253422,-18.973175838197175 L-31.033499102290254,-18.98966257547968 L-31.121261948343594,-18.998450193780574 L-31.209457745896227,-18.9994703294772 L-31.297400372267695,-18.992715046383736 L-31.384405674332715,-18.978236897491048 L-31.469796790917364,-18.956148516128632 L-31.55290941846723,-18.926621739729203 L-31.633096979023083,-18.88988627301261 L-31.709735650299567,-18.846227900988914 L-31.782229218735246,-18.79598626568266 L-31.85001371775947,-18.739552223874377 L-31.912561815192547,-18.677364806414836 L-31.969386915647167,-18.609907802767278 L-32.02004694601642,-18.537705997348226 L-32.06414779459892,-18.461321086946445 L-32.10134637710629,-18.38134731098065 L-32.13135330570094,-18.298406828590565 L-32.15393514030011,-18.21314487852537 L-32.16891620463221,-18.126224759483446 L-32.17617995291726,-18.038322669954038 L-32.17566987653941,-17.95012244770447 L-32.16738994365793,-17.8623102498373 L-32.151404568336766,-17.77556921480413 L-32.127838109432766,-17.690574147903096 L-32.0968739031411,-17.607986271604506 L-32.05875283672406,-17.528448081544557 L-32.01377147451915,-17.452578348205265 L-31.962279750805152,-17.380967303165093 L-31.904678247474568,-17.314172047369183 " />
			<path d="M-31.904678247474568,-17.31417204736918 L-6.127763711234778,10.03890231350276 " />
			<path d="M103.50268975961126,60.90735801530615 L103.5832329603414,60.940492121274524 L103.66635368747305,60.966492522873104 L103.75142146396024,60.98516200507551 L103.83779104423937,60.996358958437334 L103.92480730846594,60.99999845321454 L104.01181023164843,60.996052883562044 L104.09813988998816,60.98455217692618 L104.1831414664516,60.965583567042685 L104.26617021760734,60.93929093226222 L104.34659636405422,60.9058737042221 L104.42380986734602,60.865585355142144 L104.4972250571795,60.81873147521856 L104.56628507374835,60.76566745469908 L104.6304660915671,60.706795788220795 L104.68928129272743,60.642563021857754 L104.74228455944906,60.57345636603491 L104.78907385791706,60.500000000000014 L104.82929428773897,60.422751095884024 L104.86264077389133,60.34229559250811 L104.8888603807369,60.25924375099304 L104.90775423056084,60.17422552588212 L104.91917901207324,60.08788578688799 L104.92304806743618,60.00087942750674 L104.91933204957006,59.91386639760087 L104.90805914475342,59.827506697629325 L104.88931485882786,59.74245537249373 L104.86324136862973,59.65935754297293 L104.83003644356799,59.57884351243274 L104.7899519455282,59.50152398592696 L104.74329191848092,59.427985437952934 L104.69041028228503,59.35878566399792 L104.63170814817865,59.29444954961776 L104.56763077631986,59.23546508914001 L104.49866419845448,59.18227968418978 " />
			<path d="M104.49866419845449,59.18227968418977 L5.975615744321871,-10.170794676682185 " />
			<path d="M-31.17691453623979,-18.000000000000004 L-5.399999999999999,9.353074360871936 " />
			<path d="M5.4,-9.353074360871936 L-31.176914536239792,-18.000000000000007 " />
			<path d="M103.92304845413263,60.000000000000014 L5.400000000000006,-9.353074360871943 " />
			<path d="M-5.4,9.353074360871936 L103.92304845413263,60.000000000000014 " />
			<path d="M3.5516660498395414,-0.9516660498395395 L-0.95166604983954,-3.5516660498395405 " />
			<path d="M0.9516660498395395,3.5516660498395414 L3.5516660498395405,-0.95166604983954 " />
			<path d="M-3.5516660498395414,0.9516660498395395 L0.95166604983954,3.5516660498395405 " />
			<path d="M-0.9516660498395395,-3.5516660498395414 L-3.5516660498395405,0.95166604983954 " />
			<path d="M-15.876266327573724,-0.30568398665307583 L-78.63859625174322,55.063337889700435 " />
			<path d="M-78.63859625174321,55.06333788970042 L-0.7293614351330291,12.61897765342055 " />
			<path d="M14.91967581094622,-3.8748256357172686 L23.591578875522963,-16.51900136691013 " />
			<path d="M23.591578875522963,-16.519001366910125 L2.459219855204399,-11.075849818126997 " />
			<path d="M-16.562464415195464,-1.0338404652190913 L-79.30015403565538,54.3134436981339 " />
			<path d="M-79.30015403565538,54.313443698133895 L-79.36378215282706,54.37478476257863 L-79.42174565185192,54.44150429692068 L-79.47359176456675,54.51308113729791 L-79.51891550732459,54.58895617815092 L-79.5573628444288,54.6685367395439 L-79.58863345359906,54.751201196743764 L-79.61248307186789,54.83630383589471 L-79.62872540358305,54.923179897859335 L-79.63723357561196,55.011150770827335 L-79.63794112838114,55.099529291131226 L-79.63084253500949,55.187625110862754 L-79.61599324448018,55.27475009036234 L-79.59350924851408,55.36022367345923 L-79.56356617552778,55.44337820347512 L-79.52639791875384,55.52356413846632 L-79.48229480923912,55.60015512496707 L-79.43160134799238,55.67255289060145 L-79.37471351499624,55.7401919173466 L-79.31207567610318,55.80254385894293 L-79.24417711197671,55.85912166794602 L-79.1715481961913,55.909483400182516 L-79.09475625234454,55.953235666892496 L-79.0144011225431,55.990036707592765 L-78.93111048187804,56.01959905965799 L-78.84553493548914,56.04169180376705 L-78.7583429365169,56.05614236767467 L-78.67021556463877,56.06283787421869 L-78.5818412059765,56.06172602303335 L-78.49391017593065,56.05281549908123 L-78.40710932694515,56.036175904812666 L-78.32211668332188,56.01193721648273 L-78.23959614499425,55.98028876887243 L-78.16019230162978,55.94147777634483 " />
			<path d="M15.737456950674446,-3.2991670757723455 L24.416258713419438,-15.953401539322599 " />
			<path d="M24.41625871341944,-15.953401539322599 L24.462074863142018,-16.02682585396873 L24.50137078067926,-16.103936686032466 L24.53385212980226,-16.18415645613813 L24.55927561710014,-16.266884298188252 L24.57745081430845,-16.351500560000595 L24.588241584664353,-16.43737144465763 L24.59156710260497,-16.523853757803625 L24.587402459171027,-16.610299725330883 L24.57577884858116,-16.696061845369456 L24.55678333457943,-16.78049773823775 L24.53055819830617,-16.862974958026637 L24.497299872576725,-16.942875729777164 L24.457257470550644,-17.019601576769148 L24.410730919811954,-17.092577803261175 L24.35806871583669,-17.161257799105115 L24.299665311674836,-17.225127133992544 L24.235958163398525,-17.283707410666146 L24.167424453446884,-17.33655984823453 L24.094577516410496,-17.383288568750633 L24.0179629940272,-17.42354356243633 L23.938154748189316,-17.457023309343008 L23.855750562574844,-17.483477037811245 L23.77136766509855,-17.50270660281311 L23.685638104720848,-17.514567970107873 L23.599204017243345,-17.51897229509441 L23.512712815551453,-17.51588658827945 L23.426812340330294,-17.50533396237709 L23.342146007576318,-17.487393459188823 " />
			<path d="M23.342146007576318,-17.487393459188823 L0.36876392779494793,-11.570041774593816 " />
			<path d="M-78.16019230162978,55.94147777634483 L0.40029290365723114,13.142321267632276 " />
			<path d="M23.591578875522963,-16.519001366910125 L2.459219855204399,-11.075849818126997 " />
			<path d="M14.91967581094622,-3.8748256357172686 L23.591578875522963,-16.51900136691013 " />
			<path d="M-78.63859625174321,55.06333788970042 L-0.7293614351330291,12.61897765342055 " />
			<path d="M-15.876266327573724,-0.30568398665307583 L-78.63859625174322,55.063337889700435 " />
			<path d="M-4.5,120.0 L0.0,150.0 " />
			<path d="M0.0,150.0 L4.5,120.0 " />
			<path d="M4.5,120.0 L-8.881784197001252e-16,111.0 " />
			<path d="M0.0,111.0 L-4.500000000000001,120.0 " />
			<path d="M5.394427190999916,119.55278640450004 L0.8944271909999149,110.55278640450004 " />
			<path d="M5.488936352868298,120.14834045293024 L5.498116558045773,120.06134603943906 L5.499658871748148,119.97388218739596 L5.493551491721885,119.88661819679852 L5.479841153496476,119.80022183824379 L5.458632772749967,119.71535424294449 L5.430088642462267,119.63266484355198 L5.394427190999916,119.55278640450004 " />
			<path d="M0.894427190999914,110.55278640450004 L0.851362315493438,110.47542187640195 L0.8016228839790922,110.40216996405246 L0.745598846323579,110.33360495172838 L0.6837294227863742,110.27026437909595 L0.6164996605971451,110.21264482697858 L0.5444366312564292,110.16119802423566 L0.4681052983721733,110.1163273062746 L0.3881040884276969,110.07838445296007 L0.3050601992056057,110.0476669307114 L0.21962468264892954,110.02441556040937 L0.13246734070913052,110.0088126293957 L0.044271474196788896,110.00098046236701 L-0.04427147419679173,110.00098046236701 L-0.1324673407091333,110.0088126293957 L-0.21962468264893234,110.02441556040938 L-0.30506019920560834,110.0476669307114 L-0.38810408842769945,110.07838445296007 L-0.4681052983721758,110.1163273062746 L-0.5444366312564316,110.16119802423567 L-0.6164996605971473,110.21264482697858 L-0.6837294227863762,110.27026437909596 L-0.745598846323581,110.33360495172838 L-0.801622883979094,110.40216996405246 L-0.8513623154934395,110.47542187640195 L-0.8944271909999153,110.55278640450004 " />
			<path d="M-0.894427190999916,110.55278640450004 L-5.394427190999917,119.55278640450004 " />
			<path d="M-5.488936352868298,120.14834045293024 L-5.498116558045773,120.06134603943907 L-5.499658871748148,119.97388218739596 L-5.493551491721885,119.88661819679852 L-5.479841153496477,119.80022183824379 L-5.458632772749968,119.71535424294449 L-5.430088642462269,119.63266484355198 L-5.3944271909999175,119.55278640450004 " />
			<path d="M-5.488936352868298,120.14834045293024 L-0.988936352868298,150.14834045293026 " />
			<path d="M-0.988936352868297,150.14834045293026 L-0.9718682042408994,150.23552535656606 L-0.9471295575111635,150.32085136946677 L-0.9149156631687815,150.40364505359094 L-0.8754807703129053,150.48325295737567 L-0.8291361199837264,150.5590467731222 L-0.7762474886835034,150.63042829593266 L-0.7172323014748659,150.69683414505968 L-0.6525563374413547,150.75774021040533 L-0.5827300535124388,150.8126657890753 L-0.5083045556673379,150.86117737934055 L-0.4298672493150312,150.90289210206222 L-0.3480372031799636,150.93748072257657 L-0.26346026328411065,150.96467024918894 L-0.17680395558844292,150.98424608776884 L-0.08875221752484125,150.99605373544023 L8.326672684688674e-17,151.0 L0.08875221752484139,150.99605373544023 L0.176803955588443,150.98424608776884 L0.26346026328411076,150.96467024918894 L0.3480372031799638,150.93748072257657 L0.4298672493150313,150.90289210206222 L0.5083045556673379,150.86117737934055 L0.582730053512439,150.8126657890753 L0.6525563374413548,150.75774021040533 L0.717232301474866,150.69683414505968 L0.7762474886835032,150.63042829593266 L0.8291361199837265,150.5590467731222 L0.8754807703129055,150.48325295737567 L0.9149156631687816,150.40364505359094 L0.9471295575111635,150.32085136946677 L0.9718682042408995,150.23552535656606 L0.9889363528682971,150.14834045293026 " />
			<path d="M0.9889363528682976,150.14834045293026 L5.488936352868298,120.14834045293026 " />
			<path d="M0.0,111.0 L-4.500000000000001,120.0 " />
			<path d="M4.5,120.0 L-8.881784197001252e-16,111.0 " />
			<path d="M0.0,150.0 L4.5,120.0 " />
			<path d="M-4.5,120.0 L0.0,150.0 " />

       </g>
    </g>
    
</svg>
