<?xml version="1.0" encoding="UTF-8" standalone="no"?>
<svg
   xmlns:svg="http://www.w3.org/2000/svg"
   xmlns="http://www.w3.org/2000/svg"
   width="620.0"
   height="554.3933957431735"

>
    <g transform="scale(3.395772631077814, -3.395772631077814)   translate(79.22590833209463,-146.94483791655568)" stroke-width="0.5"  fill="none">
       <!-- hidden lines -->
       <g  stroke="rgb(160,160,160)" fill="none" stroke-dasharray="0.5,0.5" >

       </g>

       <!-- solid lines -->
       <g  stroke="rgb(0,0,0)" fill="none">
			<path d="M-13.113843876330613,3.5138438763306086 L-3.5138438763306112,-13.113843876330613 " />
			<path d="M-13.113843876330613,3.5138438763306086 L90.809204577802,63.513843876330625 " />
			<path d="M100.40920457780203,46.88615612366941 L90.80920457780203,63.513843876330625 " />
			<path d="M100.40920457780203,46.88615612366941 L-3.513843876330597,-13.113843876330606 " />
			<path d="M3.5516660498395396,-0.9516660498395417 L-0.9516660498395417,-3.551666049839543 " />
			<path d="M0.9516660498395404,3.5516660498395414 L3.5516660498395414,-0.9516660498395397 " />
			<path d="M-3.5516660498395396,0.9516660498395417 L0.9516660498395417,3.551666049839543 " />
			<path d="M-0.9516660498395404,-3.5516660498395414 L-3.5516660498395414,0.9516660498395397 " />
			<path d="M2.357525836204281,-13.370193414144364 L6.643134813429189,-7.249709495644499 " />
			<path d="M2.357525836204281,-13.370193414144364 L-0.4965026866067195,-11.371781128206578 " />
			<path d="M-7.249709495644505,-6.643134813429182 L-76.28107041553895,41.69314447555607 " />
			<path d="M-65.26840283759886,57.4208637259047 L0.4965026866067177,11.371781128206578 " />
			<path d="M-65.26840283759886,57.4208637259047 L-76.28107041553895,41.69314447555606 " />
			<path d="M-6.0,114.0 L6.0,114.0 " />
			<path d="M-6.0,114.0 L-6.0,144.0 " />
			<path d="M6.0,144.0 L6.0,114.0 " />
			<path d="M6.0,144.0 L-6.0,144.0 " />

       </g>
    </g>
    
</svg>
