<?xml version="1.0" encoding="UTF-8" standalone="no"?>
<svg
   xmlns:svg="http://www.w3.org/2000/svg"
   xmlns="http://www.w3.org/2000/svg"
   width="320.0"
   height="171.70018471483476"

>
    <g transform="scale(3.303927733565824, -3.303927733565824)   translate(46.54562705996505,-8.915190274290978)" stroke-width="0.5"  fill="none">
       <!-- hidden lines -->
       <g  stroke="rgb(160,160,160)" fill="none" stroke-dasharray="0.5,0.5" >

       </g>

       <!-- solid lines -->
       <g  stroke="rgb(0,0,0)" fill="none">
			<path d="M3.013767359847302,5.188179478460535 L2.852501926246864,5.278012029974306 L2.6880751123357336,5.3619950487822 L2.52066914960945,5.440035457905145 L2.3504695713044965,5.512046766459268 L2.177665006774913,5.577949165512312 L2.0024469724375233,5.6376696165345255 L1.8250096595174905,5.6911419323460635 L1.6455497188294148,5.738306850471125 L1.464266042832518,5.779112098817571 L1.2813595452014517,5.813512453609213 L1.0970329381570145,5.841469789506562 L0.911490507803588,5.862953121860522 L0.7249378877222452,5.8779386410521415 L0.5375818310704896,5.886409738880429 L0.3496299814411774,5.888357026968946 L0.16129064273457638,5.883778347170779 L-0.0272274517013531,5.872678773960386 L-0.21571537040666078,5.855070608809635 L-0.40396421536466054,5.830973366554295 L-0.5917653535201075,5.80041375376606 L-0.7789106480037384,5.763425639154111 L-0.9651926888068973,5.720050016028981 L-1.1504050226505815,5.67033495687036 L-1.334342381794174,5.614335560049162 L-1.5168009115302508,5.552113888762927 L-1.6975783961133581,5.483738902252199 L-1.8764744828723467,5.409286379374173 L-2.0532909042579055,5.328838834618227 L-2.2278316975791617,5.242485426656508 L-2.3999034221858713,5.150321859530855 L-2.5693153738554795,5.0524502765856045 L-2.7358797961474153,4.948979147263823 L-2.8994120884904167,4.840023146892445 L-3.0597310107722766,4.7257030295895115 L-3.216658884205241,4.60614549443439 L-3.3700217882444354,4.481483045049307 L-3.519649753341106,4.351853842747789 L-3.665376949317044,4.217401553412781 L-3.807041869151389,4.078275188274154 L-3.94448750797618,3.9346289387620397 L-4.077561537082235,3.7866220056190283 L-4.206116472742517,3.634418422460653 L-4.330009839665874,3.478186873979672 L-4.4491043289000425,3.3181005089956344 L-4.5632679500088695,3.154336748556919 L-4.672374177355111,2.987077089307956 L-4.7763020903266735,2.81650690233953 L-4.874936507350924,2.6428152277450865 L-4.968168113548508,2.466194565110734 L-5.055893581885197,2.2868406601711775 L-5.138015687687524,2.1049522878679943 L-5.214443416395261,1.920731032050668 L-5.285092064431349,1.7343810620645665 L-5.349883333077454,1.5461089064734659 L-5.408745415251123,1.3561232241674004 L-5.461613075088389,1.1646345731094845 L-5.508427720243584,0.9718551769780241 L-5.54913746682626,0.7779986899625617 L-5.5836971969032385,0.5832799599745133 L-5.612068608502064,0.3879147905348037 L-5.63422025806044,0.1921197016024041 L-5.650127595274608,-0.003888310391103822 L-5.6597729903080385,-0.199892013035055 L-5.663145753330279,-0.3956741786947102 " />
			<path d="M-1.6989406565930052,-2.6984456957341543 L-1.6955678935707637,-2.502663530074441 L-1.6859224985373338,-2.306659827430495 L-1.6700151613231657,-2.1106518154369924 L-1.6478635117647888,-1.9148567265045942 L-1.6194921001659655,-1.7194915570648839 L-1.5849323700889864,-1.5247728270768353 L-1.5442226235063092,-1.3309163400613735 L-1.4974079783511147,-1.1381369439299125 L-1.444540318513849,-0.9466482928719968 L-1.385678236340179,-0.7566626105659315 L-1.3208869676940749,-0.5683904549748309 L-1.2502383196579876,-0.38204048498872867 L-1.17381059095025,-0.19781922917140315 L-1.091688485147924,-0.01593085686821949 L-1.003963016811234,0.163423048071337 L-0.9107314106136508,0.34004371070568906 L-0.8120969935894005,0.5137353853001332 L-0.7081690806178367,0.6843055722685589 L-0.5990628532715956,0.851565231517522 L-0.48489923216276853,1.0153289919562374 L-0.3658047429286011,1.1754153569402752 L-0.2419113760052447,1.3316469054212559 L-0.11335644034496273,1.4838504885796318 L0.019717588761094085,1.6318574217226427 L0.15716322758588497,1.7755036712347572 L0.29882814742022923,1.9146300363733841 L0.4445553433961664,2.049082325708392 L0.5941833084928381,2.1787115280099103 L0.7475462125320314,2.303373977394993 L0.9044740859650009,2.422931512550118 L1.0647930082468644,2.5372516298530536 L1.2283253005898631,2.6462076302244286 L1.3948897228817936,2.7496787595462076 L1.5643016745514071,2.847550342491461 L1.7363733991581203,2.939713909617116 L1.910914192479371,3.026067317578833 L2.0877306138649256,3.1065148623347776 L2.2666267006239194,3.1809673852128055 L2.447404185207029,3.2493423717235332 L2.6298627149431044,3.311564043009769 L2.8138000740866933,3.367563439830964 L2.9990124079303806,3.417278498989586 L3.1852944487335417,3.4606541221147165 L3.3724397432171704,3.497642236726665 L3.560240881372614,3.5282018495148986 L3.7484897263306163,3.552299091770238 L3.936977645035929,3.569907256920991 L4.125495739471856,3.5810068301313835 L4.313835078178455,3.585585509929551 L4.501786927807771,3.583638221841033 L4.689142984459529,3.5751671240127445 L4.87569560454087,3.5601816048211257 L5.061238034894294,3.5386982724671663 L5.245564641938733,3.5107409365698157 L5.428471139569803,3.4763405817781736 L5.6097548155666965,3.4355353334317273 L5.78921475625477,3.3883704153066656 L5.966652069174805,3.3348980994951267 L6.141870103512197,3.275177648472912 L6.314674668041778,3.2092752494198695 L6.484874246346728,3.137263940865746 L6.652280209073015,3.059223531742801 L6.816707022984147,2.9752405129349055 L6.97797245658454,2.8854079614211603 " />
			<path d="M6.977972456584584,2.8854079614211345 L7.128819497727719,2.7942775488452956 L7.276469742545579,2.6979982537646974 L7.420774039293197,2.596667334567794 L7.561586616199635,2.490387152638653 L7.698765228722156,2.379265068954628 L7.832171303237294,2.2634133356335973 L7.961670077023676,2.1429489825403207 L8.087130734395181,2.0179936990664524 L8.208426538846936,1.8886737112036718 L8.325434961080642,1.7551196540340452 L8.43803780277991,1.6174664397664817 L8.546121316010566,1.4758531214525625 L8.649576318125334,1.3304227525194134 L8.74829830205678,1.181322242261527 L8.84218754188716,1.028702207437501 L8.931149193588471,0.872716820121612 L9.01509339083097,0.7135236519639205 L9.093935335763403,0.551283515016225 L9.167595384673167,0.3861602992846662 L9.23599912843996,0.21832080717306912 L9.299077467701586,0.047934584984277606 L9.356766682656009,-0.12482624835031153 L9.409008497429134,-0.29978717514002096 L9.455750138943325,-0.47677145522729547 L9.496944390227124,-0.6556003045251901 L9.532549638112409,-0.8360930756195657 L9.562529915270717,-1.0180674402535583 L9.586854936546358,-1.2013395735099945 L9.605500129549528,-1.3857243395056704 L9.6184466594786,-1.571035478409947 L9.625681448146452,-1.7570857945987068 L9.627197187191657,-1.9436873457536183 " />
			<path d="M-1.698940656593006,-2.6984456957341543 L-5.66314575333028,-0.39567417869477234 " />
			<path d="M-43.518926476170094,-26.18055956082864 L-5.663145753330262,-0.3956741786947582 " />
			<path d="M-35.1600087850328,-37.72384255628378 L-35.47522505150757,-37.411311474349255 L-35.78723765124997,-37.095340065787596 L-36.09601616392359,-36.77595913690777 L-36.40153048450625,-36.45319982643724 L-36.70375082622518,-36.12709360248596 L-37.00264772346115,-35.797672259478404 L-37.298192034621216,-35.464967915053684 L-37.590354944980035,-35.12901300693417 L-37.87910796948917,-34.78984028976287 L-38.16442295555427,-34.44748283191001 L-38.44627208577994,-34.10197401224889 L-38.72462788068183,-33.7533475169016 L-38.99946320136573,-33.401637335954696 L-39.270751252173675,-33.046877760145264 L-39.53846558329635,-32.68910337751763 L-39.80258009335185,-32.32834907005125 L-40.06306903193059,-31.964650010259653 L-40.31990700210581,-31.598041657761325 L-40.573068962909716,-31.228559755822484 L-40.82253023177496,-30.856240327872225 L-41.06826648694105,-30.481119673990225 L-41.310253769825664,-30.103234367367808 L-41.54846848736061,-29.72262125074194 L-41.78288741429197,-29.33931743280328 L-42.0134876954446,-28.953360284578235 L-42.24024684795038,-28.56478743578523 L-42.46314276344029,-28.17363677116609 L-42.6821537101998,-27.779946426792293 L-42.89725833528779,-27.383754786346824 L-43.108435666618306,-26.985100477381874 L-43.315665115005324,-26.58402236755283 L-43.51892647617001,-26.18055956082883 " />
			<path d="M32.74729242100332,-30.474653510411645 L33.11449655110758,-30.04942997783006 L33.477181155048186,-29.620105244894205 L33.83529673297684,-29.186737906617285 L34.188794408634124,-28.749387109754597 L34.53762593602022,-28.308112544731017 L34.881743705979666,-27.86297443749439 L35.22110075269909,-27.414033541295755 L35.55565076011722,-26.961351128397652 L35.88534806824615,-26.504988981711545 L36.21014767940315,-26.045009386365606 L36.530005264351985,-25.58147512120393 L36.84487716835303,-25.114449450218334 L37.15472041712143,-24.643996113914 L37.45949272269224,-24.17017932061006 L37.75915248919197,-23.69306373767631 L38.053658818515615,-23.212714482707387 " />
			<path d="M32.66602849230614,-35.30994310122161 L32.747292421003316,-30.474653510411635 " />
			<path d="M9.626730105419922,-1.8125452049680448 L43.31788594094106,-20.271056705003367 " />
			<path d="M43.31788594094106,-20.271056705003375 L47.282091037678335,-22.573828222042756 " />
			<path d="M9.627197187191776,-1.943687345753506 L47.282091037678335,-22.57382822204275 " />
			<path d="M-39.55472137943282,-28.483331077868023 L-1.6989406565929883,-2.69844569573414 " />
			<path d="M-31.195803688295527,-40.02661407332316 L-31.511019954770298,-39.714082991388636 L-31.823032554512693,-39.39811158282697 L-32.13181106718632,-39.07873065394715 L-32.43732538776898,-38.75597134347662 L-32.73954572948791,-38.42986511952533 L-33.03844262672388,-38.10044377651778 L-33.33398693788394,-37.767739432093066 L-33.62614984824276,-37.43178452397355 L-33.914902872751895,-37.09261180680225 L-34.200217858817,-36.75025434894938 L-34.482066989042664,-36.40474552928827 L-34.760422783944556,-36.05611903394097 L-35.035258104628454,-35.70440885299408 L-35.3065461554364,-35.34964927718464 L-35.574260486559076,-34.991874894557014 L-35.838374996614576,-34.631120587090635 L-36.098863935193314,-34.267421527299035 L-36.355701905368534,-33.9008131748007 L-36.60886386617244,-33.53133127286186 L-36.85832513503769,-33.1590118449116 L-37.104061390203775,-32.78389119102961 L-37.34604867308839,-32.40600588440719 L-37.584263390623335,-32.02539276778133 L-37.818682317554696,-31.642088949842663 L-38.04928259870733,-31.256131801617617 L-38.27604175121311,-30.867558952824613 L-38.498937666703014,-30.476408288205473 L-38.717948613462525,-30.082717943831675 L-38.933053238550514,-29.686526303386206 L-39.14423056988103,-29.287871994421256 L-39.35146001826805,-28.886793884592212 L-39.554721379432735,-28.48333107786821 " />
			<path d="M-26.60906033804347,-39.70170391033121 L-31.195803688295527,-40.02661407332315 " />
			<path d="M-34.35551551156244,-30.844214866048613 L-34.15064448003577,-31.15398152134308 L-33.943222339100764,-31.461817102683348 L-33.7332629719704,-31.767701005967456 L-33.5207804316797,-32.07161275772352 L-33.305788940145185,-32.37353201647988 L-33.08830288721289,-32.673438574126855 L-32.86833682969519,-32.97131235726924 L-32.645905490396636,-33.2671334285697 L-32.42102375712836,-33.560881988083445 L-32.19370668171165,-33.85253837458341 L-31.96396947897061,-34.14208306687608 L-31.731827525713605,-34.42949668510832 L-31.497296359704187,-34.71475999206437 L-31.260391678621147,-34.997853894453385 L-31.02112933900772,-35.27875944418757 L-30.77952535521031,-35.55745783965029 L-30.535595898306724,-35.83393042695442 L-30.289357295023656,-36.10815870119112 L-30.040826026643934,-36.380124307668275 L-29.790018727903544,-36.64980904313891 L-29.536952185877986,-36.917194857019794 L-29.281643338858856,-37.18226385259948 L-29.02410927522012,-37.44499828823613 L-28.764367232274232,-37.70538057854511 L-28.502434595118515,-37.96339329557598 L-28.238328895471547,-38.219019169978885 L-27.97206781049963,-38.472241092160594 L-27.703669161633652,-38.72304211342962 L-27.43315091337638,-38.9714054471305 L-27.160531172099866,-39.21731446976761 L-26.88582818483364,-39.46075272211763 L-26.609060338043786,-39.70170391033093 " />
			<path d="M1.1545109201093267,-7.603370191012299 L-34.355515511562444,-30.84421486604863 " />
			<path d="M1.1545109201093045,-7.603370191012177 L1.3155261060960024,-7.683794852280817 L1.4793303657323884,-7.758553266168894 L1.6457512122256608,-7.82756671165245 L1.8146134035025616,-7.890762517191089 L1.9857391267402522,-7.948074137251499 L2.158948185604201,-7.999441222380279 L2.33405818999592,-8.04480968275223 L2.510884748110751,-8.084131745127264 L2.6892416606034555,-8.11736600315587 L2.868941116657158,-8.144477460980244 L3.049793891749177,-8.165437570085105 L3.2316095469054935,-8.180224259359461 L3.414196629234047,-8.188821958337593 L3.597362873525692,-8.191221613594848 L3.780915404710527,-8.187420698280949 L3.9646609409564126,-8.177423214780774 L4.148405997195809,-8.161239690499833 L4.331957088866631,-8.138887166778842 L4.515120935652551,-8.110389180949104 L4.697704665008256,-8.075775741547565 L4.8795160152553,-8.035083296717655 L5.060363538034716,-7.988354695829203 L5.2400567999032,-7.935639144357797 L5.4184065828605785,-7.8769921520711605 L5.595225083597418,-7.812475474577047 L5.770326111252945,-7.742157048294258 L5.943525283475054,-7.666110918915198 L6.114640220575944,-7.5844171634353685 L6.283490737578946,-7.497161805831839 L6.449899033954296,-7.404436726479521 L6.61368988084408,-7.306339565400629 L6.774690805579183,-7.202973619449205 " />
			<path d="M42.14392255497895,-25.306263811319262 L6.774690805579155,-7.202973619449335 " />
			<path d="M36.7114975177406,-32.77742502745103 L37.088588045804535,-32.340623126600136 L37.46090940471578,-31.899496447970577 L37.82840798853869,-31.45410850392277 L38.191030885709246,-31.004523420343894 L38.54872588665306,-30.55080592741519 L38.90144149130242,-30.093021350292307 L39.24912691651116,-29.631235599699874 L39.59173210336627,-29.165515162441903 L39.92920772439523,-28.695927091829134 L40.26150519066817,-28.222538998024888 L40.58857665879343,-27.7454190383107 L40.910375037806055,-27.264635907273203 L41.22685399594783,-26.780258826913627 L41.53796796733796,-26.292357536681415 L41.84367215853357,-25.801002283433284 L42.1439225549789,-25.30626381131935 " />
			<path d="M36.630233589043414,-37.612714618260995 L36.71149751774059,-32.77742502745102 " />
			<path d="M47.28209103767835,-22.57382822204277 L47.02718835148104,-23.093870782036333 L46.76688181155803,-23.611304324940683 L46.5012040830514,-24.126063919462922 L46.2301885051187,-24.638084969856493 L45.95386908674928,-25.147303224027077 L45.67228050249673,-25.653654781595478 L45.38545808812749,-26.157076101916253 L45.093437836186816,-26.657504012051234 L44.79625639148207,-27.154875714697006 L44.49395104648431,-27.64912879606507 L44.18655973664859,-28.140201233714045 L43.87412103565349,-28.628031404332646 L43.55667415056062,-29.11255809147263 L43.23425891689469,-29.593720493230705 L42.90691579364459,-30.07145822987838 L42.57468585818637,-30.545711351438833 L42.23761080112848,-31.01642034520986 L41.895732921080224,-31.483526143231998 L41.54909511934372,-31.946970129700752 L41.19774089453043,-32.40669414832217 L40.84171433710258,-32.86264050961067 L40.48106012384039,-33.31475199812842 L40.11582351223572,-33.76297187966501 L39.74605033481284,-34.207243908356965 L39.371786993376986,-34.64751233374587 L38.99308045319157,-35.083721907774326 L38.609978237084626,-35.51581789171887 L38.22252841948533,-35.94374606305898 L37.83077962039123,-36.36745272228135 L37.434780999267076,-36.78688469961844 L37.03458224887594,-37.20198936172063 L36.63023358904349,-37.61271461826092 " />
			<path d="M5.3799926312863,-2.2020252631689083 L5.376851649042861,-2.3000247620652496 L5.367442639106325,-2.398036448536902 L5.351807350019348,-2.4956254367562334 L5.330015156831781,-2.592358716442149 L5.302162753277925,-2.687807074161944 L5.2683737227385725,-2.781546997786223 L5.228797989891482,-2.8731625556466818 L5.183611155483391,-2.962247242058759 L5.133013717175211,-3.0484057810204352 L5.077230179917596,-3.131255880084016 L5.016508059804207,-3.210429926618826 L4.951116785822664,-3.2855766189383653 L4.881346504376208,-3.3563625250544726 L4.807506791880504,-3.422473562142189 L4.7299252811478905,-3.483616390150807 L4.648946207653937,-3.539519713377543 L4.564928882136629,-3.5899354842286453 L4.478246096305387,-3.63464000382675 L4.3892824687339225,-3.6734349145809997 L4.29843273827633,-3.706148080315815 L4.206100012578671,-3.7326343500531123 L4.112693979457552,-3.7527762020590014 L4.0186290890819505,-3.766484265297283 L3.924322715024086,-3.773697715976007 L3.830193302338928,-3.7743845474275863 L3.736658510889436,-3.7685417121249873 L3.6441333621557646,-3.756195135203851 L3.553028397751188,-3.7373995994305607 L3.4637478578155587,-3.712238502126649 L3.376687887368916,-3.6808234851280934 L3.292234778583799,-3.6432939394214134 L3.210763256775452,-3.599816386654517 " />
			<path d="M3.2107632567754467,-3.5998163866545143 L3.1528554759696084,-3.5640887340941445 L3.0969023074660327,-3.52532245787955 L3.0430385473485635,-3.4836109493656555 L2.9913939581332327,-3.439054695229969 L2.942092956158991,-3.3917610353913696 L2.895254311857853,-3.3418439044188437 L2.850990863626519,-3.289423557053129 L2.8094092459888005,-3.2346262785025086 L2.770609632703705,-3.1775840802106856 L2.734685495438082,-3.118434381829653 L2.7017233785851866,-3.0573196801637117 L2.6718026907716577,-2.99438720588219 L2.6449955135551817,-2.929788568827867 L2.621366427773703,-2.863679392775577 L2.600972357964534,-2.796218940520911 L2.5838624352281543,-2.7275697302021893 L2.5700778788670875,-2.6578971437800285 L2.5596518970849926,-2.5873690286177182 L2.552609606985191,-2.5161552931222184 L2.5489679740613638,-2.444427497419924 L2.5487357713261947,-2.3723584400532944 L2.5519135581764107,-2.300121741694029 L2.5584936790451493,-2.227891426875664 L2.568460281844886,-2.155841504753225 L2.5817893561565057,-2.084145549899932 L2.598448791072503,-2.012976284150851 L2.61839845255497,-1.9425051605008632 L2.641590280122013,-1.8729019500593815 L2.6679684026296577,-1.8043343330568815 L2.6974692728703324,-1.7369674948885376 L2.730021820663657,-1.6709637281681347 L2.76554762407073,-1.6064820417509487 L2.8039610983194514,-1.5436777776674875 L2.845169701985734,-1.4827022368909324 L2.8890741599338963,-1.4237023148398402 L2.9355687024791672,-1.366820147494214 L2.9845413201961133,-1.31219276897748 L3.0358740337591583,-1.259951781429279 L3.0894431781651157,-1.2102230379643841 L3.145119700653008,-1.1631263394815252 L3.2027694716034745,-1.1187751460525315 L3.262253607668773,-1.0772763035870787 L3.3234288063549258,-1.038729786431536 L3.3861476912499837,-1.0032284565220069 L3.4502591670667098,-0.9708578396717926 L3.515608783644359,-0.9416959195322165 L3.582039108032645,-0.9158129497231777 L3.649390103761509,-0.893271284586026 L3.717499516382989,-0.8741252289664936 L3.7862032643563976,-0.8584209073895652 L3.855335834335131,-0.8461961529414546 L3.9247306799028117,-0.8374804161263905 L3.9942206227981973,-0.8322946939177678 L4.063638255662253,-0.8306514791746031 L4.132816345337142,-0.8325547305451408 L4.201588235745553,-0.8379998629301246 L4.269788249379786,-0.846973758528702 L4.33725208643338,-0.8594547984403553 L4.403817220613739,-0.8754129147467271 L4.469323290682206,-0.8948096629478708 L4.533612486778331,-0.9175983145784137 L4.596529930597649,-0.9437239697805282 L4.657924048507084,-0.9731236895624951 L4.71764693669909,-1.0057266474242423 " />
			<path d="M4.717646936699102,-1.0057266474242488 L4.7917349465320065,-1.0522162677481264 L4.862528933646918,-1.1036837839174438 L4.929747099143276,-1.1599243269869395 L4.993121877851966,-1.2207140287461922 L5.052401003391459,-1.2858109128378967 L5.107348512326385,-1.3549558579564933 L5.157745683431433,-1.4278736292930962 L5.2033919083218,-1.5042739741210063 L5.244105489984603,-1.5838527771607709 L5.279724366032654,-1.6662932711258096 L5.310106753801651,-1.7512672976299681 L5.335131714722959,-1.8384366134378949 L5.354699635725445,-1.927454236858653 L5.368732625750145,-2.0179658289231734 L5.377174825799397,-2.109611103847715 L5.3799926312863,-2.202025263168905 " />
			<path d="M-43.518926476170094,-26.18055956082864 L-39.55472137943282,-28.483331077868023 " />
			<path d="M32.66602849230614,-35.30994310122161 L36.630233589043414,-37.612714618260995 " />
			<path d="M-35.1600087850328,-37.72384255628377 L-31.195803688295527,-40.02661407332315 " />
			<path d="M32.74729242100332,-30.474653510411635 L36.7114975177406,-32.77742502745102 " />
			<path d="M6.977972456584584,2.885407961421148 L3.01376735984731,5.18817947846053 " />

       </g>
    </g>
    
</svg>
