<?xml version="1.0" encoding="UTF-8" standalone="no"?>
<svg
   xmlns:svg="http://www.w3.org/2000/svg"
   xmlns="http://www.w3.org/2000/svg"
   width="320.0"
   height="171.70018471483476"

>
    <g transform="scale(3.303927733565824, -3.303927733565824)   translate(46.54562705996505,-8.915190274290978)" stroke-width="0.5"  fill="none">
       <!-- hidden lines -->
       <g  stroke="rgb(160,160,160)" fill="none" stroke-dasharray="0.5,0.5" >

       </g>

       <!-- solid lines -->
       <g  stroke="rgb(0,0,0)" fill="none">
			<path d="M3.0137673598473103,5.188179478460531 L2.8986966524675486,5.253053970119338 L2.7819808001613504,5.314947109769523 L2.663686044593603,5.373823770180854 L2.5438795235300957,5.429650536115111 L2.422629232733722,5.482395723290792 L2.300003987373724,5.5320293963654015 L2.1760733829699013,5.578523385925158 L2.050907755893909,5.6218513044724325 L1.9245781434501061,5.66198856140189 L1.7971562435585866,5.698912376956795 L1.6687143740632848,5.732601795157576 L1.5393254316882408,5.763037695695325 L1.4090628506653178,5.7902028047834575 L1.2780005610568728,5.814081704961386 L1.146212946797016,5.834660843844647 L1.0137748034752645,5.851928541816509 L0.8807612958865891,5.865874998656696 L0.7472479153718903,5.8764922991034645 L0.6133104369731601,5.883774417345889 L0.4790248764276286,5.8877172204437835 L0.34446744702530596,5.888318470673341 L0.20971451635439697,5.88557782679714 L0.07484256295915959,5.879496844257821 L-0.06007186706522871,5.870078974295292 L-0.19495220351613396,5.857329561987995 L-0.32972189554061027,5.841255843219324 L-0.46430445508155493,5.821866940570927 L-0.5986235002882356,5.799173858145213 L-0.7326027988665467,5.773189475320018 L-0.8661663113443652,5.74392853943896 L-0.9992382342274797,5.711407657441628 L-1.1317430430215958,5.675645286438388 L-1.2636055350959996,5.636661723235102 L-1.3947508723645332,5.594479092813757 L-1.525104623759685,5.5491213357755065 L-1.6545928074756813,5.500614194753265 L-1.7831419329565854,5.448985199801581 L-1.9106790426056066,5.394263652772039 L-2.037131753191927,5.336480610683103 L-2.162428296931542,5.275668868093821 L-2.2864975622188055,5.211862938491384 L-2.4092691339855734,5.145099034703124 L-2.530673333665021,5.075415048344052 L-2.6506412587374713,5.002850528311599 L-2.7691048218357555,4.927446658339804 L-2.885996789387973,4.849246233625608 L-3.0012508197756627,4.7682936365406015 L-3.1148015009857453,4.684634811441971 L-3.226584387734881,4.598317238596943 L-3.3365360380451587,4.509389907235521 L-3.4445940492503633,4.417903287746835 L-3.550697093412392,4.323909303034838 L-3.6547849521276925,4.227461299049662 L-3.7567985507040103,4.128614014511312 L-3.8566799916880306,4.027423549842885 L-3.954372587724854,3.923947335330994 L-4.049820893730711,3.8182440985314074 L-4.142970738360621,3.7103738309384324 L-4.233769254753138,3.600397753936961 L-4.322164910534761,3.488378284056484 L-4.408107537066937,3.3743789975468284 L-4.491548357919093,3.258464594295673 L-4.572440016551542,3.140700861108352 L-4.650736603192497,3.0211546343707996 L-4.726393680894008,2.899893762116794 L-4.799368310751989,2.7769870655210513 L-4.869619076276045,2.652504299840008 L-4.937106106895252,2.526516114822476 L-5.001791100586546,2.399094014612639 L-5.0636373456129125,2.2703103171681254 L-5.122609741359,2.140238113216199 L-5.178674818252345,2.0089512247713914 L-5.231800756758909,1.8765241632380767 L-5.2819574054421405,1.7430320871217924 L-5.329116298075318,1.6085507593732962 L-5.3732506697974545,1.4731565043895698 L-5.414335472303593,1.3369261646961932 L-5.452347388060891,1.1999370573356376 L-5.4872648435423965,1.0622669299862406 L-5.5190680214710355,0.9239939168368074 L-5.54773887206682,0.7851964942418235 L-5.573261123290957,0.6459534361824817 L-5.595620290080965,0.5063437695587889 L-5.614803682571636,0.3664467293381293 L-5.630800413297115,0.22634171358575372 L-5.6436014033700435,0.08610823840268411 L-5.653199387634252,-0.05417410720337701 L-5.659588918788067,-0.19442570648849067 L-5.662766370475921,-0.33456696015867937 L-5.662729939346459,-0.4745183315462249 L-5.659479646076039,-0.6142003917504226 L-5.653017335356993,-0.7535338647171654 L-5.643346674850675,-0.8924396722317893 L-5.630473153105898,-1.0308389787996255 L-5.614404076443923,-1.1686532363888125 L-5.595148564811783,-1.3058042290099476 L-5.572717546606299,-1.4422141171072798 L-5.547123752471691,-1.5778054817362857 L-5.518381708074362,-1.712501368502518 L-5.486507725858896,-1.846225331236788 L-5.451519895789997,-1.9789014753819156 L-5.413438075085589,-2.1104545010664175 L-5.372283876946925,-2.240809745840681 L-5.328080658292091,-2.3698932270513655 L-5.280853506499873,-2.497631683829998 L-5.2306292251715,-2.6239526186719164 L-5.17743631891836,-2.7487843385819652 L-5.121304977184309,-2.8720559957636094 L-5.062267057111759,-2.9936976278283285 L-5.000356065461274,-3.113640197502534 L-4.935607139594922,-3.231815631809436 L-4.868057027534192,-3.3481568607035976 L-4.797744067103792,-3.462597855136316 L-4.724708164173145,-3.575073664530161 L-4.64899077000796,-3.68552045364145 L-4.570634857744713,-3.7938755387897176 L-4.489684898001402,-3.900077423433594 L-4.406186833638402,-4.004065833072968 L-4.320188053683754,-4.10578174945756 L-4.2317373664377005,-4.205167444082515 L-4.140884971771701,-4.302166510952009 L-4.047682432637685,-4.396723898592273 L-3.9521826458036706,-4.488785941295858 L-3.854439811832398,-4.578300389579421 L-3.754509404320001,-4.66521643983772 L-3.6524481384121597,-4.749484763177027 L-3.5483139386156135,-4.831057533411574 L-3.442165905923368,-4.90988845420709 " />
			<path d="M0.5220391908139494,-7.212659971246504 L0.4158911581216618,-7.133829050450958 L0.3117569583251161,-7.05225628021641 L0.2096956924172746,-6.967987956877103 L0.1097652849048818,-6.881071906618805 L0.012022450933612205,-6.791557458335248 L-0.08347733590040374,-6.699495415631661 L-0.17667987503442273,-6.604938027991395 L-0.2675322697004212,-6.507938961121901 L-0.35598295694647497,-6.408553266496947 L-0.4419817369011252,-6.306837350112353 L-0.525479801264126,-6.202848940472977 L-0.6064297610074352,-6.096647055829104 L-0.684785673270679,-5.988291970680841 L-0.7605030674358648,-5.87784518156955 L-0.833538970366515,-5.765369372175703 L-0.9038519307969146,-5.650928377742986 L-0.9714020428576449,-5.534587148848823 L-1.036150968723999,-5.41641171454192 L-1.0980619603744834,-5.296469144867712 L-1.1570998804470314,-5.174827512802997 L-1.213231222181081,-5.051555855621357 L-1.2664241284342204,-4.926724135711309 L-1.3166484097625943,-4.8004032008693915 L-1.3638755615548135,-4.672664744090756 L-1.4080787802096477,-4.543581262880069 L-1.4492329783483129,-4.413226018105806 L-1.4873147990527213,-4.281672992421305 L-1.5223026291216204,-4.148996848276176 L-1.5541766113370858,-4.015272885541906 L-1.5829186557344164,-3.880576998775672 L-1.608512449869024,-3.7449856341466634 L-1.6309434680745083,-3.6085757460493357 L-1.6501989797066479,-3.4714247534282063 L-1.6662680563686232,-3.3336104958390202 L-1.6791415781134011,-3.1952111892711828 L-1.688812238619719,-3.056305381756555 L-1.695274549338765,-2.916971908789806 L-1.698524842609185,-2.7772898485856086 L-1.6985612737386466,-2.637338477198063 L-1.6953838220507933,-2.4971972235278743 L-1.6889942908969768,-2.3569456242427615 L-1.6793963066327704,-2.216663278636699 L-1.6665953165598424,-2.07642980345363 L-1.6505985858343628,-1.936324787701254 L-1.631415193343691,-1.7964277474805947 L-1.6090560265536826,-1.656818080856902 L-1.5835337753295464,-1.51757502279756 L-1.5548629247337615,-1.378777600202576 L-1.5230597468051243,-1.2405045870531426 L-1.4881422913236166,-1.1028344597037463 L-1.45013037556632,-0.9658453523431905 L-1.4090455730601805,-0.8296150126498139 L-1.364911201338045,-0.694220757666087 L-1.3177523087048675,-0.5597394299175908 L-1.2675956600216356,-0.4262473538013072 L-1.214469721515072,-0.29382029226799267 L-1.1584046446217275,-0.16253340382318404 L-1.0994322488756394,-0.03246119987125784 L-1.0375860038492721,0.09632249757325528 L-0.9729010101579805,0.22374459778308786 L-0.9054139795387774,0.34973278280061537 L-0.8351632140147212,0.4742155484816588 L-0.76218858415674,0.5971222450774016 L-0.6865315064552275,0.7183831173314119 L-0.6082349198142705,0.8379293440689692 L-0.5273432611818212,0.9556930772562899 L-0.44390244032966386,1.0716074805074451 L-0.35795981379749175,1.1856067670170964 L-0.2695641580158723,1.2976262368975693 L-0.17876564162335562,1.4076023138990412 L-0.08561579699344612,1.5154725814920167 L0.009832509012410728,1.6211758182916034 L0.10752510504923496,1.7246520328034944 L0.2074065460332548,1.8258424974719216 L0.30942014460957257,1.924689782010272 L0.41350800332487214,2.0211377859954474 L0.5196110474869009,2.1151317707074457 L0.6276690586921054,2.2066183901961316 L0.7376207090023827,2.2955457215575534 L0.849403595751518,2.381863294402582 L0.9629542769616011,2.465522119501213 L1.07820830734929,2.5464747165862183 L1.195100274901507,2.6246751413004152 L1.3135638379997925,2.7000790112722117 L1.4335317630722417,2.7726435313046633 L1.5549359627516899,2.8423275176637373 L1.6777075345184578,2.9090914214519974 L1.8017767998057206,2.9728973510544336 L1.9270733435453353,3.0337090936437154 L2.0535260541316562,3.091492135732652 L2.1810631637806774,3.146213682762195 L2.309612289261583,3.1978426777138798 L2.439100472977582,3.2463498187361215 L2.5694542243727336,3.2917075757743732 L2.7005995616412677,3.333890206195719 L2.832462053715671,3.372873769399004 L2.964966862509787,3.4086361404022445 L3.0980387853928995,3.4411570223995755 L3.2316022978707153,3.470417958280635 L3.365581596449031,3.496402341105831 L3.4999006416557177,3.5190954235315455 L3.6344832011966592,3.5384843261799426 L3.769252893221133,3.5545580449486125 L3.9041332296720386,3.5673074572559096 L4.039047659696426,3.576725327218439 L4.1739196130916625,3.582806309757759 L4.308672543762567,3.585546953633959 L4.443229973164896,3.584945703404402 L4.577515533710432,3.581002900306508 L4.711453012109162,3.573720782064083 L4.844966392623861,3.5631034816173144 L4.977979900212534,3.5491570247771285 L5.110418043534282,3.5318893268052665 L5.24220565779414,3.5113101879220063 L5.373267947402584,3.487431287744078 L5.503530528425513,3.4602661786559445 L5.632919470800561,3.429830278118193 L5.761361340295861,3.396140859917413 L5.8887832401873785,3.35921704436251 L6.015112852631181,3.319079787433052 L6.140278479707173,3.2757518688857776 L6.264209084110995,3.229257879326022 L6.3868343294709895,3.1796242062514124 L6.508084620267363,3.1268790190757323 L6.6278911413308705,3.071052253141476 L6.746185896898616,3.0121755927301463 L6.862901749204813,2.950282453079963 L6.977972456584536,2.8854079614211767 " />
			<path d="M6.977972456584579,2.885407961421152 L7.121471381806584,2.7988823570923507 L7.262087023447295,2.707697812552429 L7.399690968273806,2.6119375994916427 L7.534157553399615,2.511689168199299 L7.6653639810426775,2.4070440677022797 L7.793190430666989,2.2980978621604877 L7.917520168405282,2.184950043595603 L8.038239653662902,2.0677039410328235 L8.155238642805529,1.9464666261385735 L8.268410289836034,1.8213488154403534 L8.37765124396855,1.6924647692180201 L8.482861744010638,1.5599321871588372 L8.58394570946735,1.423872100871589 L8.680810828284008,1.2844087633579027 L8.773368641147567,1.1416695355417357 L8.861534622269557,0.9957847699606339 L8.945228256576861,0.8468876917249908 L9.024373113239811,0.6951142768539977 L9.09889691547046,0.5406031280994221 L9.168731606527318,0.38349534837058963 L9.233813411866224,0.22393441187615837 L9.294082897380633,0.06206603310039638 L9.349485023678124,-0.10196196626644038 L9.399969196343564,-0.2679997923220525 L9.445489312143007,-0.4358958157471087 L9.486003801126174,-0.6054967102764204 L9.521475664589007,-0.7766475927197778 L9.551872508861706,-0.9491921644046197 L9.577166574891315,-1.1229728539113544 L9.59733476359188,-1.2978309609709613 L9.61235865693904,-1.4736068013935069 L9.622224534789769,-1.6501398528951787 L9.626923387411896,-1.8272689016906982 L9.626450923711989,-2.00483218971722 L9.620807575154073,-2.1826675623552783 L9.609998495365618,-2.3606126165118795 L9.594033555431118,-2.538504848930503 L9.572927334877619,-2.7161818045925794 L9.546699108360372,-2.8934812250749107 L9.515372828060809,-3.0702411967275554 L9.478977101812891,-3.2463002985368643 L9.437545166977815,-3.421497749538627 L9.391114860090946,-3.5956735556467088 L9.339728582308677,-3.768668655763104 L9.283433260686774,-3.940325067035947 L9.222280305325583,-4.1104860291328595 L9.15632556242122,-4.278996147397871 L9.085629263265618,-4.445701534761151 L9.010255969242014,-4.610449952272006 L8.9302745128661,-4.773090948126768 L8.845757934926704,-4.933475995064619 L8.756783417783343,-5.091458626005886 L8.663432214881647,-5.246894567808935 L8.565789576550959,-5.399641873023512 L8.463944672151893,-5.549561049520207 L8.35799050864496,-5.696515187877679 L8.2480238456546,-5.8403700864112835 L8.134145107106217,-5.98099437372894 L8.016458289516887,-6.118259628702325 L7.895070867023483,-6.252040497743804 L7.770093693235004,-6.3822148092820346 L7.641640899998647,-6.508663685331671 L7.5098297931721625,-6.631271650055304 L7.3747807454976195,-6.74992673521848 " />
			<path d="M0.5220391908139699,-7.212659971246521 L-3.442165905923304,-4.909888454207139 " />
			<path d="M-43.518926476170094,-26.180559560828634 L-43.01914174281083,-25.636085964153523 L-42.513797592496815,-25.097159365000635 L-42.00295968356319,-24.563849785004237 L-41.48669438813809,-24.036226515990847 L-40.96506878351877,-23.514358110976076 L-40.43815064345653,-22.99831237525781 L-39.906008429351154,-22.48815635760647 L-39.36871128135558,-21.983956341553338 L-38.826329009392786,-21.48577783677851 L-38.27893208408569,-20.99368557059953 L-37.72659162760074,-20.50774347956127 L-37.16937940440734,-20.028014701128868 L-36.60736781195371,-19.554561565484526 L-36.04062987126023,-19.08744558742889 L-35.469239217432055,-18.626727458388608 L-34.89327009009201,-18.172467038530982 L-34.31279732373451,-17.724723348986217 L-33.72789633800261,-17.283554564179013 L-33.138643127889026,-16.849018004270235 L-32.54511425386196,-16.42117012770916 L-31.94738683191792,-16.000066523898084 L-31.345538523562315,-15.585761905969804 L-30.739647525718794,-15.17831010367864 L-30.12979256056941,-14.777764056406518 L-29.516052865326536,-14.384175806284844 L-28.898508181937487,-13.997596491432489 L-28.277238746723896,-13.61807633931167 L-27.652325279956973,-13.245664660202053 L-27.023848975369383,-12.880409840793845 L-26.391891489606028,-12.52235933790103 L-25.756534931614716,-12.171559672295544 L-25.117861851977686,-11.82805642266272 L-24.79730753172003,-11.659054938113556 L-24.475955232186056,-11.491894219679452 L-24.153815391622775,-11.326579697117324 L-23.830898473858273,-11.16311674021545 L-23.507214967961986,-11.001510658619182 L-23.182775387903778,-10.841766701658287 L-22.857590272212548,-10.683890058176615 L-22.5316701836339,-10.527885856363397 L-22.205025708786884,-10.37375916358674 L-21.877667457820312,-10.221514986229025 L-21.549606064068097,-10.071158269524332 L-21.220852183703798,-9.922693897397735 L-20.891416495394495,-9.776126692306676 L-20.561309699953966,-9.631461415084388 L-20.230542519994973,-9.488702764785153 L-19.899125699581035,-9.347855378531676 L-19.567070003877582,-9.208923831364586 L-19.23438621880214,-9.0719126360937 L-18.901085150673904,-8.936826243151486 L-18.567177625862804,-8.803669040448426 L-18.232674490437958,-8.672445353230657 L-17.897586609815193,-8.543159443939338 L-17.561924868404194,-8.4158155120722 L-17.225700169254985,-8.290417694047228 L-16.88892343370362,-8.166970063068192 L-16.551605601017556,-8.045476628992375 L-16.213757628040383,-7.925941338200403 L-15.875390488835812,-7.80836807346796 L-15.536515174331221,-7.69276065383972 L-15.197142691960746,-7.579122834505256 L-14.857284065307525,-7.467458306677088 L-14.516950333745783,-7.357770697470755 L-14.176152552082304,-7.250063569787066 L-13.834901790197293,-7.144340422196336 L-13.493209132684647,-7.0406046888247005 L-13.15108567849203,-6.9388597392425595 L-12.808542540560456,-6.839108878355269 L-12.46559084546319,-6.741355346295627 L-12.122241733044316,-6.64560231831868 L-11.778506356057004,-6.551852904698656 L-11.434395879801045,-6.460110150627791 L-11.089921481760332,-6.370377036117532 L-10.745094351239828,-6.282656475901717 L-10.399925689001996,-6.196951319341878 L-10.054426706903044,-6.113264350334674 L-9.708608627528747,-6.03159828722152 L-9.362482683829764,-5.95195578270021 L-9.016060118756897,-5.874339423738796 L-8.669352184895967,-5.798751731491585 L-8.322370144102212,-5.725195161217215 L-7.9751252671344135,-5.6536721021988825 L-7.627628833288957,-5.584184877666786 L-7.2798921300332475,-5.51673574472256 L-6.931926452639186,-5.451326894266117 L-6.583743103816379,-5.387960450924339 L-6.235353393344824,-5.326638472982147 L-5.886768637707626,-5.267362952315608 L-5.538000159723432,-5.210135814327259 L-5.189059288178517,-5.154958917883519 L-4.839957357458883,-5.101834055254358 L-4.490705707182188,-5.0507629520550665 L-4.141315681829281,-5.001747267190197 L-3.791798630375752,-4.954788592799687 L-3.442165905923862,-4.909888454207191 " />
			<path d="M-35.1600087850328,-37.72384255628378 L-35.47522505150757,-37.411311474349255 L-35.78723765124997,-37.095340065787596 L-36.09601616392359,-36.77595913690777 L-36.40153048450625,-36.45319982643724 L-36.70375082622518,-36.12709360248596 L-37.00264772346115,-35.797672259478404 L-37.298192034621216,-35.464967915053684 L-37.590354944980035,-35.12901300693417 L-37.87910796948917,-34.78984028976287 L-38.16442295555427,-34.44748283191001 L-38.44627208577994,-34.10197401224889 L-38.72462788068183,-33.7533475169016 L-38.99946320136573,-33.401637335954696 L-39.270751252173675,-33.046877760145264 L-39.53846558329635,-32.68910337751763 L-39.80258009335185,-32.32834907005125 L-40.06306903193059,-31.964650010259653 L-40.31990700210581,-31.598041657761325 L-40.573068962909716,-31.228559755822484 L-40.82253023177496,-30.856240327872225 L-41.06826648694105,-30.481119673990225 L-41.310253769825664,-30.103234367367808 L-41.54846848736061,-29.72262125074194 L-41.78288741429197,-29.33931743280328 L-42.0134876954446,-28.953360284578235 L-42.24024684795038,-28.56478743578523 L-42.46314276344029,-28.17363677116609 L-42.6821537101998,-27.779946426792293 L-42.89725833528779,-27.383754786346824 L-43.108435666618306,-26.985100477381874 L-43.315665115005324,-26.58402236755283 L-43.51892647617001,-26.18055956082883 " />
			<path d="M38.17971745824168,-23.003492294279873 L37.82075785589004,-22.69267379363817 L37.45904605298187,-22.38523897738532 L37.09460835706451,-22.08121020546622 L36.72747127394136,-21.780609590101825 L36.357661505744105,-21.48345899418092 L35.98520594899067,-21.18978002967002 L35.61013169262896,-20.899594056041494 L35.23246601606673,-20.61292217872009 L34.852236387187475,-20.32978524754794 L34.46947046035271,-20.05020385526811 L34.08419607439064,-19.774198336026878 L33.69644125057143,-19.50178876389483 L33.306234190569185,-19.23299495140686 L32.91360327441082,-18.967836448121183 L32.518577058411964,-18.706332539197476 L32.121184273100276,-18.448502243994398 " />
			<path d="M32.74729242100332,-30.474653510411645 L33.12438294906726,-30.03785160956075 L33.496704307978504,-29.596724930931195 L33.86420289180142,-29.15133698688339 L34.22682578897197,-28.701751903304512 L34.584520789915786,-28.24803441037581 L34.93723639456515,-27.790249833252926 L35.284921819773885,-27.328464082660492 L35.627527006628995,-26.86274364540252 L35.96500262765796,-26.393155574789752 L36.29730009393089,-25.919767480985506 L36.624371562056155,-25.44264752127132 L36.94616994106878,-24.96186439023382 L37.262648899210554,-24.477487309874245 L37.57376287060069,-23.989586019642033 L37.8794670617963,-23.498230766393903 L38.179717458241626,-23.00349229427997 " />
			<path d="M32.666028492306125,-35.30994310122161 L32.747292421003316,-30.474653510411635 " />
			<path d="M8.986656137676686,-4.6596477156275995 L9.376151258407976,-4.6945675447633874 L9.76525101370719,-4.732106221226303 L10.153939390332308,-4.772262200127386 L10.542200391971495,-4.815033828863676 L10.93001803990136,-4.860419347186216 L11.317376373644489,-4.90841688727248 L11.704259451626474,-4.959024473803247 L12.090651351831866,-5.012240024043926 L12.476536172459316,-5.068061347930211 L12.861898032576189,-5.12648614815825 L13.246721072772097,-5.187512020279179 L13.630989455811477,-5.251136452798079 L14.014687367285582,-5.317356827277365 L14.397799016263196,-5.386170418444486 L14.780308635940383,-5.45757439430411 L15.162200484289528,-5.531565816254712 L15.543458844707134,-5.60814163920945 L15.92406802666067,-5.68729871172151 L16.304012366334263,-5.769033776113808 L16.683276227273296,-5.853343468613048 L17.06184400102809,-5.940224319488195 L17.439700107796142,-6.029672753193225 L17.81682899706323,-6.121685088514255 L18.193215148243493,-6.216257538721116 L18.568843071318188,-6.31338621172312 L18.94369730747312,-6.413067110229292 L19.317762429734852,-6.515296131912855 L19.691023043605586,-6.6200690695800475 L20.06346378769683,-6.727381611343283 L20.43506933436149,-6.83722934079865 L20.805824390324585,-6.9496077372075575 L21.17571369731279,-7.064512175682864 L21.544722032682326,-7.181937927379202 L21.91283421004543,-7.301880159687599 L22.280035079895367,-7.424333936434316 L22.646309530229825,-7.549294218084043 L23.011642487173052,-7.676755861947278 L23.37601891559602,-7.806713622392017 L23.73942381973519,-7.93916215105952 L24.101842243809717,-8.074095997084548 L24.463259272636964,-8.211509607319613 L24.823660032246313,-8.351397326563557 L25.18302969049128,-8.493753397794265 L25.541353457659884,-8.638571962405592 L25.89861658708349,-8.785847060448482 L26.254804375743543,-8.935572630876301 L26.609902164876623,-9.087742511794161 L26.963895340577835,-9.242350440712578 L27.31676933440221,-9.39939005480521 L27.668509623964244,-9.55885489117069 L28.019101733535575,-9.72073838709862 L28.368531234640674,-9.885033880339648 L28.716783746650787,-10.051734609379658 L29.063844937375652,-10.2208337137181 L29.40970052365327,-10.39232423415016 L29.754336271937856,-10.566199113053301 L30.097737998885542,-10.742451194677706 L30.439891571938105,-10.92107322544075 L30.780782909904598,-11.102057854225507 L31.120397983540812,-11.285397632683235 L31.45872281612674,-11.47108501554007 L31.795743484041733,-11.659112360907415 L32.13144611733741,-11.849471930596437 L32.465816900308184,-12.042155890436277 " />
			<path d="M7.374780745497624,-6.749926735218622 L7.855603883779985,-6.747287454095556 L8.336173552837092,-6.748576462745902 L8.81646020217244,-6.753793681907801 L9.29643429869251,-6.762938790771543 L9.776066328522834,-6.776011226999287 L10.255326798822889,-6.793010186759659 L10.73418623959941,-6.813934624777147 L11.21261520551868,-6.838783254396425 L11.690584277717239,-6.867554547661392 L12.168064065610675,-6.900246735409226 L12.645025208700947,-6.936857807379091 L13.121438378381821,-6.977385512335786 L13.597274279742166,-7.021827358208171 L14.07250365336738,-7.070180612242368 L14.5470972771387,-7.12244230116989 L15.021025968029932,-7.1786092113903806 L15.494260583901955,-7.238677889169253 L15.966772025294734,-7.302644640850048 L16.438531237216615,-7.370505533081598 L16.909509210931017,-7.442256393059864 L17.37967698574002,-7.517892808784488 L17.849005650765278,-7.597410129330157 L18.3174663467259,-7.680803465132541 L18.78503026771283,-7.768067688289001 L19.251668662960203,-7.859197432873863 L19.717352838613248,-7.954187095268381 L20.18205415949269,-8.053030834505307 L20.645744050855598,-8.155722572628108 L21.1083940001523,-8.262255995064606 L21.56997555877972,-8.372624551015313 L22.030460343830853,-8.486821453856294 L22.48982003983985,-8.604839681556378 L22.948026400523204,-8.72667197710905 L23.405051250516653,-8.85231084897859 L23.86086648710767,-8.981748571560829 L24.315444081963598,-9.114977185658134 L24.768756082854942,-9.25198849896882 L25.220774615374296,-9.392774086590926 L25.671471884650444,-9.537325291540284 L26.120820177057322,-9.685633225282814 L26.56879186191821,-9.837688768281083 L27.015359393204772,-9.993482570555074 L27.460495311230826,-10.153005052257143 L27.90417224434095,-10.316246404261072 L28.346362910593424,-10.483196588765217 L28.787040119437894,-10.653845339909736 L29.22617677338745,-10.82818216440792 L29.663745869684714,-11.006196342191359 L30.0997205019623,-11.187876927069127 L30.53407386189728,-11.373212747400885 L30.966779240859704,-11.562192406783844 L31.397810031554897,-11.754804284753554 L31.827139729659493,-11.95103653749834 L32.25474193545123,-12.150877098587692 L32.680590355432415,-12.354313679714252 L33.104658803946556,-12.561333771449384 L33.52692120478864,-12.77192464401233 L33.94735159280849,-12.986073348053097 L34.365924115507426,-13.203766715448623 L34.78261303462802,-13.424991360112536 L35.19739272773653,-13.64973367881823 L35.61023768979861,-13.877979852035374 L36.02112253474771,-14.109715844779679 L36.43002199704546,-14.344927407475652 " />
			<path d="M36.430021997045934,-14.344927407475929 L36.7975998782554,-14.560338104289038 L37.16351930771235,-14.778561269926897 L37.52776193136842,-14.999585958595922 L37.89030947928165,-15.22340108398177 L38.251143766532905,-15.449995419805362 L38.610246694138034,-15.679357600385956 L38.96760024995562,-15.911476121211322 L39.32318650959052,-16.146339339514732 L39.67698763729287,-16.38393547485895 L40.02898588685273,-16.624252609727137 L40.37916360249024,-16.867278690120642 L40.72750321974115,-17.11300152616353 L41.07398726633788,-17.361408792714123 L41.4185983630859,-17.61248802998312 L41.761319224735416,-17.866226644158615 L42.102132660848405,-18.122611908037804 L42.44102157666085,-18.381630961665266 L42.77796897394022,-18.64327081297816 L43.11295795183804,-18.90751833845769 L43.44597170773765,-19.174360283787607 L43.77699353809697,-19.44378326451877 L44.10600683928635,-19.715773766740718 L44.432995108421395,-19.990318147759346 L44.757941944190705,-20.267402636781284 L45.08083104767856,-20.547013335604646 L45.401646223182425,-20.829136219316055 L45.720371379025366,-21.113757136994202 L46.03699052836312,-21.400861812419606 L46.351487789986024,-21.69043584479067 L46.66384738911555,-21.98246470944602 L46.9740536581956,-22.27693375859309 L47.28209103767833,-22.573828222042742 " />
			<path d="M-39.55472137943282,-28.48333107786801 L-39.05493664607356,-27.938857481192898 L-38.54959249575954,-27.39993088204001 L-38.03875458682592,-26.86662130204361 L-37.52248929140082,-26.338998033030222 L-37.00086368678149,-25.81712962801545 L-36.47394554671926,-25.301083892297186 L-35.94180333261388,-24.790927874645845 L-35.404506184618306,-24.286727858592712 L-34.86212391265551,-23.788549353817885 L-34.314726987348415,-23.296457087638906 L-33.762386530863466,-22.810514996600645 L-33.20517430767006,-22.330786218168242 L-32.643162715216434,-21.8573330825239 L-32.076424774522955,-21.390217104468263 L-31.505034120694777,-20.929498975427983 L-30.929064993354732,-20.475238555570357 L-30.34859222699723,-20.02749486602559 L-29.76369124126533,-19.586326081218388 L-29.174438031151748,-19.15178952130961 L-28.580909157124683,-18.723941644748535 L-27.983181735180647,-18.30283804093746 L-27.38133342682504,-17.88853342300918 L-26.77544242898152,-17.481081620718015 L-26.165587463832136,-17.080535573445893 L-25.551847768589262,-16.68694732332422 L-24.934303085200213,-16.300368008471864 L-24.31303364998662,-15.920847856351045 L-23.6881201832197,-15.548436177241427 L-23.05964387863211,-15.18318135783322 L-22.427686392868754,-14.825130854940404 L-21.792329834877442,-14.474331189334919 L-21.153656755240412,-14.130827939702094 L-20.833102434982756,-13.96182645515293 L-20.511750135448782,-13.794665736718827 L-20.1896102948855,-13.6293512141567 L-19.866693377121,-13.465888257254825 L-19.54300987122471,-13.304282175658557 L-19.218570291166504,-13.144538218697662 L-18.893385175475274,-12.98666157521599 L-18.567465086896625,-12.830657373402772 L-18.24082061204961,-12.676530680626115 L-17.913462361083038,-12.5242865032684 L-17.585400967330823,-12.373929786563707 L-17.256647086966524,-12.22546541443711 L-16.92721139865722,-12.07889820934605 L-16.597104603216692,-11.934232932123763 L-16.2663374232577,-11.791474281824527 L-15.93492060284376,-11.650626895571051 L-15.602864907140308,-11.511695348403961 L-15.270181122064866,-11.374684153133074 L-14.93688005393663,-11.239597760190861 L-14.60297252912553,-11.106440557487801 L-14.268469393700684,-10.975216870270032 L-13.933381513077919,-10.845930960978713 L-13.59771977166692,-10.718587029111575 L-13.261495072517711,-10.593189211086603 L-12.924718336966347,-10.469741580107566 L-12.587400504280282,-10.34824814603175 L-12.24955253130311,-10.228712855239777 L-11.911185392098538,-10.111139590507335 L-11.572310077593947,-9.995532170879095 L-11.232937595223472,-9.88189435154463 L-10.89307896857025,-9.770229823716463 L-10.552745237008509,-9.66054221451013 L-10.21194745534503,-9.552835086826441 L-9.870696693460019,-9.447111939235711 L-9.529004035947374,-9.343376205864075 L-9.186880581754757,-9.241631256281934 L-8.844337443823182,-9.141880395394644 L-8.501385748725916,-9.044126863335002 L-8.158036636307042,-8.948373835358055 L-7.8143012593197305,-8.85462442173803 L-7.470190783063771,-8.762881667667166 L-7.125716385023058,-8.673148553156906 L-6.780889254502554,-8.585427992941092 L-6.4357205922647225,-8.499722836381252 L-6.09022161016577,-8.416035867374049 L-5.744403530791473,-8.334369804260895 L-5.39827758709249,-8.254727299739585 L-5.051855022019623,-8.17711094077817 L-4.705147088158693,-8.10152324853096 L-4.358165047364938,-8.02796667825659 L-4.010920170397139,-7.956443619238257 L-3.663423736551682,-7.886956394706161 L-3.315687033295973,-7.819507261761935 L-2.967721355901912,-7.754098411305492 L-2.6195380070791043,-7.690731967963714 L-2.27114829660755,-7.6294099900215215 L-1.9225635409703519,-7.570134469354983 L-1.5737950629861577,-7.512907331366634 L-1.2248541914412425,-7.457730434922894 L-0.8757522607216086,-7.4046055722937325 L-0.5265006104449133,-7.353534469094441 L-0.17711058509200628,-7.304518784229572 L0.1724064663615219,-7.257560109839062 L0.5220391908134121,-7.212659971246566 " />
			<path d="M-31.195803688295527,-40.02661407332316 L-31.511019954770298,-39.714082991388636 L-31.823032554512693,-39.39811158282697 L-32.13181106718632,-39.07873065394715 L-32.43732538776898,-38.75597134347662 L-32.73954572948791,-38.42986511952533 L-33.03844262672388,-38.10044377651778 L-33.33398693788394,-37.767739432093066 L-33.62614984824276,-37.43178452397355 L-33.914902872751895,-37.09261180680225 L-34.200217858817,-36.75025434894938 L-34.482066989042664,-36.40474552928827 L-34.760422783944556,-36.05611903394097 L-35.035258104628454,-35.70440885299408 L-35.3065461554364,-35.34964927718464 L-35.574260486559076,-34.991874894557014 L-35.838374996614576,-34.631120587090635 L-36.098863935193314,-34.267421527299035 L-36.355701905368534,-33.9008131748007 L-36.60886386617244,-33.53133127286186 L-36.85832513503769,-33.1590118449116 L-37.104061390203775,-32.78389119102961 L-37.34604867308839,-32.40600588440719 L-37.584263390623335,-32.02539276778133 L-37.818682317554696,-31.642088949842663 L-38.04928259870733,-31.256131801617617 L-38.27604175121311,-30.867558952824613 L-38.498937666703014,-30.476408288205473 L-38.717948613462525,-30.082717943831675 L-38.933053238550514,-29.686526303386206 L-39.14423056988103,-29.287871994421256 L-39.35146001826805,-28.886793884592212 L-39.554721379432735,-28.48333107786821 " />
			<path d="M-26.60906033804347,-39.70170391033121 L-31.195803688295527,-40.02661407332315 " />
			<path d="M-34.35551551156246,-30.84421486604861 L-34.15064448003581,-31.15398152134304 L-33.9432223391008,-31.461817102683312 L-33.733262971970404,-31.767701005967474 L-33.52078043167971,-32.0716127577235 L-33.305788940145206,-32.37353201647986 L-33.088302887212876,-32.673438574126884 L-32.868336829695195,-32.97131235726924 L-32.64590549039664,-33.2671334285697 L-32.42102375712835,-33.56088198808346 L-32.193706681711674,-33.852538374583396 L-31.963969478970622,-34.14208306687607 L-31.731827525713616,-34.42949668510831 L-31.49729635970421,-34.714759992064344 L-31.260391678621172,-34.997853894453364 L-31.02112933900771,-35.27875944418758 L-30.77952535521032,-35.557457839650276 L-30.535595898306735,-35.83393042695441 L-30.28935729502363,-36.10815870119115 L-30.040826026643938,-36.380124307668275 L-29.79001872790354,-36.649809043138916 L-29.536952185877976,-36.9171948570198 L-29.281643338858867,-37.18226385259947 L-29.024109275220123,-37.44499828823613 L-28.764367232274243,-37.70538057854512 L-28.50243459511854,-37.963393295575955 L-28.23832889547157,-38.21901916997887 L-27.97206781049962,-38.47224109216061 L-27.703669161633666,-38.723042113429614 L-27.433150913376394,-38.971405447130515 L-27.16053117209984,-39.217314469767636 L-26.885828184833645,-39.46075272211765 L-26.60906033804378,-39.70170391033094 " />
			<path d="M42.14392255497896,-25.306263811319248 L41.67580735088595,-24.902065309423676 L41.20303597647973,-24.50361940547176 L40.72566677253652,-24.110975268352668 L40.24375864721232,-23.72418135100785 L39.757371068773615,-23.343285384451875 L39.266564058258886,-22.968334371882364 L38.77139818207189,-22.599374582879655 L38.27193454450764,-22.23645154769713 L37.76823478021215,-21.879610051642693 L37.26036104657648,-21.528894129552157 L36.7483760160665,-21.184347060355314 L36.232342868488985,-20.846011361735208 L35.712325283195064,-20.51392878488138 L35.18838743122211,-20.188140309337697 L34.66059396737502,-19.868686137945488 L34.12901002224778,-19.555605691882462 " />
			<path d="M34.12901002224757,-19.555605691882334 L33.63881960841339,-19.274456202970775 L33.14555469378995,-18.998715925235715 L32.649266349318786,-18.728413407870896 L32.150005958976934,-18.463576637063163 L31.64782521445674,-18.2042330330949 L31.142776109813937,-17.950409447504995 L30.63491093608431,-17.702132160308764 L30.124282275869707,-17.459426877276968 L29.610942997893797,-17.222318727274356 L29.094946251528206,-16.990832259657914 L28.576345461289662,-16.764991441735077 L28.055194321308576,-16.544819656282264 L27.53154678976973,-16.33033969912391 L27.005457083325663,-16.121573776772223 L26.47697967148323,-15.918543504128053 L25.946169270964045,-15.721269902242938 L25.413080840039303,-15.529773396142645 L24.877769572839554,-15.344073812712459 L24.340290893640148,-15.164190378644335 L23.80070045112276,-14.990141718446274 L23.25905411261373,-14.821945852513991 L22.71540795829974,-14.659620195265155 L22.16981827542148,-14.503181553336333 L21.622341552445878,-14.352646123842916 L21.073034473217437,-14.208029492702103 L20.521953911089426,-14.069346633019222 L19.96915692303538,-13.936611903537454 L19.414700743741648,-13.809839047151137 L18.858642779681478,-13.689041189482943 L18.30104060317138,-13.574230837524837 L17.741951946410275,-13.46541987834319 L17.181434695502087,-13.362619577848008 L16.619546884462462,-13.265840579626506 L16.05634668921006,-13.175092903841112 L15.491892421543294,-13.09038594619198 L14.926242523102868,-13.011728476944278 L14.35945555932097,-12.939128640020044 L13.791590213357594,-12.87259395215505 L13.222705280024684,-12.812131302120534 L12.652859659698745,-12.75774695000996 L12.082112352222474,-12.709446526590852 L11.510522450796149,-12.667235032721834 L10.938149135859287,-12.631116838834863 L10.365051668963343,-12.601095684482686 L9.79128938663596,-12.57717467795166 L9.21692169423746,-12.55935629594002 L8.642008059810234,-12.547642383301351 L8.066608007921616,-12.542034152853596 L7.490781113500929,-12.542532185253535 L6.914586995671281,-12.549136428936599 L6.338085311576832,-12.561846200122282 L5.761335750206082,-12.580660182884856 L5.184398026211894,-12.605576429289705 L4.607331873728817,-12.6365923595949 L4.030197040188464,-12.673704762518447 L3.4530532801334415,-12.716909795570587 L2.8759603490305734,-12.766202985451798 L2.2989779970840187,-12.821579228515851 L1.7221659630489752,-12.883032791298248 L1.1455839680464939,-12.950557311109847 L0.5692917093801944,-13.024145796695663 L-0.006651145644597456,-13.103790628958649 L-0.582184965898592,-13.189483561748588 L-1.157250162602609,-13.281215722715928 L-1.7317871954970565,-13.37897761423028 L-2.305736579006571,-13.482759114363851 L-2.8790388883990916,-13.592549477939421 L-3.4516347659382633,-13.708337337642831 L-4.023464927029278,-13.83011070519997 L-4.594470166356939,-13.957856972617932 L-5.164591364015618,-14.091562913490442 L-5.733769491630288,-14.231214684367302 L-6.301945618468129,-14.376797826187612 L-6.869060917540012,-14.528297265776885 L-7.4350566716912505,-14.685697317407644 L-7.99987427968096,-14.848981684423478 L-8.563455262249413,-15.018133460926308 L-9.125741268172838,-15.193135133526823 L-9.686674080304797,-15.373968583157676 L-10.246195621603942,-15.560615086949568 L-10.80424796114691,-15.753055320169665 L-11.360773320126519,-15.951269358222461 L-11.91571407783378,-16.15523667871267 L-12.469012777623881,-16.364936163570064 L-13.02061213286498,-16.580346101236003 L-13.57045503286946,-16.801444188911255 L-14.11848454880705,-17.028207534865288 L-14.664643939599024,-17.260612660806345 L-15.208876657792839,-17.49863550431226 L-15.751126355416954,-17.742251421321853 L-16.29133688981501,-17.991435188686495 L-16.829452329458555,-18.2461610067816 L-17.36541695973791,-18.506402502177842 L-17.89917528873071,-18.77213273037171 L-18.430672052947525,-19.043324178575375 L-18.959852223053502,-19.319948768565183 L-19.486661009565797,-19.601977859588764 L-20.011043868526464,-19.889382251330375 L-20.532946507149767,-20.182132186934346 L-21.05231488944337,-20.480197356085867 L-21.569095241803,-20.783546898149233 L-22.08323405858007,-21.092149405363017 L-22.594678107621476,-21.405972926092048 L-23.10337443578108,-21.724984968135487 L-23.609270374402122,-22.049152502090905 L-24.112313544770526,-22.378441964774076 L-24.612451863538016,-22.712819262694097 L-25.109633548114612,-23.052249775583178 L-25.603807122029902,-23.396698359981116 L-26.094921420262867,-23.746129352873943 L-26.582925594539343,-24.10050657538642 L-27.06776911859668,-24.459793336527838 L-27.54940179341487,-24.823952436990766 L-28.027773752414173,-25.192946173002667 L-28.502835466618134,-25.566736340229596 L-28.97453774978157,-25.94528423773174 L-29.442831763483124,-26.328550671970326 L-29.907669022181803,-26.716495960865586 L-30.369001398237156,-27.109079937905427 L-30.826781126892183,-27.506261956304044 L-31.28096081121856,-27.90800089321027 L-31.731493427024144,-28.314255153965384 L-32.17833232772169,-28.724982676409724 L-32.62143124915843,-29.140140935237604 L-33.06074431440601,-29.559686946400163 L-33.49622603851053,-29.98357727155586 L-33.92783133320199,-30.411768022567983 L-34.355515511562075,-30.844214866048233 " />
			<path d="M36.7114975177406,-32.77742502745103 L37.088588045804535,-32.340623126600136 L37.46090940471578,-31.899496447970577 L37.82840798853869,-31.45410850392277 L38.191030885709246,-31.004523420343894 L38.54872588665306,-30.55080592741519 L38.90144149130242,-30.093021350292307 L39.24912691651116,-29.631235599699874 L39.59173210336627,-29.165515162441903 L39.92920772439523,-28.695927091829134 L40.26150519066817,-28.222538998024888 L40.58857665879343,-27.7454190383107 L40.910375037806055,-27.264635907273203 L41.22685399594783,-26.780258826913627 L41.53796796733796,-26.292357536681415 L41.84367215853357,-25.801002283433284 L42.1439225549789,-25.30626381131935 " />
			<path d="M36.6302335890434,-37.612714618260995 L36.71149751774059,-32.77742502745102 " />
			<path d="M47.28209103767834,-22.57382822204275 L47.027188351481016,-23.093870782036326 L46.766881811558015,-23.611304324940676 L46.50120408305139,-24.126063919462915 L46.23018850511869,-24.63808496985648 L45.95386908674928,-25.147303224027063 L45.672280502496726,-25.653654781595463 L45.38545808812749,-26.157076101916235 L45.09343783618681,-26.657504012051227 L44.79625639148205,-27.154875714697003 L44.493951046484305,-27.649128796065074 L44.18655973664858,-28.14020123371404 L43.874121035653474,-28.62803140433264 L43.5566741505606,-29.112558091472625 L43.234258916894674,-29.593720493230702 L42.90691579364458,-30.071458229878377 L42.57468585818637,-30.54571135143883 L42.23761080112848,-31.016420345209852 L41.895732921080224,-31.483526143231984 L41.54909511934371,-31.94697012970074 L41.197740894530426,-32.40669414832216 L40.841714337102566,-32.86264050961068 L40.48106012384038,-33.31475199812842 L40.115823512235714,-33.76297187966501 L39.746050334812836,-34.20724390835697 L39.37178699337697,-34.64751233374588 L38.99308045319155,-35.08372190777433 L38.60997823708462,-35.51581789171887 L38.22252841948533,-35.94374606305898 L37.830779620391226,-36.36745272228135 L37.43478099926707,-36.78688469961844 L37.034582248875935,-37.20198936172062 L36.630233589043485,-37.612714618260924 " />
			<path d="M5.3799926312863,-2.2020252631689083 L5.376851649042861,-2.3000247620652496 L5.367442639106325,-2.398036448536902 L5.351807350019348,-2.4956254367562334 L5.330015156831781,-2.592358716442149 L5.302162753277925,-2.687807074161944 L5.2683737227385725,-2.781546997786223 L5.228797989891482,-2.8731625556466818 L5.183611155483391,-2.962247242058759 L5.133013717175211,-3.0484057810204352 L5.077230179917596,-3.131255880084016 L5.016508059804207,-3.210429926618826 L4.951116785822664,-3.2855766189383653 L4.881346504376208,-3.3563625250544726 L4.807506791880504,-3.422473562142189 L4.7299252811478905,-3.483616390150807 L4.648946207653937,-3.539519713377543 L4.564928882136629,-3.5899354842286453 L4.478246096305387,-3.63464000382675 L4.3892824687339225,-3.6734349145809997 L4.29843273827633,-3.706148080315815 L4.206100012578671,-3.7326343500531123 L4.112693979457552,-3.7527762020590014 L4.0186290890819505,-3.766484265297283 L3.924322715024086,-3.773697715976007 L3.830193302338928,-3.7743845474275863 L3.736658510889436,-3.7685417121249873 L3.6441333621557646,-3.756195135203851 L3.553028397751188,-3.7373995994305607 L3.4637478578155587,-3.712238502126649 L3.376687887368916,-3.6808234851280934 L3.292234778583799,-3.6432939394214134 L3.210763256775452,-3.599816386654517 " />
			<path d="M3.2107632567754467,-3.5998163866545143 L3.1528554759696084,-3.5640887340941445 L3.0969023074660327,-3.52532245787955 L3.0430385473485635,-3.4836109493656555 L2.9913939581332327,-3.439054695229969 L2.942092956158991,-3.3917610353913696 L2.895254311857853,-3.3418439044188437 L2.850990863626519,-3.289423557053129 L2.8094092459888005,-3.2346262785025086 L2.770609632703705,-3.1775840802106856 L2.734685495438082,-3.118434381829653 L2.7017233785851866,-3.0573196801637117 L2.6718026907716577,-2.99438720588219 L2.6449955135551817,-2.929788568827867 L2.621366427773703,-2.863679392775577 L2.600972357964534,-2.796218940520911 L2.5838624352281543,-2.7275697302021893 L2.5700778788670875,-2.6578971437800285 L2.5596518970849926,-2.5873690286177182 L2.552609606985191,-2.5161552931222184 L2.5489679740613638,-2.444427497419924 L2.5487357713261947,-2.3723584400532944 L2.5519135581764107,-2.300121741694029 L2.5584936790451493,-2.227891426875664 L2.568460281844886,-2.155841504753225 L2.5817893561565057,-2.084145549899932 L2.598448791072503,-2.012976284150851 L2.61839845255497,-1.9425051605008632 L2.641590280122013,-1.8729019500593815 L2.6679684026296577,-1.8043343330568815 L2.6974692728703324,-1.7369674948885376 L2.730021820663657,-1.6709637281681347 L2.76554762407073,-1.6064820417509487 L2.8039610983194514,-1.5436777776674875 L2.845169701985734,-1.4827022368909324 L2.8890741599338963,-1.4237023148398402 L2.9355687024791672,-1.366820147494214 L2.9845413201961133,-1.31219276897748 L3.0358740337591583,-1.259951781429279 L3.0894431781651157,-1.2102230379643841 L3.145119700653008,-1.1631263394815252 L3.2027694716034745,-1.1187751460525315 L3.262253607668773,-1.0772763035870787 L3.3234288063549258,-1.038729786431536 L3.3861476912499837,-1.0032284565220069 L3.4502591670667098,-0.9708578396717926 L3.515608783644359,-0.9416959195322165 L3.582039108032645,-0.9158129497231777 L3.649390103761509,-0.893271284586026 L3.717499516382989,-0.8741252289664936 L3.7862032643563976,-0.8584209073895652 L3.855335834335131,-0.8461961529414546 L3.9247306799028117,-0.8374804161263905 L3.9942206227981973,-0.8322946939177678 L4.063638255662253,-0.8306514791746031 L4.132816345337142,-0.8325547305451408 L4.201588235745553,-0.8379998629301246 L4.269788249379786,-0.846973758528702 L4.33725208643338,-0.8594547984403553 L4.403817220613739,-0.8754129147467271 L4.469323290682206,-0.8948096629478708 L4.533612486778331,-0.9175983145784137 L4.596529930597649,-0.9437239697805282 L4.657924048507084,-0.9731236895624951 L4.71764693669909,-1.0057266474242423 " />
			<path d="M4.717646936699102,-1.0057266474242488 L4.7917349465320065,-1.0522162677481264 L4.862528933646918,-1.1036837839174438 L4.929747099143276,-1.1599243269869395 L4.993121877851966,-1.2207140287461922 L5.052401003391459,-1.2858109128378967 L5.107348512326385,-1.3549558579564933 L5.157745683431433,-1.4278736292930962 L5.2033919083218,-1.5042739741210063 L5.244105489984603,-1.5838527771607709 L5.279724366032654,-1.6662932711258096 L5.310106753801651,-1.7512672976299681 L5.335131714722959,-1.8384366134378949 L5.354699635725445,-1.927454236858653 L5.368732625750145,-2.0179658289231734 L5.377174825799397,-2.109611103847715 L5.3799926312863,-2.202025263168905 " />
			<path d="M-43.518926476170094,-26.18055956082864 L-39.55472137943282,-28.483331077868023 " />
			<path d="M32.666028492306125,-35.30994310122161 L36.6302335890434,-37.612714618260995 " />
			<path d="M-35.1600087850328,-37.72384255628377 L-31.195803688295527,-40.02661407332315 " />
			<path d="M32.74729242100332,-30.474653510411635 L36.7114975177406,-32.77742502745102 " />
			<path d="M38.179717458241676,-23.00349229427988 L42.14392255497895,-25.306263811319262 " />
			<path d="M6.977972456584584,2.885407961421148 L3.01376735984731,5.18817947846053 " />
			<path d="M36.43002199704593,-14.344927407475941 L32.46581690030865,-12.04215589043656 " />

       </g>
    </g>
    
</svg>
