<?xml version="1.0" encoding="UTF-8" standalone="no"?>
<svg
   xmlns:svg="http://www.w3.org/2000/svg"
   xmlns="http://www.w3.org/2000/svg"
   width="320.0"
   height="171.70018471483476"

>
    <g transform="scale(3.303927733565824, -3.303927733565824)   translate(46.54562705996506,-8.915190274290978)" stroke-width="0.5"  fill="none">
       <!-- hidden lines -->
       <g  stroke="rgb(160,160,160)" fill="none" stroke-dasharray="0.5,0.5" >

       </g>

       <!-- solid lines -->
       <g  stroke="rgb(0,0,0)" fill="none">
			<path d="M38.17971745824169,-23.003492294279887 L37.89408667254737,-22.63354446818923 L37.6047522670149,-22.26680708597995 L37.31174249327371,-21.903315957180475 L37.015085961829115,-21.54310657434361 L36.71481163926868,-21.18621410958096 L36.410948845433815,-20.832673411128575 L36.10352725055692,-20.482518999944247 L35.79257687236423,-20.13578506633676 L35.47812807314481,-19.792505466627425 L35.160211556785846,-19.45271371984426 L34.83885836577464,-19.11644300444904 L34.514099878167514,-18.783726155097632 L34.1859678045259,-18.45459565943394 L33.854494184820076,-18.12908365491765 L33.5197113853006,-17.807221925686264 L33.181652095338016,-17.48904189945155 L32.84034932423092,-17.174574644430827 L32.495836397982806,-16.8638508663134 L32.14814695604804,-16.556900905262296 L31.797314948047116,-16.253754732951762 L31.44337463045177,-15.954441949640739 L31.086360563240014,-15.658991781282573 L30.726307606521576,-15.367433076671297 L30.363250917134057,-15.079794304624713 L29.997225945210094,-14.796103551204645 L29.628268430715877,-14.516388516974494 L29.256414399961365,-14.240676514294393 L28.881700162082538,-13.968994464654457 L28.504162305496084,-13.701368896045935 L28.123837694326756,-13.43782594037107 L27.74076346480782,-13.178391330891337 L27.354977021655145,-12.923090399715008 " />
			<path d="M32.74729242100332,-30.474653510411645 L33.12438294906726,-30.03785160956075 L33.496704307978504,-29.596724930931195 L33.86420289180142,-29.15133698688339 L34.22682578897197,-28.701751903304512 L34.584520789915786,-28.24803441037581 L34.93723639456515,-27.790249833252926 L35.284921819773885,-27.328464082660492 L35.627527006628995,-26.86274364540252 L35.96500262765796,-26.393155574789752 L36.29730009393089,-25.919767480985506 L36.624371562056155,-25.44264752127132 L36.94616994106878,-24.96186439023382 L37.262648899210554,-24.477487309874245 L37.57376287060069,-23.989586019642033 L37.8794670617963,-23.498230766393903 L38.179717458241626,-23.00349229427997 " />
			<path d="M32.666028492306125,-35.3099431012216 L32.747292421003316,-30.47465351041163 " />
			<path d="M9.166300393495296,0.3891929464285866 L9.78271559426213,0.31336076843985694 L10.39770915751894,0.2298010970289397 L11.011193405596346,0.13852584503145238 L11.623080876003094,0.03954802526878609 L12.2332843338954,-0.06711825130718552 L12.841716784513928,-0.18145777762588722 L13.448291485586045,-0.30345425266597914 L14.052921959692549,-0.4330902837793502 L14.655522006596572,-0.5703473891708271 L15.256005715532739,-0.7152060005329872 L15.854287477455179,-0.8676454658359134 L16.450281997242545,-1.0276440522715689 L17.0439043058584,-1.1951789493521616 L17.635069772464885,-1.3702262721621352 L18.223694116488186,-1.5527610647633523 L18.809693419634197,-1.7427573037530237 L19.39298413785263,-1.9401879019737436 L19.973483113247486,-2.1450247123752817 L20.551107585932556,-2.3572385320273312 L21.12577520583029,-2.576799106282934 L21.697404044412355,-2.8036751330917866 L22.26591260637963,-3.0378342674628556 L22.831219841280866,-3.279243126075677 L23.393245155067934,-3.5278672920398293 L23.951908421585596,-3.7836713198014564 L24.50712999399496,-4.046618740196735 L25.058830716128597,-4.3166720656512325 L25.606931933775357,-4.593792795524223 L26.151355505893942,-4.877941421597697 L26.692023815753366,-5.169077433708985 L27.228859781998274,-5.467159325526026 L27.761786869637923,-5.772144600464621 " />
			<path d="M3.0137673598473103,5.188179478460531 L2.8564719777272587,5.275891051161709 L2.696163286341513,5.358037055037704 L2.533010396281354,5.434530833780821 L2.367185418500143,5.505291693649249 L2.1988632827524626,5.570244988591376 L2.0282215530596726,5.62932219899034 L1.8554402403965728,5.682461003945786 L1.680701612796753,5.729605347016555 L1.5041900030769635,5.770705495354962 L1.3260916143833288,5.805718092170255 L1.146594323764545,5.834606202465972 L0.9658874839792604,5.857339352002875 L0.7841617237467307,5.873893559446415 L0.601608746651443,5.88425136166477 L0.41842112891387595,5.888401832150827 L0.2347921162406834,5.886340592548602 L0.05091541996866855,5.878069817272001 L-0.1330149872824662,5.863598231211018 L-0.3168050762329937,5.842941100527794 L-0.5002609656257886,5.816120216552258 L-0.6831891267528283,5.783163872794312 L-0.8653965876097733,5.744106835096854 L-1.0466911364632834,5.698990304961068 L-1.2268815246163145,5.6478618760827315 L-1.4057776681575116,5.590775484145329 L-1.5831908484818462,5.527791349922987 L-1.758933911371009,5.45897591575322 L-1.9328214644234853,5.3844017754465145 L-2.1046700726261305,5.304147597706684 L-2.274298451860835,5.218298043142784 L-2.441527660142217,5.12694367496014 L-2.60618128638459,5.0301808634246825 L-2.7680856364990785,4.928111684201374 L-2.927069916624532,4.820843810673981 L-3.0829664132989723,4.708490400359803 L-3.235610670381549,4.591169975539108 L-3.3848416625382836,4.4690062982252865 L-3.5305019651086447,4.342128239607579 L-3.672437920173775,4.210669644104071 L-3.8104997986511364,4.074769188168429 L-3.9445419582445984,3.9345702339993 L-4.074422997083373,3.7902206783066608 L-4.200005902887694,3.6418727962946957 L-4.321158197503875,3.489683081025787 L-4.437752076656297,3.3338120783350575 L-4.549664544768907,3.174424217469614 L-4.656777544713986,3.0116876376311414 L-4.758978082351308,2.8457740106048712 L-4.856158345726325,2.6768583596620052 L-4.948215818801644,2.5051188749266142 L-5.0350533896018135,2.3307367254018136 L-5.116579452657309,2.1538958678535063 L-5.192708005639692,1.9747828527533136 L-5.263358740085977,1.7935866274853631 L-5.328457126116513,1.6104983370245562 L-5.387934491056988,1.4257111222966146 L-5.441728091881645,1.239419916432573 L-5.489781181401268,1.051821239132656 L-5.532043068126141,0.8631129893564669 L-5.568469169740787,0.6734942365582055 L-5.599021060134131,0.48316501068713524 L-5.623666509935419,0.29232609117478203 L-5.642379520513188,0.10117879513151706 L-5.655140351401361,-0.09007523502400439 " />
			<path d="M-43.51892647617011,-26.18055956082867 L-43.317131274511844,-25.862833984366322 L-43.11336235187409,-25.546391012621722 L-42.90762903356508,-25.23124512733334 L-42.69994073479187,-24.9174107508796 L-42.49030696022962,-24.604902245618952 L-42.27873730358645,-24.29373391323249 L-42.06524144716443,-23.983919994069375 L-41.84982916141646,-23.67547466649523 L-41.63251030449925,-23.36841204624335 L-41.41329482182207,-23.06274618576861 L-41.19219274559159,-22.75849107360433 L-40.969214194352794,-22.45566063372213 L-40.74436937252595,-22.154268724894834 L-40.51766856993962,-21.854329140062127 L-40.289122161359636,-21.55585560569928 L-40.0587406060144,-21.25886178118901 L-39.82653444711627,-20.963361258196493 L-39.592514311379006,-20.669367560047263 L-39.3566909085314,-20.376894141108203 L-39.119075030827176,-20.085954386171977 L-38.87967755255118,-19.79656160984451 L-38.638509429521704,-19.508729055935554 L-38.39558169858896,-19.222469896852623 L-38.15090547713012,-18.93779723299813 L-37.90449196254053,-18.654724092169992 L-37.6563524317213,-18.373263428965366 L-37.40649824056311,-18.093428124187653 L-37.15494082342655,-17.815230984257163 L-36.90169169261895,-17.53868474062508 L-36.64676243786746,-17.263802049190723 L-36.39016472578859,-16.990595489722367 L-36.131910299354324,-16.719077565281495 L-35.872010977354854,-16.449260701650793 L-35.61047865385754,-16.181157246765352 L-35.347325297662636,-15.914779470147515 L-35.08256295175548,-15.650139562345466 L-34.81620373275556,-15.387249634375408 L-34.54825983036184,-15.126121717167216 L-34.27874350679492,-14.866767761013797 L-34.007667096235835,-14.60919963502429 L-33.73504300426177,-14.353429126580899 L-33.46088370727817,-14.09946794079945 L-33.18520175194779,-13.847327699993599 L-32.90800975461646,-13.597019943143039 L-32.62932040073591,-13.348556125365477 L-32.34914644428302,-13.101947617392362 L-32.06750070717623,-12.857205705048422 L-31.784396078688697,-12.614341588735243 L-31.499845514858553,-12.373366382918803 L-31.213862037895943,-12.134291115620677 L-30.92645873558691,-11.897126727913381 L-30.637648760694635,-11.66188407341965 L-30.34744533035747,-11.428573917815847 L-30.055861725484107,-11.197206938339171 L-29.762911290145606,-10.967793723299017 L-29.468607430964862,-10.740344771592426 L-29.1729636165031,-10.514870492223693 L-28.875993376643457,-10.291381203827946 L-28.5777103019717,-10.069887134198858 L-28.278128043154332,-9.850398419820642 L-27.977260310313984,-9.632925105404233 L-27.67512087240183,-9.417477143427483 L-27.371723556567556,-9.204064393679765 L-27.067082247526564,-8.992696622810747 L-26.761210886924445,-8.783383503883364 L-26.45412347269905,-8.57613461593116 L-26.145834058439934,-8.37095944352 L-25.836356752745107,-8.16786737631395 L-25.525705718575406,-7.966867708645545 L-25.213895172606374,-7.767969639090509 L-24.90093938457753,-7.571182270046684 L-24.586852676639396,-7.3765146073175245 L-24.27164942269815,-7.183975559700052 L-23.955344047757716,-6.993573938577022 L-23.63795102725957,-6.805318457513671 L-23.31948488642035,-6.619217731859003 L-22.999960199567166,-6.435280278351577 L-22.67939158947061,-6.2535145147296305 L-22.3577937266754,-6.073928759345897 L-22.035181328829132,-5.89653123078687 L-21.7115691600088,-5.721330047496828 L-21.386972030045033,-5.548333227406182 L-21.0614047938443,-5.3775486875645555 L-20.734882350709135,-5.208984243778438 L-20.407419643656347,-5.042647610253631 L-20.079031658733133,-4.878546399242104 L-19.74973342433114,-4.716688120693625 L-19.4195400104988,-4.557080181912092 L-19.08846652825173,-4.399729887216608 L-18.75652812888112,-4.244644437607114 L-18.42374000326027,-4.091830930434874 L-18.090117381149433,-3.9412963590776755 L-17.755675530499005,-3.793047612619766 L-17.42042975675061,-3.6470914755366906 L-17.084395402136693,-3.5034346273845642 L-16.747587844978366,-3.362083642494646 L-16.410022498981792,-3.22304498967231 L-16.07171481253269,-3.0863250319010973 L-15.732680267989258,-2.9519300260514356 L-15.392934380973712,-2.819866122594348 L-15.052492699662347,-2.690139365319986 L-14.711370804073853,-2.5627556910610707 L-14.369584305356296,-2.437720929421083 L-14.027148845072675,-2.315040802507575 L-13.68408009448527,-2.194720924670314 L-13.340393753838354,-2.0767668022443146 L-12.996105551639564,-1.9611838332977882 L-12.651231243940208,-1.847977307385186 L-12.305786613614307,-1.7371524053051175 L-11.959787469636202,-1.6287141988632783 L-11.613249646356971,-1.5226676506402086 L-11.266189002779901,-1.419017613764332 L-10.918621421834773,-1.3177688316898255 L-10.570562809650914,-1.2189259379795203 L-10.22202909482919,-1.122493456092819 L-9.87303622771312,-1.0284757991786861 L-9.523600179659036,-0.936877269873797 L-9.17373694230505,-0.8477020601055116 L-8.823462526839121,-0.7609542509000562 L-8.472792963266437,-0.6766378121957572 L-8.121744299675884,-0.5947566026614197 L-7.770332601505521,-0.515314369519686 L-7.418573950807287,-0.4383147483755252 L-7.06648444551111,-0.3637612630499021 L-6.714080198688267,-0.2916573254184982 L-6.361377337813918,-0.22200623525558427 L-6.008392004028954,-0.1548111800829659 L-5.655140351401839,-0.09007523502420867 " />
			<path d="M-35.1600087850328,-37.72384255628378 L-35.47522505150757,-37.411311474349255 L-35.78723765124997,-37.095340065787596 L-36.09601616392359,-36.77595913690777 L-36.40153048450625,-36.45319982643724 L-36.70375082622518,-36.12709360248596 L-37.00264772346115,-35.797672259478404 L-37.298192034621216,-35.464967915053684 L-37.590354944980035,-35.12901300693417 L-37.87910796948917,-34.78984028976287 L-38.16442295555427,-34.44748283191001 L-38.44627208577994,-34.10197401224889 L-38.72462788068183,-33.7533475169016 L-38.99946320136573,-33.401637335954696 L-39.270751252173675,-33.046877760145264 L-39.53846558329635,-32.68910337751763 L-39.80258009335185,-32.32834907005125 L-40.06306903193059,-31.964650010259653 L-40.31990700210581,-31.598041657761325 L-40.573068962909716,-31.228559755822484 L-40.82253023177496,-30.856240327872225 L-41.06826648694105,-30.481119673990225 L-41.310253769825664,-30.103234367367808 L-41.54846848736061,-29.72262125074194 L-41.78288741429197,-29.33931743280328 L-42.0134876954446,-28.953360284578235 L-42.24024684795038,-28.56478743578523 L-42.46314276344029,-28.17363677116609 L-42.6821537101998,-27.779946426792293 L-42.89725833528779,-27.383754786346824 L-43.108435666618306,-26.985100477381874 L-43.315665115005324,-26.58402236755283 L-43.51892647617001,-26.18055956082883 " />
			<path d="M-34.35551551156244,-30.844214866048613 L-34.15064448003577,-31.15398152134308 L-33.943222339100764,-31.461817102683348 L-33.7332629719704,-31.767701005967456 L-33.5207804316797,-32.07161275772352 L-33.305788940145185,-32.37353201647988 L-33.08830288721289,-32.673438574126855 L-32.86833682969519,-32.97131235726924 L-32.645905490396636,-33.2671334285697 L-32.42102375712836,-33.560881988083445 L-32.19370668171165,-33.85253837458341 L-31.96396947897061,-34.14208306687608 L-31.731827525713605,-34.42949668510832 L-31.497296359704187,-34.71475999206437 L-31.260391678621147,-34.997853894453385 L-31.02112933900772,-35.27875944418757 L-30.77952535521031,-35.55745783965029 L-30.535595898306724,-35.83393042695442 L-30.289357295023656,-36.10815870119112 L-30.040826026643934,-36.380124307668275 L-29.790018727903544,-36.64980904313891 L-29.536952185877986,-36.917194857019794 L-29.281643338858856,-37.18226385259948 L-29.02410927522012,-37.44499828823613 L-28.764367232274232,-37.70538057854511 L-28.502434595118515,-37.96339329557598 L-28.238328895471547,-38.219019169978885 L-27.97206781049963,-38.472241092160594 L-27.703669161633652,-38.72304211342962 L-27.43315091337638,-38.9714054471305 L-27.160531172099866,-39.21731446976761 L-26.88582818483364,-39.46075272211763 L-26.609060338043786,-39.70170391033093 " />
			<path d="M38.179717458241676,-23.00349229427988 L42.14392255497895,-25.306263811319262 " />
			<path d="M42.143922554978964,-25.30626381131927 L41.813702830081695,-24.879281050193605 L41.478548681677886,-24.45658810492278 L41.138503762243126,-24.038240029557493 L40.793612361256244,-23.624291312246733 L40.44391939943075,-23.214795868140804 L40.08947042286404,-22.809807032369186 L39.73031159710529,-22.40937755309377 L39.36648970114248,-22.013559584638678 L38.998052121309705,-21.622404680697343 L38.62504684511525,-21.235963787617862 L38.24752245499145,-20.85428723776746 L37.86552812196692,-20.477424742976822 L37.479113599262384,-20.10542538806542 L37.088329215810425,-19.7383376244484 L36.69322586970031,-19.376209263825906 L36.2938550215488,-19.019087471955892 L35.8902686877976,-18.667018762510907 L35.48251943393838,-18.320048991019917 L35.07066036766634,-17.978223348895796 L34.65474513196322,-17.64158635754928 L34.2348278981104,-17.310181862590355 L33.81096335863344,-16.98405302811738 L33.383206720178485,-16.663242331095276 L32.951613696321864,-16.347791555822972 L32.51624050031365,-16.037741788491275 L32.077143837756104,-15.733133411831432 L31.634380899217923,-15.434006099855544 L31.18800935278551,-15.140398812689163 L30.738087336551875,-14.852349791496849 L30.284673451044384,-14.569896553501472 L29.82782675159231,-14.293075887097686 L29.367606740635235,-14.021923847060563 " />
			<path d="M29.367606740635054,-14.021923847060457 L28.894808096379943,-13.75124708885717 L28.41862684473527,-13.486540412953943 L27.939127501447757,-13.227839683318123 L27.45637503181813,-12.97517995019728 L26.97043484189912,-12.728595445370395 L26.481372769633964,-12.488119577509885 L25.98925507593634,-12.253784927655325 L25.494148435712873,-12.025623244799057 L24.996119928829675,-11.803665441584734 L24.495237031023986,-11.587941590119094 L23.99156760476218,-11.37848091789757 L23.48517989004541,-11.17531180384443 L22.976142495163963,-10.978461774467867 L22.464524387401895,-10.787957500130446 L21.95039488369298,-10.603824791435748 L21.43382364122915,-10.42608859573135 L20.914880648023036,-10.25477299372887 L20.39363621342556,-10.089901196241307 L19.870160958599985,-9.931495541038352 L19.34452580695388,-9.779577489819943 L18.816801974529866,-9.634167625308457 L18.287060960356918,-9.495285648460147 L17.75537453676334,-9.362950375795847 L17.221814739652537,-9.237179736851637 L16.68645385874321,-9.117990771749653 L16.14936442777518,-9.005399628889407 L15.61061921468202,-8.899421562759876 L15.070291211732176,-8.800070931872774 L14.528453625639397,-8.707361196817125 L13.985179867644357,-8.621304918435634 L13.44054354356853,-8.541913756122781 L12.894618443841557,-8.469198466245182 L12.34747853350373,-8.403168900684257 L11.799197942184835,-8.343834005501428 L11.249850954060555,-8.291201819726105 L10.699511997788164,-8.245279474266397 L10.148255636422363,-8.206073190943115 L9.596156557313119,-8.173588281646708 L9.043289561986661,-8.147829147617593 L8.489729556010797,-8.128799278849932 L7.935551538846408,-8.116501253618637 L7.380830593686046,-8.1109367381302 L6.8256418772812,-8.112106486296845 L6.270060609759742,-8.12001033963444 L5.714162064434557,-8.134647227283928 L5.158021557605114,-8.15601516615645 L4.601714438353259,-8.184111261202013 L4.045316078334398,-8.218931705801715 L3.4889018615657688,-8.260471782283503 L2.9325471742129676,-8.308725862561325 L2.376327394376187,-8.363687408897704 L1.820317881877639,-8.425348974789436 L1.264593968051266,-8.493702205976582 L0.7092309455364725,-8.568737841574261 L0.15430405807711312,-8.650445715327386 L-0.4001115096730703,-8.738814756988084 L-0.9539406423368351,-8.833832993815562 L-1.5071083039904773,-8.935487552198147 L-2.059539548330196,-9.043764659397588 L-2.611159528826142,-9.15864964541501 L-3.161893508863162,-9.28012694497852 L-3.7116668718664516,-9.408180099652 L-4.260405131411122,-9.542791760065114 L-4.8080339413139015,-9.683943688263788 L-5.354479105706162,-9.831616760181255 L-5.899666589086273,-9.98579096822909 L-6.443522526350364,-10.146445424007872 L-6.985973232800049,-10.313558361137403 L-7.526945214125597,-10.487107138205637 L-8.066365176363373,-10.667068241836269 L-8.604160035826148,-10.853417289874535 L-9.140256929004817,-11.046129034690559 L-9.67458322244046,-11.24517736660011 L-10.207066522565071,-11.450535317402043 L-10.737634685509846,-11.662175064032134 L-11.266215826879758,-11.880067932332729 L-11.792738331492673,-12.10418440093762 L-12.317130863082312,-12.334494105271787 L-12.839322373963288,-12.570965841665426 L-13.359242114656965,-12.81356757158148 L-13.876819643477155,-13.062266425956558 L-14.391984836073895,-13.317028709654096 L-14.904667894934128,-13.577819906029596 L-15.4147993588385,-13.844604681607166 L-15.922310112272232,-14.117346890866678 L-16.427131394789306,-14.396009581140952 L-16.929194810328596,-14.68055499762238 L-17.428432336480498,-14.970944588478126 L-17.924776333702912,-15.267139010073294 L-18.418159554485502,-15.569098132301477 L-18.908515152460865,-15.87678104402184 L-19.395776691461172,-16.190146058601975 L-19.87987815451923,-16.50915071956579 L-20.36075395281298,-16.833751806345795 L-20.83833893455178,-17.163905340138925 L-21.312568393803495,-17.49956658986489 L-21.783378079261386,-17.840690078226807 L-22.2507042029491,-18.18722958787255 L-22.714483448863017,-18.539138167656596 L-23.174652981550732,-18.896368139001233 L-23.63115045462434,-19.258871102356323 L-24.08391401920744,-19.626597943756742 L-24.532882332314895,-19.999498841476687 L-24.977994565163808,-20.37752327277974 L-25.41919041141495,-20.760620020763923 L-25.856410095343435,-21.148737181300937 L-26.289594379937544,-21.54182217006845 L-26.718684574924442,-21.939821729674506 L-27.143622544721786,-22.342681936873028 L-27.56435071631438,-22.750348209869777 L-27.98081208705443,-23.16276531571736 L-28.392950232384628,-23.579877377798475 L-28.800709313482876,-24.001627883396466 L-29.204034084827633,-24.427959691351973 L-29.60286990168283,-24.858815039804632 L-29.997162727501554,-25.294135554019086 L-30.38685914124715,-25.733862254293932 L-30.77190634463104,-26.17793556395252 L-31.152252169266156,-26.62629531741492 L-31.527845083735016,-27.078880768349382 L-31.89863420057138,-27.535630597902532 L-32.26456928315488,-27.996482923007278 L-32.62560075251739,-28.46137530476715 L-32.98167969406023,-28.930244756915794 L-33.33275786418129,-29.403027754350667 L-33.67878769681151,-29.879660241739845 L-34.019722309859304,-30.360077642200608 L-34.355515511562174,-30.84421486604825 " />
			<path d="M-35.1600087850328,-37.72384255628377 L-31.195803688295527,-40.02661407332315 " />
			<path d="M-26.60906033804347,-39.70170391033121 L-31.195803688295527,-40.02661407332315 " />
			<path d="M32.74729242100332,-30.474653510411635 L36.7114975177406,-32.77742502745102 " />
			<path d="M36.7114975177406,-32.77742502745103 L37.088588045804535,-32.340623126600136 L37.46090940471578,-31.899496447970577 L37.82840798853869,-31.45410850392277 L38.191030885709246,-31.004523420343894 L38.54872588665306,-30.55080592741519 L38.90144149130242,-30.093021350292307 L39.24912691651116,-29.631235599699874 L39.59173210336627,-29.165515162441903 L39.92920772439523,-28.695927091829134 L40.26150519066817,-28.222538998024888 L40.58857665879343,-27.7454190383107 L40.910375037806055,-27.264635907273203 L41.22685399594783,-26.780258826913627 L41.53796796733796,-26.292357536681415 L41.84367215853357,-25.801002283433284 L42.1439225549789,-25.30626381131935 " />
			<path d="M-43.518926476170094,-26.18055956082864 L-39.55472137943282,-28.483331077868023 " />
			<path d="M-31.195803688295527,-40.02661407332316 L-31.511019954770298,-39.714082991388636 L-31.823032554512693,-39.39811158282697 L-32.13181106718632,-39.07873065394715 L-32.43732538776898,-38.75597134347662 L-32.73954572948791,-38.42986511952533 L-33.03844262672388,-38.10044377651778 L-33.33398693788394,-37.767739432093066 L-33.62614984824276,-37.43178452397355 L-33.914902872751895,-37.09261180680225 L-34.200217858817,-36.75025434894938 L-34.482066989042664,-36.40474552928827 L-34.760422783944556,-36.05611903394097 L-35.035258104628454,-35.70440885299408 L-35.3065461554364,-35.34964927718464 L-35.574260486559076,-34.991874894557014 L-35.838374996614576,-34.631120587090635 L-36.098863935193314,-34.267421527299035 L-36.355701905368534,-33.9008131748007 L-36.60886386617244,-33.53133127286186 L-36.85832513503769,-33.1590118449116 L-37.104061390203775,-32.78389119102961 L-37.34604867308839,-32.40600588440719 L-37.584263390623335,-32.02539276778133 L-37.818682317554696,-31.642088949842663 L-38.04928259870733,-31.256131801617617 L-38.27604175121311,-30.867558952824613 L-38.498937666703014,-30.476408288205473 L-38.717948613462525,-30.082717943831675 L-38.933053238550514,-29.686526303386206 L-39.14423056988103,-29.287871994421256 L-39.35146001826805,-28.886793884592212 L-39.554721379432735,-28.48333107786821 " />
			<path d="M32.666028492306125,-35.3099431012216 L36.6302335890434,-37.61271461826098 " />
			<path d="M36.6302335890434,-37.61271461826098 L36.71149751774059,-32.77742502745102 " />
			<path d="M-1.6909352546640921,-2.3928467520634924 L-5.655140351401366,-0.09007523502411041 " />
			<path d="M-39.554721379432834,-28.48333107786805 L-39.35292617777457,-28.165605501405704 L-39.149157255136814,-27.849162529661104 L-38.943423936827806,-27.534016644372723 L-38.7357356380546,-27.220182267918982 L-38.52610186349234,-26.907673762658334 L-38.31453220684918,-26.596505430271872 L-38.10103635042716,-26.286691511108756 L-37.885624064679185,-25.978246183534612 L-37.668305207761975,-25.67118356328273 L-37.4490897250848,-25.365517702807992 L-37.22798764885432,-25.06126259064371 L-37.00500909761552,-24.75843215076151 L-36.78016427578868,-24.457040241934216 L-36.55346347320235,-24.15710065710151 L-36.32491706462236,-23.85862712273866 L-36.09453550927713,-23.561633298228394 L-35.862329350379,-23.266132775235874 L-35.62830921464173,-22.972139077086645 L-35.392485811794124,-22.679665658147584 L-35.1548699340899,-22.38872590321136 L-34.915472455813905,-22.09933312688389 L-34.67430433278443,-21.811500572974936 L-34.43137660185169,-21.525241413892005 L-34.18670038039284,-21.24056875003751 L-33.94028686580326,-20.957495609209374 L-33.69214733498403,-20.676034946004748 L-33.442293143825836,-20.396199641227035 L-33.190735726689276,-20.118002501296544 L-32.93748659588167,-19.84145625766446 L-32.682557341130185,-19.566573566230105 L-32.42595962905131,-19.29336700676175 L-32.16770520261705,-19.021849082320877 L-31.90780588061758,-18.752032218690175 L-31.646273557120267,-18.483928763804734 L-31.38312020092536,-18.217550987186897 L-31.118357855018203,-17.952911079384847 L-30.851998636018287,-17.69002115141479 L-30.58405473362457,-17.428893234206598 L-30.314538410057644,-17.16953927805318 L-30.04346199949856,-16.91197115206367 L-29.770837907524495,-16.65620064362028 L-29.496678610540897,-16.40223945783883 L-29.220996655210513,-16.15009921703298 L-28.943804657879184,-15.89979146018242 L-28.665115303998633,-15.651327642404858 L-28.384941347545748,-15.404719134431744 L-28.103295610438956,-15.159977222087804 L-27.82019098195142,-14.917113105774625 L-27.535640418121275,-14.676137899958185 L-27.24965694115867,-14.437062632660059 L-26.96225363884963,-14.199898244952763 L-26.673443663957357,-13.964655590459031 L-26.383240233620192,-13.731345434855228 L-26.091656628746833,-13.499978455378553 L-25.79870619340833,-13.2705652403384 L-25.504402334227585,-13.043116288631808 L-25.208758519765823,-12.817642009263075 L-24.911788279906183,-12.594152720867328 L-24.613505205234425,-12.37265865123824 L-24.31392294641706,-12.153169936860024 L-24.013055213576706,-11.935696622443615 L-23.710915775664553,-11.720248660466865 L-23.40751845983028,-11.506835910719147 L-23.10287715078929,-11.29546813985013 L-22.79700579018717,-11.086155020922746 L-22.48991837596177,-10.878906132970542 L-22.181628961702657,-10.673730960559382 L-21.87215165600783,-10.470638893353332 L-21.561500621838128,-10.269639225684926 L-21.249690075869097,-10.070741156129891 L-20.936734287840252,-9.873953787086066 L-20.62264757990212,-9.679286124356906 L-20.307444325960873,-9.486747076739434 L-19.99113895102044,-9.296345455616404 L-19.673745930522294,-9.108089974553053 L-19.355279789683074,-8.921989248898385 L-19.03575510282989,-8.738051795390959 L-18.715186492733338,-8.556286031769012 L-18.393588629938122,-8.376700276385279 L-18.07097623209186,-8.199302747826252 L-17.747364063271526,-8.02410156453621 L-17.422766933307756,-7.851104744445564 L-17.097199697107023,-7.680320204603937 L-16.77067725397186,-7.51175576081782 L-16.443214546919073,-7.345419127293013 L-16.114826561995855,-7.181317916281486 L-15.785528327593864,-7.019459637733007 L-15.455334913761524,-6.8598516989514735 L-15.124261431514453,-6.70250140425599 L-14.792323032143843,-6.547415954646496 L-14.459534906522995,-6.394602447474256 L-14.125912284412157,-6.244067876117057 L-13.791470433761729,-6.095819129659148 L-13.456224660013335,-5.949862992576072 L-13.120190305399417,-5.806206144423946 L-12.78338274824109,-5.664855159534028 L-12.445817402244517,-5.525816506711692 L-12.107509715795414,-5.389096548940479 L-11.768475171251984,-5.2547015430908175 L-11.428729284236438,-5.12263763963373 L-11.088287602925073,-4.992910882359368 L-10.74716570733658,-4.865527208100453 L-10.405379208619022,-4.740492446460465 L-10.062943748335401,-4.617812319546957 L-9.719874997747995,-4.497492441709696 L-9.37618865710108,-4.3795383192836965 L-9.03190045490229,-4.26395535033717 L-8.687026147202934,-4.150748824424568 L-8.341581516877033,-4.039923922344499 L-7.995582372898928,-3.93148571590266 L-7.649044549619697,-3.8254391676795905 L-7.3019839060426275,-3.721789130803714 L-6.954416325097499,-3.6205403487292074 L-6.60635771291364,-3.521697455018902 L-6.257823998091917,-3.425264973132201 L-5.908831130975846,-3.331247316218068 L-5.559395082921762,-3.239648786913179 L-5.209531845567776,-3.1504735771448935 L-4.859257430101847,-3.063725767939438 L-4.508587866529163,-2.979409329235139 L-4.15753920293861,-2.8975281197008016 L-3.806127504768247,-2.818085886559068 L-3.4543688540700135,-2.741086265414907 L-3.102279348773836,-2.666532780089284 L-2.749875101950993,-2.59442884245788 L-2.3971722410766443,-2.524777752294966 L-2.04418690729168,-2.457582697122348 L-1.6909352546645646,-2.3928467520635905 " />
			<path d="M47.28209103767834,-22.573828222042756 L47.02718835148102,-23.093870782036326 L46.766881811558015,-23.611304324940676 L46.50120408305139,-24.126063919462915 L46.23018850511869,-24.63808496985647 L45.95386908674928,-25.14730322402705 L45.672280502496726,-25.653654781595453 L45.38545808812749,-26.157076101916225 L45.09343783618681,-26.65750401205122 L44.79625639148205,-27.154875714697 L44.4939510464843,-27.649128796065067 L44.18655973664857,-28.14020123371404 L43.874121035653474,-28.62803140433263 L43.55667415056061,-29.112558091472607 L43.23425891689468,-29.59372049323069 L42.906915793644586,-30.071458229878363 L42.57468585818636,-30.54571135143882 L42.23761080112848,-31.01642034520985 L41.89573292108022,-31.48352614323198 L41.54909511934371,-31.946970129700738 L41.19774089453042,-32.406694148322146 L40.84171433710258,-32.862640509610664 L40.481060123840386,-33.31475199812841 L40.11582351223572,-33.762971879665 L39.74605033481283,-34.20724390835695 L39.37178699337697,-34.647512333745865 L38.99308045319156,-35.083721907774326 L38.60997823708461,-35.51581789171886 L38.222528419485336,-35.943746063058974 L37.83077962039123,-36.36745272228133 L37.434780999267076,-36.786884699618426 L37.03458224887594,-37.20198936172061 L36.630233589043485,-37.61271461826091 " />
			<path d="M9.621387186485432,-1.6305787048783742 L9.6109951468536,-1.4547302734060321 L9.595481926677627,-1.2796509465540091 L9.574861595189873,-1.1054995070704545 L9.549152853358414,-0.9324338961849326 L9.518379016926762,-0.7606110703685438 L9.482567995268383,-0.5901868589871453 L9.441752266075161,-0.4213158229767411 L9.395968845902768,-0.2541511146692579 L9.34525925659964,-0.08884433889580645 L9.289669487650041,0.0744545845066078 L9.229249954465324,0.23559755666022175 L9.164055452661243,0.3944384339601741 L9.094145108362774,0.5508331606149031 L9.019582324581519,0.7046398992930656 L8.940434723714315,0.8557191597584981 L8.8567740862152,1.0039339253765367 L8.768676285496376,1.1491497773769948 L8.67622121911717,1.29123501676108 L8.579492736323422,1.4300607837417174 L8.478578562003035,1.5655011746089076 L8.373570217126609,1.6974333559141903 L8.264562935745346,1.8257376758706072 L8.151655578621487,1.9502977728671822 L8.034950543569625,2.071000680999457 L7.9145536725901895,2.187736932520395 L7.79057415587934,2.3004006571187605 L7.66312443280231,2.4088896779349027 L7.532320089920028,2.513105604226874 L7.398279756161481,2.6129539206028514 L7.261124995236901,2.7083440727389356 L7.12098019538933,2.7991895495045758 L6.977972456584606,2.8854079614211368 " />
			<path d="M6.977972456584585,2.885407961421149 L6.820677074464532,2.9731195341223278 L6.6603683830787865,3.0552655379983222 L6.497215493018627,3.1317593167414395 L6.331390515237417,3.2025201766098674 L6.1630683794897365,3.267473471551994 L5.992426649796947,3.3265506819509585 L5.819645337133847,3.3796894869064045 L5.644906709534027,3.426833829977174 L5.468395099814238,3.4679339783155805 L5.290296711120603,3.5029465751308737 L5.110799420501819,3.5318346854265905 L4.930092580716535,3.554567834963494 L4.748366820484005,3.571122042407034 L4.565813843388717,3.5814798446253886 L4.3826262256511495,3.585630315111446 L4.198997212977957,3.5835690755092204 L4.0151205167059425,3.5752983002326197 L3.8311901094548078,3.5608267141716365 L3.6474000205042802,3.5401695834884124 L3.4639441311114854,3.513348699512876 L3.2810159699844457,3.480392355754931 L3.0988085091275006,3.441335318057473 L2.9175139602739906,3.3962187879216867 L2.7373235721209594,3.34509035904335 L2.5584274285797624,3.2880039671059476 L2.3810142482554277,3.2250198328836057 L2.205271185366265,3.156204398713838 L2.031383632313789,3.081630258407133 L1.8595350241111435,3.001376080667302 L1.689906644876439,2.915526526103403 L1.5226774365950568,2.8241721579207586 L1.3580238103526838,2.727409346385301 L1.1961194602381955,2.6253401671619927 L1.0371351801127418,2.5180722936346 L0.8812386834383017,2.405718883320422 L0.7285944263557251,2.2883984584997266 L0.5793634341989904,2.166234781185905 L0.4337031316286293,2.0393567225681974 L0.29176717656349904,1.9078981270646893 L0.15370529808613753,1.7719976711290477 L0.019663138492675536,1.6317987169599184 L-0.11021790034609946,1.4874491612672793 L-0.23580080615042043,1.3391012792553143 L-0.35695310076660114,1.1869115639864054 L-0.47354697991902306,1.0310405612956761 L-0.5854594480316333,0.8716527004302326 L-0.6925724479767119,0.70891612059176 L-0.794772985614034,0.5430024935654898 L-0.8919532489890507,0.3740868426226238 L-0.9840107220643697,0.2023473578872328 L-1.0708482928645395,0.027965208362432215 L-1.1523743559200348,-0.14887564918587515 L-1.228502908902418,-0.3279886642860679 L-1.2991536433487028,-0.5091848895540183 L-1.364252029379239,-0.6922731800148252 L-1.4237293943197145,-0.8770603947427669 L-1.477522995144371,-1.0633516006068084 L-1.525576084663994,-1.2509502779067254 L-1.567837971388867,-1.4396585276829146 L-1.6042640730035131,-1.629277280481176 L-1.634815963396857,-1.8196065063522462 L-1.6594614131981453,-2.0104454258645994 L-1.6781744237759142,-2.2015927219078644 L-1.6909352546640868,-2.392846752063386 " />
			<path d="M9.621387186485437,-1.6305787048782818 L9.98793414452067,-1.6484371408339058 L10.354174469523967,-1.6689876031336794 L10.720090085518274,-1.692229077499107 L11.085662932552696,-1.7181604168354312 L11.45087496759397,-1.7467803412882432 L11.815708165416863,-1.778087438306656 L12.180144519493817,-1.8120801627130163 L12.544166042883775,-1.8487568367791525 L12.907754769119732,-1.8881156503092456 L13.270892753095632,-1.930154660729059 L13.633562071952118,-1.9748717931819186 L13.99574482596099,-2.022264840631067 L14.357423139408704,-2.0723314639686095 L14.718579161478678,-2.125069192130958 L15.079195067132199,-2.1804754222207947 L15.439253057988275,-2.238547419635495 L15.798735363202166,-2.299282318202195 L16.157624240342344,-2.3626771203191623 L16.515901976266235,-2.4287286971037787 L16.873550887994483,-2.497433788546978 L17.230553323583585,-2.5687890036741123 L17.586891662997193,-2.6427908207123423 L17.94254831897586,-2.719435587264435 L18.297505737904917,-2.7987195204890796 L18.651746400680892,-2.880638707287538 L19.00525282357623,-2.9651891044967797 L19.358007559102063,-3.0523665390890713 L19.709993196869448,-3.1421667083778857 L20.061192364448708,-3.234585180230333 L20.41158772822679,-3.3296173932858437 L20.76116199426278,-3.427258657181355 L21.109897909141488,-3.527504152782747 L21.457778260824895,-3.6303489324227414 L21.80478587950173,-3.735787920145043 L22.15090363843499,-3.843815911954948 L22.496114454807127,-3.954427576076128 L22.84040129056317,-4.067617453213778 L23.18374715325176,-4.183379956824126 L23.526135096863612,-4.301709373390047 L23.86754822266807,-4.422599862703166 L24.20796968004715,-4.546045458152079 L24.547382667327142,-4.672040067016788 L24.8857704326079,-4.800577470769461 L25.223116274589643,-4.931651325381374 L25.559403543397202,-5.065255161635889 L25.89461564140177,-5.201382385447921 L26.228736024040273,-5.340026278189264 L26.561748200631726,-5.481179997020298 L26.89363573519124,-5.624836575227604 L27.22438224724123,-5.7709889225679305 L27.553971412619774,-5.919629825617996 L27.882386964286397,-6.070751948130635 L28.20961269312498,-6.224347831396841 L28.535632448743712,-6.380409894613869 L28.86043014027215,-6.538930435259459 L29.183989737155535,-6.69990162947191 L29.506295269945774,-6.863315532436268 L29.827330831089782,-7.029164078776418 L30.147080575714618,-7.197439082953281 L30.465528722409438,-7.36813223966864 L30.78265955400444,-7.541235124275168 L31.09845741834659,-7.716739193192225 L31.41290672907207,-7.894635784327413 L31.725991966375197,-8.074916117504003 " />
			<path d="M31.725991966375602,-8.074916117504237 L32.013742932339014,-8.243421019312152 L32.30030656325828,-8.413941996797071 L32.58567081010708,-8.586471880131718 L32.86982367428913,-8.7610034150211 L33.15275320814264,-8.937529263007647 L33.434447515442734,-9.116042001779626 L33.71489475190159,-9.296534125483376 L33.994083125666485,-9.478998045038793 L34.27200089781559,-9.663426088458444 L34.54863638285154,-9.849810501170225 L34.8239779491928,-10.038143446343291 L35.09801401966273,-10.228417005217665 L35.37073307197632,-10.420623177437164 L35.6421236392247,-10.614753881385788 L35.9121743103573,-10.810800954527494 L36.18087373066162,-11.008756153749452 L36.44821060224065,-11.208611155708631 L36.71417368448793,-11.410357557181712 L36.97875179456018,-11.613986875418504 L37.24193380784747,-11.819490548498543 L37.503708658441006,-12.026859935691121 L37.764065339598396,-12.23608631781859 L38.02299290420646,-12.447160897623 L38.28048046524149,-12.660074800135952 L38.53651719622705,-12.874819073051782 L38.79109233168918,-13.09138468710399 L39.04419516760902,-13.30976253644485 L39.295815061872915,-13.529943439028337 L39.54594143471985,-13.751918136996139 L39.794563769186325,-13.975677297066945 L40.04167161154854,-14.201211510928907 L40.28725457176192,-14.428511295635175 L40.53130232389802,-14.657567094002658 L40.77380460657864,-14.888369275013886 L41.01475122340738,-15.120908134221892 L41.25413204339823,-15.355173894158312 L41.49193700140166,-15.591156704744492 L41.72815609852775,-15.828846643705624 L41.96277940256666,-16.06823371698796 L42.195797048406206,-16.309307859179036 L42.42719923844668,-16.552058933930844 L42.6569762430128,-16.796476734386097 L42.8851184007628,-17.04255098360734 L43.11161611909466,-17.290271335009088 L43.336459874549476,-17.539627372792857 L43.559640213211814,-17.790608612385107 L43.78114775110729,-18.043204500878105 L44.00097317459711,-18.297404417473572 L44.21910724076964,-18.553197673929375 L44.43554077782909,-18.810573515008798 L44.65026468548115,-19.06952111893284 L44.863269935315586,-19.330029597835242 L45.07454757118591,-19.592087998220222 L45.2840887095859,-19.855685301423094 L45.491884540023165,-20.120810424073504 L45.69792632538959,-20.38745221856155 L45.90220540232863,-20.655599473506392 L46.104713181599735,-20.925240914227686 L46.30544114843933,-21.196365203219692 L46.50438086291889,-21.468960940627923 L46.70152396029989,-21.743016664728486 L46.89686215138538,-22.018520852410013 L47.0903872228686,-22.29546191965818 L47.28209103767832,-22.57382822204272 " />
			<path d="M5.3799926312863,-2.2020252631689083 L5.377174825799397,-2.1096111038477154 L5.368732625750145,-2.017965828923174 L5.354699635725445,-1.927454236858653 L5.335131714722959,-1.8384366134378953 L5.310106753801651,-1.7512672976299681 L5.279724366032654,-1.6662932711258096 L5.244105489984603,-1.5838527771607713 L5.2033919083218,-1.5042739741210065 L5.157745683431433,-1.427873629293096 L5.107348512326386,-1.3549558579564933 L5.052401003391459,-1.2858109128378967 L4.993121877851966,-1.2207140287461922 L4.929747099143276,-1.1599243269869395 L4.862528933646918,-1.1036837839174438 L4.7917349465320065,-1.0522162677481262 L4.717646936699107,-1.0057266474242519 " />
			<path d="M4.717646936699102,-1.0057266474242488 L4.657924048507084,-0.9731236895624955 L4.596529930597649,-0.9437239697805282 L4.53361248677833,-0.9175983145784135 L4.4693232906822065,-0.8948096629478708 L4.40381722061374,-0.875412914746728 L4.337252086433382,-0.8594547984403558 L4.269788249379787,-0.8469737585287025 L4.201588235745554,-0.8379998629301249 L4.132816345337143,-0.8325547305451408 L4.063638255662253,-0.8306514791746029 L3.9942206227981982,-0.832294693917768 L3.924730679902812,-0.8374804161263902 L3.855335834335131,-0.846196152941455 L3.7862032643563976,-0.8584209073895652 L3.717499516382988,-0.8741252289664938 L3.64939010376151,-0.8932712845860258 L3.5820391080326464,-0.9158129497231773 L3.5156087836443595,-0.9416959195322165 L3.45025916706671,-0.9708578396717926 L3.386147691249984,-1.0032284565220067 L3.3234288063549258,-1.038729786431536 L3.262253607668773,-1.0772763035870785 L3.2027694716034754,-1.1187751460525313 L3.1451197006530083,-1.1631263394815248 L3.089443178165116,-1.2102230379643837 L3.0358740337591588,-1.2599517814292787 L2.9845413201961137,-1.3121927689774795 L2.9355687024791677,-1.3668201474942139 L2.8890741599338967,-1.4237023148398398 L2.845169701985734,-1.482702236890932 L2.803961098319452,-1.543677777667487 L2.7655476240707304,-1.6064820417509482 L2.730021820663657,-1.6709637281681342 L2.6974692728703324,-1.7369674948885372 L2.6679684026296577,-1.8043343330568808 L2.641590280122013,-1.8729019500593809 L2.6183984525549704,-1.9425051605008627 L2.598448791072503,-2.0129762841508505 L2.5817893561565057,-2.0841455498999313 L2.568460281844886,-2.1558415047532242 L2.5584936790451493,-2.2278914268756638 L2.5519135581764107,-2.3001217416940287 L2.5487357713261947,-2.3723584400532935 L2.5489679740613638,-2.4444274974199236 L2.5526096069851905,-2.516155293122218 L2.5596518970849926,-2.587369028617718 L2.5700778788670875,-2.657897143780027 L2.5838624352281543,-2.7275697302021884 L2.6009723579645345,-2.796218940520912 L2.621366427773703,-2.863679392775577 L2.6449955135551813,-2.9297885688278664 L2.6718026907716577,-2.9943872058821897 L2.701723378585186,-3.0573196801637113 L2.7346854954380815,-3.1184343818296525 L2.770609632703705,-3.177584080210685 L2.8094092459887996,-3.2346262785025073 L2.850990863626518,-3.2894235570531274 L2.895254311857851,-3.341843904418843 L2.94209295615899,-3.3917610353913688 L2.9913939581332323,-3.4390546952299688 L3.043038547348564,-3.483610949365656 L3.0969023074660327,-3.52532245787955 L3.152855475969608,-3.5640887340941445 L3.2107632567754356,-3.5998163866545076 " />
			<path d="M3.2107632567754463,-3.5998163866545143 L3.292234778583799,-3.6432939394214134 L3.3766878873689157,-3.6808234851280934 L3.4637478578155583,-3.7122385021266484 L3.5530283977511874,-3.737399599430561 L3.6441333621557646,-3.756195135203851 L3.7366585108894363,-3.7685417121249873 L3.8301933023389285,-3.774384547427587 L3.9243227150240862,-3.773697715976007 L4.01862908908195,-3.766484265297283 L4.112693979457552,-3.7527762020590014 L4.206100012578671,-3.732634350053112 L4.29843273827633,-3.706148080315815 L4.389282468733923,-3.6734349145809997 L4.478246096305387,-3.63464000382675 L4.56492888213663,-3.5899354842286453 L4.648946207653937,-3.5395197133775427 L4.729925281147891,-3.4836163901508064 L4.807506791880504,-3.4224735621421885 L4.881346504376209,-3.3563625250544717 L4.951116785822664,-3.2855766189383644 L5.016508059804207,-3.2104299266188256 L5.0772301799175965,-3.1312558800840153 L5.133013717175212,-3.048405781020435 L5.183611155483391,-2.9622472420587584 L5.228797989891482,-2.8731625556466813 L5.2683737227385725,-2.781546997786223 L5.302162753277925,-2.687807074161944 L5.330015156831781,-2.5923587164421495 L5.351807350019349,-2.4956254367562334 L5.367442639106326,-2.398036448536902 L5.376851649042861,-2.3000247620652496 L5.3799926312863,-2.202025263168915 " />
			<path d="M6.977972456584584,2.885407961421148 L3.01376735984731,5.18817947846053 " />
			<path d="M31.7259919663756,-8.07491611750423 L27.761786869638325,-5.772144600464848 " />

       </g>
    </g>
    
</svg>
