<?xml version="1.0" encoding="UTF-8" standalone="no"?>
<svg
   xmlns:svg="http://www.w3.org/2000/svg"
   xmlns="http://www.w3.org/2000/svg"
   width="145.0"
   height="145.0"

>
    <g transform="scale(0.7270461154964687, -0.7270461154964687)   translate(99.71857142857142,-99.71857142857142)" stroke-width="0.5"  fill="none">
       <!-- hidden lines -->
       <g  stroke="rgb(160,160,160)" fill="none" stroke-dasharray="0.5,0.5" >

       </g>

       <!-- solid lines -->
       <g  stroke="rgb(0,0,0)" fill="none">
			<path d="M-85.96428571428571,0.0 L-85.9602940937569,0.8284067130150653 L-85.9483196028601,1.656736494425002 L-85.92836335362976,2.4849124197690844 L-85.9004271993419,3.312857578874732 L-85.86451373434195,4.1404950829999185 L-85.82062629380393,4.9677480719736 L-85.76876895342053,5.794539721333481 L-85.70894652902487,6.62079324946047 L-85.64116457614304,7.446431924709151 L-85.56542938947831,8.271379072533621 L-85.4817480023265,9.09555808260802 L-85.39012818592282,9.918892415941102 L-85.29057844872025,10.741305611984165 L-85.18310803559928,11.56272129573173 L-85.06772692700943,12.383063184814235 L-84.94444583804238,13.202255096582151 L-84.81327621743694,14.020220955180841 L-84.67423024651572,14.83688479861549 L-84.52732083805404,15.652170785805449 L-84.37256163508061,16.46600320362739 L-84.20996700961071,17.278306473946532 L-84.03955206131131,18.089005160635356 L-83.86133261609898,18.89802397657914 L-83.6753252246701,19.70528779066763 L-83.48154716096386,20.51072163477224 L-83.28001642055808,21.314250710708126 L-83.07075171899807,22.11580039718044 L-82.85377249005845,22.91529625671421 L-82.62909888393852,23.712664042567102 L-82.39675176539095,24.5078297056245 L-82.15675271178402,25.300719401276208 L-81.90912401109799,26.091259496274184 L-81.65388865985507,26.879376575570646 L-81.39107036098402,27.66499744913588 L-81.12069352161872,28.448049158755175 L-80.84278325083174,29.228458984804266 L-80.55736535730237,30.006154453002544 L-80.26446634692002,30.781063341143533 L-79.9641134203225,31.553113685801957 L-79.65633447037021,32.32223378901675 L-79.3411580795556,33.08835222494943 L-79.01861351734891,33.851397846517216 L-78.68873073748001,34.61129979200021 L-78.35154037515667,35.36798749162214 L-78.00707374421953,36.12139067410393 L-77.65536283423411,36.8714393731896 L-77.29644030752007,37.61806393414382 L-76.93033949611788,38.361195020220514 L-76.55709439869344,39.100763619101976 L-76.17673967738068,39.83670104930781 L-75.78931065456266,40.56893896657319 L-75.39484330959122,41.29740937019577 L-74.99337427544572,42.02204460935073 L-74.58494083533104,42.742777389373224 L-74.16958091921519,43.45954077800794 L-73.74733310030693,44.172268211624804 L-73.31823659147351,44.8808935014006 L-72.88233124159909,45.58535083946568 L-72.43965753188422,46.28557480501538 L-71.99025657208634,46.98150037038542 L-71.53417009670207,47.67306290709084 L-71.07144046109151,48.36019819182784 L-70.6021106375448,49.04284241243801 L-70.12622421129134,49.7209321738344 L-69.64382537645233,50.39440450388874 L-69.15495893193638,51.063196859279564 L-68.65967027727937,51.72724713130039 L-68.15800540842824,52.38649365162753 L-67.65001091346947,53.0408751980471 L-67.13573396830263,53.690331000140446 L-66.61522233225926,54.334800744927854 L-66.08852434366767,54.97422458246947 L-65.55568891536385,55.608543131423495 L-65.01676553014907,56.23769748456071 L-64.47180423619461,56.861629214235016 L-63.920855642393946,57.48028037780939 L-63.3639709136628,58.093593523036944 L-62.80120176618766,58.70151169339623 L-62.232600462623026,59.30397843338066 L-61.658219807237955,59.900937793741384 L-61.07811314101228,60.4923343366831 L-60.492334336682994,61.07811314101238 L-59.900937793741285,61.65821980723805 L-59.30397843338056,62.23260046262312 L-58.70151169339613,62.801201766187745 L-58.09359352303685,63.3639709136629 L-57.4802803778093,63.92085564239404 L-56.86162921423491,64.4718042361947 L-56.237697484560606,65.01676553014916 L-55.60854313142339,65.55568891536393 L-54.97422458246936,66.08852434366777 L-54.33480074492775,66.61522233225935 L-53.69033100014035,67.13573396830272 L-53.040875198046976,67.65001091346956 L-52.38649365162742,68.15800540842832 L-51.72724713130028,68.65967027727947 L-51.06319685927945,69.15495893193646 L-50.39440450388862,69.64382537645241 L-49.720932173834285,70.12622421129143 L-49.0428424124379,70.60211063754488 L-48.36019819182773,71.0714404610916 L-47.673062907090724,71.53417009670214 L-46.981500370385305,71.99025657208641 L-46.285574805015266,72.4396575318843 L-45.585350839465576,72.88233124159916 L-44.8808935014005,73.31823659147356 L-44.17226821162471,73.74733310030699 L-43.459540778007856,74.16958091921525 L-42.742777389373146,74.58494083533108 L-42.02204460935066,74.99337427544576 L-41.297409370195716,75.39484330959125 L-40.568938966573135,75.78931065456268 L-39.836701049307756,76.1767396773807 L-39.10076361910193,76.55709439869345 L-38.36119502022048,76.9303394961179 L-37.61806393414379,77.29644030752009 L-36.87143937318958,77.65536283423413 L-36.12139067410392,78.00707374421953 L-35.36798749162214,78.35154037515667 L-34.611299792000224,78.68873073748001 L-33.85139784651724,79.0186135173489 L-33.08835222494945,79.34115807955558 L-32.322233789016785,79.6563344703702 L-31.553113685802,79.9641134203225 L-30.78106334114359,80.26446634691999 L-30.006154453002605,80.55736535730236 L-29.228458984804337,80.84278325083172 L-28.448049158755257,81.12069352161869 L-27.664997449135967,81.39107036098399 L-26.879376575570745,81.65388865985504 L-26.091259496274294,81.90912401109794 L-25.300719401276325,82.156752711784 L-24.507829705624626,82.3967517653909 L-23.71266404256724,82.62909888393848 L-22.915296256714356,82.8537724900584 L-22.1158003971806,83.07075171899803 L-21.31425071070829,83.28001642055804 L-20.510721634772416,83.4815471609638 L-19.705287790667814,83.67532522467005 L-18.898023976579335,83.86133261609893 L-18.089005160635562,84.03955206131126 L-17.278306473946746,84.20996700961066 L-16.466003203627615,84.37256163508059 L-15.652170785805685,84.527320838054 L-14.836884798615735,84.67423024651569 L-14.020220955181097,84.8132762174369 L-13.202255096582416,84.94444583804234 L-12.383063184814509,85.06772692700937 L-11.562721295732015,85.18310803559923 L-10.74130561198446,85.29057844872021 L-9.918892415941404,85.39012818592279 L-9.095558082608333,85.48174800232647 L-8.271379072533941,85.56542938947828 L-7.446431924709478,85.64116457614301 L-6.6207932494608075,85.70894652902484 L-5.794539721333828,85.76876895342052 L-4.967748071973955,85.8206262938039 L-4.140495083000282,85.86451373434194 L-3.3128575788751036,85.90042719934189 L-2.4849124197694645,85.92836335362975 L-1.6567364944253908,85.9483196028601 L-0.8284067130154629,85.9602940937569 L-4.061098174079622e-13,85.96428571428571 L0.8284067130146507,85.9602940937569 L1.6567364944245788,85.94831960286011 L2.4849124197686527,85.92836335362978 L3.3128575788742913,85.90042719934192 L4.14049508299947,85.86451373434198 L4.967748071973143,85.82062629380394 L5.794539721333016,85.76876895342056 L6.6207932494599975,85.70894652902491 L7.446431924708669,85.64116457614308 L8.271379072533131,85.56542938947837 L9.095558082607525,85.48174800232655 L9.918892415940597,85.39012818592288 L10.741305611983654,85.29057844872032 L11.56272129573121,85.18310803559935 L12.383063184813706,85.0677269270095 L13.202255096581611,84.94444583804247 L14.020220955180296,84.81327621743702 L14.836884798614934,84.67423024651582 L15.652170785804886,84.52732083805414 L16.46600320362682,84.37256163508073 L17.278306473945953,84.20996700961082 L18.08900516063477,84.03955206131144 L18.898023976578543,83.8613326160991 L19.705287790667025,83.67532522467023 L20.51072163477163,83.48154716096401 L21.314250710707505,83.28001642055824 L22.11580039717981,83.07075171899824 L22.915296256713575,82.85377249005862 L23.712664042566463,82.62909888393871 L24.50782970562385,82.39675176539113 L25.300719401275547,82.15675271178422 L26.09125949627352,81.9091240110982 L26.879376575569975,81.6538886598553 L27.664997449135196,81.39107036098424 L28.44804915875449,81.12069352161897 L29.228458984803574,80.84278325083199 L30.006154453001848,80.55736535730264 L30.78106334114283,80.26446634692029 L31.553113685801247,79.9641134203228 L32.32223378901603,79.6563344703705 L33.08835222494871,79.3411580795559 L33.851397846516484,79.01861351734921 L34.61129979199948,78.68873073748034 L35.3679874916214,78.351540375157 L36.1213906741032,78.00707374421987 L36.87143937318887,77.65536283423447 L37.61806393414308,77.29644030752043 L38.36119502021977,76.93033949611825 L39.10076361910123,76.5570943986938 L39.83670104930706,76.17673967738108 L40.56893896657243,75.78931065456307 L41.29740937019502,75.39484330959164 L42.02204460934996,74.99337427544614 L42.742777389372456,74.58494083533147 L43.45954077800717,74.16958091921566 L44.17226821162403,73.7473331003074 L44.880893501399825,73.31823659147396 L45.5853508394649,72.88233124159959 L46.2855748050146,72.43965753188472 L46.98150037038464,71.99025657208685 L47.67306290709005,71.5341700967026 L48.360198191827045,71.07144046109207 L49.042842412437224,70.60211063754535 L49.720932173833596,70.12622421129193 L50.39440450388794,69.64382537645291 L51.06319685927877,69.15495893193697 L51.727247131299585,68.65967027727999 L52.38649365162672,68.15800540842886 L53.04087519804628,67.65001091347011 L53.690331000139636,67.13573396830327 L54.33480074492704,66.61522233225993 L54.97422458246866,66.08852434366835 L55.608543131422685,65.55568891536454 L56.2376974845599,65.01676553014977 L56.861629214234206,64.47180423619533 L57.48028037780858,63.92085564239467 L58.093593523036134,63.36397091366354 L58.70151169339541,62.80120176618841 L59.30397843337985,62.23260046262379 L59.900937793740574,61.65821980723874 L60.49233433668229,61.078113141013084 L61.07811314101156,60.49233433668382 L61.65821980723724,59.900937793742116 L62.23260046262231,59.30397843338141 L62.80120176618694,58.70151169339698 L63.363970913662094,58.09359352303772 L63.920855642393235,57.48028037781019 L64.4718042361939,56.86162921423582 L65.01676553014836,56.23769748456154 L65.55568891536315,55.60854313142433 L66.08852434366698,54.97422458247031 L66.61522233225857,54.33480074492871 L67.13573396830193,53.69033100014133 L67.65001091346878,53.040875198047985 L68.15800540842756,52.386493651628435 L68.65967027727869,51.727247131301304 L69.1549589319357,51.063196859280495 L69.64382537645163,50.394404503889675 L70.12622421129068,49.72093217383535 L70.60211063754411,49.042842412438986 L71.07144046109084,48.360198191828836 L71.5341700967014,47.67306290709184 L71.99025657208567,46.98150037038644 L72.43965753188355,46.28557480501641 L72.88233124159844,45.585350839466734 L73.31823659147285,44.88089350140166 L73.74733310030629,44.17226821162588 L74.16958091921455,43.45954077800903 L74.5849408353304,42.742777389374325 L74.99337427544509,42.022044609351845 L75.3948433095906,41.29740937019691 L75.78931065456204,40.568938966574336 L76.17673967738007,39.836701049308964 L76.55709439869284,39.10076361910315 L76.93033949611728,38.3611950202217 L77.29644030751949,37.61806393414502 L77.65536283423354,36.87143937319082 L78.00707374421896,36.12139067410516 L78.3515403751561,35.36798749162338 L78.68873073747946,34.61129979200147 L79.01861351734837,33.85139784651849 L79.34115807955506,33.08835222495072 L79.65633447036969,32.32223378901804 L79.964113420322,31.553113685803265 L80.2644663469195,30.781063341144858 L80.55736535730188,30.00615445300388 L80.84278325083125,29.22845898480562 L81.12069352161825,28.44804915875654 L81.39107036098355,27.664997449137257 L81.65388865985462,26.87937657557204 L81.90912401109753,26.09125949627559 L82.15675271178358,25.30071940127762 L82.39675176539052,24.50782970562593 L82.62909888393811,23.712664042568548 L82.85377249005803,22.91529625671567 L83.07075171899767,22.11580039718191 L83.2800164205577,21.31425071070961 L83.48154716096349,20.510721634773738 L83.67532522466973,19.70528779066914 L83.86133261609864,18.898023976580664 L84.03955206131097,18.08900516063689 L84.2099670096104,17.27830647394808 L84.37256163508032,16.46600320362895 L84.52732083805374,15.652170785807023 L84.67423024651545,14.836884798617074 L84.81327621743667,14.02022095518244 L84.94444583804214,13.202255096583759 L85.06772692700919,12.383063184815855 L85.18310803559905,11.562721295733363 L85.29057844872004,10.74130561198581 L85.39012818592263,9.918892415942755 L85.48174800232631,9.095558082609685 L85.56542938947815,8.271379072535295 L85.6411645761429,7.446431924710834 L85.70894652902474,6.620793249462164 L85.76876895342042,5.794539721335185 L85.82062629380381,4.967748071975313 L85.86451373434188,4.140495083001641 L85.90042719934183,3.312857578876463 L85.92836335362972,2.4849124197708248 L85.94831960286007,1.656736494426751 L85.96029409375689,0.8284067130168233 L85.96428571428571,1.7666149277704784e-12 L85.96029409375693,-0.8284067130132903 L85.94831960286014,-1.6567364944232184 L85.92836335362982,-2.484912419767293 L85.90042719934196,-3.312857578872932 L85.86451373434204,-4.140495082998111 L85.82062629380403,-4.967748071971785 L85.76876895342066,-5.79453972133166 L85.70894652902501,-6.62079324945864 L85.64116457614321,-7.446431924707315 L85.56542938947848,-8.271379072531778 L85.4817480023267,-9.095558082606171 L85.39012818592305,-9.918892415939245 L85.29057844872048,-10.741305611982305 L85.18310803559953,-11.562721295729862 L85.0677269270097,-12.383063184812357 L84.94444583804268,-13.202255096580268 L84.81327621743725,-14.020220955178955 L84.67423024651606,-14.836884798613594 L84.5273208380544,-15.652170785803548 L84.37256163508098,-16.466003203625483 L84.20996700961109,-17.278306473944617 L84.03955206131172,-18.089005160633437 L83.8613326160994,-18.898023976577214 L83.67532522467054,-19.7052877906657 L83.48154716096433,-20.510721634770306 L83.28001642055858,-21.314250710706187 L83.07075171899858,-22.1158003971785 L82.85377249005899,-22.915296256712264 L82.62909888393908,-23.71266404256515 L82.39675176539153,-24.50782970562254 L82.15675271178463,-25.30071940127425 L81.90912401109861,-26.091259496272222 L81.65388865985572,-26.87937657556868 L81.39107036098468,-27.66499744913391 L81.12069352161942,-28.448049158753207 L80.84278325083245,-29.228458984802295 L80.55736535730311,-30.006154453000573 L80.26446634692077,-30.78106334114156 L79.96411342032329,-31.55311368579998 L79.65633447037102,-32.322233789014774 L79.34115807955642,-33.08835222494745 L79.01861351734976,-33.85139784651524 L78.68873073748088,-34.611299791998235 L78.35154037515755,-35.36798749162016 L78.00707374422045,-36.12139067410195 L77.65536283423506,-36.87143937318762 L77.29644030752104,-37.61806393414184 L76.93033949611886,-38.36119502021853 L76.55709439869445,-39.10076361909999 L76.17673967738172,-39.83670104930584 L75.78931065456372,-40.568938966571224 L75.3948433095923,-41.29740937019381 L74.99337427544683,-42.02204460934876 L74.58494083533216,-42.74277738937126 L74.16958091921636,-43.45954077800597 L73.74733310030811,-44.17226821162284 L73.3182365914747,-44.88089350139864 L72.88233124160031,-45.585350839463736 L72.43965753188547,-46.28557480501343 L71.9902565720876,-46.981500370383486 L71.53417009670336,-47.673062907088905 L71.07144046109283,-48.360198191825916 L70.60211063754613,-49.04284241243609 L70.12622421129271,-49.720932173832466 L69.64382537645372,-50.39440450388682 L69.1549589319378,-51.063196859277646 L68.65967027728082,-51.72724713129848 L68.1580054084297,-52.386493651625635 L67.65001091347096,-53.04087519804519 L67.13573396830414,-53.69033100013857 L66.6152223322608,-54.33480074492597 L66.08852434366923,-54.97422458246759 L65.55568891536542,-55.608543131421634 L65.01676553015066,-56.23769748455886 L64.47180423619623,-56.86162921423316 L63.920855642395594,-57.48028037780756 L63.36397091366448,-58.093593523035125 L62.80120176618936,-58.70151169339441 L62.23260046262475,-59.30397843337885 L61.6582198072397,-59.90093779373959 L61.07811314101406,-60.49233433668131 L60.4923343366848,-61.07811314101059 L59.90093779374311,-61.65821980723628 L59.303978433382404,-62.23260046262136 L58.701511693398,-62.801201766186 L58.09359352303874,-63.363970913661156 L57.480280377811205,-63.92085564239231 L56.86162921423685,-64.471804236193 L56.237697484562574,-65.01676553014745 L55.608543131425385,-65.55568891536225 L54.97422458247137,-66.0885243436661 L54.33480074492978,-66.6152223322577 L53.69033100014241,-67.13573396830107 L53.04087519804906,-67.65001091346792 L52.38649365162953,-68.15800540842672 L51.72724713130241,-68.65967027727787 L51.0631968592816,-69.15495893193487 L50.394404503890804,-69.64382537645083 L49.72093217383648,-70.12622421128988 L49.04284241244012,-70.60211063754333 L48.360198191829966,-71.07144046109008 L47.673062907093,-71.53417009670063 L46.9815003703876,-71.99025657208492 L46.285574805017575,-72.43965753188283 L45.5853508394679,-72.88233124159771 L44.88089350140283,-73.31823659147213 L44.17226821162706,-73.74733310030558 L43.45954077801021,-74.16958091921386 L42.742777389375526,-74.58494083532972 L42.022044609353046,-74.99337427544441 L41.29740937019812,-75.39484330958993 L40.56893896657555,-75.7893106545614 L39.836701049310186,-76.17673967737943 L39.10076361910437,-76.5570943986922 L38.36119502022294,-76.93033949611667 L37.61806393414626,-77.29644030751889 L36.87143937319206,-77.65536283423295 L36.12139067410641,-78.00707374421837 L35.36798749162464,-78.35154037515555 L34.61129979200273,-78.6887307374789 L33.85139784651976,-79.01861351734782 L33.08835222495198,-79.34115807955453 L32.32223378901932,-79.65633447036916 L31.553113685804547,-79.9641134203215 L30.781063341146147,-80.26446634691901 L30.006154453005173,-80.5573653573014 L29.228458984806913,-80.84278325083078 L28.448049158757843,-81.1206935216178 L27.66499744913856,-81.39107036098311 L26.879376575573346,-81.65388865985419 L26.091259496276905,-81.90912401109712 L25.30071940127894,-82.15675271178318 L24.507829705627252,-82.39675176539012 L23.712664042569873,-82.62909888393773 L22.915296256717003,-82.85377249005768 L22.115800397183246,-83.07075171899731 L21.314250710710947,-83.28001642055736 L20.510721634775077,-83.48154716096316 L19.705287790670482,-83.67532522466942 L18.89802397658201,-83.86133261609832 L18.08900516063824,-84.03955206131069 L17.27830647394943,-84.20996700961011 L16.466003203630308,-84.37256163508006 L15.65217078580838,-84.5273208380535 L14.836884798618433,-84.67423024651521 L14.0202209551838,-84.81327621743645 L13.202255096585121,-84.94444583804193 L12.38306318481722,-85.06772692700899 L11.562721295734729,-85.18310803559886 L10.74130561198718,-85.29057844871987 L9.918892415944125,-85.39012818592246 L9.095558082611058,-85.48174800232617 L8.271379072536668,-85.56542938947801 L7.446431924712208,-85.64116457614278 L6.6207932494635395,-85.70894652902463 L5.794539721336561,-85.76876895342032 L4.967748071976691,-85.82062629380374 L4.140495083003019,-85.86451373434181 L3.3128575788778414,-85.90042719934179 L2.4849124197722037,-85.92836335362968 L1.6567364944281306,-85.94831960286004 L0.8284067130182029,-85.96029409375687 L3.146207943992086e-12,-85.96428571428571 L-0.8284067130119107,-85.96029409375693 L-1.6567364944218392,-85.94831960286017 L-2.484912419765914,-85.92836335362986 L-3.3128575788715535,-85.90042719934202 L-4.1404950829967335,-85.86451373434211 L-4.967748071970409,-85.82062629380411 L-5.794539721330283,-85.76876895342076 L-6.620793249457265,-85.70894652902511 L-7.44643192470594,-85.64116457614332 L-8.271379072530404,-85.56542938947862 L-9.0955580826048,-85.48174800232684 L-9.918892415937876,-85.3901281859232 L-10.741305611980936,-85.29057844872067 L-11.562721295728494,-85.18310803559972 L-12.383063184810993,-85.0677269270099 L-13.202255096578904,-84.9444458380429 L-14.020220955177592,-84.81327621743748 L-14.836884798612235,-84.6742302465163 L-15.652170785802193,-84.52732083805464 L-16.46600320362413,-84.37256163508125 L-17.278306473943267,-84.20996700961138 L-18.089005160632087,-84.03955206131201 L-18.89802397657587,-83.86133261609972 L-19.705287790664357,-83.67532522467086 L-20.510721634768966,-83.48154716096465 L-21.31425071070485,-83.28001642055892 L-22.11580039717716,-83.07075171899893 L-22.915296256710935,-82.85377249005934 L-23.712664042563826,-82.62909888393946 L-24.50782970562122,-82.39675176539191 L-25.30071940127293,-82.15675271178503 L-26.09125949627091,-81.90912401109902 L-26.879376575567374,-81.65388865985615 L-27.664997449132603,-81.39107036098514 L-28.448049158751903,-81.12069352161988 L-29.228458984800998,-80.84278325083291 L-30.00615445299928,-80.5573653573036 L-30.78106334114027,-80.26446634692127 L-31.5531136857987,-79.9641134203238 L-32.322233789013495,-79.65633447037153 L-33.08835222494618,-79.34115807955695 L-33.85139784651397,-79.0186135173503 L-34.61129979199697,-78.68873073748144 L-35.367987491618905,-78.35154037515814 L-36.1213906741007,-78.00707374422102 L-36.87143937318638,-77.65536283423565 L-37.6180639341406,-77.29644030752164 L-38.3611950202173,-76.93033949611949 L-39.10076361909877,-76.55709439869507 L-39.836701049304615,-76.17673967738236 L-40.56893896657,-75.78931065456437 L-41.2974093701926,-75.39484330959296 L-42.02204460934756,-74.9933742754475 L-42.74277738937006,-74.58494083533284 L-43.459540778004786,-74.16958091921704 L-44.17226821162166,-73.74733310030881 L-44.880893501397466,-73.31823659147541 L-45.58535083946256,-72.88233124160104 L-46.285574805012274,-72.43965753188621 L-46.98150037038233,-71.99025657208836 L-47.673062907087754,-71.53417009670413 L-48.360198191824765,-71.07144046109362 L-49.042842412434965,-70.60211063754693 L-49.72093217383134,-70.12622421129352 L-50.394404503885696,-69.64382537645452 L-51.063196859276545,-69.15495893193861 L-51.72724713129738,-68.65967027728165 L-52.386493651624534,-68.15800540843054 L-53.04087519804412,-67.6500109134718 L-53.69033100013749,-67.13573396830499 L-54.3348007449249,-66.61522233226167 L-54.97422458246653,-66.08852434367012 L-55.60854313142058,-65.55568891536632 L-56.23769748455781,-65.01676553015157 L-56.86162921423213,-64.47180423619716 L-57.48028037780653,-63.920855642396525 L-58.0935935230341,-63.36397091366541 L-58.70151169339339,-62.8012017661903 L-59.30397843337785,-62.2326004626257 L-59.9009377937386,-61.65821980724067 L-60.49233433668032,-61.078113141015024 L-61.07811314100963,-60.492334336685786 L-61.65821980723531,-59.900937793744106 L-62.23260046262041,-59.303978433383406 L-62.801201766185066,-58.701511693399006 L-63.363970913660225,-58.093593523039765 L-63.92085564239139,-57.480280377812235 L-64.47180423619207,-56.86162921423789 L-65.01676553014656,-56.23769748456361 L-65.55568891536136,-55.60854313142643 L-66.08852434366521,-54.97422458247243 L-66.61522233225682,-54.334800744930845 L-67.1357339683002,-53.69033100014347 L-67.65001091346707,-53.040875198050145 L-68.15800540842588,-52.38649365163062 L-68.65967027727703,-51.72724713130351 L-69.15495893193406,-51.06319685928272 L-69.64382537645002,-50.39440450389192 L-70.12622421128908,-49.7209321738376 L-70.60211063754255,-49.04284241244126 L-71.0714404610893,-48.36019819183112 L-71.53417009669988,-47.67306290709414 L-71.99025657208416,-46.98150037038875 L-72.43965753188208,-46.28557480501874 L-72.88233124159697,-45.58535083946907 L-73.3182365914714,-44.88089350140402 L-73.74733310030487,-44.17226821162824 L-74.16958091921316,-43.4595407780114 L-74.58494083532904,-42.74277738937672 L-74.99337427544374,-42.022044609354246 L-75.39484330958928,-41.297409370199325 L-75.78931065456075,-40.568938966576766 L-76.17673967737879,-39.83670104931141 L-76.55709439869158,-39.1007636191056 L-76.93033949611606,-38.361195020224166 L-77.29644030751828,-37.6180639341475 L-77.65536283423236,-36.871439373193304 L-78.0070737442178,-36.121390674107666 L-78.35154037515497,-35.3679874916259 L-78.68873073747835,-34.61129979200399 L-79.01861351734728,-33.85139784652102 L-79.34115807955399,-33.08835222495326 L-79.65633447036865,-32.3222337890206 L-79.96411342032098,-31.553113685805833 L-80.26446634691851,-30.781063341147433 L-80.55736535730091,-30.006154453006467 L-80.84278325083031,-29.228458984808213 L-81.12069352161734,-28.448049158759147 L-81.39107036098267,-27.664997449139868 L-81.65388865985376,-26.87937657557466 L-81.9091240110967,-26.09125949627822 L-82.15675271178277,-25.30071940128026 L-82.39675176538974,-24.507829705628573 L-82.62909888393735,-23.712664042571202 L-82.85377249005731,-22.915296256718328 L-83.07075171899696,-22.11580039718458 L-83.28001642055702,-21.314250710712283 L-83.48154716096282,-20.510721634776417 L-83.67532522466911,-19.705287790671825 L-83.86133261609803,-18.898023976583353 L-84.03955206131039,-18.08900516063959 L-84.20996700960983,-17.27830647395078 L-84.37256163507979,-16.466003203631658 L-84.52732083805324,-15.652170785809737 L-84.67423024651497,-14.836884798619792 L-84.81327621743623,-14.02022095518516 L-84.94444583804172,-13.202255096586486 L-85.06772692700879,-12.383063184818585 L-85.18310803559868,-11.562721295736097 L-85.2905784487197,-10.741305611988547 L-85.39012818592232,-9.918892415945496 L-85.48174800232603,-9.095558082612428 L-85.56542938947788,-8.271379072538041 L-85.64116457614266,-7.446431924713583 L-85.70894652902453,-6.620793249464914 L-85.76876895342023,-5.794539721337937 L-85.82062629380366,-4.967748071978067 L-85.86451373434174,-4.140495083004397 L-85.90042719934173,-3.31285757887922 L-85.92836335362963,-2.484912419773583 L-85.94831960286001,-1.6567364944295098 L-85.96029409375686,-0.8284067130195824 L-85.96428571428571,-4.525800960213693e-12 " />
			<path d="M-3.214285714285707,-63.0 L3.214285714285722,-63.0 " />
			<path d="M-3.214285714285705,-77.85714285714286 L-3.214285714285707,-63.0 " />
			<path d="M3.214285714285722,-63.0 L3.2142857142857237,-77.85714285714286 " />
			<path d="M3.2142857142857237,-77.85714285714286 L-3.214285714285705,-77.85714285714286 " />
			<path d="M15.43114285714286,-34.714285714285715 L-15.43114285714286,-34.714285714285715 " />
			<path d="M-15.43114285714286,-34.714285714285715 L-15.531817085403931,-34.710330213084426 L-15.631870623570196,-34.69848809646079 L-15.73068660830768,-34.678832375001704 L-15.827655806210828,-34.65148423276615 L-15.922180369929036,-34.6166122801452 L-16.013677524094376,-34.574431514322846 L-16.101583158325525,-34.525201993746926 L-16.18535530515586,-34.46922723478226 L-16.2644774814431,-34.40685234043136 L-16.338461872659654,-34.33846187265966 L-16.406852340431357,-34.2644774814431 L-16.469227234782256,-34.18535530515586 L-16.525201993746926,-34.101583158325525 L-16.574431514322846,-34.013677524094376 L-16.616612280145198,-33.92218036992904 L-16.651484232766155,-33.82765580621083 L-16.678832375001708,-33.73068660830768 L-16.698488096460792,-33.631870623570194 L-16.710330213084426,-33.53181708540393 L-16.714285714285715,-33.43114285714286 " />
			<path d="M-16.714285714285715,-33.43114285714286 L-16.714285714285715,-33.426 " />
			<path d="M-16.714285714285715,-33.426 L-16.710330213084426,-33.32532577173893 L-16.698488096460792,-33.22527223357267 L-16.678832375001708,-33.12645624883518 L-16.651484232766155,-33.02948705093203 L-16.616612280145198,-32.934962487213824 L-16.574431514322846,-32.843465333048485 L-16.525201993746926,-32.755559698817336 L-16.469227234782256,-32.671787551987 L-16.406852340431357,-32.59266537569976 L-16.338461872659654,-32.518680984483204 L-16.264477481443105,-32.450290516711505 L-16.18535530515586,-32.38791562236061 L-16.101583158325525,-32.331940863395936 L-16.013677524094376,-32.282711342820015 L-15.922180369929036,-32.240530576997664 L-15.827655806210828,-32.20565862437671 L-15.73068660830768,-32.17831048214116 L-15.631870623570196,-32.15865476068207 L-15.531817085403931,-32.146812644058436 L-15.43114285714286,-32.142857142857146 " />
			<path d="M-15.43114285714286,-32.142857142857146 L15.43114285714286,-32.142857142857146 " />
			<path d="M15.43114285714286,-32.142857142857146 L15.531817085403931,-32.146812644058436 L15.631870623570196,-32.15865476068207 L15.73068660830768,-32.17831048214116 L15.827655806210828,-32.2056586243767 L15.922180369929036,-32.240530576997664 L16.013677524094376,-32.282711342820015 L16.101583158325525,-32.331940863395936 L16.18535530515586,-32.3879156223606 L16.2644774814431,-32.450290516711505 L16.338461872659654,-32.518680984483204 L16.406852340431357,-32.59266537569976 L16.469227234782256,-32.671787551987 L16.525201993746926,-32.755559698817336 L16.57443151432285,-32.843465333048485 L16.616612280145198,-32.934962487213824 L16.651484232766155,-33.02948705093203 L16.678832375001708,-33.12645624883518 L16.698488096460792,-33.22527223357267 L16.710330213084426,-33.32532577173893 L16.714285714285715,-33.42600000000001 " />
			<path d="M16.714285714285715,-33.426 L16.714285714285715,-33.43114285714286 " />
			<path d="M15.43114285714286,-34.714285714285715 L15.531817085403931,-34.710330213084426 L15.631870623570196,-34.69848809646079 L15.73068660830768,-34.678832375001704 L15.827655806210828,-34.65148423276615 L15.922180369929036,-34.6166122801452 L16.013677524094376,-34.574431514322846 L16.101583158325525,-34.525201993746926 L16.18535530515586,-34.46922723478226 L16.2644774814431,-34.40685234043136 L16.338461872659654,-34.33846187265966 L16.406852340431357,-34.2644774814431 L16.469227234782256,-34.18535530515586 L16.525201993746926,-34.101583158325525 L16.574431514322846,-34.013677524094376 L16.616612280145198,-33.92218036992904 L16.651484232766155,-33.82765580621083 L16.678832375001708,-33.73068660830768 L16.698488096460792,-33.631870623570194 L16.710330213084426,-33.53181708540393 L16.714285714285715,-33.43114285714286 " />
			<path d="M-63.0,3.2142857142857 L-63.0,-3.2142857142857286 " />
			<path d="M-77.85714285714286,3.214285714285697 L-63.0,3.2142857142857 " />
			<path d="M-63.0,-3.2142857142857286 L-77.85714285714286,-3.2142857142857317 " />
			<path d="M-77.85714285714286,-3.2142857142857317 L-77.85714285714286,3.214285714285697 " />
			<path d="M63.0,-3.2142857142857073 L63.0,3.2142857142857215 " />
			<path d="M77.85714285714286,-3.214285714285706 L63.0,-3.2142857142857078 " />
			<path d="M63.0,3.2142857142857215 L77.85714285714286,3.2142857142857233 " />
			<path d="M77.85714285714286,3.214285714285723 L77.85714285714286,-3.214285714285706 " />
			<path d="M11.89285714285714,28.285714285714285 L11.896847916429072,28.602002869573614 L11.908817696200916,28.918090071031777 L11.928758860958645,29.233774635908723 L11.95665871407062,29.54885556638496 L11.992499491571595,29.863132248977813 L12.036258373473109,30.176404582272934 L12.087907498293092,30.488473104329824 L12.147413980795386,30.799139119680145 L12.21473993292793,31.108204825838055 L12.289842487946261,31.415473439241964 L12.372673827706969,31.720749320547526 L12.463181213113717,32.023838099192126 L12.561307017696487,32.324546797151505 L12.666988764302603,32.62268395180976 L12.780159164876233,32.91805973786449 L12.900746163300996,33.2104860881894 L13.028672981278431,33.49977681357756 L13.163858167213089,33.785747721288914 L13.306215648073142,34.06821673232662 L13.455654784193484,34.347003997367636 L13.612080426986413,34.621932011273564 L13.775392979523184,34.892825726109045 L13.945488459947837,35.15951266259553 L14.122258567682916,35.42182301992968 L14.305590752384948,35.679589783896304 L14.49536828560577,35.932648833207054 L14.69147033511407,36.18083904399726 L14.893772041829823,36.424002392414195 L15.102144599322648,36.661984055231606 L15.31645533582345,36.89463250842639 L15.536567798697158,37.12179962365461 L15.762341841322737,37.343340762565525 L15.993633712325197,37.559114868893474 L16.230296147102752,37.768984558269054 L16.472178461590868,37.972816205692396 L16.719126648203517,38.17048003061281 L16.970983473890495,38.36185017956065 L17.227588580248455,38.54680480627883 L17.488778585621827,38.72522614930287 L17.75438718912867,38.89700060694015 L18.024245276545237,39.062018809600694 L18.298181027981737,39.22017568943322 L18.576020027280897,39.37137054722238 L18.857585373069504,39.51550711650437 L19.14269779139234,39.652493624860284 L19.43117574985673,39.78224285234799 L19.722835573215065,39.9046721870355 L20.017491560311665,40.01970367760035 L20.31495610231957,40.12726408296156 L20.615039802191944,40.22728491891261 L20.917551595252057,40.3197025017256 L21.222298870845034,40.40445798869901 L21.529087594973955,40.48149741562309 L21.837722433842192,40.55077173113914 L22.14800687822335,40.612236827970754 L22.459743368579574,40.66585357100708 L22.772733420848652,40.71158782222036 L23.086777752819714,40.749410462401755 L23.401676411017128,40.77929740970171 L23.717228898011815,40.80122963496292 L24.033234300078885,40.81519317383635 L24.349491415120333,40.82117913567234 L24.665798880771334,40.81918370918136 L24.981955302608608,40.809208164860664 L25.297759382379155,40.79125885418537 L25.61301004616781,40.76534720556444 L25.9275065724219,40.73148971706412 L26.241048719751625,40.68970794590363 L26.553436854424625,40.640028494729485 L26.864472077473746,40.58248299467757 L27.173956351336894,40.517108085233346 L27.48169262594849,40.4439453909034 L27.787484964202143,40.36304149471289 L28.091138666704712,40.27444790854593 L28.392460395742308,40.17822104034774 L28.69125829837932,40.074422158209416 L28.987342128612042,39.96311735135831 L29.280523368499203,39.84437748807866 L29.570615348192195,39.71827817058947 L29.857433364788644,39.58489968690817 L30.14079479993358,39.444326959730944 L30.42051923609341,39.29664949236198 L30.69642857142856,39.14196131172636 L30.968347133191777,38.980360908502654 L31.23610178957976,38.81195117441345 L31.499522059966967,38.63683933671373 L31.75844022345144,38.45513688991878 L32.01269142564347,38.26695952481513 L32.26211378362911,38.072427054799654 L32.50654848904185,37.871663339593866 L32.74583990917657,37.664796206381865 L32.97983568608163,37.45195736842215 L33.20838683356587,37.2332823411852 L33.43134783205881,37.008910356070146 L33.648576721263666,36.77898427175549 L33.85993519054404,36.543650483240334 L34.065288666987044,36.30305882863399 L34.26450640108642,36.05736249375341 L34.45746154999138,35.806717914588994 L34.64403125826804,35.55128467770114 L34.82409673612204,35.29122541861073 L34.99754333503253,35.02670571824831 L35.16426062074947,34.75789399752799 L35.32414244360754,34.48496141011303 L35.47708700611222,34.20808173344156 L35.622996927754635,33.92743125808165 L35.76177930701425,33.64318867548628 L35.89334578050963,33.35553496421971 L36.01761257925987,33.064653274727554 L36.13450058202065,32.77072881272407 L36.24393536566112,32.47394872127081 L36.345847252549454,32.174501961621786 L36.44017135491689,31.87257919291094 L36.526847616172105,31.56837265075864 L36.605820849139505,31.262076024874318 L36.677040771197156,30.953884335733377 L36.74046203629198,30.643993810406748 L36.796044263811766,30.33260175762219 L36.84375206429572,30.01990644213693 L36.88355506196707,29.70610695850157 L36.915427914073504,29.39140310429568 L36.93935032702297,29.075995252915728 L36.95530706930473,28.760084225996444 L36.96328798118732,28.443871165546746 L36.96328798118732,28.12755740588169 L36.95530706930472,27.81134434543199 L36.939350327022964,27.495433318512706 L36.91542791407349,27.180025467132754 L36.88355506196706,26.865321612926863 L36.8437520642957,26.551522129291506 L36.796044263811744,26.238826813806245 L36.74046203629195,25.927434761021686 L36.67704077119713,25.617544235695057 L36.60582084913947,25.30935254655412 L36.52684761617207,25.0030559206698 L36.440171354916856,24.698849378517497 L36.34584725254941,24.39692660980666 L36.24393536566108,24.09747985015763 L36.1345005820206,23.800699758704372 L36.01761257925982,23.506775296700887 L35.89334578050958,23.215893607208734 L35.76177930701419,22.928239895942166 L35.62299692775458,22.643997313346798 L35.47708700611216,22.363346837986885 L35.32414244360747,22.086467161315422 L35.164260620749396,21.81353457390047 L34.99754333503246,21.544722853180147 L34.82409673612196,21.280203152817727 L34.644031258267965,21.020143893727315 L34.4574615499913,20.76471065683947 L34.26450640108634,20.514066077675054 L34.06528866698696,20.26836974279447 L33.85993519054395,20.027778088188136 L33.64857672126357,19.79244429967298 L33.43134783205872,19.562518215358324 L33.20838683356577,19.338146230243275 L32.97983568608153,19.119471203006327 L32.74583990917647,18.906632365046615 L32.50654848904175,18.69976523183462 L32.26211378362901,18.499001516628837 L32.01269142564337,18.304469046613367 L31.75844022345135,18.116291681509715 L31.49952205996688,17.934589234714778 L31.23610178957967,17.759477397015065 L30.968347133191692,17.591067662925866 L30.696428571428477,17.42946725970216 L30.420519236093334,17.274779079066548 L30.14079479993351,17.12710161169759 L29.857433364788577,16.986528884520364 L29.57061534819213,16.853150400839073 L29.28052336849914,16.72705108334988 L28.98734212861198,16.608311220070235 L28.691258298379264,16.497006413219133 L28.392460395742255,16.39320753108082 L28.09113866670466,16.296980662882625 L27.787484964202093,16.208387076715667 L27.48169262594844,16.12748318052516 L27.173956351336848,16.054320486195216 L26.8644720774737,15.988945576750993 L26.553436854424586,15.931400076699076 L26.241048719751586,15.881720625524938 L25.927506572421866,15.839938854364444 L25.613010046167773,15.806081365864129 L25.297759382379127,15.780169717243194 L24.98195530260858,15.762220406567904 L24.66579888077131,15.752244862247213 L24.349491415120312,15.750249435756235 L24.033234300078867,15.75623539759222 L23.717228898011797,15.770198936465647 L23.401676411017114,15.79213116172686 L23.086777752819703,15.822018109026812 L22.772733420848645,15.859840749208214 L22.45974336857957,15.905575000421493 L22.148006878223345,15.959191743457815 L21.837722433842192,16.020656840289426 L21.52908759497396,16.08993115580548 L21.22229887084504,16.166970582729558 L20.917551595252068,16.25172606970296 L20.615039802191955,16.344143652515953 L20.314956102319584,16.444164488467003 L20.01749156031168,16.551724893828215 L19.722835573215086,16.666756384393057 L19.431175749856752,16.789185719080564 L19.14269779139236,16.918934946568275 L18.85758537306953,17.05592145492419 L18.576020027280926,17.20005802420618 L18.29818102798177,17.351252881995336 L18.024245276545265,17.50940976182786 L17.754387189128707,17.674427964488398 L17.48877858562186,17.84620242212568 L17.227588580248494,18.024623765149713 L16.970983473890534,18.20957839186789 L16.719126648203556,18.400948540815733 L16.472178461590914,18.598612365736138 L16.2302961471028,18.802444013159477 L15.993633712325247,19.012313702535053 L15.762341841322788,19.228087808862995 L15.536567798697211,19.449628947773903 L15.316455335823504,19.676796063002122 L15.102144599322704,19.9094445161969 L14.89377204182988,20.14742617901431 L14.691470335114127,20.39058952743124 L14.49536828560583,20.638779738221437 L14.305590752385008,20.891838787532187 L14.122258567682977,21.149605551498798 L13.945488459947898,21.411915908832945 L13.775392979523243,21.67860284531943 L13.61208042698647,21.949496560154902 L13.455654784193543,22.22442457406083 L13.3062156480732,22.503211839101837 L13.163858167213146,22.785680850139542 L13.028672981278486,23.071651757850887 L12.90074616330105,23.360942483239047 L12.780159164876284,23.653368833563952 L12.666988764302653,23.948744619618672 L12.561307017696533,24.246881774276925 L12.463181213113762,24.5475904722363 L12.37267382770701,24.850679250880894 L12.2898424879463,25.155955132186456 L12.214739932927966,25.46322374559036 L12.147413980795418,25.772289451748264 L12.087907498293122,26.08295546709858 L12.036258373473135,26.395023989155465 L11.992499491571616,26.708296322450586 L11.956658714070638,27.02257300504343 L11.92875886095866,27.337653935519665 L11.908817696200925,27.653338500396607 L11.896847916429078,27.969425701854767 L11.89285714285714,28.285714285714093 " />
			<path d="M15.503545201074772,50.87090282324847 L15.79435872218653,51.06912392678028 L16.089572882835277,51.26072953551667 L16.389037219840255,51.44562199293166 L16.69259910381345,51.62370706402251 L17.000103816950933,51.79489398333886 L17.31139463188862,51.95909550124359 L17.626312891582227,52.116227928381775 L17.94469809017075,52.26621117833501 L18.266387954782235,52.40896880843944 L18.59121852824016,52.54442805874662 L18.91902425262824,52.67251988910746 L19.249638053671127,52.793179014360234 L19.582891425887908,52.90634393760473 L19.9186145184751,53.01195698154571 L20.2566362218753,53.10996431788955 L20.59678425498739,53.200315994779146 L20.938885252973854,53.28296596225315 L21.282764855620435,53.35787209571641 L21.628247796203137,53.42499621740986 L21.97515799081722,53.48430411586873 L22.32331862812271,53.53576556335927 L22.672552259460673,53.57935433128507 L23.02268088929428,53.61504820355508 L23.373526065928647,53.64282898790663 L23.724908972463126,53.66268252517756 L24.076650517929767,53.674598696522736 L24.428571428571427,53.67857142857143 L24.78049233921309,53.674598696522736 L25.13223388467973,53.66268252517756 L25.48361679121421,53.64282898790663 L25.83446196784858,53.61504820355508 L26.184590597682185,53.57935433128507 L26.533824229020148,53.53576556335927 L26.881984866325638,53.48430411586873 L27.22889506093972,53.42499621740986 L27.57437800152242,53.35787209571641 L27.918257604169003,53.28296596225315 L28.260358602155467,53.200315994779146 L28.600506635267557,53.10996431788955 L28.93852833866776,53.01195698154571 L29.274251431254953,52.90634393760473 L29.60750480347173,52.793179014360234 L29.938118604514614,52.67251988910746 L30.2659243289027,52.54442805874662 L30.590754902360622,52.40896880843944 L30.912444766972108,52.26621117833501 L31.230829965560627,52.116227928381775 L31.54574822525423,51.959095501243596 L31.857039040191914,51.79489398333886 L32.1645437533294,51.62370706402252 L32.468105637302585,51.44562199293167 L32.76756997430756,51.260729535516674 L33.06278413495631,51.06912392678029 L33.35359765606806,50.870902823248485 " />
			<path d="M33.35359765606808,50.870902823248464 L33.43207862866593,50.8114973841434 L33.505775100411384,50.74625093360822 L33.57425341778537,50.67554740254508 L33.63711063255159,50.59980283305655 L33.69397687283235,50.51946293032136 L33.744517519552545,50.435000439923115 L33.788435175444846,50.34691236606465 L33.825471415030044,50.25571704703699 L33.85540830527485,50.16195110515167 L33.87806968797931,50.066166289084144 L33.89332221634779,49.96892622720871 L33.90107613964398,49.870803111029666 L33.901285831312855,49.77237432822416 L33.89395005746182,49.674219065109156 L33.87911198412136,49.57691489852461 L33.856858923242335,49.48103439718736 L33.827321818924695,49.38714175251432 L33.79067447690062,49.295789458740494 L33.74713254180623,49.20751506186684 L33.696952228259896,49.122837996568386 L33.6404288132137,49.04225652967502 L33.57789489844989,48.96624482821083 L33.50971845344593,48.895250169244186 L33.43630065012489,48.829690307967006 L33.358073502232095,48.769951019490094 L33.27549732322853,48.716383828819495 L33.18905801765982,48.66930394237137 L33.09926422193907,48.628988393197005 L33.00664431136819,48.59567441083208 L32.91174329100922,48.569558025362504 L32.815119588700966,48.55079291392093 L32.71734176909165,48.53948949640156 L32.618985188023395,48.535714285714285 " />
			<path d="M32.61898518802341,48.535714285714285 L32.60999887749742,48.535714285714285 " />
			<path d="M31.875928519318133,48.766433130835715 L31.958099670035562,48.71364991561542 L32.04404737128312,48.66726933272258 L32.13327371505142,48.62756007187628 L32.22526179965996,48.594752174819746 L32.31947872424657,48.56903570265385 L32.41537867594261,48.550559634784406 L32.512406091849286,48.539431005862056 L32.60999887749742,48.535714285714285 " />
			<path d="M16.98121433782458,48.76643313083572 L17.243514797598603,48.94467911118991 L17.510079415407272,49.11648267705107 L17.780749991571007,49.28174186714132 L18.055365889622845,49.440358604112156 L18.33376413164233,49.59223875275099 L18.615779494978963,49.73729217584814 L18.901244610307874,49.87543278769108 L19.189990060959488,50.00657860515428 L19.48184448346423,50.13065179635414 L19.776634669252623,50.24757872684039 L20.0741856674504,50.35729000329637 L20.374320888707626,50.45972051472225 L20.676862210000237,50.554809471076894 L20.981630080341752,50.64250043935522 L21.288443627342463,50.722741377079885 L21.597120764552848,50.795484663187224 L21.90747829952748,50.86068712628919 L22.21933204254534,50.91831007029456 L22.532496915921968,50.96831929737409 L22.846787063848634,51.01068512825614 L23.162015962693257,51.045382419840635 L23.477996531697706,51.07239058012079 L23.79454124400571,51.09169358040406 L24.11146223795554,51.10327996482477 L24.428571428571377,51.107142857142854 L24.745680619187215,51.10327996482477 L25.062601613137048,51.09169358040406 L25.37914632544505,51.07239058012078 L25.695126894449498,51.04538241984063 L26.01035579329412,51.01068512825614 L26.324645941220787,50.96831929737408 L26.637810814597415,50.91831007029455 L26.949664557615275,50.860687126289186 L27.260022092589907,50.79548466318722 L27.568699229800288,50.72274137707987 L27.875512776801003,50.6425004393552 L28.180280647142517,50.55480947107688 L28.482821968435125,50.459720514722235 L28.782957189692354,50.35729000329635 L29.08050818789013,50.24757872684037 L29.375298373678522,50.130651796354115 L29.667152796183267,50.00657860515426 L29.955898246834877,49.87543278769107 L30.241363362163785,49.73729217584811 L30.523378725500418,49.592238752750966 L30.8017769675199,49.440358604112134 L31.07639286557174,49.2817418671413 L31.34706344173547,49.116482677051046 L31.613628059544144,48.944679111189885 L31.87592851931817,48.76643313083569 " />
			<path d="M16.24714397964529,48.535714285714285 L16.344736765293423,48.539431005862056 L16.4417641812001,48.550559634784406 L16.53766413289614,48.56903570265385 L16.631881057482754,48.594752174819746 L16.72386914209129,48.62756007187628 L16.813095485859588,48.66726933272258 L16.89904318710715,48.71364991561542 L16.98121433782458,48.76643313083572 " />
			<path d="M16.247143979645294,48.535714285714285 L16.238157669119445,48.535714285714285 " />
			<path d="M15.503545201074772,50.870902823248464 L15.425064228476929,50.8114973841434 L15.351367756731468,50.74625093360822 L15.282889439357485,50.67554740254508 L15.220032224591264,50.59980283305655 L15.163165984310501,50.51946293032136 L15.11262533759031,50.435000439923115 L15.068707681698006,50.34691236606465 L15.031671442112808,50.25571704703699 L15.001734551868005,50.16195110515167 L14.979073169163541,50.066166289084144 L14.963820640795063,49.96892622720871 L14.956066717498869,49.870803111029666 L14.955857025829998,49.77237432822416 L14.963192799681035,49.674219065109156 L14.978030873021499,49.57691489852461 L15.000283933900516,49.48103439718736 L15.029821038218156,49.38714175251432 L15.066468380242236,49.295789458740494 L15.11001031533662,49.20751506186684 L15.160190628882962,49.122837996568386 L15.216714043929148,49.04225652967502 L15.279247958692963,48.96624482821083 L15.34742440369693,48.895250169244186 L15.42084220701796,48.829690307967006 L15.499069354910755,48.769951019490094 L15.581645533914324,48.716383828819495 L15.668084839483035,48.66930394237137 L15.75787863520378,48.628988393197005 L15.850498545774663,48.59567441083208 L15.945399566133633,48.569558025362504 L16.042023268441888,48.55079291392093 L16.139801088051204,48.53948949640156 L16.238157669119456,48.535714285714285 " />
			<path d="M-9.000000000000401,1.98373376996588e-15 L-8.996009978392786,0.2679635584639312 L-8.984043451408256,0.5356895212860106 L-8.964111029424867,0.8029405034936665 L-8.936230385952483,1.069479541266085 L-8.900426241962194,1.3350703020432693 L-8.856730343966921,1.5994772940753783 L-8.805181435872704,1.8624660752265425 L-8.745825224625577,2.1238034608480163 L-8.678714339684518,2.3832577305363545 L-8.603908286356424,2.64059883359328 L-8.521473393034439,2.8955985930050767 L-8.43148275238647,3.148030907760634 L-8.334016156546,3.397671953328769 L-8.229160026362678,3.644300380117043 L-8.11700733477542,3.8876975097361375 L-7.997657524375957,4.127647528895738 L-7.871216419235922,4.363937680760024 L-7.737796131075672,4.596358453593084 L-7.597514959858018,4.824703766526992 L-7.450497288895029,5.048771152287835 L-7.29687347456089,5.268361936717671 L-7.136779730708633,5.483281414933231 L-6.970358007893194,5.693339023965186 L-6.797755867507907,5.898348511724897 L-6.619126350946034,6.098128102148823 L-6.4346278439033116,6.292500656374174 L-6.244423935941893,6.4812938298028895 L-6.048683275440137,6.6643402249146675 L-5.847579420056907,6.8414775396935745 L-5.641290682842952,7.012548711536617 L-5.429999974135798,7.177402056516663 L-5.21389463937839,7.3358914038762535 L-4.993166293005215,7.4878762256330464 L-4.76801064854326,7.633221761181968 L-4.538627345078411,7.77179913678359 L-4.305219770241167,7.903485479832811 L-4.067994879868635,8.028164027806474 L-3.8271630145026934,8.145724231793375 L-3.5829377128870337,8.256061854514822 L-3.33553552262845,8.359079062748865 L-3.085175808190254,8.454684514076213 L-2.8320805563880644,8.542793437870952 L-2.5764741795604316,8.623327710464244 L-2.3185833165888194,8.696215924414359 L-2.058636631943375,8.761393451821608 L-1.796864612932668,8.818802501632057 L-1.53349936533717,8.868392170879215 L-1.2687744076076812,8.910118489818238 L-1.002924463811183,8.94394446091264 L-0.7361852555077042,8.969840091638963 L-0.4687932927427406,8.987782421080286 L-0.20098566434054443,8.99775554028502 L0.0670001723157714,8.999750606372913 L0.3349266018309194,8.99376585037579 L0.602556061484229,8.979806578806036 L0.8696512518697335,8.95788516895147 L1.1359753473027818,8.928021057900763 L1.4012922058066175,8.890240725309104 L1.66536657849273,8.844577669919468 L1.927964318149334,8.791072379860234 L2.1888525868530206,8.729772296745494 L2.4478000624195,8.660731773609962 L2.704577143510385,8.584012026715659 L2.958956153214142,8.499681081273215 L3.210711540920719,8.407813711125856 L3.4596200823108303,8.308491372449565 L3.705461077282594,8.201802131528215 L3.9480165456400163,8.087840586667713 L4.187071420369809,7.966707784318376 L4.4224137383351785,7.838511129479931 L4.653834828217486,7.703364290468561 L4.881129495539159,7.5613870981304565 L5.104096204603771,7.412705439591222 L5.322537257192001,7.257451146635352 L5.536258967855,7.095761878814752 L5.745071835649755,6.9277810013899375 L5.948790712164166,6.75365745821215 L6.147234965682861,6.573545639659096 L6.340228641348187,6.3876052457414 L6.527600617174356,6.196001144501165 L6.709184755776433,5.9989032258281805 L6.884820051679614,5.796486250823408 L7.054350774078183,5.588929696843294 L7.217626604917581,5.376417598362325 L7.37450277217713,5.159138383794906 L7.524840178235254,4.937284708421259 L7.6685055232033745,4.71105328356549 L7.805371423119118,4.480644702177265 L7.935316522894035,4.246263260971764 L8.058225603915703,4.008116779285619 L8.173989686208781,3.766416414809431 L8.282506125064435,3.5213764763602713 L8.383678702052485,3.273214233860173 L8.477417710335535,3.0221497256890837 L8.56364003420947,2.7684055635831175 L8.642269222799774,2.512206735251075 L8.713235557848343,2.2537804048842665 L8.776476115530677,1.9933557117365008 L8.831934822248634,1.7311635669528476 L8.879562504349297,1.4674364488273146 L8.919316931725842,1.2024081966709763 L8.951162855261774,0.9363138034733289 L8.975072038085312,0.6693892075407109 L8.99102328060621,0.40187108329653914 L8.999002439312843,0.1339966314288498 L8.999002439312843,-0.1339966314287837 L8.991023280606212,-0.40187108329647303 L8.975072038085315,-0.6693892075406449 L8.951162855261781,-0.9363138034732631 L8.91931693172585,-1.2024081966709108 L8.879562504349307,-1.4674364488272493 L8.831934822248646,-1.7311635669527827 L8.776476115530691,-1.9933557117364364 L8.713235557848359,-2.2537804048842034 L8.64226922279979,-2.5122067352510116 L8.56364003420949,-2.7684055635830545 L8.477417710335557,-3.022149725689022 L8.383678702052508,-3.273214233860111 L8.28250612506446,-3.5213764763602105 L8.173989686208808,-3.766416414809371 L8.058225603915732,-4.00811677928556 L7.935316522894063,-4.2462632609717055 L7.805371423119149,-4.480644702177207 L7.668505523203407,-4.711053283565434 L7.524840178235288,-4.937284708421204 L7.374502772177165,-5.1591383837948515 L7.217626604917618,-5.376417598362273 L7.054350774078222,-5.588929696843242 L6.884820051679654,-5.796486250823357 L6.709184755776474,-5.99890322582813 L6.527600617174399,-6.196001144501116 L6.34022864134823,-6.387605245741352 L6.147234965682906,-6.573545639659049 L5.948790712164213,-6.753657458212105 L5.745071835649799,-6.927781001389897 L5.536258967855042,-7.095761878814715 L5.322537257192041,-7.25745114663532 L5.104096204603809,-7.412705439591193 L4.881129495539195,-7.561387098130431 L4.65383482821752,-7.703364290468537 L4.422413738335209,-7.838511129479911 L4.187071420369836,-7.966707784318358 L3.94801654564004,-8.087840586667697 L3.705461077282614,-8.201802131528202 L3.4596200823108467,-8.308491372449554 L3.2107115409207325,-8.407813711125849 L2.9589561532141517,-8.49968108127321 L2.7045771435103907,-8.584012026715653 L2.447800062419502,-8.660731773609958 L2.188852586853019,-8.729772296745491 L1.9279643181493282,-8.79107237986023 L1.6653665784927205,-8.844577669919468 L1.4012922058066037,-8.890240725309102 L1.1359753473027643,-8.92802105790076 L0.8696512518697117,-8.95788516895147 L0.6025560614842033,-8.979806578806034 L0.3349266018308896,-8.993765850375787 L0.06700017231573763,-8.99975060637291 L-0.20098566434058218,-8.997755540285016 L-0.4687932927427823,-8.987782421080281 L-0.7361852555077498,-8.969840091638956 L-1.0029244638112322,-8.94394446091263 L-1.2687744076077343,-8.910118489818226 L-1.5334993653372269,-8.868392170879202 L-1.7968646129327286,-8.81880250163204 L-2.058636631943439,-8.761393451821588 L-2.318583316588887,-8.696215924414338 L-2.576474179560502,-8.623327710464219 L-2.832080556388138,-8.542793437870923 L-3.0851758081903307,-8.454684514076181 L-3.3355355226285295,-8.359079062748831 L-3.582937712887116,-8.256061854514785 L-3.827163014502778,-8.14572423179333 L-4.067994879868722,-8.028164027806428 L-4.305219770241256,-7.903485479832759 L-4.538627345078503,-7.771799136783534 L-4.7680106485433535,-7.633221761181907 L-4.99316629300531,-7.48787622563298 L-5.213894639378486,-7.3358914038761815 L-5.429999974135895,-7.177402056516586 L-5.641290682843049,-7.012548711536534 L-5.847579420057007,-6.841477539693487 L-6.0486832754402355,-6.664340224914573 L-6.244423935941993,-6.48129382980279 L-6.434627843903411,-6.29250065637407 L-6.619126350946131,-6.098128102148712 L-6.797755867508006,-5.898348511724779 L-6.9703580078932905,-5.693339023965064 L-7.136779730708729,-5.483281414933103 L-7.296873474560985,-5.268361936717536 L-7.4504972888951215,-5.048771152287695 L-7.59751495985811,-4.824703766526844 L-7.73779613107576,-4.596358453592932 L-7.871216419236007,-4.363937680759865 L-7.99765752437604,-4.127647528895574 L-8.117007334775499,-3.8876975097359674 L-8.229160026362754,-3.644300380116867 L-8.334016156546074,-3.3976719533285875 L-8.43148275238654,-3.1480309077604485 L-8.521473393034503,-2.895598593004885 L-8.603908286356482,-2.6405988335930837 L-8.678714339684573,-2.3832577305361524 L-8.745825224625627,-2.12380346084781 L-8.805181435872749,-1.8624660752263305 L-8.85673034396696,-1.5994772940751614 L-8.900426241962226,-1.335070302043048 L-8.93623038595251,-1.0694795412658595 L-8.964111029424886,-0.8029405034934367 L-8.98404345140827,-0.5356895212857765 L-8.996009978392793,-0.26796355846369335 L-9.000000000000401,2.3958754285053447e-13 " />
			<path d="M-36.964285714285715,28.285714285714285 L-36.96029494071378,28.602002869573614 L-36.948325160941934,28.918090071031777 L-36.92838399618421,29.233774635908723 L-36.900484143072234,29.54885556638496 L-36.86464336557126,29.863132248977813 L-36.820884483669744,30.176404582272934 L-36.76923535884976,30.488473104329824 L-36.70972887634747,30.799139119680145 L-36.64240292421492,31.108204825838055 L-36.567300369196595,31.415473439241964 L-36.484469029435886,31.720749320547526 L-36.39396164402913,32.023838099192126 L-36.29583583944637,32.324546797151505 L-36.19015409284025,32.62268395180976 L-36.07698369226662,32.91805973786449 L-35.95639669384186,33.2104860881894 L-35.82846987586442,33.49977681357756 L-35.69328468992977,33.785747721288914 L-35.55092720906971,34.06821673232662 L-35.40148807294937,34.347003997367636 L-35.24506243015644,34.621932011273564 L-35.08174987761967,34.892825726109045 L-34.911654397195015,35.15951266259553 L-34.73488428945994,35.42182301992968 L-34.5515521047579,35.679589783896304 L-34.36177457153708,35.932648833207054 L-34.165672522028785,36.18083904399726 L-33.96337081531303,36.424002392414195 L-33.754998257820205,36.661984055231606 L-33.540687521319406,36.89463250842639 L-33.3205750584457,37.12179962365461 L-33.09480101582012,37.343340762565525 L-32.863509144817655,37.559114868893474 L-32.6268467100401,37.768984558269054 L-32.38496439555198,37.972816205692396 L-32.13801620893934,38.17048003061281 L-31.88615938325236,38.36185017956065 L-31.6295542768944,38.54680480627883 L-31.368364271521028,38.72522614930287 L-31.102755668014183,38.89700060694015 L-30.832897580597617,39.062018809600694 L-30.558961829161117,39.22017568943322 L-30.281122829861957,39.37137054722238 L-29.99955748407335,39.51550711650437 L-29.714445065750514,39.652493624860284 L-29.425967107286123,39.78224285234799 L-29.13430728392779,39.9046721870355 L-28.83965129683119,40.01970367760035 L-28.542186754823284,40.12726408296156 L-28.24210305495091,40.22728491891261 L-27.939591261890797,40.3197025017256 L-27.63484398629782,40.40445798869901 L-27.3280552621689,40.48149741562309 L-27.019420423300662,40.55077173113914 L-26.709135978919505,40.612236827970754 L-26.39739948856328,40.66585357100708 L-26.0844094362942,40.71158782222036 L-25.77036510432314,40.749410462401755 L-25.455466446125726,40.77929740970171 L-25.13991395913104,40.80122963496292 L-24.82390855706397,40.81519317383635 L-24.50765144202252,40.82117913567234 L-24.19134397637152,40.81918370918136 L-23.875187554534246,40.809208164860664 L-23.5593834747637,40.79125885418537 L-23.244132810975046,40.76534720556444 L-22.929636284720953,40.73148971706412 L-22.61609413739123,40.68970794590363 L-22.30370600271823,40.640028494729485 L-21.99267077966911,40.58248299467757 L-21.68318650580596,40.517108085233346 L-21.375450231194364,40.4439453909034 L-21.06965789294071,40.36304149471289 L-20.766004190438142,40.27444790854593 L-20.464682461400546,40.17822104034774 L-20.165884558763533,40.074422158209416 L-19.869800728530812,39.96311735135831 L-19.57661948864365,39.84437748807866 L-19.28652750895066,39.71827817058947 L-18.99970949235421,39.58489968690817 L-18.716348057209274,39.444326959730944 L-18.436623621049446,39.29664949236198 L-18.160714285714295,39.14196131172636 L-17.888795723951077,38.980360908502654 L-17.621041067563095,38.81195117441345 L-17.357620797175887,38.63683933671373 L-17.098702633691413,38.45513688991878 L-16.84445143149939,38.26695952481513 L-16.595029073513743,38.072427054799654 L-16.350594368101003,37.871663339593866 L-16.111302947966287,37.664796206381865 L-15.87730717106123,37.45195736842215 L-15.64875602357699,37.2332823411852 L-15.42579502508404,37.008910356070146 L-15.208566135879192,36.77898427175549 L-14.997207666598811,36.543650483240334 L-14.791854190155806,36.30305882863399 L-14.592636456056432,36.05736249375341 L-14.399681307151472,35.806717914588994 L-14.213111598874812,35.55128467770114 L-14.033046121020815,35.29122541861073 L-13.859599522110319,35.02670571824831 L-13.692882236393386,34.75789399752799 L-13.533000413535312,34.48496141011303 L-13.380055851030635,34.20808173344156 L-13.234145929388218,33.92743125808165 L-13.095363550128607,33.64318867548628 L-12.963797076633226,33.35553496421971 L-12.839530277882986,33.064653274727554 L-12.722642275122205,32.77072881272407 L-12.61320749148173,32.47394872127081 L-12.511295604593398,32.174501961621786 L-12.416971502225962,31.87257919291094 L-12.33029524097075,31.56837265075864 L-12.251322008003353,31.262076024874318 L-12.180102085945698,30.953884335733377 L-12.116680820850876,30.643993810406748 L-12.061098593331089,30.33260175762219 L-12.013390792847135,30.01990644213693 L-11.97358779517578,29.70610695850157 L-11.941714943069348,29.39140310429568 L-11.917792530119884,29.075995252915728 L-11.901835787838126,28.760084225996444 L-11.893854875955531,28.443871165546746 L-11.893854875955533,28.12755740588169 L-11.901835787838131,27.81134434543199 L-11.917792530119893,27.495433318512706 L-11.94171494306936,27.180025467132754 L-11.973587795175796,26.865321612926863 L-12.013390792847154,26.551522129291506 L-12.06109859333111,26.238826813806245 L-12.1166808208509,25.927434761021686 L-12.180102085945727,25.617544235695057 L-12.251322008003385,25.30935254655412 L-12.330295240970784,25.0030559206698 L-12.416971502226001,24.698849378517497 L-12.51129560459344,24.39692660980666 L-12.613207491481775,24.09747985015763 L-12.722642275122253,23.800699758704372 L-12.839530277883037,23.506775296700887 L-12.963797076633279,23.215893607208734 L-13.095363550128665,22.928239895942166 L-13.234145929388278,22.643997313346798 L-13.380055851030699,22.363346837986885 L-13.53300041353538,22.086467161315422 L-13.692882236393457,21.81353457390047 L-13.859599522110393,21.544722853180147 L-14.033046121020892,21.280203152817727 L-14.21311159887489,21.020143893727315 L-14.399681307151555,20.76471065683947 L-14.592636456056518,20.514066077675054 L-14.791854190155894,20.26836974279447 L-14.9972076665989,20.027778088188136 L-15.208566135879284,19.79244429967298 L-15.425795025084135,19.562518215358324 L-15.648756023577088,19.338146230243275 L-15.877307171061327,19.119471203006327 L-16.111302947966387,18.906632365046615 L-16.350594368101106,18.69976523183462 L-16.595029073513842,18.499001516628837 L-16.844451431499486,18.304469046613367 L-17.098702633691506,18.116291681509715 L-17.357620797175976,17.934589234714778 L-17.621041067563183,17.759477397015065 L-17.888795723951162,17.591067662925866 L-18.160714285714377,17.42946725970216 L-18.43662362104952,17.274779079066548 L-18.716348057209345,17.12710161169759 L-18.999709492354278,16.986528884520364 L-19.286527508950723,16.853150400839073 L-19.576619488643715,16.72705108334988 L-19.869800728530873,16.608311220070235 L-20.16588455876359,16.497006413219133 L-20.4646824614006,16.39320753108082 L-20.766004190438196,16.296980662882625 L-21.06965789294076,16.208387076715667 L-21.375450231194414,16.12748318052516 L-21.683186505806006,16.054320486195216 L-21.992670779669155,15.988945576750993 L-22.30370600271827,15.931400076699076 L-22.61609413739127,15.881720625524938 L-22.92963628472099,15.839938854364444 L-23.24413281097508,15.806081365864129 L-23.559383474763727,15.780169717243194 L-23.875187554534275,15.762220406567904 L-24.191343976371545,15.752244862247213 L-24.507651442022542,15.750249435756235 L-24.823908557063987,15.75623539759222 L-25.139913959131057,15.770198936465647 L-25.45546644612574,15.79213116172686 L-25.77036510432315,15.822018109026812 L-26.08440943629421,15.859840749208214 L-26.397399488563284,15.905575000421493 L-26.70913597891951,15.959191743457815 L-27.019420423300662,16.020656840289426 L-27.328055262168895,16.08993115580548 L-27.634843986297813,16.166970582729558 L-27.939591261890786,16.25172606970296 L-28.2421030549509,16.344143652515953 L-28.54218675482327,16.444164488467003 L-28.839651296831175,16.551724893828215 L-29.134307283927768,16.666756384393057 L-29.4259671072861,16.789185719080564 L-29.714445065750493,16.918934946568275 L-29.999557484073325,17.05592145492419 L-30.28112282986193,17.20005802420618 L-30.558961829161085,17.351252881995336 L-30.83289758059759,17.50940976182786 L-31.102755668014147,17.674427964488398 L-31.368364271520996,17.84620242212568 L-31.62955427689436,18.024623765149713 L-31.88615938325232,18.20957839186789 L-32.1380162089393,18.400948540815733 L-32.38496439555194,18.598612365736138 L-32.626846710040056,18.802444013159477 L-32.863509144817606,19.012313702535053 L-33.09480101582007,19.228087808862995 L-33.32057505844564,19.449628947773903 L-33.54068752131935,19.676796063002122 L-33.75499825782015,19.9094445161969 L-33.96337081531297,20.14742617901431 L-34.16567252202873,20.39058952743124 L-34.361774571537026,20.638779738221437 L-34.551552104757846,20.891838787532187 L-34.73488428945988,21.149605551498798 L-34.91165439719496,21.411915908832945 L-35.081749877619615,21.67860284531943 L-35.24506243015638,21.949496560154902 L-35.40148807294931,22.22442457406083 L-35.550927209069656,22.503211839101837 L-35.69328468992971,22.785680850139542 L-35.82846987586437,23.071651757850887 L-35.9563966938418,23.360942483239047 L-36.076983692266566,23.653368833563952 L-36.1901540928402,23.948744619618672 L-36.29583583944632,24.246881774276925 L-36.39396164402909,24.5475904722363 L-36.48446902943584,24.850679250880894 L-36.56730036919655,25.155955132186456 L-36.64240292421489,25.46322374559036 L-36.709728876347434,25.772289451748264 L-36.769235358849734,26.08295546709858 L-36.820884483669715,26.395023989155465 L-36.86464336557124,26.708296322450586 L-36.90048414307222,27.02257300504343 L-36.928383996184195,27.337653935519665 L-36.94832516094193,27.653338500396607 L-36.96029494071378,27.969425701854767 L-36.964285714285715,28.285714285714093 " />
			<path d="M-33.35359765606808,50.87090282324847 L-33.062784134956324,51.06912392678028 L-32.76756997430758,51.26072953551667 L-32.4681056373026,51.44562199293166 L-32.164543753329404,51.62370706402251 L-31.85703904019192,51.79489398333886 L-31.545748225254233,51.95909550124359 L-31.230829965560627,52.116227928381775 L-30.912444766972104,52.26621117833501 L-30.59075490236062,52.40896880843944 L-30.265924328902695,52.54442805874662 L-29.938118604514614,52.67251988910746 L-29.607504803471727,52.793179014360234 L-29.274251431254946,52.90634393760473 L-28.938528338667755,53.01195698154571 L-28.600506635267553,53.10996431788955 L-28.260358602155463,53.200315994779146 L-27.918257604169,53.28296596225315 L-27.57437800152242,53.35787209571641 L-27.228895060939717,53.42499621740986 L-26.881984866325634,53.48430411586873 L-26.533824229020144,53.53576556335927 L-26.18459059768218,53.57935433128507 L-25.834461967848576,53.61504820355508 L-25.483616791214207,53.64282898790663 L-25.132233884679728,53.66268252517756 L-24.780492339213087,53.674598696522736 L-24.428571428571427,53.67857142857143 L-24.076650517929764,53.674598696522736 L-23.724908972463123,53.66268252517756 L-23.373526065928644,53.64282898790663 L-23.022680889294275,53.61504820355508 L-22.67255225946067,53.57935433128507 L-22.323318628122706,53.53576556335927 L-21.975157990817216,53.48430411586873 L-21.628247796203134,53.42499621740986 L-21.282764855620435,53.35787209571641 L-20.93888525297385,53.28296596225315 L-20.596784254987387,53.200315994779146 L-20.256636221875297,53.10996431788955 L-19.918614518475096,53.01195698154571 L-19.5828914258879,52.90634393760473 L-19.249638053671124,52.793179014360234 L-18.91902425262824,52.67251988910746 L-18.591218528240155,52.54442805874662 L-18.266387954782232,52.40896880843944 L-17.944698090170746,52.26621117833501 L-17.626312891582227,52.116227928381775 L-17.311394631888625,51.959095501243596 L-17.00010381695094,51.79489398333886 L-16.69259910381346,51.62370706402252 L-16.38903721984027,51.44562199293167 L-16.08957288283529,51.260729535516674 L-15.794358722186544,51.06912392678029 L-15.50354520107479,50.870902823248485 " />
			<path d="M-15.503545201074772,50.870902823248464 L-15.425064228476929,50.8114973841434 L-15.351367756731468,50.74625093360822 L-15.282889439357485,50.67554740254508 L-15.220032224591264,50.59980283305655 L-15.163165984310501,50.51946293032136 L-15.11262533759031,50.435000439923115 L-15.068707681698006,50.34691236606465 L-15.031671442112808,50.25571704703699 L-15.001734551868005,50.16195110515167 L-14.979073169163541,50.066166289084144 L-14.963820640795063,49.96892622720871 L-14.956066717498869,49.870803111029666 L-14.955857025829998,49.77237432822416 L-14.963192799681035,49.674219065109156 L-14.978030873021499,49.57691489852461 L-15.000283933900516,49.48103439718736 L-15.029821038218156,49.38714175251432 L-15.066468380242236,49.295789458740494 L-15.11001031533662,49.20751506186684 L-15.160190628882962,49.122837996568386 L-15.216714043929148,49.04225652967502 L-15.279247958692963,48.96624482821083 L-15.34742440369693,48.895250169244186 L-15.42084220701796,48.829690307967006 L-15.499069354910755,48.769951019490094 L-15.581645533914324,48.716383828819495 L-15.668084839483035,48.66930394237137 L-15.75787863520378,48.628988393197005 L-15.850498545774663,48.59567441083208 L-15.945399566133633,48.569558025362504 L-16.042023268441888,48.55079291392093 L-16.139801088051204,48.53948949640156 L-16.238157669119456,48.535714285714285 " />
			<path d="M-16.238157669119445,48.535714285714285 L-16.24714397964544,48.535714285714285 " />
			<path d="M-16.981214337824724,48.766433130835715 L-16.899043187107296,48.71364991561542 L-16.813095485859737,48.66726933272258 L-16.723869142091434,48.62756007187628 L-16.6318810574829,48.594752174819746 L-16.53766413289629,48.56903570265385 L-16.44176418120025,48.550559634784406 L-16.34473676529357,48.539431005862056 L-16.24714397964544,48.535714285714285 " />
			<path d="M-31.875928519318276,48.76643313083572 L-31.61362805954425,48.94467911118991 L-31.347063441735582,49.11648267705107 L-31.076392865571847,49.28174186714132 L-30.80177696752001,49.440358604112156 L-30.523378725500525,49.59223875275099 L-30.24136336216389,49.73729217584814 L-29.95589824683498,49.87543278769108 L-29.667152796183366,50.00657860515428 L-29.375298373678625,50.13065179635414 L-29.08050818789023,50.24757872684039 L-28.782957189692453,50.35729000329637 L-28.48282196843523,50.45972051472225 L-28.180280647142617,50.554809471076894 L-27.875512776801102,50.64250043935522 L-27.56869922980039,50.722741377079885 L-27.260022092590006,50.795484663187224 L-26.949664557615375,50.86068712628919 L-26.637810814597515,50.91831007029456 L-26.324645941220886,50.96831929737409 L-26.01035579329422,51.01068512825614 L-25.695126894449597,51.045382419840635 L-25.37914632544515,51.07239058012079 L-25.062601613137144,51.09169358040406 L-24.745680619187315,51.10327996482477 L-24.428571428571477,51.107142857142854 L-24.11146223795564,51.10327996482477 L-23.794541244005806,51.09169358040406 L-23.477996531697805,51.07239058012078 L-23.162015962693356,51.04538241984063 L-22.846787063848733,51.01068512825614 L-22.532496915922067,50.96831929737408 L-22.21933204254544,50.91831007029455 L-21.90747829952758,50.860687126289186 L-21.597120764552947,50.79548466318722 L-21.288443627342566,50.72274137707987 L-20.98163008034185,50.6425004393552 L-20.676862210000337,50.55480947107688 L-20.37432088870773,50.459720514722235 L-20.0741856674505,50.35729000329635 L-19.776634669252726,50.24757872684037 L-19.481844483464332,50.130651796354115 L-19.189990060959587,50.00657860515426 L-18.901244610307977,49.87543278769107 L-18.61577949497907,49.73729217584811 L-18.333764131642436,49.592238752750966 L-18.055365889622955,49.440358604112134 L-17.780749991571113,49.2817418671413 L-17.510079415407382,49.116482677051046 L-17.24351479759871,48.944679111189885 L-16.981214337824685,48.76643313083569 " />
			<path d="M-32.60999887749756,48.535714285714285 L-32.51240609184943,48.539431005862056 L-32.41537867594275,48.550559634784406 L-32.31947872424671,48.56903570265385 L-32.225261799660096,48.594752174819746 L-32.133273715051565,48.62756007187628 L-32.04404737128326,48.66726933272258 L-31.9580996700357,48.71364991561542 L-31.875928519318272,48.76643313083572 " />
			<path d="M-32.60999887749756,48.535714285714285 L-32.61898518802341,48.535714285714285 " />
			<path d="M-33.35359765606808,50.870902823248464 L-33.43207862866593,50.8114973841434 L-33.505775100411384,50.74625093360822 L-33.57425341778537,50.67554740254508 L-33.63711063255159,50.59980283305655 L-33.69397687283235,50.51946293032136 L-33.744517519552545,50.435000439923115 L-33.788435175444846,50.34691236606465 L-33.825471415030044,50.25571704703699 L-33.85540830527485,50.16195110515167 L-33.87806968797931,50.066166289084144 L-33.89332221634779,49.96892622720871 L-33.90107613964398,49.870803111029666 L-33.901285831312855,49.77237432822416 L-33.89395005746182,49.674219065109156 L-33.87911198412136,49.57691489852461 L-33.856858923242335,49.48103439718736 L-33.827321818924695,49.38714175251432 L-33.79067447690062,49.295789458740494 L-33.74713254180623,49.20751506186684 L-33.696952228259896,49.122837996568386 L-33.6404288132137,49.04225652967502 L-33.57789489844989,48.96624482821083 L-33.50971845344593,48.895250169244186 L-33.43630065012489,48.829690307967006 L-33.358073502232095,48.769951019490094 L-33.27549732322853,48.716383828819495 L-33.18905801765982,48.66930394237137 L-33.09926422193907,48.628988393197005 L-33.00664431136819,48.59567441083208 L-32.91174329100922,48.569558025362504 L-32.815119588700966,48.55079291392093 L-32.71734176909165,48.53948949640156 L-32.618985188023395,48.535714285714285 " />
			<path d="M3.2142857142857144,63.0 L-3.2142857142857144,63.0 " />
			<path d="M3.2142857142857144,77.85714285714286 L3.2142857142857144,63.0 " />
			<path d="M-3.2142857142857144,63.0 L-3.2142857142857144,77.85714285714286 " />
			<path d="M-3.2142857142857144,77.85714285714286 L3.2142857142857144,77.85714285714286 " />

       </g>
    </g>
    
</svg>
