<?xml version="1.0" encoding="UTF-8" standalone="no"?>
<svg
   xmlns:svg="http://www.w3.org/2000/svg"
   xmlns="http://www.w3.org/2000/svg"
   width="145.0"
   height="145.0"

>
    <g transform="scale(0.6944444444444444, -0.6944444444444444)   translate(104.4,-104.4)" stroke-width="0.5"  fill="none">
       <!-- hidden lines -->
       <g  stroke="rgb(160,160,160)" fill="none" stroke-dasharray="0.5,0.5" >

       </g>

       <!-- solid lines -->
       <g  stroke="rgb(0,0,0)" fill="none">
			<path d="M-90.0,0.0 L-89.99600683394027,0.8477935747436075 L-89.98402769010275,1.695511918808808 L-89.964063631481,2.54307980819294 L-89.93611642962617,3.3904220322442447 L-89.90018856448975,4.23746340033583 L-89.85628322420358,5.084128748537871 L-89.80440430479688,5.930342946287423 L-89.7445564098505,6.776030903055291 L-89.67674485008855,7.621117575009344 L-89.60097564290699,8.465527971673668 L-89.51725551183974,9.30918716258301 L-89.425591885962,10.152020283931877 L-89.32599289923118,10.993952545217734 L-89.21846738976487,11.834909235877683 L-89.10302489905672,12.67481573191806 L-88.97967567112977,13.513597502536348 L-88.84843065162735,14.351180116734813 L-88.70930148684185,15.187489249925296 L-88.56230052268126,16.022450690524547 L-88.40744080357356,16.855990346539553 L-88.24473607130935,17.688034252142224 L-88.07420076382222,18.518508574232918 L-87.8958500139078,19.347339618992155 L-87.7096996478808,20.174453838420003 L-87.5157661841706,20.99977783686249 L-87.31406683185557,21.82323837752453 L-87.10461948913586,22.644762388968736 L-86.88744274174526,23.46427697159956 L-86.66255586130194,24.28170940413218 L-86.42997880359827,25.096987150045578 L-86.18973220683013,25.910037864019223 L-85.94183738976541,26.720789398352753 L-85.68631634985233,27.529169809368184 L-85.42319176126745,28.335107363793938 L-85.15248697290356,29.138530545130266 L-84.87422600629785,29.939368059995417 L-84.58843355350027,30.73754884445196 L-84.29513497488243,31.53300207031284 L-83.99435629688719,32.32565715142642 L-83.68612420971922,33.1154437499401 L-83.37046606497647,33.90229178254187 L-83.04740987322317,34.68613142667937 L-82.71698430150423,35.4668931267556 L-82.37921867080136,36.24450760030122 L-82.0341429534313,37.01890584412236 L-81.68178777038612,37.79001914042384 L-81.322184388616,38.5577790629069 L-80.95536471825466,39.32211748284125 L-80.58136130978785,40.082966575110504 L-80.20020735116485,40.84025882423084 L-79.81193666485343,41.593927030342115 L-79.41658370483864,42.34390431517099 L-79.01418355356543,43.09012412796545 L-78.60477191882546,43.832520251400425 L-78.18838513058863,44.571026807453606 L-77.76506013777914,45.305578263251356 L-77.33483450499689,46.03610943688382 L-76.89774640918395,46.76255550318904 L-76.453834636237,47.48485199950535 L-76.00313857756547,48.20293483139153 L-75.54569822659614,48.916740278314414 L-75.08155417522421,49.626204999303255 L-74.61074761021129,50.331266038570384 L-74.13332030953063,51.03186083109779 L-73.64931463865986,51.727927208188824 L-73.15877354682158,52.419403402985026 L-72.66174056317223,53.10622805594699 L-72.15825979293935,53.78834022029934 L-71.64837591350793,54.46567936743886 L-71.1321341704558,55.13818539230571 L-70.60958037353865,55.805798618716906 L-70.08076089262505,56.46845980466188 L-69.54572265358176,57.126110147559366 L-69.00451313410959,57.77869128947538 L-68.4571803595304,58.42614532230178 L-67.9037728985255,59.06841479289481 L-67.3443398588258,59.705442708173315 L-66.77893088285413,60.337172540176184 L-66.20759614332007,60.96354823107845 L-65.6303863387679,61.58451419816566 L-65.04735268907761,62.20001533876618 L-64.45854693091991,62.80999703514079 L-63.86402131316523,63.414405159329355 L-63.26382859224731,64.0131860779539 L-62.65802202748176,64.60628665697797 L-62.04665537633999,65.19365426642152 L-61.42978288967891,65.77523678503113 L-60.80745930692691,66.35098260490516 L-60.179739851226394,66.92084063607325 L-59.5466802245335,67.48476031102986 L-58.90833660267521,68.04269158922152 L-58.26476563036455,68.59458496148723 L-57.61602441617403,69.14039145445184 L-56.96217052746807,69.68006263487175 L-56.30326198529457,70.21355061393267 L-55.63935725923635,70.74080805149927 L-54.97051526222275,71.26178816031589 L-54.296795345301774,71.77644471015833 L-53.61825729237359,72.28473203193622 L-52.93496131488536,72.78660502174552 L-52.24696804648834,73.2820191448709 L-51.55433853765738,73.77093043973767 L-50.85713425027352,74.25329552181275 L-50.15541705217003,74.72907158745446 L-49.44924921164243,75.19821641771087 L-48.738693391923036,75.66068838206613 L-48.023812645620346,76.11644644213467 L-47.30467040912398,76.56545015530274 L-46.58133049697551,77.00765967831731 L-45.85385709620576,77.44303577082151 L-45.122314760639036,77.87153979883675 L-44.38676840516477,78.29313373819103 L-43.64728329997725,78.70778017789301 L-42.903925064783664,79.1154423234518 L-42.15675966298124,79.516084000142 L-41.40585339580382,79.9096696562137 L-40.65127289643853,80.2961643660473 L-39.89308512411291,80.67553383325259 L-39.13135735815315,81.04774439371224 L-38.366157192013986,81.41276301856898 L-37.59755252728056,81.77055731715652 L-36.82561156764312,82.12109553987374 L-36.05040281284477,82.4643465810021 L-35.271995052603046,82.80027998146592 L-34.4904573605057,83.12886593153512 L-33.705859087881315,83.45007527347047 L-32.91826985764529,83.76387950411109 L-32.127759558121696,84.07025077740353 L-31.334398336841595,84.36916190687293 L-30.53825659431837,84.66058636803534 L-29.739404977800568,84.94449830075148 L-28.937914375002897,85.2208725115215 L-28.13385590781586,85.48968447572055 L-27.327300925994592,85.75091033977503 L-26.518321000827502,86.00452692327929 L-25.706987918785266,86.25051172105258 L-24.89337367515069,86.48884290513612 L-24.077550467630083,86.71949932673002 L-23.259590689946606,86.94246051806994 L-22.43956692541632,87.1577066942434 L-21.617551940507333,87.36521875494542 L-20.793618678382717,87.56497828617337 L-19.967840252427756,87.756967561861 L-19.14028993976208,87.94116954545147 L-18.311041174737273,88.11756789140901 L-17.480167542420528,88.28614694666943 L-16.647742772064916,88.44689175202915 L-15.813840730566895,88.59978804347256 L-14.978535415911555,88.74482225343789 L-14.141900950606274,88.88198151202099 L-13.304011575103305,89.01125364811753 L-12.464941641211892,89.13262719050293 L-11.624765605500516,89.24609136885029 L-10.78355802268985,89.35163611468612 L-9.941393539036973,89.44925206228386 L-9.098346885711507,89.53893054949486 L-8.254492872164182,89.62066361851707 L-7.40990637948847,89.69444401660125 L-6.56466235377586,89.76026519669445 L-5.71883579946537,89.81812131802108 L-4.872501772687864,89.86800724660114 L-4.02573537460581,89.90991855570579 L-3.1786117447490168,89.94385152625021 L-2.3312060543469735,89.96980314712363 L-1.4835934996583868,89.98777111545641 L-0.6358492952984832,89.99775383682456 L0.21195133243531145,89.99975042539106 L1.0597331522387283,89.99376070398462 L1.907420934476459,89.97978520411527 L2.754939457857808,89.95782516592728 L3.602213516111607,89.92788253808907 L4.449167924659797,89.8899599776203 L5.295727527289079,89.84406084965613 L6.141817202820061,89.79018922714856 L6.9873618717732775,89.728349890505 L7.83228650303153,89.65854832716416 L8.676516120497917,89.58079073110898 L9.519975809748988,89.4950840023171 L10.362590724682441,89.40143574614854 L11.204286094158721,89.2998542726708 L12.044987228636007,89.19034859592149 L12.88461952679793,89.07292843310844 L13.723108482173478,88.94760420374737 L14.560379689748471,88.81438702873741 L15.396358852568042,88.67328872937414 L16.230971788329537,88.52432182630065 L17.06414443596521,88.36749953839657 L17.895802862214225,88.20283578160492 L18.725873268183214,88.03034516769738 L19.554281995895014,87.85004300297761 L20.38095553482485,87.66194528692306 L21.20582052842343,87.46606871076519 L22.028803780626394,87.26243065600832 L22.8498322623495,87.05104919288733 L23.668833117969044,86.83194307876411 L24.485733671786804,86.60513175646307 L25.300461434479104,86.3706353525458 L26.112944109529273,86.12847467552528 L26.923109599643052,85.87867121401919 L27.73088601314625,85.62124713484317 L28.536201670364257,85.3562252810438 L29.33898510998262,85.08362916987156 L30.13916509538836,84.80348299069398 L30.936670620991265,84.51581160284918 L31.731430918524726,84.22064053343986 L32.52337546332551,83.91799597506817 L33.31243398059189,83.60790478351139 L34.098536451619644,83.29039447533891 L34.88161312001528,82.96549322547042 L35.661594497886036,82.63322986467577 L36.43841137200602,82.29363387701665 L37.211994809957986,81.9467353972302 L37.98227616625017,81.59256520805498 L38.74918708840772,81.23115473749942 L39.512659523038074,80.86253605605299 L40.27262572186983,80.48674187384024 L41.02901824776449,80.10380553771842 L41.781769980700695,79.71376102831817 L42.53081412373017,79.31664295702835 L43.27608420890516,78.91248656292456 L44.01751410317658,78.50132770964228 L44.755038014262425,78.08320288219436 L45.48859049648604,77.65814918373344 L46.21810645658353,77.2262043322596 L46.943521159479964,76.78740665727328 L47.66477023403376,76.3417950963741 L48.38178967874882,75.88940919180564 L49.09451586745379,75.43028908694656 L49.80288555494806,74.96447552274842 L50.50683588261401,74.49200983412042 L51.206304383994826,74.01293394626153 L51.901228990337636,73.52729037094007 L52.59154803610128,73.03512220272142 L53.27720026442834,72.53647311514392 L53.958124832580864,72.03138735684341 L54.63426131733943,71.5199097476267 L55.30554972036487,71.00208567449444 L55.97193047352235,70.47796108761362 L56.63334444416729,69.94758249624003 L57.28973294039259,69.41099696459125 L57.9410377162368,68.86825210767022 L58.58720097685271,68.31939608704009 L59.22816538363582,67.76447760655049 L59.863874059312494,67.20354590801568 L60.49427059298699,66.63665076684504 L61.119299045147265,66.063842487626 L61.73890395262883,65.4851718996604 L62.35303033353644,64.90069035245376 L62.961623692122934,64.31044971115895 L63.564630023625156,63.714502351973614 L64.16199581905603,63.11290115749264 L64.75366806995294,62.50569951201536 L65.3395942730814,61.8929512968085 L65.91972243509412,61.274710885324865 L66.49400107714473,60.651033138378395 L67.06237923945586,60.02197339927603 L67.62480648584113,59.38758748890663 L68.18123290818073,58.747931700787674 L68.73160913085012,58.103062796069906 L69.27588631510145,57.453037998500484 L69.81401616339741,56.797914989345195 L70.345950923697,56.13775190226995 L70.87164339369285,55.472607318182106 L71.39104692499988,54.80254026003233 L71.90411542729471,54.127610187576906 L72.41080337240554,53.44787699210159 L72.91106579835227,52.763400991106955 L73.40485831333622,52.07424292295601 L73.89213709967937,51.38046394148448 L74.37285891771258,50.6821256105742 L74.84698110961256,49.979289898690055 L75.31446160318718,49.27201917338118 L75.77525891560892,48.560376195746585 L76.22933215709577,47.84442411486593 L76.67664103453983,47.12422646219588 L77.11714585508271,46.3998471459325 L77.55080752963777,45.671350445340224 L77.97758757635877,44.93880100504794 L78.39744812405468,44.202263829312585 L78.81035191555016,43.46180427625087 L79.21626231099178,42.71748805203957 L79.61514329109919,41.96938120508503 L80.00695946036147,41.21755012016212 L80.39167605017799,40.46206151252355 L80.76925892194365,39.70298242197967 L81.13967457007827,38.94038020694963 L81.50289012499975,38.17432253848413 L81.85887335604086,37.404877394260545 L82.20759267430924,36.63211305255076 L82.5490171354905,35.85609808616235 L82.88311644259423,35.07690135635367 L83.20986094864233,34.29459200672329 L83.52922165929986,33.50923945707439 L83.84117023544793,32.720913397254655 L84.1456789956984,31.929683780972226 L84.44272091885023,31.13562081958819 L84.73226964628729,30.33879497588626 L85.01429948431735,29.539276957820082 L85.28878540645199,28.737137712238866 L85.55570305562752,27.932448418591722 L85.8150287463662,27.125280482611466 L86.0667394668781,26.31570552997824 L86.31081288110309,25.503795399963668 L86.54722733069288,24.689622139056084 L86.77596183693285,23.87325799456732 L86.99699610260377,23.05477540822169 L87.21031051378279,22.234247009727724 L87.41588614158398,21.411745610333252 L87.61370474383801,20.587344196364317 L87.80374876671092,19.761115922748605 L87.98600134626179,18.933134106523887 L88.16044630993915,18.103472220332097 L88.32706817801616,17.272203885899557 L88.4858521649642,16.439402867504043 L88.63678418076488,15.605143065429132 L88.77985083216032,14.769498509406532 L88.91503942384176,13.932543352046885 L89.04233795957592,13.094351862259701 L89.16173514326967,12.25499841866295 L89.27322037997227,11.414557502982923 L89.37678377681567,10.573103693444944 L89.47241614389229,9.730711658155528 L89.5601089950705,8.887456148476549 L89.6398545487477,8.043411992392024 L89.71164572854084,7.198654087868114 L89.77547616391429,6.353257396206882 L89.83134019074521,5.507296935394466 L89.87923285182613,4.6608477734442 L89.91914989730485,3.8139850217352995 L89.95108778506157,2.966783828347708 L89.97504368102321,2.1193193713936744 L89.99101545941485,1.2716668523466723 L89.99900170294842,0.4239014893682459 L89.99900170294842,-0.42390148936662514 L89.99101545941487,-1.2716668523450514 L89.97504368102325,-2.1193193713920544 L89.95108778506163,-2.966783828346088 L89.91914989730492,-3.8139850217336804 L89.8792328518262,-4.660847773442581 L89.83134019074531,-5.507296935392848 L89.7754761639144,-6.353257396205264 L89.71164572854097,-7.1986540878664975 L89.63985454874785,-8.04341199239041 L89.56010899507065,-8.887456148474936 L89.47241614389246,-9.730711658153917 L89.37678377681586,-10.573103693443334 L89.27322037997247,-11.414557502981316 L89.1617351432699,-12.254998418661344 L89.04233795957616,-13.094351862258097 L88.915039423842,-13.932543352045284 L88.77985083216059,-14.769498509404933 L88.63678418076515,-15.605143065427535 L88.4858521649645,-16.439402867502448 L88.32706817801648,-17.272203885897966 L88.16044630993949,-18.103472220330506 L87.98600134626214,-18.933134106522306 L87.8037487667113,-19.761115922747024 L87.61370474383838,-20.58734419636274 L87.41588614158437,-21.411745610331675 L87.2103105137832,-22.234247009726154 L86.9969961026042,-23.05477540822012 L86.77596183693329,-23.87325799456576 L86.54722733069332,-24.689622139054524 L86.31081288110356,-25.503795399962115 L86.06673946687857,-26.315705529976682 L85.81502874636669,-27.12528048260992 L85.55570305562802,-27.932448418590184 L85.2887854064525,-28.737137712237327 L85.01429948431787,-29.53927695781855 L84.73226964628783,-30.33879497588473 L84.4427209188508,-31.13562081958667 L84.14567899569897,-31.92968378097071 L83.84117023544853,-32.72091339725315 L83.52922165930046,-33.50923945707289 L83.20986094864294,-34.2945920067218 L82.88311644259487,-35.07690135635218 L82.54901713549116,-35.85609808616086 L82.2075926743099,-36.63211305254927 L81.85887335604153,-37.40487739425907 L81.50289012500045,-38.17432253848266 L81.13967457007897,-38.94038020694817 L80.76925892194436,-39.70298242197822 L80.39167605017872,-40.4620615125221 L80.00695946036221,-41.21755012016067 L79.61514329109994,-41.96938120508359 L79.21626231099255,-42.71748805203814 L78.81035191555095,-43.461804276249445 L78.39744812405547,-44.20226382931118 L77.97758757635958,-44.93880100504654 L77.55080752963859,-45.67135044533883 L77.11714585508355,-46.399847145931105 L76.67664103454068,-47.1242264621945 L76.22933215709664,-47.844424114864566 L75.77525891560978,-48.56037619574523 L75.31446160318808,-49.272019173379825 L74.84698110961345,-49.97928989868871 L74.37285891771349,-50.682125610572854 L73.8921370996803,-51.38046394148315 L73.40485831333716,-52.07424292295468 L72.91106579835322,-52.76340099110564 L72.4108033724065,-53.447876992100284 L71.90411542729568,-54.127610187575605 L71.39104692500088,-54.80254026003104 L70.87164339369386,-55.472607318180835 L70.34595092369801,-56.137751902268676 L69.81401616339843,-56.79791498934395 L69.27588631510248,-57.453037998499234 L68.73160913085115,-58.10306279606866 L68.18123290818178,-58.74793170078645 L67.6248064858422,-59.38758748890541 L67.06237923945694,-60.02197339927482 L66.49400107714582,-60.651033138377194 L65.91972243509522,-61.27471088532368 L65.33959427308251,-61.89295129680732 L64.75366806995407,-62.505699512014196 L64.16199581905717,-63.11290115749148 L63.5646300236263,-63.71450235197248 L62.9616236921241,-64.3104497111578 L62.353030333537596,-64.90069035245264 L61.73890395263001,-65.48517189965929 L61.11929904514846,-66.06384248762492 L60.494270592988194,-66.63665076684394 L59.86387405931371,-67.20354590801462 L59.22816538363705,-67.76447760654942 L58.58720097685394,-68.31939608703904 L57.94103771623805,-68.86825210766918 L57.28973294039384,-69.41099696459023 L56.63334444416855,-69.94758249623902 L55.97193047352362,-70.47796108761261 L55.30554972036615,-71.00208567449344 L54.63426131734072,-71.51990974762572 L53.958124832582165,-72.03138735684244 L53.27720026442964,-72.53647311514297 L52.5915480361026,-73.03512220272047 L51.901228990338964,-73.52729037093913 L51.20630438399617,-74.0129339462606 L50.506835882615356,-74.49200983411951 L49.80288555494941,-74.96447552274752 L49.094515867455144,-75.43028908694568 L48.38178967875019,-75.88940919180477 L47.66477023403514,-76.34179509637325 L46.94352115948134,-76.78740665727244 L46.21810645658491,-77.22620433225877 L45.48859049648744,-77.65814918373263 L44.75503801426383,-78.08320288219355 L44.01751410317799,-78.50132770964149 L43.27608420890658,-78.91248656292379 L42.530814123731595,-79.31664295702758 L41.78176998070213,-79.71376102831742 L41.02901824776594,-80.10380553771768 L40.27262572187128,-80.48674187383952 L39.51265952303953,-80.86253605605226 L38.74918708840919,-81.23115473749873 L37.982276166251644,-81.5925652080543 L37.21199480995948,-81.94673539722952 L36.43841137200752,-82.29363387701599 L35.66159449788755,-82.63322986467513 L34.881613120016794,-82.96549322546979 L34.098536451621165,-83.29039447533829 L33.31243398059342,-83.60790478351078 L32.52337546332704,-83.91799597506757 L31.73143091852626,-84.22064053343928 L30.936670620992803,-84.51581160284861 L30.139165095389902,-84.80348299069344 L29.33898510998417,-85.08362916987103 L28.536201670365813,-85.35622528104327 L27.730886013147813,-85.62124713484266 L26.923109599644615,-85.8786712140187 L26.112944109530847,-86.12847467552481 L25.300461434480678,-86.37063535254535 L24.48573367178838,-86.60513175646261 L23.668833117970625,-86.83194307876369 L22.84983226235109,-87.05104919288694 L22.028803780627985,-87.26243065600791 L21.205820528425026,-87.46606871076479 L20.380955534826448,-87.66194528692269 L19.554281995896616,-87.85004300297726 L18.725873268184817,-88.03034516769704 L17.89580286221583,-88.20283578160459 L17.064144435966824,-88.36749953839625 L16.23097178833115,-88.52432182630037 L15.396358852569657,-88.67328872937385 L14.56037968975009,-88.81438702873714 L13.723108482175101,-88.94760420374713 L12.884619526799554,-89.0729284331082 L12.044987228637632,-89.19034859592128 L11.204286094160349,-89.2998542726706 L10.36259072468407,-89.40143574614835 L9.51997580975062,-89.49508400231691 L8.67651612049955,-89.58079073110882 L7.832286503033165,-89.65854832716401 L6.987361871774914,-89.72834989050487 L6.141817202821698,-89.79018922714843 L5.295727527290717,-89.84406084965603 L4.4491679246614355,-89.88995997762022 L3.6022135161132462,-89.927882538089 L2.754939457859448,-89.95782516592723 L1.9074209344780992,-89.97978520411523 L1.059733152240369,-89.99376070398459 L0.21195133243695222,-89.99975042539106 L-0.6358492952968425,-89.99775383682456 L-1.4835934996567466,-89.98777111545644 L-2.331206054345333,-89.96980314712367 L-3.1786117447473767,-89.94385152625028 L-4.025735374604172,-89.90991855570586 L-4.872501772686226,-89.86800724660122 L-5.718835799463732,-89.81812131802118 L-6.564662353774224,-89.76026519669458 L-7.409906379486835,-89.6944440166014 L-8.25449287216255,-89.62066361851723 L-9.098346885709875,-89.53893054949502 L-9.941393539035342,-89.44925206228405 L-10.78355802268822,-89.35163611468631 L-11.62476560549889,-89.24609136885049 L-12.464941641210265,-89.13262719050316 L-13.304011575101681,-89.01125364811777 L-14.141900950604656,-88.88198151202126 L-14.978535415909938,-88.74482225343816 L-15.81384073056528,-88.59978804347286 L-16.647742772063303,-88.44689175202944 L-17.48016754241892,-88.28614694666975 L-18.311041174735667,-88.11756789140934 L-19.140289939760475,-87.94116954545183 L-19.967840252426154,-87.75696756186137 L-20.793618678381122,-87.56497828617375 L-21.61755194050574,-87.36521875494581 L-22.43956692541473,-87.15770669424381 L-23.259590689945018,-86.94246051807036 L-24.077550467628498,-86.71949932673046 L-24.893373675149117,-86.48884290513658 L-25.706987918783692,-86.25051172105304 L-26.518321000825935,-86.00452692327977 L-27.327300925993026,-85.75091033977553 L-28.1338559078143,-85.48968447572106 L-28.937914375001345,-85.22087251152202 L-29.73940497779902,-84.94449830075202 L-30.538256594316824,-84.6605863680359 L-31.334398336840056,-84.3691619068735 L-32.12775955812016,-84.07025077740413 L-32.918269857643764,-83.76387950411169 L-33.705859087879794,-83.45007527347109 L-34.49045736050419,-83.12886593153573 L-35.27199505260154,-82.80027998146656 L-36.050402812843274,-82.46434658100276 L-36.82561156764162,-82.1210955398744 L-37.59755252727907,-81.7705573171572 L-38.3661571920125,-81.41276301856968 L-39.131357358151675,-81.04774439371295 L-39.89308512411143,-80.6755338332533 L-40.651272896437064,-80.29616436604803 L-41.40585339580237,-79.90966965621446 L-42.15675966297979,-79.51608400014277 L-42.90392506478223,-79.11544232345258 L-43.64728329997582,-78.7077801778938 L-44.386768405163345,-78.29313373819184 L-45.122314760637614,-77.87153979883757 L-45.85385709620435,-77.44303577082235 L-46.581330496974104,-77.00765967831816 L-47.30467040912258,-76.56545015530362 L-48.02381264561896,-76.11644644213554 L-48.73869339192165,-75.66068838206704 L-49.44924921164105,-75.19821641771178 L-50.15541705216866,-74.72907158745537 L-50.85713425027216,-74.25329552181367 L-51.55433853765603,-73.77093043973862 L-52.246968046487,-73.28201914487187 L-52.93496131488403,-72.7866050217465 L-53.61825729237227,-72.28473203193721 L-54.29679534530047,-71.77644471015932 L-54.97051526222144,-71.2617881603169 L-55.63935725923505,-70.74080805150028 L-56.303261985293275,-70.2135506139337 L-56.96217052746679,-69.68006263487278 L-57.61602441617276,-69.14039145445291 L-58.26476563036329,-68.5945849614883 L-58.90833660267396,-68.0426915892226 L-59.54668022453226,-67.48476031103095 L-60.179739851225165,-66.92084063607436 L-60.80745930692569,-66.35098260490628 L-61.4297828896777,-65.77523678503225 L-62.04665537633879,-65.19365426642266 L-62.65802202748057,-64.60628665697912 L-63.263828592246135,-64.01318607795505 L-63.864021313164066,-63.41440515933053 L-64.45854693091876,-62.80999703514197 L-65.04735268907648,-62.200015338767365 L-65.63038633876677,-61.58451419816686 L-66.20759614331897,-60.963548231079656 L-66.77893088285303,-60.33717254017741 L-67.34433985882471,-59.705442708174544 L-67.90377289852441,-59.06841479289605 L-68.45718035952932,-58.426145322303036 L-69.00451313410852,-57.77869128947665 L-69.54572265358071,-57.126110147560645 L-70.08076089262401,-56.468459804663176 L-70.60958037353763,-55.80579861871821 L-71.13213417045479,-55.138185392307015 L-71.64837591350694,-54.465679367440174 L-72.15825979293837,-53.78834022030066 L-72.66174056317125,-53.106228055948336 L-73.15877354682063,-52.41940340298637 L-73.64931463865891,-51.727927208190174 L-74.1333203095297,-51.031860831099145 L-74.61074761021038,-50.331266038571755 L-75.0815541752233,-49.62620499930463 L-75.54569822659525,-48.9167402783158 L-76.0031385775646,-48.202934831392916 L-76.45383463623614,-47.48485199950675 L-76.8977464091831,-46.76255550319046 L-77.33483450499604,-46.036109436885226 L-77.76506013777832,-45.30557826325277 L-78.1883851305878,-44.57102680745504 L-78.60477191882465,-43.832520251401874 L-79.01418355356464,-43.09012412796691 L-79.41658370483788,-42.34390431517245 L-79.81193666485265,-41.59392703034359 L-80.20020735116408,-40.84025882423233 L-80.5813613097871,-40.082966575111996 L-80.95536471825392,-39.32211748284276 L-81.32218438861527,-38.55777906290842 L-81.68178777038541,-37.790019140425365 L-82.03414295343062,-37.01890584412391 L-82.37921867080067,-36.244507600302775 L-82.71698430150356,-35.466893126757164 L-83.04740987322252,-34.686131426680944 L-83.37046606497583,-33.90229178254347 L-83.68612420971859,-33.1154437499417 L-83.99435629688658,-32.32565715142803 L-84.29513497488182,-31.533002070314463 L-84.58843355349968,-30.737548844453592 L-84.87422600629726,-29.939368059997054 L-85.15248697290299,-29.138530545131918 L-85.42319176126689,-28.335107363795597 L-85.6863163498518,-27.529169809369854 L-85.94183738976488,-26.720789398354437 L-86.18973220682962,-25.91003786402091 L-86.42997880359778,-25.09698715004728 L-86.66255586130146,-24.28170940413389 L-86.8874427417448,-23.46427697160128 L-87.10461948913542,-22.644762388970463 L-87.31406683185513,-21.823238377526266 L-87.51576618417019,-20.999777836864233 L-87.70969964788038,-20.174453838421755 L-87.89585001390742,-19.347339618993914 L-88.07420076382185,-18.51850857423468 L-88.24473607130898,-17.688034252143993 L-88.40744080357324,-16.855990346541326 L-88.56230052268094,-16.022450690526327 L-88.70930148684155,-15.18748924992708 L-88.84843065162707,-14.351180116736602 L-88.9796756711295,-13.513597502538143 L-89.10302489905646,-12.67481573191986 L-89.21846738976463,-11.834909235879488 L-89.32599289923097,-10.993952545219544 L-89.42559188596181,-10.152020283933691 L-89.51725551183954,-9.309187162584829 L-89.60097564290682,-8.46552797167549 L-89.6767448500884,-7.62111757501117 L-89.74455640985036,-6.776030903057122 L-89.80440430479675,-5.930342946289256 L-89.85628322420348,-5.084128748539709 L-89.90018856448967,-4.237463400337673 L-89.9361164296261,-3.3904220322460916 L-89.96406363148094,-2.5430798081947907 L-89.9840276901027,-1.6955119188106618 L-89.99600683394024,-0.847793574745465 L-90.0,-1.8605729711639117e-12 " />
			<path d="M52.238277532228736,-71.06618295973021 L43.70957915961996,-59.46354084385587 " />
			<path d="M51.44544087774133,-71.64221250697679 L51.84265925219613,-71.35529890387036 L52.238277532228736,-71.06618295973021 " />
			<path d="M43.04618522423253,-59.94552475073568 L51.445440877741326,-71.64221250697679 " />
			<path d="M43.70957915961996,-59.46354084385587 L43.37721276466798,-59.70361140972042 L43.04618522423253,-59.94552475073568 " />
			<path d="M59.38054967720451,-65.21648809950631 L49.685766056436414,-54.56889820570936 " />
			<path d="M58.652267748236696,-65.872236093738 L59.01731948085127,-65.5453736071062 L59.38054967720451,-65.21648809950631 " />
			<path d="M49.07638729954496,-55.1175853029236 L58.652267748236675,-65.87223609373798 " />
			<path d="M49.685766056436414,-54.56889820570936 L49.38031460669767,-54.84239538840126 L49.07638729954496,-55.1175853029236 " />
			<path d="M65.87223609373797,-58.652267748236724 L55.117585302923565,-49.07638729954499 " />
			<path d="M65.21648809950631,-59.38054967720454 L65.54537360710617,-59.0173194808513 L65.87223609373797,-58.652267748236724 " />
			<path d="M54.56889820570933,-49.685766056436435 L65.21648809950628,-59.380549677204534 " />
			<path d="M55.117585302923565,-49.07638729954499 L54.842395388401236,-49.3803146066977 L54.56889820570933,-49.685766056436435 " />
			<path d="M71.64221250697678,-51.445440877741326 L59.945524750735665,-43.04618522423253 " />
			<path d="M71.06618295973017,-52.23827753222875 L71.35529890387036,-51.84265925219614 L71.64221250697678,-51.445440877741326 " />
			<path d="M59.46354084385587,-43.70957915961997 L71.06618295973018,-52.23827753222876 " />
			<path d="M59.945524750735665,-43.04618522423253 L59.70361140972044,-43.377212764668 L59.46354084385587,-43.70957915961997 " />
			<path d="M45.36693191815681,-75.6378310657658 L37.96008589070263,-63.28879742237547 " />
			<path d="M42.820817231030546,-77.10783106576582 L43.461917840901634,-76.74830094269657 L44.09999999999998,-76.38344061378751 L44.735019393217556,-76.01327541876122 L45.36693191815681,-75.6378310657658 " />
			<path d="M35.829663397392906,-64.51879742237548 L42.820817231030546,-77.10783106576581 " />
			<path d="M37.96008589070263,-63.28879742237547 L37.423654768157434,-63.58962874984155 L36.889749288095544,-63.89492004545935 L36.35840653050533,-64.20465010660376 L35.829663397392906,-64.51879742237548 " />
			<path d="M36.32125557549446,-80.37416496250282 L30.39125466520965,-67.25185231556357 " />
			<path d="M35.42598102700471,-80.77276687271709 L35.874171919285544,-80.57470936407739 L36.32125557549446,-80.37416496250282 " />
			<path d="M29.642147389942707,-67.58537636288573 L35.42598102700471,-80.77276687271709 " />
			<path d="M30.39125466520965,-67.25185231556357 L30.016237796158332,-67.41757390442534 L29.642147389942707,-67.58537636288573 " />
			<path d="M27.720895987144957,-83.7304719064087 L23.195035417815163,-70.06019077883174 " />
			<path d="M26.7888606011757,-84.03330856089613 L27.25529890387037,-83.88318473723257 L27.720895987144957,-83.7304719064087 " />
			<path d="M22.415169074453125,-70.31358471421917 L26.788860601175692,-84.03330856089612 " />
			<path d="M23.195035417815163,-70.06019077883174 L22.804750307397175,-70.18580459046859 L22.415169074453125,-70.31358471421917 " />
			<path d="M18.816820461389817,-86.16941027838024 L15.744686508509846,-72.10093513088958 " />
			<path d="M17.85823581267068,-86.37316373538164 L18.337811130126354,-86.27261838472165 L18.816820461389817,-86.16941027838024 " />
			<path d="M14.942605475908117,-72.27142271736014 L17.858235812670678,-86.37316373538164 " />
			<path d="M15.744686508509846,-72.10093513088958 L15.343409202067342,-72.18506491409487 L14.942605475908117,-72.27142271736014 " />
			<path d="M9.706583912986865,-87.6642585592335 L8.121835519029826,-73.35172654956271 " />
			<path d="M8.731952455525946,-87.7666964532358 L9.219410460207001,-87.71683117148169 L9.706583912986865,-87.6642585592335 " />
			<path d="M7.30632756482783,-73.43743988944219 L8.731952455525947,-87.76669645323581 " />
			<path d="M8.121835519029826,-73.35172654956271 L7.713962494704858,-73.39345056082632 L7.30632756482783,-73.43743988944219 " />
			<path d="M77.1078310657658,-42.8208172310306 L64.51879742237546,-35.82966339739294 " />
			<path d="M75.6378310657658,-45.366931918156865 L76.01327541876122,-44.73501939321761 L76.38344061378749,-44.10000000000005 L76.74830094269655,-43.46191784090168 L77.1078310657658,-42.8208172310306 " />
			<path d="M63.28879742237544,-37.96008589070268 L75.63783106576577,-45.36693191815685 " />
			<path d="M64.51879742237546,-35.82966339739294 L64.20465010660375,-36.35840653050537 L63.89492004545932,-36.88974928809559 L63.58962874984152,-37.42365476815748 L63.28879742237544,-37.96008589070268 " />
			<path d="M80.77276687271704,-35.42598102700481 L67.58537636288567,-29.642147389942792 " />
			<path d="M80.37416496250277,-36.32125557549453 L80.57470936407738,-35.87417191928563 L80.77276687271704,-35.42598102700481 " />
			<path d="M67.25185231556353,-30.391254665209704 L80.37416496250277,-36.32125557549453 " />
			<path d="M67.58537636288567,-29.642147389942792 L67.41757390442528,-30.016237796158396 L67.25185231556353,-30.391254665209704 " />
			<path d="M84.0333085608961,-26.78886060117573 L70.31358471421919,-22.415169074453157 " />
			<path d="M83.73047190640867,-27.720895987144957 L83.88318473723254,-27.25529890387038 L84.0333085608961,-26.78886060117573 " />
			<path d="M70.06019077883174,-23.19503541781516 L83.73047190640867,-27.72089598714495 " />
			<path d="M70.31358471421919,-22.415169074453157 L70.18580459046859,-22.80475030739719 L70.06019077883174,-23.19503541781516 " />
			<path d="M86.37316373538162,-17.858235812670753 L72.27142271736014,-14.942605475908179 " />
			<path d="M86.16941027838023,-18.816820461389852 L86.27261838472162,-18.337811130126408 L86.37316373538162,-17.858235812670753 " />
			<path d="M72.1009351308896,-15.744686508509877 L86.16941027838023,-18.816820461389852 " />
			<path d="M72.27142271736014,-14.942605475908179 L72.18506491409488,-15.343409202067388 L72.1009351308896,-15.744686508509877 " />
			<path d="M87.76669645323578,-8.73195245552606 L73.43743988944219,-7.30632756482793 " />
			<path d="M87.6642585592335,-9.706583912986941 L87.71683117148167,-9.219410460207095 L87.76669645323578,-8.73195245552606 " />
			<path d="M73.35172654956273,-8.12183551902989 L87.6642585592335,-9.706583912986941 " />
			<path d="M73.43743988944219,-7.30632756482793 L73.39345056082634,-7.713962494704938 L73.35172654956273,-8.12183551902989 " />
			<path d="M88.1877491491874,1.4699999999999984 L73.78974928809558,1.229999999999998 " />
			<path d="M88.1877491491874,-1.4700000000000204 L88.19693723411922,-0.7350255239353469 L88.20000000000002,-1.1324274851176597e-14 L88.19693723411922,0.7350255239353252 L88.1877491491874,1.4699999999999984 " />
			<path d="M73.78974928809559,-1.2300000000000169 L88.18774914918738,-1.47000000000002 " />
			<path d="M73.78974928809556,1.2299999999999982 L73.78206129866282,0.6150213567622106 L73.77949857619113,-8.881784197001252e-15 L73.78206129866282,-0.6150213567622287 L73.78974928809558,-1.2300000000000166 " />
			<path d="M1.470000000000004,-88.1877491491874 L1.2300000000000026,-73.78974928809558 " />
			<path d="M-1.4700000000000149,-88.1877491491874 L-0.7350255239353414,-88.19693723411922 L-5.773159728050814e-15,-88.20000000000002 L0.7350255239353307,-88.19693723411922 L1.470000000000004,-88.1877491491874 " />
			<path d="M-1.2300000000000122,-73.78974928809559 L-1.4700000000000144,-88.18774914918738 " />
			<path d="M1.2300000000000029,-73.78974928809556 L0.6150213567622153,-73.78206129866282 L-4.218847493575595e-15,-73.77949857619113 L-0.615021356762224,-73.78206129866282 L-1.230000000000012,-73.78974928809558 " />
			<path d="M-8.731952455525999,-87.76669645323578 L-7.306327564827875,-73.43743988944219 " />
			<path d="M-9.706583912986916,-87.6642585592335 L-9.219410460207055,-87.7168311714817 L-8.731952455525999,-87.76669645323578 " />
			<path d="M-8.121835519029869,-73.35172654956273 L-9.706583912986916,-87.6642585592335 " />
			<path d="M-7.306327564827875,-73.43743988944219 L-7.713962494704903,-73.39345056082637 L-8.121835519029869,-73.35172654956273 " />
			<path d="M-17.858235812670724,-86.37316373538165 L-14.942605475908158,-72.27142271736014 " />
			<path d="M-18.81682046138987,-86.16941027838024 L-18.3378111301264,-86.27261838472164 L-17.858235812670724,-86.37316373538165 " />
			<path d="M-15.74468650850989,-72.10093513088958 L-18.816820461389867,-86.16941027838023 " />
			<path d="M-14.942605475908158,-72.27142271736014 L-15.343409202067383,-72.18506491409487 L-15.74468650850989,-72.10093513088958 " />
			<path d="M-26.788860601175706,-84.03330856089612 L-22.415169074453136,-70.31358471421919 " />
			<path d="M-27.720895987144967,-83.73047190640868 L-27.255298903870376,-83.88318473723257 L-26.788860601175706,-84.03330856089612 " />
			<path d="M-23.19503541781517,-70.06019077883172 L-27.720895987144964,-83.73047190640867 " />
			<path d="M-22.415169074453136,-70.31358471421919 L-22.804750307397182,-70.18580459046859 L-23.19503541781517,-70.06019077883172 " />
			<path d="M-35.42598102700477,-80.77276687271709 L-29.64214738994275,-67.5853763628857 " />
			<path d="M-36.32125557549452,-80.37416496250279 L-35.87417191928559,-80.57470936407736 L-35.42598102700477,-80.77276687271709 " />
			<path d="M-30.391254665209686,-67.25185231556355 L-36.32125557549451,-80.37416496250277 " />
			<path d="M-29.64214738994275,-67.5853763628857 L-30.016237796158368,-67.41757390442531 L-30.391254665209686,-67.25185231556355 " />
			<path d="M-42.8208172310306,-77.1078310657658 L-35.829663397392935,-64.51879742237543 " />
			<path d="M-45.366931918156865,-75.6378310657658 L-44.73501939321762,-76.01327541876122 L-44.100000000000044,-76.38344061378751 L-43.46191784090168,-76.74830094269655 L-42.8208172310306,-77.1078310657658 " />
			<path d="M-37.960085890702665,-63.288797422375424 L-45.36693191815685,-75.63783106576578 " />
			<path d="M-35.829663397392935,-64.51879742237543 L-36.35840653050536,-64.20465010660375 L-36.88974928809557,-63.89492004545931 L-37.42365476815748,-63.58962874984154 L-37.960085890702665,-63.288797422375424 " />
			<path d="M-51.44544087774132,-71.64221250697679 L-43.04618522423253,-59.94552475073569 " />
			<path d="M-52.238277532228764,-71.06618295973017 L-51.84265925219614,-71.35529890387036 L-51.44544087774132,-71.64221250697679 " />
			<path d="M-43.709579159619985,-59.46354084385585 L-52.238277532228764,-71.06618295973017 " />
			<path d="M-43.04618522423253,-59.94552475073569 L-43.377212764668,-59.703611409720445 L-43.709579159619985,-59.46354084385585 " />
			<path d="M-58.65226774823672,-65.87223609373797 L-49.07638729954498,-55.11758530292358 " />
			<path d="M-59.38054967720454,-65.21648809950628 L-59.0173194808513,-65.54537360710617 L-58.65226774823672,-65.87223609373797 " />
			<path d="M-49.68576605643644,-54.568898205709324 L-59.38054967720454,-65.21648809950628 " />
			<path d="M-49.07638729954498,-55.11758530292358 L-49.38031460669769,-54.84239538840123 L-49.68576605643644,-54.568898205709324 " />
			<path d="M-65.21648809950631,-59.380549677204506 L-54.56889820570934,-49.68576605643641 " />
			<path d="M-65.87223609373798,-58.652267748236675 L-65.54537360710617,-59.01731948085127 L-65.21648809950631,-59.380549677204506 " />
			<path d="M-55.1175853029236,-49.07638729954495 L-65.87223609373798,-58.652267748236675 " />
			<path d="M-54.56889820570934,-49.68576605643641 L-54.84239538840124,-49.38031460669765 L-55.1175853029236,-49.07638729954495 " />
			<path d="M-71.06618295973021,-52.23827753222875 L-59.46354084385587,-43.70957915961998 " />
			<path d="M-71.64221250697682,-51.44544087774132 L-71.35529890387036,-51.84265925219613 L-71.06618295973021,-52.23827753222875 " />
			<path d="M-59.945524750735686,-43.046185224232524 L-71.6422125069768,-51.44544087774131 " />
			<path d="M-59.46354084385587,-43.70957915961998 L-59.70361140972043,-43.37721276466798 L-59.945524750735686,-43.046185224232524 " />
			<path d="M-75.6378310657658,-45.3669319181568 L-63.28879742237547,-37.96008589070263 " />
			<path d="M-77.1078310657658,-42.820817231030546 L-76.74830094269655,-43.46191784090162 L-76.38344061378749,-44.09999999999998 L-76.01327541876122,-44.735019393217556 L-75.6378310657658,-45.3669319181568 " />
			<path d="M-64.51879742237546,-35.82966339739292 L-77.1078310657658,-42.82081723103055 " />
			<path d="M-63.28879742237547,-37.96008589070263 L-63.58962874984155,-37.42365476815744 L-63.894920045459344,-36.88974928809555 L-64.20465010660376,-36.35840653050535 L-64.51879742237546,-35.82966339739292 " />
			<path d="M-80.37416496250279,-36.321255575494476 L-67.25185231556355,-30.391254665209672 " />
			<path d="M-80.77276687271706,-35.425981027004724 L-80.57470936407739,-35.87417191928556 L-80.37416496250279,-36.321255575494476 " />
			<path d="M-67.58537636288571,-29.642147389942725 L-80.77276687271707,-35.42598102700473 " />
			<path d="M-67.25185231556355,-30.391254665209672 L-67.41757390442532,-30.016237796158354 L-67.58537636288571,-29.642147389942725 " />
			<path d="M-83.7304719064087,-27.720895987144964 L-70.06019077883174,-23.195035417815163 " />
			<path d="M-84.03330856089613,-26.788860601175706 L-83.88318473723257,-27.255298903870376 L-83.7304719064087,-27.720895987144964 " />
			<path d="M-70.31358471421919,-22.415169074453136 L-84.03330856089612,-26.788860601175703 " />
			<path d="M-70.06019077883174,-23.195035417815163 L-70.18580459046859,-22.80475030739718 L-70.31358471421919,-22.415169074453136 " />
			<path d="M-86.16941027838024,-18.816820461389817 L-72.10093513088958,-15.744686508509847 " />
			<path d="M-86.37316373538164,-17.858235812670692 L-86.27261838472165,-18.33781113012636 L-86.16941027838024,-18.816820461389817 " />
			<path d="M-72.27142271736014,-14.942605475908124 L-86.37316373538164,-17.85823581267069 " />
			<path d="M-72.10093513088958,-15.744686508509847 L-72.18506491409487,-15.343409202067345 L-72.27142271736014,-14.942605475908124 " />
			<path d="M-87.66425855923353,-9.706583912986888 L-73.35172654956273,-8.121835519029844 " />
			<path d="M-87.76669645323582,-8.731952455525981 L-87.71683117148172,-9.219410460207031 L-87.66425855923353,-9.706583912986888 " />
			<path d="M-73.4374398894422,-7.306327564827859 L-87.76669645323581,-8.731952455525978 " />
			<path d="M-73.35172654956273,-8.121835519029844 L-73.39345056082635,-7.713962494704881 L-73.4374398894422,-7.306327564827859 " />
			<path d="M87.66425855923352,9.706583912986844 L73.35172654956273,8.121835519029805 " />
			<path d="M87.76669645323581,8.731952455525963 L87.7168311714817,9.219410460206998 L87.66425855923352,9.706583912986844 " />
			<path d="M73.4374398894422,7.3063275648278445 L87.76669645323581,8.731952455525962 " />
			<path d="M73.35172654956273,8.121835519029805 L73.39345056082634,7.7139624947048535 L73.4374398894422,7.3063275648278445 " />
			<path d="M86.16941027838027,18.81682046138976 L72.10093513088958,15.74468650850979 " />
			<path d="M86.37316373538167,17.858235812670657 L86.27261838472165,18.337811130126312 L86.16941027838027,18.81682046138976 " />
			<path d="M72.27142271736014,14.942605475908094 L86.37316373538165,17.858235812670653 " />
			<path d="M72.10093513088958,15.74468650850979 L72.18506491409488,15.343409202067301 L72.27142271736014,14.942605475908094 " />
			<path d="M83.73047190640868,27.720895987144935 L70.06019077883174,23.19503541781514 " />
			<path d="M84.03330856089613,26.788860601175713 L83.88318473723255,27.255298903870358 L83.73047190640868,27.720895987144935 " />
			<path d="M70.31358471421919,22.415169074453136 L84.03330856089612,26.788860601175706 " />
			<path d="M70.06019077883174,23.19503541781514 L70.18580459046859,22.80475030739717 L70.31358471421919,22.415169074453136 " />
			<path d="M80.3741649625028,36.32125557549445 L67.25185231556357,30.391254665209633 " />
			<path d="M80.77276687271709,35.42598102700472 L80.5747093640774,35.87417191928554 L80.3741649625028,36.32125557549445 " />
			<path d="M67.58537636288573,29.642147389942718 L80.77276687271709,35.42598102700472 " />
			<path d="M67.25185231556357,30.391254665209633 L67.41757390442534,30.016237796158332 L67.58537636288573,29.642147389942718 " />
			<path d="M75.63783106576582,45.36693191815676 L63.28879742237547,37.960085890702594 " />
			<path d="M77.10783106576585,42.8208172310305 L76.7483009426966,43.461917840901584 L76.38344061378754,44.099999999999945 L76.01327541876125,44.73501939321751 L75.63783106576582,45.36693191815676 " />
			<path d="M64.51879742237548,35.82966339739288 L77.10783106576584,42.8208172310305 " />
			<path d="M63.28879742237547,37.960085890702594 L63.589628749841566,37.423654768157405 L63.894920045459365,36.889749288095516 L64.2046501066038,36.3584065305053 L64.51879742237548,35.82966339739288 " />
			<path d="M71.06618295973018,52.23827753222872 L59.46354084385587,43.70957915961995 " />
			<path d="M71.64221250697679,51.445440877741305 L71.35529890387036,51.84265925219611 L71.06618295973018,52.23827753222872 " />
			<path d="M59.94552475073569,43.046185224232524 L71.6422125069768,51.44544087774131 " />
			<path d="M59.46354084385587,43.70957915961995 L59.70361140972042,43.377212764667966 L59.94552475073569,43.046185224232524 " />
			<path d="M65.21648809950634,59.3805496772045 L54.56889820570936,49.6857660564364 " />
			<path d="M65.872236093738,58.652267748236675 L65.5453736071062,59.01731948085126 L65.21648809950634,59.3805496772045 " />
			<path d="M55.1175853029236,49.07638729954497 L65.87223609373798,58.652267748236675 " />
			<path d="M54.56889820570936,49.6857660564364 L54.84239538840125,49.38031460669765 L55.1175853029236,49.07638729954497 " />
			<path d="M58.65226774823677,65.87223609373794 L49.07638729954504,55.117585302923565 " />
			<path d="M59.380549677204584,65.21648809950628 L59.01731948085134,65.54537360710614 L58.65226774823677,65.87223609373794 " />
			<path d="M49.68576605643648,54.56889820570932 L59.38054967720458,65.21648809950625 " />
			<path d="M49.07638729954504,55.117585302923565 L49.38031460669773,54.842395388401215 L49.68576605643648,54.56889820570932 " />
			<path d="M51.44544087774133,71.64221250697679 L43.04618522423254,59.94552475073567 " />
			<path d="M52.23827753222877,71.06618295973018 L51.84265925219615,71.35529890387036 L51.44544087774133,71.64221250697679 " />
			<path d="M43.709579159619985,59.46354084385586 L52.238277532228764,71.06618295973017 " />
			<path d="M43.04618522423254,59.94552475073567 L43.377212764668,59.70361140972043 L43.709579159619985,59.46354084385586 " />
			<path d="M42.8208172310306,77.10783106576578 L35.82966339739295,64.51879742237544 " />
			<path d="M45.366931918156865,75.63783106576577 L44.73501939321761,76.0132754187612 L44.10000000000004,76.38344061378747 L43.46191784090168,76.74830094269653 L42.8208172310306,77.10783106576578 " />
			<path d="M37.96008589070267,63.28879742237544 L45.366931918156865,75.63783106576577 " />
			<path d="M35.82966339739295,64.51879742237544 L36.358406530505384,64.20465010660376 L36.889749288095594,63.89492004545933 L37.42365476815749,63.58962874984155 L37.96008589070267,63.28879742237544 " />
			<path d="M35.42598102700481,80.77276687271704 L29.6421473899428,67.58537636288568 " />
			<path d="M36.32125557549453,80.37416496250277 L35.87417191928563,80.57470936407738 L35.42598102700481,80.77276687271704 " />
			<path d="M30.39125466520972,67.25185231556354 L36.32125557549454,80.37416496250277 " />
			<path d="M29.6421473899428,67.58537636288568 L30.016237796158403,67.41757390442527 L30.39125466520972,67.25185231556354 " />
			<path d="M26.788860601175735,84.0333085608961 L22.41516907445316,70.31358471421919 " />
			<path d="M27.72089598714496,83.73047190640867 L27.255298903870383,83.88318473723254 L26.788860601175735,84.0333085608961 " />
			<path d="M23.19503541781516,70.06019077883174 L27.720895987144953,83.73047190640867 " />
			<path d="M22.41516907445316,70.31358471421919 L22.804750307397192,70.18580459046859 L23.19503541781516,70.06019077883174 " />
			<path d="M17.858235812670756,86.37316373538164 L14.942605475908177,72.27142271736012 " />
			<path d="M18.81682046138986,86.16941027838023 L18.33781113012641,86.27261838472162 L17.858235812670756,86.37316373538164 " />
			<path d="M15.744686508509877,72.10093513088958 L18.81682046138986,86.16941027838023 " />
			<path d="M14.942605475908177,72.27142271736012 L15.343409202067388,72.18506491409487 L15.744686508509877,72.10093513088958 " />
			<path d="M8.731952455526066,87.7666964532358 L7.3063275648279316,73.43743988944219 " />
			<path d="M9.706583912986945,87.6642585592335 L9.2194104602071,87.71683117148169 L8.731952455526066,87.7666964532358 " />
			<path d="M8.12183551902989,73.35172654956271 L9.706583912986945,87.66425855923349 " />
			<path d="M7.3063275648279316,73.43743988944219 L7.713962494704941,73.39345056082634 L8.12183551902989,73.35172654956271 " />
			<path d="M-72.00000000000043,1.2631870857957337e-15 L-71.99601241855589,0.7577571030402797 L-71.98405011591132,1.5154302722426818 L-71.96411441708494,2.2729355830663596 L-71.93620753027739,3.03018912956349 L-71.9003325466271,3.7871070336732187 L-71.85649343986795,4.5436054545125035 L-71.80469506588906,5.299600597662851 L-71.74494316219696,6.055008724451902 L-71.67724434728005,6.809746161228837 L-71.60160611987551,7.56372930863259 L-71.51803685813866,8.316874650851826 L-71.42654581871498,9.069098764875665 L-71.32714313571482,9.820318329734128 L-71.21983981959075,10.570450135727283 L-71.10464775591814,11.319411093642058 L-70.98157970407851,12.067118243955717 L-70.85064929584634,12.813488766024971 L-70.71187103387902,13.558439987259687 L-70.56526029011047,14.301889392280236 L-70.41083330404855,15.043754632057382 L-70.24860718097612,15.783953533033777 L-70.0785998900565,16.52240410622601 L-69.90083026234294,17.25902455630621 L-69.71531798869295,17.993733290662203 L-69.52208361758707,18.726448928435193 L-69.32114855285288,19.457090309534046 L-69.11253505129413,20.185576503625033 L-68.89626622022551,20.911826819096206 L-68.67236601491307,21.635760811995294 L-68.4408592359208,22.357298294940144 L-68.20177152636359,23.076359346000803 L-67.95512936906685,23.792864317552137 L-67.70096008363308,24.506733845096107 L-67.43929182341576,25.217888856052664 L-67.170153572401,25.9262505785183 L-66.89357514199703,26.63174054999135 L-66.60958716773207,27.334280626062924 L-66.31822110586106,28.033792989072715 L-66.01950922988122,28.73020015672852 L-65.71348462695744,29.423424990688694 L-65.40018119425714,30.11339070510643 L-65.07963363519573,30.800020875135058 L-64.75187745559263,31.483239445393323 L-64.41694895973839,32.16297073838974 L-64.07488524637343,32.83913946290511 L-63.72572420457876,33.511670722332234 L-63.369504509579144,34.18049002297192 L-63.006265618459196,34.84552328228435 L-62.63604776579286,35.50669683709496 L-62.25889195918679,36.163937451753775 L-61.87483997473812,36.81717232624747 L-61.48393435240702,37.46632910426316 L-61.08621839130478,38.111335881202976 L-60.6817361448977,38.75212121214873 L-60.270532416127466,39.388614119775525 L-59.85265275244847,40.02074410221371 L-59.42814344078275,40.64844114085805 L-58.99705150239292,41.27163570812341 L-58.559424687673825,41.89025877514613 L-58.11531147086341,42.504241819429986 L-57.66476104467342,43.113516832436254 L-57.207823314840496,43.718016327116686 L-56.744548894598324,44.31767334538884 L-56.274989099071405,44.91242146555274 L-55.79919593959107,45.50219480964815 L-55.31722211793437,46.08692805075165 L-54.82912102048653,46.66655642021263 L-54.33494671232754,47.241015714827434 L-53.83475393124354,47.810242303950986 L-53.32859808166378,48.3741731365448 L-52.81653522852363,48.932745748161 L-52.298622091054526,49.485898267861195 L-51.774916036501395,50.03356942506975 L-51.24547507376826,50.575698556360436 L-50.71035784699289,51.11222561217589 L-50.169623629050946,51.64309116347912 L-49.62333231499059,52.168236408336185 L-49.07154441539814,52.68760317842945 L-48.514321049695525,53.20113394550074 L-47.95172393937035,53.70877182772342 L-47.383815401139216,54.21046059600307 L-46.81065834004517,54.70614468020571 L-46.23231624248992,55.19576917531309 L-45.64885316920171,55.67927984750434 L-45.060333748139534,56.15662314016322 L-44.46682316733463,56.62774617981039 L-43.86838716766973,57.09259678195998 L-43.265092035597284,57.551123456899894 L-42.657004595797126,58.00327541539512 L-42.044192203774585,58.44900257431342 L-41.426722738399754,58.8882555621729 L-40.80466459438881,59.32098572461071 L-40.178086674728235,59.747145129772186 L-39.54705838304262,60.166686573620225 L-38.91164961590715,60.57956358516382 L-38.27193075510545,60.98573043160545 L-37.62797265983359,61.385142123406766 L-36.97984665885133,61.777754419271936 L-36.32762454258133,62.163523831048 L-35.67137855515716,62.542407628541966 L-35.01118138642111,62.9143638442538 L-34.34710616387262,63.279351278025075 L-33.679226444568215,63.63732950160248 L-33.0076162069739,63.98825886311599 L-32.332349842770824,64.33210049147087 L-31.653502148615203,64.66881630065328 L-30.971148317853405,64.99836899394901 L-30.285363932193043,65.32072206807459 L-29.596224953331095,65.63583981722064 L-28.903807714539912,65.94368733700692 L-28.20818891221209,66.2442305283485 L-27.50944559736509,66.53743610123277 L-26.8076551671066,66.82327157840692 L-26.102895356061556,67.10170529897525 L-25.39524422776177,67.37270642190614 L-24.684780165999147,67.63624492944827 L-23.9715818661434,67.8922916304554 L-23.25572832642527,68.14081816361997 L-22.537298839186207,68.38179700061438 L-21.816372982095444,68.61520144914037 L-21.093030609335496,68.84100565588545 L-20.367351842757024,69.05918460938675 L-19.639417063004036,69.26971414280126 L-18.909306900610435,69.4725709365829 L-18.177102227068893,69.66773252106532 L-17.442884145873013,69.85517727895096 L-16.706733983533816,70.03488444770542 L-15.96873328057152,70.20683412185727 L-15.228963782483602,70.37100725520288 L-14.487507430690165,70.52738566291615 L-13.74444635345761,70.6759520235627 L-12.999862856801597,70.81668988101859 L-12.253839415370324,70.949583646293 L-11.50645866330913,71.07461859925502 L-10.757803385107435,71.19178089026416 L-10.007956506429002,71.30105754170435 L-9.257001084926602,71.4024364494215 L-8.505020301042027,71.49590638406418 L-7.752097448792511,71.5814569923275 L-6.998315926544576,71.65907879809981 L-6.243759227776316,71.72876320351246 L-5.4885109318291425,71.79050248989205 L-4.732654694650028,71.84428981861544 L-3.976274239525252,71.89011923186726 L-3.2194533478067,71.92798565329979 L-2.4622758496317236,71.95788488859523 L-1.7048256146375993,71.9798136259304 L-0.9471865426716113,71.99376943634347 L-0.18944255449778766,71.999750774003 L0.5683224174986782,71.99775697637925 L1.326024438608296,71.98778826431753 L2.0835795810944022,71.96984574201369 L2.840903933489514,71.94393139689186 L3.5979136098898787,71.91004809938431 L4.354524759247192,71.86819960261353 L5.110653574656456,71.81839054197641 L5.866216302638948,71.76062643463091 L6.621129252419273,71.69491367888486 L7.375308805195462,71.62125955348733 L8.128671423401114,71.53967221682228 L8.881133659958524,71.45016070600502 L9.632612167521797,71.35273493588107 L10.38302370770891,71.24740569792802 L11.13228516032172,71.13418465906017 L11.880313532552842,71.01308436033625 L12.627025968178472,70.88411821557023 L13.372339756736038,70.74730050984564 L14.11617234268571,70.60264639793314 L14.858441334554783,70.450171902612 L15.599064514063842,70.2898939128952 L16.33795984523378,70.12183018215879 L17.07504548347259,69.94599932617538 L17.810239784640995,69.76242082105219 L18.543461314095843,69.57111500107365 L19.274628855710315,69.37210305644916 L20.00366142086991,69.16540703096587 L20.73047825744327,68.95104981954702 L21.454998858726736,68.72905516571588 L22.17714297236183,68.49944765896586 L22.896830609224434,68.26225273203679 L23.61398205228492,68.0174966580978 L24.328517865438094,67.76520654783721 L25.040358902302007,67.50541034645951 L25.749426314984717,67.23813683059005 L26.45564156281794,66.9634156050875 L27.158926421056744,66.68127709976469 L27.859202989544155,66.39175256601794 L28.556393701339875,66.09487407336557 L29.25042133131208,65.79067450589558 L29.941209004691352,65.47918755862327 L30.628680205585802,65.16044773375894 L31.312758785456385,64.83449033688626 L31.993368971551682,64.50135147305154 L32.67043537530088,64.16106804276454 L33.34388300066432,63.81367773791117 L34.013637252440475,63.45921903757849 L34.67962394452859,63.09773120379249 L35.34176930814603,62.729254277169254 L35.99999999999928,62.35382907247975 L36.654243110408,61.971497174128984 L37.304426171380854,61.58230093154983 L37.9504771646426,61.186283454512164 L38.5923245296112,60.78348860834772 L39.22989717132435,60.37396100909136 L39.86312446831441,59.95774601853908 L40.49193628043082,59.53488973922346 L41.116262956609305,59.105439009307105 L41.73603534258683,58.66944139739449 L42.351184788561554,58.22694519726306 L42.96164315679691,57.77799942251383 L43.567342829168965,57.32265380114237 L44.168216714656204,56.86095877003066 L44.764198256770946,56.392965469360334 L45.35522144093156,55.91872573694811 L45.941220801774655,55.43829210250392 L46.52213143040639,54.95171778181238 L47.097888981592234,54.45905667083826 L47.66842968088419,53.9603633397567 L48.23369033168487,53.45569302690864 L48.793608322247536,52.94510163268227 L49.348121632611374,52.428645713321174 L49.89716884147118,51.90638247465985 L50.440689132980786,51.37836976578715 L50.97862230348938,50.844666072638645 L51.51090876821004,50.30533051151834 L52.037489567819705,49.76042282255057 L52.5583063749899,49.21000336306279 L53.07330150084739,48.65413310090011 L53.58241790136418,48.092873607672075 L54.08559918367605,47.52628705193258 L54.582789612328995,46.954436192293734 L55.07393411545277,46.37738437047437 L55.5589782908611,45.795195504283825 L56.03786841207747,45.20793408054212 L56.510551434286306,44.61566514793692 L56.97697500020847,44.01845430981841 L57.437087445900715,43.416367716932584 L57.8908378064783,42.80947206009404 L58.338175821760174,42.19783456279892 L58.779051941836066,41.581522973778725 L59.21341733255498,40.96060555949614 L59.64122388093438,40.33515109658339 L60.062424200489396,39.70522886422409 L60.47697163648175,39.070908636479516 L60.884820271087456,38.43226067455993 L61.285924928482956,37.789355719042085 L61.68024117984912,37.14226498203351 L62.067725348292406,36.49106013928463 L62.44833451368281,35.835813322249564 L62.822026517407956,35.17659711009633 L63.188759967042856,34.51348452166759 L63.548494240934744,33.84654900739261 L63.90118949270264,33.17586444115141 L64.24680665565096,32.5015051120921 L64.58530744709675,31.823545716402098 L64.91665437261014,31.142061349034375 L65.2408107301675,30.45712749538942 L65.55774061421666,29.768820022954067 L65.8674089196542,29.077215172897898 L66.16978134571372,28.382389551628325 L66.46482439976538,27.684420122305205 L66.7525054010256,26.983384196315903 L67.03279248417712,26.279359424711817 L67.30565460289849,25.57242378960728 L67.57106153330298,24.86265559554176 L67.82898387728643,24.150133460806384 L68.07939306578345,23.434936308735693 L68.32226136193201,22.71714335896559 L68.55756186414568,21.99683411865851 L68.78526850909346,21.274088373696703 L69.00535607458667,20.54898617984466 L69.21780018237273,19.82160785388165 L69.42257730083548,19.092033964705333 L69.61966474760166,18.360345324407454 L69.80904069205333,17.626622979322605 L69.99068415774596,16.890948201051025 L70.16457502473199,16.153402477456467 L70.33069403178932,15.4140675036401 L70.48902277855491,14.67302517289144 L70.63954372756285,13.930357567617374 L70.78224020618694,13.186146950250183 L70.91709640848744,12.440475754135665 L71.04409739696185,11.6934265744023 L71.16322910419947,10.945082158812516 L71.27447833443962,10.195525398597022 L71.37783276503322,9.444839319273285 L71.47328094780777,8.6931070714491 L71.56081231033544,7.9404119216123155 L71.64041715710408,7.186837242907735 L71.7120866705912,6.432466505902192 L71.77581291224064,5.677383269338826 L71.83158882334186,4.921671170881618 L71.87940822581187,4.165413917851155 L71.91926582287948,3.408695277952703 L71.9511571996721,2.651599069997571 L71.97507882370465,1.8942091546188313 L71.9910280452709,1.136609424982396 L71.99900309773695,0.37888379749449524 L71.99900309773696,-0.37888379749341994 L71.99102804527091,-1.1366094249813206 L71.97507882370468,-1.894209154617756 L71.95115719967214,-2.6515990699964966 L71.91926582287954,-3.4086952779516286 L71.87940822581193,-4.165413917850083 L71.83158882334193,-4.921671170880545 L71.77581291224072,-5.6773832693377555 L71.7120866705913,-6.432466505901121 L71.6404171571042,-7.186837242906667 L71.56081231033556,-7.940411921611247 L71.4732809478079,-8.693107071448031 L71.37783276503335,-9.44483931927222 L71.27447833443976,-10.195525398595956 L71.16322910419964,-10.94508215881145 L71.04409739696203,-11.693426574401238 L70.91709640848762,-12.440475754134605 L70.78224020618714,-13.186146950249125 L70.63954372756307,-13.930357567616317 L70.48902277855514,-14.673025172890387 L70.33069403178955,-15.414067503639048 L70.16457502473222,-16.153402477455423 L69.99068415774622,-16.89094820104998 L69.80904069205359,-17.626622979321564 L69.61966474760195,-18.360345324406413 L69.42257730083577,-19.092033964704296 L69.21780018237303,-19.821607853880618 L69.00535607458697,-20.548986179843634 L68.78526850909377,-21.274088373695676 L68.55756186414601,-21.99683411865749 L68.32226136193235,-22.71714335896457 L68.07939306578379,-23.434936308734677 L67.82898387728679,-24.150133460805375 L67.57106153330335,-24.862655595540755 L67.30565460289887,-25.572423789606276 L67.03279248417752,-26.27935942471082 L66.752505401026,-26.98338419631491 L66.46482439976577,-27.684420122304214 L66.16978134571414,-28.38238955162734 L65.86740891965462,-29.077215172896913 L65.55774061421711,-29.768820022953093 L65.24081073016795,-30.457127495388452 L64.91665437261061,-31.142061349033405 L64.58530744709722,-31.82354571640114 L64.24680665565144,-32.50150511209114 L63.90118949270314,-33.17586444115045 L63.54849424093525,-33.84654900739166 L63.18875996704337,-34.513484521666655 L62.82202651740848,-35.1765971100954 L62.44833451368334,-35.83581332224863 L62.06772534829295,-36.49106013928371 L61.68024117984967,-37.142264982032586 L61.285924928483524,-37.78935571904117 L60.88482027108803,-38.432260674559025 L60.47697163648234,-39.07090863647861 L60.062424200489986,-39.705228864223194 L59.64122388093498,-40.3351510965825 L59.2134173325556,-40.960605559495264 L58.77905194183669,-41.581522973777844 L58.33817582176081,-42.19783456279804 L57.89083780647894,-42.80947206009318 L57.43708744590136,-43.41636771693172 L56.976975000209116,-44.01845430981756 L56.51055143428697,-44.615665147936085 L56.037868412078154,-45.207934080541285 L55.55897829086179,-45.795195504283 L55.07393411545347,-46.37738437047354 L54.582789612329684,-46.95443619229293 L54.08559918367676,-47.52628705193177 L53.5824179013649,-48.09287360767128 L53.07330150084812,-48.65413310089933 L52.558306374990636,-49.21000336306201 L52.03748956782045,-49.76042282254979 L51.51090876821078,-50.305330511517575 L50.97862230349014,-50.84466607263789 L50.440689132981554,-51.37836976578639 L49.89716884147195,-51.906382474659104 L49.34812163261216,-52.42864571332044 L48.79360832224833,-52.945101632681535 L48.233690331685665,-53.45569302690792 L47.668429680885,-53.960363339755986 L47.097888981593044,-54.459056670837555 L46.52213143040719,-54.9517177818117 L45.94122080177543,-55.438292102503276 L45.35522144093232,-55.91872573694749 L44.76419825677168,-56.39296546935975 L44.16821671465692,-56.8609587700301 L43.56734282916967,-57.32265380114184 L42.96164315679759,-57.77799942251332 L42.351184788562215,-58.22694519726258 L41.73603534258747,-58.66944139739404 L41.11626295660992,-59.10543900930667 L40.49193628043142,-59.53488973922306 L39.863124468314986,-59.9577460185387 L39.22989717132491,-60.373961009091005 L38.59232452961173,-60.78348860834738 L37.950477164643104,-61.18628345451184 L37.30442617138133,-61.58230093154954 L36.65424311040845,-61.97149717412872 L35.99999999999971,-62.3538290724795 L35.34176930814643,-62.72925427716903 L34.67962394452898,-63.097731203792286 L34.01363725244083,-63.4592190375783 L33.343883000664654,-63.813677737911 L32.67043537530118,-64.16106804276438 L31.993368971551952,-64.5013514730514 L31.312758785456626,-64.83449033688615 L30.628680205586015,-65.16044773375884 L29.941209004691558,-65.47918755862318 L29.25042133131226,-65.7906745058955 L28.556393701340024,-66.0948740733655 L27.859202989544276,-66.3917525660179 L27.158926421056837,-66.68127709976466 L26.455641562818002,-66.96341560508749 L25.749426314984746,-67.23813683059005 L25.040358902302014,-67.50541034645951 L24.328517865438066,-67.76520654783722 L23.613982052284864,-68.01749665809783 L22.89683060922434,-68.26225273203681 L22.177142972361708,-68.4994476589659 L21.454998858726587,-68.72905516571592 L20.730478257443085,-68.95104981954708 L20.0036614208697,-69.16540703096594 L19.27462885571007,-69.37210305644923 L18.54346131409557,-69.57111500107372 L17.81023978464069,-69.76242082105227 L17.075045483472252,-69.94599932617547 L16.337959845233406,-70.12183018215887 L15.59906451406344,-70.28989391289528 L14.858441334554346,-70.4501719026121 L14.11617234268524,-70.60264639793324 L13.372339756735535,-70.74730050984573 L12.62702596817794,-70.88411821557033 L11.880313532552277,-71.01308436033634 L11.13228516032112,-71.13418465906027 L10.383023707708281,-71.2474056979281 L9.632612167521133,-71.35273493588116 L8.881133659957827,-71.45016070600511 L8.128671423400386,-71.53967221682238 L7.375308805194701,-71.6212595534874 L6.621129252418479,-71.69491367888493 L5.866216302638122,-71.76062643463096 L5.110653574655596,-71.81839054197647 L4.3545247592463,-71.86819960261359 L3.5979136098889546,-71.91004809938437 L2.840903933488557,-71.9439313968919 L2.083579581093413,-71.9698457420137 L1.3260244386072746,-71.98778826431754 L0.5683224174976247,-71.99775697637926 L-0.18944255449887315,-71.999750774003 L-0.9471865426727286,-71.99376943634346 L-1.7048256146387484,-71.97981362593038 L-2.4622758496329045,-71.9578848885952 L-3.219453347807912,-71.92798565329973 L-3.9762742395264956,-71.89011923186719 L-4.732654694651302,-71.84428981861537 L-5.488510931830448,-71.79050248989195 L-6.243759227777652,-71.72876320351234 L-6.998315926545943,-71.65907879809969 L-7.752097448793908,-71.58145699232735 L-8.505020301043453,-71.49590638406401 L-9.25700108492806,-71.4024364494213 L-10.007956506430487,-71.30105754170414 L-10.757803385108948,-71.19178089026393 L-11.506458663310676,-71.07461859925478 L-12.253839415371896,-70.94958364629272 L-12.9998628568032,-70.8166898810183 L-13.74444635345924,-70.67595202356239 L-14.487507430691823,-70.5273856629158 L-15.228963782485286,-70.37100725520251 L-15.968733280573234,-70.20683412185687 L-16.706733983535557,-70.03488444770501 L-17.44288414587478,-69.85517727895052 L-18.177102227070687,-69.66773252106485 L-18.909306900612254,-69.4725709365824 L-19.63941706300588,-69.26971414280075 L-20.367351842758893,-69.0591846093862 L-21.09303060933739,-68.84100565588489 L-21.816372982097363,-68.61520144913976 L-22.53729883918815,-68.38179700061374 L-23.25572832642724,-68.1408181636193 L-23.97158186614539,-67.89229163045471 L-24.684780166001158,-67.63624492944753 L-25.3952442277638,-67.37270642190538 L-26.10289535606361,-67.10170529897445 L-26.807655167108674,-66.82327157840608 L-27.509445597367186,-66.5374361012319 L-28.208188912214208,-66.24423052834759 L-28.903807714542047,-65.943687337006 L-29.596224953333248,-65.63583981721968 L-30.285363932195217,-65.32072206807358 L-30.971148317855597,-64.99836899394796 L-31.653502148617413,-64.6688163006522 L-32.33234984277305,-64.33210049146975 L-33.00761620697614,-63.98825886311484 L-33.679226444570475,-63.63732950160129 L-34.34710616387489,-63.27935127802383 L-35.0111813864234,-62.914363844252534 L-35.671378555159464,-62.542407628540644 L-36.32762454258365,-62.16352383104665 L-36.97984665885366,-61.777754419270536 L-37.627972659835926,-61.38514212340534 L-38.2719307551078,-60.98573043160397 L-38.911649615909525,-60.57956358516229 L-39.54705838304499,-60.16668657361866 L-40.17808667473062,-59.74714512977058 L-40.80466459439121,-59.32098572460905 L-41.42672273840215,-58.88825556217122 L-42.044192203776994,-58.449002574311685 L-42.65700459579954,-58.00327541539334 L-43.26509203559971,-57.551123456898075 L-43.86838716767216,-57.092596781958115 L-44.46682316733707,-56.627746179808476 L-45.060333748141986,-56.156623140161265 L-45.64885316920415,-55.67927984750233 L-46.23231624249237,-55.19576917531103 L-46.810658340047624,-54.70614468020361 L-47.38381540114168,-54.21046059600093 L-47.951723939372805,-53.70877182772123 L-48.51432104969798,-53.2011339454985 L-49.071544415400595,-52.68760317842717 L-49.62333231499304,-52.16823640833385 L-50.169623629053405,-51.64309116347674 L-50.710357846995336,-51.11222561217346 L-51.24547507377071,-50.575698556357956 L-51.77491603650383,-50.03356942506723 L-52.29862209105697,-49.48589826785862 L-52.81653522852606,-48.93274574815837 L-53.32859808166621,-48.37417313654212 L-53.83475393124596,-47.81024230394826 L-54.334946712329945,-47.24101571482466 L-54.82912102048894,-46.66655642020981 L-55.317222117936765,-46.08692805074878 L-55.79919593959345,-45.502194809645225 L-56.27498909907378,-44.91242146554976 L-56.74454889460068,-44.31767334538582 L-57.20782331484284,-43.71801632711362 L-57.66476104467575,-43.11351683243313 L-58.115311470865734,-42.50424181942682 L-58.559424687676135,-41.8902587751429 L-58.99705150239521,-41.27163570812014 L-59.42814344078502,-40.64844114085472 L-59.85265275245072,-40.020744102210344 L-60.270532416129704,-39.38861411977211 L-60.68173614489992,-38.752121212145255 L-61.08621839130698,-38.11133588119945 L-61.48393435240919,-37.466329104259586 L-61.87483997474027,-36.81717232624385 L-62.25889195918893,-36.163937451750094 L-62.63604776579497,-35.50669683709123 L-63.006265618461285,-34.84552328228057 L-63.369504509581205,-34.18049002296809 L-63.7257242045808,-33.51167072232836 L-64.07488524637544,-32.83913946290119 L-64.41694895974037,-32.162970738385766 L-64.75187745559458,-31.483239445389298 L-65.07963363519767,-30.800020875130986 L-65.40018119425903,-30.113390705102304 L-65.71348462695931,-29.423424990684524 L-66.01950922988307,-28.7302001567243 L-66.31822110586286,-28.033792989068445 L-66.60958716773385,-27.334280626058607 L-66.89357514199877,-26.631740549986986 L-67.17015357240271,-25.926250578513887 L-67.43929182341743,-25.2178888560482 L-67.70096008363471,-24.5067338450916 L-67.95512936906844,-23.792864317547583 L-68.20177152636515,-23.0763593459962 L-68.44085923592232,-22.357298294935497 L-68.67236601491454,-21.635760811990597 L-68.89626622022695,-20.911826819091466 L-69.11253505129552,-20.185576503620243 L-69.32114855285423,-19.45709030952921 L-69.52208361758838,-18.72644892843032 L-69.71531798869421,-17.99373329065728 L-69.90083026234417,-17.25902455630125 L-70.07859989005767,-16.522404106221007 L-70.24860718097726,-15.783953533028729 L-70.41083330404963,-15.043754632052291 L-70.56526029011151,-14.301889392275106 L-70.71187103388,-13.558439987254516 L-70.85064929584729,-12.81348876601976 L-70.98157970407941,-12.067118243950468 L-71.10464775591898,-11.319411093636768 L-71.21983981959154,-10.570450135721957 L-71.32714313571554,-9.820318329728764 L-71.42654581871567,-9.069098764870263 L-71.51803685813928,-8.316874650846389 L-71.60160611987608,-7.563729308627117 L-71.67724434728058,-6.8097461612233285 L-71.74494316219743,-6.055008724446358 L-71.80469506588948,-5.299600597657272 L-71.8564934398683,-4.54360545450689 L-71.9003325466274,-3.787107033667572 L-71.93620753027763,-3.0301891295578107 L-71.96411441708511,-2.2729355830606477 L-71.98405011591144,-1.5154302722369388 L-71.99601241855595,-0.7577571030345058 L-72.00000000000043,5.802973279053294e-12 " />
			<path d="M-88.18774914918738,-1.47 L-73.78974928809558,-1.2299999999999998 " />
			<path d="M-88.18774914918738,1.4700000000000002 L-88.1969372341192,0.7350255239353314 L-88.2,4.440892098500626e-16 L-88.1969372341192,-0.7350255239353312 L-88.18774914918738,-1.47 " />
			<path d="M-73.78974928809559,1.23 L-88.18774914918738,1.47 " />
			<path d="M-73.78974928809556,-1.23 L-73.78206129866282,-0.615021356762216 L-73.77949857619113,-2.220446049250313e-16 L-73.78206129866282,0.615021356762216 L-73.78974928809558,1.2299999999999998 " />
			<path d="M-87.76669645323581,8.731952455525999 L-73.43743988944219,7.306327564827875 " />
			<path d="M-87.66425855923352,9.706583912986908 L-87.71683117148172,9.219410460207051 L-87.76669645323581,8.731952455525999 " />
			<path d="M-73.35172654956273,8.121835519029858 L-87.6642585592335,9.706583912986906 " />
			<path d="M-73.43743988944219,7.306327564827875 L-73.39345056082637,7.713962494704898 L-73.35172654956273,8.121835519029858 " />
			<path d="M-86.37316373538165,17.858235812670713 L-72.27142271736012,14.94260547590814 " />
			<path d="M-86.16941027838024,18.816820461389838 L-86.27261838472164,18.337811130126376 L-86.37316373538165,17.858235812670713 " />
			<path d="M-72.10093513088955,15.74468650850986 L-86.16941027838023,18.816820461389835 " />
			<path d="M-72.27142271736012,14.94260547590814 L-72.18506491409485,15.34340920206736 L-72.10093513088955,15.74468650850986 " />
			<path d="M-84.03330856089613,26.788860601175706 L-70.31358471421919,22.415169074453136 " />
			<path d="M-83.73047190640867,27.720895987144964 L-83.88318473723257,27.25529890387037 L-84.03330856089613,26.788860601175706 " />
			<path d="M-70.06019077883174,23.195035417815163 L-83.73047190640867,27.720895987144953 " />
			<path d="M-70.31358471421919,22.415169074453136 L-70.18580459046859,22.804750307397182 L-70.06019077883174,23.195035417815163 " />
			<path d="M-80.77276687271707,35.42598102700476 L-67.5853763628857,29.64214738994275 " />
			<path d="M-80.37416496250277,36.3212555754945 L-80.57470936407738,35.87417191928559 L-80.77276687271707,35.42598102700476 " />
			<path d="M-67.25185231556355,30.39125466520968 L-80.37416496250277,36.3212555754945 " />
			<path d="M-67.5853763628857,29.64214738994275 L-67.41757390442531,30.016237796158368 L-67.25185231556355,30.39125466520968 " />
			<path d="M-77.1078310657658,42.820817231030574 L-64.51879742237546,35.82966339739292 " />
			<path d="M-75.63783106576578,45.36693191815683 L-76.0132754187612,44.73501939321758 L-76.38344061378747,44.1 L-76.74830094269655,43.46191784090165 L-77.1078310657658,42.820817231030574 " />
			<path d="M-63.28879742237544,37.960085890702636 L-75.63783106576578,45.36693191815682 " />
			<path d="M-64.51879742237546,35.82966339739292 L-64.20465010660376,36.35840653050535 L-63.89492004545932,36.889749288095565 L-63.58962874984154,37.42365476815745 L-63.28879742237544,37.960085890702636 " />
			<path d="M-1.4700000000000146,88.1877491491874 L-1.2300000000000115,73.78974928809558 " />
			<path d="M1.4700000000000042,88.1877491491874 L0.7350255239353307,88.19693723411922 L-4.884981308350689e-15,88.20000000000002 L-0.7350255239353414,88.19693723411922 L-1.4700000000000146,88.1877491491874 " />
			<path d="M1.2300000000000033,73.78974928809559 L1.4700000000000037,88.18774914918738 " />
			<path d="M-1.2300000000000118,73.78974928809556 L-0.6150213567622241,73.78206129866282 L-4.6629367034256575e-15,73.77949857619113 L0.6150213567622151,73.78206129866282 L1.230000000000003,73.78974928809558 " />
			<path d="M-9.7065839129869,87.66425855923353 L-8.121835519029851,73.35172654956271 " />
			<path d="M-8.731952455525981,87.76669645323582 L-9.219410460207037,87.71683117148172 L-9.7065839129869,87.66425855923353 " />
			<path d="M-7.306327564827857,73.43743988944219 L-8.73195245552598,87.76669645323581 " />
			<path d="M-8.121835519029851,73.35172654956271 L-7.713962494704884,73.39345056082634 L-7.306327564827857,73.43743988944219 " />
			<path d="M-18.816820461389845,86.16941027838023 L-15.744686508509874,72.10093513088958 " />
			<path d="M-17.858235812670713,86.37316373538165 L-18.337811130126383,86.27261838472164 L-18.816820461389845,86.16941027838023 " />
			<path d="M-14.942605475908142,72.27142271736014 L-17.858235812670706,86.37316373538164 " />
			<path d="M-15.744686508509874,72.10093513088958 L-15.343409202067368,72.18506491409487 L-14.942605475908142,72.27142271736014 " />
			<path d="M-27.72089598714497,83.73047190640867 L-23.19503541781517,70.06019077883174 " />
			<path d="M-26.788860601175706,84.03330856089613 L-27.255298903870376,83.88318473723257 L-27.72089598714497,83.73047190640867 " />
			<path d="M-22.415169074453132,70.31358471421917 L-26.788860601175703,84.03330856089612 " />
			<path d="M-23.19503541781517,70.06019077883174 L-22.804750307397182,70.18580459046859 L-22.415169074453132,70.31358471421917 " />
			<path d="M-36.321255575494504,80.37416496250282 L-30.391254665209672,67.25185231556354 " />
			<path d="M-35.42598102700473,80.77276687271709 L-35.87417191928557,80.57470936407739 L-36.321255575494504,80.37416496250282 " />
			<path d="M-29.642147389942725,67.5853763628857 L-35.42598102700473,80.77276687271707 " />
			<path d="M-30.391254665209672,67.25185231556354 L-30.016237796158354,67.41757390442531 L-29.642147389942725,67.5853763628857 " />
			<path d="M-45.36693191815682,75.6378310657658 L-37.96008589070263,63.28879742237545 " />
			<path d="M-42.820817231030546,77.10783106576577 L-43.461917840901634,76.74830094269655 L-44.099999999999994,76.38344061378749 L-44.735019393217556,76.0132754187612 L-45.36693191815682,75.6378310657658 " />
			<path d="M-35.829663397392906,64.51879742237546 L-42.82081723103055,77.1078310657658 " />
			<path d="M-37.96008589070263,63.28879742237545 L-37.42365476815745,63.589628749841566 L-36.88974928809555,63.89492004545933 L-36.35840653050534,64.20465010660376 L-35.829663397392906,64.51879742237546 " />
			<path d="M-71.64221250697682,51.445440877741305 L-59.945524750735686,43.046185224232524 " />
			<path d="M-71.06618295973018,52.23827753222875 L-71.35529890387039,51.84265925219613 L-71.64221250697682,51.445440877741305 " />
			<path d="M-59.46354084385587,43.70957915961997 L-71.06618295973018,52.23827753222876 " />
			<path d="M-59.945524750735686,43.046185224232524 L-59.70361140972043,43.37721276466798 L-59.46354084385587,43.70957915961997 " />
			<path d="M-65.87223609373797,58.652267748236696 L-55.11758530292359,49.076387299544976 " />
			<path d="M-65.2164880995063,59.38054967720453 L-65.54537360710617,59.017319480851285 L-65.87223609373797,58.652267748236696 " />
			<path d="M-54.56889820570934,49.68576605643643 L-65.2164880995063,59.38054967720453 " />
			<path d="M-55.11758530292359,49.076387299544976 L-54.84239538840122,49.38031460669766 L-54.56889820570934,49.68576605643643 " />
			<path d="M-59.38054967720453,65.21648809950631 L-49.685766056436435,54.568898205709345 " />
			<path d="M-58.652267748236696,65.87223609373797 L-59.0173194808513,65.54537360710617 L-59.38054967720453,65.21648809950631 " />
			<path d="M-49.07638729954498,55.117585302923594 L-58.65226774823669,65.87223609373797 " />
			<path d="M-49.685766056436435,54.568898205709345 L-49.38031460669766,54.84239538840122 L-49.07638729954498,55.117585302923594 " />
			<path d="M-52.238277532228764,71.06618295973018 L-43.709579159619985,59.46354084385586 " />
			<path d="M-51.44544087774133,71.6422125069768 L-51.84265925219614,71.35529890387036 L-52.238277532228764,71.06618295973018 " />
			<path d="M-43.046185224232524,59.945524750735686 L-51.445440877741326,71.64221250697679 " />
			<path d="M-43.709579159619985,59.46354084385586 L-43.377212764668,59.70361140972044 L-43.046185224232524,59.945524750735686 " />

       </g>
    </g>
    
</svg>
